<svg xmlns="http://www.w3.org/2000/svg" width="422" height="231" fill="none" viewBox="0 0 422 231">
  <rect width="422" height="231" fill="#BF3C3D" fill-opacity=".4" rx="40"/>
  <path fill="#FFFAED" d="M350.724 36H116.165a9.775 9.775 0 0 0-6.116 2.667c-12.397 11.92-24.52 24.167-36.809 36.141a9.96 9.96 0 0 0-2.512 3.61 9.93 9.93 0 0 0-.71 4.337v110.274h235.05a9.025 9.025 0 0 0 5.734-2.394 3328.57 3328.57 0 0 0 37.737-37.23 9.847 9.847 0 0 0 2.403-6.205V40.79c.164-1.524-.055-2.994-.218-4.79ZM171.378 151.282h-16.984v-24.657h-23.92v24.657h-17.367V77.911h17.367v33.093h23.92V77.911h17.039l-.055 73.371Zm60.073 0-16.875-25.201h-12.67v25.201h-17.203V77.911h50.025a8.992 8.992 0 0 1 6.226 2.286 7.134 7.134 0 0 1 2.512 5.443v32.658a7.272 7.272 0 0 1-.67 2.99 7.312 7.312 0 0 1-1.842 2.453 8.978 8.978 0 0 1-6.226 2.286l16.82 25.2-20.097.055Zm76.566-57.913h-17.039v57.913h-17.312V93.369h-17.039V77.91h51.39v15.458Z"/>
  <path fill="#FFFAED" d="M202.235 93.853h23.968v16.529h-23.968v-16.53Z"/>
</svg>
