<svg xmlns="http://www.w3.org/2000/svg" width="682" height="276" fill="none" viewBox="0 0 682 276">
  <rect width="681.664" height="276" fill="#3F5EC5" fill-opacity=".4" rx="40"/>
  <g clip-path="url(#a)">
    <path fill="#FFFAED" d="M119.841 21.302a93.909 93.909 0 1 0 0 187.818 93.909 93.909 0 0 0 0-187.818Zm-10.6 49.845h17.433l-2.891 14.63h-17.432l2.89-14.63Zm-25.229 74.111c-.613 1.139-7.446 14.892-24.177 15.067-3.943 0-5.257-2.102-5.52-4.204-.174-2.629 1.402-9.199 5.344-26.631l2.54-11.389c.877-3.679 1.402-5.694 1.227-7.446 0-.963-.7-1.752-1.84-1.752-2.102 0-7.358 6.746-8.76 9.023-.438.613-.876.613-1.313.175l-1.314-1.314c-.438-.35-.789-.963-.526-1.226.613-.876 9.548-17.696 23.564-17.87 4.03 0 5.957 2.277 6.133 5.168.35 3.066-.877 7.446-2.716 15.768l-5.168 21.813a28.907 28.907 0 0 0-1.315 8.147c.176 1.051.614 2.015 1.928 2.015 2.628 0 8.234-7.096 8.847-8.41.263-.438.789-.438 1.052-.175l1.751 1.752c.439.438.526.701.263 1.401v.088Zm2.278-68.417c-1.226 5.957-6.22 10.775-11.213 10.775-4.993 0-7.972-4.818-6.833-10.775 1.139-5.957 6.132-10.775 11.213-10.775 5.081 0 7.972 4.818 6.833 10.775Zm6.132 80.594 12.089-62.198h17.52l-12.176 62.198H92.422Zm88.214-8.673a40.301 40.301 0 0 1-15.943 7.359 81.546 81.546 0 0 1-16.995 1.226h-30.397l6.132-29.171 6.307-32.85h18.133l-9.899 47.479-.175.613h9.023c6.57 0 11.301-.35 14.191-1.138 2.891-.789 5.607-2.366 8.06-4.556 3.504-3.153 6.482-7.358 8.847-12.614 2.365-5.256 3.592-11.564 3.592-18.66 0-6.132-.964-10.687-2.979-13.753-2.014-3.066-4.38-4.818-7.358-5.87-2.015-.7-5.694-1.05-10.95-1.05H131.58l2.89-14.63h24.003c6.482 0 10.687 0 12.439.263a35.908 35.908 0 0 1 9.636 2.19 26.363 26.363 0 0 1 13.578 11.65c1.752 2.804 2.979 6.045 3.855 9.637a55.189 55.189 0 0 1-3.855 36.793c-3.504 7.183-8.059 12.877-13.403 17.082h-.087ZM269.113 48.02l8.409 16.645h-7.008l-8.147-16.207h-9.285v16.207h-5.957v-40.91h17.958c7.008 0 13.14 3.854 13.14 12.264 0 6.482-3.504 10.512-9.023 11.914l-.087.087Zm-4.03-18.396h-12.001v13.14h12.001c4.03 0 6.92-2.19 6.92-6.57 0-4.293-2.803-6.658-7.008-6.658l.088.088Zm50.808 35.04V46.269h-18.834v18.397h-6.132v-40.91h6.132V40.31h18.747V23.755h6.132v40.91h-6.132.087Zm35.303.701c-10.512 0-17.257-8.76-17.257-21.112 0-12.44 6.658-21.2 17.257-21.2 10.688 0 17.345 8.76 17.345 21.025 0 12.44-6.657 21.2-17.345 21.2v.087Zm0-36.091c-7.095 0-11.037 5.781-11.037 14.892 0 9.286 3.942 15.067 11.037 15.067 7.184 0 11.126-5.781 11.126-14.98 0-9.198-3.942-15.067-11.126-15.067v.087Zm40.472 35.39h-11.213v-40.91h11.213c10.95 0 19.973 6.045 19.973 20.5 0 14.454-9.286 20.41-19.973 20.41Zm0-34.953h-4.993v28.997h4.993c9.636 0 13.666-5.87 13.666-14.455s-3.942-14.541-13.666-14.541Zm31.711 35.041V23.667h26.368v5.957h-20.148v10.162h11.739v6.044h-11.827v12.878h21.112v5.957h-27.156l-.088.087Zm51.51.613c-6.045 0-11.126-2.628-14.63-6.657l4.38-4.205a14.897 14.897 0 0 0 10.688 4.818c5.694 0 8.497-2.015 8.497-5.957 0-3.154-2.453-4.73-9.286-6.833-8.672-2.54-12.79-4.73-12.79-12.001 0-7.009 5.957-11.389 13.491-11.389a18.4 18.4 0 0 1 13.403 5.52l-4.38 4.38c-2.541-2.629-5.431-3.855-9.461-3.855-4.818 0-6.833 2.277-6.833 5.08 0 2.804 1.84 4.206 8.935 6.308 8.06 2.453 13.14 5.081 13.14 12.352 0 7.358-4.73 12.44-15.154 12.44Zm-227.499 70.082V94.362h6.132v40.909h-6.132v.176Zm46.428 0-16.294-25.668-3.066-5.081v30.749h-5.869V94.449h6.22l15.505 24.966 3.504 5.782-.088-9.636V94.537h5.957v40.822h-5.869v.088Zm26.718-34.953v10.687h11.739v6.044h-11.739v18.134h-6.132v-40.91h26.28v6.132h-20.148v-.087Zm44.414 35.566c-10.512 0-17.345-8.76-17.345-21.112 0-12.352 6.833-21.112 17.345-21.112 10.599 0 17.345 8.76 17.345 21.024 0 12.264-6.746 21.2-17.345 21.2Zm0-36.092c-7.096 0-11.038 5.782-11.038 14.892 0 9.286 3.942 15.068 11.038 15.068 7.183 0 11.125-5.782 11.125-14.98s-3.942-14.892-11.125-14.892v-.088Zm49.319 18.747 8.41 16.644h-7.096l-8.147-16.119h-9.198v16.119h-6.132v-40.91h17.958c7.096 0 13.14 3.855 13.14 12.264 0 6.57-3.504 10.512-9.023 12.002h.088Zm-4.117-18.397h-11.914v13.141h11.914c4.117 0 7.008-2.103 7.008-6.571 0-4.292-2.891-6.657-7.008-6.657v.087Zm55.188 35.041v-21.55l.175-7.271-2.628 6.483-9.986 23.039-9.811-23.039-2.628-6.395.175 7.183v21.55h-5.87v-40.91h6.395l9.111 21.9c1.051 2.278 2.277 5.257 2.803 7.009.613-1.752 1.752-4.643 2.803-7.009l8.935-21.9h6.571v40.91h-6.045Zm47.217 0-3.504-9.636h-16.206l-3.417 9.636h-6.395l14.717-40.91h6.57l14.892 40.91h-6.657Zm-8.585-24.528c-.964-2.979-2.628-7.709-3.066-9.461-.526 1.752-1.927 6.482-2.978 9.461l-3.329 9.461h12.614l-3.241-9.374v-.087Zm37.23-10.337v34.865h-6.132v-34.865h-11.913v-6.045h29.959v6.132H541.2v-.087Zm22.338 34.865v-40.91h6.132v40.91h-6.132Zm33.639.701c-10.6 0-17.345-8.76-17.345-21.112 0-12.352 6.745-21.112 17.345-21.112 10.6 0 17.345 8.76 17.345 21.024 0 12.264-6.745 21.2-17.433 21.2h.088Zm0-36.092c-7.183 0-11.038 5.782-11.038 14.892 0 9.286 3.855 15.068 11.038 15.068s11.038-5.782 11.038-14.98-3.855-14.892-11.038-14.892v-.088Zm53.612 35.391-16.294-25.58-3.066-5.081.088 9.461v21.288h-5.957V94.449h6.219l15.593 24.966 3.417 5.782-.088-9.636V94.537h5.957v40.822h-5.869Zm-403.401 70.782v-40.91h6.132v40.91h-6.132Zm47.041 0-16.381-25.667-2.979-5.081v30.748h-5.956v-40.91h6.307l15.505 24.879 3.417 5.869v-30.748h5.869v40.91h-5.782Zm19.973 0v-40.91h6.132v40.91h-6.132Zm36.354-34.953v34.953h-6.132V171.1h-11.913v-5.956h29.959v5.956h-11.914v.088Zm23.74 34.953v-40.91h6.132v40.91h-6.132Zm46.779 0-3.504-9.724H401.39l-3.329 9.636h-6.395l14.717-40.822h6.482l14.892 40.91h-6.482Zm-8.585-24.616-3.154-9.461c-.438 1.752-1.927 6.483-2.978 9.461l-3.241 9.373h12.614l-3.241-9.373Zm38.982-10.425v35.041h-6.132V171.1h-12.001v-5.956h30.047v5.956h-11.914Zm24.967 34.953v-40.909h6.132v40.997h-6.132v-.088Zm40.121 0h-6.483l-14.191-40.909h6.658l8.497 26.105c.788 2.453 1.927 6.044 2.277 7.534.351-1.49 1.577-5.257 2.278-7.622l8.41-25.93h6.57l-14.016 40.91v-.088Zm26.192 0v-40.909h26.28v5.956h-20.148v10.075h11.739v5.957h-11.739v12.965h21.025v5.956h-27.157Zm-285.841 44.59-1.577-4.38h-7.446l-1.576 4.38h-2.891l6.657-18.747h2.979l6.833 18.747h-2.979Zm-3.942-11.213c-.438-1.402-1.226-3.504-1.401-4.38-.176.876-.876 2.978-1.402 4.38l-1.489 4.292h5.781l-1.489-4.38v.088Zm18.659-4.731v15.944h-2.803v-15.944h-5.519v-2.803h13.841v2.803h-5.519Zm25.58 15.944h-5.081v-18.747h5.081c4.993 0 9.11 2.803 9.11 9.373 0 6.658-4.205 9.374-9.11 9.374Zm0-15.944h-2.278v13.14h2.278c4.38 0 6.219-2.628 6.219-6.57s-1.752-6.57-6.219-6.57Zm23.126 16.206c-4.643 0-7.008-2.978-7.008-8.147v-10.862h2.803v10.775c0 3.504 1.49 5.431 4.293 5.431 2.891 0 4.38-1.752 4.38-5.256v-10.95h2.715v11.038c0 5.256-2.54 8.059-7.183 8.059v-.088Zm26.718-.262-5.343-9.637-3.504 4.205v5.432h-2.716v-18.747h2.716v9.811l2.102-2.803 5.519-6.921h3.241l-5.519 6.833 6.658 11.914h-3.154v-.087Zm9.899 0v-18.747h12.177v2.803h-9.286v4.555h5.431v2.716h-5.431v5.957h9.636v2.628h-12.439l-.088.088Zm36.968.262c-4.556 0-7.008-2.978-7.008-8.147v-10.862h2.803v10.775c0 3.504 1.489 5.431 4.292 5.431 2.979 0 4.38-1.752 4.38-5.256v-10.95h2.716v11.038c0 5.256-2.54 8.059-7.183 8.059v-.088Zm26.718-.262-7.446-11.739-1.402-2.278v14.017h-2.715v-18.747h2.89l7.009 11.388 1.664 2.628v-14.016h2.628v18.922h-2.628v-.175Zm10.862 0v-18.747h2.804v18.922h-2.804v-.175Zm19.273 0h-2.979l-6.482-18.747h3.066l3.942 11.914c.35 1.139.876 2.803.963 3.504l1.052-3.504 3.854-11.914h2.978l-6.394 18.747Zm12.964 0v-18.747h12.002v2.803h-9.198v4.555h5.256v2.716h-5.256v5.957h9.636v2.628h-12.44v.088Zm29.347-7.622 3.766 7.622h-3.241l-3.679-7.446h-4.292v7.446h-2.804v-18.747h8.235c3.241 0 6.044 1.752 6.044 5.606 0 2.979-1.576 4.818-4.117 5.519h.088Zm-1.928-8.409h-5.518v5.956h5.431c1.84 0 3.153-.876 3.153-2.978 0-1.927-1.226-2.978-3.153-2.978h.087Zm19.185 16.293a8.676 8.676 0 0 1-6.658-2.978l2.015-1.927a6.826 6.826 0 0 0 4.818 2.19c2.628 0 3.855-.876 3.855-2.716 0-1.489-1.052-2.19-4.205-3.154-3.942-1.138-5.869-2.102-5.869-5.431 0-3.241 2.715-5.256 6.132-5.256 2.628 0 4.555.876 6.132 2.541l-1.928 2.014a5.697 5.697 0 0 0-4.38-1.752c-2.19 0-3.066 1.052-3.066 2.278 0 1.314.876 1.927 4.03 2.891 3.679 1.139 6.044 2.277 6.044 5.694 0 3.329-2.19 5.606-7.008 5.606h.088Zm14.454-.262v-18.747h2.803v18.922h-2.803v-.175Zm18.046-15.944v15.944h-2.803v-15.944h-5.344v-2.803h13.666v2.803h-5.519Zm20.498 8.498v7.446h-2.803v-7.446l-6.657-11.301h3.241l2.978 5.256 1.927 3.679c.263-.701 1.227-2.54 1.928-3.679l2.89-5.256h3.242l-6.746 11.388v-.087Z"/>
  </g>
  <defs>
    <clipPath id="a">
      <path fill="#fff" d="M25.933 21.302h630.725v229.691H25.933z"/>
    </clipPath>
  </defs>
</svg>
