<svg xmlns="http://www.w3.org/2000/svg" width="288" height="302" fill="none" viewBox="0 0 288 302">
  <rect width="288" height="302" fill="#3F5EC5" fill-opacity=".4" rx="40"/>
  <path fill="#fff" d="M201.421 207 65 170.186 101.579 34 238 70.814 201.421 207Zm-25.785-100.268-38.077-10.476-10.195 38.012 38.077 10.476 10.195-38.012ZM59.765 249.321l6.389 11.99H54.298l-5.395-10.246H43.79v10.246H33v-36.332h19.736c8.165 0 13.347 4.651 13.347 13.007 0 5.377-2.413 9.229-6.318 11.335ZM43.79 234.425v7.194h7.667c2.272 0 3.692-1.381 3.692-3.633 0-2.253-1.42-3.561-3.692-3.561H43.79ZM100.445 264l-32.302-8.938L76.803 222l32.304 8.938L100.445 264Zm-6.106-24.343-9.016-2.543-2.414 9.228 9.016 2.543 2.414-9.228Zm51.755 11.409c0 6.976-4.33 10.245-11.075 10.245h-21.156V224.98h20.446c6.745 0 11.075 3.56 11.075 9.809 0 3.924-1.419 6.54-4.117 8.357 3.052 1.38 4.827 4.142 4.827 7.92Zm-21.724-17.367v5.377h7.029c1.916 0 3.052-.872 3.052-2.761 0-1.744-1.136-2.616-3.052-2.616h-7.029Zm0 18.893h7.881c1.845 0 2.91-1.017 2.91-2.761 0-1.89-1.065-2.761-2.91-2.761h-7.881v5.522Zm27.049-27.613h10.791v25.578h15.476v10.754h-26.267v-36.332Zm65.954 18.167c0 10.463-8.236 18.892-18.459 18.892-10.223 0-18.458-8.43-18.458-18.892 0-10.464 8.235-18.893 18.458-18.893 10.223 0 18.459 8.428 18.459 18.893Zm-10.791 0c0-4.505-3.479-8.066-7.668-8.066-4.188 0-7.667 3.561-7.667 8.066 0 4.505 3.479 8.065 7.667 8.065 4.189 0 7.668-3.561 7.668-8.065Zm36.774-.582L255 261.311h-12.85l-6.389-10.682-6.603 10.682h-13.062L228.235 243l-11.146-18.021h12.85l5.893 9.81 5.679-9.81h12.779l-10.934 17.585Z"/>
</svg>
