<svg xmlns="http://www.w3.org/2000/svg" width="510" height="152" fill="none" viewBox="0 0 510 152">
  <rect width="510" height="152" fill="#3FBFC5" fill-opacity=".4" rx="40"/>
  <path fill="#FFF9EC" d="M172.279 68.409c0 1.03-.518 1.546-1.555 1.546h-8.166c-.346 0-.518.171-.518.515v18.677c0 1.975.389 3.435 1.166 4.38.821.901 2.139 1.352 3.954 1.352h2.592c.994 0 1.49.515 1.49 1.546v7.792c0 .945-.496 1.482-1.49 1.611-2.333.128-3.996.193-4.99.193-5.055 0-8.814-.859-11.277-2.576-2.462-1.675-3.737-4.788-3.824-9.339V70.47c0-.344-.172-.515-.518-.515h-4.666c-.994 0-1.491-.516-1.491-1.546V61.26c0-1.03.497-1.545 1.491-1.545h4.666c.346 0 .518-.172.518-.516V49.024c0-1.031.519-1.546 1.556-1.546h9.267c1.037 0 1.556.515 1.556 1.545V59.2c0 .344.172.516.518.516h8.166c1.037 0 1.555.515 1.555 1.545v7.149Zm34.932-7.149c0-1.03.518-1.545 1.555-1.545h9.657c1.037 0 1.555.515 1.555 1.545v43.28c0 1.03-.518 1.545-1.555 1.545h-9.657c-1.037 0-1.555-.515-1.555-1.545v-2.448c0-.215-.086-.343-.26-.386-.129-.043-.259.043-.388.257-2.377 3.177-6.092 4.766-11.147 4.766-4.623 0-8.403-1.395-11.342-4.186-2.981-2.748-4.471-6.612-4.471-11.593V61.26c0-1.03.518-1.545 1.555-1.545h9.592c1.036 0 1.555.515 1.555 1.545v26.535c0 2.404.648 4.357 1.944 5.86 1.297 1.503 3.111 2.254 5.444 2.254 2.031 0 3.716-.622 5.055-1.868 1.34-1.245 2.16-2.855 2.463-4.83v-27.95Zm45.43-2.125c1.944 0 3.543.343 4.796 1.03.734.387 1.015 1.03.842 1.932l-1.75 9.468c-.043.515-.194.837-.453.966-.303.129-.756.129-1.361 0-.951-.215-1.815-.322-2.593-.322-.432 0-1.123.043-2.073.129-2.204.214-4.062 1.009-5.574 2.383-1.512 1.416-2.268 3.306-2.268 5.667v24.152c0 1.03-.518 1.545-1.555 1.545h-9.657c-1.036 0-1.555-.515-1.555-1.545V61.26c0-1.03.519-1.545 1.555-1.545h9.657c1.037 0 1.555.515 1.555 1.545v2.834c0 .215.065.365.194.45.13.044.281-.02.454-.192 2.42-3.478 5.681-5.217 9.786-5.217Zm52.818 12.43c1.167 3.005 1.75 6.72 1.75 11.142 0 4.336-.518 7.943-1.555 10.82-1.21 3.993-3.414 7.191-6.611 9.596-3.154 2.447-6.783 3.671-10.887 3.671-4.45 0-7.907-1.61-10.369-4.831-.13-.214-.26-.3-.389-.257-.173.043-.26.171-.26.386v2.448c0 1.03-.518 1.545-1.555 1.545h-9.656c-1.037 0-1.556-.515-1.556-1.545V44.515c0-1.03.519-1.546 1.556-1.546h9.656c1.037 0 1.555.516 1.555 1.546v18.548c0 .258.087.408.26.451.129.086.259.022.389-.193 2.419-2.92 5.876-4.38 10.369-4.38 4.104 0 7.668 1.138 10.693 3.414 3.068 2.276 5.271 5.346 6.61 9.21ZM291.85 91.852c1.253-2.362 1.879-5.303 1.879-8.823 0-3.907-.713-7.063-2.138-9.468-1.469-2.318-3.586-3.478-6.351-3.478-2.55 0-4.581 1.181-6.093 3.543-1.253 2.232-1.879 5.324-1.879 9.274 0 3.735.605 6.72 1.815 8.952 1.425 2.576 3.478 3.864 6.157 3.864 2.937 0 5.141-1.288 6.61-3.864Zm43.55 14.942c-5.141 0-9.526-1.31-13.155-3.929-3.63-2.662-6.114-6.269-7.453-10.82-.821-2.834-1.232-5.904-1.232-9.21 0-3.692.454-6.89 1.361-9.596 1.383-4.422 3.867-7.9 7.453-10.433 3.586-2.533 7.95-3.8 13.091-3.8 4.969 0 9.225 1.267 12.767 3.8 3.543 2.533 6.006 5.99 7.389 10.369.907 2.748 1.36 5.903 1.36 9.467 0 3.135-.388 6.161-1.166 9.081-1.383 4.723-3.889 8.416-7.518 11.078-3.586 2.662-7.885 3.993-12.897 3.993Zm0-10.885c1.945 0 3.608-.6 4.991-1.803 1.382-1.202 2.376-2.855 2.981-4.959.475-1.632.713-3.736.713-6.311 0-2.534-.238-4.68-.713-6.441-.605-2.018-1.599-3.607-2.981-4.766-1.383-1.116-3.111-1.674-5.185-1.674-1.987 0-3.673.558-5.055 1.674-1.383 1.16-2.376 2.748-2.981 4.766-.519 1.76-.778 3.907-.778 6.44 0 2.448.259 4.552.778 6.312.605 2.104 1.62 3.757 3.046 4.96 1.382 1.201 3.11 1.802 5.184 1.802Zm65.653-36.903c3.931 0 7.431.687 10.499 2.061 3.067 1.331 5.465 3.177 7.193 5.539 1.729 2.318 2.593 4.937 2.593 7.857v30.077c0 1.03-.519 1.545-1.556 1.545h-9.656c-1.037 0-1.556-.515-1.556-1.545v-2.126c0-.258-.065-.408-.194-.451-.13 0-.281.086-.453.258-2.765 3.048-6.913 4.573-12.444 4.573-4.666 0-8.403-1.138-11.211-3.414-2.852-2.275-4.278-5.646-4.278-10.111 0-4.637 1.62-8.223 4.861-10.756 3.284-2.576 7.95-3.864 13.998-3.864h9.138c.389 0 .583-.172.583-.515v-1.868c0-2.018-.626-3.585-1.879-4.701-1.253-1.073-3.046-1.61-5.379-1.61-1.815 0-3.327.3-4.537.901-1.166.601-1.965 1.439-2.398 2.512-.345.816-.95 1.202-1.814 1.16l-10.045-1.289c-.476-.043-.864-.172-1.167-.386-.259-.215-.345-.494-.259-.837.302-2.49 1.339-4.723 3.111-6.698 1.771-1.975 4.126-3.521 7.064-4.637 2.938-1.117 6.2-1.675 9.786-1.675Zm-1.815 38.32c2.593 0 4.796-.687 6.611-2.06 1.814-1.375 2.721-3.156 2.721-5.346v-3.156c0-.343-.194-.515-.583-.515h-6.416c-2.722 0-4.861.515-6.416 1.546-1.598 1.03-2.397 2.468-2.397 4.315 0 1.631.604 2.919 1.814 3.864 1.166.901 2.722 1.352 4.666 1.352Zm38.107-41.991c-2.333 0-4.212-.708-5.638-2.125-1.469-1.417-2.204-3.242-2.204-5.475 0-2.232.735-4.036 2.204-5.41 1.426-1.416 3.305-2.125 5.638-2.125 2.333 0 4.213.687 5.638 2.061 1.426 1.374 2.139 3.199 2.139 5.474 0 2.276-.713 4.122-2.139 5.54-1.425 1.373-3.305 2.06-5.638 2.06Zm-4.861 50.75c-.993 0-1.49-.515-1.49-1.545V61.26c0-1.03.497-1.545 1.49-1.545h9.722c1.037 0 1.555.515 1.555 1.545v43.28c0 1.03-.518 1.545-1.555 1.545h-9.722ZM100.02 25.639c-1.693-.938-3.781-.893-5.97-.047a5.624 5.624 0 0 1 2.476.68c4.543 2.52 4.522 11.167-.052 19.314l-2.52 4.488c-1.594 2.841-4.013 5.903-5.112 8.947-.265.733-1.018 3.435-.866 4.089.576 2.487 5.54-6.663 5.885-7.276 2.036-3.627 4.073-7.255 6.107-10.882 4.572-8.148 4.595-16.796.052-19.313Zm16.474 98.251c-.715 0-1.345-.143-1.902-.426-1.851-.947-2.28-3.111-2.695-5.207-.372-1.888-.724-3.671-1.985-4.319-1.886-.968-5.716-.351-8.007.022l-.249.04c-2.075.336-4.296 1.021-6.646 1.748-3.156.973-6.416 1.982-9.403 2.103l-1.214.048.096-1.201c.054-.681.368-1.392.702-2.149.685-1.548.906-2.308.404-2.7-1.05-.824-4.227-.5-9.435.965l-.514.144c-.454.125-1.109.328-1.907.575-7.025 2.174-14.784 4.31-17.969 2.117-.862-.596-1.351-1.477-1.414-2.554a1.068 1.068 0 0 1 .272-.774c.19-.212.457-.339.743-.356.6-.004 1.102.417 1.137 1.009.024.422.17.697.49.915 2.59 1.783 12.405-1.258 16.1-2.402.828-.256 1.506-.466 1.975-.596l.5-.139c4.628-1.301 9.206-2.269 11.358-.587 1.895 1.487.895 3.748.235 5.243-.023.053-.044.103-.067.153 2.306-.326 4.822-1.104 7.27-1.861 2.32-.715 4.718-1.457 6.943-1.816l.248-.04c2.72-.441 6.831-1.104 9.342.19 2.184 1.122 2.678 3.613 3.112 5.809.33 1.666.641 3.241 1.565 3.714.811.414 2.316.135 4.357-.79a1.086 1.086 0 0 1 1.191.183 1.057 1.057 0 0 1 .345.75 1.067 1.067 0 0 1-.641 1.014c-1.734.788-3.156 1.175-4.337 1.175ZM62.191 86.881c-3.665-1.198-6.565-3.218-8.1-5.357-7.669 16.421-11.11 29.023-7.881 30.814 3.345 1.853 12.86-8.453 23.315-24.5-2.164.194-4.72-.103-7.334-.957Z"/>
  <path fill="#FFF9EC" d="M95.461 24.589c-4.305-2.386-11.731 2.697-16.588 11.35L59.831 69.87l.067.036a253.154 253.154 0 0 0-5.336 10.629c2.01 1.721 4.888 3.314 8.268 4.419 2.724.89 5.373 1.33 7.686 1.365a261.894 261.894 0 0 0 4.832-7.848l.066.037 19.044-33.93c4.858-8.653 5.305-17.602 1.003-19.988Z"/>
</svg>
