<svg width="1140" height="352" viewBox="0 0 1140 352" fill="none" xmlns="http://www.w3.org/2000/svg">
<path d="M20 35H1122L1111 352H31L20 35Z" fill="#40464A"/>
<mask id="mask0_218_85" style="mask-type:alpha" maskUnits="userSpaceOnUse" x="40" y="35" width="1062" height="295">
<path d="M40 35H1102L1094 330H48L40 35Z" fill="#4F5659"/>
</mask>
<g mask="url(#mask0_218_85)">
<path d="M40 35H1102L1094 330H48L40 35Z" fill="#4F5659"/>
<rect x="40" y="71" width="1062" height="97" fill="#596166"/>
<rect x="40" y="249" width="1062" height="50" fill="#596166"/>
</g>
<mask id="mask1_218_85" style="mask-type:alpha" maskUnits="userSpaceOnUse" x="51" y="35" width="1039" height="285">
<path d="M58 320H1083L1090 35H51L58 320Z" fill="#E64A4B"/>
</mask>
<g mask="url(#mask1_218_85)">
<path d="M58 320H1083L1090 35H51L58 320Z" fill="#E64A4B"/>
<rect x="51" y="87" width="1039" height="33" fill="#FFF9EC"/>
<rect x="51" y="283" width="1039" height="9" fill="#FFF9EC"/>
<rect x="51" y="120" width="1039" height="163" fill="#2B8F94"/>
<rect x="51" y="120" width="1039" height="91" fill="#3FBFC5"/>
</g>
<path d="M830.795 242.432V163.585H883.18V177.931H845.792V189.553H878.322V204.317H845.792V227.772H882.124V242.432H830.795Z" fill="#FFF9EC"/>
<path d="M801.369 242.432L772.233 201.176L759.642 213.218V242.432H745.074V163.585H759.642V193.113L790.964 163.585H811.983L783.367 190.915L819.684 242.432H801.369Z" fill="#FFF9EC"/>
<path d="M665.705 212.225V163.585H680.576V212.225C680.365 220.9 687.326 228.129 696.185 228.335C705.044 228.542 712.427 221.726 712.638 213.051C712.638 212.742 712.638 212.535 712.638 212.225V163.585H727.615V212.225C727.615 220.28 724.345 227.922 718.544 233.602C706.415 245.375 686.798 245.375 674.775 233.602C668.974 227.922 665.705 220.28 665.705 212.225Z" fill="#FFF9EC"/>
<path d="M583.156 242.432V163.585H610.117C632.799 163.585 651.415 181.258 651.415 203.009C651.415 224.759 632.799 242.432 610.117 242.432H583.156ZM610.117 227.896C624.561 227.896 636.33 216.707 636.33 203.009C636.33 189.31 624.561 178.121 610.117 178.121H598.134V227.896H610.117Z" fill="#FFF9EC"/>
<path d="M551.85 241.423L522.754 201.046L510.181 212.729V241.423H495.529V164.154H510.181V193.155L541.355 164.154H562.449L533.769 191.003L570.139 241.423H551.85Z" fill="#FFF9EC"/>
<path d="M431.996 239.778C427.07 237.7 422.668 234.686 418.895 230.944C415.017 227.203 411.978 222.838 409.986 217.849C407.785 212.861 406.632 207.352 406.632 201.948C406.842 179.292 425.289 161 448.032 161C461.029 161 473.291 167.132 481.047 177.525L482.829 179.707L470.986 188.437L469.309 186.255C464.383 179.603 456.417 175.654 448.032 175.654C433.359 175.654 421.411 187.398 421.411 202.052C421.411 216.706 433.254 228.45 448.032 228.45C456.417 228.45 464.278 224.501 469.309 217.849L470.986 215.771L482.724 224.397L480.943 226.579C473.187 236.868 461.029 243 448.032 243C442.582 243 437.132 241.857 431.996 239.778Z" fill="#FFF9EC"/>
<path d="M373.549 164.154H360.348L330.437 241.423H346.011L354.159 220.62L366.948 187.519L379.841 220.62L387.782 241.423H403.459L373.549 164.154Z" fill="#FFF9EC"/>
<path d="M306.064 241.423V204.018H273.951V241.423H259V164.154H273.951V189.774H306.064V164.154H320.91V241.423H306.064Z" fill="#FFF9EC"/>
<rect width="1140" height="35" fill="#40464A"/>
<path d="M342 0H863L849.5 35H358L342 0Z" fill="#4F5559"/>
<path d="M919 1H1107L1086 35H912L919 1Z" fill="#4A4F52"/>
<path d="M31 0H266L304 35H27L31 0Z" fill="#4A4F52"/>
<path d="M0 35L20.5 49L20 35H0Z" fill="#333638"/>
<path d="M1140 35L1121.5 49L1122 35H1140Z" fill="#333638"/>
<path d="M40 35H1102V40H40V35Z" fill="#596166"/>
</svg>
