<svg width="858" height="535" viewBox="0 0 858 535" fill="none" xmlns="http://www.w3.org/2000/svg">
<rect x="71" y="451.001" width="786" height="84" fill="#40464A"/>
<rect x="7" y="450.997" width="850" height="19.6379" rx="9.81897" fill="#68696C"/>
<rect x="7" y="450.997" width="850" height="19.6379" rx="9.81897" fill="url(#paint0_linear_2068_3006)" fill-opacity="0.2"/>
<rect x="7" y="474.101" width="850" height="19.6379" rx="9.81897" fill="#68696C"/>
<rect x="7" y="474.101" width="850" height="19.6379" rx="9.81897" fill="url(#paint1_linear_2068_3006)" fill-opacity="0.2"/>
<rect x="7" y="497.204" width="850" height="19.6379" rx="9.81897" fill="#68696C"/>
<rect x="7" y="497.204" width="850" height="19.6379" rx="9.81897" fill="url(#paint2_linear_2068_3006)" fill-opacity="0.2"/>
<g opacity="0.8">
<path d="M0 55.5669C0 36.2369 15.67 20.5669 35 20.5669H823C842.33 20.5669 858 36.2369 858 55.5669V102.498C858 121.828 842.33 137.498 823 137.498H35C15.67 137.498 0 121.828 0 102.498V55.5669Z" fill="#CBCBCB"/>
<path d="M0 55.5669C0 36.2369 15.67 20.5669 35 20.5669H823C842.33 20.5669 858 36.2369 858 55.5669V102.498C858 121.828 842.33 137.498 823 137.498H35C15.67 137.498 0 121.828 0 102.498V55.5669Z" fill="url(#paint3_linear_2068_3006)" fill-opacity="0.2"/>
<path d="M0 55.5669C0 36.2369 15.67 20.5669 35 20.5669H823C842.33 20.5669 858 36.2369 858 55.5669V102.498C858 121.828 842.33 137.498 823 137.498H35C15.67 137.498 0 121.828 0 102.498V55.5669Z" fill="url(#paint4_linear_2068_3006)" fill-opacity="0.5"/>
</g>
<rect x="70" width="783" height="21" fill="#40464A"/>
<rect x="350" y="1.99805" width="148" height="25" rx="12.5" fill="#333638"/>
<circle cx="173" cy="85.998" r="27" fill="#40464A"/>
<circle cx="168" cy="80.998" r="27" fill="#FDF7EA"/>
<defs>
<linearGradient id="paint0_linear_2068_3006" x1="432" y1="454.089" x2="432" y2="461.964" gradientUnits="userSpaceOnUse">
<stop stop-opacity="0"/>
<stop offset="1"/>
</linearGradient>
<linearGradient id="paint1_linear_2068_3006" x1="432" y1="477.193" x2="432" y2="485.067" gradientUnits="userSpaceOnUse">
<stop stop-opacity="0"/>
<stop offset="1"/>
</linearGradient>
<linearGradient id="paint2_linear_2068_3006" x1="432" y1="500.296" x2="432" y2="508.17" gradientUnits="userSpaceOnUse">
<stop stop-opacity="0"/>
<stop offset="1"/>
</linearGradient>
<linearGradient id="paint3_linear_2068_3006" x1="429" y1="71.8633" x2="429" y2="202.484" gradientUnits="userSpaceOnUse">
<stop stop-opacity="0"/>
<stop offset="1"/>
</linearGradient>
<linearGradient id="paint4_linear_2068_3006" x1="448" y1="100.274" x2="448" y2="20.5669" gradientUnits="userSpaceOnUse">
<stop stop-color="white" stop-opacity="0"/>
<stop offset="1"/>
</linearGradient>
</defs>
</svg>
