<svg width="294" height="279" viewBox="0 0 294 279" fill="none" xmlns="http://www.w3.org/2000/svg">
<path d="M62.6603 66.2704C96.3264 54.8239 139.531 61.501 156.926 66.2704C166.946 69.0179 188.321 77.0375 200.441 91.8506C217.455 112.645 219.028 146.183 212.67 175.855C206.29 205.629 187.295 237.347 185.023 242.314L54.2308 278.679C49.1808 273.91 30.3408 250.424 22.2609 232.918C12.161 211.035 -4.67204 163.902 1.21954 134.444C7.11111 104.986 20.5776 80.5785 62.6603 66.2704Z" fill="#422311"/>
<path d="M69.2446 66.2797C101.878 54.8164 143.757 61.5033 160.618 66.2797C170.331 69.0312 191.05 77.0626 202.798 91.8974C219.29 112.722 220.815 146.309 214.652 176.025C208.467 205.843 190.056 237.607 187.853 242.582L61.0737 279C56.1787 274.224 37.9167 250.704 30.0847 233.172C20.2947 211.257 3.9781 164.055 9.68892 134.554C15.3997 105.053 28.453 80.6088 69.2446 66.2797Z" fill="#4E2F1D"/>
<path d="M56.9939 76.2372C78.8886 64.3983 105.586 64.0153 101.767 67.2125C88.3634 78.4348 78.187 100.393 72.7098 117.23C67.5056 133.227 67.6524 165.334 71.2443 184.362C74.8361 203.391 92.5113 229.554 110.056 246.036L66.9909 271.557C56.9939 260.392 45.7239 246.568 36.6855 226.364C27.6892 206.255 15.9958 171.535 18.802 143.154C21.6082 114.773 29.6255 91.0357 56.9939 76.2372Z" fill="#553725"/>
<path d="M119.505 60.3232C127.771 53.8936 145.452 61.3447 162.141 66.1211C171.756 68.8726 192.265 76.904 203.894 91.7389C220.218 112.564 221.728 146.15 215.627 175.867C209.505 205.684 191.281 237.449 189.1 242.423L125.353 238.966C142.367 221.952 153.418 213.977 162.141 193.242C173.895 165.303 173.735 131.036 164.165 106.579C153.22 78.6064 114.72 64.0449 119.505 60.3232Z" fill="#422311"/>
<path d="M56.3853 121.616C62.213 104.932 81.2591 90.3973 70.7261 82.9997C59.3698 75.0238 45.5535 83.4253 35.177 111.048C29.0881 127.257 35.2094 158.349 45.1925 160.492C54.2335 159.261 50.4452 138.622 56.3853 121.616Z" fill="#63422F"/>
<path d="M131.65 45.2625C140.403 46.6091 142.942 49.0499 143.433 51.9957C144.205 56.6248 138.582 57.4665 135.858 62.9372C129.686 62.6567 115.154 62.0956 106.401 62.0956C97.6474 62.0956 82.6257 62.6567 75.3314 62.9372C74.4897 59.1498 70.8513 56.0812 69.4398 53.2582C67.7565 49.8916 72.7344 46.9458 82.8343 45.2625C92.9341 43.5792 120.709 43.5792 131.65 45.2625Z" fill="#422311"/>
<path d="M116.902 45.7497C122.742 46.6518 131.276 48.6601 131.767 51.6136C132.537 56.2548 128.115 57.8745 125.396 63.3595C119.233 63.0783 119.337 63.3596 110.598 63.3596C101.858 63.3596 86.8588 63.9222 79.5755 64.2035C78.7352 60.4061 75.1023 57.3295 73.6929 54.4991C72.0122 51.1237 76.9825 48.1702 87.067 46.4825C97.1515 44.7948 110.067 44.6937 116.902 45.7497Z" fill="#4E2F1D"/>
<path d="M138.062 62.8081C145.567 64.9042 157.135 70.3939 158.439 74.3055C160.034 79.0906 126.666 71.7853 108.993 71.6471C89.853 71.4975 72.3077 72.1788 63.8009 73.2422C56.3775 74.1701 57.9526 64.2037 68.0544 63.672C80.3894 63.0228 127.924 59.9767 138.062 62.8081Z" fill="#422311"/>
<path d="M135.64 56.1077C142.922 57.6939 152.867 60.3931 155.052 63.1274C161.259 70.8919 123.578 64.1259 106.453 64.2131C85.2454 64.3211 71.8581 66.5808 62.969 67.547C53.5254 68.5735 59.0351 59.5909 70.3843 56.3842C81.7334 53.1774 125.803 53.9649 135.64 56.1077Z" fill="#BF3C3D"/>
<path d="M112.156 60.3571C122.122 60.6114 135.862 62.7531 135.468 65.0567C135.029 67.6133 108.892 62.7899 95.5963 69.0108C88.8576 72.1638 71.4653 67.8514 63.8567 66.5494C60.9137 66.0457 66.6381 61.9856 71.849 61.4716C83.9185 60.281 102.653 60.1146 112.156 60.3571Z" fill="#912C2C"/>
<path d="M137.66 22.2704C171.326 10.8239 214.531 17.501 231.926 22.2704C241.946 25.0179 263.321 33.0375 275.441 47.8506C292.455 68.6449 294.028 102.183 287.67 131.855C281.29 161.629 262.295 193.347 260.023 198.314L129.231 234.679C124.181 229.91 105.341 206.424 97.2609 188.918C87.161 167.035 70.328 119.902 76.2195 90.4444C82.1111 60.9865 95.5776 36.5785 137.66 22.2704Z" fill="#422311"/>
<path d="M144.245 22.2797C176.878 10.8164 218.757 17.5033 235.618 22.2797C245.331 25.0312 266.05 33.0626 277.798 47.8974C294.29 68.7222 295.815 102.309 289.652 132.025C283.467 161.843 265.056 193.607 262.853 198.582L136.074 235C131.179 230.224 112.917 206.704 105.085 189.172C95.2947 167.257 78.9781 120.055 84.6889 90.5537C90.3997 61.0526 103.453 36.6088 144.245 22.2797Z" fill="#4E2F1D"/>
<path d="M131.994 32.2372C153.889 20.3983 180.586 20.0153 176.767 23.2125C163.363 34.4348 153.187 56.393 147.71 73.2297C142.506 89.2275 142.652 121.334 146.244 140.362C149.836 159.391 167.511 185.554 185.056 202.036L141.991 227.557C131.994 216.392 120.724 202.568 111.685 182.364C102.689 162.255 90.9958 127.535 93.802 99.1539C96.6082 70.7731 104.625 47.0357 131.994 32.2372Z" fill="#553725"/>
<path d="M194.505 16.3232C202.771 9.89358 220.452 17.3447 237.141 22.1211C246.756 24.8726 267.265 32.904 278.894 47.7389C295.218 68.5636 296.728 102.15 290.627 131.867C284.505 161.684 266.281 193.449 264.1 198.423L200.353 194.966C217.367 177.952 228.418 169.977 237.141 149.242C248.895 121.303 248.735 87.0359 239.165 62.5789C228.22 34.6064 189.72 20.0449 194.505 16.3232Z" fill="#422311"/>
<path d="M131.385 77.6158C137.213 60.9316 156.259 46.3973 145.726 38.9997C134.37 31.0238 120.554 39.4253 110.177 67.0481C104.088 83.2572 110.209 114.349 120.192 116.492C129.233 115.261 125.445 94.6222 131.385 77.6158Z" fill="#63422F"/>
<path d="M206.65 1.26248C215.403 2.60913 217.942 5.04992 218.433 7.99571C219.205 12.6248 213.582 13.4665 210.858 18.9372C204.686 18.6567 190.154 18.0956 181.401 18.0956C172.647 18.0956 157.626 18.6567 150.331 18.9372C149.49 15.1498 145.851 12.0812 144.44 9.25819C142.757 5.89158 147.734 2.94579 157.834 1.26248C167.934 -0.420827 195.709 -0.420827 206.65 1.26248Z" fill="#422311"/>
<path d="M191.902 1.74967C197.742 2.65179 206.276 4.66009 206.767 7.61359C207.537 12.2548 203.115 13.8745 200.396 19.3595C194.233 19.0783 194.337 19.3596 185.598 19.3596C176.858 19.3596 161.859 19.9222 154.576 20.2035C153.735 16.4061 150.102 13.3295 148.693 10.4991C147.012 7.12371 151.982 4.17021 162.067 2.48249C172.152 0.794777 185.067 0.693666 191.902 1.74967Z" fill="#4E2F1D"/>
<path d="M213.062 18.8081C220.567 20.9042 232.135 26.3939 233.439 30.3055C235.034 35.0906 201.666 27.7853 183.993 27.6471C164.853 27.4975 147.308 28.1788 138.801 29.2422C131.377 30.1701 132.953 20.2037 143.054 19.672C155.389 19.0228 202.924 15.9767 213.062 18.8081Z" fill="#422311"/>
<path d="M210.64 12.1077C217.922 13.6939 227.867 16.3931 230.052 19.1274C236.259 26.8919 198.578 20.1259 181.453 20.2131C160.245 20.3211 146.858 22.5808 137.969 23.547C128.525 24.5735 134.035 15.5909 145.384 12.3842C156.733 9.17745 200.803 9.96486 210.64 12.1077Z" fill="#BF3C3D"/>
<path d="M187.156 16.3571C197.122 16.6114 210.862 18.7531 210.468 21.0567C210.029 23.6133 183.892 18.7899 170.596 25.0108C163.858 28.1638 146.465 23.8514 138.857 22.5494C135.914 22.0457 141.638 17.9856 146.849 17.4716C158.918 16.281 177.653 16.1146 187.156 16.3571Z" fill="#912C2C"/>
<path d="M92.6063 106.155L137.88 45.1403L194.935 91.712L147.905 158.933L92.6063 106.155Z" fill="#912C2C"/>
<mask id="mask0_2041_1963" style="mask-type:alpha" maskUnits="userSpaceOnUse" x="83" y="46" width="103" height="115">
<path d="M83.605 107.815L128.879 46.8002L185.933 93.3719L138.903 160.593L83.605 107.815Z" fill="#BF3C3D"/>
</mask>
<g mask="url(#mask0_2041_1963)">
<path d="M83.605 107.815L128.879 46.8002L185.933 93.3719L138.903 160.593L83.605 107.815Z" fill="#E64A4B"/>
<rect x="174.4" y="78.1196" width="90.9836" height="37.2673" transform="rotate(127.327 174.4 78.1196)" fill="#D34041"/>
</g>
<path fill-rule="evenodd" clip-rule="evenodd" d="M151.745 80.9489C151.821 81.4715 151.479 81.9636 150.962 82.0726L144.317 83.4752C143.853 83.5731 143.522 83.9832 143.524 84.4572L143.53 86.0931C143.532 86.7525 144.161 87.2341 144.808 87.1066C146.433 86.7863 148.765 86.5166 150.467 86.9219C152.7 87.4537 153.627 92.5472 153.812 95.0275C154.263 101.767 155.198 116.208 155.332 120.057C155.461 123.761 153.036 126.148 151.668 126.975C151.566 127.037 151.452 127.074 151.333 127.092L134.637 129.543C133.231 129.749 130.13 129.667 128.978 127.687C127.537 125.213 121.116 99.8279 121.18 96.5947C121.226 94.2687 126.075 92.8018 129.224 92.2109C129.767 92.109 130.144 91.6023 130.064 91.0559L129.505 87.2492C129.425 86.7028 128.917 86.3248 128.37 86.4051L120.771 87.5208C120.259 87.596 119.775 87.2686 119.653 86.7659L118.735 82.9599C118.602 82.4067 118.956 81.8539 119.515 81.7442L149.925 75.7694C150.485 75.6593 151.024 76.0402 151.107 76.6054L151.745 80.9489ZM136.596 96.4805C136.099 96.5535 135.733 96.9836 135.741 97.4857L135.908 108.06C135.916 108.562 135.55 108.992 135.053 109.065L132.692 109.411C132.146 109.492 131.638 109.114 131.558 108.567L130.072 98.4491C129.992 97.9027 129.48 97.5212 128.959 97.7045C128.106 98.0046 127.16 98.5721 126.994 99.5021C126.699 101.157 128.77 111.599 130.057 113.022C131.077 114.15 139.971 113.173 144.408 112.527C144.489 112.515 144.568 112.512 144.648 112.526C145.413 112.656 146.807 113.362 147.1 115.356C147.486 117.985 141.608 118.311 138.444 118.776C136.548 119.054 134.07 118.933 132.329 118.763C131.628 118.695 131.05 119.33 131.266 120.001C131.97 122.187 133.29 124.905 134.997 124.655C136.965 124.366 145.159 122.851 149.797 121.983C150.325 121.884 150.679 121.386 150.601 120.855L148.569 107.017C148.489 106.47 147.981 106.094 147.43 106.137C144.813 106.342 140.88 106.018 140.5 103.429C140.167 101.161 140.021 98.7171 139.97 97.1408C139.95 96.5324 139.407 96.0678 138.805 96.1562L136.596 96.4805ZM148.721 93.3801C148.652 92.9083 148.259 92.548 147.783 92.5801C146.89 92.6402 145.699 92.8606 144.831 93.4304C144.583 93.5927 144.466 93.8841 144.48 94.1795C144.563 95.8999 144.813 98.7889 145.31 99.4994C145.749 100.126 147.479 99.915 148.767 99.6233C149.252 99.5133 149.552 99.0401 149.48 98.5476L148.721 93.3801ZM135.623 85.3403C135.076 85.4205 134.698 85.9285 134.779 86.4749L135.106 88.7038C135.186 89.2502 135.694 89.6281 136.24 89.5479L138.48 89.219C139.027 89.1388 139.405 88.6308 139.325 88.0844L138.997 85.8555C138.917 85.3091 138.409 84.9312 137.863 85.0114L135.623 85.3403Z" fill="#333638"/>
<path d="M121.994 114.205C122.428 114.45 122.616 114.977 122.433 115.441L116.889 129.546C116.67 130.105 116.01 130.345 115.482 130.059L112.54 128.465C112.109 128.232 111.911 127.722 112.071 127.26L117.073 112.781C117.277 112.191 117.966 111.93 118.509 112.237L121.994 114.205Z" fill="#333638"/>
<path d="M118.92 103.326C119.287 103.614 119.405 104.119 119.205 104.54L117.616 107.886C117.341 108.466 116.598 108.639 116.094 108.243L107.351 101.36C106.984 101.071 106.866 100.567 107.066 100.145L108.655 96.7998C108.93 96.2202 109.673 96.0462 110.177 96.4431L118.92 103.326Z" fill="#333638"/>
<path d="M116.351 86.964C116.798 87.2705 116.919 87.877 116.625 88.3319L114.638 91.4018C114.332 91.8743 113.697 92.0015 113.233 91.6831L106.496 87.0615C106.049 86.755 105.928 86.1484 106.222 85.6936L108.209 82.6236C108.515 82.1511 109.15 82.0239 109.614 82.3423L116.351 86.964Z" fill="#333638"/>
</svg>
