<svg width="395" height="229" viewBox="0 0 395 229" fill="none" xmlns="http://www.w3.org/2000/svg">
<rect x="242.2" y="6" width="12" height="83" fill="#51595D"/>
<rect x="254.2" y="20" width="112" height="15" fill="#404649"/>
<rect x="254.2" y="20" width="112" height="7" fill="#51595D"/>
<rect x="237.2" y="6" width="17" height="29" fill="#51595D"/>
<rect x="237.2" y="6" width="9" height="29" fill="#404649"/>
<rect width="17" height="6" transform="matrix(1 0 0 -1 237.2 6)" fill="#51595D"/>
<path d="M0 91.8L10.4125 82H393.837V219.2L382.2 229H0V91.8Z" fill="#404649"/>
<rect x="11.0249" y="82" width="383.425" height="137.2" fill="#51595D"/>
<rect x="22.0499" y="91.8" width="362.6" height="116.375" fill="#BF3C3D"/>
<rect x="22.0499" y="151.825" width="362.6" height="56.35" fill="#E64A4B"/>
<rect x="32.6666" y="101.6" width="6.53333" height="6.53333" fill="#FFBC35"/>
<rect x="32.6666" y="131" width="6.53333" height="6.53333" fill="#FFBC35"/>
<rect x="32.6666" y="161.489" width="6.53333" height="6.53333" fill="#FFBC35"/>
<rect x="366.956" y="131" width="6.53333" height="6.53333" fill="#FFBC35"/>
<rect x="366.956" y="161.489" width="6.53333" height="6.53333" fill="#FFBC35"/>
<rect x="32.6666" y="190.889" width="6.53333" height="6.53333" fill="#FFBC35"/>
<rect x="63.1555" y="101.6" width="6.53333" height="6.53333" fill="#FFBC35"/>
<rect x="93.6444" y="101.6" width="6.53333" height="6.53333" fill="#FFBC35"/>
<rect x="124.133" y="101.6" width="6.53333" height="6.53333" fill="#FFBC35"/>
<rect x="153.533" y="101.6" width="6.53333" height="6.53333" fill="#FFBC35"/>
<rect x="185.111" y="101.6" width="6.53333" height="6.53333" fill="#FFBC35"/>
<rect x="215.6" y="101.6" width="6.53333" height="6.53333" fill="#FFBC35"/>
<rect x="245" y="101.6" width="6.53333" height="6.53333" fill="#FFBC35"/>
<rect x="276.578" y="101.6" width="6.53333" height="6.53333" fill="#FFBC35"/>
<rect x="305.978" y="101.6" width="6.53333" height="6.53333" fill="#FFBC35"/>
<rect x="335.378" y="101.6" width="6.53333" height="6.53333" fill="#FFBC35"/>
<rect x="366.956" y="101.6" width="6.53333" height="6.53333" fill="#FFBC35"/>
<rect x="63.1555" y="190.889" width="6.53333" height="6.53333" fill="#FFBC35"/>
<rect x="93.6444" y="190.889" width="6.53333" height="6.53333" fill="#FFBC35"/>
<rect x="124.133" y="190.889" width="6.53333" height="6.53333" fill="#FFBC35"/>
<rect x="153.533" y="190.889" width="6.53333" height="6.53333" fill="#FFBC35"/>
<rect x="185.111" y="190.889" width="6.53333" height="6.53333" fill="#FFBC35"/>
<rect x="215.6" y="190.889" width="6.53333" height="6.53333" fill="#FFBC35"/>
<rect x="245" y="190.889" width="6.53333" height="6.53333" fill="#FFBC35"/>
<rect x="276.578" y="190.889" width="6.53333" height="6.53333" fill="#FFBC35"/>
<rect x="305.978" y="190.889" width="6.53333" height="6.53333" fill="#FFBC35"/>
<rect x="335.378" y="190.889" width="6.53333" height="6.53333" fill="#FFBC35"/>
<rect x="366.956" y="190.889" width="6.53333" height="6.53333" fill="#FFBC35"/>
<path d="M80.0644 176C76.9614 176 74.4618 175.422 72.5655 174.265C70.6908 173.108 69.3225 171.441 68.4605 169.265C67.6201 167.088 67.2 164.471 67.2 161.412V136.676C67.2 133.696 67.6309 131.196 68.4929 129.176C69.3764 127.137 70.7662 125.598 72.6625 124.559C74.5588 123.52 77.0261 123 80.0644 123C83.1027 123 85.5593 123.52 87.434 124.559C89.3303 125.598 90.7201 127.137 91.6036 129.176C92.4871 131.196 92.9289 133.696 92.9289 136.676V161.412C92.9289 163.706 92.6918 165.755 92.2178 167.559C91.7437 169.363 91.0003 170.892 89.9875 172.147C88.9747 173.402 87.6495 174.363 86.0118 175.029C84.3741 175.676 82.3916 176 80.0644 176ZM80.0321 169.206C80.657 169.206 81.228 169.118 81.7452 168.941C82.2624 168.745 82.7041 168.382 83.0704 167.853C83.4583 167.324 83.7492 166.559 83.9431 165.559C84.1586 164.539 84.2664 163.206 84.2664 161.559V136.353C84.2664 134.431 84.0724 133.01 83.6846 132.088C83.2967 131.147 82.7795 130.529 82.1331 130.235C81.4866 129.941 80.7863 129.794 80.0321 129.794C79.2994 129.794 78.6099 129.931 77.9634 130.206C77.3385 130.48 76.8214 131.078 76.4119 132C76.0241 132.922 75.8301 134.363 75.8301 136.324V161.559C75.8301 163.225 75.9163 164.569 76.0887 165.588C76.2826 166.588 76.5628 167.353 76.9291 167.882C77.2954 168.412 77.7372 168.765 78.2543 168.941C78.7715 169.118 79.3641 169.206 80.0321 169.206Z" fill="#FFF9EC"/>
<path d="M104.856 175.382V133.382C104.339 133.931 103.682 134.402 102.884 134.794C102.087 135.167 101.236 135.451 100.331 135.647C99.4473 135.824 98.6069 135.912 97.8096 135.912V130.059C98.9517 129.902 100.094 129.569 101.236 129.059C102.399 128.529 103.466 127.814 104.436 126.912C105.405 126.01 106.192 124.912 106.795 123.618H113.518V175.382H104.856Z" fill="#FFF9EC"/>
<path d="M123.183 175.382V168.147H130.456V175.382H123.183Z" fill="#FFF9EC"/>
<path d="M150.722 175.971C146.305 175.971 143.234 174.775 141.51 172.382C139.808 169.971 138.956 166.324 138.956 161.441V158.059H147.069V161.647C147.069 163.392 147.156 164.824 147.328 165.941C147.5 167.059 147.867 167.882 148.427 168.412C148.987 168.941 149.849 169.206 151.013 169.206C152.155 169.206 153.017 168.892 153.599 168.265C154.18 167.618 154.568 166.657 154.762 165.382C154.978 164.088 155.086 162.48 155.086 160.559C155.086 158.304 154.945 156.48 154.665 155.088C154.385 153.676 153.868 152.647 153.114 152C152.36 151.353 151.271 151.029 149.849 151.029H147.393V145.029H149.785C151.164 145.029 152.23 144.755 152.985 144.206C153.76 143.637 154.299 142.745 154.601 141.529C154.924 140.294 155.086 138.676 155.086 136.676C155.086 134.833 154.935 133.422 154.633 132.441C154.331 131.461 153.89 130.784 153.308 130.412C152.726 130.02 152.026 129.824 151.207 129.824C150.237 129.824 149.472 130.059 148.912 130.529C148.352 130.98 147.953 131.716 147.716 132.735C147.5 133.735 147.393 135.069 147.393 136.735V138.294H139.021V136.676C139.021 132.049 139.915 128.618 141.704 126.382C143.492 124.147 146.595 123.029 151.013 123.029C155.323 123.029 158.479 124.167 160.483 126.441C162.487 128.716 163.489 132.127 163.489 136.676C163.489 139.402 163.026 141.755 162.1 143.735C161.173 145.696 159.686 147.02 157.639 147.706C159.147 148.333 160.333 149.255 161.195 150.471C162.056 151.686 162.671 153.147 163.037 154.853C163.403 156.539 163.586 158.451 163.586 160.588C163.586 165.627 162.606 169.451 160.645 172.059C158.706 174.667 155.398 175.971 150.722 175.971Z" fill="#FFF9EC"/>
<path d="M174.932 175.382V133.382C174.415 133.931 173.757 134.402 172.96 134.794C172.163 135.167 171.312 135.451 170.407 135.647C169.523 135.824 168.683 135.912 167.885 135.912V130.059C169.027 129.902 170.169 129.569 171.312 129.059C172.475 128.529 173.542 127.814 174.511 126.912C175.481 126.01 176.268 124.912 176.871 123.618H183.594V175.382H174.932Z" fill="#FFF9EC"/>
<path d="M191.319 155.941V150.794H206.77V155.941H191.319Z" fill="#FFF9EC"/>
<path d="M227.133 176C224.03 176 221.53 175.422 219.634 174.265C217.759 173.108 216.391 171.441 215.529 169.265C214.689 167.088 214.268 164.471 214.268 161.412V136.676C214.268 133.696 214.699 131.196 215.561 129.176C216.445 127.137 217.835 125.598 219.731 124.559C221.627 123.52 224.095 123 227.133 123C230.171 123 232.628 123.52 234.503 124.559C236.399 125.598 237.789 127.137 238.672 129.176C239.556 131.196 239.997 133.696 239.997 136.676V161.412C239.997 163.706 239.76 165.755 239.286 167.559C238.812 169.363 238.069 170.892 237.056 172.147C236.043 173.402 234.718 174.363 233.08 175.029C231.443 175.676 229.46 176 227.133 176ZM227.101 169.206C227.726 169.206 228.297 169.118 228.814 168.941C229.331 168.745 229.773 168.382 230.139 167.853C230.527 167.324 230.818 166.559 231.012 165.559C231.227 164.539 231.335 163.206 231.335 161.559V136.353C231.335 134.431 231.141 133.01 230.753 132.088C230.365 131.147 229.848 130.529 229.202 130.235C228.555 129.941 227.855 129.794 227.101 129.794C226.368 129.794 225.678 129.931 225.032 130.206C224.407 130.48 223.89 131.078 223.48 132C223.093 132.922 222.899 134.363 222.899 136.324V161.559C222.899 163.225 222.985 164.569 223.157 165.588C223.351 166.588 223.631 167.353 223.998 167.882C224.364 168.412 224.806 168.765 225.323 168.941C225.84 169.118 226.433 169.206 227.101 169.206Z" fill="#FFF9EC"/>
<path d="M248.757 175.382V172.324C248.757 170.441 248.972 168.598 249.403 166.794C249.856 164.99 250.535 163.157 251.44 161.294C252.345 159.431 253.476 157.471 254.834 155.412L260.458 146.912C260.846 146.324 261.19 145.716 261.492 145.088C261.815 144.441 262.085 143.735 262.3 142.971C262.516 142.206 262.677 141.343 262.785 140.382C262.914 139.402 262.979 138.284 262.979 137.029C262.979 135.127 262.85 133.657 262.591 132.618C262.354 131.578 261.998 130.853 261.524 130.441C261.072 130.029 260.522 129.824 259.876 129.824C259.229 129.824 258.637 130.01 258.098 130.382C257.581 130.735 257.172 131.461 256.87 132.559C256.568 133.637 256.417 135.284 256.417 137.5V144.059H248.143V140.882C248.143 137.157 248.412 133.961 248.951 131.294C249.511 128.627 250.642 126.588 252.345 125.176C254.047 123.745 256.633 123.029 260.102 123.029C262.796 123.029 264.951 123.676 266.567 124.971C268.183 126.265 269.357 128 270.09 130.176C270.823 132.333 271.189 134.725 271.189 137.353C271.189 138.961 271.027 140.471 270.704 141.882C270.402 143.294 269.982 144.627 269.443 145.882C268.905 147.118 268.291 148.284 267.601 149.382L262.365 157.853C261.675 158.99 260.986 160.147 260.296 161.324C259.628 162.5 259.003 163.735 258.421 165.029C257.861 166.324 257.387 167.716 256.999 169.206H270.122V175.382H248.757Z" fill="#FFF9EC"/>
<path d="M279.173 175.382V168.147H286.445V175.382H279.173Z" fill="#FFF9EC"/>
<path d="M307.746 176C304.643 176 302.143 175.422 300.247 174.265C298.372 173.108 297.004 171.441 296.142 169.265C295.302 167.088 294.881 164.471 294.881 161.412V136.676C294.881 133.696 295.312 131.196 296.174 129.176C297.058 127.137 298.448 125.598 300.344 124.559C302.24 123.52 304.708 123 307.746 123C310.784 123 313.241 123.52 315.115 124.559C317.012 125.598 318.402 127.137 319.285 129.176C320.169 131.196 320.61 133.696 320.61 136.676V161.412C320.61 163.706 320.373 165.755 319.899 167.559C319.425 169.363 318.682 170.892 317.669 172.147C316.656 173.402 315.331 174.363 313.693 175.029C312.056 175.676 310.073 176 307.746 176ZM307.714 169.206C308.338 169.206 308.91 169.118 309.427 168.941C309.944 168.745 310.386 168.382 310.752 167.853C311.14 167.324 311.431 166.559 311.625 165.559C311.84 164.539 311.948 163.206 311.948 161.559V136.353C311.948 134.431 311.754 133.01 311.366 132.088C310.978 131.147 310.461 130.529 309.815 130.235C309.168 129.941 308.468 129.794 307.714 129.794C306.981 129.794 306.291 129.931 305.645 130.206C305.02 130.48 304.503 131.078 304.093 132C303.706 132.922 303.512 134.363 303.512 136.324V161.559C303.512 163.225 303.598 164.569 303.77 165.588C303.964 166.588 304.244 167.353 304.611 167.882C304.977 168.412 305.419 168.765 305.936 168.941C306.453 169.118 307.046 169.206 307.714 169.206Z" fill="#FFF9EC"/>
<path d="M332.537 175.382V133.382C332.02 133.931 331.363 134.402 330.566 134.794C329.768 135.167 328.917 135.451 328.012 135.647C327.129 135.824 326.288 135.912 325.491 135.912V130.059C326.633 129.902 327.775 129.569 328.917 129.059C330.081 128.529 331.148 127.814 332.117 126.912C333.087 126.01 333.873 124.912 334.477 123.618H341.2V175.382H332.537Z" fill="#FFF9EC"/>
</svg>
