<svg width="223" height="192" viewBox="0 0 223 192" fill="none" xmlns="http://www.w3.org/2000/svg">
<rect x="7.0968" y="79.7164" width="78.8848" height="195.751" transform="rotate(-59.2446 7.0968 79.7164)" fill="#B3A4A4"/>
<rect x="5.02148" y="94.631" width="106.641" height="183.334" rx="25" transform="rotate(-59.2446 5.02148 94.631)" fill="#DF3334"/>
<path d="M94.8401 26.5354L61.6218 125.762L127.286 164.836L160.504 65.6097L94.8401 26.5354Z" fill="#FF6B6C" stroke="#FF6B6C" stroke-width="7"/>
<rect opacity="0.22" x="22.5658" y="96.5714" width="47.477" height="151.926" rx="23.7385" transform="rotate(-59.2446 22.5658 96.5714)" fill="white"/>
<path opacity="0.32" d="M47.6439 23.0045C54.2222 11.9502 68.5164 8.32116 79.571 14.8992L197.088 84.8296C208.143 91.4078 211.771 105.702 205.193 116.757C204.011 118.744 202.577 120.49 200.959 121.982C203.418 112.249 199.349 101.664 190.282 96.2681L72.7643 26.3378C63.697 20.9422 52.4513 22.4142 45.0705 29.2176C45.6095 27.0846 46.4613 24.9918 47.6439 23.0045Z" fill="#E61F20"/>
</svg>
