<svg width="518" height="2341" viewBox="0 0 518 2341" fill="none" xmlns="http://www.w3.org/2000/svg">
<path d="M-1 0L408.5 261.5V2341L-1 2317V0Z" fill="#40464A"/>
<path d="M381 274V792L353 780.082V303.474L45 298V268L381 274Z" fill="#51595D"/>
<path d="M45 648.986V268L381 274V792L45 648.986Z" fill="#51595D"/>
<path d="M45.5 817H381.5V1294.5L45.5 1211V817Z" fill="#51595D"/>
<path d="M45.5 1318H381.5V1797L45.5 1741V1318Z" fill="#51595D"/>
<path d="M45.5 1823H381.5V2311.5L45.5 2286.5V1823Z" fill="#51595D"/>
<path d="M45.5 268L381 274L45.5 81V268Z" fill="#333638"/>
<path d="M45.5 816.5H381.5L45.5 685V816.5Z" fill="#333638"/>
<path d="M45.5 1331L381.5 1317.5L350 1310.61L45.5 1244V1331Z" fill="#333638"/>
<path d="M45.5 1836L381.5 1823L45.5 1775V1836Z" fill="#333638"/>
<g filter="url(#filter0_d_2056_468)">
<path d="M322.922 1447.23L298.763 1614.94C247.408 1641.02 197.902 1624.58 178.366 1614.94L167.283 1531.95L156.201 1448.96C190.032 1437.72 274.276 1434.85 322.922 1447.23Z" fill="#FEEACD"/>
<path d="M321.595 1457.4C263.442 1453.64 208.605 1454.08 157.749 1460.05L159.297 1471.11C210.374 1467.57 263.663 1466.69 319.384 1468.9L321.595 1457.4Z" fill="#FFA172" stroke="#FFA172"/>
<path d="M309.655 1539.21C270.075 1536.78 201.972 1537 168.584 1539.21L179.033 1616.56C231.282 1637.3 260.019 1631.04 299.423 1616.56L309.655 1539.21Z" fill="#FFA172"/>
<path d="M296.167 1454.07C278.035 1454.07 269.117 1448.17 259.241 1444.12H269.412C271.181 1445.71 288.428 1451.42 296.167 1454.07Z" fill="#724332"/>
<path d="M325.575 1444.12C325.575 1434.83 183.398 1437.04 152 1444.57C152.59 1448.92 153.415 1450.1 156.422 1450.1C159.429 1450.1 227.179 1444.57 268.085 1444.57C269.928 1446.48 276.753 1449.43 287.543 1452.96C298.334 1456.5 314.593 1453.93 318.278 1450.1L322.922 1446.99C325.059 1449.35 325.575 1452.52 325.575 1444.12Z" fill="#FFA172"/>
<path d="M307.697 1549.76C234.408 1532.27 206.446 1604.2 215.043 1625.22C217.309 1630.76 262.803 1633.81 299.1 1616.14L307.697 1549.76Z" fill="#FEEACD" stroke="#FEEACD"/>
<path d="M305.786 1563.13C237.306 1547.92 224.595 1600.38 226.028 1627.61C226.245 1631.74 276.175 1629.04 299.1 1616.62L305.786 1563.13Z" fill="#FFBC35" stroke="#FEEACD"/>
<path d="M181.611 1492.45L177.313 1492.45L175.88 1477.31L180.178 1477.31L181.611 1492.45Z" fill="#FFBC35"/>
<path d="M192.583 1491.75L188.284 1491.75L187.807 1476.9L192.105 1476.9L192.583 1491.75Z" fill="#FFBC35"/>
<path d="M203.192 1491.75L199.268 1491.75L199.268 1477.09L203.192 1477.09L203.192 1491.75Z" fill="#FFBC35"/>
<path d="M214.565 1491.75L210.745 1491.75L210.745 1477.16L214.565 1477.16L214.565 1491.75Z" fill="#FFBC35"/>
<path d="M170.149 1492.61L165.725 1492.61L163.837 1477.75L168.238 1477.75L170.149 1492.61Z" fill="#FFBC35"/>
</g>
<g filter="url(#filter1_d_2056_468)">
<path d="M328.325 1614.73L303.968 1783.82C252.191 1810.12 202.279 1793.54 182.582 1783.82L171.409 1700.14L160.236 1616.47C194.344 1605.14 279.28 1602.25 328.325 1614.73Z" fill="#FEEACD"/>
<path d="M326.987 1624.98C268.357 1621.2 213.07 1621.64 161.796 1627.66L163.357 1638.81C214.853 1635.24 268.58 1634.35 324.758 1636.58L326.987 1624.98Z" fill="#FFA172" stroke="#FFA172"/>
<path d="M314.949 1707.47C275.045 1705.02 206.382 1705.24 172.72 1707.47L183.255 1785.45C235.933 1806.36 264.905 1800.05 304.633 1785.45L314.949 1707.47Z" fill="#FFA172"/>
<path d="M301.35 1621.63C283.07 1621.63 274.079 1615.68 264.121 1611.59H274.376C276.159 1613.2 293.548 1618.95 301.35 1621.63Z" fill="#724332"/>
<path d="M331 1611.59C331 1602.23 187.656 1604.46 156 1612.05C156.594 1616.43 157.427 1617.62 160.459 1617.62C163.49 1617.62 231.796 1612.05 273.038 1612.05C274.896 1613.98 281.777 1616.94 292.656 1620.51C303.535 1624.08 319.928 1621.48 323.643 1617.62L328.325 1614.49C330.48 1616.87 331 1620.07 331 1611.59Z" fill="#FFA172"/>
<path d="M312.975 1718.1C239.085 1700.47 210.893 1772.99 219.56 1794.18C221.845 1799.76 267.712 1802.85 304.308 1785.03L312.975 1718.1Z" fill="#FEEACD" stroke="#FEEACD"/>
<path d="M311.049 1731.58C242.006 1716.25 229.191 1769.14 230.635 1796.59C230.855 1800.76 281.195 1798.03 304.308 1785.51L311.049 1731.58Z" fill="#FFBC35" stroke="#FEEACD"/>
<path d="M185.854 1660.32L181.52 1660.32L180.076 1645.06L184.41 1645.06L185.854 1660.32Z" fill="#FFBC35"/>
<path d="M196.916 1659.62L192.582 1659.62L192.101 1644.65L196.434 1644.65L196.916 1659.62Z" fill="#FFBC35"/>
<path d="M207.612 1659.62L203.656 1659.62L203.656 1644.84L207.612 1644.84L207.612 1659.62Z" fill="#FFBC35"/>
<path d="M219.079 1659.62L215.227 1659.62L215.227 1644.91L219.079 1644.91L219.079 1659.62Z" fill="#FFBC35"/>
<path d="M174.298 1660.48L169.838 1660.48L167.934 1645.5L172.372 1645.5L174.298 1660.48Z" fill="#FFBC35"/>
</g>
<rect x="46" y="1444" width="53" height="307" fill="#D9D9D9"/>
<rect x="46" y="1444" width="53" height="307" fill="#4B5255"/>
<g filter="url(#filter2_d_2056_468)">
<path d="M216.939 1415.66L191.647 1591.24C137.883 1618.55 86.0555 1601.33 65.6023 1591.24L54.0002 1504.36L42.3982 1417.47C77.8156 1405.71 166.012 1402.7 216.939 1415.66Z" fill="#FEEACD"/>
<path d="M215.55 1426.31C154.669 1422.38 97.2605 1422.84 44.0186 1429.09L45.639 1440.66C99.1124 1436.96 154.901 1436.03 213.235 1438.35L215.55 1426.31Z" fill="#FFA172" stroke="#FFA172"/>
<path d="M203.05 1511.96C161.614 1509.41 90.3159 1509.65 55.3615 1511.96L66.3013 1592.94C121.001 1614.64 151.085 1608.1 192.338 1592.94L203.05 1511.96Z" fill="#FFA172"/>
<path d="M188.929 1422.82C169.947 1422.82 160.611 1416.65 150.271 1412.41H160.919C162.771 1414.07 180.827 1420.05 188.929 1422.82Z" fill="#724332"/>
<path d="M219.717 1412.41C219.717 1402.68 70.871 1405 38 1412.88C38.6173 1417.43 39.4815 1418.66 42.6297 1418.66C45.7779 1418.66 116.705 1412.88 159.53 1412.88C161.459 1414.88 168.605 1417.96 179.901 1421.67C191.198 1425.37 208.22 1422.68 212.078 1418.66L216.939 1415.42C219.177 1417.88 219.717 1421.2 219.717 1412.41Z" fill="#FFA172"/>
<path d="M201 1523C124.274 1504.69 95 1580 104 1602C106.372 1607.8 154 1611 192 1592.5L201 1523Z" fill="#FEEACD" stroke="#FEEACD"/>
<path d="M199 1537C127.308 1521.08 114 1576 115.5 1604.5C115.728 1608.83 168 1606 192 1593L199 1537Z" fill="#FFBC35" stroke="#FEEACD"/>
<path d="M69 1463L64.5 1463L63 1447.15L67.5 1447.15L69 1463Z" fill="#FFBC35"/>
<path d="M80.4863 1462.28L75.9863 1462.28L75.4863 1446.73L79.9863 1446.73L80.4863 1462.28Z" fill="#FFBC35"/>
<path d="M91.5928 1462.28L87.4854 1462.28L87.4854 1446.93L91.5928 1446.93L91.5928 1462.28Z" fill="#FFBC35"/>
<path d="M103.5 1462.28L99.5 1462.28L99.5 1447L103.5 1447L103.5 1462.28Z" fill="#FFBC35"/>
<path d="M57 1463.17L52.3691 1463.17L50.3926 1447.62L55 1447.62L57 1463.17Z" fill="#FFBC35"/>
</g>
<g filter="url(#filter3_d_2056_468)">
<path d="M206.939 1587.66L181.647 1763.24C127.883 1790.55 76.0555 1773.33 55.6023 1763.24L44.0002 1676.36L32.3982 1589.47C67.8156 1577.71 156.012 1574.7 206.939 1587.66Z" fill="#FEEACD"/>
<path d="M205.55 1598.31C144.669 1594.38 87.2605 1594.84 34.0186 1601.09L35.639 1612.66C89.1124 1608.96 144.901 1608.03 203.235 1610.35L205.55 1598.31Z" fill="#FFA172" stroke="#FFA172"/>
<path d="M193.05 1683.96C151.614 1681.41 80.3159 1681.65 45.3615 1683.96L56.3013 1764.94C111.001 1786.64 141.085 1780.1 182.338 1764.94L193.05 1683.96Z" fill="#FFA172"/>
<path d="M178.929 1594.82C159.947 1594.82 150.611 1588.65 140.271 1584.41H150.919C152.771 1586.07 170.827 1592.05 178.929 1594.82Z" fill="#724332"/>
<path d="M209.717 1584.41C209.717 1574.68 60.871 1577 28 1584.88C28.6173 1589.43 29.4815 1590.66 32.6297 1590.66C35.7779 1590.66 106.705 1584.88 149.53 1584.88C151.459 1586.88 158.605 1589.96 169.901 1593.67C181.198 1597.37 198.22 1594.68 202.078 1590.66L206.939 1587.42C209.177 1589.88 209.717 1593.2 209.717 1584.41Z" fill="#FFA172"/>
<path d="M191 1695C114.274 1676.69 85 1752 94 1774C96.3721 1779.8 144 1783 182 1764.5L191 1695Z" fill="#FEEACD" stroke="#FEEACD"/>
<path d="M189 1709C117.308 1693.08 104 1748 105.5 1776.5C105.728 1780.83 158 1778 182 1765L189 1709Z" fill="#FFBC35" stroke="#FEEACD"/>
<path d="M59 1635L54.5 1635L53 1619.15L57.5 1619.15L59 1635Z" fill="#FFBC35"/>
<path d="M70.4863 1634.28L65.9863 1634.28L65.4863 1618.73L69.9863 1618.73L70.4863 1634.28Z" fill="#FFBC35"/>
<path d="M81.5928 1634.28L77.4854 1634.28L77.4854 1618.93L81.5928 1618.93L81.5928 1634.28Z" fill="#FFBC35"/>
<path d="M93.5 1634.28L89.5 1634.28L89.5 1619L93.5 1619L93.5 1634.28Z" fill="#FFBC35"/>
<path d="M47 1635.17L42.3691 1635.17L40.3926 1619.62L45 1619.62L47 1635.17Z" fill="#FFBC35"/>
</g>
<g filter="url(#filter4_d_2056_468)">
<path d="M221 1099.06V1275.84C282.5 1285.84 288.5 1286.34 331.054 1294.5V1099.06C331.054 1075.34 308.5 1031.84 300.5 1020.34C295 1012.44 297.742 957.382 299.429 926.389H262.112C261.69 954.641 259.709 1012.79 255.155 1019.37C231.373 1053.77 222.476 1086.83 221 1099.06Z" fill="#422311"/>
<path d="M274.129 1218.6C246.806 1219.11 226 1239.34 228 1270.84C269.5 1278.34 293.042 1289.1 322.771 1292.17C322.771 1251.67 324.583 1192.19 322.5 1180.34C320.271 1167.67 310.271 1176.17 309.271 1182.17C306.641 1197.95 298 1218.16 274.129 1218.6Z" fill="#4E2F1D"/>
<path d="M333.194 1109.75C317 1099.13 281.5 1096.83 259 1106.63V1161.95C284 1152.63 315 1154.13 333.194 1165.07V1109.75Z" fill="#25672C"/>
<path d="M333.194 1117.75C317 1107.13 281.5 1104.83 259 1114.63V1169.95C284 1160.63 315 1162.13 333.194 1173.07V1117.75Z" fill="#397B41"/>
<rect x="257.822" y="923" width="44.2475" height="32.3242" rx="5" transform="rotate(1.42266 257.822 923)" fill="#397B41"/>
<line x1="1" y1="-1" x2="24.6011" y2="-1" transform="matrix(0.0504196 -0.998728 0.998433 0.0559672 263.723 952.24)" stroke="#25672C" stroke-width="2" stroke-linecap="round"/>
<line x1="1" y1="-1" x2="24.6011" y2="-1" transform="matrix(0.0504196 -0.998728 0.998433 0.0559672 270.112 952.387)" stroke="#25672C" stroke-width="2" stroke-linecap="round"/>
<line x1="1" y1="-1" x2="24.6011" y2="-1" transform="matrix(0.0504196 -0.998728 0.998433 0.0559672 276.502 952.534)" stroke="#25672C" stroke-width="2" stroke-linecap="round"/>
<line x1="1" y1="-1" x2="24.6011" y2="-1" transform="matrix(0.0504196 -0.998728 0.998433 0.0559672 282.892 952.681)" stroke="#25672C" stroke-width="2" stroke-linecap="round"/>
<line x1="1" y1="-1" x2="24.6011" y2="-1" transform="matrix(0.0504196 -0.998728 0.998433 0.0559672 289.282 952.827)" stroke="#25672C" stroke-width="2" stroke-linecap="round"/>
<line x1="1" y1="-1" x2="24.6011" y2="-1" transform="matrix(0.0504196 -0.998728 0.998433 0.0559672 295.647 954.039)" stroke="#25672C" stroke-width="2" stroke-linecap="round"/>
<path d="M290.216 1065.43C287.558 1052.22 284.86 1034.69 290.216 1031.46C299.36 1025.93 307.66 1049.43 311.36 1065.43C314.713 1079.93 311.718 1089.97 305.253 1090.89C298.253 1091.89 294.68 1087.62 290.216 1065.43Z" fill="#4E2F1D"/>
</g>
<g filter="url(#filter5_f_2056_468)">
<ellipse cx="210" cy="1099.5" rx="154" ry="154.5" fill="#323537" fill-opacity="0.2"/>
</g>
<g filter="url(#filter6_d_2056_468)">
<path d="M154 1081.67V1258.45C215.5 1268.45 221.5 1268.95 264.054 1277.11V1081.67C264.054 1057.95 241.5 1014.45 233.5 1002.95C228 995.043 230.742 939.987 232.429 908.995H195.112C194.69 937.246 192.709 995.394 188.155 1001.97C164.373 1036.38 155.476 1069.44 154 1081.67Z" fill="#422311"/>
<path d="M240.694 1096.62C226.5 1088.82 183.5 1086.82 161 1096.62V1151.94C185.5 1141.32 218.5 1144.82 240.694 1151.94V1096.62Z" fill="#BF3C3D"/>
<path d="M240.694 1105.62C226.5 1097.82 183.5 1095.82 161 1105.62V1160.94C185.5 1150.32 218.5 1153.82 240.694 1160.94V1105.62Z" fill="#E64A4B"/>
<path d="M207.129 1201.21C179.806 1201.71 159 1221.95 161 1253.45C202.5 1260.95 226.042 1271.71 255.771 1274.77C255.771 1234.27 257.583 1179.35 255.5 1167.5C253.271 1154.82 245 1164 244 1170C241.37 1185.78 231 1200.76 207.129 1201.21Z" fill="#4E2F1D"/>
<rect x="190.304" y="906.301" width="44.2475" height="32.3242" rx="5" transform="rotate(-0.389376 190.304 906.301)" fill="#E64A4B"/>
<line x1="1" y1="-1" x2="24.6011" y2="-1" transform="matrix(-0.00200188 -0.999998 0.999994 0.00355354 197.369 935.7)" stroke="#902728" stroke-width="2" stroke-linecap="round"/>
<line x1="1" y1="-1" x2="24.6011" y2="-1" transform="matrix(-0.00200188 -0.999998 0.999994 0.00355354 197.369 935.7)" stroke="#902728" stroke-width="2" stroke-linecap="round"/>
<line x1="1" y1="-1" x2="24.6011" y2="-1" transform="matrix(-0.00200188 -0.999998 0.999994 0.00355354 197.369 935.7)" stroke="#BF3C3D" stroke-width="2" stroke-linecap="round"/>
<line x1="1" y1="-1" x2="24.6011" y2="-1" transform="matrix(-0.00200188 -0.999998 0.999994 0.00355354 203.757 935.512)" stroke="#902728" stroke-width="2" stroke-linecap="round"/>
<line x1="1" y1="-1" x2="24.6011" y2="-1" transform="matrix(-0.00200188 -0.999998 0.999994 0.00355354 203.757 935.512)" stroke="#902728" stroke-width="2" stroke-linecap="round"/>
<line x1="1" y1="-1" x2="24.6011" y2="-1" transform="matrix(-0.00200188 -0.999998 0.999994 0.00355354 203.757 935.512)" stroke="#BF3C3D" stroke-width="2" stroke-linecap="round"/>
<line x1="1" y1="-1" x2="24.6011" y2="-1" transform="matrix(-0.00200188 -0.999998 0.999994 0.00355354 210.146 935.324)" stroke="#902728" stroke-width="2" stroke-linecap="round"/>
<line x1="1" y1="-1" x2="24.6011" y2="-1" transform="matrix(-0.00200188 -0.999998 0.999994 0.00355354 210.146 935.324)" stroke="#902728" stroke-width="2" stroke-linecap="round"/>
<line x1="1" y1="-1" x2="24.6011" y2="-1" transform="matrix(-0.00200188 -0.999998 0.999994 0.00355354 210.146 935.324)" stroke="#BF3C3D" stroke-width="2" stroke-linecap="round"/>
<line x1="1" y1="-1" x2="24.6011" y2="-1" transform="matrix(-0.00200188 -0.999998 0.999994 0.00355354 216.534 935.135)" stroke="#902728" stroke-width="2" stroke-linecap="round"/>
<line x1="1" y1="-1" x2="24.6011" y2="-1" transform="matrix(-0.00200188 -0.999998 0.999994 0.00355354 216.534 935.135)" stroke="#902728" stroke-width="2" stroke-linecap="round"/>
<line x1="1" y1="-1" x2="24.6011" y2="-1" transform="matrix(-0.00200188 -0.999998 0.999994 0.00355354 216.534 935.135)" stroke="#BF3C3D" stroke-width="2" stroke-linecap="round"/>
<line x1="1" y1="-1" x2="24.6011" y2="-1" transform="matrix(-0.00200188 -0.999998 0.999994 0.00355354 222.923 934.947)" stroke="#902728" stroke-width="2" stroke-linecap="round"/>
<line x1="1" y1="-1" x2="24.6011" y2="-1" transform="matrix(-0.00200188 -0.999998 0.999994 0.00355354 222.923 934.947)" stroke="#902728" stroke-width="2" stroke-linecap="round"/>
<line x1="1" y1="-1" x2="24.6011" y2="-1" transform="matrix(-0.00200188 -0.999998 0.999994 0.00355354 222.923 934.947)" stroke="#BF3C3D" stroke-width="2" stroke-linecap="round"/>
<line x1="1" y1="-1" x2="24.6011" y2="-1" transform="matrix(-0.00200188 -0.999998 0.999994 0.00355354 229.343 935.823)" stroke="#902728" stroke-width="2" stroke-linecap="round"/>
<line x1="1" y1="-1" x2="24.6011" y2="-1" transform="matrix(-0.00200188 -0.999998 0.999994 0.00355354 229.343 935.823)" stroke="#902728" stroke-width="2" stroke-linecap="round"/>
<line x1="1" y1="-1" x2="24.6011" y2="-1" transform="matrix(-0.00200188 -0.999998 0.999994 0.00355354 229.343 935.823)" stroke="#BF3C3D" stroke-width="2" stroke-linecap="round"/>
<path d="M236.866 1053.06C234.208 1039.85 229.72 1028.31 230.856 1021.02C237.138 1012.5 249.305 1034.66 251.108 1053.06C252.581 1068.08 255.952 1084.37 246.607 1085.81C239.165 1086.96 241.33 1075.25 236.866 1053.06Z" fill="#4E2F1D"/>
</g>
<g filter="url(#filter7_d_2056_468)">
<path d="M57 1048.22V1225C118.5 1235 124.5 1235.5 167.054 1243.66V1048.22C167.054 1024.5 144.5 981 136.5 969.5C131 961.594 133.742 906.538 135.429 875.546H98.112C97.6904 903.797 95.7086 961.944 91.1546 968.522C67.3729 1002.93 58.4758 1035.99 57 1048.22Z" fill="#422311"/>
<path d="M136.694 1070.4C115.5 1062 70 1062 57 1070.4V1125.72C74.5 1115 120.46 1121.43 136.694 1125.72V1070.4Z" fill="#BF3C3D"/>
<path d="M136.694 1083.3C115.5 1074.9 70 1074.9 57 1083.3V1138.62C74.5 1127.9 120.46 1134.33 136.694 1138.62V1083.3Z" fill="#E64A4B"/>
<path d="M110.129 1167.76C82.8057 1168.26 62 1188.5 64 1220C105.5 1227.5 129.042 1238.26 158.771 1241.32C158.771 1200.82 160.583 1141.35 158.5 1129.5C156.271 1116.82 146.271 1125.32 145.271 1131.32C142.641 1147.11 134 1167.32 110.129 1167.76Z" fill="#4E2F1D"/>
<rect x="93.8609" y="872.106" width="44.2475" height="32.3242" rx="5" transform="rotate(1.55676 93.8609 872.106)" fill="#E64A4B"/>
<line x1="1" y1="-1" x2="24.6011" y2="-1" transform="matrix(0.0274751 -0.999622 0.999454 0.033028 100 901.775)" stroke="#902728" stroke-width="2" stroke-linecap="round"/>
<line x1="1" y1="-1" x2="24.6011" y2="-1" transform="matrix(0.0274751 -0.999622 0.999454 0.033028 100 901.775)" stroke="#902728" stroke-width="2" stroke-linecap="round"/>
<line x1="1" y1="-1" x2="24.6011" y2="-1" transform="matrix(0.0274751 -0.999622 0.999454 0.033028 100 901.775)" stroke="#BF3C3D" stroke-width="2" stroke-linecap="round"/>
<line x1="1" y1="-1" x2="24.6011" y2="-1" transform="matrix(0.0274751 -0.999622 0.999454 0.033028 106.391 901.775)" stroke="#902728" stroke-width="2" stroke-linecap="round"/>
<line x1="1" y1="-1" x2="24.6011" y2="-1" transform="matrix(0.0274751 -0.999622 0.999454 0.033028 106.391 901.775)" stroke="#902728" stroke-width="2" stroke-linecap="round"/>
<line x1="1" y1="-1" x2="24.6011" y2="-1" transform="matrix(0.0274751 -0.999622 0.999454 0.033028 106.391 901.775)" stroke="#BF3C3D" stroke-width="2" stroke-linecap="round"/>
<line x1="1" y1="-1" x2="24.6011" y2="-1" transform="matrix(0.0274751 -0.999622 0.999454 0.033028 112.783 901.775)" stroke="#902728" stroke-width="2" stroke-linecap="round"/>
<line x1="1" y1="-1" x2="24.6011" y2="-1" transform="matrix(0.0274751 -0.999622 0.999454 0.033028 112.783 901.775)" stroke="#902728" stroke-width="2" stroke-linecap="round"/>
<line x1="1" y1="-1" x2="24.6011" y2="-1" transform="matrix(0.0274751 -0.999622 0.999454 0.033028 112.783 901.775)" stroke="#BF3C3D" stroke-width="2" stroke-linecap="round"/>
<line x1="1" y1="-1" x2="24.6011" y2="-1" transform="matrix(0.0274751 -0.999622 0.999454 0.033028 119.174 901.775)" stroke="#902728" stroke-width="2" stroke-linecap="round"/>
<line x1="1" y1="-1" x2="24.6011" y2="-1" transform="matrix(0.0274751 -0.999622 0.999454 0.033028 119.174 901.775)" stroke="#902728" stroke-width="2" stroke-linecap="round"/>
<line x1="1" y1="-1" x2="24.6011" y2="-1" transform="matrix(0.0274751 -0.999622 0.999454 0.033028 119.174 901.775)" stroke="#BF3C3D" stroke-width="2" stroke-linecap="round"/>
<line x1="1" y1="-1" x2="24.6011" y2="-1" transform="matrix(0.0274751 -0.999622 0.999454 0.033028 125.566 901.775)" stroke="#902728" stroke-width="2" stroke-linecap="round"/>
<line x1="1" y1="-1" x2="24.6011" y2="-1" transform="matrix(0.0274751 -0.999622 0.999454 0.033028 125.566 901.775)" stroke="#902728" stroke-width="2" stroke-linecap="round"/>
<line x1="1" y1="-1" x2="24.6011" y2="-1" transform="matrix(0.0274751 -0.999622 0.999454 0.033028 125.566 901.775)" stroke="#BF3C3D" stroke-width="2" stroke-linecap="round"/>
<line x1="1" y1="-1" x2="24.6011" y2="-1" transform="matrix(0.0274751 -0.999622 0.999454 0.033028 131.957 902.841)" stroke="#902728" stroke-width="2" stroke-linecap="round"/>
<line x1="1" y1="-1" x2="24.6011" y2="-1" transform="matrix(0.0274751 -0.999622 0.999454 0.033028 131.957 902.841)" stroke="#902728" stroke-width="2" stroke-linecap="round"/>
<line x1="1" y1="-1" x2="24.6011" y2="-1" transform="matrix(0.0274751 -0.999622 0.999454 0.033028 131.957 902.841)" stroke="#BF3C3D" stroke-width="2" stroke-linecap="round"/>
<path d="M129.507 1018.5C125.235 1002.37 119.039 985.853 120.126 976.825C127.952 965.992 143.209 988.26 148.82 1010.53C152.915 1026.78 157.191 1057.61 144.907 1059.88C135.125 1061.69 136.68 1045.58 129.507 1018.5Z" fill="#4E2F1D"/>
</g>
<path d="M113 445.5L261 415V741L113 676.5V445.5Z" fill="#FDCB82"/>
<path d="M261 415L322.5 451.5V767.5L261 741.5V415Z" fill="#FEEACD"/>
<path d="M185 584C153.8 562.8 124.167 575.667 113.5 584.5V676.5L260.5 741V607C248.333 608.167 216.2 605.2 185 584Z" fill="#FFA172" stroke="#FFA172"/>
<path d="M322.5 589.5C304.5 583.5 279.5 610.5 261 606.5V741.5L322.5 768V589.5Z" fill="#FFC8AC"/>
<path d="M214.712 561L123 608.898C134.827 624.401 161.024 654.713 195.299 640.829C229.573 626.946 224.53 580.9 214.712 561Z" fill="#52A05C"/>
<path d="M142.57 599.261C133.36 603.259 127.029 607.256 123.576 608.969C142.915 637.294 170.773 647.802 180.558 644.375C201.855 641.52 210.488 631.812 214.517 624.959C217.76 619.444 167.32 635.238 142.57 599.261Z" fill="#2D7034"/>
<circle cx="130.5" cy="567.5" r="5.5" fill="#764F38"/>
<circle cx="139.5" cy="540.5" r="5.5" fill="#764F38"/>
<circle cx="165.5" cy="544.5" r="5.5" fill="#764F38"/>
<circle cx="165.5" cy="496.5" r="5.5" fill="#764F38"/>
<circle cx="209.5" cy="526.5" r="5.5" fill="#764F38"/>
<path d="M142 690L46 648.162V386.702L142 364V690Z" fill="#FDCB82"/>
<path d="M142 364L203.5 400.5V716.5L142 690.5V364Z" fill="#FEEACD"/>
<path d="M46 523.078C52.562 524.866 59.3841 527.9 66.2812 532.587C97.3767 553.716 129.392 556.658 141.452 555.502L142 555.45V690.766L141.299 690.458L46 648.643V523.078Z" fill="#FFA172"/>
<path d="M203.5 538.5C185.5 532.5 165.5 558.5 142 555.5V690.5L203.5 717V538.5Z" fill="#FFC8AC"/>
<path d="M95.7119 510C105.53 529.899 110.573 575.946 76.2988 589.829C65.2976 594.285 55.1287 594.187 46 591.488V535.962L95.7119 510Z" fill="#52A05C"/>
<path d="M46 566.807C70.4042 577.609 97.9393 569.839 95.5176 573.959C91.4885 580.812 82.8548 590.52 61.5586 593.375C58.1709 594.561 52.6169 594.076 46 591.761V566.807Z" fill="#2D7034"/>
<path d="M46.5 488C49.5376 488 52 490.462 52 493.5C52 496.538 49.5376 499 46.5 499C46.3314 499 46.1647 498.99 46 498.976V488.023C46.1647 488.009 46.3314 488 46.5 488Z" fill="#764F38"/>
<path d="M46.5 440C49.5376 440 52 442.462 52 445.5C52 448.538 49.5376 451 46.5 451C45.9798 451 45.477 450.926 45 450.791V440.208C45.4769 440.073 45.9799 440 46.5 440Z" fill="#764F38"/>
<circle cx="90.5" cy="475.5" r="5.5" fill="#764F38"/>
<g filter="url(#filter8_f_2056_468)">
<ellipse cx="214" cy="416" rx="154" ry="154.5" fill="#323537" fill-opacity="0.2"/>
</g>
<rect x="334.5" y="287" width="33" height="32" fill="#333638"/>
<rect x="337.5" y="290" width="27" height="26" fill="#40464A"/>
<path d="M45.5 147L360 302V312.5H341.5L45.5 166V147Z" fill="#4E2F1D"/>
<path d="M45.5 136.5L360 293.5V312.5L45.5 155.5V136.5Z" fill="#63422F"/>
<path d="M339.5 291.5L217.5 229.5C204.779 278.431 199.452 317.477 201.269 366.803C202.769 407.505 195.514 461.508 194 484C208.236 480.712 245.43 477.45 271.236 478.081C297.042 478.712 328.482 481.238 339.386 484C341.052 470.978 343.384 433.175 339.386 386.138C335.388 339.101 337.834 303.864 339.5 291.5Z" fill="#333638"/>
<path d="M334.086 295.471L222.733 239.378C210.954 285.023 205.426 318.182 207.108 364.195C208.477 401.608 203.709 450.21 201.39 473.852L201.289 474.889C218.143 471.701 249.824 468.834 273.719 469.423C297.613 470.012 313.806 471.245 333.394 475.345C335.216 461.679 338.696 426.111 334.994 382.233C331.292 338.354 332.543 307.005 334.086 295.471Z" fill="#3648A4"/>
<mask id="mask0_2056_468" style="mask-type:alpha" maskUnits="userSpaceOnUse" x="212" y="253" width="116" height="212">
<path d="M326.105 301.331L229.021 253.955C218.792 294.665 213.992 324.24 215.453 365.279C216.659 399.143 215.453 437.08 212.221 462.135C227.254 459.857 253.22 457.579 273.263 457.579C293.307 457.579 305.606 459.401 325.116 464.412C327.016 450.291 329.72 420.501 326.506 381.366C323.291 342.231 324.766 311.618 326.105 301.331Z" fill="#3F5EC5"/>
</mask>
<g mask="url(#mask0_2056_468)">
<path d="M326.105 301.331L229.021 253.955C218.792 294.665 213.992 324.24 215.453 365.279C216.659 399.143 215.453 437.08 212.221 462.135C227.254 459.857 253.22 457.579 273.263 457.579C293.307 457.579 305.606 459.401 325.116 464.412C327.016 450.291 329.72 420.501 326.506 381.366C323.291 342.231 324.766 311.618 326.105 301.331Z" fill="#3F5EC5"/>
<rect x="165.757" y="324.361" width="225.946" height="80.0268" transform="rotate(-19.8669 165.757 324.361)" fill="#4A69D0"/>
<rect x="198.555" y="440.979" width="225.946" height="42.2184" transform="rotate(-19.8669 198.555 440.979)" fill="#4A69D0"/>
</g>
<path d="M189.676 217.41L28.5705 136.5C28.5705 185.187 34.3292 238.014 34.3292 296.694C34.3292 344.934 31.7116 405.061 27 439.613C65.2163 444.324 82.1006 447.762 112.856 448.513C143.611 449.263 172.013 448.513 190.846 444.324C190.846 428.096 194 379.533 194 322.346C194 266.224 194 239.108 189.676 217.41Z" fill="#333638"/>
<path d="M183.006 222.879L36.7941 149.064C37.4703 189.375 41.1349 231.464 41.1349 285.177C41.1349 329.333 41.724 399.205 37.4703 430.833C71.9728 435.145 86.6599 436.832 114.426 437.519C142.193 438.206 166.003 438.211 183.006 434.378C183.006 412.39 187.194 371.027 187.194 318.682C187.194 267.31 185.624 242.773 183.006 222.879Z" fill="#3648A4"/>
<mask id="mask1_2056_468" style="mask-type:alpha" maskUnits="userSpaceOnUse" x="47" y="165" width="133" height="262">
<path d="M176.201 229.685L47.9405 165.817C48.5289 200.598 51.7178 236.914 51.7178 283.26C51.7178 321.36 52.1286 384.644 47.9405 419.72C80.3982 421.814 89.8214 425.488 110.762 426.002C135.89 426.618 157.354 426.002 174.63 426.002C177.248 405.061 179.865 352.187 179.865 311.876C179.865 267.551 178.295 248.008 176.201 229.685Z" fill="#3F5EC5"/>
</mask>
<g mask="url(#mask1_2056_468)">
<path d="M176.201 229.685L47.9405 165.817C48.5289 200.598 51.7178 236.914 51.7178 283.26C51.7178 321.36 52.1286 384.644 47.9405 419.72C80.3982 421.814 89.8214 425.488 110.762 426.002C135.89 426.618 157.354 426.002 174.63 426.002C177.248 405.061 179.865 352.187 179.865 311.876C179.865 267.551 178.295 248.008 176.201 229.685Z" fill="#3F5EC5"/>
<rect x="-0.222534" y="288.188" width="230.687" height="102.188" transform="rotate(-19.8669 -0.222534 288.188)" fill="#4A69D0"/>
<rect x="-32.6802" y="179.297" width="230.687" height="68.7079" transform="rotate(-19.8669 -32.6802 179.297)" fill="#4A69D0"/>
<rect x="40.6113" y="446.288" width="230.687" height="53.8324" transform="rotate(-19.8669 40.6113 446.288)" fill="#4A69D0"/>
</g>
<path d="M46 1211L351 1286.5V1310.24L46 1243V1211Z" fill="#40464A"/>
<rect y="60" width="46" height="2102" fill="#3F4548"/>
<path d="M45 1741L381.5 1796.5V1822.74L45 1773V1741Z" fill="#3F4548"/>
<defs>
<filter id="filter0_d_2056_468" x="146" y="1431" width="193.575" height="212.036" filterUnits="userSpaceOnUse" color-interpolation-filters="sRGB">
<feFlood flood-opacity="0" result="BackgroundImageFix"/>
<feColorMatrix in="SourceAlpha" type="matrix" values="0 0 0 0 0 0 0 0 0 0 0 0 0 0 0 0 0 0 127 0" result="hardAlpha"/>
<feOffset dx="4" dy="3"/>
<feGaussianBlur stdDeviation="5"/>
<feComposite in2="hardAlpha" operator="out"/>
<feColorMatrix type="matrix" values="0 0 0 0 0 0 0 0 0 0 0 0 0 0 0 0 0 0 0.25 0"/>
<feBlend mode="normal" in2="BackgroundImageFix" result="effect1_dropShadow_2056_468"/>
<feBlend mode="normal" in="SourceGraphic" in2="effect1_dropShadow_2056_468" result="shape"/>
</filter>
<filter id="filter1_d_2056_468" x="150" y="1598.42" width="195" height="213.608" filterUnits="userSpaceOnUse" color-interpolation-filters="sRGB">
<feFlood flood-opacity="0" result="BackgroundImageFix"/>
<feColorMatrix in="SourceAlpha" type="matrix" values="0 0 0 0 0 0 0 0 0 0 0 0 0 0 0 0 0 0 127 0" result="hardAlpha"/>
<feOffset dx="4" dy="3"/>
<feGaussianBlur stdDeviation="5"/>
<feComposite in2="hardAlpha" operator="out"/>
<feColorMatrix type="matrix" values="0 0 0 0 0 0 0 0 0 0 0 0 0 0 0 0 0 0 0.25 0"/>
<feBlend mode="normal" in2="BackgroundImageFix" result="effect1_dropShadow_2056_468"/>
<feBlend mode="normal" in="SourceGraphic" in2="effect1_dropShadow_2056_468" result="shape"/>
</filter>
<filter id="filter2_d_2056_468" x="32" y="1399" width="201.717" height="221.021" filterUnits="userSpaceOnUse" color-interpolation-filters="sRGB">
<feFlood flood-opacity="0" result="BackgroundImageFix"/>
<feColorMatrix in="SourceAlpha" type="matrix" values="0 0 0 0 0 0 0 0 0 0 0 0 0 0 0 0 0 0 127 0" result="hardAlpha"/>
<feOffset dx="4" dy="3"/>
<feGaussianBlur stdDeviation="5"/>
<feComposite in2="hardAlpha" operator="out"/>
<feColorMatrix type="matrix" values="0 0 0 0 0 0 0 0 0 0 0 0 0 0 0 0 0 0 0.25 0"/>
<feBlend mode="normal" in2="BackgroundImageFix" result="effect1_dropShadow_2056_468"/>
<feBlend mode="normal" in="SourceGraphic" in2="effect1_dropShadow_2056_468" result="shape"/>
</filter>
<filter id="filter3_d_2056_468" x="22" y="1571" width="201.717" height="221.021" filterUnits="userSpaceOnUse" color-interpolation-filters="sRGB">
<feFlood flood-opacity="0" result="BackgroundImageFix"/>
<feColorMatrix in="SourceAlpha" type="matrix" values="0 0 0 0 0 0 0 0 0 0 0 0 0 0 0 0 0 0 127 0" result="hardAlpha"/>
<feOffset dx="4" dy="3"/>
<feGaussianBlur stdDeviation="5"/>
<feComposite in2="hardAlpha" operator="out"/>
<feColorMatrix type="matrix" values="0 0 0 0 0 0 0 0 0 0 0 0 0 0 0 0 0 0 0.25 0"/>
<feBlend mode="normal" in2="BackgroundImageFix" result="effect1_dropShadow_2056_468"/>
<feBlend mode="normal" in="SourceGraphic" in2="effect1_dropShadow_2056_468" result="shape"/>
</filter>
<filter id="filter4_d_2056_468" x="215" y="916.123" width="132.194" height="391.378" filterUnits="userSpaceOnUse" color-interpolation-filters="sRGB">
<feFlood flood-opacity="0" result="BackgroundImageFix"/>
<feColorMatrix in="SourceAlpha" type="matrix" values="0 0 0 0 0 0 0 0 0 0 0 0 0 0 0 0 0 0 127 0" result="hardAlpha"/>
<feOffset dx="4" dy="3"/>
<feGaussianBlur stdDeviation="5"/>
<feComposite in2="hardAlpha" operator="out"/>
<feColorMatrix type="matrix" values="0 0 0 0 0 0 0 0 0 0 0 0 0 0 0 0 0 0 0.25 0"/>
<feBlend mode="normal" in2="BackgroundImageFix" result="effect1_dropShadow_2056_468"/>
<feBlend mode="normal" in="SourceGraphic" in2="effect1_dropShadow_2056_468" result="shape"/>
</filter>
<filter id="filter5_f_2056_468" x="-94" y="795" width="608" height="609" filterUnits="userSpaceOnUse" color-interpolation-filters="sRGB">
<feFlood flood-opacity="0" result="BackgroundImageFix"/>
<feBlend mode="normal" in="SourceGraphic" in2="BackgroundImageFix" result="shape"/>
<feGaussianBlur stdDeviation="75" result="effect1_foregroundBlur_2056_468"/>
</filter>
<filter id="filter6_d_2056_468" x="148" y="899.034" width="130.054" height="391.072" filterUnits="userSpaceOnUse" color-interpolation-filters="sRGB">
<feFlood flood-opacity="0" result="BackgroundImageFix"/>
<feColorMatrix in="SourceAlpha" type="matrix" values="0 0 0 0 0 0 0 0 0 0 0 0 0 0 0 0 0 0 127 0" result="hardAlpha"/>
<feOffset dx="4" dy="3"/>
<feGaussianBlur stdDeviation="5"/>
<feComposite in2="hardAlpha" operator="out"/>
<feColorMatrix type="matrix" values="0 0 0 0 0 0 0 0 0 0 0 0 0 0 0 0 0 0 0.25 0"/>
<feBlend mode="normal" in2="BackgroundImageFix" result="effect1_dropShadow_2056_468"/>
<feBlend mode="normal" in="SourceGraphic" in2="effect1_dropShadow_2056_468" result="shape"/>
</filter>
<filter id="filter7_d_2056_468" x="51" y="865.24" width="130.054" height="391.417" filterUnits="userSpaceOnUse" color-interpolation-filters="sRGB">
<feFlood flood-opacity="0" result="BackgroundImageFix"/>
<feColorMatrix in="SourceAlpha" type="matrix" values="0 0 0 0 0 0 0 0 0 0 0 0 0 0 0 0 0 0 127 0" result="hardAlpha"/>
<feOffset dx="4" dy="3"/>
<feGaussianBlur stdDeviation="5"/>
<feComposite in2="hardAlpha" operator="out"/>
<feColorMatrix type="matrix" values="0 0 0 0 0 0 0 0 0 0 0 0 0 0 0 0 0 0 0.25 0"/>
<feBlend mode="normal" in2="BackgroundImageFix" result="effect1_dropShadow_2056_468"/>
<feBlend mode="normal" in="SourceGraphic" in2="effect1_dropShadow_2056_468" result="shape"/>
</filter>
<filter id="filter8_f_2056_468" x="-90" y="111.5" width="608" height="609" filterUnits="userSpaceOnUse" color-interpolation-filters="sRGB">
<feFlood flood-opacity="0" result="BackgroundImageFix"/>
<feBlend mode="normal" in="SourceGraphic" in2="BackgroundImageFix" result="shape"/>
<feGaussianBlur stdDeviation="75" result="effect1_foregroundBlur_2056_468"/>
</filter>
</defs>
</svg>
