<svg width="224" height="302" viewBox="0 0 224 302" fill="none" xmlns="http://www.w3.org/2000/svg">
<path d="M-3.97969 146.188L17.6202 103.085L39.7489 89.2772L164.57 139.211L171.23 160.314C189.888 173.373 173.782 183.019 175.736 183.647C177.299 184.148 179.521 188.446 180.437 190.532L171.17 210.035C172.159 223.391 160.514 246.647 154.568 256.605C156.943 278.296 136.246 278.493 125.601 275.88C112.35 278.907 77.6396 272.689 61.941 269.202C43.4349 280.803 34.1202 267.664 31.776 259.645C-20.037 244.434 -15.4455 202.802 -6.67315 183.888C-14.022 178.684 -7.93951 156.586 -3.97969 146.188Z" fill="white"/>
<path d="M136.586 57.4584C125.148 54.0914 106.262 52.7896 98.2494 52.5596L90.3426 33.5541C86.6582 27.0375 79.9888 13.0265 77.627 11.6925C74.6747 10.0252 69.6715 8.292 66.1849 9.71265C64.2595 10.4972 61.5325 12.7628 60.3505 14.4858L42.0159 50.6359C34.0316 56.4827 17.4509 71.7136 15.0027 85.8625C12.5544 100.011 15.7564 104.209 17.6634 104.539L34.7294 92.7456L44.4552 94.4285L50.4029 99.2164L57.4408 106.217L56.8579 109.586L54.0565 135.991C81.6002 144.805 145.639 158.372 165.406 146.295C190.115 131.198 178.7 89.9006 180.373 88.7444C181.712 87.8195 183.791 78.6378 184.664 74.1626C185.88 66.5664 188.153 50.5945 187.514 47.4769C186.875 44.3593 185.355 41.2242 184.675 40.0464C183.597 38.8962 179.993 36.1137 174.199 34.1858C168.405 32.2579 146.709 48.8976 136.586 57.4584Z" fill="white"/>
<path d="M172.322 101.156L160.524 101.255L168.223 104.421L172.68 111.001L172.322 101.156Z" fill="black"/>
<ellipse cx="16.6119" cy="13.6545" rx="16.6119" ry="13.6545" transform="matrix(0.930941 -0.365169 0.334757 0.942304 136.868 108.531)" fill="white"/>
<ellipse cx="157.252" cy="115.056" rx="11.3182" ry="13.2541" transform="rotate(9.81705 157.252 115.056)" fill="black"/>
<path d="M78.9227 88.8706L90.5662 90.8198L82.4838 92.7402L77.0927 98.5424L78.9227 88.8706Z" fill="black"/>
<ellipse cx="16.607" cy="13.6593" rx="16.607" ry="13.6593" transform="matrix(-0.865426 -0.507123 -0.471906 0.878292 113.139 101.339)" fill="white"/>
<ellipse cx="11.3108" cy="13.263" rx="11.3108" ry="13.263" transform="matrix(0.999905 -0.013823 0.0207369 0.999785 81.0185 91.7773)" fill="black"/>
<path d="M114.354 134.859L125.883 124.421C126.142 128.032 127.222 135.408 129.472 136.029" stroke="black" stroke-width="3"/>
<path d="M125.591 125.412L120.998 120.442L131.015 121.397L125.591 125.412Z" fill="black"/>
<ellipse cx="7.47604" cy="3.65295" rx="7.47604" ry="3.65295" transform="matrix(0.825019 0.565105 -0.576912 0.816807 100.5 80.417)" fill="#B55656"/>
<ellipse cx="7.34075" cy="3.7157" rx="7.34075" ry="3.7157" transform="matrix(0.947931 -0.318477 0.333475 0.942759 143.512 93.209)" fill="#B55656"/>
<path d="M165.109 134.389L178.041 132.868" stroke="black" stroke-width="3"/>
<path d="M160.603 141.705L170.329 143.388" stroke="black" stroke-width="3"/>
<path d="M77.5507 127.912L68.1487 129.466" stroke="black" stroke-width="3"/>
<path d="M78.9971 122.958L68.4186 119.393" stroke="black" stroke-width="3"/>
<path d="M154.404 153.338C167.03 186.647 91.4194 225.032 82.5189 152.422L154.404 153.338Z" fill="#8CAC74"/>
<path d="M166.745 145.37C125.579 154.439 75.8396 141.206 56.3072 133.2L53.9269 146.956C107.635 166.195 154.363 164.142 170.706 159.934C173.305 158.533 169.071 148.953 166.745 145.37Z" fill="#B55656"/>
<ellipse cx="121.888" cy="166.233" rx="10.7412" ry="9.6867" transform="rotate(9.81705 121.888 166.233)" fill="#EECD6C"/>
<path d="M135.233 166.969C135.197 169.337 129.772 171.23 122.241 171.072C114.711 170.914 108.635 168.868 108.671 166.5C108.708 164.133 114.842 162.342 122.372 162.5C129.903 162.658 135.27 164.602 135.233 166.969Z" fill="#EECD6C"/>
<path d="M124.49 175.565C125.313 174.171 126.775 171.082 126.039 169.876" stroke="black" stroke-width="2"/>
<path d="M117.808 174.49C111.008 164.755 117.729 159.056 122.299 157.052C115.205 155.824 112.078 161.066 111.353 164.121C107.447 166.221 109.938 168.31 111.671 169.091C110.976 171.747 115.68 173.736 117.808 174.49Z" fill="#C5A954" stroke="#C5A954" stroke-width="2"/>
<path d="M124.63 161.765L127.528 159.162L130.404 162.873L130.394 165.671C130.427 165.797 130.428 165.917 130.393 166.031L130.394 165.671C130.064 164.401 126.525 162.582 124.63 161.765Z" fill="#FDF2BE"/>
<ellipse cx="126.028" cy="169.552" rx="2.03212" ry="1.99432" transform="rotate(9.81705 126.028 169.552)" fill="black"/>
<path d="M-12.3404 211.532C8.8491 208.259 25.7661 212.788 13.8142 252.778C4.14784 247.346 -15.7407 231.183 -12.3404 211.532Z" fill="black"/>
<path d="M173.103 33.7071C167.918 32.3472 147.011 48.8536 137.206 57.2767L127.481 55.5938C126.25 67.8138 146.938 84.4626 168.64 88.449L178.937 90.2309C183.196 86.0524 187.298 55.5355 187.989 48.1375C188.68 40.7395 179.585 35.407 173.103 33.7071Z" fill="black" stroke="black" stroke-width="2"/>
<path d="M6.99428 124.259C18.0638 134.196 31.495 167.271 -8.33544 181.576C-11.8225 180.319 -14.6381 159.394 6.99428 124.259Z" fill="#FAA776"/>
<path d="M157.221 253.725C131.886 142.968 30.8802 224.276 68.1636 269.424C70.2571 271.599 81.4858 275.981 109.653 276.108C137.82 276.235 153.101 261.239 157.221 253.725Z" fill="#FAA776"/>
<path d="M66.2215 31.7416C68.2128 28.3918 73.1109 28.5312 74.9381 31.9896L76.3153 34.5964L79.3433 41.6497C79.5246 42.072 79.6471 42.517 79.7072 42.9723L80.2369 46.9812C80.6413 50.0422 78.2072 52.7237 75.1243 52.6135L64.3666 52.2287C61.0098 52.1087 58.71 48.7777 59.7906 45.6011L61.365 40.9727L64.5332 34.5817L66.2215 31.7416Z" fill="#D9804D"/>
<path d="M173.153 55.5853C176.615 51.6378 183.061 54.9264 181.805 60.0003L179.866 67.8387L178.156 72.7492C177.188 75.5279 174.026 76.8933 171.334 75.6949L167.047 73.7867C164.244 72.5387 163.239 69.0967 164.93 66.5325L169.109 60.1947L173.153 55.5853Z" fill="#D9804D"/>
<path d="M167.247 255.288C172.879 263.426 166.393 272.905 155.836 279.922C145.278 286.939 134.647 288.836 129.015 280.698C123.384 272.561 127.377 260.275 137.935 253.259C148.492 246.242 161.616 247.15 167.247 255.288Z" fill="white"/>
<path d="M96.6149 268.904C88.3854 251.862 124.225 200.587 144.229 177.023C144.676 176.496 145.23 176.078 145.86 175.793C166.978 166.258 178.041 180.149 181.383 188.933C181.766 189.939 181.727 191.019 181.355 192.026C167.613 229.208 136.193 296.567 117.519 287.791C98.5867 278.894 98.3981 272.596 96.6149 268.904Z" fill="#EECD6C"/>
<path d="M137.761 185.171L176.816 204.651" stroke="#7C6F49" stroke-width="3"/>
<path d="M129.428 195.873L171.434 217.02" stroke="#7C6F49" stroke-width="3"/>
<path d="M102.28 239.693L147.616 263.729" stroke="#7C6F49" stroke-width="3"/>
<path d="M97.4765 250.427L140.719 272.945" stroke="#7C6F49" stroke-width="3"/>
<path d="M177.848 184.964C174.73 192.536 165.576 192.691 156.362 188.981C147.149 185.272 141.366 179.103 144.484 171.53C147.602 163.958 157.598 160.827 166.812 164.536C176.025 168.246 180.966 177.391 177.848 184.964Z" fill="#8D8E85" fill-opacity="0.54"/>
<path d="M182.25 177.616C179.132 185.189 169.978 185.344 160.764 181.634C151.551 177.924 145.768 171.755 148.886 164.183C152.004 156.611 162 153.479 171.214 157.189C180.427 160.898 185.368 170.044 182.25 177.616Z" fill="white"/>
<path d="M44.2124 80.5078C50.8072 74.7002 53.8094 32.3107 73.1934 14.8205C74.9135 13.2684 74.7241 10.3075 72.4821 9.7238C65.5591 7.92165 62.7076 11.7938 60.7494 13.8496C60.5205 14.0899 60.3225 14.3561 60.1723 14.6521L42.4101 49.6737C42.1833 50.1208 41.8367 50.5107 41.426 50.7982C15.0511 69.2591 11.97 91.0905 14.3808 99.8867C14.9948 102.127 15.8535 106.368 14.6813 108.373C-3.8616 140.092 -16.584 172.521 -8.62702 181.878C-7.57462 183.116 -6.89688 184.868 -7.52566 186.366C-26.1609 230.763 5.82762 251.536 26.2158 257.88C28.7712 258.676 30.6779 255.813 29.3152 253.509C18.5803 235.363 10.4539 208.76 15.414 195.539C16.11 193.684 15.343 191.36 13.9769 189.925C3.18918 178.591 22.0839 137.103 35.9643 119.377C37.8848 116.924 36.7922 107.476 35.4531 104.663C32.5269 98.5171 34.3112 89.2273 44.2124 80.5078Z" fill="#B2AEAA" fill-opacity="0.59"/>
<path d="M77.3123 265.5C75.2733 277.283 56.4863 275.775 46.3754 274.025C36.2646 272.276 29.721 261.305 31.7599 249.522C33.7989 237.739 47.0485 225.278 57.1594 227.027C67.2702 228.777 79.3512 253.717 77.3123 265.5Z" fill="white"/>
<path d="M-6.95918 183.838C-5.32744 185.759 -1.11944 189.591 2.6586 189.551" stroke="black" stroke-width="2"/>
<path d="M31.5386 259.314C30.0437 244.117 34.4177 217.136 63.8734 230.791" stroke="black" stroke-width="2"/>
<path d="M46.8407 109.587C56.4175 112.773 74.2695 113.79 69.7204 92.667C69.6458 92.3207 69.5066 91.9812 69.3056 91.6896C64.0985 84.1354 49.6089 73.2113 30.5522 86.482C30.3021 86.6562 30.0752 86.8754 29.8911 87.1184L16.8053 104.39" stroke="black" stroke-width="2"/>
</svg>
