<svg width="414" height="385" viewBox="0 0 414 385" fill="none" xmlns="http://www.w3.org/2000/svg">
<path d="M414 0.5L0 298.5V384.5L414 104.5V0.5Z" fill="#3A3D3F"/>
<path d="M414 0L103 227.5V236.5L414 14V0Z" fill="#40464A"/>
<path d="M414 59.5L241.5 182.5V220.5L414 103.5V59.5Z" fill="#333638"/>
<path d="M211.5 145L75 246V293.5L211.5 200.5V145Z" fill="#333638"/>
<path d="M100 270L52 305.367V349.566L100 317V270Z" fill="#333638"/>
<path d="M286.5 122.5L134 235V273L286.5 168.5V122.5Z" fill="#40464A"/>
<path d="M414 383H2L414 103V383Z" fill="#333638"/>
<path d="M414 373L38 373L414 120.5V373Z" fill="#3A3D3F"/>
<path d="M414 368L55 368L414 131V368Z" fill="#333638"/>
<path d="M218.5 259.5H414V341H95.5L218.5 259.5Z" fill="#3A3D3F"/>
<path d="M372.5 158H414V202H306.5L372.5 158Z" fill="#3A3D3F"/>
</svg>
