<svg width="475" height="1255" viewBox="0 0 475 1255" fill="none" xmlns="http://www.w3.org/2000/svg">
<path d="M65.0895 195L474.089 105V339.256L65.0895 410.5V195Z" fill="#E7EFF0"/>
<path d="M56.8179 449.5L474.313 379.5V619.5L56.8179 679V449.5Z" fill="#E7EFF0"/>
<path d="M474.457 167V105L56.8179 195.5L474.457 167Z" fill="#AEB9BF"/>
<path d="M474.457 428.5V377L56.8179 450L474.457 428.5Z" fill="#AEB9BF"/>
<path d="M26.0895 163.429L65.0895 155V1255H26.0895V163.429Z" fill="#51595D"/>
<path d="M35.0895 161.5L475.089 67V105.5L35.0895 200L35.0895 161.5Z" fill="#D3DBE0"/>
<path d="M35.0895 162H65.0895V704H35.0895V162Z" fill="#D3DBE0"/>
<path d="M35.0895 720L474.313 658.5V1255H35.0895L35.0895 720Z" fill="#3C4145"/>
<rect x="146.857" y="262.992" width="35.0777" height="28.9029" transform="rotate(-5.63742 146.857 262.992)" fill="#0B2A0B" stroke="#D2DADF" stroke-width="3"/>
<path d="M121.032 371.315L167.668 270.072C174.024 256.272 192.84 254.32 201.894 266.521L268.713 356.566C277.975 369.047 270.084 386.86 254.617 388.387L141.162 399.586C125.784 401.104 114.567 385.351 121.032 371.315Z" fill="#0B2A0B" stroke="#D2DADF" stroke-width="3"/>
<rect x="146.544" y="264.618" width="38.0777" height="31.9029" transform="rotate(-5.63742 146.544 264.618)" fill="#0B2A0B"/>
<path d="M85.187 374.854L131.822 273.61C138.179 259.81 156.995 257.858 166.049 270.059L232.868 360.104C242.13 372.585 234.239 390.398 218.772 391.925L105.317 403.124C89.9385 404.642 78.7217 388.889 85.187 374.854Z" fill="#0B2A0B" stroke="#D2DADF" stroke-width="3"/>
<path d="M114.541 380.556L145.01 312.969C148.14 306.027 157.571 304.991 162.133 311.088L206.811 370.796C211.461 377.01 207.567 385.923 199.847 386.732L124.7 394.611C117.025 395.416 111.369 387.591 114.541 380.556Z" fill="#BF3C3D" stroke="#FFF9EC"/>
<circle cx="172.983" cy="370.075" r="9.7767" transform="rotate(-5.63742 172.983 370.075)" fill="#FFBC35"/>
<circle cx="187.321" cy="368.66" r="9.7767" transform="rotate(-5.63742 187.321 368.66)" fill="#FFBC35"/>
<rect x="155.77" y="337.131" width="13.3786" height="18.5243" rx="6.68932" transform="rotate(-5.63742 155.77 337.131)" fill="#D2D9DE"/>
<rect x="171.132" y="335.614" width="6.17476" height="18.5243" rx="3.08738" transform="rotate(-5.63742 171.132 335.614)" fill="#D2D9DE"/>
<rect x="146.553" y="338.04" width="7.20388" height="18.5243" rx="3.60194" transform="rotate(-5.63742 146.553 338.04)" fill="#D2D9DE"/>
<circle cx="158.645" cy="371.49" r="9.7767" transform="rotate(-5.63742 158.645 371.49)" fill="#FFBC35"/>
<path d="M124.536 381.979L133.322 360.619C134.607 357.494 138.517 357.087 140.413 359.88L153.454 379.085C155.384 381.928 153.783 385.93 150.589 386.246L128.763 388.4C125.587 388.714 123.235 385.14 124.536 381.979Z" fill="#FFF9EC"/>
<path d="M136.323 358.192L143.733 357.46L137.011 386.221L125.69 387.338L136.323 358.192Z" fill="#FFF9EC"/>
<path d="M130.288 381.298L139.074 359.938C140.36 356.813 144.269 356.405 146.166 359.199L159.206 378.404C161.136 381.246 159.535 385.249 156.341 385.564L134.515 387.719C131.34 388.032 128.988 384.459 130.288 381.298Z" fill="#FFF9EC"/>
<path d="M139.362 375.296C139.239 374.052 140.061 372.952 141.198 372.84L149.02 372.068C150.156 371.955 151.178 372.873 151.3 374.118L152.479 386.059L140.541 387.238L139.362 375.296Z" fill="#0B2A0B"/>
<g filter="url(#filter0_f_813_19)">
<ellipse cx="308.485" cy="309" rx="158.485" ry="159" fill="#323537" fill-opacity="0.2"/>
</g>
<rect x="268.619" y="242.905" width="35.0777" height="28.9029" transform="rotate(-2.64485 268.619 242.905)" fill="#0B2A0B" stroke="#D2DADF" stroke-width="3"/>
<path d="M237.175 349.732L289.032 251.062C296.1 237.613 314.992 236.646 323.397 249.303L385.424 342.712C394.022 355.66 385.212 373.038 369.686 373.755L255.802 379.016C240.365 379.729 229.985 363.412 237.175 349.732Z" fill="#0B2A0B" stroke="#D2DADF" stroke-width="3"/>
<rect x="268.222" y="244.513" width="38.0777" height="31.9029" transform="rotate(-2.64485 268.222 244.513)" fill="#0B2A0B"/>
<path d="M201.194 351.395L253.051 252.724C260.119 239.275 279.011 238.308 287.416 250.965L349.443 344.375C358.041 357.322 349.231 374.7 333.705 375.417L219.82 380.678C204.384 381.391 194.004 365.074 201.194 351.395Z" fill="#0B2A0B" stroke="#D2DADF" stroke-width="3"/>
<path d="M230.21 358.621L264.166 292.717C267.653 285.948 277.126 285.406 281.364 291.733L322.864 353.692C327.183 360.14 322.829 368.838 315.077 369.243L239.621 373.188C231.914 373.591 226.675 365.482 230.21 358.621Z" fill="#BF3C3D" stroke="#FFF9EC"/>
<circle cx="289.119" cy="351.206" r="9.7767" transform="rotate(-2.64485 289.119 351.206)" fill="#FFBC35"/>
<circle cx="303.512" cy="350.541" r="9.7767" transform="rotate(-2.64485 303.512 350.541)" fill="#FFBC35"/>
<rect x="273.65" y="317.408" width="13.3786" height="18.5243" rx="6.68932" transform="rotate(-2.64485 273.65 317.408)" fill="#D2D9DE"/>
<rect x="289.07" y="316.696" width="6.17476" height="18.5243" rx="3.08738" transform="rotate(-2.64485 289.07 316.696)" fill="#D2D9DE"/>
<rect x="264.398" y="317.835" width="7.20388" height="18.5243" rx="3.60194" transform="rotate(-2.64485 264.398 317.835)" fill="#D2D9DE"/>
<circle cx="274.727" cy="351.871" r="9.7767" transform="rotate(-2.64485 274.727 351.871)" fill="#FFBC35"/>
<path d="M240.117 360.564L250.006 339.692C251.453 336.639 255.378 336.436 257.127 339.325L269.147 359.184C270.926 362.124 269.117 366.038 265.912 366.186L244.003 367.198C240.815 367.345 238.653 363.654 240.117 360.564Z" fill="#FFF9EC"/>
<path d="M253.129 337.426L260.567 337.082L252.354 365.453L240.99 365.977L253.129 337.426Z" fill="#FFF9EC"/>
<path d="M245.897 360.184L255.786 339.313C257.233 336.259 261.158 336.056 262.907 338.945L274.927 358.804C276.706 361.744 274.897 365.658 271.692 365.806L249.783 366.818C246.595 366.965 244.433 363.274 245.897 360.184Z" fill="#FFF9EC"/>
<path d="M255.272 354.665C255.214 353.416 256.092 352.361 257.233 352.308L265.085 351.946C266.226 351.893 267.198 352.863 267.255 354.112L267.809 366.099L255.825 366.652L255.272 354.665Z" fill="#0B2A0B"/>
<rect x="405.493" y="221.293" width="35.0777" height="28.9029" transform="rotate(-2.64485 405.493 221.293)" fill="#0B2A0B" stroke="#D2DADF" stroke-width="3"/>
<path d="M374.049 328.121L425.906 229.45C432.974 216.001 451.866 215.034 460.271 227.691L522.298 321.101C530.896 334.048 522.086 351.426 506.56 352.143L392.675 357.404C377.238 358.117 366.859 341.8 374.049 328.121Z" fill="#0B2A0B" stroke="#D2DADF" stroke-width="3"/>
<rect x="405.096" y="222.901" width="38.0777" height="31.9029" transform="rotate(-2.64485 405.096 222.901)" fill="#0B2A0B"/>
<path d="M338.067 329.783L389.925 231.112C396.993 217.663 415.885 216.696 424.29 229.353L486.317 322.763C494.915 335.711 486.104 353.088 470.579 353.806L356.694 359.066C341.257 359.779 330.878 343.462 338.067 329.783Z" fill="#0B2A0B" stroke="#D2DADF" stroke-width="3"/>
<path d="M367.084 337.01L401.039 271.106C404.527 264.337 414 263.794 418.237 270.121L459.738 332.08C464.057 338.529 459.702 347.226 451.951 347.632L376.495 351.576C368.788 351.979 363.549 343.87 367.084 337.01Z" fill="#BF3C3D" stroke="#FFF9EC"/>
<circle cx="425.993" cy="329.594" r="9.7767" transform="rotate(-2.64485 425.993 329.594)" fill="#FFBC35"/>
<circle cx="440.386" cy="328.929" r="9.7767" transform="rotate(-2.64485 440.386 328.929)" fill="#FFBC35"/>
<rect x="410.524" y="295.796" width="13.3786" height="18.5243" rx="6.68932" transform="rotate(-2.64485 410.524 295.796)" fill="#D2D9DE"/>
<rect x="425.944" y="295.084" width="6.17476" height="18.5243" rx="3.08738" transform="rotate(-2.64485 425.944 295.084)" fill="#D2D9DE"/>
<rect x="401.272" y="296.224" width="7.20388" height="18.5243" rx="3.60194" transform="rotate(-2.64485 401.272 296.224)" fill="#D2D9DE"/>
<circle cx="411.601" cy="330.259" r="9.7767" transform="rotate(-2.64485 411.601 330.259)" fill="#FFBC35"/>
<path d="M376.991 338.953L386.88 318.081C388.327 315.028 392.252 314.825 394 317.713L406.02 337.573C407.8 340.513 405.991 344.426 402.786 344.574L380.876 345.586C377.689 345.734 375.527 342.043 376.991 338.953Z" fill="#FFF9EC"/>
<path d="M390.003 315.814L397.441 315.47L389.227 343.841L377.864 344.366L390.003 315.814Z" fill="#FFF9EC"/>
<path d="M382.771 338.573L392.66 317.701C394.107 314.648 398.032 314.445 399.78 317.334L411.8 337.193C413.579 340.133 411.771 344.046 408.565 344.194L386.656 345.206C383.469 345.354 381.307 341.663 382.771 338.573Z" fill="#FFF9EC"/>
<path d="M392.146 333.054C392.088 331.805 392.966 330.749 394.107 330.697L401.959 330.334C403.1 330.281 404.072 331.251 404.129 332.5L404.683 344.487L392.699 345.04L392.146 333.054Z" fill="#0B2A0B"/>
<rect x="162.125" y="542.173" width="36.2751" height="29.9061" transform="rotate(-4.14919 162.125 542.173)" fill="#0B2A0B" stroke="#D2DADF" stroke-width="3"/>
<path d="M132.161 654.201L183.913 549.122C190.626 535.492 209.486 534.029 218.22 546.461L285.953 642.872C294.888 655.59 286.537 673.193 271.035 674.317L151.55 682.985C136.137 684.103 125.334 668.064 132.161 654.201Z" fill="#0B2A0B" stroke="#D2DADF" stroke-width="3"/>
<rect x="161.81" y="543.885" width="39.2751" height="32.9061" transform="rotate(-4.14919 161.81 543.885)" fill="#0B2A0B"/>
<path d="M95.1065 656.889L146.858 551.81C153.571 538.18 172.431 536.717 181.165 549.149L248.898 645.56C257.833 658.278 249.482 675.881 233.98 677.005L114.496 685.673C99.0827 686.791 88.2788 670.752 95.1065 656.889Z" fill="#0B2A0B" stroke="#D2DADF" stroke-width="3"/>
<path d="M125.467 663.063L159.164 593.217C162.473 586.359 171.928 585.568 176.33 591.781L221.427 655.43C225.914 661.763 221.789 670.572 214.051 671.18L135.258 677.377C127.564 677.982 122.114 670.014 125.467 663.063Z" fill="#397B41" stroke="#FFF9EC"/>
<circle cx="186.246" cy="653.329" r="10.0841" transform="rotate(-4.14919 186.246 653.329)" fill="#FFBC35"/>
<circle cx="201.068" cy="652.253" r="10.0841" transform="rotate(-4.14919 201.068 652.253)" fill="#FFBC35"/>
<rect x="169.38" y="618.899" width="13.7994" height="19.1068" rx="6.89968" transform="rotate(-4.14919 169.38 618.899)" fill="#D2D9DE"/>
<rect x="185.261" y="617.747" width="6.36893" height="19.1068" rx="3.18447" transform="rotate(-4.14919 185.261 617.747)" fill="#D2D9DE"/>
<rect x="159.852" y="619.59" width="7.43042" height="19.1068" rx="3.71521" transform="rotate(-4.14919 159.852 619.59)" fill="#D2D9DE"/>
<circle cx="171.424" cy="654.404" r="10.0841" transform="rotate(-4.14919 171.424 654.404)" fill="#FFBC35"/>
<path d="M135.973 664.305L145.605 642.517C147.014 639.329 151.056 639.014 152.937 641.945L165.868 662.096C167.782 665.079 166.024 669.163 162.722 669.403L140.159 671.04C136.877 671.278 134.548 667.53 135.973 664.305Z" fill="#FFF9EC"/>
<path d="M148.764 640.094L156.424 639.539L148.722 669.014L137.02 669.863L148.764 640.094Z" fill="#FFF9EC"/>
<path d="M141.923 663.757L151.554 641.968C152.963 638.781 157.005 638.465 158.886 641.396L171.817 661.548C173.732 664.531 171.973 668.615 168.672 668.854L146.109 670.491C142.826 670.729 140.497 666.982 141.923 663.757Z" fill="#FFF9EC"/>
<path d="M151.439 657.812C151.346 656.526 152.223 655.414 153.398 655.329L161.484 654.742C162.659 654.657 163.687 655.63 163.781 656.917L164.676 669.261L152.335 670.157L151.439 657.812Z" fill="#0B2A0B"/>
<rect x="267.906" y="515.737" width="36.2751" height="29.9061" transform="rotate(-1.72702 267.906 515.737)" fill="#0B2A0B" stroke="#D2DADF" stroke-width="3"/>
<path d="M233.234 626.399L289.38 523.601C296.663 510.267 315.568 509.603 323.769 522.393L387.367 621.58C395.757 634.664 386.669 651.898 371.134 652.367L251.389 655.977C235.943 656.443 225.827 639.962 233.234 626.399Z" fill="#0B2A0B" stroke="#D2DADF" stroke-width="3"/>
<rect x="267.518" y="517.435" width="39.2751" height="32.9061" transform="rotate(-1.72702 267.518 517.435)" fill="#0B2A0B"/>
<path d="M196.099 627.519L252.245 524.721C259.528 511.387 278.433 510.722 286.634 523.512L350.232 622.7C358.621 635.784 349.534 653.018 333.999 653.486L214.254 657.097C198.808 657.562 188.691 641.081 196.099 627.519Z" fill="#0B2A0B" stroke="#D2DADF" stroke-width="3"/>
<path d="M226.172 634.971L262.79 566.612C266.386 559.899 275.866 559.508 280.001 565.902L322.368 631.4C326.583 637.917 322.09 646.544 314.333 646.825L235.349 649.686C227.636 649.965 222.528 641.774 226.172 634.971Z" fill="#4A69D0" stroke="#FFF9EC"/>
<circle cx="287.307" cy="627.814" r="10.0841" transform="rotate(-1.72702 287.307 627.814)" fill="#FFBC35"/>
<circle cx="302.161" cy="627.366" r="10.0841" transform="rotate(-1.72702 302.161 627.366)" fill="#FFBC35"/>
<rect x="271.912" y="592.702" width="13.7994" height="19.1068" rx="6.89968" transform="rotate(-1.72702 271.912 592.702)" fill="#D2D9DE"/>
<rect x="287.827" y="592.222" width="6.36893" height="19.1068" rx="3.18447" transform="rotate(-1.72702 287.827 592.222)" fill="#D2D9DE"/>
<rect x="262.363" y="592.99" width="7.43042" height="19.1068" rx="3.71521" transform="rotate(-1.72702 262.363 592.99)" fill="#D2D9DE"/>
<circle cx="272.453" cy="628.261" r="10.0841" transform="rotate(-1.72702 272.453 628.261)" fill="#FFBC35"/>
<path d="M236.616 636.656L247.159 615.294C248.702 612.168 252.753 612.024 254.509 615.032L266.577 635.712C268.363 638.773 266.434 642.78 263.125 642.879L240.513 643.561C237.224 643.66 235.055 639.818 236.616 636.656Z" fill="#FFF9EC"/>
<path d="M250.418 613.007L258.094 612.775L249.154 641.899L237.426 642.252L250.418 613.007Z" fill="#FFF9EC"/>
<path d="M242.583 636.359L253.126 614.997C254.669 611.872 258.72 611.727 260.476 614.735L272.544 635.415C274.33 638.476 272.401 642.483 269.092 642.583L246.48 643.264C243.191 643.363 241.022 639.521 242.583 636.359Z" fill="#FFF9EC"/>
<path d="M252.342 630.822C252.303 629.533 253.227 628.459 254.404 628.424L262.507 628.18C263.685 628.144 264.671 629.16 264.71 630.45L265.083 642.821L252.715 643.194L252.342 630.822Z" fill="#0B2A0B"/>
<g filter="url(#filter1_f_813_19)">
<ellipse cx="353.981" cy="619" rx="163.5" ry="164" fill="#323537" fill-opacity="0.2"/>
</g>
<rect x="371.976" y="494.263" width="36.2751" height="29.9061" transform="rotate(-6.20815 371.976 494.263)" fill="#0B2A0B" stroke="#D2DADF" stroke-width="3"/>
<path d="M346.056 607.295L393.999 500.424C400.218 486.562 419.013 484.422 428.188 496.532L499.342 590.448C508.727 602.836 501.014 620.728 485.563 622.408L366.467 635.364C351.104 637.035 339.731 621.394 346.056 607.295Z" fill="#0B2A0B" stroke="#D2DADF" stroke-width="3"/>
<rect x="371.722" y="495.985" width="39.2751" height="32.9061" transform="rotate(-6.20815 371.722 495.985)" fill="#0B2A0B"/>
<path d="M309.122 611.313L357.065 504.442C363.283 490.58 382.079 488.44 391.254 500.55L462.407 594.466C471.793 606.854 464.08 624.746 448.629 626.427L329.532 639.382C314.17 641.053 302.797 625.412 309.122 611.313Z" fill="#0B2A0B" stroke="#D2DADF" stroke-width="3"/>
<path d="M339.685 616.392L370.85 545.381C373.911 538.408 383.331 537.278 387.954 543.329L435.308 605.316C440.02 611.484 436.214 620.435 428.503 621.321L349.983 630.345C342.316 631.226 336.583 623.459 339.685 616.392Z" fill="#4A69D0" stroke="#FFF9EC"/>
<circle cx="400.074" cy="604.48" r="10.0841" transform="rotate(-6.20815 400.074 604.48)" fill="#FFBC35"/>
<circle cx="414.848" cy="602.873" r="10.0841" transform="rotate(-6.20815 414.848 602.873)" fill="#FFBC35"/>
<rect x="381.983" y="570.679" width="13.7994" height="19.1068" rx="6.89968" transform="rotate(-6.20815 381.983 570.679)" fill="#D2D9DE"/>
<rect x="397.812" y="568.957" width="6.36893" height="19.1068" rx="3.18447" transform="rotate(-6.20815 397.812 568.957)" fill="#D2D9DE"/>
<rect x="372.485" y="571.712" width="7.43042" height="19.1068" rx="3.71521" transform="rotate(-6.20815 372.485 571.712)" fill="#D2D9DE"/>
<circle cx="385.3" cy="606.087" r="10.0841" transform="rotate(-6.20815 385.3 606.087)" fill="#FFBC35"/>
<path d="M350.229 617.256L359.071 595.136C360.364 591.899 364.392 591.439 366.377 594.301L380.025 613.975C382.045 616.887 380.434 621.032 377.143 621.39L354.654 623.836C351.382 624.192 348.92 620.531 350.229 617.256Z" fill="#FFF9EC"/>
<path d="M362.141 592.601L369.776 591.77L363.139 621.503L351.474 622.772L362.141 592.601Z" fill="#FFF9EC"/>
<path d="M356.154 616.495L364.997 594.374C366.29 591.138 370.318 590.677 372.303 593.539L385.951 613.213C387.971 616.125 386.36 620.27 383.069 620.628L360.58 623.074C357.308 623.43 354.846 619.769 356.154 616.495Z" fill="#FFF9EC"/>
<path d="M365.451 610.212C365.312 608.93 366.148 607.787 367.32 607.659L375.379 606.783C376.55 606.655 377.613 607.591 377.752 608.874L379.091 621.178L366.79 622.516L365.451 610.212Z" fill="#0B2A0B"/>
<mask id="mask0_813_19" style="mask-type:alpha" maskUnits="userSpaceOnUse" x="65" y="105" width="410" height="573">
<path d="M65.0895 193L474.089 105.5V619.5L65.0895 677.5V193Z" fill="#E0DFDF"/>
</mask>
<g mask="url(#mask0_813_19)">
<path d="M65.0895 193L474.089 105.5V619.5L65.0895 677.5V193Z" fill="#E0DEDE" fill-opacity="0.1"/>
<rect x="54.8408" y="86.6372" width="780.539" height="223.709" transform="rotate(36.4013 54.8408 86.6372)" fill="#EDEDEC" fill-opacity="0.1"/>
<rect x="256.056" y="-2" width="455.1" height="106.104" transform="rotate(36.4013 256.056 -2)" fill="#EDEDEC" fill-opacity="0.1"/>
<rect x="24.9595" y="513.964" width="287.131" height="106.104" transform="rotate(36.4013 24.9595 513.964)" fill="#EDEDEC" fill-opacity="0.1"/>
</g>
<path d="M35.0895 720L474.313 658V809.5L35.0895 871.5L35.0895 720Z" fill="#D3DBE0"/>
<path d="M35.0895 681.5L474.313 619.5V658L35.0895 720L35.0895 681.5Z" fill="#D3DBE0"/>
<path d="M35.0895 415.5L475.089 339V377.5L35.0895 454L35.0895 415.5Z" fill="#D3DBE0"/>
<defs>
<filter id="filter0_f_813_19" x="0" y="0" width="616.971" height="618" filterUnits="userSpaceOnUse" color-interpolation-filters="sRGB">
<feFlood flood-opacity="0" result="BackgroundImageFix"/>
<feBlend mode="normal" in="SourceGraphic" in2="BackgroundImageFix" result="shape"/>
<feGaussianBlur stdDeviation="75" result="effect1_foregroundBlur_813_19"/>
</filter>
<filter id="filter1_f_813_19" x="40.4807" y="305" width="627" height="628" filterUnits="userSpaceOnUse" color-interpolation-filters="sRGB">
<feFlood flood-opacity="0" result="BackgroundImageFix"/>
<feBlend mode="normal" in="SourceGraphic" in2="BackgroundImageFix" result="shape"/>
<feGaussianBlur stdDeviation="75" result="effect1_foregroundBlur_813_19"/>
</filter>
</defs>
</svg>
