<svg width="173" height="222" viewBox="0 0 173 222" fill="none" xmlns="http://www.w3.org/2000/svg">
<rect x="12.8691" y="34.7217" width="78.8848" height="195.751" transform="rotate(-21.9812 12.8691 34.7217)" fill="#B3A4A4"/>
<rect x="2.18713" y="45.3344" width="106.641" height="183.334" rx="25" transform="rotate(-21.9812 2.18713 45.3344)" fill="#DF3334"/>
<path d="M114.901 45.5233L28.3839 104.381L56.9846 175.237L143.501 116.379L114.901 45.5233Z" fill="#FF6B6C" stroke="#FF6B6C" stroke-width="7"/>
<rect opacity="0.22" x="14.9751" y="57.5014" width="47.477" height="151.926" rx="23.7385" transform="rotate(-21.9812 14.9751 57.5014)" fill="white"/>
<path opacity="0.32" d="M79.4771 14.1368C91.4057 9.32217 104.979 15.0888 109.794 27.0174L160.98 153.827C165.795 165.755 160.028 179.328 148.1 184.144C145.955 185.009 143.757 185.531 141.566 185.738C149.416 179.482 152.586 168.593 148.637 158.809L97.4512 31.9995C93.5018 22.2154 83.6605 16.5778 73.6671 17.5235C75.3876 16.1522 77.3326 15.0024 79.4771 14.1368Z" fill="#E61F20"/>
</svg>
