<svg width="1039" height="2558" viewBox="0 0 1039 2558" fill="none" xmlns="http://www.w3.org/2000/svg">
<path d="M0 0H1039V2558H0V0Z" fill="#FFF9EC"/>
<rect x="71" y="89" width="897" height="1753" rx="19" fill="url(#paint0_radial_257_4)"/>
<path d="M759 833.5V2401H1039V0H922V233C921.667 304.667 904.4 473.2 838 574C771.6 674.8 757.667 789 759 833.5Z" fill="#FFF9EC"/>
<g filter="url(#filter0_d_257_4)">
<path d="M805 1001.92C805 992.024 812.316 984 821.341 984H993.659C1002.68 984 1010 992.024 1010 1001.92V1199.08C1010 1208.98 1002.68 1217 993.659 1217H821.341C812.316 1217 805 1208.98 805 1199.08V1001.92Z" fill="#40464A"/>
<path d="M865.163 1019.85C865.163 1031.09 856.184 1040.21 845.109 1040.21C834.033 1040.21 825.054 1031.09 825.054 1019.85C825.054 1008.6 834.033 999.479 845.109 999.479C856.184 999.479 865.163 1008.6 865.163 1019.85Z" fill="#D9D9D9"/>
<path d="M927.554 1019.85C927.554 1031.09 918.576 1040.21 907.5 1040.21C896.424 1040.21 887.446 1031.09 887.446 1019.85C887.446 1008.6 896.424 999.479 907.5 999.479C918.576 999.479 927.554 1008.6 927.554 1019.85Z" fill="#D9D9D9"/>
<path d="M989.946 1019.85C989.946 1031.09 980.967 1040.21 969.891 1040.21C958.816 1040.21 949.837 1031.09 949.837 1019.85C949.837 1008.6 958.816 999.479 969.891 999.479C980.967 999.479 989.946 1008.6 989.946 1019.85Z" fill="#D9D9D9"/>
<path d="M865.163 1073.62C865.163 1084.86 856.184 1093.98 845.109 1093.98C834.033 1093.98 825.054 1084.86 825.054 1073.62C825.054 1062.37 834.033 1053.25 845.109 1053.25C856.184 1053.25 865.163 1062.37 865.163 1073.62Z" fill="#D9D9D9"/>
<path d="M927.554 1073.62C927.554 1084.86 918.576 1093.98 907.5 1093.98C896.424 1093.98 887.446 1084.86 887.446 1073.62C887.446 1062.37 896.424 1053.25 907.5 1053.25C918.576 1053.25 927.554 1062.37 927.554 1073.62Z" fill="#D9D9D9"/>
<path d="M989.946 1073.62C989.946 1084.86 980.967 1093.98 969.891 1093.98C958.816 1093.98 949.837 1084.86 949.837 1073.62C949.837 1062.37 958.816 1053.25 969.891 1053.25C980.967 1053.25 989.946 1062.37 989.946 1073.62Z" fill="#D9D9D9"/>
<path d="M865.163 1127.38C865.163 1138.63 856.184 1147.75 845.109 1147.75C834.033 1147.75 825.054 1138.63 825.054 1127.38C825.054 1116.14 834.033 1107.02 845.109 1107.02C856.184 1107.02 865.163 1116.14 865.163 1127.38Z" fill="#D9D9D9"/>
<path d="M927.554 1127.38C927.554 1138.63 918.576 1147.75 907.5 1147.75C896.424 1147.75 887.446 1138.63 887.446 1127.38C887.446 1116.14 896.424 1107.02 907.5 1107.02C918.576 1107.02 927.554 1116.14 927.554 1127.38Z" fill="#D9D9D9"/>
<path d="M989.946 1127.38C989.946 1138.63 980.967 1147.75 969.891 1147.75C958.816 1147.75 949.837 1138.63 949.837 1127.38C949.837 1116.14 958.816 1107.02 969.891 1107.02C980.967 1107.02 989.946 1116.14 989.946 1127.38Z" fill="#D9D9D9"/>
<path d="M865.163 1181.15C865.163 1192.4 856.184 1201.52 845.109 1201.52C834.033 1201.52 825.054 1192.4 825.054 1181.15C825.054 1169.91 834.033 1160.79 845.109 1160.79C856.184 1160.79 865.163 1169.91 865.163 1181.15Z" fill="#D9D9D9"/>
<path d="M927.554 1181.15C927.554 1192.4 918.576 1201.52 907.5 1201.52C896.424 1201.52 887.446 1192.4 887.446 1181.15C887.446 1169.91 896.424 1160.79 907.5 1160.79C918.576 1160.79 927.554 1169.91 927.554 1181.15Z" fill="#D9D9D9"/>
<path d="M989.946 1181.15C989.946 1192.4 980.967 1201.52 969.891 1201.52C958.816 1201.52 949.837 1192.4 949.837 1181.15C949.837 1169.91 958.816 1160.79 969.891 1160.79C980.967 1160.79 989.946 1169.91 989.946 1181.15Z" fill="#D9D9D9"/>
</g>
<defs>
<filter id="filter0_d_257_4" x="801" y="980" width="221" height="249" filterUnits="userSpaceOnUse" color-interpolation-filters="sRGB">
<feFlood flood-opacity="0" result="BackgroundImageFix"/>
<feColorMatrix in="SourceAlpha" type="matrix" values="0 0 0 0 0 0 0 0 0 0 0 0 0 0 0 0 0 0 127 0" result="hardAlpha"/>
<feOffset dx="4" dy="4"/>
<feGaussianBlur stdDeviation="4"/>
<feComposite in2="hardAlpha" operator="out"/>
<feColorMatrix type="matrix" values="0 0 0 0 0 0 0 0 0 0 0 0 0 0 0 0 0 0 0.25 0"/>
<feBlend mode="normal" in2="BackgroundImageFix" result="effect1_dropShadow_257_4"/>
<feBlend mode="normal" in="SourceGraphic" in2="effect1_dropShadow_257_4" result="shape"/>
</filter>
<radialGradient id="paint0_radial_257_4" cx="0" cy="0" r="1" gradientTransform="matrix(-23 1380.34 -706.425 1.42798 416.5 990.053)" gradientUnits="userSpaceOnUse">
<stop stop-color="#FFF8C8"/>
<stop offset="1" stop-color="#52C6F1"/>
</radialGradient>
</defs>
</svg>
