<svg xmlns="http://www.w3.org/2000/svg" width="169" height="193" fill="none" viewBox="0 0 169 193">
  <mask id="a" width="141" height="170" x="14" y="11" maskUnits="userSpaceOnUse" style="mask-type:alpha">
    <path fill="#37828F" d="M14.358 11.238h140.535v169.47H14.358z"/>
  </mask>
  <g mask="url(#a)">
    <path fill="#285C68" d="M14.358 11.238h140.535v169.47H14.358z"/>
    <path fill="#37828F" d="M19.165 15.971h130.963v159.711H19.165z"/>
    <path fill="#285C68" d="M-31.963 43.998 16.691-10.57l189.741 169.178-48.654 54.568z"/>
  </g>
  <path fill="#FAF5E9" d="m57.925 39.074-2.71 9.638H43.022l-1.355 12.85-12.871 1.928 4.065 10.924-9.485 5.782 6.097 8.353-7.452 8.996 9.485 6.426-6.098 10.28 10.162 3.855-2.032 9.639 12.872 1.285 1.355 10.28 13.549-3.855 4.742 8.996 9.484-4.498 7.452 7.71 8.13-8.353 10.162 7.711 4.064-9.638 10.162 1.927 2.033-11.565h10.161v-12.209l9.485-5.14-4.742-8.353 10.161-7.71-9.484-8.996 6.097-10.28-11.517-6.426 3.388-9.638-13.549-3.213-1.355-9.638-12.872 2.57-5.42-12.85-11.516 7.067-9.485-7.068-6.774 7.068-12.195-3.855Z"/>
  <path fill="#FF8345" stroke="#E16628" stroke-width="2" d="M66.498 112.932c0-16.766 25.347-18.676 25.914 0 .567 18.676-25.915 17.856-25.914 0Z"/>
  <path fill="#FFF6F6" stroke="#E16628" stroke-width="3" d="M74.862 113.569c0-7.216 9.591-7.216 9.591 0 0 6.579-9.59 6.367-9.59 0Z"/>
  <path fill="#FF8345" stroke="#E16628" stroke-width="2" d="m98.605 124.933-4.86-22.741a2 2 0 0 1 1.956-2.418h3.723a2 2 0 0 1 1.94 1.512l1.591 6.317c.537 2.133 3.621 1.963 3.921-.216l.808-5.885a2 2 0 0 1 1.982-1.728h3.954a2 2 0 0 1 1.963 1.618l1.35 6.936c.412 2.122 3.43 2.171 3.912.065l1.618-7.065a2 2 0 0 1 1.949-1.554h4.001a2 2 0 0 1 1.973 2.331l-3.818 22.741a2.001 2.001 0 0 1-1.973 1.669h-7.74a2 2 0 0 1-1.947-1.546l-.755-3.237c-.491-2.106-3.51-2.042-3.913.082l-.582 3.073a2 2 0 0 1-1.965 1.628h-7.133a2 2 0 0 1-1.956-1.582Z"/>
  <path fill="#FF8345" d="M122.148 65.393h-3.032c-1.534 0-2.497 1.657-1.738 2.99l7.219 12.68c.172.301.262.642.262.99v8.081a2 2 0 0 0 2 2h2.326a2 2 0 0 0 2-2v-8.092a2 2 0 0 1 .253-.973l7.071-12.703c.742-1.333-.222-2.973-1.747-2.973h-2.758a2 2 0 0 0-1.755 1.041l-2.622 4.8c-.789 1.444-2.887 1.37-3.573-.125l-2.088-4.55a2 2 0 0 0-1.818-1.166Zm-80.14 36.381v22.741a2 2 0 0 0 2 2h2.095a2 2 0 0 0 2-2.027l-.084-6.255c-.027-2.012 2.598-2.8 3.684-1.106l5.428 8.467a2 2 0 0 0 1.684.921h2.824a2 2 0 0 0 2-2v-22.741a2 2 0 0 0-2-2h-2.53a2 2 0 0 0-2 2v6.333c0 2.023-2.662 2.767-3.71 1.036l-5.094-8.405a2 2 0 0 0-1.71-.964h-2.587a2 2 0 0 0-2 2Z"/>
  <path stroke="#E16628" stroke-width="2" d="M122.148 65.393h-3.032c-1.534 0-2.497 1.657-1.738 2.99l7.219 12.68c.172.301.262.642.262.99v8.081a2 2 0 0 0 2 2h2.326a2 2 0 0 0 2-2v-8.092a2 2 0 0 1 .253-.973l7.071-12.703c.742-1.333-.222-2.973-1.747-2.973h-2.758a2 2 0 0 0-1.755 1.041l-2.622 4.8c-.789 1.444-2.887 1.37-3.573-.125l-2.088-4.55a2 2 0 0 0-1.818-1.166Zm-80.14 36.381v22.741a2 2 0 0 0 2 2h2.095a2 2 0 0 0 2-2.027l-.084-6.255c-.027-2.012 2.598-2.8 3.684-1.106l5.428 8.467a2 2 0 0 0 1.684.921h2.824a2 2 0 0 0 2-2v-22.741a2 2 0 0 0-2-2h-2.53a2 2 0 0 0-2 2v6.333c0 2.023-2.662 2.767-3.71 1.036l-5.094-8.405a2 2 0 0 0-1.71-.964h-2.587a2 2 0 0 0-2 2Z"/>
  <path fill="#FF8345" stroke="#E16628" stroke-width="2" d="M106.125 65.393h-1.933a2 2 0 0 0-2 1.985l-.173 22.528a2 2 0 0 0 2 2.016h12.106a2 2 0 0 0 2-2v-1.73a2 2 0 0 0-2-2h-6a2 2 0 0 1-2-2V67.393a2 2 0 0 0-2-2ZM29.988 89.311l7.289-22.74a2 2 0 0 1 1.904-1.39h5.642a2 2 0 0 1 1.909 1.403l7.115 22.74a2 2 0 0 1-1.909 2.598h-2.572a2 2 0 0 1-1.897-1.366l-.72-2.15a2 2 0 0 0-1.896-1.366h-5.69a2 2 0 0 0-1.897 1.366l-.72 2.15a2 2 0 0 1-1.896 1.366h-2.757a2 2 0 0 1-1.905-2.61Z"/>
  <path fill="#FFF6F6" stroke="#E16628" stroke-width="2" d="M41.546 73.326c.344-.816 1.5-.816 1.843 0l1.983 4.71a1 1 0 0 1-.921 1.388h-3.966a1 1 0 0 1-.922-1.389l1.983-4.71Z"/>
  <path fill="#FF8345" stroke="#E16628" stroke-width="2" d="M61.639 92.133H59.72a2 2 0 0 1-2-2v-22.74a2 2 0 0 1 2-2h3.918c19.967 0 14.062 19.352 2.595 19.068-1.32-.033-2.595.914-2.595 2.235v3.438a2 2 0 0 1-2 2Z"/>
  <path fill="#FFF6F6" stroke="#E16628" stroke-width="2" d="M64.455 75.6v-2.052c0-1.105.905-2.017 1.985-1.785 1.629.35 3.32 1.186 3.32 2.921 0 1.777-1.773 2.494-3.436 2.72-1.044.141-1.869-.75-1.869-1.805Z"/>
  <path fill="#FF8345" stroke="#E16628" stroke-width="2" d="M84.086 92.134h-1.918a2 2 0 0 1-2-2V67.393a2 2 0 0 1 2-2h3.918c19.968 0 14.062 19.352 2.596 19.068-1.321-.032-2.596.914-2.596 2.236v3.437a2 2 0 0 1-2 2Z"/>
  <path fill="#FFF6F6" stroke="#E16628" stroke-width="2" d="M86.903 75.6v-2.052c0-1.105.904-2.017 1.984-1.784 1.629.35 3.321 1.185 3.321 2.92 0 1.777-1.774 2.494-3.437 2.72-1.044.141-1.868-.75-1.868-1.804Z"/>
  <path fill="#A3A688" fill-opacity=".5" d="M41.896 181.338 7.784 156.435 0 167.815l34.112 24.904zM4.786 24.904 38.898.001l7.784 11.38L12.57 36.285zm161.981 0L132.655.001l-7.784 11.38 34.112 24.904zm-40.155 156.434 34.112-24.903 7.784 11.38-34.112 24.904z"/>
</svg>
