<svg xmlns="http://www.w3.org/2000/svg" width="125" height="345" fill="none" viewBox="0 0 125 345">
  <path fill="#60612C" d="M295.577 6.673 308.595 0v314.722L57.237 324.731H41.214l-11.016-3.336-8.011-6.673v-11.121l3.004-6.672 5.007-3.336h6.009l5.007 3.336v-5.561l-5.007-5.56-4.006-10.009-2.003-6.673v-6.672l6.009-8.897 5.007-3.336 5.007-3.336 5.007-2.225h6.009l7.01 2.225h3.004l-5.007-5.561-2.003-11.121-3.004-6.672 3.004-11.121v-5.561l4.006-10.009 9.013-8.896 7.01-4.449h12.017l-3.005-7.784v-10.009l3.005-4.449 7.01-8.896 6.008-4.449 7.645-3.336h10.381l5.007-5.56v-3.875l4.782-9.47 8.237-7.675v21.02l2.003-6.673 2.002-6.672 2.003-4.449 5.007-7.784h10.015l3.004-6.673 6.009-5.561h7.01l5.007-4.448 2.003-4.448h6.008l6.009-6.673 9.013-3.336 5.007 3.336 3.004-3.336h6.009l7.01 3.336 2.003-3.336-4.006-4.448-3.004-5.56v-5.561l3.004-2.225V48.932l4.006-6.672 2.002-7.785 5.008-2.224 4.005-6.673h21.03l8.012 3.336 6.008 3.337 5.007 2.224 3.005-8.897 4.005-7.784 3.005-4.449 5.007-6.672Z"/>
  <path fill="#354E38" d="m198.611 130.283 2.499-5.087 2.5-3.053 4.999 3.053 5 5.087 4.999-3.052 9.998-2.035 2.5-6.105h8.749l8.749-5.087v-7.105l4.525 6.051 5.473-.963 8.646 2.017 12.101-1.054-20.747 6.141-9.998 3.052-6.249 5.088 2.499 3.052 13.748 10.175 2.5 10.175 7.499 2.035 9.999-2.035 6.249-10.175 2.499 3.053 6.249 5.087 6.25 4.07 7.499-5.087v5.087l1.249 23.402 6.051 141.431-43.545 8.14-12.499 7.122h-21.247l-123.397-9.04h-11.093l-12.998 1.026-13.74.892H57.38l-16.032-1.918-14.119-2.017-14.119-2.017L0 315.655l5.042-7.06 8.068-4.322 8.068-2.035 8.706 2.035 11.248-2.035-4.999-2.035-.836-3.709-3.026-2.017-7.059 3.025 2.5-7.113 8.421-5.448-2.853-2.035-1.009-2.548-2.387-2.539-2.5-4.52 1.25-6.673 2.629-6.105 4.034-6.384 5.042-4.033 6.051-3.026-3.025 5.042-2.233 2.017-.793 2.017.793 4.367 4.25 1.684 4.034.378 2.965 3.026 12.498-2.035 3.75-3.053 7.498 1.018 8.75 7.122 7.498-3.052h11.249l11.248 5.087v-9.157l-8.749-4.07-2.499-8.14-14.998-3.052-3.75 4.07-3.75 2.035-8.748-8.14-1.25-4.07-3.75-3.053-7.498-5.087-2.5-6.132-.905-3.025 1.008-5.043-5.102-2.08v-5.087l4.999-12.21 12.205-5.835-7.06 7.87 2.354 7.122 7.499 3.053h8.749l11.248 2.035 8.749 3.052 4.999-5.087 9.999-6.105 8.749-6.105-15.955-9.869 10.085-9.076-4.034-6.051 3.025-2.017-3.025-3.026h-4.034l-1.008-2.016 2.016-2.017 3.026-2.017 3.025-1.009 5.043-4.034 9.076-2.017 3.026-6.051-3.026-1.008-1.008-3.026 1.008-2.017h2.017l1.009-4.033 4.732-3.026v67.397l12.498 4.07h12.498l2.5-7.122-2.5-7.123-2.499-7.122-7.499-2.035-7.499-2.035 11.248-4.07h6.249l5 4.07 2.499 2.035 4.999 2.035 7.499-4.07 7.499-7.122 6.25-2.035 2.499 11.192 7.499 10.175h18.748l-2.5-5.088-8.749-5.087 3.75-2.035 3.749-6.105 7.499-1.017 7.499-8.14-3.749-3.053h9.998l11.249 3.053 4.999-5.088-4.999-6.105-11.249-10.174-9.998-2.035-9.999 2.035-8.749 2.035-7.499 1.017-4.999-1.017-2.5-4.07-8.749-5.088-8.748-3.052-2.5-3.053 17.498-2.035Z"/>
</svg>
