<svg xmlns="http://www.w3.org/2000/svg" width="234" height="146" fill="none" viewBox="0 0 234 146">
  <path fill="#304451" d="m231.584 133.688-102.498 1.952 46.481-16.266 58.401-3.904-2.384 18.218Z"/>
  <path fill="#304451" d="M161.357 145.724 0 139.674l64.337-13.469 136.351 5.401-39.331 14.118Z"/>
  <path fill="#22685D" stroke="#22685D" d="m180.365.503-29.093 1.009v69.585l29.093-3.554V5.946l5.195-3.554-5.195-1.889Z"/>
  <path fill="#2C7165" d="M151.272 69.08v-6.517l57.483-2.56 1.009 5.353-58.492 3.724Z"/>
  <path fill="#22685D" d="M151.272 138.665V73.114l57.483-8.068v55.466l-57.483 18.153Z"/>
  <path fill="#719250" d="M24.204 69.08h127.068v69.585l-127.068-2.017V69.08Zm0-68.577h127.069v60.509H24.204z"/>
  <path fill="#306D6C" d="M24.204 69.08h127.069v4.034H24.204zm0-60.509h127.069v4.034H24.204z"/>
  <path fill="#719250" d="M16.136 61.012h135.137v8.068H16.136z"/>
  <path fill="#1C525C" d="M151.272 73.114V69.08l57.484-4.034v5.042l-57.484 3.026Zm0-60.509V8.57l30.255-2.017v3.025l-30.255 3.026Z"/>
</svg>
