<svg xmlns="http://www.w3.org/2000/svg" width="1826" height="759" fill="none" viewBox="0 0 1826 759">
  <path fill="url(#a)" d="M357.02 2.017h114.967v284.392H357.02z"/>
  <path fill="url(#b)" d="m266.256 103.874-26.22-23.195V438.69l26.22-10.085V103.874Z"/>
  <path fill="url(#c)" d="m1365.5 107.611-12.1-12.814v36.305h12.1v-23.491Z"/>
  <path fill="url(#d)" d="M266.256 219.849h141.187v244.053H266.256z"/>
  <path fill="url(#e)" d="M69.603 80.678h171.441V492.14H69.603V80.679Z"/>
  <path fill="url(#f)" d="m443.749 238.803-36.305-18.954v276.324h36.305v-257.37Z"/>
  <path fill="#895D6B" d="M742 32h75v29h-75z"/>
  <path fill="url(#g)" d="M720 61h119v697H720z"/>
  <path fill="url(#h)" d="M1055 46h119v712h-119z"/>
  <path fill="url(#i)" d="m1207.17 66.56-33.28-20.17V758h33.28V66.56Z"/>
  <path fill="url(#j)" d="M1238 95h115v663h-115z"/>
  <path fill="url(#k)" d="M1328 131h107v627h-107z"/>
  <path fill="url(#l)" d="M986 192h93v566h-93z"/>
  <path fill="#5D435A" d="M1083.13 18.153h74.628v28.238h-74.628z"/>
  <path fill="url(#m)" d="m867.311 83.704-28.238-23.195v4.034L838.941 758H846v-76.645h21.178l.133-597.651Z"/>
  <path fill="url(#n)" d="M707.971 240.019H794.7v64.543h-86.729z"/>
  <path fill="url(#o)" d="m707.971 183.543-28.237-12.101V305.57h28.237V183.543Z"/>
  <path fill="url(#p)" d="M528.462 169.425h151.272V451.8H528.462z"/>
  <path fill="url(#q)" d="M581 303h224v286H581z"/>
  <path fill="url(#r)" d="M-2 191.612h72.611v288.426H-2z"/>
  <path fill="#7D596C" d="M556.699 82.695h86.729v86.729h-86.729z"/>
  <path fill="url(#s)" d="M887 95h105v663H887z"/>
  <path fill="url(#t)" d="M1399.69.385h147v758h-147z"/>
  <path fill="url(#u)" d="M1623.69 48.385h202v710h-202z"/>
  <path fill="url(#v)" d="M510.309 29.43 469.97 2.016l1.152 278.341h39.187V29.429Z"/>
  <path fill="url(#w)" d="m1016.57 123.406-26.224-28.609V758h26.224V123.406Z"/>
  <path fill="url(#x)" d="m1594.69 70.385 29-22v710h-29v-688Z"/>
  <path fill="url(#y)" d="M443.749 274.307h102.865V518.36H443.749z"/>
  <path fill="url(#z)" d="M1381.64 15.188 1399.79 0v758.385h-18.15V15.188Z"/>
  <path fill="#7F545B" d="M845 165h42v593h-42z"/>
  <path fill="url(#A)" d="M643.428 169.425v-86.73l22.187 17.145v69.585h-22.187Z"/>
  <path fill="#895B63" d="M56.801 219.498h-8.542v10.85h8.542zm-22.78 0h-11.39v10.85h11.39zm-2.847 32.549h-11.39v10.85h11.39zm-22.78 0h-11.39v10.85h11.39z"/>
  <path fill="#895B63" d="M8.394 252.047h-11.39v10.85h11.39z"/>
  <path fill="#B56D54" d="M14.09 279.172H2.7v10.85h11.39zm2.847 56.962H5.547v10.85h11.39zm0-29.837H5.547v10.85h11.39z"/>
  <path fill="#A0615A" d="M48.259 300.872h-11.39v10.85h11.39zm0 18.987h-11.39v10.85h11.39zM14.09 365.971H2.7v10.85h11.39zm39.864 0h-11.39v10.85h11.39z"/>
  <path fill="#895B63" d="M56.801 252.047h-11.39v10.85h11.39z"/>
  <path fill="#935D5F" d="M8.394 219.498h-11.39v10.85h11.39z"/>
  <path fill="#C86946" d="M1121.76 84.361h6.051v8.068h-6.051zm-36.31 2.018h6.051v8.068h-6.051zm48.41 18.152h6.051v8.068h-6.051z"/>
  <path fill="#BB6649" d="M1097.55 116.633h6.051v8.068h-6.051z"/>
  <path fill="#A05D51" d="M1111.67 64.192h6.051v8.068h-6.051zm36.31 4.034h6.051v8.068h-6.051z"/>
  <path fill="#BC694D" d="M1121.76 102.514h6.051v8.068h-6.051z"/>
  <path fill="#A65F53" d="M1121.76 120.667h6.051v8.068h-6.051z"/>
  <path fill="#C3694C" d="M1111.67 163.023h6.051v8.068h-6.051zM1150 144.87h6.051v8.068H1150zm-50.43 18.153h6.051v8.068h-6.051z"/>
  <path fill="#965B56" d="M1073.35 86.379h6.051v8.068h-6.051z"/>
  <path fill="#A05D51" d="M1073.35 64.192h6.051v8.068h-6.051z"/>
  <path fill="#C86946" d="M1085.45 134.785h6.051v8.068h-6.051z"/>
  <path fill="#A05D51" d="M1111.67 50.073h6.051v8.068h-6.051z"/>
  <path fill="#C86946" d="M934.181 197.311h-6.051v-8.068h6.051zm36.305-2.017h-6.051v-8.068h6.051zm-48.407-18.152h-6.051v-8.068h6.051zm36.305-12.102h-6.051v-8.068h6.051z"/>
  <path fill="#C98369" d="M944.265 217.481h-6.051v-8.068h6.051zm-36.305-4.034h-6.051v-8.068h6.051z"/>
  <path fill="#C86946" d="M934.181 179.159h-6.051v-8.068h6.051zm0-18.153h-6.051v-8.068h6.051z"/>
  <path fill="#C98369" d="M944.265 118.65h-6.051v-8.068h6.051zm-38.322 18.152h-6.051v-8.068h6.051zm50.424-18.152h-6.051v-8.068h6.051z"/>
  <path fill="#BB6649" d="M982.588 195.294h-6.051v-8.068h6.051z"/>
  <path fill="#C98369" d="M982.588 217.481h-6.051v-8.068h6.051z"/>
  <path fill="#C86946" d="M970.486 146.887h-6.051v-8.068h6.051z"/>
  <path fill="#C98369" d="M944.265 231.6h-6.051v-8.068h6.051z"/>
  <path fill="#AA6152" d="M1459.33 36.206h9.236v8.152h-9.236zm46.18 0h9.236v8.152h-9.236zm-18.47 21.739h9.236v8.152h-9.236zM1419.31 82.4h9.236v8.152h-9.236zm15.4 0h9.236v8.152h-9.236z"/>
  <path fill="#C06C56" d="M1416.23 169.354h9.236v8.152h-9.236zm0-29.89h9.236v8.152h-9.236zm18.48 0h9.236v8.152h-9.236zm80.04 29.89h9.236v8.152h-9.236zm0-27.173h9.236v8.152h-9.236zm-15.4 57.063h9.236v8.152h-9.236zm-18.47 0h9.236v8.152h-9.236zm-40.02 0h9.236v8.152h-9.236zm-24.63 0h9.236v8.152h-9.236z"/>
  <path fill="#C06C56" d="M1480.88 199.244h9.236v8.152h-9.236z"/>
  <path fill="#AA6152" d="M1523.98 36.206h9.236v8.152h-9.236z"/>
  <path fill="#995A58" d="M1456.26 11.751h9.236v8.152h-9.236zm-40.03 0h9.236v8.152h-9.236zm18.48 0h9.236v8.152h-9.236z"/>
  <path fill="#AA6152" d="M1419.31 36.206h9.236v8.152h-9.236zm18.47 0h9.236v8.152h-9.236z"/>
  <path fill="#C98369" d="M1280.78 117.641h6.847v5.715h-6.847zm34.24 0h6.847v5.715h-6.847zm-13.7 15.24h6.847v5.715h-6.847zm-50.21 17.144h6.847v5.715h-6.847zm11.41 0h6.847v5.715h-6.847z"/>
  <path fill="#C06C56" d="M1248.83 210.982h6.847v5.715h-6.847zm0-20.954h6.847v5.715h-6.847zm13.69 0h6.847v5.715h-6.847zm34.24 41.908h6.847v5.715h-6.847zm-29.67 0h6.847v5.715h-6.847zm-18.26 0h6.847v5.715h-6.847z"/>
  <path fill="#C06C56" d="M1296.76 231.936h6.847v5.715h-6.847z"/>
  <path fill="#C98369" d="M1328.71 117.641h6.847v5.715h-6.847zm-50.21-17.144h6.847v5.715h-6.847zm-29.67 0h6.847v5.715h-6.847zm13.69 0h6.847v5.715h-6.847zm-11.41 17.144h6.847v5.715h-6.847zm13.69 0h6.847v5.715h-6.847z"/>
  <path fill="#BE7465" d="M1752.11 82.597h-12.739v8.152h12.739zm-63.69 0h-12.739v8.152h12.739zm25.48 21.738h-12.739v8.152h12.739zm93.41 24.456h-12.739v8.152h12.739zm-21.23 0h-12.739v8.152h12.739z"/>
  <path fill="#DC7C63" d="M1811.56 215.744h-12.739v8.152h12.739zm0-29.89h-12.739v8.152h12.739zm-25.48 0h-12.739v8.152h12.739zm-110.4 29.89h-12.739v8.152h12.739zm0-27.173h-12.739v8.152h12.739z"/>
  <path fill="#BE7465" d="M1662.94 82.597h-12.739v8.152h12.739z"/>
  <path fill="#B17B79" d="M1671.65 58.14h-12.739v8.152h12.739zm139.91 0h-12.739v8.152h12.739zm-25.48 0h-12.739v8.152h12.739z"/>
  <path fill="#BE7465" d="M1807.31 82.597h-12.739v8.152h12.739zm-25.47 0h-12.739v8.152h12.739z"/>
  <path fill="#D57E6C" d="M1752.91 258h-12.739v8.152h12.739z"/>
  <path fill="#BE7465" d="M1689.22 258h-12.739v8.152h12.739z"/>
  <path fill="#D57E6C" d="M1714.69 279.738h-12.739v8.152h12.739zm93.42 24.456h-12.739v8.152h12.739zm-21.23 0h-12.739v8.152h12.739z"/>
  <path fill="#DC7C63" d="M1812.36 391.148h-12.739v8.152h12.739zm0-29.891h-12.739v8.152h12.739zm-25.48 0h-12.739v8.152h12.739zm-110.4 29.891h-12.739v8.152h12.739zm0-27.174h-12.739v8.152h12.739z"/>
  <path fill="#BE7465" d="M1663.74 258h-12.739v8.152h12.739z"/>
  <path fill="#D57E6C" d="M1808.11 258h-12.739v8.152h12.739zm-25.48 0h-12.739v8.152h12.739z"/>
  <path fill="#BE7465" d="M662.846 348.836h12.739v8.152h-12.739zm63.694 0h12.739v8.152H726.54zm-25.478 21.738h12.739v8.152h-12.739zm-93.417 24.456h12.739v8.152h-12.739zm21.231 0h12.739v8.152h-12.739z"/>
  <path fill="#DC7C63" d="M603.398 481.983h12.739v8.152h-12.739zm0-29.89h12.739v8.152h-12.739zm25.478 0h12.739v8.152h-12.739zm110.402 29.89h12.739v8.152h-12.739zm0-27.173h12.739v8.152h-12.739z"/>
  <path fill="#BE7465" d="M752.017 348.836h12.739v8.152h-12.739z"/>
  <path fill="#B17B79" d="M743.312 324.38h12.739v8.152h-12.739zm-139.914 0h12.739v8.152h-12.739zm25.478 0h12.739v8.152h-12.739z"/>
  <path fill="#BE7465" d="M607.645 348.836h12.739v8.152h-12.739zm25.477 0h12.739v8.152h-12.739z"/>
  <path fill="#AA6152" d="M174.422 135.794h-10.669v11.093h10.669zm-53.344 0h-10.669v11.093h10.669zm21.338 29.582h-10.669v11.093h10.669zm78.237 33.28h-10.669v11.093h10.669zm-17.781 0h-10.669v11.093h10.669z"/>
  <path fill="#C06C56" d="M224.209 316.985H213.54v11.093h10.669zm0-40.676H213.54v11.093h10.669zm-21.337 0h-10.669v11.093h10.669zm-92.462 40.676H99.741v11.093h10.669zm0-36.978H99.741V291.1h10.669zm17.781 77.653h-10.669v11.093h10.669zm21.337 0h-10.669v11.093h10.669zm46.231 0H185.09v11.093h10.669zm28.45 0H213.54v11.093h10.669z"/>
  <path fill="#C06C56" d="M149.528 357.66h-10.669v11.093h10.669z"/>
  <path fill="#AA6152" d="M99.742 135.794H89.073v11.093h10.669z"/>
  <path fill="#995A58" d="M177.978 102.514h-10.669v11.093h10.669zm46.231 0H213.54v11.093h10.669zm-21.337 0h-10.669v11.093h10.669z"/>
  <path fill="#AA6152" d="M220.653 135.794h-10.669v11.093h10.669zm-21.337 0h-10.669v11.093h10.669z"/>
  <path fill="#C86946" d="M784.607 211.99h7.325v-7.732h-7.325zm-53.715-23.195h7.325v-7.732h-7.325zm12.208 0h7.325v-7.732H743.1z"/>
  <path fill="#C98369" d="M728.45 106.324h7.325v-7.732h-7.325zm0 28.349h7.325v-7.732h-7.325zm14.65 0h7.325v-7.732H743.1zm63.481-28.349h7.325v-7.732h-7.325zm0 25.772h7.325v-7.732h-7.325zm-12.208-54.122h7.325v-7.732h-7.325zm-14.649 0h7.325v-7.732h-7.325zm-31.741 0h7.325v-7.732h-7.325zm-19.533 0h7.325v-7.732h-7.325z"/>
  <path fill="#C98369" d="M779.724 77.974h7.325v-7.732h-7.325z"/>
  <path fill="#C86946" d="M597.878 209.665h8.758v8.824h-8.758zm43.79 0h8.758v8.824h-8.758zm-17.516 23.531h8.758v8.824h-8.758zm-64.225 26.473h8.758v8.824h-8.758zm14.597 0h8.758v8.824h-8.758z"/>
  <path fill="#C98369" d="M557.008 353.794h8.758v8.824h-8.758zm0-32.356h8.758v8.824h-8.758zm0 64.711h8.758v8.824h-8.758z"/>
  <path fill="#C86946" d="M659.184 209.665h8.758v8.824h-8.758z"/>
  <path fill="#995A58" d="M594.959 183.192h8.758v8.824h-8.758zm-37.951 0h8.758v8.824h-8.758zm17.516 0h8.758v8.824h-8.758z"/>
  <path fill="#C86946" d="M559.927 209.665h8.758v8.824h-8.758zm17.516 0h8.758v8.824h-8.758z"/>
  <path fill="#895B63" d="M367.414 19.819h8.542v10.85h-8.542zm22.78 0h11.39v10.85h-11.39zm2.847 32.549h11.39v10.85h-11.39zm22.78 0h11.39v10.85h-11.39z"/>
  <path fill="#895B63" d="M415.821 52.368h11.39v10.85h-11.39z"/>
  <path fill="#B56D54" d="M410.126 79.493h11.39v10.85h-11.39zm17.085 27.124h11.39v10.85h-11.39zm22.779 0h11.39v10.85h-11.39zm0 29.838h11.39v10.85h-11.39zm-42.711 0h11.39v10.85h-11.39zm0-29.838h11.39v10.85h-11.39z"/>
  <path fill="#A0615A" d="M375.957 101.193h11.39v10.85h-11.39zm0 18.987h11.39v10.85h-11.39zm34.169 46.112h11.39v10.85h-11.39zm19.933 0h11.39v10.85h-11.39zm22.78 0h11.39v10.85h-11.39zm-82.578 0h11.39v10.85h-11.39z"/>
  <path fill="#895B63" d="M367.414 52.368h11.39v10.85h-11.39z"/>
  <path fill="#935D5F" d="M415.821 19.819h11.39v10.85h-11.39z"/>
  <path fill="#895B63" d="M563.06 154.19h6.213v-7.535h-6.213zm16.567 0h8.284v-7.535h-8.284zm2.071-22.604h8.284v-7.535h-8.284zm16.567 0h8.284v-7.535h-8.284z"/>
  <path fill="#895B63" d="M598.265 131.586h8.284v-7.535h-8.284z"/>
  <path fill="#B56D54" d="M594.123 112.749h8.284v-7.535h-8.284zm12.425-18.836h8.284v-7.535h-8.284zm16.567 0h8.284v-7.535h-8.284zm-31.063 0h8.284v-7.535h-8.284z"/>
  <path fill="#A0615A" d="M569.272 97.68h8.284v-7.535h-8.284z"/>
  <path fill="#895B63" d="M563.06 131.586h8.284v-7.535h-8.284z"/>
  <path fill="#935D5F" d="M598.265 154.19h8.284v-7.535h-8.284z"/>
  <path fill="#895B63" d="M383.55 245.718h-8.542v10.85h8.542zm-22.779 0h-11.39v10.85h11.39zm-2.848 32.55h-11.39v10.85h11.39zm-22.78 0h-11.39v10.85h11.39z"/>
  <path fill="#895B63" d="M335.143 278.268h-11.39v10.85h11.39z"/>
  <path fill="#B56D54" d="M340.838 305.393h-11.39v10.85h11.39zm-17.085 27.124h-11.39v10.85h11.39zm-22.78 0h-11.39v10.85h11.39zm42.712 0h-11.39v10.85h11.39z"/>
  <path fill="#A0615A" d="M375.008 327.093h-11.39v10.85h11.39zm0 18.987h-11.39v10.85h11.39zm5.695 46.112h-11.39v10.85h11.39z"/>
  <path fill="#895B63" d="M383.55 278.268h-11.39v10.85h11.39z"/>
  <path fill="#935D5F" d="M335.143 245.718h-11.39v10.85h11.39z"/>
  <path fill="#DC7C63" d="M1811.62 476.89h-12.739v8.152h12.739zm-101.88.11h-12.739v8.152h12.739zm76.4-30h-12.739v8.152h12.739zm-110.4 29.89h-12.739v8.152h12.739zm0-27.173h-12.739v8.152h12.739zm122.88 93.173h-12.739v8.152h12.739zm-101.88.11h-12.739v8.152h12.739zm65-27h-12.739v8.152h12.739zm37 53h-12.739v8.152h12.739zm-136-53.283h-12.739v8.152h12.739z"/>
  <defs>
    <linearGradient id="a" x1="414.503" x2="414.503" y1="2.017" y2="286.409" gradientUnits="userSpaceOnUse">
      <stop stop-color="#674D64"/>
      <stop offset="1" stop-color="#995E5C"/>
    </linearGradient>
    <linearGradient id="b" x1="253.146" x2="253.146" y1="80.678" y2="438.69" gradientUnits="userSpaceOnUse">
      <stop stop-color="#AF604F"/>
      <stop offset="1" stop-color="#E28355"/>
    </linearGradient>
    <linearGradient id="c" x1="1359.45" x2="1359.45" y1="94.797" y2="131.102" gradientUnits="userSpaceOnUse">
      <stop stop-color="#816772"/>
      <stop offset="1" stop-color="#AD746B"/>
    </linearGradient>
    <linearGradient id="d" x1="336.85" x2="336.85" y1="219.849" y2="463.902" gradientUnits="userSpaceOnUse">
      <stop stop-color="#7A535B"/>
      <stop offset=".495" stop-color="#975B57"/>
      <stop offset=".986" stop-color="#BB6A53"/>
    </linearGradient>
    <linearGradient id="e" x1="184.569" x2="184.569" y1="84.713" y2="496.173" gradientUnits="userSpaceOnUse">
      <stop stop-color="#644E64"/>
      <stop offset=".447" stop-color="#A35F58"/>
      <stop offset=".995" stop-color="#DE7E53"/>
    </linearGradient>
    <linearGradient id="f" x1="425.597" x2="425.597" y1="219.849" y2="496.173" gradientUnits="userSpaceOnUse">
      <stop stop-color="#A0645E"/>
      <stop offset=".638" stop-color="#B16757"/>
      <stop offset="1" stop-color="#C87354"/>
    </linearGradient>
    <linearGradient id="g" x1="779.5" x2="779.5" y1="61" y2="758" gradientUnits="userSpaceOnUse">
      <stop stop-color="#875C6B"/>
      <stop offset=".524" stop-color="#9D656B"/>
      <stop offset="1" stop-color="#CE765E"/>
    </linearGradient>
    <linearGradient id="h" x1="1114.5" x2="1115" y1="46" y2="440" gradientUnits="userSpaceOnUse">
      <stop stop-color="#5C445B"/>
      <stop offset=".428" stop-color="#825056"/>
      <stop offset="1" stop-color="#AC6056"/>
    </linearGradient>
    <linearGradient id="i" x1="1190.53" x2="1190.53" y1="250.103" y2="46.39" gradientUnits="userSpaceOnUse">
      <stop stop-color="#D56C49"/>
      <stop offset="1" stop-color="#C36049"/>
    </linearGradient>
    <linearGradient id="j" x1="1295.5" x2="1296" y1="95" y2="477" gradientUnits="userSpaceOnUse">
      <stop stop-color="#665466"/>
      <stop offset=".466" stop-color="#9F6167"/>
      <stop offset=".99" stop-color="#D07159"/>
    </linearGradient>
    <linearGradient id="k" x1="1381.5" x2="1382" y1="131" y2="354.5" gradientUnits="userSpaceOnUse">
      <stop stop-color="#7A5160"/>
      <stop offset="1" stop-color="#AD6157"/>
    </linearGradient>
    <linearGradient id="l" x1="1032.5" x2="1033" y1="192" y2="533.5" gradientUnits="userSpaceOnUse">
      <stop stop-color="#7A5160"/>
      <stop offset="1" stop-color="#AD6157"/>
    </linearGradient>
    <linearGradient id="m" x1="853.192" x2="853.192" y1="60.509" y2="249.095" gradientUnits="userSpaceOnUse">
      <stop stop-color="#D3694B"/>
      <stop offset="1" stop-color="#F0865B"/>
    </linearGradient>
    <linearGradient id="n" x1="751.336" x2="751.336" y1="304.562" y2="240.019" gradientUnits="userSpaceOnUse">
      <stop stop-color="#B96F64"/>
      <stop offset="1" stop-color="#8D585C"/>
    </linearGradient>
    <linearGradient id="o" x1="693.853" x2="693.853" y1="305.57" y2="171.442" gradientUnits="userSpaceOnUse">
      <stop stop-color="#A35C55"/>
      <stop offset="1" stop-color="#BB6554"/>
    </linearGradient>
    <linearGradient id="p" x1="604.098" x2="604.098" y1="451.8" y2="169.425" gradientUnits="userSpaceOnUse">
      <stop stop-color="#C97352"/>
      <stop offset=".486" stop-color="#8E5D61"/>
      <stop offset="1" stop-color="#684E60"/>
    </linearGradient>
    <linearGradient id="q" x1="693" x2="693" y1="589" y2="303" gradientUnits="userSpaceOnUse">
      <stop offset=".01" stop-color="#B46551"/>
      <stop offset=".548" stop-color="#90595A"/>
      <stop offset="1" stop-color="#6B4D5C"/>
    </linearGradient>
    <linearGradient id="r" x1="34.305" x2="34.305" y1="480.037" y2="191.612" gradientUnits="userSpaceOnUse">
      <stop offset=".005" stop-color="#B26656"/>
      <stop offset=".524" stop-color="#886164"/>
      <stop offset="1" stop-color="#665466"/>
    </linearGradient>
    <linearGradient id="s" x1="939.5" x2="940" y1="95" y2="521.5" gradientUnits="userSpaceOnUse">
      <stop stop-color="#79586C"/>
      <stop offset="1" stop-color="#BD6D60"/>
    </linearGradient>
    <linearGradient id="t" x1="1473.19" x2="1473.69" y1=".385" y2="608.885" gradientUnits="userSpaceOnUse">
      <stop stop-color="#6E4F65"/>
      <stop offset=".46" stop-color="#8F575B"/>
      <stop offset=".997" stop-color="#B16153"/>
    </linearGradient>
    <linearGradient id="u" x1="1724.69" x2="1724.69" y1="48.385" y2="438.885" gradientUnits="userSpaceOnUse">
      <stop stop-color="#675269"/>
      <stop offset=".468" stop-color="#84535D"/>
      <stop offset=".995" stop-color="#B46357"/>
    </linearGradient>
    <linearGradient id="v" x1="490.139" x2="490.139" y1="2.017" y2="280.358" gradientUnits="userSpaceOnUse">
      <stop stop-color="#90565B"/>
      <stop offset="1" stop-color="#BD6A54"/>
    </linearGradient>
    <linearGradient id="w" x1="1003.46" x2="1003.46" y1="94.797" y2="250.103" gradientUnits="userSpaceOnUse">
      <stop stop-color="#D2684B"/>
      <stop offset="1" stop-color="#D46B49"/>
    </linearGradient>
    <linearGradient id="x" x1="1609.19" x2="1609.19" y1="48.385" y2="758.385" gradientUnits="userSpaceOnUse">
      <stop stop-color="#C6624A"/>
      <stop offset="1" stop-color="#E2744A"/>
    </linearGradient>
    <linearGradient id="y" x1="495.182" x2="495.182" y1="274.307" y2="518.36" gradientUnits="userSpaceOnUse">
      <stop stop-color="#81565C"/>
      <stop offset="1" stop-color="#C56F52"/>
    </linearGradient>
    <linearGradient id="z" x1="1390.71" x2="1390.71" y1="0" y2="250.104" gradientUnits="userSpaceOnUse">
      <stop stop-color="#DA6F50"/>
      <stop offset="1" stop-color="#E97A4F"/>
    </linearGradient>
    <linearGradient id="A" x1="654.522" x2="654.522" y1="169.425" y2="82.695" gradientUnits="userSpaceOnUse">
      <stop stop-color="#C46C57"/>
      <stop offset="1" stop-color="#97585A"/>
    </linearGradient>
  </defs>
</svg>
