<svg xmlns="http://www.w3.org/2000/svg" width="1826" height="541" fill="none" viewBox="0 0 1826 541">
  <path fill="url(#a)" d="M357.329 2.017h114.967v284.392H357.329z"/>
  <path fill="url(#b)" d="m266.566 103.874-26.221-23.195V438.69l26.221-10.085V103.874Z"/>
  <path fill="url(#c)" d="m1365.81 107.611-12.1-12.814v36.305h12.1v-23.491Z"/>
  <path fill="url(#d)" d="M266.566 219.849h141.187v244.053H266.566z"/>
  <path fill="url(#e)" d="M69.912 80.678h171.442V492.14H69.912V80.679Z"/>
  <path fill="url(#f)" d="m444.059 238.803-36.306-18.954v276.324h36.306v-257.37Z"/>
  <path fill="#895D6B" d="M742.569 32.271h74.628v28.238h-74.628z"/>
  <path fill="url(#g)" d="M720.382 60.509h119.001v189.595H720.382z"/>
  <path fill="url(#h)" d="M1055.2 46.39h119.001v203.713H1055.2z"/>
  <path fill="url(#i)" d="m1207.48 66.56-33.28-20.17v203.713h33.28V66.56Z"/>
  <path fill="url(#j)" d="M1238.74 94.797h114.967v155.306H1238.74z"/>
  <path fill="url(#k)" d="M1325.47 131.103h106.899v119.001H1325.47z"/>
  <path fill="url(#l)" d="M986.622 191.612h92.78v119.001h-92.78z"/>
  <path fill="#5D435A" d="M1083.44 18.153h74.628v28.238h-74.628z"/>
  <path fill="url(#m)" d="m867.621 83.704-28.238-23.195v188.586h7.059V172.45h21.179V83.704Z"/>
  <path fill="url(#n)" d="M708.281 240.019h86.729v64.543h-86.729z"/>
  <path fill="url(#o)" d="m708.281 183.543-28.238-12.101V305.57h28.238V183.543Z"/>
  <path fill="url(#p)" d="M528.771 169.425h151.272V451.8H528.771z"/>
  <path fill="url(#q)" d="M581.212 302.544h223.883v238.002H581.212z"/>
  <path fill="url(#r)" d="M-1.691 191.612H70.92v288.426H-1.691z"/>
  <path fill="#7D596C" d="M557.009 82.695h86.729v86.729h-86.729z"/>
  <path fill="url(#s)" d="M887.791 94.797h104.882v155.306H887.791z"/>
  <path fill="url(#t)" d="M1400.1 0h147.238v250.103H1400.1z"/>
  <path fill="url(#u)" d="M1623.98 48.407h201.696v201.696H1623.98z"/>
  <path fill="url(#v)" d="M510.618 29.43 470.279 2.016l1.153 278.341h39.186V29.429Z"/>
  <path fill="url(#w)" d="m1016.88 123.406-26.224-28.609v155.306h26.224V123.406Z"/>
  <path fill="url(#x)" d="m1595.51 70.7 28.47-22.293v202.671h-18.03l-14.24 7.093 3.8-187.47Z"/>
  <path fill="url(#y)" d="M444.059 274.307h102.865V518.36H444.059z"/>
  <path fill="url(#z)" d="M1381.95 15.188 1400.1 0v250.104h-18.15V15.188Z"/>
  <path fill="#7F545B" d="M845.434 165.391h42.356v84.713h-42.356z"/>
  <path fill="url(#A)" d="M643.738 169.425v-86.73l22.186 17.145v69.585h-22.186Z"/>
  <defs>
    <linearGradient id="a" x1="414.812" x2="414.812" y1="2.017" y2="286.409" gradientUnits="userSpaceOnUse">
      <stop stop-color="#674D64"/>
      <stop offset="1" stop-color="#995E5C"/>
    </linearGradient>
    <linearGradient id="b" x1="253.455" x2="253.455" y1="80.678" y2="438.69" gradientUnits="userSpaceOnUse">
      <stop stop-color="#AF604F"/>
      <stop offset="1" stop-color="#E28355"/>
    </linearGradient>
    <linearGradient id="c" x1="1359.76" x2="1359.76" y1="94.797" y2="131.102" gradientUnits="userSpaceOnUse">
      <stop stop-color="#816772"/>
      <stop offset="1" stop-color="#AD746B"/>
    </linearGradient>
    <linearGradient id="d" x1="337.159" x2="337.159" y1="219.849" y2="463.902" gradientUnits="userSpaceOnUse">
      <stop stop-color="#7A535B"/>
      <stop offset=".495" stop-color="#975B57"/>
      <stop offset=".986" stop-color="#BB6A53"/>
    </linearGradient>
    <linearGradient id="e" x1="184.879" x2="184.879" y1="84.713" y2="496.173" gradientUnits="userSpaceOnUse">
      <stop stop-color="#644E64"/>
      <stop offset=".447" stop-color="#A35F58"/>
      <stop offset=".995" stop-color="#DE7E53"/>
    </linearGradient>
    <linearGradient id="f" x1="425.906" x2="425.906" y1="219.849" y2="496.173" gradientUnits="userSpaceOnUse">
      <stop stop-color="#A0645E"/>
      <stop offset=".638" stop-color="#B16757"/>
      <stop offset="1" stop-color="#C87354"/>
    </linearGradient>
    <linearGradient id="g" x1="779.883" x2="779.883" y1="60.509" y2="250.103" gradientUnits="userSpaceOnUse">
      <stop stop-color="#875C6B"/>
      <stop offset=".524" stop-color="#9D656B"/>
      <stop offset="1" stop-color="#CE765E"/>
    </linearGradient>
    <linearGradient id="h" x1="1114.7" x2="1114.7" y1="46.39" y2="250.103" gradientUnits="userSpaceOnUse">
      <stop stop-color="#5C445B"/>
      <stop offset=".428" stop-color="#825056"/>
      <stop offset="1" stop-color="#AC6056"/>
    </linearGradient>
    <linearGradient id="i" x1="1190.84" x2="1190.84" y1="250.103" y2="46.39" gradientUnits="userSpaceOnUse">
      <stop stop-color="#D56C49"/>
      <stop offset="1" stop-color="#C36049"/>
    </linearGradient>
    <linearGradient id="j" x1="1296.23" x2="1296.23" y1="94.797" y2="250.103" gradientUnits="userSpaceOnUse">
      <stop stop-color="#665466"/>
      <stop offset=".466" stop-color="#9F6167"/>
      <stop offset=".99" stop-color="#D07159"/>
    </linearGradient>
    <linearGradient id="k" x1="1378.92" x2="1378.92" y1="131.103" y2="250.103" gradientUnits="userSpaceOnUse">
      <stop stop-color="#7A5160"/>
      <stop offset="1" stop-color="#AD6157"/>
    </linearGradient>
    <linearGradient id="l" x1="1033.01" x2="1033.01" y1="191.612" y2="310.612" gradientUnits="userSpaceOnUse">
      <stop stop-color="#7A5160"/>
      <stop offset="1" stop-color="#AD6157"/>
    </linearGradient>
    <linearGradient id="m" x1="853.502" x2="853.502" y1="60.509" y2="249.095" gradientUnits="userSpaceOnUse">
      <stop stop-color="#D3694B"/>
      <stop offset="1" stop-color="#F0865B"/>
    </linearGradient>
    <linearGradient id="n" x1="751.645" x2="751.645" y1="304.562" y2="240.019" gradientUnits="userSpaceOnUse">
      <stop stop-color="#B96F64"/>
      <stop offset="1" stop-color="#8D585C"/>
    </linearGradient>
    <linearGradient id="o" x1="694.162" x2="694.162" y1="305.57" y2="171.442" gradientUnits="userSpaceOnUse">
      <stop stop-color="#A35C55"/>
      <stop offset="1" stop-color="#BB6554"/>
    </linearGradient>
    <linearGradient id="p" x1="604.407" x2="604.407" y1="451.8" y2="169.425" gradientUnits="userSpaceOnUse">
      <stop stop-color="#C97352"/>
      <stop offset=".486" stop-color="#8E5D61"/>
      <stop offset="1" stop-color="#684E60"/>
    </linearGradient>
    <linearGradient id="q" x1="693.154" x2="693.154" y1="540.546" y2="302.544" gradientUnits="userSpaceOnUse">
      <stop offset=".01" stop-color="#B46551"/>
      <stop offset=".548" stop-color="#90595A"/>
      <stop offset="1" stop-color="#6B4D5C"/>
    </linearGradient>
    <linearGradient id="r" x1="34.615" x2="34.615" y1="480.037" y2="191.612" gradientUnits="userSpaceOnUse">
      <stop offset=".005" stop-color="#B26656"/>
      <stop offset=".524" stop-color="#886164"/>
      <stop offset="1" stop-color="#665466"/>
    </linearGradient>
    <linearGradient id="s" x1="940.232" x2="940.232" y1="94.797" y2="250.103" gradientUnits="userSpaceOnUse">
      <stop stop-color="#79586C"/>
      <stop offset="1" stop-color="#BD6D60"/>
    </linearGradient>
    <linearGradient id="t" x1="1473.72" x2="1473.72" y1="0" y2="250.104" gradientUnits="userSpaceOnUse">
      <stop stop-color="#6E4F65"/>
      <stop offset=".495" stop-color="#8F575B"/>
      <stop offset=".986" stop-color="#B16153"/>
    </linearGradient>
    <linearGradient id="u" x1="1724.83" x2="1724.83" y1="48.407" y2="250.103" gradientUnits="userSpaceOnUse">
      <stop stop-color="#675269"/>
      <stop offset=".5" stop-color="#84535D"/>
      <stop offset=".995" stop-color="#B46357"/>
    </linearGradient>
    <linearGradient id="v" x1="490.449" x2="490.449" y1="2.017" y2="280.358" gradientUnits="userSpaceOnUse">
      <stop stop-color="#90565B"/>
      <stop offset="1" stop-color="#BD6A54"/>
    </linearGradient>
    <linearGradient id="w" x1="1003.77" x2="1003.77" y1="94.797" y2="250.103" gradientUnits="userSpaceOnUse">
      <stop stop-color="#D2684B"/>
      <stop offset="1" stop-color="#D46B49"/>
    </linearGradient>
    <linearGradient id="x" x1="1607.85" x2="1607.85" y1="48.407" y2="258.171" gradientUnits="userSpaceOnUse">
      <stop stop-color="#C6624A"/>
      <stop offset="1" stop-color="#E2744A"/>
    </linearGradient>
    <linearGradient id="y" x1="495.491" x2="495.491" y1="274.307" y2="518.36" gradientUnits="userSpaceOnUse">
      <stop stop-color="#81565C"/>
      <stop offset="1" stop-color="#C56F52"/>
    </linearGradient>
    <linearGradient id="z" x1="1391.02" x2="1391.02" y1="0" y2="250.104" gradientUnits="userSpaceOnUse">
      <stop stop-color="#DA6F50"/>
      <stop offset="1" stop-color="#E97A4F"/>
    </linearGradient>
    <linearGradient id="A" x1="654.831" x2="654.831" y1="169.425" y2="82.695" gradientUnits="userSpaceOnUse">
      <stop stop-color="#C46C57"/>
      <stop offset="1" stop-color="#97585A"/>
    </linearGradient>
  </defs>
</svg>
