<svg xmlns="http://www.w3.org/2000/svg" width="1812" height="479" fill="none" viewBox="0 0 1812 479">
  <path fill="#895B63" d="M56.801 207.747h-8.542v10.85h8.542zm-22.78 0h-11.39v10.85h11.39zm-2.847 32.55h-11.39v10.85h11.39zm-22.78 0h-11.39v10.85h11.39z"/>
  <path fill="#895B63" d="M8.394 240.297h-11.39v10.85h11.39z"/>
  <path fill="#B56D54" d="M14.09 267.422H2.7v10.85h11.39zm2.847 56.962H5.547v10.85h11.39zm0-29.838H5.547v10.85h11.39z"/>
  <path fill="#A0615A" d="M48.259 289.121h-11.39v10.85h11.39zm0 18.988h-11.39v10.85h11.39zM14.09 354.221H2.7v10.85h11.39zm39.864 0h-11.39v10.85h11.39z"/>
  <path fill="#895B63" d="M56.801 240.297h-11.39v10.85h11.39z"/>
  <path fill="#935D5F" d="M8.394 207.747h-11.39v10.85h11.39z"/>
  <path fill="#C86946" d="M1121.76 72.611h6.051v8.068h-6.051zm-36.31 2.017h6.051v8.068h-6.051zm48.41 18.152h6.051v8.068h-6.051z"/>
  <path fill="#BB6649" d="M1097.55 104.882h6.051v8.068h-6.051z"/>
  <path fill="#A05D51" d="M1111.67 52.441h6.051v8.068h-6.051zm36.31 4.034h6.051v8.068h-6.051z"/>
  <path fill="#BC694D" d="M1121.76 90.763h6.051v8.068h-6.051z"/>
  <path fill="#A65F53" d="M1121.76 108.916h6.051v8.068h-6.051z"/>
  <path fill="#C3694C" d="M1111.67 151.273h6.051v8.068h-6.051zM1150 133.12h6.051v8.068H1150zm-50.43 18.153h6.051v8.068h-6.051z"/>
  <path fill="#965B56" d="M1073.35 74.628h6.051v8.068h-6.051z"/>
  <path fill="#A05D51" d="M1073.35 52.441h6.051v8.068h-6.051z"/>
  <path fill="#C86946" d="M1085.45 123.035h6.051v8.068h-6.051z"/>
  <path fill="#A05D51" d="M1111.67 38.322h6.051v8.068h-6.051z"/>
  <path fill="#C86946" d="M934.181 185.561h-6.051v-8.068h6.051zm36.305-2.017h-6.051v-8.068h6.051zm-48.407-18.153h-6.051v-8.068h6.051zm36.305-12.102h-6.051v-8.068h6.051z"/>
  <path fill="#C98369" d="M944.265 205.73h-6.051v-8.068h6.051zm-36.305-4.033h-6.051v-8.068h6.051z"/>
  <path fill="#C86946" d="M934.181 167.408h-6.051v-8.068h6.051zm0-18.152h-6.051v-8.068h6.051z"/>
  <path fill="#C98369" d="M944.265 106.899h-6.051v-8.068h6.051zm-38.322 18.153h-6.051v-8.068h6.051zm50.424-18.153h-6.051v-8.068h6.051z"/>
  <path fill="#BB6649" d="M982.588 183.544h-6.051v-8.068h6.051z"/>
  <path fill="#C98369" d="M982.588 205.73h-6.051v-8.068h6.051z"/>
  <path fill="#C86946" d="M970.486 135.137h-6.051v-8.068h6.051z"/>
  <path fill="#C98369" d="M944.265 219.849h-6.051v-8.068h6.051z"/>
  <path fill="#AA6152" d="M1459.33 24.456h9.236v8.152h-9.236zm46.18 0h9.236v8.152h-9.236zm-18.47 21.738h9.236v8.152h-9.236zm-67.73 24.456h9.236v8.152h-9.236zm15.4 0h9.236v8.152h-9.236z"/>
  <path fill="#C06C56" d="M1416.23 157.603h9.236v8.152h-9.236zm0-29.89h9.236v8.152h-9.236zm18.48 0h9.236v8.152h-9.236zm80.04 29.89h9.236v8.152h-9.236zm0-27.173h9.236v8.152h-9.236zm-15.4 57.064h9.236v8.152h-9.236zm-18.47 0h9.236v8.152h-9.236zm-40.02 0h9.236v8.152h-9.236zm-24.63 0h9.236v8.152h-9.236z"/>
  <path fill="#C06C56" d="M1480.88 187.494h9.236v8.152h-9.236z"/>
  <path fill="#AA6152" d="M1523.98 24.456h9.236v8.152h-9.236z"/>
  <path fill="#995A58" d="M1456.26 0h9.236v8.152h-9.236zm-40.03 0h9.236v8.152h-9.236zm18.48 0h9.236v8.152h-9.236z"/>
  <path fill="#AA6152" d="M1419.31 24.456h9.236v8.152h-9.236zm18.47 0h9.236v8.152h-9.236z"/>
  <path fill="#C98369" d="M1280.78 105.891h6.847v5.715h-6.847zm34.24 0h6.847v5.715h-6.847zm-13.7 15.239h6.847v5.715h-6.847zm-50.21 17.144h6.847v5.715h-6.847zm11.41 0h6.847v5.715h-6.847z"/>
  <path fill="#C06C56" d="M1248.83 199.232h6.847v5.715h-6.847zm0-20.955h6.847v5.715h-6.847zm13.69 0h6.847v5.715h-6.847zm34.24 41.908h6.847v5.715h-6.847zm-29.67 0h6.847v5.715h-6.847zm-18.26 0h6.847v5.715h-6.847z"/>
  <path fill="#C06C56" d="M1296.76 220.185h6.847v5.715h-6.847z"/>
  <path fill="#C98369" d="M1328.71 105.891h6.847v5.715h-6.847zm-50.21-17.144h6.847v5.715h-6.847zm-29.67-.001h6.847v5.715h-6.847zm13.69.001h6.847v5.715h-6.847zm-11.41 17.144h6.847v5.715h-6.847zm13.69 0h6.847v5.715h-6.847z"/>
  <path fill="#BE7465" d="M1752.11 70.846h-12.739v8.152h12.739zm-63.69 0h-12.739v8.152h12.739zm25.48 21.739h-12.739v8.152h12.739zm93.41 24.455h-12.739v8.152h12.739zm-21.23 0h-12.739v8.152h12.739z"/>
  <path fill="#DC7C63" d="M1811.56 203.994h-12.739v8.152h12.739zm0-29.891h-12.739v8.152h12.739zm-25.48 0h-12.739v8.152h12.739zm-110.4 29.891h-12.739v8.152h12.739zm0-27.173h-12.739v8.152h12.739z"/>
  <path fill="#BE7465" d="M1662.94 70.846h-12.739v8.152h12.739z"/>
  <path fill="#B17B79" d="M1671.65 46.39h-12.739v8.152h12.739zm139.91 0h-12.739v8.152h12.739zm-25.48 0h-12.739v8.152h12.739z"/>
  <path fill="#BE7465" d="M1807.31 70.846h-12.739v8.152h12.739zm-25.47 0h-12.739v8.152h12.739zM662.846 337.085h12.739v8.152h-12.739zm63.694 0h12.739v8.152H726.54zm-25.478 21.739h12.739v8.152h-12.739zm-93.417 24.455h12.739v8.152h-12.739zm21.231 0h12.739v8.152h-12.739z"/>
  <path fill="#DC7C63" d="M603.398 470.233h12.739v8.152h-12.739zm0-29.891h12.739v8.152h-12.739zm25.478 0h12.739v8.152h-12.739zm110.402 29.891h12.739v8.152h-12.739zm0-27.173h12.739v8.152h-12.739z"/>
  <path fill="#BE7465" d="M752.017 337.085h12.739v8.152h-12.739z"/>
  <path fill="#B17B79" d="M743.312 312.629h12.739v8.152h-12.739zm-139.914.001h12.739v8.152h-12.739zm25.478-.001h12.739v8.152h-12.739z"/>
  <path fill="#BE7465" d="M607.645 337.085h12.739v8.152h-12.739zm25.477 0h12.739v8.152h-12.739z"/>
  <path fill="#AA6152" d="M174.422 124.043h-10.669v11.093h10.669zm-53.344 0h-10.669v11.093h10.669zm21.338 29.582h-10.669v11.093h10.669zm78.237 33.28h-10.669v11.093h10.669zm-17.781 0h-10.669v11.093h10.669z"/>
  <path fill="#C06C56" d="M224.209 305.234H213.54v11.093h10.669zm0-40.676H213.54v11.093h10.669zm-21.337 0h-10.669v11.093h10.669zm-92.462 40.676H99.741v11.093h10.669zm0-36.978H99.741v11.093h10.669zm17.781 77.653h-10.669v11.093h10.669zm21.337 0h-10.669v11.093h10.669zm46.231 0H185.09v11.093h10.669zm28.45 0H213.54v11.093h10.669z"/>
  <path fill="#C06C56" d="M149.528 345.909h-10.669v11.093h10.669z"/>
  <path fill="#AA6152" d="M99.742 124.043H89.073v11.093h10.669z"/>
  <path fill="#995A58" d="M177.978 90.763h-10.669v11.093h10.669zm46.231 0H213.54v11.093h10.669zm-21.337 0h-10.669v11.093h10.669z"/>
  <path fill="#AA6152" d="M220.653 124.043h-10.669v11.093h10.669zm-21.337 0h-10.669v11.093h10.669z"/>
  <path fill="#C86946" d="M784.607 200.24h7.325v-7.732h-7.325zm-53.715-23.195h7.325v-7.732h-7.325zm12.208 0h7.325v-7.732H743.1z"/>
  <path fill="#C98369" d="M728.45 94.573h7.325v-7.732h-7.325zm0 28.35h7.325v-7.732h-7.325zm14.65 0h7.325v-7.732H743.1zm63.481-28.35h7.325v-7.732h-7.325zm0 25.773h7.325v-7.732h-7.325zm-12.208-54.122h7.325v-7.732h-7.325zm-14.649 0h7.325v-7.732h-7.325zm-31.741 0h7.325v-7.732h-7.325zm-19.533 0h7.325v-7.732h-7.325z"/>
  <path fill="#C98369" d="M779.724 66.224h7.325v-7.732h-7.325z"/>
  <path fill="#C86946" d="M597.878 197.915h8.758v8.824h-8.758zm43.79 0h8.758v8.824h-8.758zm-17.516 23.531h8.758v8.824h-8.758zm-64.225 26.472h8.758v8.824h-8.758zm14.597 0h8.758v8.824h-8.758z"/>
  <path fill="#C98369" d="M557.008 342.044h8.758v8.824h-8.758zm0-32.356h8.758v8.824h-8.758zm0 64.711h8.758v8.824h-8.758z"/>
  <path fill="#C86946" d="M659.184 197.915h8.758v8.824h-8.758z"/>
  <path fill="#995A58" d="M594.959 171.442h8.758v8.824h-8.758zm-37.951 0h8.758v8.824h-8.758zm17.516 0h8.758v8.824h-8.758z"/>
  <path fill="#C86946" d="M559.927 197.915h8.758v8.824h-8.758zm17.516 0h8.758v8.824h-8.758z"/>
  <path fill="#895B63" d="M367.414 8.068h8.542v10.85h-8.542zm22.78 0h11.39v10.85h-11.39zm2.847 32.55h11.39v10.85h-11.39zm22.78 0h11.39v10.85h-11.39z"/>
  <path fill="#895B63" d="M415.821 40.618h11.39v10.85h-11.39z"/>
  <path fill="#B56D54" d="M410.126 67.742h11.39v10.85h-11.39zm17.085 27.125h11.39v10.85h-11.39zm22.779 0h11.39v10.85h-11.39zm0 29.837h11.39v10.85h-11.39zm-42.711 0h11.39v10.85h-11.39zm0-29.837h11.39v10.85h-11.39z"/>
  <path fill="#A0615A" d="M375.957 89.442h11.39v10.85h-11.39zm0 18.987h11.39v10.85h-11.39zm34.169 46.112h11.39v10.85h-11.39zm19.933 0h11.39v10.85h-11.39zm22.78 0h11.39v10.85h-11.39zm-82.578 0h11.39v10.85h-11.39z"/>
  <path fill="#895B63" d="M367.414 40.618h11.39v10.85h-11.39z"/>
  <path fill="#935D5F" d="M415.821 8.068h11.39v10.85h-11.39z"/>
  <path fill="#895B63" d="M563.06 142.44h6.213v-7.535h-6.213zm16.567 0h8.284v-7.535h-8.284zm2.071-22.604h8.284v-7.535h-8.284zm16.567 0h8.284v-7.535h-8.284z"/>
  <path fill="#895B63" d="M598.265 119.836h8.284v-7.535h-8.284z"/>
  <path fill="#B56D54" d="M594.123 100.999h8.284v-7.535h-8.284zm12.425-18.837h8.284v-7.535h-8.284zm16.567 0h8.284v-7.535h-8.284zm-31.063 0h8.284v-7.535h-8.284z"/>
  <path fill="#A0615A" d="M569.272 85.93h8.284v-7.535h-8.284z"/>
  <path fill="#895B63" d="M563.06 119.836h8.284v-7.535h-8.284z"/>
  <path fill="#935D5F" d="M598.265 142.44h8.284v-7.535h-8.284z"/>
  <path fill="#895B63" d="M383.55 233.968h-8.542v10.85h8.542zm-22.779 0h-11.39v10.85h11.39zm-2.848 32.55h-11.39v10.85h11.39zm-22.78 0h-11.39v10.85h11.39z"/>
  <path fill="#895B63" d="M335.143 266.518h-11.39v10.85h11.39z"/>
  <path fill="#B56D54" d="M340.838 293.642h-11.39v10.85h11.39zm-17.085 27.125h-11.39v10.85h11.39zm-22.78 0h-11.39v10.85h11.39zm42.712 0h-11.39v10.85h11.39z"/>
  <path fill="#A0615A" d="M375.008 315.342h-11.39v10.85h11.39zm0 18.987h-11.39v10.85h11.39zm5.695 46.112h-11.39v10.85h11.39z"/>
  <path fill="#895B63" d="M383.55 266.518h-11.39v10.85h11.39z"/>
  <path fill="#935D5F" d="M335.143 233.968h-11.39v10.85h11.39z"/>
</svg>
