<svg xmlns="http://www.w3.org/2000/svg" width="802" height="235" fill="none" viewBox="0 0 802 235">
  <path fill="#7E803B" d="M-78.335 159.543v7.067l124.437 17.669h9.491l14.764-3.534h15.818l35.855-1.178 4.218-3.533 2.11-3.534 1.054-7.067-2.109-3.534-1.055-3.534-4.218-3.534v-2.355l1.055-3.534 5.273-3.534 1.054-4.712-1.054-4.711v-5.89l-4.219-3.533-2.109-2.356 2.109-3.534 2.109-3.534 1.055-3.533v-4.712l-1.055-3.534-1.054-3.533-2.109-2.356-3.164-2.356-5.273-1.178-4.218 1.178-2.109-1.178v-4.712l1.055-2.355 2.109-4.712 1.054-3.534v-8.245l-1.054-5.89-5.273-7.067-5.273-2.356-4.218-2.356h-6.327l-3.164-1.178-5.273-10.6-7.382-2.357-9.49-3.533-11.6 1.178-8.437 2.355-5.273-3.533H27.12l-5.273 1.178-3.163 2.355-4.218 1.178H9.193L-.298 38.22l-10.546 4.711 10.546 8.246 1.054 5.89 3.164 4.71v5.89h-7.382l-4.218 4.712-1.055 4.712v5.889l1.055 3.534-3.164 2.356-3.163-4.712h-15.818l-10.546 9.423-3.164 8.246-3.164 7.067-2.109 9.423v9.423l2.11 4.712h-8.437l-6.327 3.534-5.273 1.178-4.218 5.889-1.055 5.89 1.055 7.067-1.055 3.534h-6.327Z"/>
  <path fill="#576752" d="M-102.539 167.611v7.067l124.438 17.669h9.49l14.765-3.534h15.818l35.855-1.178 4.218-3.534 2.109-3.533 1.055-7.068-2.11-3.534-1.054-3.533-4.218-3.534v-2.356l1.054-3.533 5.273-3.534 1.055-4.712-1.055-4.711v-5.89l-4.218-3.534-2.11-2.356 2.11-3.533 2.109-3.534 1.054-3.534v-4.711l-1.054-3.534-1.055-3.534-2.109-2.356-3.163-2.355-5.273-1.178-4.218 1.178-2.11-1.178v-4.712l1.055-2.356 2.11-4.711 1.054-3.534 9.49-8.245 6.374-1.05 7.059 1.05-7.059-5.083-7.148-2.51-4.954 1.501-4.378 2.654 1.353-5.68 3.025-3.025-3.025-4.034-5.273-.008-7.064.872-4.219-2.356H66.19l-3.164-1.178-2.19-5.397 1.008-5.043 7.06-2.017-7.06-2.856-5.043.84-7.059 4.033-3.348 5.712-2.703-10.585 1.009-6.22-15.42 6.22-8.436 2.356-5.273-3.534H2.917l-5.273 1.178-3.164 2.356-4.218 1.178h-5.273l-5.273 1.178-3.163 3.534-1.055 4.711 1.055 5.89 3.163 4.711v5.89h-7.381l-4.219 4.712-1.054 4.711v5.89l1.054 3.534-3.163 2.355-3.164-4.711h-15.818l-10.546 9.423-3.163 8.245-3.164 7.068-2.11 9.423v9.423l2.11 4.712h-8.436l-6.328 3.534-5.273 1.177-4.218 5.89-1.054 5.89 1.054 7.067-1.054 3.534h-6.328Z"/>
  <path fill="#7E803B" d="M431.496 146.441h6.512l9.076 2.541 3.025 7.059-140.163 14.119h-9.768l-15.193-3.388h-16.279l-36.9-1.13-4.341-3.388-2.17-3.389-1.086-6.777 2.171-3.388 1.085-3.389 4.341-3.388v-2.259l-1.085-3.389-5.426-3.388-1.086-4.518 1.086-4.518v-5.648l4.341-3.388 2.17-2.259-2.17-3.389-2.171-3.388-1.085-3.389v-4.518l1.085-3.388 1.086-3.389 2.17-2.259 3.256-2.259 5.426-1.13 4.341 1.13 2.171-1.13V80.93l-1.085-2.26-2.171-4.517-1.085-3.389v-7.906l1.085-5.648 5.426-6.777 5.427-2.259 4.341-2.259h6.511l3.256-1.13 5.427-10.165 7.596-2.259 9.768-3.388 9.435 5.647 7.059 7.907 11.093-9.036 7.06-1.13 4.423-3.388 5.426 1.13 3.256 2.258 4.341 1.13h5.426l5.427 1.13 3.255 3.388 1.086 4.518-1.086 5.647-3.255 4.518v5.648h7.596l4.342 4.518 1.085 4.518v5.647l-1.085 3.389 3.255 2.259 3.256-4.518h16.279l10.853 9.036 3.256 7.906 3.255 6.777 2.171 9.036v9.036l-2.171 4.518h8.683l6.511 3.389 5.427 1.129 4.341 5.648 1.085 5.647-1.085 6.777 1.085 3.389Z"/>
  <path fill="#7E803B" d="M46.717 199.882v7.068l124.437 17.668h9.491l14.764-3.533h15.818l35.855-1.178 4.218-3.534 2.109-3.534 1.055-7.067-2.109-3.534-1.055-3.534-4.218-3.533v-2.356l1.054-3.534 5.273-3.534 1.055-4.711-1.055-4.712v-5.889l-4.218-3.534-2.109-2.356 2.109-3.534 2.109-3.533 1.055-3.534v-4.712l-1.055-3.534-1.054-3.533-2.11-2.356-3.163-2.356-5.273-1.178-4.218 1.178-2.109-1.178v-4.711l1.054-2.356 2.109-4.712 1.055-3.534v-8.245l-1.055-5.889-5.272-7.068-5.273-2.356-4.218-2.355h-6.328l-3.163-1.178-5.273-10.602-7.382-2.355-9.491-3.534-11.6 1.178-8.437 2.356-5.272-3.534h-12.655l-5.273 1.178-3.163 2.356-4.219 1.177h-5.272l-5.273 1.178-3.164 3.534-1.054 4.712 1.054 5.89 3.164 4.711v5.889h-7.382l-4.218 4.712-1.055 4.712v5.889l1.055 3.534-3.164 2.356-3.164-4.712H95.227l-10.547 9.423-3.163 8.246-3.164 7.067-2.109 9.423v9.424l2.11 4.711h-8.437l-6.328 3.534-5.272 1.178-4.219 5.89-1.054 5.889 1.054 7.067-1.054 3.534h-6.327Zm375.154-16.135v7.067l124.438 17.669h9.491l14.764-3.534h15.818l35.855-1.178 4.218-3.534 2.109-3.533 1.055-7.068-2.109-3.534-1.055-3.533-4.218-3.534v-2.356l1.054-3.534 5.273-3.533 1.055-4.712-1.055-4.712v-5.889l-4.218-3.534-2.109-2.356 2.109-3.533 1.762-2.953h-3.549l-3.025-.581h-2.017l-4.034-3.534-2.017-3.953 3.389-13.715-4.218 1.177-2.109-1.177v-4.712l1.054-2.356-3.158-3.421 1.008-3.025v-4.034l-4.126-3.227-3.164-4.171-3.803-4.502-6.051-12.304-2.852-.653-5.272-10.601-7.382-2.356-9.491-3.534-11.6 1.178-8.437 2.356-5.272-3.534h-12.655l-5.273 1.178-3.164 2.356-4.218 1.178h-5.273l-5.272 1.178-3.164 3.534-1.055 4.711 1.055 5.89 3.164 4.711v5.89h-7.382l-4.218 4.711-1.055 4.712v5.89l1.055 3.533-3.164 2.356-3.164-4.711h-15.818l-10.546 9.423-3.163 8.245-3.164 7.068-2.109 9.423v9.423l2.109 4.712h-8.436l-6.328 3.533-5.272 1.178-4.219 5.89-1.054 5.889 1.054 7.068-1.054 3.534h-6.328Z"/>
  <path fill="#7E803B" d="M593.314 209.967v7.067l124.437 17.669h9.491l14.764-3.534h15.818l35.855-1.178 4.218-3.533 2.109-3.534 1.055-7.067-2.109-3.534-1.055-3.534-4.218-3.534V202.9l1.054-3.534 5.273-3.534 1.055-4.711-1.055-4.712v-5.89l-4.218-3.533-2.109-2.356 2.109-3.534 2.109-3.534 1.055-3.533v-4.712l-1.055-3.534-1.054-3.533-2.11-2.356-3.163-2.356-5.273-1.178-4.218 1.178-2.109-1.178v-4.712l1.054-2.355 2.109-4.712 1.055-3.534v-8.245l-1.055-5.89-5.272-7.067-5.273-2.356-4.218-2.356h-6.328l-3.163-1.178-5.273-10.6-7.382-2.356-9.491-3.534-11.6 1.178-8.437 2.356-5.272-3.534h-12.655l-5.273 1.178-3.163 2.356-4.219 1.177h-5.272l-5.273 1.178-3.164 3.534-1.054 4.712 1.054 5.889 3.164 4.712v5.889h-7.382l-4.218 4.712-1.055 4.712v5.889l1.055 3.534-3.164 2.356-3.164-4.712h-15.818l-10.545 9.423-3.164 8.246-3.164 7.067-2.109 9.423v9.424l2.109 4.711h-8.436l-6.328 3.534-5.272 1.178-4.219 5.889-1.054 5.89 1.054 7.067-1.054 3.534h-6.327Z"/>
  <path fill="#576752" stroke="#576752" d="m532.256 146.582-8.528-2.642h-12.102l-3.025-15.127-10.085 3.692-12.102-3.692-9.076 3.692-13.11 6.392-7.06 13.111 166.4 23.195 71.274 6.831 70.259 4.777 18.242.898 10.128.387-.248-4.026-3.004-15.982-1.069-.944-2.075-.883-2.957 1.192-4.909 2.323-3.02.186-4.909 2.323-3.144-1.827-3.143-1.827 1.579-7.17 5.916-2.385.634-6.102-1.13-1.951-4.088-.759-4.151-1.765-2.137-1.889-3.019.186 1.316 4.971-1.827 3.143-8.363-4.537-2.137-1.889-3.143-1.828-1.255-3.964-3.205-2.834-2.075-.882-2.369 4.187-1.286 2.1-1.007.062-4.971 1.316 1.193 2.958 6.287 3.654 5.219 2.71 6.922-2.446 5.219 2.71 3.267 3.84-4.661 6.349-10.066.62-9.183-1.456-3.964 1.255-3.02.186-6.86 3.453-6.225-2.648-2.137-1.889 4.847-3.33 5.033-.31 1.703-5.156-1.316-4.971-3.206-2.834-7.356-4.599-2.137-1.89-6.163-1.641-3.082-.821-3.964 1.255-4.027.247-2.137-1.889 2.958-1.192 1.889-2.137 4.888-5.84 7.059-4.033 9.076 1.008 7.518 2.47-4.522-5.495-4.881-2.82h-9.208l-8.722 1.5-1.068-.944-7.17-1.58-.186-3.02 1.983-.612 2.926-1.71-.186-3.02-3.268-3.841-1.068-.944-2.402-.154-2.017-2.017-2.813-.415-1.951 1.13-2.295-2.732-1.009-8.067-2.017 6.051-1.009 10.084-3.025 3.026-3.026 4.034-.782 3.57-9.121-.449-3.903 2.261-1.641 6.164.31 5.032-4.971 1.317-1.131-1.951-3.267-3.841-7.991 1.502-1.765 4.151-3.841 3.267-7.17-1.579-3.143-1.828-1.255-3.964 3.469-9.307-.124-2.013-2.571-8.935-6.163-1.642-1.688-11.01-2.137-1.89-6.163-1.64-2.323-4.91-3.33-4.847-2.917-7.798-8.645-11.093 6.08 11.594 2.565 9.584-5.476 6.051 3.159 5.12 5.281 3.716 6.535 7.681-.635 6.101-1.951 1.131-3.903 2.261-4.026.248-4.46-6.799-7.17-1.579-1.254-3.965-6.102-.634-5.667 6.411-.697 5.095-2.958 1.192-3.144-1.827-4.15-1.766-2.958 1.193-.573 7.108.372 6.039-3.964 1.255-4.667-3.293-2.017 5.043-3.955-9.044-10.163-2.449-4.034 9.743 9.536 14.077Z"/>
  <path fill="#576752" d="m395.236 134.705 8.905-.631 11.784 2.756 9.981-12.052 5.389 3.902 3.977 9.566 24.97 17.231-160.436-13.693-70.958-9.575-69.501-11.346-17.968-3.279-9.95-1.929 1.158-3.864 6.565-14.878 1.255-.676 2.222-.387 2.608 1.834 4.251 3.38 2.899.868 4.251 3.38 3.477-1.063 3.477-1.064.094-7.341-5.217-3.67.189-2.693-5.042-2.016 1.009-2.017 3.025-1.009 2.465-1.008-.448-3.026-4.034-1.008-4.034-1.009h-4.034l5.043-2.017 1.008-1.125 3.022-1.9 4.037 1.008h5.043l2.017 3.026 3.025-2.134h4.034l5.043.117 2.78 4.037-9.176 4.715-1.063 3.805 1.063 3.477 9.176-2.514 2.511-1.353 3.477-1.063 1.259-5.053 2.074-3.026h3.026l5.042 3.026h5.043l2.017 2.017 1.253 3.999 1.772 3.06-5.042-5.042h-7.06l-6.051 5.352-5.042 3.724-3.026 4.034 1.093 7.873 1.716.515 9.274.673 3.574 2.124 2.898.869 5.894 4.924 6.665-1.161 2.511-1.353-3.962-4.346-4.83-1.447-.485-5.409 2.414-4.54 3.767-2.03 8.209-2.804 2.511-1.353 6.376-.195 3.187-.098 3.575 2.124 3.864 1.158 2.511-1.353-2.608-1.834-1.354-2.511-.484-5.41 2.124-3.574.192-4.154 1.256-.676 7.341.094 15.467-9.386-6.051-3.026-11.093 1.009-4.034 1.008-3.026 2.017-1.692-3.793 3.088-6.291 3.647-4.034 3.025-5.043 6.051-3.025 4.672 2.017-1.646 2.017-1.009 6.05 3.396 3.797 1.646 3.263 4.034 2.017.544-4.034 5.507-10.085 6.051-2.017 6.051 2.017-10.35 4.034-3.025 11.093v6.051l-1.977 2.442 2.027 4.617-.05 3.654 9.341-4.662 8.118-2.267 3.699 8.87-4.757 8.119-5.385 5.875 4.541 2.414 1.545-1.643 4.056-2.995 7.439 3.282.774 4.443 2.995 4.056 7.341.095 3.478-1.064 2.124-3.575-1.259-9.852.579-1.932 4.538-8.115 6.375-.195 4.151-10.337 2.511-1.353 6.375-.195 3.379-4.251 4.346-3.962 5.139-4.735 6.56 1.165-4.034 1.008-3.026 2.017-2.795 4.507 1.347 6.47-1.158 3.864L344.7 78.5l-8.112 5.991-.771 6.086 1.643 1.545 3.285 3.09 3.864 1.158 5.891-5.604 7.341.095 2.124-3.575 6.086.77 4.059 7.534-.482 5.12 2.609 1.834 3.477-1.063 4.443-.774 2.609 1.834-1.061 7.052-1.737 5.796 3.575 2.124 5.294-2.143.816 5.369 5.91-7.906 10.454-.071 1.71 10.406-12.491 11.536Z"/>
  <path stroke="#576752" d="m177.019 104.05 9.66 2.896 9.274.673 3.574 2.124 2.898.869 5.894 4.924 6.665-1.161 2.511-1.353-3.962-4.345-4.83-1.448-.485-5.409 2.414-4.54 3.767-2.03 8.209-2.804 2.511-1.353 6.376-.195 3.187-.098 3.575 2.124 3.864 1.158 2.511-1.353-2.608-1.834-1.354-2.511-.484-5.41 2.124-3.574.192-4.154 1.256-.676 7.341.094 15.467-9.386-6.051-3.026-11.093 1.009-4.034 1.008-3.026 2.017-1.692-3.793 3.088-6.291 3.647-4.034 3.025-5.043 6.051-3.025 4.672 2.017-1.646 2.017-1.009 6.05 3.396 3.797 1.646 3.263 4.034 2.017.544-4.034 5.507-10.085 6.051-2.017 6.051 2.017-10.35 4.034-3.025 11.093v6.051l-1.977 2.442 2.027 4.617-.05 3.654 9.341-4.662 8.118-2.267 3.699 8.87-4.757 8.119-5.385 5.875 4.541 2.414 1.545-1.643 4.056-2.995 7.439 3.282.774 4.443 2.995 4.056 7.341.095 3.478-1.064 2.124-3.575-1.259-9.852.579-1.932 4.538-8.115 6.375-.195 4.151-10.337 2.511-1.353 6.375-.195 3.379-4.251 4.346-3.962 5.139-4.735 6.56 1.165-4.034 1.008-3.026 2.017-2.795 4.507 1.347 6.47-1.158 3.864L344.7 78.5l-8.112 5.991-.771 6.086 1.643 1.545 3.285 3.09 3.864 1.158 5.891-5.604 7.341.095 2.124-3.575 6.086.77 4.059 7.534-.482 5.12 2.609 1.834 3.477-1.063 4.443-.774 2.609 1.834-1.061 7.052-1.737 5.796 3.575 2.124 5.294-2.143.816 5.369 5.91-7.906 10.454-.071 1.71 10.406-12.491 11.536 8.905-.631 11.784 2.756 9.981-12.052 5.389 3.902 3.977 9.566 24.97 17.231-160.436-13.693-70.958-9.575-69.501-11.346-17.968-3.279-9.95-1.929 1.158-3.864 6.565-14.878 1.255-.676 2.222-.387 2.608 1.834 4.251 3.38 2.899.868 4.251 3.38 3.477-1.063 3.477-1.064.094-7.341-5.217-3.67.189-2.693-5.042-2.016 1.009-2.017 3.025-1.009 2.465-1.008-.448-3.026-4.034-1.008-4.034-1.009h-4.034l5.043-2.017 1.008-1.125 3.022-1.9 4.037 1.008h5.043l2.017 3.026 3.025-2.134h4.034l5.043.117 2.78 4.037-9.176 4.715-1.063 3.805 1.063 3.477 9.176-2.514 2.511-1.353 3.477-1.063 1.259-5.053 2.074-3.026h3.026l5.042 3.026h5.043l2.017 2.017 1.253 3.999 1.772 3.06-5.042-5.042h-7.06l-6.051 5.352-5.042 3.724-3.026 4.034 1.258 9.061"/>
</svg>
