<svg xmlns="http://www.w3.org/2000/svg" width="66" height="113" fill="none" viewBox="0 0 66 113">
  <path fill="#000" stroke="#000" stroke-width="2" d="m5.062 9.942.634-8.018a1 1 0 0 1 1.617-.706L18.115 9.76a1 1 0 0 0 1.22.017l9.578-7.172c.173-.13.391-.212.586-.12.558.264 1.29 1.249 1.29 3.837 0 3.916-3.22 34.46 4.828 36.81 6.31 1.842 14.68 10.356 18.294 14.626.141.167.22.372.23.59l1.545 33.098a.995.995 0 0 1-.973 1.047c-13.482.267-39.472.763-43.237.763-4.828 0-3.219-3.916-4.023-5.483-.56-1.09 2.084-2.258 4.018-2.887.464-.152.772-.602.72-1.088l-2.26-21.265c-.04-.371-.29-.682-.613-.87-5.704-3.304-4.817-21.175-3.555-30.482a1.047 1.047 0 0 0-.391-.948c-7.586-6.163-3.643-15.543-.51-19.761a1.02 1.02 0 0 0 .2-.53Z"/>
  <path fill="#000" stroke="#000" stroke-width="2" d="M34.822 109.149c23.404 6.654 29.337-4.635 29.672-12.938a.967.967 0 0 0-.037-.305l-.886-3.1a1 1 0 0 0-.255-.433l-1.246-1.247a1.004 1.004 0 0 0-.153-.125l-1.306-.87a.997.997 0 0 0-.238-.117l-2.873-.958-2.787-.711c-.217-.056-.387-.251-.608-.285-.657-.1-.795 2.847 4.328 7.28 7.242 6.266-21.02 10.433-23.433 11.216-1.768.574-1.393 1.317-.7 2.24.129.17.317.295.522.353Z"/>
  <path fill="#E64A4B" stroke="#E64A4B" d="m4.5 35.056.5-4c10.4 0 21.666-3 26-4.5.166.5.5 2.1.5 4.5s-18 3.667-27 4Z"/>
</svg>
