<svg xmlns="http://www.w3.org/2000/svg" width="1920" height="302" fill="none" viewBox="0 0 1920 302">
  <path fill="#F89B7C" d="m1924.3 136.608 10.29-2.527V45.626l-2.94-2.527-7.35-3.791-5.88-6.318-8.82-5.055h-5.88l-5.88-3.79h-19.11l-2.94 3.79-11.76 5.055h-7.36l-5.88-5.055-8.82 2.527h-11.76l-5.88 2.528-4.41 6.318h-20.58l-5.88 6.318-4.41 7.582-2.95 10.11 2.95 6.317h7.35v6.319l10.29 3.79 4.41 3.791 2.94 6.319-7.35 7.581-10.29-2.527v-7.582l-10.3-3.79-8.82 6.318-5.88 5.054-8.82-7.582-7.35 2.528-2.94-2.528H1742l-7.35 7.582-8.82 8.846h-5.88l-8.83 6.318-10.29 5.054-10.29 2.528-14.7 6.318-8.82 5.054h-24.99l-2.94 5.055 10.29 2.527 13.23 2.528h38.22l19.12 5.054h17.64l10.29 2.527h45.58l5.88-7.581 7.35-2.528h13.23l4.41-2.527h10.29v5.055l16.17 5.054h13.24l5.88-5.054 5.88-2.528 11.76-2.527 2.94 2.527h13.23l10.29-2.527 10.29 2.527Zm2.94 25.273h7.35v5.055h-2.94l-7.35 1.263h-14.7l-8.82 2.528-13.23-3.791-4.41-2.528-7.35-1.263-16.18 1.263-10.29-3.791v-5.054l10.29 1.264h10.3l5.88-1.264 14.7-2.527 10.29 1.263 8.82 1.264 5.88 3.791h7.35l4.41 2.527Zm-399.89 42.964-5.88-2.527-11.76-2.528-7.35-2.527-7.35 2.527-14.71 2.528-8.82 1.263-1.47 7.582-16.17 3.791-7.35 5.054v5.055l7.35 2.527 13.23 3.791 13.23-3.791 10.3 3.791h7.35l11.76 2.528h27.93l7.35-2.528 8.82-3.791h20.59l11.76-2.527h8.82l4.41 2.527 11.76-2.527-4.41-5.055-7.35-5.054-10.29-3.791h-20.58l-5.88 3.791h-25l-2.94-3.791-7.35-6.318Z"/>
  <path fill="#F69B68" d="m1565.91 43.586 4.29 15.556.8 2.916-11.5.03-7.78 2.143-9.72 2.678-17.91 18.533 12.81-6.667 13.61-3.75 10.87-6.131 10.69-2.946 19.28-2.173 13.47-12.973 9.08-6.051 9.13-6.443-2.07 3.215.77 3.422h8.3l5.31-3.75 6.79-3.504 2.29-5.275 4.77 5.275 8.26 1.58h6.87l7.06-3.597 2.2-4.034v-7.727l2.02-2.794 5.87 1.445 5.04-2.017 25.34-5.136L1723 14.06l5.86-3.598 2-6.042 12.12 4.552 13.3-4.552 10.91 7.05 14.3-2.498 27.04-4.552 16.32-17.59-97.58-71.382-4.77 5.497-7.14 8.244-5.54 14.078-3.21-11.668-16.29-5.972-16.53 4.553-8.01 12.67-2.92.803-14.22 9.147 1.88 6.806 2.41 8.75-6.81 1.875-6.7 6.032-12.18 12.768-9.72 2.678-5.47 6.737-.24 10.526 3.22 11.667-1.58 5.665-5.83 1.607-7.84 3.73-10.09-5.337-9.33-2.391-12 9.583-2.45 10.09ZM740.357 24.46l2.212 8.453v6.795l7.06-5.042 7.059 3.025 2.501 5.69 8.592 5.718 9.077-1.72 9.753 13.976-13.476-5.186-13.946-2.198-11.484-4.872-10.958-1.727-19.398.007-14.056-14.466-8.338-5.397-11.954-1.884 2.047 6.448-13.947-2.197-10.016-7.704-12.17 8.275-12.591-3.651-4.915-7.564 4.124-6.854-6.694 2.07-10.959-3.167L607.777 7.7l-2.274-8.573-7.09 6.541-6.236 7.185-11.23-.09-8.892-8.697-11.538 5.886-13.722-3.03-10.048 8.231-14.493-.877-27.385-1.486-35.683-28.003L565.63-84.744l5.35 4.926 8.023 7.39 7.083 13.367 1.883-11.954 15.517-7.765 16.935 2.669 9.388 11.688 2.989.471 15.154 7.492-1.099 6.974-1.412 8.965 6.973 1.1 7.342 5.24 13.53 11.32 9.962 1.57 6.188 6.08 5.519 6.512 2.198 7.827-2.198 12.16 8.338-4.753 7.005-2.468 7.051 1.602 6.435.866 13.005 8.175 3.568 9.75Z"/>
  <path fill="#F89B7C" d="m146.26 36.808 6.697 4.796 8.421-3.243 4.968-4.625 6.225.64 9.781 1.005 3.557.366-.522 5.082 4.918 4.614 7.114.73 4.446.458 10.671 1.096 6.958 10.987-8.734 6.292-5.336-.548-4.604-7.663-4.446-.457-.731 7.115-7.845 6.383-8.893-.914-9.364-5.07-7.06 7.49-4.446-.456-8.003-.822-10.253-5.163-12.032-5.345-3.243-3.415-6.225-.64-9.206 2.136-5.911-3.689-7.428 2.318-13.338-1.37-11.56-1.189L58.44 60.65l4.813 5.63 10.671 1.097 7.636-4.35 13.339 1.37 4.813 5.63 4.446.458 11.718 8.394-8.892-.914-8.421 3.243-12.45-1.28-6.224-.64-11.56-1.187-6.225-.64-10.67-1.097-19.564-2.01-10.671-1.097-5.076-11.82-3.557-.365-4.446-.458-11.56-1.188-12.45-1.279-10.67-1.097-7.535-14.127 2.507-24.393 15.792-31.246 8.577-13.498 7.114.731 5.335.548 5.39 8.771 5.335.549L22.913-4.63l10.826-9.159 7.95-7.4 9.782 1.006 9.781 1.005 5.336.548 5.335.549 5.39 8.77 4.445.458-.626 6.098 12.92 5.436-6.851 5.459-.731 7.115-7.74 5.367 7.113.731 6.225.64 6.174 9.879 5.857-4.534 8.421-3.243.627-6.099 8.892.914 9.782 1.006 7.114.73 4.709 6.648 2.616 9.513Zm87.933 27.525-6.538 2.41 5.912 3.689 5.335.548 8.317-2.227 6.224.64 3.557.365 5.912 3.69 5.335.548.627-6.099.418-4.065-4.918-4.614-9.782-1.006-11.978 2.878-8.421 3.243Zm133.293 84.571-6.225-.64 2.146 5.357 3.557.365 4.237 2.49 1.465 3.232 3.257.335 3.281-2.745 1.779.183 5.022 3.598 6.224.639 3.871-2.683 4.655-1.576 4.446.457 7.114.731 2.459 2.307 4.446.457 7.323-1.302 6.538-2.409 3.557.365-3.348-2.398-6.225-.64-5.335-.548-3.244-3.415-5.649 2.501-3.557-.366-3.766 1.668-6.224-.64.209-2.033-2.668-.274-3.244-3.415-6.224-.64-5.336-.548-3.557-.365-6.538 2.409-4.446-.457Z"/>
  <path fill="#F8A16C" d="m1223.63 122.128-5.93 5.719-8.8-1.986-5.59-3.854-6.07 1.537-9.53 2.415-3.46.879 1.25 4.952-4.19 5.279-6.94 1.757-4.33 1.098-10.4 2.635-5.29 11.881 9.56 4.957 5.2-1.318 3.44-8.25 4.33-1.098 1.76 6.933 8.69 5.176 8.67-2.196 8.52-6.377 8.08 6.386 4.33-1.098 7.8-1.976 9.39-6.597 11.13-7.036 2.71-3.85 6.07-1.537 9.42.776 5.31-4.509 7.69 1.215 12.99-3.294 11.27-2.855 13.27 5.069-3.94 6.27-10.4 2.635-8.19-3.196-13 3.294-3.94 6.27-4.33 1.098-10.38 10.007 8.67-2.196 8.8 1.986 12.13-3.074 6.07-1.538 11.26-2.854 6.07-1.538 10.4-2.635 19.06-4.831 10.4-2.635 3.3-12.432 3.47-.878 4.33-1.098 11.27-2.855 12.13-3.074 10.4-2.635 5.4-15.072-6.02-23.77-20.17-28.62-10.44-12.11-6.94 1.757-5.2 1.317-4.05 9.461-5.2 1.318-5.29 11.88-12.04-7.489-8.94-6.166-9.53 2.415-9.54 2.416-5.2 1.317-5.2 1.318-4.05 9.46-4.34 1.099.35 3.388-8.13 1.009-3.86 6.247 3.86 4.846 4.87 2.113 1.75 6.933 8.44 4.186-6.93 1.757-6.06 1.537-4.68 10.671-6.45-3.635-8.81-1.985-1.5-5.943-8.67 2.196-9.53 2.416-6.93 1.756-3.69 7.261-1.21 9.792Zm-83 40.007 6.82 1.434-5.32 4.509-5.2 1.317-8.55-.995-6.06 1.537-3.47.879-5.31 4.508-5.2 1.318-1.51-5.943-1-3.962 4.19-5.279 9.54-2.416 12.26 1.107 8.81 1.986Zm-119.6 103.036 6.07-1.537-1.35 5.611-3.46.878-3.83 3.079-.98 3.411-3.18.804-3.64-2.238-1.73.439-4.45 4.289-6.066 1.537-4.219-2.093-4.835-.883-4.332 1.098-6.933 1.757-2.097 2.639-4.333 1.098-7.434-.224-6.819-1.434-3.466.878 2.964-2.859 6.066-1.537 5.199-1.318 2.713-3.849 5.952 1.653 3.466-.878 3.969 1.102 6.065-1.537-.502-1.981 2.6-.658 2.713-3.85 6.069-1.537 5.2-1.318 3.46-.878 6.82 1.434 4.33-1.098ZM575.699 144.727l3.65 3.726 5.523-1.402 3.531-2.607 3.777.957 5.935 1.504 2.159.547-.834 3.291 2.57 3.453 4.317 1.094 2.697.683 6.475 1.641 3.188 7.812-6.023 3.376-3.237-.82-2.07-5.428-2.698-.683-1.168 4.607-5.484 3.513-5.395-1.368-5.268-4.136-5.111 4.307-2.698-.683-4.856-1.231-5.808-4.273-6.886-4.547-1.658-2.521-3.777-.957-5.896.607-3.277-2.932-4.817.881-8.093-2.051-6.485 1.17-8.878.54 4.346 1.785 4.532 3.966 5.151-2.196 8.093 2.051 2.404 4.111 2.697.683 6.387 6.521-5.396-1.367-5.523 1.402-7.554-1.914-3.777-.957-7.014-1.778-3.777-.957-6.475-1.641-11.87-3.008-6.475-1.641-1.942-8.196-2.158-.547-2.698-.684-7.014-1.777-7.554-1.915-6.475-1.64-3.227-9.923 4.002-15.795 12.891-19.145 6.651-8.12 4.317 1.094 3.237.82 2.443 6.222 3.237.82 3.188 7.812 7.603-5.077 5.651-4.17 5.935 1.503 5.935 1.504 3.238.821 3.237.82 2.443 6.222 2.698.684-1.001 3.949 7.426 4.683-4.777 2.992-1.168 4.606-5.317 2.855 4.317 1.094 3.777.957 2.815 7.017 4.071-2.47 5.523-1.402 1.001-3.949 5.396 1.368 5.935 1.504 4.316 1.094 2.237 4.769.657 6.47Zm51.494 25.656-4.277 1.017 3.276 2.931 3.237.821 5.357-.744 3.777.957 2.158.547 3.277 2.932 3.237.82 1.001-3.949.667-2.632-2.571-3.453-5.935-1.504-7.681.855-5.523 1.402Zm73.743 67.013-3.777-.957.784 3.701 2.159.547 2.364 2 .579 2.248 1.976.501 2.301-1.519 1.079.274 2.737 2.795 3.777.957 2.659-1.428 3.031-.632 2.698.683 4.316 1.094 1.285 1.727 2.698.683 4.65-.222 4.277-1.017 2.159.547-1.825-1.863-3.777-.958-3.237-.82-1.658-2.521-3.738 1.154-2.158-.547-2.492.769-3.777-.957.334-1.316-1.619-.41-1.658-2.522-3.777-.957-3.237-.82-2.158-.547-4.278 1.017-2.697-.684Zm232.054-77.042 4.398 2.802 5.062-2.616 2.849-3.339 3.896.076 6.122.121 2.226.044-.067 3.393 3.285 2.781 4.453.088 2.782.055 6.678.131 4.875 6.887-5.102 4.652-3.339-.065-3.246-4.817-2.782-.055-.094 4.751-4.545 4.664-5.565-.109-6.068-2.836-4.003 5.354-2.782-.055-5.009-.099-6.624-2.846-7.738-2.869-2.186-2.08-3.896-.076-5.605 1.926-3.855-2.113-4.492 1.949-8.348-.164-7.235-.143-7.341 5.288 3.272 3.46 6.678.131 4.519-3.306 8.348.164 3.272 3.46 2.782.055 7.698 4.905-5.565-.11-5.062 2.617-7.791-.154-3.896-.076-7.234-.143-3.896-.076-6.678-.132-12.243-.241-6.678-.131-3.749-7.543-2.226-.044-2.782-.055-7.235-.142-7.791-.154-6.678-.131-5.392-8.934.321-16.291 8.219-21.567 4.639-9.416 4.452.088 3.339.065 3.788 5.507 3.34.066 4.874 6.887 6.256-6.668 4.559-5.343 6.121.121 6.122.12 3.339.066 3.339.066 3.789 5.507 2.782.055-.08 4.072 8.294 2.88-3.976 3.996-.093 4.751-4.532 3.985 4.452.088 3.895.077 4.332 6.196 3.406-3.328 5.062-2.617.08-4.072 5.565.109 6.122.121 4.452.087 3.259 4.139 2.106 6.153Zm55.966 13.324-3.935 1.96 3.855 2.113 3.339.065 5.049-1.938 3.896.077 2.23.044 3.85 2.113 3.34.066.08-4.073.05-2.715-3.28-2.781-6.12-.121-7.292 2.573-5.062 2.617Zm87.004 48.566-3.89-.076 1.6 3.426 2.23.044 2.75 1.413 1.07 2.058 2.04.04 1.9-2 1.11.022 3.3 2.102 3.9.077 2.26-1.993 2.81-1.303 2.79.055 4.45.088 1.64 1.39 2.78.055 4.48-1.27 3.94-1.96 2.22.044-2.2-1.401-3.89-.077-3.34-.066-2.19-2.08-3.38 1.971-2.22-.044-2.25 1.314-3.9-.077.03-1.357-1.67-.033-2.19-2.08-3.89-.077-3.34-.066-2.23-.044-3.93 1.96-2.79-.055Z"/>
</svg>
