<svg xmlns="http://www.w3.org/2000/svg" width="1522" height="804" fill="none" viewBox="0 0 1522 804">
  <g clip-path="url(#a)" data-figma-skip-parse="true">
    <path fill="url(#b)" d="M0 0h1086.07v1004.01H0z" shape-rendering="crispEdges" transform="matrix(.7967 0 0 .2491 864.27 777.539)"/>
    <path fill="url(#b)" d="M0 0h1086.07v1004.01H0z" shape-rendering="crispEdges" transform="matrix(.7967 0 0 -.2491 864.27 777.539)"/>
    <path fill="url(#b)" d="M0 0h1086.07v1004.01H0z" shape-rendering="crispEdges" transform="matrix(-.7967 0 0 .2491 864.27 777.539)"/>
    <path fill="url(#b)" d="M0 0h1086.07v1004.01H0z" shape-rendering="crispEdges" transform="matrix(-.7967 0 0 -.2491 864.27 777.539)"/>
  </g>
  <path d="m0 788.633 1660.97-260.189v498.186H67.568L0 788.633Z" data-figma-gradient-fill="{&quot;type&quot;:&quot;GRADIENT_DIAMOND&quot;,&quot;stops&quot;:[{&quot;color&quot;:{&quot;r&quot;:0.89423078298568726,&quot;g&quot;:0.67389744520187378,&quot;b&quot;:0.36543083190917969,&quot;a&quot;:1.0},&quot;position&quot;:0.0},{&quot;color&quot;:{&quot;r&quot;:0.71735680103302002,&quot;g&quot;:0.46842256188392639,&quot;b&quot;:0.39956840872764587,&quot;a&quot;:0.60096156597137451},&quot;position&quot;:0.66346156597137451},{&quot;color&quot;:{&quot;r&quot;:0.45098039507865906,&quot;g&quot;:0.45098039507865906,&quot;b&quot;:0.45098039507865906,&quot;a&quot;:0.0},&quot;position&quot;:1.0}],&quot;stopsVar&quot;:[{&quot;color&quot;:{&quot;r&quot;:0.89423078298568726,&quot;g&quot;:0.67389744520187378,&quot;b&quot;:0.36543083190917969,&quot;a&quot;:1.0},&quot;position&quot;:0.0},{&quot;color&quot;:{&quot;r&quot;:0.71735680103302002,&quot;g&quot;:0.46842256188392639,&quot;b&quot;:0.39956840872764587,&quot;a&quot;:0.60096156597137451},&quot;position&quot;:0.66346156597137451},{&quot;color&quot;:{&quot;r&quot;:0.45098039507865906,&quot;g&quot;:0.45098039507865906,&quot;b&quot;:0.45098039507865906,&quot;a&quot;:0.0},&quot;position&quot;:1.0}],&quot;transform&quot;:{&quot;m00&quot;:1593.40332031250,&quot;m01&quot;:0.0,&quot;m02&quot;:67.5683593750,&quot;m10&quot;:0.0,&quot;m11&quot;:498.18997192382812,&quot;m12&quot;:528.44451904296875},&quot;opacity&quot;:1.0,&quot;blendMode&quot;:&quot;NORMAL&quot;,&quot;visible&quot;:true}"/>
  <path fill="#79625B" fill-opacity=".4" d="m1221.27 810.819-98.83-97.822 412.47-17.145L1546 821.913l-324.73-11.094Z"/>
  <path fill="#A2431B" d="M390.282 238.002H537.52l-29.246 484.071-117.992 2.017V238.002Z"/>
  <path fill="#9B401C" d="M390.282 238.002H537.52l-22.186 483.062-125.052 3.026V238.002Zm975.328 1.354h81.1l-3.57 484.751h-77.53V239.356Z"/>
  <path fill="#4B2A20" d="m1535.91 267.692-93.26-27.673v484.088l93.26-33.396V267.692Z"/>
  <path fill="#945D3C" d="m1543.99 73.623-98.84-49.42v217.242l98.84 28.828V73.623Z"/>
  <path fill="#3B211B" d="m1535.92 246.095-92.78-6.076v26.71l92.78 3.544v-24.178Z"/>
  <path fill="#4A2418" d="m1443.97 237.634-79.49-4.645 1.3 33.828 77.36 1.439.83-30.622Z"/>
  <path fill="#652B18" d="M390.282 238.002h145.221v24.204H390.282z"/>
  <path fill="#436171" d="M347.926 0H1445.6l3.59 24.204H347.926V0Z"/>
  <path fill="#20485E" d="M1445.15 24.204V0l94.79 50.283v25.142l-94.79-51.221Z"/>
  <path fill="#794424" d="M1445.15 37.314v-13.11l92.78 41.683v11.766l-92.78-40.34Z"/>
  <path fill="#163940" d="M523.402 240.019h873.345v10.085H523.402z"/>
  <path stroke="#853615" stroke-width="4" d="M390.282 318.68h127.069m835.019 0h90.77m-90.77 80.679h90.77m-90.77 80.678h90.77m-90.77 80.679h90.77m-90.77 80.678h90.77m-76.65 80.679h76.65M390.282 399.374l135.136-.015M390.282 641.41l135.136-.016m-135.136 80.694 121.018-.015M390.282 399.374l135.136-.015M390.282 560.731l135.136-.015m-135.136-80.663 135.136-.016"/>
  <path fill="#1C4555" d="M1122.44 582.902h225.9v129.086h-225.9z"/>
  <path fill="#F9C86C" d="M1134.54 322.714h213.798v252.12H1134.54z" opacity=".75"/>
  <path fill="#A3A688" d="M1140.59 354.986h20.17v227.916h-20.17V354.986Z"/>
  <path fill="#1C4555" d="M549.622 582.902h201.696v129.086H549.622z"/>
  <path fill="#FBD175" d="M547.605 312.629h808.802v42.356H547.605z"/>
  <path fill="#E67F39" d="M549.622 562.733H783.59v24.204H549.622zm576.848 0h233.968v24.204H1126.47z"/>
  <path fill="#823617" d="M507.266 262.205h28.238v445.638l-25.212 16.247-3.026-461.885Z"/>
  <path stroke="#AB7D61" stroke-width="9" d="m946.964 707.954-62.526 121.018"/>
  <path stroke="#9B6F54" stroke-width="9" d="m1118.41 707.954 110.93 110.933"/>
  <path stroke="#AB7D61" stroke-width="9" d="m773.505 707.954-225.9 110.933"/>
  <path fill="#FCD579" d="M549.622 354.986h203.713v207.747H549.622z" opacity=".75"/>
  <path fill="#285C68" d="M1344.31 359.881h22.187v352.107h-22.187zm-810.823 0h22.187v352.107h-22.187zm217.831 13.693v-13.693h389.274v13.693z"/>
  <path fill="#285C68" d="M535.504 711.988V690.47h820.904v21.518z"/>
  <path fill="#285C68" d="M751.318 359.881h32.271v352.107h-32.271zm357.002 0h34.288v352.107h-34.288z"/>
  <path fill="#103A4B" d="M533.486 322.714h22.187v37.167h-22.187z"/>
  <path stroke="#1C4B5B" stroke-width="6" d="M765.438 353.035v358.953m361.032-357.975-2.01 357.975"/>
  <path fill="#103A4B" d="M751.318 322.714h18.153v26.221h-18.153z"/>
  <path fill="#103A4B" d="M547.605 346.918h818.887v14.119H547.605zm574.835-34.289h18.153v34.288h-18.153zm225.9 2.017h18.153v32.271h-18.153zm-421.545 8.068h18.153v24.204h-18.153z"/>
  <path fill="#F9C469" d="M347.926 24.204h1097.23v215.815H347.926z"/>
  <path fill="#DE964D" d="M347.926 24.204h1097.23v12.102H347.926z"/>
  <path stroke="#853615" stroke-width="4" d="M1403.81 267.248V724.09M430.621 262.205l1.009 461.885m45.382-461.885V724.09"/>
  <path fill="url(#c)" d="m497.181 300.423 26.221-51.328h873.348l-19.07 51.328v22.291H497.181v-22.291Z"/>
  <path fill="#173845" d="M497.181 300.528h879.396v22.187H497.181z"/>
  <path fill="#37768F" d="m497.181 300.528 2.017-4.034h435.158l224.144.366 111.06.734 107.02 1.833v1.101H497.181Z"/>
  <defs>
    <linearGradient id="b" x1="0" x2="500" y1="0" y2="500" gradientUnits="userSpaceOnUse">
      <stop stop-color="#E4AC5D"/>
      <stop offset=".663" stop-color="#B77766" stop-opacity=".601"/>
      <stop offset="1" stop-color="#737373" stop-opacity="0"/>
    </linearGradient>
    <linearGradient id="c" x1="497.181" x2="1396.75" y1="285.905" y2="285.905" gradientUnits="userSpaceOnUse">
      <stop stop-color="#2F7089"/>
      <stop offset=".298" stop-color="#1C4555"/>
    </linearGradient>
    <clipPath id="a">
      <path d="m0 788.633 1660.97-260.189v498.186H67.568L0 788.633Z"/>
    </clipPath>
  </defs>
</svg>
