<svg xmlns="http://www.w3.org/2000/svg" width="1521" height="802" fill="none" viewBox="0 0 1521 802">
  <g clip-path="url(#a)" data-figma-skip-parse="true">
    <path fill="url(#b)" d="M0 0h1086.07v716.435H0z" shape-rendering="crispEdges" transform="matrix(.7967 0 0 .2491 864.27 777.54)"/>
    <path fill="url(#b)" d="M0 0h1086.07v716.435H0z" shape-rendering="crispEdges" transform="matrix(.7967 0 0 -.2491 864.27 777.54)"/>
    <path fill="url(#b)" d="M0 0h1086.07v716.435H0z" shape-rendering="crispEdges" transform="matrix(-.7967 0 0 .2491 864.27 777.54)"/>
    <path fill="url(#b)" d="M0 0h1086.07v716.435H0z" shape-rendering="crispEdges" transform="matrix(-.7967 0 0 -.2491 864.27 777.54)"/>
  </g>
  <path d="M0 716.998 534.5 708h1126.47v247H67.568L0 716.998Z" data-figma-gradient-fill="{&quot;type&quot;:&quot;GRADIENT_DIAMOND&quot;,&quot;stops&quot;:[{&quot;color&quot;:{&quot;r&quot;:0.89423078298568726,&quot;g&quot;:0.67389744520187378,&quot;b&quot;:0.36543083190917969,&quot;a&quot;:1.0},&quot;position&quot;:0.0},{&quot;color&quot;:{&quot;r&quot;:0.71735680103302002,&quot;g&quot;:0.46842256188392639,&quot;b&quot;:0.39956840872764587,&quot;a&quot;:0.60096156597137451},&quot;position&quot;:0.66346156597137451},{&quot;color&quot;:{&quot;r&quot;:0.45098039507865906,&quot;g&quot;:0.45098039507865906,&quot;b&quot;:0.45098039507865906,&quot;a&quot;:0.0},&quot;position&quot;:1.0}],&quot;stopsVar&quot;:[{&quot;color&quot;:{&quot;r&quot;:0.89423078298568726,&quot;g&quot;:0.67389744520187378,&quot;b&quot;:0.36543083190917969,&quot;a&quot;:1.0},&quot;position&quot;:0.0},{&quot;color&quot;:{&quot;r&quot;:0.71735680103302002,&quot;g&quot;:0.46842256188392639,&quot;b&quot;:0.39956840872764587,&quot;a&quot;:0.60096156597137451},&quot;position&quot;:0.66346156597137451},{&quot;color&quot;:{&quot;r&quot;:0.45098039507865906,&quot;g&quot;:0.45098039507865906,&quot;b&quot;:0.45098039507865906,&quot;a&quot;:0.0},&quot;position&quot;:1.0}],&quot;transform&quot;:{&quot;m00&quot;:1593.40332031250,&quot;m01&quot;:0.0,&quot;m02&quot;:67.5683593750,&quot;m10&quot;:0.0,&quot;m11&quot;:498.1901855468750,&quot;m12&quot;:528.44451904296875},&quot;opacity&quot;:1.0,&quot;blendMode&quot;:&quot;NORMAL&quot;,&quot;visible&quot;:true}"/>
  <path fill="#79625B" fill-opacity=".4" d="m1221.27 810.819-98.83-97.822 412.47-17.145L1546 821.913l-324.73-11.094Z"/>
  <path fill="#A2431B" d="M390.282 238.002H537.52l-29.246 484.071-117.992 2.017V238.002Z"/>
  <path fill="#9B401C" d="M390.282 238.002H537.52l-22.186 483.062-125.052 3.026V238.002Zm975.328 1.354h81.1l-3.57 484.751h-77.53V239.356Z"/>
  <path fill="#4B2A20" d="m1535.91 267.692-93.26-27.673v484.088l93.26-33.396V267.692Z"/>
  <path fill="#957845" d="m1543.99 73.623-98.84-49.42v217.242l98.84 28.828V73.623Z"/>
  <path fill="#3B211B" d="m1535.92 246.095-92.78-6.076v26.71l92.78 3.544v-24.178Z"/>
  <path fill="#4A2418" d="m1443.97 237.634-79.49-4.645 1.3 33.829 77.36 1.438.83-30.622Z"/>
  <path fill="#652B18" d="M390.282 238.002h145.221v24.204H390.282z"/>
  <path fill="#436171" d="M347.926 0H1445.6l3.59 24.204H347.926V0Z"/>
  <path fill="#10414B" d="M1445.15 24.204V0l94.79 50.283v25.142l-94.79-51.221Z"/>
  <path fill="#794424" d="M1445.15 37.314v-13.11l92.78 41.683v11.766l-92.78-40.34Z"/>
  <path fill="#10414B" d="M523.402 240.019h873.345v10.085H523.402z"/>
  <path stroke="#853615" stroke-width="4" d="M390.282 318.68h127.069m835.019 0h90.77m-90.77 80.679h90.77m-90.77 80.678h90.77m-90.77 80.679h90.77m-90.77 80.678h90.77m-76.65 80.679h76.65M390.282 399.374l135.136-.015M390.282 641.41l135.136-.016m-135.136 80.694 121.018-.015M390.282 399.374l135.136-.015M390.282 560.731l135.136-.015m-135.136-80.663 135.136-.015m878.392-212.79V724.09M430.621 262.205l1.009 461.885m45.382-461.885V724.09"/>
  <path fill="#FBD175" d="M547.605 312.629h808.802v42.356H547.605z"/>
  <path fill="#823617" d="M507.266 262.205h28.238v445.638l-25.212 16.247-3.026-461.885Z"/>
  <path stroke="#AB7D61" stroke-width="9" d="m946.964 707.954-62.526 121.018"/>
  <path stroke="#9B6F54" stroke-width="9" d="m1118.41 707.954 110.93 110.933"/>
  <path stroke="#AB7D61" stroke-width="9" d="m773.505 707.954-225.9 110.933"/>
  <mask id="c" width="214" height="228" x="1135" y="347" maskUnits="userSpaceOnUse" style="mask-type:alpha">
    <path fill="#F9CD75" d="M1135 347h214v228h-214z"/>
  </mask>
  <g mask="url(#c)">
    <path fill="#F9CD75" d="M1135 347h214v228h-214z"/>
    <path fill="#FFD98D" d="m1142.36 283-42.31 48.717 276.94 251.402 43.36-47.759L1142.36 283Z"/>
  </g>
  <path fill="#A3A688" d="M1154.72 355.394h6v230h-6v-230Z"/>
  <path fill="#E1885B" d="M1126.72 562.394h218v23h-218z"/>
  <path stroke="#1C4B55" d="m1215.62 470.047 26.75-22.186 27.71 22.186"/>
  <path fill="#397B41" d="M1198.12 463.881a4.002 4.002 0 0 1 4-3.918h82.03c2.24 0 4.04 1.841 4 4.081l-.58 28.305a3.997 3.997 0 0 1-4 3.919h-82.02a3.999 3.999 0 0 1-4-4.081l.57-28.306Z"/>
  <path fill="#fff" d="M1227.03 486.589c-.86 0-1.54-.189-2.04-.566-.49-.378-.85-.948-1.06-1.709-.21-.762-.32-1.716-.32-2.862v-7.578c0-.989.1-1.849.3-2.578.19-.729.54-1.296 1.04-1.699.5-.404 1.21-.606 2.13-.606.69 0 1.25.117 1.69.352.44.228.77.556 1.01.986.24.423.4.934.49 1.533.1.599.14 1.27.14 2.012v7.578c0 1.146-.1 2.1-.31 2.862-.2.761-.55 1.331-1.05 1.709-.48.377-1.16.566-2.02.566Zm0-1.738c.37 0 .66-.105.85-.313.2-.215.33-.57.4-1.064.07-.495.11-1.162.11-2.002v-7.715c0-1.029-.08-1.79-.24-2.285-.17-.495-.52-.742-1.07-.742-.57 0-.95.247-1.15.742-.2.488-.29 1.246-.29 2.275v7.725c0 .846.03 1.517.1 2.011.07.489.21.84.41 1.055.2.208.5.313.88.313Zm6.8 1.543v-17.188h3.46c.68 0 1.23.114 1.66.342.42.228.75.557.98.986.23.43.38.948.46 1.553.09.605.13 1.286.13 2.041v.264c0 1.152-.09 2.119-.28 2.9-.17.781-.49 1.37-.96 1.768-.46.39-1.13.586-1.99.586h-1.44v6.748h-2.02Zm2.02-8.428h1.23c.4 0 .7-.111.9-.332.2-.228.34-.602.41-1.123.08-.521.12-1.227.12-2.119v-.332c0-1.107-.09-1.924-.26-2.452-.17-.533-.54-.8-1.12-.8h-1.28v7.158Zm7.51 8.428v-17.188h5.14v1.68h-3.12v5.879h2.95v1.679h-2.95v6.27h3.15v1.68h-5.17Zm8.18 0v-17.188h1.52l3.99 11.699-.21-4.97v-6.729h1.79v17.188h-1.48l-3.86-11.797.12 4.336v7.461h-1.87Z"/>
  <path fill="#1C4C55" d="M1126.72 585.394h222v127h-222z"/>
  <path fill="#285C68" d="M1126.72 360.394h28v352h-28z"/>
  <path stroke="#1C4B55" stroke-width="6" d="M1140.72 360.394v351"/>
  <mask id="d" width="215" height="253" x="538" y="322" maskUnits="userSpaceOnUse" style="mask-type:alpha">
    <path fill="#F9CD75" d="M752.62 322.394H538.822v252.12H752.62z"/>
  </mask>
  <g mask="url(#d)">
    <path fill="#F9CD75" d="M752.62 322.394H538.822v252.12H752.62z"/>
    <path fill="#FFD98D" d="m482.397 286-57.151 65.459L752.369 648.42l58.397-64.329L482.397 286Z"/>
  </g>
  <path fill="#A3A688" d="M732.72 360.394h-6v225h6v-225Z"/>
  <path fill="#E1885B" d="M760.72 562.394h-205v24h205z"/>
  <path fill="#1C4C55" d="M760.839 584.978h-222v127h222z"/>
  <path fill="#285C68" d="M760.839 359.978h-28v352h28z"/>
  <path stroke="#1C4B55" stroke-width="6" d="M746.839 359.978v351"/>
  <path fill="#285C68" d="M1344.7 359.976h22.187v352.107H1344.7zm-810.377.323h22.187v352.107h-22.187z"/>
  <path fill="#10414B" d="M534.323 322.299h22v39h-22z"/>
  <path fill="#285C68" d="M535.72 712.394v-22h821v22z"/>
  <path fill="#10414B" d="M751.716 322.809h18.153v26.221h-18.153z"/>
  <path fill="#10414B" d="M548.002 347.013h818.887v14.119H548.002z"/>
  <path fill="#10414B" d="M1122.84 312.725h18.153v34.288h-18.153zm225.9 2.016h18.153v32.271h-18.153zm-421.548 8.068h18.153v24.204h-18.153z"/>
  <path fill="#FFC460" d="M348.323 24.299h1097.23v215.815H348.323z"/>
  <path fill="#F88B55" d="M348.323 24.299h1097.23v12.102H348.323z"/>
  <path fill="url(#e)" d="m497.578 300.518 26.221-51.328h873.341l-19.06 51.328v22.291H497.578v-22.291Z"/>
  <path fill="#10414B" d="M497.578 300.623h879.396v22.187H497.578z"/>
  <path fill="#37828F" d="m497.578 300.623 2.017-4.034h435.158l224.137.367 111.06.733 107.02 1.834v1.1H497.578Z"/>
  <path fill="#6BB0AE" d="M337 168h1108.5v52.441H337V168Z"/>
  <path fill="#126965" d="m1542.37 196-96.82-28.302V220l96.82 10.029V196Z"/>
  <path fill="#27495B" d="M721.613 209.455c-1.657 0-3.214-.327-4.673-.98a12.327 12.327 0 0 1-3.85-2.747 13.198 13.198 0 0 1-2.59-4.043c-.618-1.54-.927-3.185-.927-4.935 0-1.762.309-3.407.927-4.935a12.913 12.913 0 0 1 2.59-4.042 12.07 12.07 0 0 1 3.85-2.73 11.132 11.132 0 0 1 4.673-.998c1.983 0 3.809.461 5.477 1.383a12.266 12.266 0 0 1 4.148 3.657l-4.305 2.328a7.297 7.297 0 0 0-2.363-1.838 6.448 6.448 0 0 0-2.957-.7 6.53 6.53 0 0 0-2.8.613 7.312 7.312 0 0 0-2.31 1.697 8.18 8.18 0 0 0-1.54 2.503 8.263 8.263 0 0 0-.56 3.062 8.36 8.36 0 0 0 .56 3.063 8.175 8.175 0 0 0 1.54 2.502 7.685 7.685 0 0 0 2.31 1.698 6.544 6.544 0 0 0 2.8.612 6.38 6.38 0 0 0 2.957-.7 7.514 7.514 0 0 0 2.363-1.855l4.305 2.345a12.519 12.519 0 0 1-4.148 3.658c-1.668.921-3.494 1.382-5.477 1.382Zm27.563 0c-1.656 0-3.214-.327-4.672-.98a12.304 12.304 0 0 1-3.85-2.747 13.01 13.01 0 0 1-2.608-4.043c-.63-1.54-.945-3.185-.945-4.935 0-1.75.315-3.389.945-4.917a12.939 12.939 0 0 1 2.608-4.06 12.048 12.048 0 0 1 3.85-2.73 11.128 11.128 0 0 1 4.672-.998c1.669 0 3.232.333 4.69.998a12.048 12.048 0 0 1 3.85 2.73 12.683 12.683 0 0 1 2.59 4.06c.63 1.528.945 3.167.945 4.917s-.315 3.395-.945 4.935a12.75 12.75 0 0 1-2.59 4.043 12.304 12.304 0 0 1-3.85 2.747c-1.458.653-3.021.98-4.69.98Zm0-4.83c.992 0 1.925-.204 2.8-.612a7.557 7.557 0 0 0 2.31-1.715 8.031 8.031 0 0 0 1.558-2.503c.385-.945.577-1.96.577-3.045s-.192-2.1-.577-3.045a7.75 7.75 0 0 0-1.558-2.502 7.3 7.3 0 0 0-2.31-1.698 6.387 6.387 0 0 0-2.8-.63 6.39 6.39 0 0 0-2.8.63 7.3 7.3 0 0 0-2.31 1.698 8.268 8.268 0 0 0-1.575 2.502 8.219 8.219 0 0 0-.56 3.045 8.36 8.36 0 0 0 .56 3.063c.385.945.91 1.779 1.575 2.502a7.685 7.685 0 0 0 2.31 1.698 6.547 6.547 0 0 0 2.8.612ZM767.825 209v-24.5h8.12c1.691 0 3.272.321 4.742.963 1.482.63 2.783 1.51 3.903 2.642a12.1 12.1 0 0 1 2.642 3.903c.642 1.47.963 3.05.963 4.742 0 1.692-.321 3.278-.963 4.76a12.365 12.365 0 0 1-2.642 3.903c-1.12 1.12-2.421 2-3.903 2.642-1.47.63-3.051.945-4.742.945h-8.12Zm4.83-4.83h3.29a7.043 7.043 0 0 0 2.835-.577 7.685 7.685 0 0 0 2.38-1.593 7.336 7.336 0 0 0 1.61-2.362 7.082 7.082 0 0 0 .595-2.888 6.957 6.957 0 0 0-.595-2.87 7.326 7.326 0 0 0-1.61-2.362 7.325 7.325 0 0 0-2.363-1.61 7.083 7.083 0 0 0-2.852-.578h-3.29v14.84ZM794.43 209v-24.5h15.505v4.83H799.26v4.13h8.33v4.83h-8.33v5.88h10.675V209H794.43Zm34.754 0v-24.5h14.525v4.83h-9.695v4.13h8.015v4.83h-8.015V209h-4.83Zm31.76.455c-1.657 0-3.214-.327-4.673-.98a12.327 12.327 0 0 1-3.85-2.747 13.025 13.025 0 0 1-2.607-4.043c-.63-1.54-.945-3.185-.945-4.935 0-1.75.315-3.389.945-4.917a12.954 12.954 0 0 1 2.607-4.06 12.07 12.07 0 0 1 3.85-2.73 11.132 11.132 0 0 1 4.673-.998c1.668 0 3.231.333 4.69.998a12.07 12.07 0 0 1 3.85 2.73 12.717 12.717 0 0 1 2.59 4.06c.63 1.528.945 3.167.945 4.917s-.315 3.395-.945 4.935a12.784 12.784 0 0 1-2.59 4.043 12.327 12.327 0 0 1-3.85 2.747c-1.459.653-3.022.98-4.69.98Zm0-4.83c.991 0 1.925-.204 2.8-.612a7.557 7.557 0 0 0 2.31-1.715 8.01 8.01 0 0 0 1.557-2.503c.385-.945.578-1.96.578-3.045s-.193-2.1-.578-3.045a7.73 7.73 0 0 0-1.557-2.502 7.3 7.3 0 0 0-2.31-1.698 6.39 6.39 0 0 0-2.8-.63c-.992 0-1.925.21-2.8.63a7.3 7.3 0 0 0-2.31 1.698 8.268 8.268 0 0 0-1.575 2.502 8.199 8.199 0 0 0-.56 3.045c0 1.085.186 2.106.56 3.063.385.945.91 1.779 1.575 2.502a7.685 7.685 0 0 0 2.31 1.698 6.544 6.544 0 0 0 2.8.612ZM879.592 209v-24.5h9.73c1.33 0 2.532.338 3.605 1.015a7.224 7.224 0 0 1 2.573 2.695c.641 1.12.962 2.363.962 3.728 0 1.073-.186 2.07-.56 2.992a7.379 7.379 0 0 1-3.937 4.008L897.792 209h-5.565l-5.582-9.625h-2.223V209h-4.83Zm4.83-14.455h4.323c.525 0 1.003-.128 1.435-.385a2.974 2.974 0 0 0 1.05-1.067c.268-.455.402-.957.402-1.505 0-.537-.134-1.027-.402-1.47a2.931 2.931 0 0 0-1.05-1.085 2.66 2.66 0 0 0-1.435-.403h-4.323v5.915Zm43.657 14.91c-1.704 0-3.29-.332-4.76-.997a12.096 12.096 0 0 1-3.833-2.748 12.965 12.965 0 0 1-2.537-4.077c-.607-1.54-.91-3.18-.91-4.918 0-1.867.332-3.57.997-5.11.665-1.54 1.569-2.87 2.713-3.99a12.15 12.15 0 0 1 3.885-2.607 11.53 11.53 0 0 1 4.55-.928c1.726 0 3.418.403 5.075 1.208 1.656.805 3.138 2.082 4.445 3.832l-4.305 2.31c-.747-.863-1.581-1.505-2.503-1.925a6.575 6.575 0 0 0-2.782-.63 6.71 6.71 0 0 0-2.73.578 7.21 7.21 0 0 0-2.31 1.645 8.002 8.002 0 0 0-1.61 2.52c-.397.968-.595 2.035-.595 3.202 0 1.085.186 2.1.56 3.045.385.945.91 1.773 1.575 2.485a7.432 7.432 0 0 0 2.31 1.68 6.853 6.853 0 0 0 2.835.595c.618 0 1.225-.087 1.82-.262a7.09 7.09 0 0 0 1.732-.805 6.9 6.9 0 0 0 1.505-1.313 8.56 8.56 0 0 0 1.225-1.82h-3.797v-4.2h9.485c.07 1.808-.193 3.512-.788 5.11a13.004 13.004 0 0 1-2.555 4.235 12.151 12.151 0 0 1-3.885 2.853c-1.481.688-3.086 1.032-4.812 1.032Zm30.092 0c-1.656 0-3.214-.327-4.672-.98a12.304 12.304 0 0 1-3.85-2.747 13.01 13.01 0 0 1-2.608-4.043c-.63-1.54-.945-3.185-.945-4.935 0-1.75.315-3.389.945-4.917a12.939 12.939 0 0 1 2.608-4.06 12.048 12.048 0 0 1 3.85-2.73 11.128 11.128 0 0 1 4.672-.998c1.669 0 3.232.333 4.69.998a12.048 12.048 0 0 1 3.85 2.73 12.683 12.683 0 0 1 2.59 4.06c.63 1.528.945 3.167.945 4.917s-.315 3.395-.945 4.935a12.75 12.75 0 0 1-2.59 4.043 12.304 12.304 0 0 1-3.85 2.747c-1.458.653-3.021.98-4.69.98Zm0-4.83c.992 0 1.925-.204 2.8-.612a7.557 7.557 0 0 0 2.31-1.715 8.031 8.031 0 0 0 1.558-2.503c.385-.945.577-1.96.577-3.045s-.192-2.1-.577-3.045a7.75 7.75 0 0 0-1.558-2.502 7.3 7.3 0 0 0-2.31-1.698 6.387 6.387 0 0 0-2.8-.63 6.39 6.39 0 0 0-2.8.63 7.3 7.3 0 0 0-2.31 1.698 8.268 8.268 0 0 0-1.575 2.502 8.219 8.219 0 0 0-.56 3.045 8.36 8.36 0 0 0 .56 3.063c.385.945.91 1.779 1.575 2.502a7.685 7.685 0 0 0 2.31 1.698 6.547 6.547 0 0 0 2.8.612Zm30.092 4.83c-1.657 0-3.214-.327-4.672-.98a12.304 12.304 0 0 1-3.85-2.747 13.01 13.01 0 0 1-2.608-4.043c-.63-1.54-.945-3.185-.945-4.935 0-1.75.315-3.389.945-4.917a12.939 12.939 0 0 1 2.608-4.06 12.048 12.048 0 0 1 3.85-2.73 11.125 11.125 0 0 1 4.672-.998c1.668 0 3.232.333 4.69.998a12.06 12.06 0 0 1 3.85 2.73 12.7 12.7 0 0 1 2.59 4.06c.627 1.528.947 3.167.947 4.917s-.32 3.395-.947 4.935a12.767 12.767 0 0 1-2.59 4.043 12.315 12.315 0 0 1-3.85 2.747c-1.458.653-3.022.98-4.69.98Zm0-4.83c.992 0 1.925-.204 2.8-.612a7.557 7.557 0 0 0 2.31-1.715 8.031 8.031 0 0 0 1.558-2.503c.385-.945.577-1.96.577-3.045s-.192-2.1-.577-3.045a7.75 7.75 0 0 0-1.558-2.502 7.3 7.3 0 0 0-2.31-1.698 6.387 6.387 0 0 0-2.8-.63c-.992 0-1.925.21-2.8.63a7.3 7.3 0 0 0-2.31 1.698 8.268 8.268 0 0 0-1.575 2.502 8.219 8.219 0 0 0-.56 3.045 8.36 8.36 0 0 0 .56 3.063c.385.945.91 1.779 1.575 2.502a7.685 7.685 0 0 0 2.31 1.698 6.544 6.544 0 0 0 2.8.612ZM1006.91 209v-24.5h8.12c1.69 0 3.27.321 4.74.963 1.49.63 2.79 1.51 3.91 2.642a12.111 12.111 0 0 1 2.64 3.903c.64 1.47.96 3.05.96 4.742 0 1.692-.32 3.278-.96 4.76a12.418 12.418 0 0 1-6.55 6.545c-1.47.63-3.05.945-4.74.945h-8.12Zm4.83-4.83h3.29c1 0 1.95-.192 2.84-.577a7.792 7.792 0 0 0 2.38-1.593 7.549 7.549 0 0 0 1.61-2.362c.39-.899.59-1.861.59-2.888s-.2-1.983-.59-2.87a7.537 7.537 0 0 0-1.61-2.362 7.365 7.365 0 0 0-2.37-1.61 7.032 7.032 0 0 0-2.85-.578h-3.29v14.84Z"/>
  <path fill="#436171" d="M1091.22 140.4V77.076h42.08v11.521h-30.03v9.335h26.12v11.857h-26.12v18.838h29.18V140.4h-41.23Zm-23.63 0-23.4-33.134-10.11 9.671V140.4h-11.7V77.076h11.7v23.715l25.15-23.715h16.89l-22.99 21.95 29.17 41.374h-14.71Zm-108.955-24.26V77.076h11.943v39.064c-.169 6.967 5.422 12.773 12.537 12.939 7.115.166 13.044-5.308 13.214-12.275V77.076h12.031v39.064c0 6.47-2.63 12.607-7.29 17.169-9.739 9.455-25.494 9.455-35.15 0-4.659-4.562-7.285-10.699-7.285-17.169Zm-66.298 24.26V77.076h21.654c18.216 0 33.168 14.194 33.168 31.662 0 17.469-14.952 31.662-33.168 31.662h-21.654Zm21.654-11.674c11.6 0 21.052-8.986 21.052-19.988 0-11.002-9.452-19.988-21.052-19.988h-9.624v39.976h9.624Zm-46.796 10.864-23.367-32.428-10.098 9.383v23.045h-11.767V77.533h11.767v23.292l25.036-23.292h16.942l-23.034 21.564 29.21 40.493h-14.689Zm-96.257-1.321c-3.956-1.669-7.492-4.09-10.522-7.095-3.115-3.005-5.556-6.51-7.155-10.517a31.9 31.9 0 0 1-2.694-12.771C750.736 89.691 765.551 75 783.817 75c10.437 0 20.286 4.925 26.515 13.272l1.431 1.752-9.512 7.012-1.347-1.753c-3.956-5.342-10.353-8.514-17.087-8.514-11.785 0-21.381 9.432-21.381 21.201s9.512 21.201 21.381 21.201a21.427 21.427 0 0 0 17.087-8.514l1.347-1.669 9.428 6.928-1.431 1.752a33.102 33.102 0 0 1-26.431 13.188c-4.377 0-8.755-.918-12.879-2.587Zm-46.941-60.736h-10.602l-24.022 62.057h12.508l6.544-16.708 10.271-26.584 10.354 26.584 6.378 16.708h12.591l-24.022-62.057Zm-54.198 62.057v-30.041h-25.791v30.041H632V77.533h12.008v20.576h25.791V77.533h11.923v62.057h-11.923Z"/>
  <path stroke="#3A8199" stroke-width="6" d="M337.677 196.497h342M1052 197h395"/>
  <path stroke="#174757" stroke-width="6" d="m1446 196 75 16"/>
  <defs>
    <linearGradient id="b" x1="0" x2="500" y1="0" y2="500" gradientUnits="userSpaceOnUse">
      <stop stop-color="#E4AC5D"/>
      <stop offset=".663" stop-color="#B77766" stop-opacity=".601"/>
      <stop offset="1" stop-color="#737373" stop-opacity="0"/>
    </linearGradient>
    <linearGradient id="e" x1="497.578" x2="1397.14" y1="286" y2="286" gradientUnits="userSpaceOnUse">
      <stop stop-color="#2F7089"/>
      <stop offset=".298" stop-color="#1C4555"/>
    </linearGradient>
    <clipPath id="a">
      <path d="M0 716.998 534.5 708h1126.47v247H67.568L0 716.998Z"/>
    </clipPath>
  </defs>
</svg>
