<svg xmlns="http://www.w3.org/2000/svg" width="804" height="392" fill="none" viewBox="0 0 804 392">
  <path fill="#73514B" stroke="#73514B" d="M464.728 49.924V36.805h265.239v13.119z"/>
  <path fill="url(#a)" d="m-199.353 391.291 41.563-174.42 436.85-13.638 436.85-13.638 87.168 93.734-1002.431 107.962Z"/>
  <path fill="#2B3D48" d="m-48.08 222.875 630.3-32.272 9.077 14.119-633.327 43.365-6.05-25.212Z"/>
  <path fill="#73514B" stroke="#73514B" d="m-48.08 214.807 630.3-32.272 9.077 14.119-633.327 43.365-6.05-25.212Z"/>
  <path stroke="#73514B" d="m613.483 130.094-76.644-80.678m78.661 99.84L518.686 48.407m94.797 119.001-119.001-119M605.416 199.68 464.228 54.458m149.255 112.95-119.001-119m38.323 149.255-64.543-58.492m145.221 50.424L472.296 44.374m121.018 159.34L468.262 84.713M571.127 199.68l-100.848-96.815m82.696 96.815-82.696-78.662M615.5 94.797l-52.441-56.475m54.458 34.289-26.22-28.237m23.195 66.559-57.483-61.517m-84.713 80.678 76.645-80.678m-78.662 99.84 96.815-100.849m-94.798 119.001 119.001-119M480.364 199.679l139.171-139.17M472.296 167.408l119.001-119m-38.322 149.255 64.543-58.492m-145.222 50.424L613.484 44.374m-121.018 159.34L617.518 84.713M514.652 199.68 615.5 102.865m-82.695 96.815 82.695-78.662M464.228 90.764l58.492-52.441m-54.458 34.288 26.221-28.237m-23.195 66.559 57.483-61.517m231.95 78.661-76.644-80.678m78.661 99.84L665.924 46.39m94.797 119.001-119.001-119m110.933 151.271L613.483 54.458m147.238 110.933-119.001-119m38.323 149.255L615.5 137.154m145.221 50.424L619.534 42.357m121.017 159.34L615.5 82.696m102.865 114.967-100.848-96.815m82.695 96.815-82.695-78.662m151.272-30.254-58.492-52.441m54.458 34.288-26.221-28.237m23.196 66.559-57.484-61.517m-84.713 80.678 76.645-80.678m-78.661 99.84L714.331 46.39m-94.798 119.001 119.001-119M627.601 197.663 768.789 52.441m-149.256 112.95 119.001-119m-38.322 149.255 64.543-58.492m-145.222 50.424L760.721 42.357m-121.018 159.34L764.755 82.696M661.89 197.663l100.848-96.815m-82.695 96.815 82.695-78.662M611.466 88.747l57.483-51.433M615.5 70.594l26.22-28.237m-23.195 66.559 57.484-61.517m-401.375 88.968L197.989 53.72m78.662 102.275L179.836 52.687m94.798 121.904L155.633 52.687m110.933 154.962L125.378 58.886m149.256 115.705L155.633 52.687m38.322 152.896-64.543-59.919m145.222 51.654L133.446 48.555m121.018 163.227L129.412 89.878m102.865 117.771-100.848-99.176m82.696 99.176-82.696-80.58m143.205-30.255L224.21 42.356m54.458 35.124-26.221-28.925m23.195 68.183L218.159 53.72m-86.73 84.442 78.662-84.442m-78.662 102.275 96.815-103.308m-94.798 121.904L252.447 52.687M141.514 207.649 282.702 58.886M130.421 177.493 252.447 52.687m-38.322 152.896 64.543-59.919m-149.256 54.015L274.634 48.555M153.616 211.782 278.667 89.878M175.803 207.649l100.848-99.176m-82.696 99.176 82.696-80.58M125.378 96.076l58.492-53.72m-54.458 35.125 26.221-28.926m-23.195 68.183 57.483-63.018m-64.853 86.225L45.476 52.38m81.686 108.362L26.624 51.285m98.444 129.16L1.491 51.285M116.69 215.471-29.928 57.853m154.996 122.592L1.491 51.285m39.795 161.997-67.025-63.485m150.807 54.728L-21.549 46.907m125.672 172.942L-25.739 90.689M81.083 215.471-23.644 110.392m85.876 105.079-85.876-85.377m153.056-33.28L72.937 40.34m56.32 37.215-27.229-30.648m24.088 72.241L66.421 52.38m-87.971 87.565L58.043 52.38m-81.687 108.362L76.894 51.285m-98.444 129.16 123.578-129.16m-115.82 164.53L131.429 60.509M-21.55 180.445l123.578-129.16M62.232 213.282l67.025-63.485M-21.55 204.525 125.068 46.907M-.604 219.849l129.862-129.16M22.435 215.471l104.727-105.079M41.286 215.471l85.876-85.377m-157.09-32.837 60.742-56.918m-56.552 37.216L1.49 46.907m-24.087 72.241L37.098 52.38"/>
  <path fill="#73514B" stroke="#73514B" d="M462.711 36.806h9.085v152.289h-9.085zM132.947 46.89v169.05l-9.085-5.451V47.761l.96-.87h8.125Zm479.02-10.084h9.085v152.289h-9.085zm-338.85 0h9.085V199.18h-9.085z"/>
  <path fill="#80625D" d="m-41.63 215.061 651.823-35.367 9.52 2.545-654.85 37.827-6.493-5.005Z"/>
  <path fill="#73514B" stroke="#73514B" d="M-31.445 53.958V36.805H276.15v17.153z"/>
  <defs>
    <radialGradient id="a" cx="0" cy="0" r="1" gradientTransform="matrix(457.632 0 0 75.3223 280.071 230.603)" gradientUnits="userSpaceOnUse">
      <stop offset=".601" stop-color="#24323C" stop-opacity=".3"/>
      <stop offset="1" stop-color="#6187A2" stop-opacity="0"/>
    </radialGradient>
  </defs>
</svg>
