<svg xmlns="http://www.w3.org/2000/svg" width="1920" height="185" fill="none" viewBox="0 0 1920 185">
  <path fill="#7F6C66" stroke="#8F7E79" stroke-width="5" d="M2050 228.532-53 185.149V92.327l851.286-71.634L2017.72 2.533 2050 228.531Z"/>
  <path fill="#74615B" d="m630.83 114.532-141.65-3.078-22.102-8.211L450 91.953l13.06-10.263 22.101-3.079 43.198-3.079L668 87.918l-37.17 26.615Z"/>
  <path fill="#655550" d="m838.765 122.532 185.835-3.868 28.99-10.316L1076 94.164l-17.13-12.895-29-3.868-56.672-3.868L790 89.093l48.765 33.439Z"/>
  <path fill="#64534E" d="m1934.66 135.532-142.3-3-22.2-8-17.16-11 13.12-10 22.2-3 43.4-3L1972 109.6l-37.34 25.933Z"/>
</svg>
