<svg xmlns="http://www.w3.org/2000/svg" width="789" height="330" fill="none" viewBox="0 0 789 330">
  <mask id="a" width="789" height="330" x="0" y="0" maskUnits="userSpaceOnUse" style="mask-type:alpha">
    <path fill="#1C8085" d="M0 0h789v330H0z"/>
  </mask>
  <g mask="url(#a)">
    <path fill="url(#b)" d="M0 0h789v330H0z"/>
    <path fill="#2C8084" d="m189.453-234 595.8 517.246-57.075 65.743-595.8-517.246zM45.738-84.973l595.8 517.246-89.739 103.367L-44 18.394z"/>
  </g>
  <path fill="#3FA3A8" d="M571.677 214.701v-107h-365v107z"/>
  <path fill="#285C68" d="M572 0v19H205V0z"/>
  <path fill="#fff" d="M260.362 184.214c-2.084 0-3.776-.496-5.079-1.489-1.302-.993-2.254-2.45-2.856-4.37-.602-1.921-.903-4.248-.903-6.983v-18.237c0-1.937.138-3.687.415-5.249.276-1.579.748-2.938 1.416-4.077a6.862 6.862 0 0 1 2.759-2.612c1.171-.619 2.644-.928 4.418-.928 1.644 0 3.012.285 4.102.854a6.237 6.237 0 0 1 2.612 2.417c.651 1.058 1.107 2.32 1.368 3.784.276 1.465.415 3.093.415 4.883v5.249h-5.518v-5.078c0-2.441-.187-4.256-.562-5.444-.374-1.188-1.18-1.782-2.417-1.782-1.318 0-2.205.618-2.661 1.855-.439 1.237-.659 3.019-.659 5.347v19.214c0 1.839.09 3.336.269 4.492.179 1.139.496 1.977.952 2.514.456.521 1.107.782 1.953.782 1.253 0 2.083-.611 2.49-1.831.423-1.237.635-3.239.635-6.006v-5.347h5.591v5.274c0 2.815-.277 5.175-.83 7.08-.554 1.888-1.473 3.312-2.759 4.272-1.27.944-2.987 1.416-5.151 1.416Zm25.095-.024c-2.181 0-3.93-.472-5.249-1.416-1.318-.944-2.27-2.352-2.856-4.224-.586-1.888-.879-4.24-.879-7.056v-19.238c0-2.474.277-4.606.83-6.396.57-1.807 1.514-3.199 2.832-4.175 1.318-.993 3.125-1.489 5.42-1.489 1.725 0 3.149.284 4.272.854a6.327 6.327 0 0 1 2.686 2.417c.651 1.042 1.107 2.303 1.367 3.784.277 1.481.415 3.15.415 5.005v19.238c0 2.816-.285 5.168-.854 7.056-.554 1.872-1.481 3.28-2.784 4.224-1.285.944-3.019 1.416-5.2 1.416Zm0-4.908c.879 0 1.546-.252 2.002-.756.456-.505.765-1.327.928-2.466.163-1.14.244-2.645.244-4.517v-19.58c0-2.279-.195-3.987-.586-5.127-.39-1.155-1.221-1.733-2.49-1.733-1.318 0-2.214.561-2.686 1.684-.472 1.123-.708 2.841-.708 5.152v19.604c0 1.888.082 3.402.245 4.541.162 1.123.48 1.937.952 2.442.488.504 1.188.756 2.099.756Zm17.161 4.419v-42.968h6.788l6.396 33.13 6.079-33.13h6.812v42.968h-4.932v-16.162l.342-15.478-6.201 31.567h-4.273l-6.445-31.567.342 15.478v16.162h-4.908Zm34.959 0v-42.968h5.689v42.968h-5.689Zm14.549 0v-42.968h4.37l9.595 27.807-.488-12.134v-15.673h5.053v42.968h-4.101l-9.522-28.32.318 11.011v17.309h-5.225Zm34.935.415c-2.523 0-4.509-1.017-5.957-3.051-1.433-2.051-2.149-5.404-2.149-10.059v-18.31c0-1.888.155-3.597.464-5.127.309-1.53.814-2.841 1.514-3.931a6.807 6.807 0 0 1 2.807-2.49c1.189-.586 2.645-.879 4.371-.879 1.839 0 3.312.293 4.419.879a5.94 5.94 0 0 1 2.563 2.539c.602 1.09 1.001 2.417 1.196 3.979.212 1.546.318 3.28.318 5.2v3.199h-5.396v-5.127c0-2.018-.203-3.483-.61-4.395-.407-.928-1.221-1.391-2.442-1.391-1.318 0-2.238.545-2.758 1.635-.505 1.075-.757 2.995-.757 5.762v18.311c0 3.043.211 5.224.635 6.543.439 1.302 1.35 1.953 2.734 1.953 1.335 0 2.254-.659 2.759-1.978.504-1.334.757-3.556.757-6.665v-5.688h-3.418v-4.248h8.496v22.924h-2.784l-.805-3.686c-.423 1.318-1.164 2.336-2.222 3.052-1.058.7-2.303 1.049-3.735 1.049Zm38.033.074c-1.758 0-3.206-.301-4.346-.904a6.495 6.495 0 0 1-2.636-2.588c-.635-1.123-1.075-2.465-1.319-4.028-.244-1.562-.366-3.312-.366-5.249v-4.028h5.444v4.346c0 2.718.204 4.663.611 5.834.423 1.172 1.294 1.758 2.612 1.758.895 0 1.562-.211 2.002-.634.439-.424.724-1.099.854-2.027.131-.928.196-2.156.196-3.686 0-1.791-.342-3.361-1.026-4.712-.667-1.367-1.652-2.727-2.954-4.077l-2.978-2.979a36.783 36.783 0 0 1-2.393-2.808 13.841 13.841 0 0 1-1.831-3.393c-.472-1.253-.708-2.678-.708-4.273 0-2.197.252-4.085.757-5.664.504-1.578 1.375-2.783 2.612-3.613 1.253-.846 3.003-1.269 5.249-1.269 1.742 0 3.15.293 4.224.878a5.822 5.822 0 0 1 2.466 2.466c.569 1.075.96 2.36 1.172 3.858.211 1.497.317 3.174.317 5.029v2.588h-5.322v-2.954c0-1.563-.074-2.857-.22-3.882-.13-1.042-.399-1.823-.806-2.344-.407-.521-1.017-.781-1.831-.781-.765 0-1.383.179-1.855.537-.472.358-.814.912-1.026 1.66-.211.733-.317 1.685-.317 2.857 0 1.041.122 1.912.366 2.612.261.7.651 1.367 1.172 2.002a74.452 74.452 0 0 0 1.953 2.148l3.174 3.394c1.611 1.709 2.897 3.556 3.857 5.542.977 1.986 1.465 4.248 1.465 6.787 0 2.458-.252 4.549-.757 6.274-.504 1.726-1.375 3.044-2.612 3.956-1.237.911-2.97 1.367-5.2 1.367Zm23.875 0c-2.181 0-3.931-.472-5.249-1.416-1.318-.944-2.271-2.352-2.856-4.224-.586-1.888-.879-4.24-.879-7.056v-19.238c0-2.474.276-4.606.83-6.396.569-1.807 1.513-3.199 2.832-4.175 1.318-.993 3.125-1.489 5.42-1.489 1.725 0 3.149.284 4.272.854a6.333 6.333 0 0 1 2.686 2.417c.651 1.042 1.106 2.303 1.367 3.784.277 1.481.415 3.15.415 5.005v19.238c0 2.816-.285 5.168-.855 7.056-.553 1.872-1.481 3.28-2.783 4.224-1.286.944-3.019 1.416-5.2 1.416Zm0-4.908c.879 0 1.546-.252 2.002-.756.456-.505.765-1.327.928-2.466.162-1.14.244-2.645.244-4.517v-19.58c0-2.279-.195-3.987-.586-5.127-.391-1.155-1.221-1.733-2.49-1.733-1.319 0-2.214.561-2.686 1.684-.472 1.123-.708 2.841-.708 5.152v19.604c0 1.888.081 3.402.244 4.541.163 1.123.48 1.937.952 2.442.489.504 1.189.756 2.1.756Zm25.633 4.908c-2.181 0-3.931-.472-5.249-1.416-1.319-.944-2.271-2.352-2.857-4.224-.586-1.888-.879-4.24-.879-7.056v-19.238c0-2.474.277-4.606.831-6.396.569-1.807 1.513-3.199 2.832-4.175 1.318-.993 3.125-1.489 5.419-1.489 1.726 0 3.15.284 4.273.854a6.33 6.33 0 0 1 2.685 2.417c.652 1.042 1.107 2.303 1.368 3.784.276 1.481.415 3.15.415 5.005v19.238c0 2.816-.285 5.168-.855 7.056-.553 1.872-1.481 3.28-2.783 4.224-1.286.944-3.019 1.416-5.2 1.416Zm0-4.908c.879 0 1.546-.252 2.002-.756.455-.505.765-1.327.927-2.466.163-1.14.245-2.645.245-4.517v-19.58c0-2.279-.196-3.987-.586-5.127-.391-1.155-1.221-1.733-2.491-1.733-1.318 0-2.213.561-2.685 1.684-.472 1.123-.708 2.841-.708 5.152v19.604c0 1.888.081 3.402.244 4.541.163 1.123.48 1.937.952 2.442.488.504 1.188.756 2.1.756Zm17.161 4.419v-42.968h4.37l9.595 27.807-.488-12.134v-15.673h5.053v42.968h-4.101l-9.522-28.32.318 11.011v17.309h-5.225Z"/>
  <defs>
    <linearGradient id="b" x1="523.677" x2="267.177" y1="-29.299" y2="339.701" gradientUnits="userSpaceOnUse">
      <stop stop-color="#1C8085"/>
      <stop offset="1" stop-color="#0D676B"/>
    </linearGradient>
  </defs>
</svg>
