<svg width="789" height="330" viewBox="0 0 789 330" fill="none" xmlns="http://www.w3.org/2000/svg">
<mask id="mask0_1455_716" style="mask-type:alpha" maskUnits="userSpaceOnUse" x="0" y="0" width="789" height="330">
<rect width="789" height="330" fill="#1C8085"/>
</mask>
<g mask="url(#mask0_1455_716)">
<rect width="789" height="330" fill="url(#paint0_linear_1455_716)"/>
<rect x="189.453" y="-234" width="789" height="87.0624" transform="rotate(40.9629 189.453 -234)" fill="#2C8084"/>
<rect x="45.738" y="-84.9731" width="789" height="136.886" transform="rotate(40.9629 45.738 -84.9731)" fill="#2C8084"/>
</g>
<rect width="107" height="365" transform="matrix(0 -1 -1 0 571.677 214.701)" fill="#3FA3A8"/>
<rect x="572" width="19" height="367" transform="rotate(90 572 0)" fill="#285C68"/>
<path d="M248.304 184.214C246.221 184.214 244.528 183.718 243.226 182.725C241.924 181.732 240.972 180.275 240.369 178.355C239.767 176.434 239.466 174.107 239.466 171.372V153.135C239.466 151.198 239.604 149.448 239.881 147.886C240.158 146.307 240.63 144.948 241.297 143.809C241.981 142.67 242.9 141.799 244.056 141.197C245.228 140.578 246.701 140.269 248.475 140.269C250.119 140.269 251.486 140.554 252.576 141.123C253.683 141.677 254.554 142.482 255.189 143.54C255.84 144.598 256.295 145.86 256.556 147.324C256.833 148.789 256.971 150.417 256.971 152.207V157.456H251.453V152.378C251.453 149.937 251.266 148.122 250.892 146.934C250.517 145.746 249.712 145.152 248.475 145.152C247.156 145.152 246.269 145.77 245.814 147.007C245.374 148.244 245.155 150.026 245.155 152.354V171.568C245.155 173.407 245.244 174.904 245.423 176.06C245.602 177.199 245.92 178.037 246.375 178.574C246.831 179.095 247.482 179.356 248.328 179.356C249.582 179.356 250.412 178.745 250.819 177.525C251.242 176.288 251.453 174.286 251.453 171.519V166.172H257.044V171.446C257.044 174.261 256.767 176.621 256.214 178.526C255.661 180.414 254.741 181.838 253.455 182.798C252.186 183.742 250.469 184.214 248.304 184.214ZM264.928 183.701V140.733H270.592V178.941H278.673V183.701H264.928ZM284.555 183.701V140.733H290.243V183.701H284.555ZM307.429 184.214C305.346 184.214 303.653 183.718 302.351 182.725C301.049 181.732 300.097 180.275 299.494 178.355C298.892 176.434 298.591 174.107 298.591 171.372V153.135C298.591 151.198 298.729 149.448 299.006 147.886C299.283 146.307 299.755 144.948 300.422 143.809C301.106 142.67 302.025 141.799 303.181 141.197C304.353 140.578 305.826 140.269 307.6 140.269C309.244 140.269 310.611 140.554 311.701 141.123C312.808 141.677 313.679 142.482 314.314 143.54C314.965 144.598 315.42 145.86 315.681 147.324C315.958 148.789 316.096 150.417 316.096 152.207V157.456H310.578V152.378C310.578 149.937 310.391 148.122 310.017 146.934C309.642 145.746 308.837 145.152 307.6 145.152C306.281 145.152 305.394 145.77 304.939 147.007C304.499 148.244 304.28 150.026 304.28 152.354V171.568C304.28 173.407 304.369 174.904 304.548 176.06C304.727 177.199 305.045 178.037 305.5 178.574C305.956 179.095 306.607 179.356 307.453 179.356C308.707 179.356 309.537 178.745 309.944 177.525C310.367 176.288 310.578 174.286 310.578 171.519V166.172H316.169V171.446C316.169 174.261 315.892 176.621 315.339 178.526C314.786 180.414 313.866 181.838 312.58 182.798C311.311 183.742 309.594 184.214 307.429 184.214ZM324.053 183.701V140.733H329.717V160.923L336.919 140.733H342.681L335.039 161.948L343.242 183.701H337.31L329.766 163.34V183.701H324.053ZM363.795 183.701V145.542H358.912V140.733H374.025V145.542H369.435V183.701H363.795ZM388.427 184.19C386.246 184.19 384.496 183.718 383.178 182.774C381.86 181.83 380.907 180.422 380.322 178.55C379.736 176.662 379.443 174.31 379.443 171.494V152.256C379.443 149.782 379.719 147.65 380.273 145.86C380.842 144.053 381.786 142.661 383.105 141.685C384.423 140.692 386.23 140.196 388.525 140.196C390.25 140.196 391.674 140.48 392.797 141.05C393.936 141.603 394.832 142.409 395.483 143.467C396.134 144.509 396.589 145.77 396.85 147.251C397.127 148.732 397.265 150.401 397.265 152.256V171.494C397.265 174.31 396.98 176.662 396.41 178.55C395.857 180.422 394.929 181.83 393.627 182.774C392.341 183.718 390.608 184.19 388.427 184.19ZM388.427 179.282C389.306 179.282 389.973 179.03 390.429 178.526C390.885 178.021 391.194 177.199 391.357 176.06C391.519 174.92 391.601 173.415 391.601 171.543V151.963C391.601 149.684 391.406 147.976 391.015 146.836C390.624 145.681 389.794 145.103 388.525 145.103C387.206 145.103 386.311 145.664 385.839 146.787C385.367 147.91 385.131 149.628 385.131 151.939V171.543C385.131 173.431 385.212 174.945 385.375 176.084C385.538 177.207 385.855 178.021 386.327 178.526C386.816 179.03 387.516 179.282 388.427 179.282ZM418.379 183.701V140.733H431.88V145.542H424.043V159.312H431.465V164.073H424.043V178.892H432.051V183.701H418.379ZM439.276 183.701V140.733H443.646L453.24 168.54L452.752 156.406V140.733H457.806V183.701H453.704L444.183 155.381L444.5 166.392V183.701H439.276ZM468.619 183.701V145.542H463.737V140.733H478.849V145.542H474.259V183.701H468.619ZM484.78 183.701V140.733H498.281V145.542H490.444V159.312H497.865V164.073H490.444V178.892H498.451V183.701H484.78ZM505.676 183.701V140.733H515.442C517.704 140.733 519.38 141.156 520.471 142.002C521.578 142.832 522.302 144.077 522.644 145.738C522.986 147.381 523.156 149.424 523.156 151.865C523.156 154.47 522.888 156.529 522.351 158.042C521.83 159.54 520.788 160.524 519.226 160.996C519.991 161.127 520.626 161.452 521.13 161.973C521.651 162.477 522.058 163.259 522.351 164.317C522.66 165.358 522.88 166.742 523.01 168.467C523.14 170.176 523.205 172.308 523.205 174.864C523.205 175.091 523.205 175.515 523.205 176.133C523.205 176.752 523.205 177.451 523.205 178.233C523.222 179.014 523.238 179.795 523.254 180.576C523.287 181.341 523.319 182.009 523.352 182.578C523.401 183.148 523.458 183.522 523.523 183.701H517.859C517.81 183.587 517.761 183.229 517.712 182.627C517.68 182.009 517.647 181.211 517.615 180.235C517.582 179.258 517.558 178.159 517.541 176.939C517.541 175.702 517.541 174.4 517.541 173.032C517.541 171.649 517.541 170.249 517.541 168.833C517.541 167.352 517.46 166.229 517.297 165.464C517.134 164.683 516.801 164.146 516.296 163.853C515.792 163.544 515.018 163.356 513.977 163.291L511.34 163.145V183.701H505.676ZM511.365 158.872H514.319C515.198 158.872 515.865 158.693 516.321 158.335C516.793 157.961 517.11 157.253 517.273 156.211C517.452 155.17 517.541 153.631 517.541 151.597V151.328C517.541 149.619 517.46 148.325 517.297 147.447C517.134 146.568 516.809 145.974 516.321 145.664C515.849 145.339 515.124 145.176 514.148 145.176H511.365V158.872Z" fill="white"/>
<defs>
<linearGradient id="paint0_linear_1455_716" x1="523.677" y1="-29.2986" x2="267.177" y2="339.701" gradientUnits="userSpaceOnUse">
<stop stop-color="#1C8085"/>
<stop offset="1" stop-color="#0D676B"/>
</linearGradient>
</defs>
</svg>
