<svg xmlns="http://www.w3.org/2000/svg" width="301" height="332" fill="none" viewBox="0 0 301 332">
  <path fill="#5B6C39" d="M280.48 6.673 293.498 0v314.722L42.139 324.731H26.117L15.1 321.395l-8.012-6.673v-11.121l3.005-6.672 5.007-3.336h6.008l5.008 3.336v-5.561l-5.008-5.56-4.005-10.009-2.003-6.673v-6.672l6.008-8.897 5.008-3.336 5.007-3.336 5.007-2.225h6.008l7.01 2.225h3.005l-5.007-5.561-2.003-11.121-3.005-6.672 3.005-11.121v-5.561l4.005-10.009 9.013-8.896 7.01-4.449H77.19l-3.004-7.784v-10.009l3.004-4.449 7.01-8.896 6.009-4.449 7.645-3.336h25.402v-3.336l3.005-2.224 2.002-6.673 2.003-6.673 2.003-4.448 5.007-7.785h10.015l3.004-6.672 6.008-5.561h7.01l5.008-4.448 2.002-4.448h6.009l6.009-6.673 9.012-3.336 5.008 3.336 3.004-3.336h6.008l7.01 3.336 2.003-3.336-4.005-4.448-3.005-5.561v-5.56l3.005-2.225V48.932l4.005-6.672 2.003-7.785 5.007-2.224 4.006-6.673h21.03l8.011 3.336 6.009 3.337 5.007 2.224 3.004-8.897 4.006-7.784 3.004-4.449 5.008-6.672Z"/>
  <path fill="#3C5C3F" stroke="#3C5C3F" stroke-width="2" d="m183.513 128.266 2.5-5.087 2.499-3.053 5 3.053 4.999 5.087 4.999-3.052 9.999-2.035 2.5-6.105h8.749l8.748-5.088v-7.104l4.526 6.051 5.473-.963 8.645 2.016 12.102-1.053-20.747 6.141-9.999 3.052-6.249 5.088 2.5 3.052 13.748 10.175 2.5 10.175 7.499 2.035 9.998-2.035 6.249-10.175 2.5 3.053 6.249 5.087 6.249 4.07 7.499-5.087v5.087l1.25 23.402 6.051 141.431-43.546 8.14-12.498 7.122h-21.247l-123.397-9.04H87.768l-12.998 1.026-15.86 6.997-10.473-6.105h-6.154l-16.248 3.052H3.538l-2.5-11.192 2.5-7.123 11.248-6.105 11.249-2.035-5-2.035-8.748-8.139 2.5-6.105 6.249-1.018-2.854-2.035-1.008-2.548-2.388-2.539-1.25-11.193 4.647-7.446 10.352 6.429h8.748l12.499-2.035 3.75-3.053 7.498 1.018 8.749 7.122 7.499-3.052h11.248l11.249 5.087v-9.157l-8.75-4.07-2.499-8.14-14.998-3.052-3.75 4.07-3.749 2.035-8.748-8.14-1.25-4.07-3.75-3.053-7.499-5.087-2.5-6.132 2.5-2.017v-5.078l-7.499-3.053v-5.087l15.188-13.003-2.69 9.95 7.5 3.053h8.748l11.249 2.035 8.749 3.052 4.999-5.087 9.999-6.105 8.748-6.105 9.999 2.035 4.999 3.052 12.499 4.07h12.498l2.499-7.122-2.499-7.123-2.5-7.122-7.499-2.035-7.499-2.035 11.249-4.07h6.249l4.999 4.07 2.5 2.035 4.999 2.035 7.499-4.07 7.499-7.122 6.249-2.035 2.5 11.192 7.499 10.175h18.747l-2.499-5.088-8.749-5.087 3.749-2.035 3.75-6.105 7.499-1.017 7.499-8.14-3.75-3.053h9.999l11.248 3.053 5-5.088-5-6.105-11.248-10.174-9.999-2.035-9.998 2.035-8.749 2.035-7.499 1.017-5-1.017-2.499-4.07-8.749-5.088-8.749-3.052-2.499-3.053 17.497-2.035Z"/>
  <path fill="#334C35" fill-opacity=".8" d="m296.523 328.765-128.586-5.248 41.268-93.583 5.631-11.093 53.45-23.196 8.068-42.356L293.498 0l3.025 328.765Z"/>
</svg>
