<svg xmlns="http://www.w3.org/2000/svg" width="91" height="55" fill="none" viewBox="0 0 91 55">
  <path stroke="#1C4B5B" d="M18.152 22.832 44.904.645 72.61 22.832"/>
  <path fill="#5F9857" d="M.658 16.666a4 4 0 0 1 4-3.92H86.68a4 4 0 0 1 4 4.082l-.576 28.305a4 4 0 0 1-4 3.92H4.083a4 4 0 0 1-4-4.082l.576-28.305Z"/>
  <path fill="#fff" d="M31.29 31.905c0 1.534-.278 2.86-.832 3.977-.554 1.118-1.314 1.98-2.28 2.585-.966.607-2.069.91-3.31.91-1.24 0-2.343-.303-3.309-.91-.966-.606-1.726-1.467-2.28-2.585-.554-1.117-.83-2.443-.83-3.977 0-1.534.276-2.86.83-3.977.554-1.118 1.314-1.98 2.28-2.586.966-.606 2.07-.909 3.31-.909 1.24 0 2.343.303 3.31.91.965.605 1.725 1.467 2.28 2.585.553 1.117.83 2.443.83 3.977Zm-1.705 0c0-1.26-.211-2.323-.632-3.189-.417-.867-.983-1.522-1.698-1.967a4.401 4.401 0 0 0-2.386-.668c-.88 0-1.679.223-2.394.668-.71.445-1.276 1.1-1.697 1.967-.417.866-.625 1.93-.625 3.189 0 1.26.208 2.322.625 3.189.421.866.987 1.522 1.697 1.967a4.438 4.438 0 0 0 2.394.668c.88 0 1.676-.223 2.386-.668.715-.445 1.28-1.1 1.698-1.967.421-.867.632-1.93.632-3.19Zm4.666 7.273V24.632h4.915c1.14 0 2.074.206 2.798.618.73.407 1.269.959 1.62 1.655.35.696.525 1.472.525 2.33 0 .857-.175 1.635-.526 2.336-.345.7-.88 1.26-1.605 1.676-.724.412-1.652.618-2.784.618h-3.523v-1.562h3.466c.782 0 1.409-.135 1.882-.405.474-.27.817-.635 1.03-1.094a3.65 3.65 0 0 0 .327-1.57c0-.582-.109-1.103-.327-1.562a2.332 2.332 0 0 0-1.037-1.08c-.478-.265-1.112-.397-1.903-.397h-3.097v12.983h-1.761Zm12.695 0V24.632h8.779v1.563h-7.017v4.914h6.562v1.563h-6.563v4.943h7.131v1.563h-8.892Zm23.487-14.546v14.546H68.73l-7.926-11.42h-.142v11.42H58.9V24.632h1.705l7.954 11.449h.142V24.632h1.733Z"/>
</svg>
