<svg xmlns="http://www.w3.org/2000/svg" width="810" height="602" fill="none" viewBox="0 0 810 602">
  <path stroke="#424E65" stroke-width="3" d="m-50.098 90.763 362.54 67.688 325.245 43.245M-171.115 47.538l430.401 74.455 384.609 41.097m-9.415-2.657 84.612 21.459 75.918 13.754m-163.311 6.05 93.519 23.354 83.911 14.969"/>
  <path fill="#3D4A62" d="M631.636 155.306h10.085v445.749h-10.085z"/>
  <path fill="#3D4A62" d="m633.653 197.627 24.805-26.185 4.393 4.161-24.805 26.185z"/>
  <path fill="#3D4A62" d="M589.28 171.442h84.713v6.051H589.28zm-469.952-92.78h11.525v457.851h-11.525z"/>
  <path fill="#3D4A62" d="m121.633 122.131 28.348-26.896 5.02 4.274-28.348 26.896z"/>
  <path fill="#3D4A62" d="M70.921 95.236h96.814v6.215H70.921z"/>
</svg>
