<svg xmlns="http://www.w3.org/2000/svg" width="311" height="311" fill="none" viewBox="0 0 311 311">
  <path fill="#60612C" d="M411.455 6.017 429.577 0v283.788l-349.901 9.025H57.37l-15.334-3.008-11.152-6.017V273.76l4.182-6.017 6.97-3.008H50.4l6.97 3.008v-5.014l-6.97-5.014-5.576-9.025-2.788-6.016v-6.017l8.364-8.022 6.97-3.009 6.97-3.008 6.97-2.006h8.365l9.758 2.006h4.182l-6.97-5.014-2.788-10.028-4.182-6.016 4.182-10.028v-5.014l5.576-9.025 12.546-8.023 9.758-4.011h16.729l-4.182-7.019v-9.025l4.182-4.011 9.758-8.023 8.364-4.011 10.642-3.008h14.451l6.97-5.014v-3.494l6.656-8.539 11.466-6.92v18.953l2.788-6.017 2.788-6.016 2.788-4.012 6.97-7.019h13.941l4.182-6.017 8.364-5.014h9.758l6.97-4.01 2.788-4.012h8.365l8.364-6.017 12.546-3.008 6.97 3.008 4.182-3.008h8.364l9.759 3.008 2.788-3.008-5.576-4.011-4.183-5.014v-5.014l4.183-2.006V44.122l5.576-6.016 2.788-7.02 6.97-2.005 5.576-6.017h29.276l11.152 3.008 8.364 3.009 6.97 2.005 4.182-8.022 5.576-7.02 4.182-4.01 6.971-6.017Z"/>
  <path fill="#354E38" d="m276.474 117.478 3.479-4.588 3.48-2.752 6.959 2.752 6.959 4.588 6.96-2.753 13.918-1.835 3.48-5.505h12.178l12.179-4.587v-6.406l6.299 5.456 7.62-.869 12.034 1.819 16.846-.95-28.88 5.537-13.919 2.753-8.699 4.587 3.48 2.753 19.138 9.174 3.479 9.175 10.439 1.835 13.919-1.835 8.699-9.175 3.479 2.753 8.699 4.587 8.699 3.67 10.439-4.587v4.587l1.74 21.102L438 286.293l-60.617 7.34-17.398 6.422h-29.577l-171.773-8.151h-15.443l-18.094.925-19.126.804H79.875l-22.317-1.729-19.654-1.819-19.654-1.819L0 284.629l7.02-6.366 11.23-3.897 11.23-1.835 12.12 1.835 15.658-1.835-6.96-1.835-1.163-3.345-4.212-1.819-9.827 2.728 3.48-6.414 11.722-4.912-3.971-1.835-1.404-2.298-3.324-2.289-3.48-4.076 1.74-6.017 3.66-5.505 5.616-5.756 7.019-3.638 8.423-2.728-4.212 4.547-3.107 1.819-1.104 1.819 1.104 3.937 5.915 1.519 5.615.341 4.128 2.728 17.398-1.835 5.22-2.753 10.438.918 12.179 6.422 10.439-2.752h15.658l15.658 4.587v-8.257l-12.178-3.67-3.48-7.34-20.878-2.752-5.219 3.67-5.219 1.835-12.179-7.34-1.74-3.67-5.22-2.752-10.438-4.588-3.48-5.529-1.26-2.728 1.404-4.547-7.103-1.875v-4.588l6.96-11.01 16.99-5.261-9.828 7.096 3.276 6.423 10.439 2.752h12.179l15.658 1.835 12.179 2.753 6.959-4.588 13.918-5.505 12.179-5.505-22.21-8.898 14.039-8.184-5.616-5.457 4.212-1.818-4.212-2.728h-5.615l-1.404-1.819 2.808-1.819 4.211-1.819 4.212-.909 7.019-3.637 12.635-1.819 4.211-5.456-4.211-.91-1.404-2.728 1.404-1.818h2.808l1.403-3.638 27.465 16.369 5.664 18.452 15.214-9.805-13.509 10.092h6.55l6.959 3.67 3.48 1.835 6.959 1.835 10.439-3.67 10.439-6.423 8.699-1.834 3.479 10.092 10.439 9.175h26.097l-3.479-4.588-12.179-4.587 5.219-1.835 5.22-5.505 10.439-.918 10.439-7.339-5.22-2.753h13.919l15.658 2.753 6.959-4.588-6.959-5.505-15.658-9.174-13.919-1.835-13.918 1.835-12.179 1.835-10.439.917-6.959-.917-3.48-3.67-12.178-4.588-12.179-2.752-3.48-2.752 24.358-1.835Z"/>
  <path fill="#334C35" fill-opacity=".8" d="M433.789 296.45 293.404 311l68.094-120.759 44.214-52.019L429.577 0l4.212 296.45Z"/>
</svg>
