<svg xmlns="http://www.w3.org/2000/svg" width="1174" height="190" fill="none" viewBox="0 0 1174 190">
  <path fill="#E7AB3E" d="M0 127.109h1097.23v52.441H0z"/>
  <path fill="#675129" d="m1194.04 157.429-96.81-28.303V178.9l96.81 10.735v-32.206Z"/>
  <path fill="#436171" d="M391.459 150.68h11.2v3.64h-11.2v-3.64Zm35.25 7.35 3.255 1.767a8.865 8.865 0 0 1-3.027 2.66 8.097 8.097 0 0 1-3.955.998c-1.61 0-3.08-.414-4.41-1.243a9.317 9.317 0 0 1-3.168-3.325c-.781-1.4-1.172-2.945-1.172-4.637 0-1.283.227-2.479.682-3.588a9.381 9.381 0 0 1 1.873-2.94 8.8 8.8 0 0 1 2.8-1.995 8.174 8.174 0 0 1 3.395-.717c1.423 0 2.742.332 3.955.997a8.801 8.801 0 0 1 3.027 2.678l-3.255 1.767a4.95 4.95 0 0 0-1.715-1.33 4.582 4.582 0 0 0-2.012-.472c-.957 0-1.826.262-2.608.787a5.568 5.568 0 0 0-1.837 2.048 5.837 5.837 0 0 0-.665 2.765c0 .992.227 1.913.682 2.765a5.603 5.603 0 0 0 1.838 2.03c.782.513 1.645.77 2.59.77.723 0 1.412-.163 2.065-.49a5.203 5.203 0 0 0 1.662-1.295Zm13.67 5.425c-1.61 0-3.08-.414-4.41-1.243a9.306 9.306 0 0 1-3.167-3.325c-.782-1.4-1.173-2.945-1.173-4.637 0-1.283.228-2.479.683-3.588a9.379 9.379 0 0 1 1.872-2.94 8.81 8.81 0 0 1 2.8-1.995 8.177 8.177 0 0 1 3.395-.717c1.61 0 3.075.414 4.393 1.242a9.081 9.081 0 0 1 3.167 3.343c.794 1.4 1.19 2.952 1.19 4.655a9.305 9.305 0 0 1-.682 3.57 9.488 9.488 0 0 1-1.89 2.94 8.7 8.7 0 0 1-2.783 1.977 8.08 8.08 0 0 1-3.395.718Zm0-3.64c.969 0 1.838-.257 2.608-.77a5.452 5.452 0 0 0 1.82-2.03 5.777 5.777 0 0 0 .682-2.765 5.728 5.728 0 0 0-.7-2.8 5.42 5.42 0 0 0-1.837-2.03 4.54 4.54 0 0 0-2.573-.77c-.956 0-1.825.257-2.607.77a5.568 5.568 0 0 0-1.838 2.047 5.944 5.944 0 0 0-.665 2.783c0 1.038.234 1.977.7 2.817a5.612 5.612 0 0 0 1.855 2.013c.782.49 1.634.735 2.555.735Zm25.176-23.065h3.64V163h-3.64v-2.572a6.753 6.753 0 0 1-2.24 2.204c-.922.549-2.001.823-3.237.823a8.899 8.899 0 0 1-3.57-.718 9.499 9.499 0 0 1-2.94-1.977 9.525 9.525 0 0 1-1.978-2.94 8.915 8.915 0 0 1-.717-3.57c0-1.272.239-2.462.717-3.57a9.347 9.347 0 0 1 4.918-4.935 8.916 8.916 0 0 1 3.57-.718c1.236 0 2.315.28 3.237.84a6.653 6.653 0 0 1 2.24 2.17V136.75Zm-5.442 23.187c1.026 0 1.925-.25 2.695-.752a5.123 5.123 0 0 0 1.785-2.065c.431-.863.647-1.82.647-2.87 0-1.062-.216-2.024-.647-2.888a5.13 5.13 0 0 0-1.803-2.047c-.758-.513-1.651-.77-2.677-.77a5.238 5.238 0 0 0-2.783.77 5.843 5.843 0 0 0-1.995 2.065c-.49.863-.735 1.82-.735 2.87 0 1.062.251 2.024.753 2.887a6.03 6.03 0 0 0 2.012 2.048c.84.502 1.756.752 2.748.752Zm20.735 3.518c-1.61 0-3.08-.414-4.41-1.243a9.306 9.306 0 0 1-3.167-3.325c-.782-1.4-1.173-2.945-1.173-4.637 0-1.283.228-2.479.683-3.588a9.379 9.379 0 0 1 1.872-2.94 8.8 8.8 0 0 1 2.8-1.995 8.174 8.174 0 0 1 3.395-.717c1.342 0 2.573.28 3.693.84a8.413 8.413 0 0 1 2.87 2.292c.793.969 1.376 2.089 1.75 3.36.373 1.26.484 2.602.332 4.025h-13.492c.151.805.443 1.535.875 2.188a4.872 4.872 0 0 0 1.68 1.522c.688.374 1.452.566 2.292.578.887 0 1.692-.222 2.415-.665a5.233 5.233 0 0 0 1.803-1.838l3.692.858a9.227 9.227 0 0 1-3.167 3.815c-1.412.98-2.993 1.47-4.743 1.47Zm-4.97-10.71h9.94a5.106 5.106 0 0 0-.892-2.275 5.138 5.138 0 0 0-1.768-1.628 4.505 4.505 0 0 0-2.31-.612c-.828 0-1.598.198-2.31.595-.7.397-1.283.939-1.75 1.627a5.924 5.924 0 0 0-.91 2.293Zm29.727-11.218v3.973h4.935v3.64h-4.935V163h-3.64v-13.86h-2.083v-3.64h2.083v-3.973c0-.956.233-1.825.7-2.607a5.282 5.282 0 0 1 1.872-1.89c.793-.467 1.674-.7 2.643-.7.7 0 1.382.14 2.047.42a5.01 5.01 0 0 1 1.785 1.295l-2.607 2.572a1.198 1.198 0 0 0-.543-.472 1.445 1.445 0 0 0-.682-.175 1.56 1.56 0 0 0-1.12.455 1.498 1.498 0 0 0-.455 1.102Zm15.097 21.928c-1.61 0-3.08-.414-4.41-1.243a9.3 9.3 0 0 1-3.168-3.325c-.782-1.4-1.172-2.945-1.172-4.637 0-1.283.227-2.479.682-3.588a9.363 9.363 0 0 1 1.873-2.94 8.8 8.8 0 0 1 2.8-1.995 8.17 8.17 0 0 1 3.395-.717c1.61 0 3.074.414 4.392 1.242a9.092 9.092 0 0 1 3.168 3.343c.793 1.4 1.19 2.952 1.19 4.655a9.306 9.306 0 0 1-.683 3.57 9.488 9.488 0 0 1-1.89 2.94 8.706 8.706 0 0 1-2.782 1.977 8.083 8.083 0 0 1-3.395.718Zm0-3.64c.968 0 1.837-.257 2.607-.77a5.452 5.452 0 0 0 1.82-2.03 5.778 5.778 0 0 0 .683-2.765 5.74 5.74 0 0 0-.7-2.8 5.423 5.423 0 0 0-1.838-2.03 4.537 4.537 0 0 0-2.572-.77c-.957 0-1.826.257-2.608.77a5.565 5.565 0 0 0-1.837 2.047 5.932 5.932 0 0 0-.665 2.783c0 1.038.233 1.977.7 2.817a5.603 5.603 0 0 0 1.855 2.013c.781.49 1.633.735 2.555.735ZM532.279 163v-17.5h3.64v1.855a6.534 6.534 0 0 1 2.24-1.715 6.619 6.619 0 0 1 2.87-.63c.653 0 1.301.087 1.943.262l-1.453 3.675a3.778 3.778 0 0 0-1.365-.262c-.77 0-1.476.192-2.117.577a4.281 4.281 0 0 0-1.54 1.523 4.071 4.071 0 0 0-.578 2.135V163h-3.64Zm34.885-17.5h3.64v17.955c0 1.202-.257 2.31-.77 3.325a8.16 8.16 0 0 1-2.048 2.625 9.454 9.454 0 0 1-2.975 1.733 9.998 9.998 0 0 1-3.482.612 8.307 8.307 0 0 1-3.535-.787 9.806 9.806 0 0 1-2.993-2.1 8.75 8.75 0 0 1-1.907-3.01l3.342-1.505a5.177 5.177 0 0 0 1.12 1.925 6.011 6.011 0 0 0 1.82 1.33c.7.326 1.418.49 2.153.49.723 0 1.417-.117 2.082-.35a5.912 5.912 0 0 0 1.803-.945 4.666 4.666 0 0 0 1.277-1.47 3.819 3.819 0 0 0 .473-1.873v-2.958a6.82 6.82 0 0 1-2.205 2.153c-.898.537-1.943.805-3.133.805a8.652 8.652 0 0 1-3.5-.718 9.151 9.151 0 0 1-2.887-1.977 9.442 9.442 0 0 1-1.943-2.94 9.114 9.114 0 0 1-.7-3.57c0-1.272.234-2.462.7-3.57a9.172 9.172 0 0 1 1.943-2.94 9.01 9.01 0 0 1 2.887-1.995 8.668 8.668 0 0 1 3.5-.718c1.19 0 2.235.275 3.133.823a6.601 6.601 0 0 1 2.205 2.152V145.5Zm-5.303 14.437c1.015 0 1.902-.256 2.66-.77a5.3 5.3 0 0 0 1.768-2.082c.42-.863.63-1.808.63-2.835 0-1.05-.216-2.001-.648-2.853a5.18 5.18 0 0 0-1.767-2.065c-.758-.525-1.639-.787-2.643-.787-.98 0-1.878.257-2.695.77a5.657 5.657 0 0 0-1.925 2.065c-.478.863-.717 1.82-.717 2.87s.239 2.007.717 2.87a5.798 5.798 0 0 0 1.943 2.065 5.015 5.015 0 0 0 2.677.752Zm20.535 3.518c-1.61 0-3.08-.414-4.41-1.243a9.317 9.317 0 0 1-3.168-3.325c-.781-1.4-1.172-2.945-1.172-4.637 0-1.283.227-2.479.682-3.588a9.381 9.381 0 0 1 1.873-2.94 8.8 8.8 0 0 1 2.8-1.995 8.174 8.174 0 0 1 3.395-.717c1.61 0 3.074.414 4.392 1.242a9.092 9.092 0 0 1 3.168 3.343c.793 1.4 1.19 2.952 1.19 4.655a9.306 9.306 0 0 1-.683 3.57 9.488 9.488 0 0 1-1.89 2.94 8.695 8.695 0 0 1-2.782 1.977 8.083 8.083 0 0 1-3.395.718Zm0-3.64c.968 0 1.837-.257 2.607-.77a5.452 5.452 0 0 0 1.82-2.03 5.778 5.778 0 0 0 .683-2.765 5.728 5.728 0 0 0-.7-2.8 5.423 5.423 0 0 0-1.838-2.03 4.537 4.537 0 0 0-2.572-.77c-.957 0-1.826.257-2.608.77a5.565 5.565 0 0 0-1.837 2.047 5.944 5.944 0 0 0-.665 2.783c0 1.038.233 1.977.7 2.817a5.612 5.612 0 0 0 1.855 2.013c.782.49 1.633.735 2.555.735Zm19.243 3.64c-1.61 0-3.08-.414-4.41-1.243a9.306 9.306 0 0 1-3.167-3.325c-.782-1.4-1.173-2.945-1.173-4.637 0-1.283.228-2.479.683-3.588a9.379 9.379 0 0 1 1.872-2.94 8.8 8.8 0 0 1 2.8-1.995 8.174 8.174 0 0 1 3.395-.717c1.61 0 3.074.414 4.393 1.242a9.09 9.09 0 0 1 3.167 3.343c.793 1.4 1.19 2.952 1.19 4.655a9.305 9.305 0 0 1-.682 3.57 9.488 9.488 0 0 1-1.89 2.94 8.71 8.71 0 0 1-2.783 1.977 8.083 8.083 0 0 1-3.395.718Zm0-3.64c.968 0 1.838-.257 2.608-.77a5.46 5.46 0 0 0 1.82-2.03 5.777 5.777 0 0 0 .682-2.765 5.728 5.728 0 0 0-.7-2.8 5.42 5.42 0 0 0-1.837-2.03 4.54 4.54 0 0 0-2.573-.77c-.957 0-1.826.257-2.607.77a5.568 5.568 0 0 0-1.838 2.047 5.944 5.944 0 0 0-.665 2.783c0 1.038.233 1.977.7 2.817a5.612 5.612 0 0 0 1.855 2.013c.782.49 1.633.735 2.555.735Zm25.176-23.065h3.64V163h-3.64v-2.572a6.753 6.753 0 0 1-2.24 2.204c-.922.549-2.001.823-3.238.823a8.906 8.906 0 0 1-3.57-.718 9.523 9.523 0 0 1-2.94-1.977 9.523 9.523 0 0 1-1.977-2.94 8.916 8.916 0 0 1-.718-3.57c0-1.272.24-2.462.718-3.57a9.248 9.248 0 0 1 1.977-2.94 9.37 9.37 0 0 1 2.94-1.995 8.923 8.923 0 0 1 3.57-.718c1.237 0 2.316.28 3.238.84a6.653 6.653 0 0 1 2.24 2.17V136.75Zm-5.443 23.187c1.027 0 1.925-.25 2.695-.752a5.123 5.123 0 0 0 1.785-2.065c.432-.863.648-1.82.648-2.87 0-1.062-.216-2.024-.648-2.888a5.12 5.12 0 0 0-1.802-2.047c-.758-.513-1.651-.77-2.678-.77a5.234 5.234 0 0 0-2.782.77 5.843 5.843 0 0 0-1.995 2.065c-.49.863-.735 1.82-.735 2.87 0 1.062.251 2.024.752 2.887a6.042 6.042 0 0 0 2.013 2.048c.84.502 1.756.752 2.747.752Zm21.683-9.257h11.2v3.64h-11.2v-3.64ZM346.372 25h13.8v70h-13.8V64.4h-26.6V95h-13.8V25h13.8v25.6h26.6V25Zm61.535 20h13.8v50h-13.85l-.65-5.2a15.34 15.34 0 0 1-5 4.7c-2.034 1.2-4.417 1.8-7.15 1.8-3.734 0-7.217-.7-10.45-2.1a27.327 27.327 0 0 1-8.55-5.8 27.338 27.338 0 0 1-5.8-8.55c-1.367-3.267-2.05-6.767-2.05-10.5 0-3.567.65-6.9 1.95-10 1.3-3.1 3.133-5.833 5.5-8.2a26.187 26.187 0 0 1 8.15-5.55c3.1-1.333 6.433-2 10-2 3.066 0 5.816.65 8.25 1.95a23.614 23.614 0 0 1 6.45 4.95l-.6-5.5Zm-13.2 38.05c2.266 0 4.316-.583 6.15-1.75 1.833-1.167 3.283-2.733 4.35-4.7 1.066-2 1.6-4.2 1.6-6.6 0-2.433-.534-4.633-1.6-6.6-1.067-1.967-2.517-3.533-4.35-4.7-1.834-1.167-3.884-1.75-6.15-1.75-2.3 0-4.384.583-6.25 1.75-1.867 1.167-3.35 2.75-4.45 4.75-1.1 1.967-1.65 4.15-1.65 6.55 0 2.4.55 4.6 1.65 6.6 1.133 1.967 2.633 3.533 4.5 4.7 1.866 1.167 3.933 1.75 6.2 1.75Zm65.67-3.85 12.4 6.7c-2.3 3.133-5.183 5.65-8.65 7.55-3.467 1.9-7.25 2.85-11.35 2.85-4.6 0-8.8-1.183-12.6-3.55-3.767-2.367-6.783-5.533-9.05-9.5-2.233-4-3.35-8.417-3.35-13.25 0-3.667.65-7.083 1.95-10.25 1.3-3.2 3.083-6 5.35-8.4a25.098 25.098 0 0 1 8-5.7c3.033-1.367 6.267-2.05 9.7-2.05 4.1 0 7.883.95 11.35 2.85 3.467 1.9 6.35 4.45 8.65 7.65l-12.4 6.7a10.436 10.436 0 0 0-3.55-2.5c-1.3-.6-2.65-.9-4.05-.9-2.133 0-4.05.583-5.75 1.75-1.667 1.167-3 2.717-4 4.65-.967 1.9-1.45 3.967-1.45 6.2 0 2.2.5 4.25 1.5 6.15 1 1.9 2.333 3.433 4 4.6 1.7 1.167 3.6 1.75 5.7 1.75 1.433 0 2.8-.3 4.1-.9 1.3-.6 2.467-1.4 3.5-2.4ZM526.298 95h-15.9l-10.6-18.25-6.1 7.25v11h-13.8V20h13.8v42.55l14.7-17.55h18l-17.15 20.55L526.298 95Zm8.483 0V25h23.2c4.833 0 9.35.917 13.55 2.75 4.233 1.8 7.95 4.317 11.15 7.55 3.233 3.2 5.75 6.917 7.55 11.15 1.833 4.2 2.75 8.717 2.75 13.55s-.917 9.367-2.75 13.6a35.29 35.29 0 0 1-7.55 11.15c-3.2 3.2-6.917 5.717-11.15 7.55-4.2 1.8-8.717 2.7-13.55 2.7h-23.2Zm13.8-13.8h9.4c2.866 0 5.566-.55 8.1-1.65a21.948 21.948 0 0 0 6.8-4.55 20.942 20.942 0 0 0 4.6-6.75c1.133-2.567 1.7-5.317 1.7-8.25s-.567-5.667-1.7-8.2a20.942 20.942 0 0 0-4.6-6.75 20.946 20.946 0 0 0-6.75-4.6c-2.534-1.1-5.25-1.65-8.15-1.65h-9.4v42.4Zm49.532-4.5V45h13.8v27.9c0 1.767.416 3.367 1.25 4.8a9.759 9.759 0 0 0 3.45 3.35c1.433.833 3 1.25 4.7 1.25 1.733 0 3.316-.417 4.75-1.25a9.37 9.37 0 0 0 3.4-3.35c.833-1.433 1.25-3.033 1.25-4.8V45h13.8l.05 50h-13.8l-.05-3.8c-1.667 1.6-3.634 2.85-5.9 3.75-2.234.9-4.6 1.35-7.1 1.35-3.6 0-6.884-.883-9.85-2.65-2.967-1.767-5.334-4.117-7.1-7.05-1.767-2.967-2.65-6.267-2.65-9.9ZM701.103 95h-15.9l-10.6-18.25-6.1 7.25v11h-13.8V20h13.8v42.55l14.7-17.55h18l-17.15 20.55L701.103 95Zm26.088 1.3c-4.6 0-8.8-1.183-12.6-3.55-3.767-2.367-6.783-5.55-9.05-9.55-2.233-4-3.35-8.417-3.35-13.25 0-3.633.65-7.033 1.95-10.2 1.3-3.2 3.083-6 5.35-8.4a25.098 25.098 0 0 1 8-5.7c3.033-1.367 6.267-2.05 9.7-2.05 3.967 0 7.583.85 10.85 2.55a24.76 24.76 0 0 1 8.35 6.95c2.3 2.933 3.933 6.25 4.9 9.95 1 3.7 1.167 7.55.5 11.55h-34.7c.433 1.467 1.1 2.8 2 4a10.638 10.638 0 0 0 3.4 2.8c1.367.7 2.933 1.067 4.7 1.1 1.733.033 3.333-.367 4.8-1.2a11.974 11.974 0 0 0 3.75-3.35l14.1 3.25c-2.033 4.433-5.067 8.067-9.1 10.9-4.033 2.8-8.55 4.2-13.55 4.2Zm-10.6-31.9h21.25a12.33 12.33 0 0 0-2.2-4.5 11.347 11.347 0 0 0-3.75-3.15c-1.433-.767-3-1.15-4.7-1.15a9.999 9.999 0 0 0-4.7 1.15 11.523 11.523 0 0 0-3.7 3.15c-1 1.3-1.733 2.8-2.2 4.5Z"/>
</svg>
