<svg xmlns="http://www.w3.org/2000/svg" width="865" height="500" fill="none" viewBox="0 0 865 500">
  <path fill="#425F76" d="M-66.233 250.565h818.887v175.476H-66.233z"/>
  <path fill="#3E495E" d="m729.219 387.272-798.73 25.291a5.004 5.004 0 0 1-3.802-1.573l-15.09-16.057c-2.954-3.143-.808-8.301 3.503-8.422l814.94-22.888a5 5 0 0 1 5.123 5.407l-1.119 13.653a5 5 0 0 1-4.825 4.589Z"/>
  <path fill="#353C4A" d="m718.594 408.492-798.73 25.292a5.001 5.001 0 0 1-3.803-1.574l-15.09-16.056c-2.953-3.144-.808-8.302 3.504-8.423l814.939-22.887a5 5 0 0 1 5.124 5.407l-1.119 13.652a5 5 0 0 1-4.825 4.589Z"/>
  <path fill="#CB8245" d="M809.129 137.658-2.236 38.784l-29.709 290.443H809.13V137.658Z"/>
  <path fill="#C8AAA1" d="M794.955 133.754v-13.711a5 5 0 0 0-4.42-4.966L393.579 68.742-3.481 24.618a5 5 0 0 0-3.903 1.259l-16.357 14.775c-3.201 2.892-1.485 8.208 2.803 8.68l810.345 89.392a5 5 0 0 0 5.548-4.97Z"/>
  <path fill="#71626B" stroke="#2A4E5C" stroke-opacity=".8" stroke-width="2" d="m795.609 119.974-811.54-90.837a5 5 0 0 0-5.256 3.263l-6.553 18.05c-1.111 3.06.951 6.348 4.19 6.68l818.092 83.954a5 5 0 0 0 5.51-4.974v-11.167a4.999 4.999 0 0 0-4.443-4.969Z"/>
  <path stroke="#A96840" stroke-width="60" d="m-98.505 250.565 962.092 26.221"/>
  <path stroke="#A96840" stroke-width="9" d="m-116.657 65.004 980.244 100.849"/>
  <path fill="#A34306" d="m308.922 129.547 67.637 6.975 4.973 174.552h-72.61V129.547Z"/>
  <path stroke="#32313C" stroke-width="4" d="M348.253 134.59v176.484"/>
  <path fill="#A34607" d="M575.161 160.142a3 3 0 0 1 3.344-2.98l46.441 5.359a3 3 0 0 1 2.656 2.98v153.488a3 3 0 0 1-3.173 2.995l-46.441-2.679a3 3 0 0 1-2.827-2.995V160.142Z"/>
  <path stroke="#32313C" stroke-width="10" d="m308.922 129.547 65.648 6.038 3.937 2.03 3.025 5.215v170.261h-72.61"/>
  <path stroke="#32313C" stroke-width="4" d="M605.416 159.802v159.34"/>
  <path stroke="#32313C" stroke-width="6" d="m575.161 157.785 47.413 5.241 3.011 2.827 2.017 3.463v147.809h-52.441"/>
  <path fill="#E6963E" stroke="#2A4E5C" stroke-width="4" d="m750.158 175.496-82.78-8.098a5 5 0 0 0-5.487 4.976v55.038a5 5 0 0 0 5 5h82.78a5 5 0 0 0 5-5v-46.94a4.999 4.999 0 0 0-4.513-4.976Z"/>
  <path fill="#F9B95C" stroke="#2A4E5C" stroke-width="4" d="m556.629 155.347-142.59-13.209a5 5 0 0 0-5.458 4.808l-2.675 78.45a5 5 0 0 0 4.829 5.168l145.264 4.889a5 5 0 0 0 5.168-4.997v-70.13a5 5 0 0 0-4.538-4.979Zm-295.846-24.921-194.63-19.507a5 5 0 0 0-5.496 4.809L56.97 226.394a5 5 0 0 0 4.843 5.164l195.633 6.007a5 5 0 0 0 5.152-4.859l2.686-97.167a5 5 0 0 0-4.5-5.113Z"/>
  <path fill="#E6963E" d="m141.322 189.296 11.069-.733-9.868-5.566-1.201-14.119 4.226-12.102 3.026-6.051 5.042-3.025 4.034-2.333h6.032l8.087 5.358 4.093 11.094.949 11.093-5.042 10.085 5.042 7.059-2.296 9.077-4.763 18.286h4.763l1.347-10.196 6.311-11.535 12.682-1.486-3.925-7.083v-8.156l3.925-8.068 10.194-3.025 10.084 5.042 3.026 7.059v10.085l-6.655 5.632 10.689 1.428 6.051 7.059 2.017 10.085v12.102l16.135 9.076-168.416-5.042-10.085-1.009 4.034-7.059v-7.06l8.068-8.045 61.325-17.927Zm321.025 9.771 7.748-.513-6.915-4.008-9.036-9.532 2.017-13.602 13.934-7.576 9.261 2.017 4.26 5.559 2.879 7.969.678 7.965-3.518 7.235 3.538 5.074-1.596 6.513.557 8.914.395-3.103 4.405-8.275 8.87-4.941-3.324-9.715 3.287-12.54 3.772-4.604h13.875l5.729 4.643v12.501l-5.729 8.55 6.295 5.569 7.059 3.794 4.034 4.274 2.017 11.093-1.008 10.085-115.976-4.034-1.805-2.017v-3.026l1.805-4.039 5.043-4.029 17.144-11.564 20.305-4.637Z"/>
  <path fill="#223452" stroke="#223452" stroke-width="3" d="M334.703 363.515h-3.529a5.001 5.001 0 0 0-4.473 2.764l-2.135 4.27c-.34.68-.517 1.43-.517 2.19a4.895 4.895 0 0 1-4.895 4.895h-13.203a5.001 5.001 0 0 1-3.536-1.465l-3.607-3.607a4.992 4.992 0 0 1-1.315-2.323l-2.54-10.161a4.998 4.998 0 0 1-.15-1.212v-32.707a5 5 0 0 1 5-5h229.309a5 5 0 0 1 4.779 3.53l2.559 8.316a5 5 0 0 1 .102 2.555l-2.877 12.947a5 5 0 0 1-4.881 3.915h-8.353a5.002 5.002 0 0 0-4.808 3.626l-.788 2.76a4.989 4.989 0 0 0-.193 1.374v6.404c0 .636-.121 1.267-.357 1.857l-2.419 6.048a5.001 5.001 0 0 1-4.643 3.143h-21.24a4.998 4.998 0 0 1-4.096-2.133l-4.663-6.661a5 5 0 0 1-.904-2.867v-5.876c0-.409-.05-.816-.149-1.213l-1.929-7.717a5.002 5.002 0 0 0-4.851-3.788h-7.232a5 5 0 0 1-5-5v-2.157a4.998 4.998 0 0 0-1.284-3.345l-6.303-7.004a5.001 5.001 0 0 0-3.716-1.655h-33.113a5 5 0 0 0-5 5v9.161a5 5 0 0 1-5 5h-2.563a3.53 3.53 0 0 0-3.53 3.53 3.53 3.53 0 0 1-3.53 3.53h-12.648c-2.761 0-5 2.281-5 5.042v8.668a3.433 3.433 0 0 1-3.434 3.434 3.434 3.434 0 0 0-2.638 1.236l-2.514 3.016a5 5 0 0 1-3.841 1.799h-11.271a5 5 0 0 1-2.774-.84l-6.474-4.316a5.005 5.005 0 0 1-1.909-2.405l-1.242-3.313a5 5 0 0 0-4.682-3.245Zm-312.63 8.068h-3.53a5 5 0 0 0-4.471 2.764l-2.135 4.27a4.895 4.895 0 0 0-.517 2.189 4.896 4.896 0 0 1-4.896 4.896H-6.678a4.999 4.999 0 0 1-3.536-1.465l-3.607-3.607a5.001 5.001 0 0 1-1.316-2.323l-2.54-10.161c-.1-.396-.15-.804-.15-1.213v-32.706a5 5 0 0 1 5-5h229.31a5 5 0 0 1 4.779 3.529l2.558 8.317c.255.828.291 1.709.103 2.555l-2.877 12.946a5.001 5.001 0 0 1-4.881 3.916h-8.354a5 5 0 0 0-4.807 3.626l-.789 2.76a5.019 5.019 0 0 0-.192 1.373v6.405c0 .636-.122 1.266-.358 1.857l-2.419 6.048a5 5 0 0 1-4.642 3.143h-21.241a5 5 0 0 1-4.096-2.133l-4.663-6.661a5 5 0 0 1-.903-2.867v-5.876c0-.409-.051-.817-.15-1.213l-1.929-7.717a5 5 0 0 0-4.851-3.788h-7.232a5 5 0 0 1-5-5v-2.157a5 5 0 0 0-1.283-3.345l-6.303-7.004a5.003 5.003 0 0 0-3.717-1.655h-33.112a5 5 0 0 0-5 5v9.161a5 5 0 0 1-5 5H87.56a3.53 3.53 0 0 0-3.53 3.53 3.53 3.53 0 0 1-3.53 3.53H67.853c-2.761 0-5 2.281-5 5.042v8.668a3.434 3.434 0 0 1-3.434 3.434 3.434 3.434 0 0 0-2.638 1.235l-2.513 3.017a5 5 0 0 1-3.841 1.799H39.154a4.996 4.996 0 0 1-2.773-.84l-6.475-4.317a4.995 4.995 0 0 1-1.908-2.404l-1.243-3.314a5 5 0 0 0-4.681-3.244Z"/>
  <path fill="#383742" d="m741.099 341.991-799.13-.435a5 5 0 0 1-3.75-1.694l-14.565-16.535c-2.851-3.236-.541-8.322 3.772-8.305l815.254 3.359a5 5 0 0 1 4.947 5.569l-1.558 13.61a5 5 0 0 1-4.97 4.431Z"/>
  <path stroke="#2A4E5C" stroke-width="4" d="m204.04 125.513-2.017 108.916m-70.594-116.983-2.017 114.967m599.038-60.509v60.509m-34.288-62.526v60.509m-182.78-78.662v82.695M464.228 147.7l2.017 85.225"/>
  <path fill="#927F8B" stroke="#927F8B" stroke-width="5" d="M136.244 19.878-4.919 2.65l-14.966 18.43 167.45 17.704-11.321-18.906Z"/>
  <path fill="#71626B" stroke="#71626B" stroke-width="5" d="M118.091 21.895-23.072 4.666l-15.932 13.948 167.408 18.153-10.313-14.872Z"/>
</svg>
