<svg width="422" height="231" viewBox="0 0 422 231" fill="none" xmlns="http://www.w3.org/2000/svg">
<rect width="422" height="231" rx="40" fill="#BF3C3D" fill-opacity="0.4"/>
<path d="M350.724 36H116.165C113.872 36.147 111.709 37.0886 110.049 38.6671C97.652 50.5871 85.5282 62.8338 73.2405 74.8083C72.1438 75.8103 71.2854 77.0438 70.728 78.4186C70.1706 79.7934 69.9281 81.2749 70.0184 82.755V193.029H305.068C307.204 192.934 309.236 192.086 310.802 190.635C323.48 178.325 336.06 165.914 348.539 153.405C350.035 151.674 350.887 149.486 350.942 147.2V40.7898C351.106 39.2658 350.887 37.7962 350.724 36ZM171.378 151.282H154.394V126.625H130.474V151.282H113.107V77.9108H130.474V111.004H154.394V77.9108H171.433L171.378 151.282ZM231.451 151.282L214.576 126.081H201.906V151.282H184.703V77.9108H234.728C237.022 77.8509 239.25 78.6728 240.954 80.1968C242.554 81.5576 243.466 83.5443 243.466 85.6398V118.298C243.458 119.33 243.229 120.35 242.796 121.288C242.363 122.226 241.735 123.062 240.954 123.741C239.249 125.269 237.02 126.087 234.728 126.027L251.548 151.227L231.451 151.282ZM308.017 93.3688H290.978V151.282H273.666V93.3688H256.627V77.9108H308.017V93.3688Z" fill="#FFFAED"/>
<path d="M202.235 93.8525H226.203V110.382H202.235V93.8525Z" fill="#FFFAED"/>
</svg>
