<svg width="682" height="276" viewBox="0 0 682 276" fill="none" xmlns="http://www.w3.org/2000/svg">
<rect width="681.664" height="276" rx="40" fill="#3F5EC5" fill-opacity="0.4"/>
<g clip-path="url(#clip0_1389_25)">
<path d="M119.841 21.3018C107.509 21.3018 95.2975 23.7308 83.904 28.4501C72.5106 33.1695 62.1583 40.0868 53.4381 48.807C44.7179 57.5273 37.8007 67.8797 33.0814 79.2733C28.3621 90.6668 25.9331 102.878 25.9331 115.211C25.9331 127.543 28.3621 139.754 33.0814 151.148C37.8007 162.542 44.7179 172.894 53.4381 181.614C62.1583 190.334 72.5106 197.252 83.904 201.971C95.2975 206.69 107.509 209.119 119.841 209.119C144.747 209.119 168.633 199.226 186.244 181.614C203.855 164.003 213.749 140.117 213.749 115.211C213.749 90.3044 203.855 66.4184 186.244 48.807C168.633 31.1957 144.747 21.3018 119.841 21.3018ZM109.241 71.147H126.674L123.783 85.7765H106.351L109.241 71.147ZM84.0124 145.258C83.3992 146.397 76.5663 160.15 59.8346 160.325C55.8925 160.325 54.5785 158.223 54.3157 156.121C54.1405 153.492 55.7173 146.922 59.6594 129.49L62.1998 118.101C63.0758 114.422 63.6014 112.407 63.4262 110.655C63.4262 109.692 62.7254 108.903 61.5866 108.903C59.4842 108.903 54.2281 115.649 52.8265 117.926C52.3885 118.539 51.9505 118.539 51.5125 118.101L50.1985 116.787C49.7605 116.437 49.4101 115.824 49.6729 115.561C50.2861 114.685 59.2214 97.8655 73.2375 97.6903C77.2671 97.6903 79.1943 99.9679 79.3695 102.859C79.7199 105.925 78.4935 110.305 76.6539 118.627L71.4855 140.44C70.6601 143.079 70.2176 145.822 70.1714 148.587C70.3466 149.638 70.7846 150.602 72.0987 150.602C74.7267 150.602 80.3331 143.506 80.9463 142.192C81.2091 141.754 81.7347 141.754 81.9975 142.017L83.7495 143.769C84.1876 144.207 84.2752 144.47 84.0124 145.17V145.258ZM86.29 76.8411C85.0636 82.798 80.0703 87.6161 75.0771 87.6161C70.0838 87.6161 67.1054 82.798 68.2442 76.8411C69.383 70.8842 74.3763 66.0662 79.4571 66.0662C84.538 66.0662 87.4288 70.8842 86.29 76.8411ZM92.422 157.435L104.511 95.2375H122.031L109.855 157.435H92.5096H92.422ZM180.636 148.762C175.927 152.357 170.483 154.87 164.693 156.121C159.086 157.122 153.39 157.533 147.698 157.347H117.301L123.433 128.176L129.74 95.3251H147.873L137.974 142.805L137.799 143.418H146.822C153.392 143.418 158.123 143.068 161.013 142.28C163.904 141.491 166.62 139.914 169.073 137.724C172.577 134.571 175.555 130.366 177.92 125.11C180.285 119.854 181.512 113.546 181.512 106.45C181.512 100.318 180.548 95.7631 178.533 92.697C176.519 89.631 174.153 87.8789 171.175 86.8277C169.16 86.1269 165.481 85.7765 160.225 85.7765H131.58L134.47 71.147H158.473C164.955 71.147 169.16 71.147 170.912 71.4098C174.21 71.6924 177.453 72.4294 180.548 73.5999C186.294 75.7824 191.097 79.9034 194.126 85.2509C195.878 88.0541 197.105 91.2954 197.981 94.8871C200.967 107.229 199.606 120.224 194.126 131.68C190.622 138.863 186.067 144.557 180.723 148.762H180.636ZM269.113 48.0202L277.522 64.6645H270.514L262.367 48.4582H253.082V64.6645H247.125V23.7546H265.083C272.091 23.7546 278.223 27.6091 278.223 36.0188C278.223 42.5013 274.719 46.531 269.2 47.9326L269.113 48.0202ZM265.083 29.6239H253.082V42.7641H265.083C269.113 42.7641 272.003 40.5741 272.003 36.194C272.003 31.9015 269.2 29.5363 264.995 29.5363L265.083 29.6239ZM315.891 64.6645V46.2682H297.057V64.6645H290.925V23.7546H297.057V40.3113H315.804V23.7546H321.936V64.6645H315.804H315.891ZM351.194 65.3653C340.682 65.3653 333.937 56.6052 333.937 44.2534C333.937 31.8139 340.595 23.0538 351.194 23.0538C361.882 23.0538 368.539 31.8139 368.539 44.0782C368.539 56.5176 361.882 65.2777 351.194 65.2777V65.3653ZM351.194 29.2735C344.099 29.2735 340.157 35.0552 340.157 44.1658C340.157 53.4515 344.099 59.2332 351.194 59.2332C358.378 59.2332 362.32 53.4515 362.32 44.2534C362.32 35.0552 358.378 29.1859 351.194 29.1859V29.2735ZM391.666 64.6645H380.453V23.7546H391.666C402.616 23.7546 411.639 29.7991 411.639 44.2534C411.639 58.7076 402.353 64.6645 391.666 64.6645ZM391.666 29.7115H386.673V58.7076H391.666C401.302 58.7076 405.332 52.8383 405.332 44.2534C405.332 35.6684 401.39 29.7115 391.666 29.7115ZM423.377 64.7521V23.667H449.745V29.6239H429.597V39.7857H441.336V45.8302H429.509V58.7076H450.621V64.6645H423.465L423.377 64.7521ZM474.887 65.3653C468.842 65.3653 463.761 62.7373 460.257 58.7076L464.637 54.5027C466 55.9871 467.65 57.1795 469.487 58.0077C471.324 58.8358 473.31 59.2826 475.325 59.3208C481.019 59.3208 483.822 57.306 483.822 53.3639C483.822 50.2103 481.369 48.6334 474.536 46.531C465.864 43.9906 461.746 41.8005 461.746 34.5296C461.746 27.5215 467.703 23.1414 475.237 23.1414C477.728 23.1057 480.201 23.5765 482.505 24.5251C484.809 25.4738 486.896 26.8807 488.64 28.6603L484.26 33.0404C481.719 30.4123 478.829 29.1859 474.799 29.1859C469.981 29.1859 467.966 31.4635 467.966 34.2668C467.966 37.07 469.806 38.4717 476.901 40.5741C484.961 43.0269 490.041 45.655 490.041 52.9259C490.041 60.2844 485.311 65.3653 474.887 65.3653ZM247.388 135.447V94.3615H253.52V135.271H247.388V135.447ZM293.816 135.447L277.522 109.779L274.456 104.698V135.447H268.587V94.4491H274.807L290.312 119.415L293.816 125.197L293.728 115.561V94.5367H299.685V135.359H293.816V135.447ZM320.534 100.494V111.181H332.273V117.225H320.534V135.359H314.402V94.4491H340.682V100.581H320.534V100.494ZM364.948 136.06C354.436 136.06 347.603 127.3 347.603 114.948C347.603 102.596 354.436 93.8358 364.948 93.8358C375.547 93.8358 382.293 102.596 382.293 114.86C382.293 127.124 375.547 136.06 364.948 136.06ZM364.948 99.968C357.852 99.968 353.91 105.75 353.91 114.86C353.91 124.146 357.852 129.928 364.948 129.928C372.131 129.928 376.073 124.146 376.073 114.948C376.073 105.75 372.131 100.056 364.948 100.056V99.968ZM414.267 118.715L422.677 135.359H415.581L407.434 119.24H398.236V135.359H392.104V94.4491H410.062C417.158 94.4491 423.202 98.3035 423.202 106.713C423.202 113.283 419.698 117.225 414.179 118.715H414.267ZM410.15 100.318H398.236V113.459H410.15C414.267 113.459 417.158 111.356 417.158 106.888C417.158 102.596 414.267 100.231 410.15 100.231V100.318ZM465.338 135.359V113.809L465.513 106.538L462.885 113.021L452.899 136.06L443.088 113.021L440.46 106.626L440.635 113.809V135.359H434.765V94.4491H441.16L450.271 116.349C451.322 118.627 452.548 121.606 453.074 123.358C453.687 121.606 454.826 118.715 455.877 116.349L464.812 94.4491H471.383V135.359H465.338ZM512.555 135.359L509.051 125.723H492.845L489.428 135.359H483.033L497.75 94.4491H504.32L519.212 135.359H512.642H512.555ZM503.97 110.831C503.006 107.852 501.342 103.122 500.904 101.37C500.378 103.122 498.977 107.852 497.926 110.831L494.597 120.292H507.211L503.97 110.918V110.831ZM541.2 100.494V135.359H535.068V100.494H523.155V94.4491H553.114V100.581H541.2V100.494ZM563.538 135.359V94.4491H569.67V135.359H563.538ZM597.177 136.06C586.577 136.06 579.832 127.3 579.832 114.948C579.832 102.596 586.577 93.8358 597.177 93.8358C607.777 93.8358 614.522 102.596 614.522 114.86C614.522 127.124 607.777 136.06 597.089 136.06H597.177ZM597.177 99.968C589.994 99.968 586.139 105.75 586.139 114.86C586.139 124.146 589.994 129.928 597.177 129.928C604.36 129.928 608.215 124.146 608.215 114.948C608.215 105.75 604.36 100.056 597.177 100.056V99.968ZM650.789 135.359L634.495 109.779L631.429 104.698L631.517 114.159V135.447H625.56V94.4491H631.779L647.372 119.415L650.789 125.197L650.701 115.561V94.5367H656.658V135.359H650.789ZM247.388 206.141V165.231H253.52V206.141H247.388ZM294.429 206.141L278.048 180.474L275.069 175.393V206.141H269.113V165.231H275.42L290.925 190.11L294.342 195.979V165.231H300.211V206.141H294.429ZM314.402 206.141V165.231H320.534V206.141H314.402ZM350.756 171.188V206.141H344.624V171.1H332.711V165.144H362.67V171.1H350.756V171.188ZM374.496 206.141V165.231H380.628V206.141H374.496ZM421.275 206.141L417.771 196.417H401.39L398.061 206.053H391.666L406.383 165.231H412.865L427.757 206.141H421.275ZM412.69 181.525L409.536 172.064C409.098 173.816 407.609 178.547 406.558 181.525L403.317 190.898H415.931L412.69 181.525ZM451.672 171.1V206.141H445.54V171.1H433.539V165.144H463.586V171.1H451.672ZM476.639 206.053V165.144H482.771V206.141H476.639V206.053ZM516.76 206.053H510.277L496.086 165.144H502.744L511.241 191.249C512.029 193.702 513.168 197.293 513.518 198.783C513.869 197.293 515.095 193.526 515.796 191.161L524.206 165.231H530.776L516.76 206.141V206.053ZM542.952 206.053V165.144H569.232V171.1H549.084V181.175H560.823V187.132H549.084V200.097H570.109V206.053H542.952ZM257.111 250.643L255.534 246.263H248.088L246.512 250.643H243.621L250.278 231.896H253.257L260.09 250.643H257.199H257.111ZM253.169 239.43C252.731 238.028 251.943 235.926 251.768 235.05C251.592 235.926 250.892 238.028 250.366 239.43L248.877 243.722H254.658L253.169 239.342V239.43ZM271.828 234.699V250.643H269.025V234.699H263.506V231.896H277.347V234.699H271.916H271.828ZM297.408 250.643H292.327V231.896H297.408C302.401 231.896 306.518 234.699 306.518 241.269C306.518 247.927 302.313 250.643 297.408 250.643ZM297.408 234.699H295.13V247.839H297.408C301.788 247.839 303.627 245.211 303.627 241.269C303.627 237.327 301.875 234.699 297.408 234.699ZM320.534 250.905C315.891 250.905 313.526 247.927 313.526 242.758V231.896H316.329V242.671C316.329 246.175 317.819 248.102 320.622 248.102C323.513 248.102 325.002 246.35 325.002 242.846V231.896H327.717V242.934C327.717 248.19 325.177 250.993 320.534 250.993V250.905ZM347.252 250.643L341.909 241.006L338.405 245.211V250.643H335.689V231.896H338.405V241.707L340.507 238.904L346.026 231.983H349.267L343.748 238.816L350.406 250.73H347.252V250.643ZM357.151 250.643V231.896H369.328V234.699H360.042V239.254H365.473V241.97H360.042V247.927H369.678V250.555H357.239L357.151 250.643ZM394.119 250.905C389.563 250.905 387.111 247.927 387.111 242.758V231.896H389.914V242.671C389.914 246.175 391.403 248.102 394.206 248.102C397.185 248.102 398.586 246.35 398.586 242.846V231.896H401.302V242.934C401.302 248.19 398.762 250.993 394.119 250.993V250.905ZM420.837 250.643L413.391 238.904L411.989 236.626V250.643H409.274V231.896H412.164L419.173 243.284L420.837 245.912V231.896H423.465V250.818H420.837V250.643ZM431.699 250.643V231.896H434.503V250.818H431.699V250.643ZM450.972 250.643H447.993L441.511 231.896H444.577L448.519 243.81C448.869 244.949 449.395 246.613 449.482 247.314L450.534 243.81L454.388 231.896H457.366L450.972 250.643ZM463.936 250.643V231.896H475.938V234.699H466.74V239.254H471.996V241.97H466.74V247.927H476.376V250.555H463.936V250.643ZM493.283 243.021L497.049 250.643H493.808L490.129 243.197H485.837V250.643H483.033V231.896H491.268C494.509 231.896 497.312 233.648 497.312 237.502C497.312 240.481 495.736 242.32 493.195 243.021H493.283ZM491.355 234.612H485.837V240.568H491.268C493.108 240.568 494.421 239.692 494.421 237.59C494.421 235.663 493.195 234.612 491.268 234.612H491.355ZM510.54 250.905C509.281 250.922 508.033 250.664 506.883 250.15C505.733 249.636 504.709 248.877 503.882 247.927L505.897 246C506.514 246.667 507.258 247.204 508.086 247.58C508.913 247.956 509.807 248.163 510.715 248.19C513.343 248.19 514.57 247.314 514.57 245.474C514.57 243.985 513.518 243.284 510.365 242.32C506.423 241.182 504.496 240.218 504.496 236.889C504.496 233.648 507.211 231.633 510.628 231.633C513.256 231.633 515.183 232.509 516.76 234.174L514.832 236.188C514.27 235.6 513.588 235.14 512.832 234.837C512.077 234.535 511.265 234.398 510.452 234.436C508.262 234.436 507.386 235.488 507.386 236.714C507.386 238.028 508.262 238.641 511.416 239.605C515.095 240.744 517.46 241.882 517.46 245.299C517.46 248.628 515.27 250.905 510.452 250.905H510.54ZM524.994 250.643V231.896H527.797V250.818H524.994V250.643ZM543.04 234.699V250.643H540.237V234.699H534.893V231.896H548.559V234.699H543.128H543.04ZM563.538 243.197V250.643H560.735V243.197L554.078 231.896H557.319L560.297 237.152L562.224 240.831C562.487 240.13 563.451 238.291 564.152 237.152L567.042 231.896H570.284L563.538 243.284V243.197Z" fill="#FFFAED"/>
</g>
<defs>
<clipPath id="clip0_1389_25">
<rect width="630.725" height="229.691" fill="white" transform="translate(25.9331 21.3018)"/>
</clipPath>
</defs>
</svg>
