<svg width="510" height="152" viewBox="0 0 510 152" fill="none" xmlns="http://www.w3.org/2000/svg">
<rect width="510" height="152" rx="40" fill="#3FBFC5" fill-opacity="0.4"/>
<path d="M172.279 68.409C172.279 69.4395 171.761 69.9548 170.724 69.9548H162.558C162.212 69.9548 162.04 70.1265 162.04 70.4699V89.1471C162.04 91.1222 162.429 92.5821 163.206 93.5264C164.027 94.4281 165.345 94.8789 167.16 94.8789H169.752C170.746 94.8789 171.242 95.394 171.242 96.4247V104.217C171.242 105.162 170.746 105.699 169.752 105.828C167.419 105.956 165.756 106.021 164.762 106.021C159.707 106.021 155.948 105.162 153.485 103.445C151.023 101.77 149.748 98.6572 149.661 94.1062V70.4699C149.661 70.1265 149.489 69.9548 149.143 69.9548H144.477C143.483 69.9548 142.986 69.4395 142.986 68.409V61.2602C142.986 60.2297 143.483 59.7145 144.477 59.7145H149.143C149.489 59.7145 149.661 59.5428 149.661 59.1993V49.0235C149.661 47.993 150.18 47.4778 151.217 47.4778H160.484C161.521 47.4778 162.04 47.993 162.04 49.0235V59.1993C162.04 59.5428 162.212 59.7145 162.558 59.7145H170.724C171.761 59.7145 172.279 60.2297 172.279 61.2602V68.409ZM207.211 61.2602C207.211 60.2297 207.729 59.7145 208.766 59.7145H218.423C219.46 59.7145 219.978 60.2297 219.978 61.2602V104.54C219.978 105.57 219.46 106.085 218.423 106.085H208.766C207.729 106.085 207.211 105.57 207.211 104.54V102.092C207.211 101.877 207.125 101.749 206.951 101.706C206.822 101.663 206.692 101.749 206.563 101.963C204.186 105.14 200.471 106.729 195.416 106.729C190.793 106.729 187.013 105.334 184.074 102.543C181.093 99.7948 179.603 95.9307 179.603 90.9505V61.2602C179.603 60.2297 180.121 59.7145 181.158 59.7145H190.75C191.786 59.7145 192.305 60.2297 192.305 61.2602V87.7947C192.305 90.1989 192.953 92.1524 194.249 93.6554C195.546 95.158 197.36 95.9095 199.693 95.9095C201.724 95.9095 203.409 95.287 204.748 94.0415C206.088 92.7965 206.908 91.1864 207.211 89.2114V61.2602ZM252.641 59.1349C254.585 59.1349 256.184 59.4783 257.437 60.1653C258.171 60.5517 258.452 61.1958 258.279 62.0974L256.529 71.5649C256.486 72.08 256.335 72.4018 256.076 72.5308C255.773 72.6598 255.32 72.6598 254.715 72.5308C253.764 72.3159 252.9 72.209 252.122 72.209C251.69 72.209 250.999 72.2517 250.049 72.3375C247.845 72.5524 245.987 73.3466 244.475 74.7207C242.963 76.1374 242.207 78.0266 242.207 80.3881V104.54C242.207 105.57 241.689 106.085 240.652 106.085H230.995C229.959 106.085 229.44 105.57 229.44 104.54V61.2602C229.44 60.2297 229.959 59.7145 230.995 59.7145H240.652C241.689 59.7145 242.207 60.2297 242.207 61.2602V64.0939C242.207 64.3086 242.272 64.4589 242.401 64.5448C242.531 64.5877 242.682 64.5233 242.855 64.3515C245.275 60.8737 248.536 59.1349 252.641 59.1349ZM305.459 71.5649C306.626 74.5701 307.209 78.2841 307.209 82.7066C307.209 87.0431 306.691 90.6497 305.654 93.5264C304.444 97.5196 302.24 100.718 299.043 103.123C295.889 105.57 292.26 106.794 288.156 106.794C283.706 106.794 280.249 105.184 277.787 101.963C277.657 101.749 277.527 101.663 277.398 101.706C277.225 101.749 277.138 101.877 277.138 102.092V104.54C277.138 105.57 276.62 106.085 275.583 106.085H265.927C264.89 106.085 264.371 105.57 264.371 104.54V44.5152C264.371 43.4848 264.89 42.9695 265.927 42.9695H275.583C276.62 42.9695 277.138 43.4848 277.138 44.5152V63.0635C277.138 63.3211 277.225 63.4714 277.398 63.5143C277.527 63.6002 277.657 63.5358 277.787 63.3211C280.206 60.4015 283.663 58.9417 288.156 58.9417C292.26 58.9417 295.824 60.0794 298.849 62.355C301.917 64.6306 304.12 67.7006 305.459 71.5649ZM291.85 91.8521C293.103 89.4905 293.729 86.5491 293.729 83.0288C293.729 79.1215 293.016 75.9657 291.591 73.5615C290.122 71.2426 288.005 70.0834 285.24 70.0834C282.69 70.0834 280.659 71.2642 279.147 73.6257C277.894 75.8583 277.268 78.9498 277.268 82.8998C277.268 86.6355 277.873 89.6191 279.083 91.8521C280.508 94.4281 282.561 95.7163 285.24 95.7163C288.177 95.7163 290.381 94.4281 291.85 91.8521ZM335.4 106.794C330.259 106.794 325.874 105.484 322.245 102.865C318.615 100.203 316.131 96.5963 314.792 92.0449C313.971 89.2114 313.56 86.1415 313.56 82.8356C313.56 79.1431 314.014 75.9441 314.921 73.2392C316.304 68.8169 318.788 65.3391 322.374 62.8059C325.96 60.2727 330.324 59.0061 335.465 59.0061C340.434 59.0061 344.69 60.2727 348.232 62.8059C351.775 65.3391 354.238 68.7954 355.621 73.1749C356.528 75.9226 356.981 79.0784 356.981 82.6423C356.981 85.7765 356.593 88.8033 355.815 91.7231C354.432 96.4462 351.926 100.139 348.297 102.801C344.711 105.463 340.412 106.794 335.4 106.794ZM335.4 95.9095C337.345 95.9095 339.008 95.3081 340.391 94.1062C341.773 92.9039 342.767 91.2507 343.372 89.1471C343.847 87.5155 344.085 85.4115 344.085 82.8356C344.085 80.3023 343.847 78.1556 343.372 76.395C342.767 74.3773 341.773 72.7884 340.391 71.6291C339.008 70.5126 337.28 69.9548 335.206 69.9548C333.219 69.9548 331.533 70.5126 330.151 71.6291C328.768 72.7884 327.775 74.3773 327.17 76.395C326.651 78.1556 326.392 80.3023 326.392 82.8356C326.392 85.283 326.651 87.3865 327.17 89.1471C327.775 91.2507 328.79 92.9039 330.216 94.1062C331.598 95.3081 333.326 95.9095 335.4 95.9095ZM401.053 59.0061C404.984 59.0061 408.484 59.693 411.552 61.067C414.619 62.398 417.017 64.2442 418.745 66.6057C420.474 68.9242 421.338 71.5433 421.338 74.4631V104.54C421.338 105.57 420.819 106.085 419.782 106.085H410.126C409.089 106.085 408.57 105.57 408.57 104.54V102.414C408.57 102.156 408.505 102.006 408.376 101.963C408.246 101.963 408.095 102.049 407.923 102.221C405.158 105.269 401.01 106.794 395.479 106.794C390.813 106.794 387.076 105.656 384.268 103.38C381.416 101.105 379.99 97.734 379.99 93.2689C379.99 88.6316 381.61 85.0465 384.851 82.5133C388.135 79.9373 392.801 78.6491 398.849 78.6491H407.987C408.376 78.6491 408.57 78.4774 408.57 78.134V76.2664C408.57 74.2483 407.944 72.6809 406.691 71.5649C405.438 70.4915 403.645 69.9548 401.312 69.9548C399.497 69.9548 397.985 70.2551 396.775 70.8565C395.609 71.4574 394.81 72.2948 394.377 73.3682C394.032 74.184 393.427 74.5701 392.563 74.5274L382.518 73.2392C382.042 73.1965 381.654 73.0675 381.351 72.8526C381.092 72.6382 381.006 72.3591 381.092 72.0157C381.394 69.5253 382.431 67.2927 384.203 65.3176C385.974 63.3426 388.329 61.7969 391.267 60.6806C394.205 59.5642 397.467 59.0061 401.053 59.0061ZM399.238 97.3263C401.831 97.3263 404.034 96.639 405.849 95.2654C407.663 93.8914 408.57 92.1097 408.57 89.9198V86.764C408.57 86.4206 408.376 86.2489 407.987 86.2489H401.571C398.849 86.2489 396.71 86.764 395.155 87.7947C393.557 88.8249 392.758 90.2632 392.758 92.1097C392.758 93.7413 393.362 95.029 394.572 95.9738C395.738 96.8755 397.294 97.3263 399.238 97.3263ZM437.345 55.335C435.012 55.335 433.133 54.6266 431.707 53.2097C430.238 51.7928 429.503 49.9681 429.503 47.7354C429.503 45.5027 430.238 43.6994 431.707 42.3255C433.133 40.9086 435.012 40.2002 437.345 40.2002C439.678 40.2002 441.558 40.8871 442.983 42.2611C444.409 43.635 445.122 45.4598 445.122 47.7354C445.122 50.011 444.409 51.8572 442.983 53.2741C441.558 54.6481 439.678 55.335 437.345 55.335ZM432.484 106.085C431.491 106.085 430.994 105.57 430.994 104.54V61.2602C430.994 60.2297 431.491 59.7145 432.484 59.7145H442.206C443.243 59.7145 443.761 60.2297 443.761 61.2602V104.54C443.761 105.57 443.243 106.085 442.206 106.085H432.484Z" fill="#FFF9EC"/>
<path d="M100.02 25.639C98.3271 24.7008 96.239 24.7458 94.0504 25.5916C94.9174 25.6247 95.7648 25.8578 96.5259 26.2724C101.069 28.7911 101.048 37.4388 96.4743 45.5855C95.6346 47.0822 94.7936 48.5776 93.9549 50.0743C92.3597 52.9152 89.9409 55.9773 88.8422 59.0206C88.5769 59.7539 87.8239 62.4562 87.976 63.1096C88.5518 65.597 93.5164 56.447 93.8608 55.8336C95.8973 52.2068 97.9338 48.5789 99.968 44.9521C104.54 36.8041 104.563 28.1564 100.02 25.639ZM116.494 123.89C115.779 123.89 115.149 123.747 114.592 123.464C112.741 122.517 112.312 120.353 111.897 118.257C111.525 116.369 111.173 114.586 109.912 113.938C108.026 112.97 104.196 113.587 101.905 113.96L101.656 114C99.5806 114.336 97.3605 115.021 95.0097 115.748C91.8545 116.721 88.5945 117.73 85.6075 117.851L84.3931 117.899L84.4886 116.698C84.5427 116.017 84.857 115.306 85.1914 114.549C85.8765 113.001 86.0965 112.241 85.5949 111.849C84.5452 111.025 81.3684 111.349 76.16 112.814L75.6459 112.958C75.192 113.083 74.537 113.286 73.7388 113.533C66.7138 115.707 58.9547 117.843 55.7704 115.65C54.908 115.054 54.4189 114.173 54.356 113.096C54.3399 112.812 54.4378 112.534 54.628 112.322C54.8183 112.11 55.0854 111.983 55.3706 111.966C55.9703 111.962 56.4731 112.383 56.5083 112.975C56.5322 113.397 56.678 113.672 56.9986 113.89C59.5871 115.673 69.4029 112.632 73.0989 111.488C73.9261 111.232 74.6037 111.022 75.0726 110.892L75.573 110.753C80.2005 109.452 84.779 108.484 86.9313 110.166C88.8258 111.653 87.8264 113.914 87.1664 115.409C87.1425 115.462 87.1224 115.512 87.0985 115.562C89.4054 115.236 91.9207 114.458 94.3697 113.701C96.6894 112.986 99.0868 112.244 101.312 111.885L101.56 111.845C104.28 111.404 108.391 110.741 110.902 112.035C113.086 113.157 113.58 115.648 114.014 117.844C114.344 119.51 114.655 121.085 115.579 121.558C116.39 121.972 117.895 121.693 119.936 120.768C120.065 120.708 120.205 120.673 120.348 120.667C120.49 120.661 120.632 120.682 120.766 120.732C120.899 120.78 121.022 120.855 121.127 120.951C121.232 121.047 121.316 121.163 121.375 121.292C121.434 121.421 121.467 121.56 121.472 121.701C121.476 121.843 121.453 121.984 121.402 122.116C121.352 122.249 121.275 122.37 121.177 122.473C121.079 122.576 120.962 122.658 120.831 122.715C119.097 123.503 117.675 123.89 116.494 123.89ZM62.1906 86.8814C58.526 85.6832 55.6258 83.6632 54.0908 81.5243C46.4222 97.9455 42.9801 110.547 46.2097 112.338C49.555 114.191 59.0691 103.885 69.5248 87.8373C67.3612 88.0319 64.8042 87.7349 62.1906 86.8814Z" fill="#FFF9EC"/>
<path d="M95.4612 24.5887C91.1556 22.2025 83.7296 27.2859 78.8732 35.9399L59.8312 69.8687L59.8979 69.9049C58.0362 73.406 56.2572 76.9502 54.5625 80.5338C56.5714 82.2554 59.4503 83.8485 62.8295 84.953C65.5538 85.8437 68.2026 86.2835 70.5157 86.3184C72.1727 83.7305 73.7837 81.1141 75.3482 78.4702L75.4136 78.5065L94.458 44.5776C99.3158 35.9237 99.7635 26.9749 95.4612 24.5887Z" fill="#FFF9EC"/>
</svg>
