<svg preserveAspectRatio="none" width="100%" height="100%" overflow="visible" style="display: block;" viewBox="0 0 728.421 1738.15" fill="none" xmlns="http://www.w3.org/2000/svg">
<g id="cat arcade design - blue">
<path id="backward wall" d="M553.585 31.1475L354.108 62.4424C349.398 63.1814 345.864 67.1434 345.667 71.9075L290.75 1397.02C290.566 1401.46 293.33 1405.48 297.537 1406.91L638.968 1522.38C645.452 1524.57 652.172 1519.75 652.172 1512.9V936.891C652.172 933.232 654.17 929.866 657.381 928.113L721.712 893.004C724.923 891.251 726.921 887.885 726.921 884.226V781.871C726.921 777.786 724.437 774.112 720.647 772.59L529.627 695.912C525.994 694.454 523.547 691.011 523.363 687.101L504.729 290.177C504.556 286.492 506.426 283.011 509.594 281.121L560.259 250.889C563.283 249.085 565.135 245.823 565.135 242.302V41.0266C565.135 34.8858 559.652 30.1957 553.585 31.1475Z" fill="var(--fill-0, #3F5EC5)" stroke="var(--stroke-0, #A7AEE4)" stroke-width="3"/>
<path id="floor forward" d="M620.428 1494.09V1410.87L258.969 1599.72L269.368 1692.79L620.428 1494.09Z" fill="var(--fill-0, #96A8E9)"/>
<path id="floor thing" d="M515.965 1373.45L184.2 1543.05L263.557 1596.68L620.921 1410.66L515.965 1373.45Z" fill="var(--fill-0, #3A135E)"/>
<path id="panel" d="M713.097 783.36L485.265 701.77L178.587 769.609L398.228 869.993L713.097 783.36Z" fill="var(--fill-0, #869EEA)"/>
<path id="bottom panel" d="M211.673 1047.24L532.914 908.443L518.545 1377.87L211.673 1536.47V1047.24Z" fill="var(--fill-0, #96A7E9)"/>
<path id="panel design thing" d="M385.168 1256.92L394.657 998.513L507.159 952.739L497.671 1206.71L385.168 1256.92Z" fill="var(--fill-0, #576DB5)"/>
<path id="dashboard" d="M714.634 782.442L396.693 869.992V994.669L714.634 892.452V782.442Z" fill="var(--fill-0, #3648A4)"/>
<path id="upper screen" d="M539.535 233.312L242.585 244.313V27.0439L539.535 42.1703V233.312Z" fill="var(--fill-0, #96A7E9)"/>
<path id="screen" d="M338.839 241.104L62.8804 245.229L187.292 768.234L485.777 703.219L338.839 241.104Z" fill="url(#paint0_linear_3029_517)"/>
<g id="button">
<path id="Vector 102" d="M561.55 772.509H523.598C523.598 787.275 542.574 785.798 543.93 785.798C552.062 785.798 561.55 784.321 561.55 772.509Z" fill="var(--fill-0, #4D0606)"/>
<ellipse id="Ellipse 30" cx="542.574" cy="772.509" rx="18.9762" ry="8.85951" fill="var(--fill-0, #8C3333)"/>
<path id="Vector 101" d="M534.441 775.461C537.152 776.78 545.285 778.626 556.129 775.461" stroke="var(--stroke-0, #FBC2A3)" stroke-width="0.2"/>
</g>
<g id="button_2">
<path id="Vector 102_2" d="M613.772 777.092H575.82C575.82 791.858 594.796 790.381 596.152 790.381C604.284 790.381 613.772 788.904 613.772 777.092Z" fill="var(--fill-0, #4D0606)"/>
<ellipse id="Ellipse 30_2" cx="594.796" cy="777.093" rx="18.9762" ry="8.85951" fill="var(--fill-0, #3583AE)"/>
<path id="Vector 101_2" d="M586.666 780.044C589.377 781.363 597.509 783.21 608.353 780.044" stroke="var(--stroke-0, #FBC2A3)" stroke-width="0.2"/>
</g>
<g id="button_3">
<path id="Vector 102_3" d="M581.006 748.673H543.053C543.053 763.439 562.03 761.963 563.385 761.963C571.518 761.963 581.006 760.486 581.006 748.673Z" fill="var(--fill-0, #4D0606)"/>
<ellipse id="Ellipse 30_3" cx="562.03" cy="748.676" rx="18.9762" ry="8.85951" fill="var(--fill-0, #FF4B4B)"/>
<path id="Vector 101_3" d="M553.895 751.628C556.606 752.947 564.738 754.793 575.582 751.628" stroke="var(--stroke-0, #FBC2A3)" stroke-width="0.2"/>
</g>
<path id="vent 3" d="M102.532 669.958L185.184 661.31L185.917 665.414L102.327 674.626L102.532 669.958Z" fill="var(--fill-0, #93A2A7)"/>
<path id="vent 2" d="M102.532 684.724L185.184 676.076L185.917 680.18L102.327 689.393L102.532 684.724Z" fill="var(--fill-0, #93A2A7)"/>
<path id="vent 1" d="M102.532 699.49L185.184 690.842L185.917 694.945L102.327 704.158L102.532 699.49Z" fill="var(--fill-0, #93A2A7)"/>
<path id="design header" d="M287.086 81.5903L265.623 89.3229L297.817 111.232L287.086 148.606H327.327L334.034 170.515L402.445 121.542L433.298 162.782L493.66 139.585L507.074 162.782H533.902L493.66 111.232L440.004 133.141L402.445 98.3442L334.034 121.542L287.086 81.5903Z" fill="var(--fill-0, #3648A4)"/>
<ellipse id="bottom button" cx="306.553" cy="1305.64" rx="12.199" ry="13.2893" fill="var(--fill-0, #547B9B)"/>
<ellipse id="bottom button_2" cx="306.553" cy="1361.75" rx="12.199" ry="13.2893" fill="var(--fill-0, #547B9B)"/>
<path id="screen back" d="M154.053 694.766L51.9661 336.539C50.2106 330.38 54.6179 324.181 61.0126 323.815L305.677 309.833C310.149 309.578 314.245 312.327 315.703 316.563L426.743 639.176C428.719 644.917 425.165 651.079 419.206 652.244L165.589 701.839C160.49 702.836 155.477 699.762 154.053 694.766Z" fill="var(--fill-0, #34032A)"/>
<path id="screen front" d="M172.401 650.451L78.2578 352.67C76.22 346.224 81.0323 339.656 87.7927 339.656H282.275C286.429 339.656 290.151 342.224 291.625 346.107L392.34 611.463C394.587 617.383 390.835 623.875 384.583 624.884L183.528 657.309C178.632 658.099 173.896 655.18 172.401 650.451Z" fill="url(#paint1_linear_3029_517)"/>
<path id="Vector 103" d="M326.681 617.579C351.607 619.91 391.926 612.724 353.788 565.329C359.314 577.404 361.629 604.759 326.681 617.579Z" fill="var(--fill-0, #FFFBEB)"/>
<path id="forward wall" d="M75.4697 1625.67L0.414487 58.1738C0.176612 53.2059 3.62589 48.8182 8.50955 47.8764L244.888 2.29353C251.057 1.10396 256.782 5.83026 256.782 12.1126V264.496C256.782 268.197 254.737 271.596 251.467 273.33L176.703 312.978C173.328 314.768 171.268 318.324 171.394 322.142L185.835 759.825C185.97 763.917 188.586 767.514 192.438 768.902L417.312 849.959C421.278 851.388 423.921 855.151 423.921 859.366V1011.41C423.921 1015.79 421.069 1019.66 416.885 1020.96L328.883 1048.27C324.757 1049.55 321.919 1053.33 321.848 1057.65L310.819 1722.92C310.7 1730.12 303.249 1734.84 296.694 1731.87L81.3318 1634.3C77.9129 1632.76 75.6492 1629.42 75.4697 1625.67Z" fill="url(#paint2_linear_3029_517)"/>
</g>
<defs>
<linearGradient id="paint0_linear_3029_517" x1="263.484" y1="221.852" x2="263.484" y2="785.907" gradientUnits="userSpaceOnUse">
<stop stop-color="#132E88"/>
<stop offset="1" stop-color="#3E1356"/>
</linearGradient>
<linearGradient id="paint1_linear_3029_517" x1="203.538" y1="326.668" x2="203.538" y2="619.032" gradientUnits="userSpaceOnUse">
<stop stop-color="#111A7E"/>
<stop offset="1" stop-color="#3F73DC"/>
</linearGradient>
<linearGradient id="paint2_linear_3029_517" x1="159.804" y1="-69.6912" x2="159.804" y2="1729.26" gradientUnits="userSpaceOnUse">
<stop stop-color="#4770F7"/>
<stop offset="0.990385" stop-color="#3648A4"/>
</linearGradient>
</defs>
</svg>
