<svg width="208" height="326" viewBox="0 0 208 326" fill="none" xmlns="http://www.w3.org/2000/svg">
<mask id="mask0_466_25" style="mask-type:alpha" maskUnits="userSpaceOnUse" x="0" y="116" width="208" height="210">
<ellipse cx="103.576" cy="221.298" rx="103.576" ry="104.702" fill="#333638"/>
</mask>
<g mask="url(#mask0_466_25)">
<ellipse cx="103.576" cy="221.298" rx="103.576" ry="104.702" fill="#333638"/>
<rect width="256.359" height="78.0588" transform="matrix(0.883662 -0.468125 0.460251 0.887789 -22.2523 237.03)" fill="#3A3D3F"/>
</g>
<ellipse cx="104.155" cy="221.883" rx="96.0539" ry="97.0979" fill="#40464A"/>
<mask id="mask1_466_25" style="mask-type:alpha" maskUnits="userSpaceOnUse" x="11" y="128" width="187" height="188">
<ellipse cx="104.139" cy="222.424" rx="92.8808" ry="93.4437" fill="#FFBC35"/>
</mask>
<g mask="url(#mask1_466_25)">
<ellipse cx="104.139" cy="222.424" rx="92.8808" ry="93.4437" fill="#FFBC35"/>
<rect width="256.359" height="62.2859" transform="matrix(-0.80564 -0.592405 0.599543 -0.800342 184.996 328.922)" fill="#E0A836"/>
</g>
<mask id="mask2_466_25" style="mask-type:alpha" maskUnits="userSpaceOnUse" x="15" y="133" width="178" height="179">
<ellipse cx="104.139" cy="222.424" rx="88.3775" ry="88.9404" fill="#FFBC35"/>
</mask>
<g mask="url(#mask2_466_25)">
<ellipse cx="104.139" cy="222.424" rx="88.3775" ry="88.9404" fill="#2B8F94"/>
<circle cx="104.702" cy="221.298" r="65.298" fill="#3FBFC5"/>
<path d="M25.0447 271.785L25.1645 193.659L40.5686 191.486L62.9894 266.433L52.1108 267.968L48.3559 254.562L35.9978 256.305L36.2715 270.202L25.0447 271.785ZM35.8096 246.79L45.8179 245.378L35.2574 207.635L35.0834 207.66L35.8096 246.79ZM65.4959 266.08L54.6935 189.494L72.2734 187.014C75.3194 186.585 77.9087 186.693 80.0413 187.339C82.2029 187.981 83.9928 189.134 85.411 190.798C86.8292 192.462 87.9751 194.608 88.8488 197.236C89.7184 199.835 90.4008 202.89 90.8959 206.4L91.123 208.01C91.8186 212.942 91.9768 217.21 91.5975 220.814C91.2431 224.385 90.0904 227.225 88.1394 229.334C86.1884 231.444 83.2112 232.781 79.2078 233.346L72.8982 234.236L77.1578 264.435L65.4959 266.08ZM71.5418 224.619L75.5451 224.054C77.2567 223.813 78.4717 223.198 79.1903 222.209C79.9088 221.22 80.2574 219.706 80.2362 217.668C80.2398 215.596 80.0044 212.878 79.5297 209.512L79.321 208.033C78.7069 203.889 77.9023 200.807 76.9074 198.787C75.9084 196.739 74.176 195.888 71.7101 196.236L67.6198 196.813L71.5418 224.619ZM102.118 260.914L91.3153 184.328L108.895 181.849C111.941 181.419 114.531 181.527 116.663 182.173C118.825 182.815 120.615 183.968 122.033 185.632C123.451 187.296 124.597 189.442 125.471 192.071C126.34 194.67 127.023 197.725 127.518 201.235L127.745 202.845C128.44 207.776 128.599 212.044 128.219 215.648C127.865 219.219 126.712 222.059 124.761 224.169C122.81 226.278 119.833 227.615 115.83 228.18L109.52 229.07L113.78 259.269L102.118 260.914ZM108.164 219.453L112.167 218.889C113.879 218.647 115.094 218.032 115.812 217.043C116.531 216.054 116.879 214.54 116.858 212.502C116.862 210.43 116.626 207.712 116.152 204.347L115.943 202.867C115.329 198.723 114.524 195.641 113.529 193.622C112.53 191.573 110.798 190.723 108.332 191.071L104.242 191.648L108.164 219.453ZM138.74 255.749L127.937 179.163L139.599 177.518L149.002 244.182L163.754 242.102L165.153 252.023L138.74 255.749ZM170.923 251.209L166.608 220.618L147.284 176.434L158.424 174.863L170.034 202.428L170.208 202.403L172.914 172.819L184.01 171.254L178.27 218.974L182.585 249.564L170.923 251.209Z" fill="white"/>
</g>
<mask id="mask3_466_25" style="mask-type:alpha" maskUnits="userSpaceOnUse" x="15" y="133" width="178" height="179">
<ellipse cx="104.139" cy="222.424" rx="88.3775" ry="88.9404" fill="#FFBC35"/>
</mask>
<g mask="url(#mask3_466_25)">
<ellipse cx="104.139" cy="222.424" rx="88.3775" ry="88.9404" fill="#BF3C3D"/>
<circle cx="104.702" cy="221.298" r="65.298" fill="#E64A4B"/>
<path d="M25.0447 271.785L25.1645 193.659L40.5686 191.486L62.9894 266.433L52.1108 267.968L48.3559 254.562L35.9978 256.305L36.2715 270.202L25.0447 271.785ZM35.8096 246.79L45.8179 245.378L35.2574 207.635L35.0834 207.66L35.8096 246.79ZM65.4959 266.08L54.6935 189.494L72.2734 187.014C75.3194 186.585 77.9087 186.693 80.0413 187.339C82.2029 187.981 83.9928 189.134 85.411 190.798C86.8292 192.462 87.9751 194.608 88.8488 197.236C89.7184 199.835 90.4008 202.89 90.8959 206.4L91.123 208.01C91.8186 212.942 91.9768 217.21 91.5975 220.814C91.2431 224.385 90.0904 227.225 88.1394 229.334C86.1884 231.444 83.2112 232.781 79.2078 233.346L72.8982 234.236L77.1578 264.435L65.4959 266.08ZM71.5418 224.619L75.5451 224.054C77.2567 223.813 78.4717 223.198 79.1903 222.209C79.9088 221.22 80.2574 219.706 80.2362 217.668C80.2398 215.596 80.0044 212.878 79.5297 209.512L79.321 208.033C78.7069 203.889 77.9023 200.807 76.9074 198.787C75.9084 196.739 74.176 195.888 71.7101 196.236L67.6198 196.813L71.5418 224.619ZM102.118 260.914L91.3153 184.328L108.895 181.849C111.941 181.419 114.531 181.527 116.663 182.173C118.825 182.815 120.615 183.968 122.033 185.632C123.451 187.296 124.597 189.442 125.471 192.071C126.34 194.67 127.023 197.725 127.518 201.235L127.745 202.845C128.44 207.776 128.599 212.044 128.219 215.648C127.865 219.219 126.712 222.059 124.761 224.169C122.81 226.278 119.833 227.615 115.83 228.18L109.52 229.07L113.78 259.269L102.118 260.914ZM108.164 219.453L112.167 218.889C113.879 218.647 115.094 218.032 115.812 217.043C116.531 216.054 116.879 214.54 116.858 212.502C116.862 210.43 116.626 207.712 116.152 204.347L115.943 202.867C115.329 198.723 114.524 195.641 113.529 193.622C112.53 191.573 110.798 190.723 108.332 191.071L104.242 191.648L108.164 219.453ZM138.74 255.749L127.937 179.163L139.599 177.518L149.002 244.182L163.754 242.102L165.153 252.023L138.74 255.749ZM170.923 251.209L166.608 220.618L147.284 176.434L158.424 174.863L170.034 202.428L170.208 202.403L172.914 172.819L184.01 171.254L178.27 218.974L182.585 249.564L170.923 251.209Z" fill="#FFBC35"/>
<path d="M25.0447 271.785L25.1645 193.659L40.5686 191.486L62.9894 266.433L52.1108 267.968L48.3559 254.562L35.9978 256.305L36.2715 270.202L25.0447 271.785ZM35.8096 246.79L45.8179 245.378L35.2574 207.635L35.0834 207.66L35.8096 246.79ZM65.4959 266.08L54.6935 189.494L72.2734 187.014C75.3194 186.585 77.9087 186.693 80.0413 187.339C82.2029 187.981 83.9928 189.134 85.411 190.798C86.8292 192.462 87.9751 194.608 88.8488 197.236C89.7184 199.835 90.4008 202.89 90.8959 206.4L91.123 208.01C91.8186 212.942 91.9768 217.21 91.5975 220.814C91.2431 224.385 90.0904 227.225 88.1394 229.334C86.1884 231.444 83.2112 232.781 79.2078 233.346L72.8982 234.236L77.1578 264.435L65.4959 266.08ZM71.5418 224.619L75.5451 224.054C77.2567 223.813 78.4717 223.198 79.1903 222.209C79.9088 221.22 80.2574 219.706 80.2362 217.668C80.2398 215.596 80.0044 212.878 79.5297 209.512L79.321 208.033C78.7069 203.889 77.9023 200.807 76.9074 198.787C75.9084 196.739 74.176 195.888 71.7101 196.236L67.6198 196.813L71.5418 224.619ZM102.118 260.914L91.3153 184.328L108.895 181.849C111.941 181.419 114.531 181.527 116.663 182.173C118.825 182.815 120.615 183.968 122.033 185.632C123.451 187.296 124.597 189.442 125.471 192.071C126.34 194.67 127.023 197.725 127.518 201.235L127.745 202.845C128.44 207.776 128.599 212.044 128.219 215.648C127.865 219.219 126.712 222.059 124.761 224.169C122.81 226.278 119.833 227.615 115.83 228.18L109.52 229.07L113.78 259.269L102.118 260.914ZM108.164 219.453L112.167 218.889C113.879 218.647 115.094 218.032 115.812 217.043C116.531 216.054 116.879 214.54 116.858 212.502C116.862 210.43 116.626 207.712 116.152 204.347L115.943 202.867C115.329 198.723 114.524 195.641 113.529 193.622C112.53 191.573 110.798 190.723 108.332 191.071L104.242 191.648L108.164 219.453ZM138.74 255.749L127.937 179.163L139.599 177.518L149.002 244.182L163.754 242.102L165.153 252.023L138.74 255.749ZM170.923 251.209L166.608 220.618L147.284 176.434L158.424 174.863L170.034 202.428L170.208 202.403L172.914 172.819L184.01 171.254L178.27 218.974L182.585 249.564L170.923 251.209Z" fill="#FFF9EC"/>
</g>
<rect x="100.139" y="-0.0264893" width="8" height="120" fill="#333638"/>
<rect x="100.139" y="-0.0264893" width="2" height="119" fill="#40464A"/>
</svg>
