<svg preserveAspectRatio="none" width="100%" height="100%" overflow="visible" style="display: block;" viewBox="0 0 148.908 290.996" fill="none" xmlns="http://www.w3.org/2000/svg">
<g id="claw">
<path id="Vector 78" d="M53.3755 187.969V199.797H95.0296V187.969L89.8872 182.827H58.0038L53.3755 187.969Z" fill="var(--fill-0, #2B7D94)"/>
<path id="Vector 79" d="M53.3755 187.969V199.797H57.3497V188.147L61.8773 182.827L58.0038 182.827L53.3755 187.969Z" fill="var(--fill-0, #3FA4C5)"/>
<g id="claws">
<path id="Vector 76" d="M0.396643 215.916C2.45364 192.055 21.138 172.034 30.2231 165.006L42.5651 188.147C38.4511 189.69 28.5775 196.375 21.9952 210.774C13.7673 228.772 18.3954 252.428 28.1661 267.855C35.9827 280.197 46.1648 288.082 50.2788 290.482C44.7935 290.482 31.2515 287.602 20.9666 276.083C8.11037 261.684 -2.1746 245.743 0.396643 215.916Z" fill="var(--fill-0, #3FA4C5)"/>
<path id="Vector 78_2" d="M0.396643 215.916C2.45364 192.055 21.138 172.034 30.2231 165.006L33.2025 176.828C27.9203 179.595 16.0423 189.667 10.816 205.251C4.52343 224.014 7.46556 247.041 16.6013 262.852C23.1411 274.171 30.9387 282.472 50.2788 290.482C44.7935 290.482 31.2515 287.602 20.9666 276.083C8.11037 261.684 -2.1746 245.743 0.396643 215.916Z" fill="var(--fill-0, #74D0E0)"/>
<path id="Vector 77" d="M148.511 216.43C146.454 192.569 127.77 172.548 118.684 165.52L106.342 188.661C110.456 190.204 120.33 196.889 126.912 211.288C135.14 229.287 130.512 252.942 120.741 268.369C112.925 280.711 102.743 288.597 98.6287 290.996C104.114 290.996 117.656 288.117 127.941 276.597C140.797 262.199 151.082 246.257 148.511 216.43Z" fill="var(--fill-0, #3FA4C5)"/>
<path id="Vector 79_2" d="M148.483 216.419C146.426 192.558 127.741 172.537 118.656 165.509L115.677 177.331C120.959 180.098 132.837 190.17 138.064 205.754C144.356 224.517 141.414 247.544 132.278 263.356C125.738 274.675 117.941 282.975 98.6006 290.985C104.086 290.985 117.628 288.106 127.913 276.586C140.769 262.188 151.054 246.246 148.483 216.419Z" fill="var(--fill-0, #2B7D94)"/>
</g>
<g id="phone line thing">
<path id="Vector 81" d="M42.0628 122.658C47.4109 127.183 55.4332 132.428 59.0329 133.971L61.6042 127.286C58.5187 125.743 52.3477 122.143 48.748 119.058C45.1482 115.972 41.7199 112.201 38.9773 109.287L32.8063 113.915C33.6634 114.944 36.7146 118.132 42.0628 122.658Z" fill="var(--fill-0, #333638)"/>
<path id="ring" fill-rule="evenodd" clip-rule="evenodd" d="M29.7213 89.2332C37.1056 89.2332 43.0918 95.2193 43.0918 102.604C43.0918 109.988 37.1056 115.974 29.7213 115.974C22.337 115.974 16.3509 109.988 16.3509 102.604C16.3509 95.2193 22.337 89.2332 29.7213 89.2332ZM29.7213 94.3756C25.1772 94.3756 21.4934 98.0594 21.4934 102.604C21.4934 107.148 25.1772 110.832 29.7213 110.832C34.2655 110.832 37.9493 107.148 37.9493 102.604C37.9493 98.0594 34.2655 94.3756 29.7213 94.3756Z" fill="var(--fill-0, #40464A)"/>
<path id="ring_2" fill-rule="evenodd" clip-rule="evenodd" d="M22.4261 73.9513C29.8104 73.9513 35.7965 79.9374 35.7965 87.3217C35.7965 94.706 29.8104 100.692 22.4261 100.692C15.0418 100.692 9.05559 94.706 9.05559 87.3217C9.05559 79.9374 15.0418 73.9513 22.4261 73.9513ZM22.4261 79.0938C17.8819 79.0938 14.1981 82.7776 14.1981 87.3217C14.1981 91.8659 17.8819 95.5497 22.4261 95.5497C26.9702 95.5497 30.654 91.8659 30.654 87.3217C30.654 82.7776 26.9702 79.0938 22.4261 79.0938Z" fill="var(--fill-0, #333638)"/>
<path id="ring_3" fill-rule="evenodd" clip-rule="evenodd" d="M20.9174 57.3488C28.3017 57.3488 34.2878 63.335 34.2878 70.7193C34.2878 78.1036 28.3017 84.0897 20.9174 84.0897C13.5331 84.0897 7.54692 78.1036 7.54692 70.7193C7.54692 63.335 13.5331 57.3488 20.9174 57.3488ZM20.9174 62.4913C16.3732 62.4913 12.6894 66.1751 12.6894 70.7193C12.6894 75.2634 16.3732 78.9472 20.9174 78.9472C25.4616 78.9472 29.1454 75.2634 29.1454 70.7193C29.1454 66.1751 25.4616 62.4913 20.9174 62.4913Z" fill="var(--fill-0, #40464A)"/>
<path id="ring_4" fill-rule="evenodd" clip-rule="evenodd" d="M20.9174 39.7419C28.3017 39.7419 34.2878 45.728 34.2878 53.1123C34.2878 60.4966 28.3017 66.4828 20.9174 66.4828C13.5331 66.4828 7.54692 60.4966 7.54692 53.1123C7.54692 45.728 13.5331 39.7419 20.9174 39.7419ZM20.9174 44.8844C16.3732 44.8844 12.6894 48.5682 12.6894 53.1123C12.6894 57.6565 16.3732 61.3403 20.9174 61.3403C25.4616 61.3403 29.1454 57.6565 29.1454 53.1123C29.1454 48.5682 25.4616 44.8844 20.9174 44.8844Z" fill="var(--fill-0, #333638)"/>
<path id="ring_5" fill-rule="evenodd" clip-rule="evenodd" d="M27.4558 24.1459C34.8401 24.1459 40.8263 30.132 40.8263 37.5163C40.8263 44.9006 34.8401 50.8868 27.4558 50.8868C20.0715 50.8868 14.0854 44.9006 14.0854 37.5163C14.0854 30.132 20.0715 24.1459 27.4558 24.1459ZM27.4558 29.2883C22.9116 29.2883 19.2278 32.9721 19.2278 37.5163C19.2278 42.0605 22.9116 45.7443 27.4558 45.7443C32 45.7443 35.6838 42.0605 35.6838 37.5163C35.6838 32.9721 32 29.2883 27.4558 29.2883Z" fill="var(--fill-0, #40464A)"/>
<path id="ring_6" fill-rule="evenodd" clip-rule="evenodd" d="M37.5183 11.068C44.9026 11.068 50.8888 17.0541 50.8888 24.4384C50.8888 31.8227 44.9026 37.8089 37.5183 37.8089C30.134 37.8089 24.1479 31.8227 24.1479 24.4384C24.1479 17.0541 30.134 11.068 37.5183 11.068ZM37.5183 16.2105C32.9742 16.2105 29.2904 19.8943 29.2904 24.4384C29.2904 28.9826 32.9742 32.6664 37.5183 32.6664C42.0625 32.6664 45.7463 28.9826 45.7463 24.4384C45.7463 19.8943 42.0625 16.2105 37.5183 16.2105Z" fill="var(--fill-0, #333638)"/>
<path id="ring_7" fill-rule="evenodd" clip-rule="evenodd" d="M50.5972 0C57.9815 0 63.9677 5.98616 63.9677 13.3705C63.9677 20.7548 57.9815 26.7409 50.5972 26.7409C43.2129 26.7409 37.2268 20.7548 37.2268 13.3705C37.2268 5.98616 43.2129 0 50.5972 0ZM50.5972 5.14248C46.053 5.14248 42.3693 8.82627 42.3693 13.3705C42.3693 17.9146 46.053 21.5984 50.5972 21.5984C55.1414 21.5984 58.8252 17.9146 58.8252 13.3705C58.8252 8.82627 55.1414 5.14248 50.5972 5.14248Z" fill="var(--fill-0, #40464A)"/>
</g>
<g id="vert part">
<rect id="Rectangle 267" x="64.6892" y="151.971" width="17.4844" height="30.8549" fill="var(--fill-0, #333638)"/>
<path id="Vector 80" d="M89.3739 102.602H57.4905V142.714C57.4905 144.085 57.6962 147.239 58.519 148.885C59.3417 150.53 62.2901 151.627 63.6614 151.97H83.2029C84.917 151.799 88.4482 150.942 88.8596 148.885C89.271 146.828 89.3739 143.914 89.3739 142.714V102.602Z" fill="var(--fill-0, #2B7D94)"/>
<rect id="Rectangle 272" x="57.3499" y="103.631" width="11.0675" height="44.7731" fill="var(--fill-0, #3FA4C5)"/>
<rect id="Rectangle 275" x="59.3613" y="103.631" width="3.01841" height="44.7731" fill="var(--fill-0, #74D0E0)"/>
<rect id="Rectangle 273" x="85.5211" y="103.631" width="4.02455" height="44.7731" fill="var(--fill-0, #3FA4C5)"/>
<rect id="Rectangle 269" x="62.6323" y="60.4354" width="21.5984" height="23.6554" fill="var(--fill-0, #2B7D94)"/>
<rect id="Rectangle 271" x="67.9552" y="9.86462" width="10.9603" height="41.6493" fill="var(--fill-0, #2B7D94)"/>
<rect id="Rectangle 277" x="67.9552" y="9.86462" width="3.83612" height="41.6493" fill="var(--fill-0, #3FA4C5)"/>
<rect id="Rectangle 273_2" x="62.3807" y="60.3673" width="7.54602" height="23.6442" fill="var(--fill-0, #3FA4C5)"/>
<rect id="Rectangle 276" x="63.8898" y="60.3673" width="2.51534" height="23.6442" fill="var(--fill-0, #74D0E0)"/>
<rect id="Rectangle 274" x="82" y="60.3673" width="2.51534" height="24.1473" fill="var(--fill-0, #3FA4C5)"/>
<rect id="Rectangle 270" x="54.4041" y="51.1782" width="39.0829" height="9.25647" fill="var(--fill-0, #E64A4B)"/>
<rect id="Rectangle 279" x="58.8586" y="51.3133" width="8.55216" height="9.05523" fill="var(--fill-0, #FF7D7E)"/>
<path id="Vector 80_2" d="M92.9728 84.09H54.4042C52.3472 85.3242 50.4616 87.1755 50.2902 88.204V97.9747C50.2902 101.266 53.3757 103.289 54.4042 103.631C66.2319 103.631 90.5044 103.529 92.9728 103.117C95.4412 102.706 96.4012 99.8603 96.5726 98.489V88.7182C96.5726 86.2499 94.1728 84.6043 92.9728 84.09Z" fill="var(--fill-0, #E64A4B)"/>
<rect id="Rectangle 278" x="57.3499" y="84.013" width="10.0614" height="19.6197" fill="var(--fill-0, #FF7D7E)"/>
<rect id="Rectangle 268" x="50.2902" y="91.2903" width="46.2824" height="7.19948" fill="var(--fill-0, #333638)"/>
</g>
<g id="Mask group">
<mask id="mask0_3029_446" style="mask-type:alpha" maskUnits="userSpaceOnUse" x="29" y="136" width="91" height="64">
<path id="claw base" fill-rule="evenodd" clip-rule="evenodd" d="M109.943 136.545C114.572 141.859 122.697 156.292 118.171 171.514C113.646 186.735 100.516 196.712 94.516 199.797H53.3761C47.2051 196.026 34.1432 185.398 31.2634 173.057C27.6637 157.629 31.2634 145.287 40.0056 136.545H109.943ZM48.2336 148.887C45.1481 152.487 42.0626 157.629 43.6054 169.971C44.8396 179.845 53.7189 188.484 58.0043 191.57H90.9162C95.0302 188.998 103.67 181.079 105.315 169.971C106.961 158.863 102.915 151.287 100.687 148.887H48.2336Z" fill="var(--fill-0, #E64A4B)"/>
</mask>
<g mask="url(#mask0_3029_446)">
<path id="claw base_2" fill-rule="evenodd" clip-rule="evenodd" d="M109.943 136.545C114.572 141.859 122.697 156.292 118.171 171.514C113.646 186.735 100.516 196.712 94.516 199.797H53.3761C47.2051 196.026 34.1432 185.398 31.2634 173.057C27.6637 157.629 31.2634 145.287 40.0056 136.545H109.943ZM48.2336 148.887C45.1481 152.487 42.0626 157.629 43.6054 169.971C44.8396 179.845 53.7189 188.484 58.0043 191.57H90.9162C95.0302 188.998 103.67 181.079 105.315 169.971C106.961 158.863 102.915 151.287 100.687 148.887H48.2336Z" fill="var(--fill-0, #E64A4B)"/>
<rect id="Rectangle 278_2" x="38.0312" y="122.749" width="105.644" height="29.178" transform="rotate(33.0104 38.0312 122.749)" fill="var(--fill-0, #FF7D7E)"/>
<rect id="Rectangle 279_2" x="85.5981" y="116.208" width="55.3233" height="11.2204" transform="rotate(33.0104 85.5981 116.208)" fill="var(--fill-0, #FF7D7E)"/>
</g>
</g>
</g>
</svg>
