<svg width="1920" height="4320" viewBox="0 0 1920 4320" fill="none" xmlns="http://www.w3.org/2000/svg">
<rect width="1920" height="1080" fill="#E5C79B"/>
<rect width="1920" height="1080" fill="url(#paint0_linear_258_484)" fill-opacity="0.75"/>
<rect width="227" height="1080" fill="#AD9777"/>
<rect x="1370" width="133" height="1080" fill="#AEB9BF" fill-opacity="0.5"/>
<rect x="1575" width="48" height="1080" fill="#AD9777"/>
<rect x="1061" width="46" height="1080" fill="#9E8764"/>
<rect x="1324" y="139" width="150" height="1097" transform="rotate(90 1324 139)" fill="#FFBB9D" fill-opacity="0.25"/>
<rect x="1324" width="46" height="1080" fill="#C2A67C"/>
<rect x="405" width="37" height="1080" fill="#C9AF89"/>
<rect x="1920" y="540" width="321" height="1920" transform="rotate(90 1920 540)" fill="#E5C79B" fill-opacity="0.25"/>
<rect x="1662" width="86" height="1080" fill="#E0A689" fill-opacity="0.5"/>
<rect x="759" width="188" height="1080" fill="#C0936B" fill-opacity="0.75"/>
<rect x="1834" width="86" height="1080" fill="#C0936B"/>
<rect x="442" width="93" height="1080" fill="#C18E75"/>
<rect x="371" width="34" height="1080" fill="#C18E75" fill-opacity="0.5"/>
<rect x="986" width="75" height="1080" fill="#C2A67C"/>
<rect width="1920" height="1080" fill="url(#paint1_linear_258_484)" fill-opacity="0.5"/>
<rect width="1920" height="1080" fill="url(#paint2_linear_258_484)" fill-opacity="0.6"/>
<rect width="1920" height="1080" fill="#786954" fill-opacity="0.35"/>
<rect y="1080" width="1920" height="1080" fill="#E5C79B"/>
<rect y="1080" width="1920" height="1080" fill="url(#paint3_linear_258_484)" fill-opacity="0.75"/>
<rect y="1080" width="227" height="1080" fill="#AD9777"/>
<rect x="1370" y="1080" width="133" height="1080" fill="#AEB9BF" fill-opacity="0.5"/>
<rect x="1575" y="1080" width="48" height="1080" fill="#AD9777"/>
<rect x="1061" y="1080" width="46" height="1080" fill="#9E8764"/>
<rect x="1324" y="1219" width="150" height="1097" transform="rotate(90 1324 1219)" fill="#FFBB9D" fill-opacity="0.25"/>
<rect x="1324" y="1080" width="46" height="1080" fill="#C2A67C"/>
<rect x="405" y="1080" width="37" height="1080" fill="#C9AF89"/>
<rect x="1920" y="1620" width="321" height="1920" transform="rotate(90 1920 1620)" fill="#E5C79B" fill-opacity="0.25"/>
<rect x="1662" y="1080" width="86" height="1080" fill="#E0A689" fill-opacity="0.5"/>
<rect x="759" y="1080" width="188" height="1080" fill="#C0936B" fill-opacity="0.75"/>
<rect x="1834" y="1080" width="86" height="1080" fill="#C0936B"/>
<rect x="442" y="1080" width="93" height="1080" fill="#C18E75"/>
<rect x="371" y="1080" width="34" height="1080" fill="#C18E75" fill-opacity="0.5"/>
<rect x="986" y="1080" width="75" height="1080" fill="#C2A67C"/>
<rect y="1080" width="1920" height="1080" fill="url(#paint4_linear_258_484)" fill-opacity="0.5"/>
<rect y="1080" width="1920" height="1080" fill="url(#paint5_linear_258_484)" fill-opacity="0.6"/>
<rect y="1080" width="1920" height="1080" fill="#786954" fill-opacity="0.35"/>
<rect y="2160" width="1920" height="1080" fill="#E5C79B"/>
<rect y="2160" width="1920" height="1080" fill="url(#paint6_linear_258_484)" fill-opacity="0.75"/>
<rect y="2160" width="227" height="1080" fill="#AD9777"/>
<rect x="1370" y="2160" width="133" height="1080" fill="#AEB9BF" fill-opacity="0.5"/>
<rect x="1575" y="2160" width="48" height="1080" fill="#AD9777"/>
<rect x="1061" y="2160" width="46" height="1080" fill="#9E8764"/>
<rect x="1324" y="2299" width="150" height="1097" transform="rotate(90 1324 2299)" fill="#FFBB9D" fill-opacity="0.25"/>
<rect x="1324" y="2160" width="46" height="1080" fill="#C2A67C"/>
<rect x="405" y="2160" width="37" height="1080" fill="#C9AF89"/>
<rect x="1920" y="2700" width="321" height="1920" transform="rotate(90 1920 2700)" fill="#E5C79B" fill-opacity="0.25"/>
<rect x="1662" y="2160" width="86" height="1080" fill="#E0A689" fill-opacity="0.5"/>
<rect x="759" y="2160" width="188" height="1080" fill="#C0936B" fill-opacity="0.75"/>
<rect x="1834" y="2160" width="86" height="1080" fill="#C0936B"/>
<rect x="442" y="2160" width="93" height="1080" fill="#C18E75"/>
<rect x="371" y="2160" width="34" height="1080" fill="#C18E75" fill-opacity="0.5"/>
<rect x="986" y="2160" width="75" height="1080" fill="#C2A67C"/>
<rect y="2160" width="1920" height="1080" fill="url(#paint7_linear_258_484)" fill-opacity="0.5"/>
<rect y="2160" width="1920" height="1080" fill="url(#paint8_linear_258_484)" fill-opacity="0.6"/>
<rect y="2160" width="1920" height="1080" fill="#786954" fill-opacity="0.35"/>
<rect y="3240" width="1920" height="1080" fill="#E5C79B"/>
<rect y="3240" width="1920" height="1080" fill="url(#paint9_linear_258_484)" fill-opacity="0.75"/>
<rect y="3240" width="227" height="1080" fill="#AD9777"/>
<rect x="1370" y="3240" width="133" height="1080" fill="#AEB9BF" fill-opacity="0.5"/>
<rect x="1575" y="3240" width="48" height="1080" fill="#AD9777"/>
<rect x="1061" y="3240" width="46" height="1080" fill="#9E8764"/>
<rect x="1324" y="3379" width="150" height="1097" transform="rotate(90 1324 3379)" fill="#FFBB9D" fill-opacity="0.25"/>
<rect x="1324" y="3240" width="46" height="1080" fill="#C2A67C"/>
<rect x="405" y="3240" width="37" height="1080" fill="#C9AF89"/>
<rect x="1920" y="3780" width="321" height="1920" transform="rotate(90 1920 3780)" fill="#E5C79B" fill-opacity="0.25"/>
<rect x="1662" y="3240" width="86" height="1080" fill="#E0A689" fill-opacity="0.5"/>
<rect x="759" y="3240" width="188" height="1080" fill="#C0936B" fill-opacity="0.75"/>
<rect x="1834" y="3240" width="86" height="1080" fill="#C0936B"/>
<rect x="442" y="3240" width="93" height="1080" fill="#C18E75"/>
<rect x="371" y="3240" width="34" height="1080" fill="#C18E75" fill-opacity="0.5"/>
<rect x="986" y="3240" width="75" height="1080" fill="#C2A67C"/>
<rect y="3240" width="1920" height="1080" fill="url(#paint10_linear_258_484)" fill-opacity="0.5"/>
<rect y="3240" width="1920" height="1080" fill="url(#paint11_linear_258_484)" fill-opacity="0.6"/>
<rect y="3240" width="1920" height="1080" fill="#786954" fill-opacity="0.35"/>
<rect width="1920" height="760" fill="#292B2C"/>
<defs>
<linearGradient id="paint0_linear_258_484" x1="150" y1="-1.40839e-05" x2="1770.5" y2="1020.5" gradientUnits="userSpaceOnUse">
<stop offset="0.0288462" stop-color="#786954" stop-opacity="0.5"/>
<stop offset="0.3125" stop-color="#EC9A72" stop-opacity="0.5"/>
<stop offset="0.673077" stop-color="#AEB9BF" stop-opacity="0.25"/>
</linearGradient>
<linearGradient id="paint1_linear_258_484" x1="150" y1="-1.40839e-05" x2="1770.5" y2="1020.5" gradientUnits="userSpaceOnUse">
<stop offset="0.0288462" stop-color="#786954" stop-opacity="0.5"/>
<stop offset="0.3125" stop-color="#EC9A72" stop-opacity="0.5"/>
<stop offset="0.634615" stop-color="#AEB9BF" stop-opacity="0.25"/>
<stop offset="0.826923" stop-color="#EC9A72" stop-opacity="0.4"/>
<stop offset="1" stop-color="#786954" stop-opacity="0.5"/>
</linearGradient>
<linearGradient id="paint2_linear_258_484" x1="0" y1="540" x2="1920" y2="540" gradientUnits="userSpaceOnUse">
<stop stop-color="#896351"/>
<stop offset="1" stop-color="#67747B"/>
</linearGradient>
<linearGradient id="paint3_linear_258_484" x1="150" y1="1080" x2="1770.5" y2="2100.5" gradientUnits="userSpaceOnUse">
<stop offset="0.0288462" stop-color="#786954" stop-opacity="0.5"/>
<stop offset="0.3125" stop-color="#EC9A72" stop-opacity="0.5"/>
<stop offset="0.673077" stop-color="#AEB9BF" stop-opacity="0.25"/>
</linearGradient>
<linearGradient id="paint4_linear_258_484" x1="150" y1="1080" x2="1770.5" y2="2100.5" gradientUnits="userSpaceOnUse">
<stop offset="0.0288462" stop-color="#786954" stop-opacity="0.5"/>
<stop offset="0.3125" stop-color="#EC9A72" stop-opacity="0.5"/>
<stop offset="0.634615" stop-color="#AEB9BF" stop-opacity="0.25"/>
<stop offset="0.826923" stop-color="#EC9A72" stop-opacity="0.4"/>
<stop offset="1" stop-color="#786954" stop-opacity="0.5"/>
</linearGradient>
<linearGradient id="paint5_linear_258_484" x1="0" y1="1620" x2="1920" y2="1620" gradientUnits="userSpaceOnUse">
<stop stop-color="#896351"/>
<stop offset="1" stop-color="#67747B"/>
</linearGradient>
<linearGradient id="paint6_linear_258_484" x1="150" y1="2160" x2="1770.5" y2="3180.5" gradientUnits="userSpaceOnUse">
<stop offset="0.0288462" stop-color="#786954" stop-opacity="0.5"/>
<stop offset="0.3125" stop-color="#EC9A72" stop-opacity="0.5"/>
<stop offset="0.673077" stop-color="#AEB9BF" stop-opacity="0.25"/>
</linearGradient>
<linearGradient id="paint7_linear_258_484" x1="150" y1="2160" x2="1770.5" y2="3180.5" gradientUnits="userSpaceOnUse">
<stop offset="0.0288462" stop-color="#786954" stop-opacity="0.5"/>
<stop offset="0.3125" stop-color="#EC9A72" stop-opacity="0.5"/>
<stop offset="0.634615" stop-color="#AEB9BF" stop-opacity="0.25"/>
<stop offset="0.826923" stop-color="#EC9A72" stop-opacity="0.4"/>
<stop offset="1" stop-color="#786954" stop-opacity="0.5"/>
</linearGradient>
<linearGradient id="paint8_linear_258_484" x1="0" y1="2700" x2="1920" y2="2700" gradientUnits="userSpaceOnUse">
<stop stop-color="#896351"/>
<stop offset="1" stop-color="#67747B"/>
</linearGradient>
<linearGradient id="paint9_linear_258_484" x1="150" y1="3240" x2="1770.5" y2="4260.5" gradientUnits="userSpaceOnUse">
<stop offset="0.0288462" stop-color="#786954" stop-opacity="0.5"/>
<stop offset="0.3125" stop-color="#EC9A72" stop-opacity="0.5"/>
<stop offset="0.673077" stop-color="#AEB9BF" stop-opacity="0.25"/>
</linearGradient>
<linearGradient id="paint10_linear_258_484" x1="150" y1="3240" x2="1770.5" y2="4260.5" gradientUnits="userSpaceOnUse">
<stop offset="0.0288462" stop-color="#786954" stop-opacity="0.5"/>
<stop offset="0.3125" stop-color="#EC9A72" stop-opacity="0.5"/>
<stop offset="0.634615" stop-color="#AEB9BF" stop-opacity="0.25"/>
<stop offset="0.826923" stop-color="#EC9A72" stop-opacity="0.4"/>
<stop offset="1" stop-color="#786954" stop-opacity="0.5"/>
</linearGradient>
<linearGradient id="paint11_linear_258_484" x1="0" y1="3780" x2="1920" y2="3780" gradientUnits="userSpaceOnUse">
<stop stop-color="#896351"/>
<stop offset="1" stop-color="#67747B"/>
</linearGradient>
</defs>
</svg>
