<svg width="1920" height="1142" viewBox="0 0 1920 1142" fill="none" xmlns="http://www.w3.org/2000/svg">
<path d="M567.125 1006.29L299.117 1015.56L197.391 1248.63L466.293 1237.32L567.125 1006.29Z" fill="white"/>
<path d="M-112.959 718.403L296.365 1016.88L198.766 1240.5L-210.558 942.022L-112.959 718.403Z" fill="#A2D0F9" stroke="#A2D0F9" stroke-width="7.98994"/>
<path d="M168.959 728.569L-99.2395 716.63L307.089 1015.08L551.384 1002.34L168.959 728.569Z" fill="#BFE1FF" stroke="#BFE1FF" stroke-width="7.98994"/>
<path d="M-188.217 873.627L-145.879 776.621L273.231 1083.76L232.672 1176.69L-188.217 873.627Z" fill="#FF822A"/>
<path d="M524.051 1104.99L566.414 1007.92L300.816 1020.56L260.423 1113.11L524.051 1104.99Z" fill="#79C1FF"/>
<path d="M464.822 1240.69L505.93 1146.5L241.567 1156.31L201.007 1249.24L464.822 1240.69Z" fill="#79C1FF"/>
<path d="M497.391 1166.07L537.951 1073.14L272.876 1084.58L232.316 1177.51L497.391 1166.07Z" fill="#E27427"/>
<path d="M410.932 1012.85L4.46357 718.99L93.5426 723.903L494.35 1008.5L473.002 1057.41L391.008 1058.5L410.932 1012.85Z" fill="#CB8B56"/>
<path d="M410.932 1012.85L4.46357 718.99L93.5426 723.903L494.35 1008.5M410.932 1012.85L494.35 1008.5M410.932 1012.85L391.008 1058.5L473.002 1057.41L494.35 1008.5" stroke="#CB8B56" stroke-width="7.98994"/>
<path d="M-173.264 863.826L-150.432 811.513L32.9787 944.938L10.5643 996.294L-173.264 863.826Z" fill="#FDEFB2"/>
<path d="M185.48 966.855L270.331 1028.15" stroke="#3E9448" stroke-width="3.42426"/>
<path d="M188.606 988.599L263.927 1042.82" stroke="#3E9448" stroke-width="3.42426"/>
<path d="M46.9873 717.17L447.749 1008.54" stroke="#946834" stroke-width="3.42426"/>
<path d="M34.7698 1074.25L94.2808 937.896L212.352 1023.13L152.841 1159.49L34.7698 1074.25Z" fill="#FDEFB2" stroke="#3E9448" stroke-width="4.56568"/>
<path d="M135.861 1078.32C126.036 1100.83 99.0931 1110.8 75.6821 1100.58C52.2712 1090.36 41.2575 1063.83 51.0822 1041.32C60.9069 1018.81 79.9051 1009.26 103.316 1019.47C126.727 1029.69 145.685 1055.81 135.861 1078.32Z" fill="#FC6A00"/>
<path d="M194.616 1059.32C184.791 1081.83 157.848 1091.8 134.438 1081.58C111.027 1071.36 100.013 1044.83 109.838 1022.32C119.662 999.81 138.66 990.259 162.071 1000.48C185.482 1010.69 204.441 1036.81 194.616 1059.32Z" fill="#FF822A"/>
<path d="M99.9966 1009.29L96.4974 1026.2L99.4023 1028.44L103.257 1010.71L97.6546 1010.21" stroke="#854110" stroke-width="4.56568"/>
<path d="M176.537 1002.91L166.517 1016.97L162.9 1016.37L173.276 1001.49L177.456 1005.25" stroke="#854110" stroke-width="4.56568"/>
<path d="M94.8677 1025.49C95.1948 1026.32 96.1875 1027.18 96.1095 1027.64C95.8697 1027.98 95.7346 1028.07 95.575 1028.19L95.5674 1028.2C95.4044 1028.32 95.2198 1028.45 95.04 1028.61C94.3772 1029.16 93.8125 1029.39 93.1331 1029.7C92.2671 1030.09 91.5212 1030.45 90.7678 1030.54C89.7898 1030.65 88.7494 1030.84 88.0342 1030.6C87.746 1030.51 85.9751 1030.03 83.0262 1028.9C81.6049 1028.36 80.3274 1027.84 79.1496 1027.08C76.7971 1025.57 75.3487 1024.64 74.7846 1024.25C74.1432 1023.81 72.8995 1022.87 71.5562 1021.25C70.3542 1019.8 69.5976 1018.78 69.1068 1017.56C68.1949 1015.29 67.4805 1013.21 67.1443 1012.05C66.6329 1010.3 65.9614 1008.69 66.0426 1007.85C66.0601 1007.66 66.135 1007.5 66.4149 1007.47C67.7374 1007.36 68.5165 1007.24 70.1851 1007.43C73.1582 1007.78 74.031 1008.01 74.8901 1008.06C75.6301 1008.1 76.4488 1008.23 77.0944 1008.46C79.0348 1009.15 81.7193 1010.3 82.7548 1010.88C83.4128 1011.25 85.2789 1012.32 86.587 1013.28C87.063 1013.63 88.232 1014.36 89.48 1015.68C90.4258 1016.67 91.5551 1017.93 92.4856 1019.83C93.4149 1021.72 93.949 1023.15 94.8677 1025.49Z" fill="#3E9448" stroke="#3E9448" stroke-width="4.56568" stroke-linecap="round"/>
<path d="M196.786 1024.45C197.4 1025.1 198.639 1025.52 198.739 1025.98C198.64 1026.38 198.551 1026.52 198.446 1026.69L198.441 1026.7C198.334 1026.87 198.214 1027.07 198.106 1027.28C197.692 1028.03 197.255 1028.46 196.739 1029C196.081 1029.68 195.523 1030.3 194.854 1030.66C193.987 1031.12 193.091 1031.68 192.34 1031.73C192.037 1031.75 190.216 1031.97 187.06 1032.01C185.539 1032.04 184.159 1032.03 182.784 1031.76C180.037 1031.23 178.346 1030.9 177.68 1030.76C176.922 1030.59 175.416 1030.17 173.566 1029.17C171.911 1028.27 170.832 1027.6 169.923 1026.65C168.233 1024.88 166.796 1023.22 166.055 1022.27C164.928 1020.83 163.708 1019.59 163.47 1018.77C163.418 1018.6 163.426 1018.41 163.677 1018.29C164.863 1017.69 165.542 1017.29 167.163 1016.85C170.05 1016.06 170.948 1015.96 171.763 1015.68C172.465 1015.45 173.272 1015.26 173.957 1015.23C176.015 1015.15 178.938 1015.23 180.113 1015.38C180.859 1015.48 182.99 1015.78 184.561 1016.18C185.133 1016.33 186.493 1016.58 188.138 1017.34C189.385 1017.91 190.901 1018.65 192.47 1020.07C194.038 1021.49 195.063 1022.61 196.786 1024.45Z" fill="#3E9448" stroke="#3E9448" stroke-width="4.56568" stroke-linecap="round"/>
<path d="M107.027 1116.64C105.502 1119.18 105.765 1119.47 105.767 1119.53C105.799 1120.52 106.487 1121.87 107.073 1122.04C108.01 1122.31 107.651 1122.4 108.704 1122.75C109.757 1123.11 111.557 1124.58 113.239 1125.7C114.133 1126.3 115.079 1126.89 116.944 1128.33C118.81 1129.77 121.646 1131.2 123.724 1132.81C125.803 1134.42 127.794 1135.64 128.935 1136.44C130.075 1137.23 129.821 1136.81 132.655 1139.03C135.488 1141.25 141.949 1144.86 144.588 1147.11C147.489 1149.58 148.156 1150.39 148.972 1151.14C149.446 1151.58 149.723 1151.92 150.191 1152.2C150.478 1152.37 150.474 1152.86 150.708 1152.43C151.822 1150.37 152.552 1149.39 152.678 1148.74C152.804 1148.09 153.01 1147.32 153.892 1145.13C154.462 1143.72 155.509 1141.25 156.094 1139.8C156.678 1138.36 156.796 1137.94 157.431 1136.42C158.066 1134.89 159.154 1132.32 159.803 1130.95C160.783 1128.88 161.201 1127.88 161.866 1126.65C162.11 1126.2 162.894 1124.26 164.127 1121.68C164.653 1120.58 165.638 1118.85 166.505 1116.34C166.856 1115.32 167.089 1114.93 167.149 1114.44C167.234 1113.74 167.242 1113.09 167.069 1112.55C166.884 1111.97 166.562 1110.81 165.691 1109.57C165.078 1108.69 164.433 1107.65 163.632 1106.97C163.031 1106.46 161.858 1105.43 159.582 1104.26C158.222 1103.55 156.446 1102.66 155.38 1102.36C153.723 1101.9 152.429 1101.17 149.948 1100.84C148.647 1100.67 146.424 1100.35 145.093 1100.29C143.349 1100.21 142.118 1100.11 139.461 1100.32C137.585 1100.46 134.705 1100.78 133.047 1101C131.389 1101.22 130.965 1101.34 129.979 1101.54C128.992 1101.74 127.489 1102.01 125.379 1102.6C123.27 1103.19 120.615 1104.02 119.108 1104.63C117.176 1105.41 115.708 1106.29 113.918 1107.91C113.018 1108.72 112.203 1109.6 110.957 1111.19C109.712 1112.79 108.017 1115 107.027 1116.64Z" fill="#FC6A00" stroke="#FC6A00" stroke-width="2.28284" stroke-linecap="round"/>
<path d="M1179.75 101.565L935.146 218.545V475.673L1179.75 356.433V101.565Z" fill="#EAD6AD"/>
<path d="M433.104 109.845L933.13 220.885V467.579L433.104 356.539V109.845Z" fill="#F4E4C3" stroke="#F4E4C3" stroke-width="7.98994"/>
<path d="M698.46 5.2405L445.1 102.649L942.34 214.875L1163.57 104.262L698.46 5.2405Z" fill="#FFF6E2" stroke="#FFF6E2" stroke-width="7.98994"/>
<path d="M1179.75 101.565L935.146 218.545V475.673L1179.75 356.433V101.565Z" fill="#EAD6AD"/>
<path d="M433.104 109.845L933.13 220.885V467.579L433.104 356.539V109.845Z" fill="#F4E4C3" stroke="#F4E4C3" stroke-width="7.98994"/>
<path d="M698.46 5.2405L445.1 102.649L942.34 214.875L1163.57 104.262L698.46 5.2405Z" fill="#FFF6E2" stroke="#FFF6E2" stroke-width="7.98994"/>
<path d="M1037.66 170.81L542.153 62.8943L626.687 31.4189L1113.21 133.039V201.386L1037.66 239.156V170.81Z" fill="#CCA990"/>
<path d="M1037.66 170.81L542.153 62.8943L626.687 31.4189L1113.21 133.039M1037.66 170.81L1113.21 133.039M1037.66 170.81V239.156L1113.21 201.386V133.039" stroke="#CCA990" stroke-width="7.98994"/>
<path d="M463.234 216.831L467.087 217.642L462.974 237.188L459.12 236.377L460.918 227.833L453.491 226.27L451.692 234.814L447.839 234.003L451.952 214.457L455.806 215.268L454.301 222.416L461.729 223.979L463.234 216.831ZM479.241 226.031L483.095 226.842L480.156 240.804L476.289 239.99L476.413 238.5C475.936 238.964 475.379 239.303 474.741 239.519C474.102 239.734 473.402 239.762 472.638 239.601C471.596 239.382 470.664 238.982 469.844 238.401C469.023 237.82 468.341 237.113 467.797 236.279C467.253 235.445 466.881 234.536 466.68 233.55C466.49 232.558 466.505 231.541 466.724 230.498C466.934 229.502 467.311 228.609 467.857 227.82C468.402 227.031 469.074 226.375 469.874 225.854C470.674 225.332 471.542 224.975 472.476 224.783C473.42 224.593 474.39 224.602 475.386 224.812C476.242 224.992 476.972 225.335 477.575 225.841C478.188 226.349 478.691 226.936 479.085 227.603L479.241 226.031ZM473.319 235.881C473.952 236.014 474.559 235.972 475.139 235.754C475.72 235.536 476.217 235.183 476.63 234.697C477.046 234.201 477.324 233.618 477.465 232.948C477.608 232.268 477.588 231.623 477.406 231.011C477.224 230.399 476.911 229.876 476.467 229.443C476.024 229.009 475.486 228.726 474.853 228.593C474.211 228.458 473.595 228.498 473.005 228.714C472.415 228.93 471.908 229.285 471.483 229.779C471.06 230.264 470.778 230.841 470.637 231.511C470.496 232.181 470.521 232.828 470.71 233.451C470.911 234.067 471.238 234.592 471.691 235.028C472.143 235.463 472.686 235.748 473.319 235.881ZM491.883 238.665L494.952 241.264C494.126 242.004 493.173 242.537 492.093 242.864C491.013 243.191 489.901 243.234 488.756 242.993C487.472 242.723 486.368 242.146 485.446 241.261C484.534 240.379 483.877 239.318 483.477 238.077C483.089 236.829 483.037 235.53 483.321 234.18C483.536 233.156 483.918 232.24 484.467 231.433C485.018 230.615 485.681 229.938 486.455 229.401C487.24 228.857 488.096 228.483 489.024 228.28C489.951 228.076 490.894 228.076 491.853 228.277C492.998 228.518 493.998 229.006 494.855 229.74C495.711 230.474 496.366 231.356 496.821 232.385L492.964 233.527C492.74 233.159 492.459 232.857 492.12 232.62C491.792 232.376 491.433 232.213 491.042 232.131C490.446 232.005 489.877 232.056 489.333 232.282C488.8 232.509 488.336 232.864 487.943 233.345C487.562 233.819 487.305 234.367 487.174 234.991C487.045 235.605 487.064 236.207 487.232 236.797C487.399 237.386 487.681 237.892 488.078 238.316C488.484 238.742 488.981 239.016 489.567 239.14C489.967 239.224 490.366 239.22 490.765 239.129C491.163 239.038 491.536 238.883 491.883 238.665ZM509.362 246.951L504.922 246.016L503.035 240.297L500.906 241.963L500.259 245.035L496.406 244.224L500.813 223.281L504.666 224.092L502.166 235.974L507.302 231.937L512.328 232.995L506.332 237.725L509.362 246.951ZM511.731 247.449L515.845 227.902L522.323 229.266C523.673 229.55 524.88 230.071 525.945 230.83C527.021 231.581 527.911 232.502 528.615 233.593C529.33 234.677 529.814 235.863 530.068 237.15C530.333 238.431 530.324 239.746 530.04 241.096C529.755 242.445 529.233 243.657 528.472 244.732C527.723 245.799 526.802 246.689 525.709 247.402C524.627 248.107 523.442 248.592 522.152 248.855C520.873 249.11 519.559 249.096 518.209 248.812L511.731 247.449ZM516.396 244.406L519.02 244.959C519.821 245.127 520.607 245.132 521.379 244.974C522.161 244.818 522.883 244.527 523.545 244.103C524.208 243.679 524.769 243.141 525.227 242.489C525.694 241.839 526.014 241.104 526.186 240.285C526.358 239.466 526.361 238.669 526.193 237.895C526.037 237.114 525.741 236.395 525.305 235.74C524.881 235.077 524.343 234.517 523.691 234.059C523.048 233.603 522.322 233.29 521.512 233.119L518.887 232.567L516.396 244.406ZM530.491 246.061L532.354 237.209L536.208 238.02L534.568 245.81C534.464 246.304 534.487 246.775 534.635 247.224C534.795 247.666 535.05 248.046 535.402 248.362C535.753 248.679 536.166 248.888 536.64 248.988C537.124 249.09 537.591 249.066 538.04 248.918C538.49 248.769 538.872 248.524 539.187 248.182C539.504 247.831 539.714 247.409 539.818 246.915L541.457 239.124L545.311 239.935L542.386 253.9L538.533 253.089L538.742 252.025C538.183 252.374 537.56 252.608 536.874 252.726C536.198 252.846 535.511 252.832 534.813 252.685C533.807 252.474 532.942 252.034 532.218 251.367C531.493 250.699 530.97 249.904 530.649 248.981C530.33 248.049 530.278 247.075 530.491 246.061ZM558.175 257.223L553.735 256.288L551.847 250.569L549.718 252.235L549.071 255.307L545.218 254.496L549.625 233.553L553.479 234.364L550.978 246.246L556.114 242.209L561.141 243.267L555.144 247.997L558.175 257.223ZM565.383 259.119C564.099 258.849 562.995 258.271 562.073 257.387C561.161 256.505 560.505 255.439 560.107 254.189C559.719 252.94 559.666 251.641 559.951 250.292C560.164 249.277 560.545 248.366 561.094 247.558C561.645 246.741 562.308 246.064 563.082 245.527C563.867 244.983 564.723 244.609 565.651 244.405C566.578 244.202 567.521 244.201 568.48 244.403C569.588 244.636 570.548 245.086 571.36 245.753C572.181 246.421 572.822 247.232 573.283 248.184C573.753 249.138 574.014 250.16 574.067 251.25C574.128 252.342 573.949 253.427 573.527 254.505L563.838 252.466C563.873 252.901 563.981 253.312 564.161 253.7C564.353 254.081 564.615 254.408 564.946 254.682C565.287 254.958 565.703 255.152 566.194 255.265C566.676 255.377 567.146 255.359 567.605 255.212C568.063 255.066 568.478 254.827 568.849 254.497L572.595 256.233C571.767 257.352 570.706 258.188 569.414 258.742C568.123 259.287 566.779 259.413 565.383 259.119ZM564.298 249.588L570.231 250.837C570.208 250.346 570.092 249.884 569.882 249.451C569.671 249.018 569.384 248.651 569.02 248.351C568.664 248.053 568.249 247.854 567.775 247.754C567.309 247.656 566.849 247.671 566.395 247.799C565.949 247.929 565.543 248.149 565.176 248.461C564.821 248.765 564.528 249.141 564.298 249.588Z" fill="#597B4F"/>
<path d="M810.144 219.372L913.563 241.854" stroke="#617960" stroke-width="3.42426"/>
<path d="M579.024 42.2119L1077.23 155.523" stroke="#AC907B" stroke-width="3.42426"/>
<path d="M1077.23 155.522L1079.95 225.408" stroke="#AC907B" stroke-width="3.42426"/>
<path d="M821.834 238.258L913.562 258.042" stroke="#617960" stroke-width="3.42426"/>
<path d="M427.943 364.159V257.143L938.743 372.252V474.772L427.943 364.159Z" fill="#93B383"/>
<path d="M1179.75 360.151V256.243L938.743 372.252V474.772L1179.75 360.151Z" fill="#85A775"/>
<ellipse cx="801.762" cy="378.296" rx="26.9347" ry="38.6724" transform="rotate(-13.6952 801.762 378.296)" fill="#FFFEDB"/>
<path d="M772.013 305.085L775.415 358.455L786.667 365.222L796.135 353.406L812.031 360.467L818.051 351.393L798.344 298.669L787.984 301.193L788.261 321.094L783.668 302.245L772.013 305.085Z" fill="#597B4F"/>
<ellipse cx="860.796" cy="393.468" rx="35.9718" ry="49.4613" transform="rotate(10.4647 860.796 393.468)" fill="#FFFEDB"/>
<path d="M862.881 292.344L838.395 356.31L848.502 370.192L866.402 361.483L882.022 378.185L894.241 370.83L898.473 298.918L884.469 296.332L874.128 319.654L878.635 295.254L862.881 292.344Z" fill="#597B4F"/>
<path d="M2058.65 857.186L1814.04 974.165V1231.29L2058.65 1112.05V857.186Z" fill="#EAD6AD"/>
<path d="M1312 865.465L1812.02 976.505V1223.2L1312 1112.16V865.465Z" fill="#F4E4C3" stroke="#F4E4C3" stroke-width="7.98994"/>
<path d="M1577.35 760.862L1323.99 858.271L1821.23 970.496L2042.46 859.883L1577.35 760.862Z" fill="#FFF6E2" stroke="#FFF6E2" stroke-width="7.98994"/>
<path d="M2058.65 857.186L1814.04 974.165V1231.29L2058.65 1112.05V857.186Z" fill="#EAD6AD"/>
<path d="M1312 865.465L1812.02 976.505V1223.2L1312 1112.16V865.465Z" fill="#F4E4C3" stroke="#F4E4C3" stroke-width="7.98994"/>
<path d="M1577.35 760.862L1323.99 858.271L1821.23 970.496L2042.46 859.883L1577.35 760.862Z" fill="#FFF6E2" stroke="#FFF6E2" stroke-width="7.98994"/>
<path d="M1916.56 926.431L1421.05 818.515L1505.58 787.04L1992.1 888.661V957.007L1916.56 994.777V926.431Z" fill="#CCA990"/>
<path d="M1916.56 926.431L1421.05 818.515L1505.58 787.04L1992.1 888.661M1916.56 926.431L1992.1 888.661M1916.56 926.431V994.777L1992.1 957.007V888.661" stroke="#CCA990" stroke-width="7.98994"/>
<path d="M1342.13 972.452L1345.98 973.263L1341.87 992.809L1338.01 991.999L1339.81 983.454L1332.38 981.891L1330.59 990.435L1326.73 989.624L1330.85 970.078L1334.7 970.889L1333.19 978.037L1340.62 979.6L1342.13 972.452ZM1358.13 981.653L1361.99 982.464L1359.05 996.425L1355.18 995.612L1355.31 994.121C1354.83 994.585 1354.27 994.924 1353.63 995.14C1353 995.356 1352.29 995.383 1351.53 995.222C1350.49 995.003 1349.56 994.603 1348.74 994.022C1347.92 993.441 1347.23 992.734 1346.69 991.9C1346.15 991.066 1345.77 990.157 1345.57 989.172C1345.38 988.179 1345.4 987.162 1345.62 986.119C1345.83 985.123 1346.2 984.231 1346.75 983.441C1347.29 982.652 1347.97 981.997 1348.77 981.475C1349.57 980.953 1350.43 980.596 1351.37 980.404C1352.31 980.214 1353.28 980.223 1354.28 980.433C1355.14 980.613 1355.87 980.956 1356.47 981.462C1357.08 981.97 1357.58 982.557 1357.98 983.224L1358.13 981.653ZM1352.21 991.502C1352.85 991.635 1353.45 991.593 1354.03 991.375C1354.61 991.157 1355.11 990.804 1355.52 990.318C1355.94 989.822 1356.22 989.239 1356.36 988.569C1356.5 987.889 1356.48 987.244 1356.3 986.632C1356.12 986.02 1355.8 985.497 1355.36 985.064C1354.92 984.63 1354.38 984.347 1353.75 984.214C1353.1 984.079 1352.49 984.119 1351.9 984.335C1351.31 984.551 1350.8 984.906 1350.38 985.4C1349.95 985.885 1349.67 986.462 1349.53 987.132C1349.39 987.802 1349.41 988.449 1349.6 989.072C1349.8 989.688 1350.13 990.213 1350.58 990.649C1351.04 991.084 1351.58 991.369 1352.21 991.502ZM1370.78 994.286L1373.85 996.885C1373.02 997.625 1372.07 998.159 1370.99 998.485C1369.91 998.812 1368.79 998.855 1367.65 998.614C1366.36 998.344 1365.26 997.767 1364.34 996.883C1363.43 996 1362.77 994.939 1362.37 993.698C1361.98 992.45 1361.93 991.151 1362.21 989.801C1362.43 988.777 1362.81 987.861 1363.36 987.054C1363.91 986.236 1364.57 985.559 1365.35 985.022C1366.13 984.478 1366.99 984.104 1367.92 983.901C1368.84 983.697 1369.79 983.697 1370.75 983.898C1371.89 984.139 1372.89 984.627 1373.75 985.361C1374.6 986.095 1375.26 986.977 1375.71 988.006L1371.86 989.148C1371.63 988.78 1371.35 988.478 1371.01 988.241C1370.69 987.997 1370.33 987.834 1369.94 987.752C1369.34 987.627 1368.77 987.677 1368.23 987.903C1367.69 988.131 1367.23 988.485 1366.84 988.966C1366.45 989.44 1366.2 989.989 1366.07 990.612C1365.94 991.226 1365.96 991.828 1366.12 992.418C1366.29 993.007 1366.57 993.513 1366.97 993.937C1367.38 994.363 1367.87 994.637 1368.46 994.761C1368.86 994.845 1369.26 994.842 1369.66 994.75C1370.06 994.659 1370.43 994.504 1370.78 994.286ZM1388.26 1002.57L1383.82 1001.64L1381.93 995.918L1379.8 997.584L1379.15 1000.66L1375.3 999.845L1379.71 978.902L1383.56 979.713L1381.06 991.595L1386.2 987.558L1391.22 988.616L1385.22 993.346L1388.26 1002.57ZM1390.62 1003.07L1394.74 983.523L1401.22 984.887C1402.57 985.171 1403.77 985.692 1404.84 986.451C1405.91 987.202 1406.8 988.123 1407.51 989.214C1408.22 990.298 1408.71 991.484 1408.96 992.772C1409.23 994.052 1409.22 995.367 1408.93 996.717C1408.65 998.067 1408.13 999.279 1407.37 1000.35C1406.62 1001.42 1405.69 1002.31 1404.6 1003.02C1403.52 1003.73 1402.33 1004.21 1401.04 1004.48C1399.77 1004.73 1398.45 1004.72 1397.1 1004.43L1390.62 1003.07ZM1395.29 1000.03L1397.91 1000.58C1398.71 1000.75 1399.5 1000.75 1400.27 1000.6C1401.05 1000.44 1401.78 1000.15 1402.44 999.724C1403.1 999.3 1403.66 998.762 1404.12 998.11C1404.59 997.46 1404.91 996.725 1405.08 995.906C1405.25 995.087 1405.25 994.29 1405.09 993.516C1404.93 992.735 1404.63 992.017 1404.2 991.361C1403.77 990.698 1403.24 990.138 1402.58 989.68C1401.94 989.224 1401.21 988.911 1400.41 988.74L1397.78 988.188L1395.29 1000.03ZM1409.38 1001.68L1411.25 992.83L1415.1 993.641L1413.46 1001.43C1413.36 1001.92 1413.38 1002.4 1413.53 1002.85C1413.69 1003.29 1413.94 1003.67 1414.29 1003.98C1414.65 1004.3 1415.06 1004.51 1415.53 1004.61C1416.02 1004.71 1416.48 1004.69 1416.93 1004.54C1417.38 1004.39 1417.76 1004.15 1418.08 1003.8C1418.4 1003.45 1418.61 1003.03 1418.71 1002.54L1420.35 994.746L1424.2 995.556L1421.28 1009.52L1417.43 1008.71L1417.64 1007.65C1417.08 1008 1416.45 1008.23 1415.77 1008.35C1415.09 1008.47 1414.4 1008.45 1413.71 1008.31C1412.7 1008.1 1411.84 1007.66 1411.11 1006.99C1410.39 1006.32 1409.86 1005.52 1409.54 1004.6C1409.22 1003.67 1409.17 1002.7 1409.38 1001.68ZM1437.07 1012.84L1432.63 1011.91L1430.74 1006.19L1428.61 1007.86L1427.96 1010.93L1424.11 1010.12L1428.52 989.174L1432.37 989.985L1429.87 1001.87L1435.01 997.83L1440.03 998.888L1434.04 1003.62L1437.07 1012.84ZM1444.28 1014.74C1442.99 1014.47 1441.89 1013.89 1440.97 1013.01C1440.05 1012.13 1439.4 1011.06 1439 1009.81C1438.61 1008.56 1438.56 1007.26 1438.84 1005.91C1439.06 1004.9 1439.44 1003.99 1439.99 1003.18C1440.54 1002.36 1441.2 1001.69 1441.98 1001.15C1442.76 1000.6 1443.62 1000.23 1444.54 1000.03C1445.47 999.823 1446.41 999.822 1447.37 1000.02C1448.48 1000.26 1449.44 1000.71 1450.25 1001.37C1451.07 1002.04 1451.72 1002.85 1452.18 1003.81C1452.65 1004.76 1452.91 1005.78 1452.96 1006.87C1453.02 1007.96 1452.84 1009.05 1452.42 1010.13L1442.73 1008.09C1442.77 1008.52 1442.87 1008.93 1443.05 1009.32C1443.25 1009.7 1443.51 1010.03 1443.84 1010.3C1444.18 1010.58 1444.6 1010.77 1445.09 1010.89C1445.57 1011 1446.04 1010.98 1446.5 1010.83C1446.96 1010.69 1447.37 1010.45 1447.74 1010.12L1451.49 1011.85C1450.66 1012.97 1449.6 1013.81 1448.31 1014.36C1447.02 1014.91 1445.67 1015.03 1444.28 1014.74ZM1443.19 1005.21L1449.12 1006.46C1449.1 1005.97 1448.98 1005.51 1448.77 1005.07C1448.56 1004.64 1448.28 1004.27 1447.91 1003.97C1447.56 1003.67 1447.14 1003.47 1446.67 1003.37C1446.2 1003.28 1445.74 1003.29 1445.29 1003.42C1444.84 1003.55 1444.44 1003.77 1444.07 1004.08C1443.71 1004.39 1443.42 1004.76 1443.19 1005.21Z" fill="#597B4F"/>
<path d="M1689.04 974.992L1792.46 997.475" stroke="#617960" stroke-width="3.42426"/>
<path d="M1457.92 797.832L1956.13 911.143" stroke="#AC907B" stroke-width="3.42426"/>
<path d="M1700.73 993.879L1792.46 1013.66" stroke="#617960" stroke-width="3.42426"/>
<path d="M1306.83 1119.78V1012.76L1817.64 1127.87V1230.39L1306.83 1119.78Z" fill="#93B383"/>
<path d="M2058.65 1115.77V1011.86L1817.64 1127.87V1230.39L2058.65 1115.77Z" fill="#85A775"/>
<ellipse cx="1680.65" cy="1133.92" rx="26.9347" ry="38.6724" transform="rotate(-13.6952 1680.65 1133.92)" fill="#FFFEDB"/>
<path d="M1650.91 1060.71L1654.31 1114.08L1665.56 1120.84L1675.03 1109.03L1690.92 1116.09L1696.94 1107.01L1677.24 1054.29L1666.88 1056.81L1667.15 1076.71L1662.56 1057.87L1650.91 1060.71Z" fill="#597B4F"/>
<ellipse cx="1739.69" cy="1149.09" rx="35.9718" ry="49.4613" transform="rotate(10.4647 1739.69 1149.09)" fill="#FFFEDB"/>
<path d="M1741.77 1047.97L1717.29 1111.93L1727.4 1125.81L1745.3 1117.1L1760.92 1133.81L1773.13 1126.45L1777.37 1054.54L1763.36 1051.95L1753.02 1075.28L1757.53 1050.88L1741.77 1047.97Z" fill="#597B4F"/>
<path d="M876.415 709.819L637.658 824V1074.98L876.415 958.59V709.819Z" fill="#EAD6AD"/>
<path d="M147.626 717.901L635.691 826.285V1067.08L147.626 958.695V717.901Z" fill="#F4E4C3" stroke="#F4E4C3" stroke-width="7.98994"/>
<path d="M406.635 615.8L159.335 710.879L644.68 820.42L860.614 712.453L406.635 615.8Z" fill="#FFF6E2" stroke="#FFF6E2" stroke-width="7.98994"/>
<path d="M737.725 777.409L254.067 672.075L336.579 641.353L811.459 740.542V807.254L737.725 844.12V777.409Z" fill="#CCA990"/>
<path d="M737.725 777.409L254.067 672.075L336.579 641.353L811.459 740.542M737.725 777.409L811.459 740.542M737.725 777.409V844.12L811.459 807.254V740.542" stroke="#CCA990" stroke-width="7.98994"/>
<path d="M177.311 822.558L181.164 823.369L177.051 842.916L173.197 842.105L174.995 833.56L167.568 831.997L165.77 840.542L161.916 839.731L166.03 820.184L169.883 820.995L168.379 828.144L175.806 829.707L177.311 822.558ZM193.318 831.759L197.172 832.57L194.234 846.532L190.366 845.718L190.49 844.228C190.014 844.691 189.456 845.031 188.818 845.246C188.179 845.462 187.479 845.489 186.715 845.329C185.673 845.109 184.741 844.709 183.921 844.128C183.1 843.547 182.418 842.84 181.874 842.006C181.33 841.173 180.958 840.263 180.757 839.278C180.567 838.286 180.582 837.268 180.802 836.226C181.011 835.23 181.389 834.337 181.934 833.548C182.479 832.759 183.151 832.103 183.951 831.581C184.751 831.059 185.619 830.702 186.553 830.51C187.497 830.32 188.467 830.33 189.463 830.54C190.32 830.72 191.049 831.063 191.652 831.569C192.265 832.077 192.768 832.664 193.163 833.33L193.318 831.759ZM187.396 841.608C188.029 841.742 188.636 841.699 189.216 841.481C189.797 841.263 190.294 840.911 190.707 840.424C191.123 839.929 191.401 839.346 191.542 838.675C191.685 837.996 191.665 837.35 191.483 836.738C191.301 836.127 190.988 835.604 190.545 835.17C190.101 834.737 189.563 834.453 188.93 834.32C188.288 834.185 187.672 834.226 187.082 834.442C186.492 834.658 185.985 835.013 185.56 835.507C185.138 835.991 184.856 836.568 184.715 837.239C184.574 837.909 184.598 838.555 184.787 839.179C184.988 839.794 185.315 840.32 185.768 840.755C186.221 841.191 186.763 841.475 187.396 841.608ZM205.96 844.392L209.029 846.992C208.203 847.732 207.25 848.265 206.17 848.592C205.09 848.919 203.978 848.962 202.833 848.721C201.549 848.45 200.445 847.873 199.523 846.989C198.611 846.107 197.954 845.045 197.555 843.804C197.166 842.556 197.114 841.257 197.398 839.908C197.613 838.884 197.995 837.968 198.545 837.16C199.096 836.343 199.758 835.666 200.532 835.129C201.317 834.585 202.174 834.211 203.101 834.007C204.028 833.804 204.971 833.803 205.93 834.005C207.075 834.246 208.076 834.733 208.932 835.468C209.788 836.202 210.444 837.083 210.898 838.112L207.042 839.254C206.818 838.886 206.536 838.584 206.197 838.348C205.869 838.104 205.51 837.941 205.119 837.858C204.523 837.733 203.954 837.783 203.411 838.009C202.877 838.237 202.413 838.591 202.02 839.073C201.639 839.546 201.382 840.095 201.251 840.719C201.122 841.333 201.141 841.935 201.309 842.524C201.476 843.113 201.758 843.62 202.155 844.044C202.561 844.469 203.058 844.744 203.644 844.867C204.044 844.951 204.444 844.948 204.842 844.857C205.24 844.766 205.613 844.611 205.96 844.392ZM223.44 852.678L219 851.744L217.112 846.025L214.983 847.691L214.336 850.762L210.483 849.951L214.89 829.009L218.744 829.82L216.243 841.701L221.379 837.664L226.406 838.722L220.409 843.453L223.44 852.678ZM225.808 853.177L229.922 833.63L236.4 834.993C237.75 835.277 238.957 835.799 240.022 836.557C241.098 837.309 241.988 838.23 242.692 839.321C243.407 840.404 243.891 841.59 244.145 842.878C244.41 844.159 244.401 845.474 244.117 846.823C243.833 848.173 243.31 849.385 242.55 850.459C241.8 851.526 240.879 852.416 239.786 853.129C238.704 853.835 237.519 854.319 236.229 854.582C234.95 854.838 233.636 854.824 232.287 854.54L225.808 853.177ZM230.473 850.134L233.098 850.686C233.898 850.855 234.684 850.86 235.456 850.702C236.238 850.545 236.96 850.255 237.622 849.831C238.285 849.406 238.846 848.868 239.304 848.216C239.771 847.566 240.091 846.831 240.263 846.012C240.436 845.193 240.438 844.397 240.27 843.623C240.114 842.841 239.818 842.123 239.382 841.468C238.958 840.805 238.42 840.244 237.768 839.786C237.125 839.33 236.399 839.017 235.589 838.847L232.964 838.294L230.473 850.134ZM244.568 851.788L246.431 842.936L250.285 843.747L248.645 851.538C248.541 852.031 248.564 852.503 248.712 852.952C248.872 853.394 249.127 853.773 249.479 854.09C249.83 854.407 250.243 854.615 250.718 854.715C251.202 854.817 251.668 854.794 252.117 854.645C252.567 854.497 252.949 854.252 253.264 853.91C253.581 853.558 253.791 853.136 253.895 852.643L255.534 844.852L259.388 845.663L256.464 859.628L252.61 858.817L252.819 857.753C252.26 858.102 251.637 858.335 250.952 858.453C250.275 858.573 249.588 858.56 248.89 858.413C247.884 858.201 247.019 857.762 246.295 857.094C245.57 856.427 245.048 855.631 244.727 854.708C244.408 853.776 244.355 852.803 244.568 851.788ZM272.252 862.95L267.812 862.016L265.924 856.297L263.795 857.963L263.149 861.035L259.295 860.224L263.702 839.281L267.556 840.092L265.055 851.973L270.192 847.937L275.218 848.994L269.221 853.725L272.252 862.95ZM279.46 864.846C278.176 864.576 277.072 863.999 276.15 863.115C275.238 862.232 274.582 861.166 274.184 859.916C273.796 858.668 273.744 857.369 274.028 856.019C274.241 855.005 274.622 854.094 275.172 853.286C275.723 852.469 276.385 851.791 277.159 851.254C277.944 850.71 278.801 850.336 279.728 850.133C280.655 849.93 281.598 849.929 282.557 850.13C283.665 850.364 284.625 850.813 285.437 851.48C286.259 852.149 286.9 852.959 287.36 853.912C287.83 854.866 288.091 855.888 288.144 856.978C288.206 858.07 288.026 859.155 287.605 860.232L277.915 858.193C277.95 858.628 278.058 859.04 278.238 859.428C278.431 859.808 278.692 860.136 279.023 860.41C279.364 860.685 279.78 860.88 280.271 860.993C280.753 861.104 281.223 861.086 281.682 860.94C282.141 860.793 282.555 860.555 282.926 860.225L286.672 861.961C285.844 863.079 284.783 863.916 283.491 864.47C282.2 865.015 280.856 865.14 279.46 864.846ZM278.375 855.316L284.309 856.564C284.286 856.074 284.169 855.612 283.959 855.179C283.749 854.746 283.461 854.379 283.097 854.079C282.742 853.78 282.327 853.581 281.852 853.481C281.386 853.383 280.926 853.398 280.472 853.526C280.027 853.656 279.62 853.877 279.254 854.188C278.898 854.493 278.605 854.868 278.375 855.316Z" fill="#7B584F"/>
<path d="M515.646 824.81L616.592 846.754" stroke="#7B584F" stroke-width="3.42426"/>
<path d="M290.057 651.886L776.349 762.486" stroke="#AC907B" stroke-width="3.42426"/>
<path d="M776.348 762.486L778.999 830.7" stroke="#AC907B" stroke-width="3.42426"/>
<path d="M527.058 843.243L616.592 862.554" stroke="#7B584F" stroke-width="3.42426"/>
<path d="M142.588 966.132V861.676L641.169 974.032V1074.1L142.588 966.132Z" fill="#E68470"/>
<path d="M876.415 962.221V860.799L641.169 974.033V1074.1L876.415 962.221Z" fill="#CC7867"/>
<path d="M1598.06 103.38L1794.46 338.75L1673.46 603.076L1478.11 365.382L1598.06 103.38Z" fill="#EAD6AD"/>
<path d="M2361.71 463.276L1795.43 342.106L1679.34 595.706L2245.62 716.877L2361.71 463.276Z" fill="#F4E4C3" stroke="#F4E4C3" stroke-width="7.98994"/>
<path d="M2138.16 230.864L2352.77 450.234L1788.79 331.594L1613.43 113.772L2138.16 230.864Z" fill="#FFF6E2" stroke="#FFF6E2" stroke-width="7.98994"/>
<path d="M1711.54 241.433L2271.71 363.691L2199.62 291.552L1651.66 167.055L1619.49 237.315L1679.37 311.693L1711.54 241.433Z" fill="#CCA990"/>
<path d="M1711.54 241.433L2271.71 363.691L2199.62 291.552L1651.66 167.055M1711.54 241.433L1651.66 167.055M1711.54 241.433L1679.37 311.693L1619.49 237.315L1651.66 167.055" stroke="#CCA990" stroke-width="7.98994"/>
<path d="M1922.57 398.43L1805.68 372.871" stroke="#7B584F" stroke-width="3.42426"/>
<path d="M2243.54 325.077L1678.05 207.096" stroke="#AC907B" stroke-width="3.42426"/>
<path d="M1678.06 207.096L1642.37 277.659" stroke="#AC907B" stroke-width="3.42426"/>
<path d="M1901.67 412.342L1798.06 389.512" stroke="#7B584F" stroke-width="3.42426"/>
<path d="M2247.34 727.139L2297.7 617.127L1718.43 495.07L1670.18 600.46L2247.34 727.139Z" fill="#8699C9"/>
<path d="M1476.36 369.206L1525.26 262.39L1718.43 495.07L1670.18 600.459L1476.36 369.206Z" fill="#7185B8"/>
<path d="M1588.06 619.451L2084.23 680.779L2107.21 920.474L1611.03 859.146L1588.06 619.451Z" fill="#F4E4C3" stroke="#F4E4C3" stroke-width="7.98994"/>
<path d="M1836.14 493.106L1599.04 611.343L2092.62 674.083L2297.27 546.008L1836.14 493.106Z" fill="#FFF6E2" stroke="#FFF6E2" stroke-width="7.98994"/>
<path d="M2181.14 622.392L1689.64 563.679L1768.84 525.225L2251.02 578.659L2257.39 645.066L2187.51 688.799L2181.14 622.392Z" fill="#CCA990"/>
<path d="M2181.14 622.392L1689.64 563.679L1768.84 525.225L2251.02 578.659M2181.14 622.392L2251.02 578.659M2181.14 622.392L2187.51 688.799L2257.39 645.066L2251.02 578.659" stroke="#CCA990" stroke-width="7.98994"/>
<path d="M1627.59 720.798L1631.5 721.238L1629.27 741.088L1625.36 740.648L1626.33 731.971L1618.79 731.124L1617.82 739.801L1613.9 739.361L1616.13 719.511L1620.05 719.951L1619.23 727.21L1626.77 728.058L1627.59 720.798ZM1644.4 728.43L1648.31 728.87L1646.72 743.048L1642.79 742.607L1642.78 741.112C1642.35 741.618 1641.82 742.01 1641.21 742.285C1640.59 742.561 1639.9 742.655 1639.12 742.568C1638.06 742.449 1637.1 742.139 1636.23 741.639C1635.35 741.139 1634.61 740.5 1633.99 739.722C1633.37 738.944 1632.91 738.074 1632.61 737.113C1632.33 736.143 1632.25 735.129 1632.37 734.07C1632.48 733.059 1632.77 732.134 1633.24 731.297C1633.71 730.459 1634.31 729.742 1635.06 729.147C1635.81 728.551 1636.64 728.113 1637.55 727.832C1638.47 727.553 1639.44 727.47 1640.45 727.584C1641.32 727.681 1642.08 727.953 1642.73 728.4C1643.38 728.847 1643.94 729.383 1644.4 730.009L1644.4 728.43ZM1639.45 738.799C1640.09 738.872 1640.69 738.771 1641.25 738.499C1641.8 738.227 1642.26 737.829 1642.63 737.305C1643 736.772 1643.22 736.165 1643.29 735.484C1643.37 734.794 1643.29 734.153 1643.05 733.562C1642.81 732.97 1642.45 732.48 1641.97 732.09C1641.48 731.701 1640.92 731.47 1640.28 731.398C1639.63 731.325 1639.02 731.424 1638.45 731.695C1637.88 731.967 1637.41 732.368 1637.04 732.9C1636.66 733.423 1636.44 734.025 1636.36 734.705C1636.28 735.386 1636.37 736.027 1636.62 736.629C1636.88 737.223 1637.25 737.715 1637.74 738.106C1638.24 738.496 1638.8 738.727 1639.45 738.799ZM1658.19 739.8L1661.49 742.095C1660.74 742.91 1659.84 743.532 1658.8 743.96C1657.76 744.388 1656.65 744.537 1655.49 744.407C1654.19 744.26 1653.03 743.791 1652.03 742.999C1651.04 742.207 1650.28 741.213 1649.77 740.016C1649.26 738.811 1649.09 737.523 1649.24 736.152C1649.36 735.112 1649.65 734.164 1650.12 733.308C1650.59 732.442 1651.18 731.705 1651.9 731.096C1652.63 730.479 1653.45 730.026 1654.35 729.735C1655.26 729.444 1656.2 729.353 1657.17 729.462C1658.33 729.593 1659.38 729.983 1660.3 730.632C1661.22 731.281 1661.96 732.096 1662.51 733.077L1658.78 734.582C1658.52 734.237 1658.21 733.963 1657.85 733.76C1657.5 733.548 1657.13 733.42 1656.73 733.376C1656.13 733.308 1655.56 733.412 1655.04 733.689C1654.53 733.966 1654.11 734.364 1653.76 734.88C1653.43 735.388 1653.22 735.959 1653.15 736.592C1653.08 737.216 1653.16 737.813 1653.38 738.384C1653.61 738.954 1653.93 739.432 1654.37 739.815C1654.82 740.2 1655.34 740.426 1655.93 740.493C1656.34 740.539 1656.73 740.497 1657.12 740.369C1657.51 740.24 1657.87 740.05 1658.19 739.8ZM1676.38 746.38L1671.87 745.874L1669.45 740.361L1667.49 742.222L1667.14 745.342L1663.22 744.902L1665.61 723.634L1669.53 724.074L1668.17 736.14L1672.9 731.631L1678 732.205L1672.48 737.486L1676.38 746.38ZM1678.79 746.65L1681.02 726.8L1687.6 727.539C1688.97 727.693 1690.22 728.097 1691.35 728.751C1692.49 729.396 1693.47 730.228 1694.27 731.247C1695.09 732.257 1695.68 733.392 1696.06 734.649C1696.44 735.899 1696.56 737.209 1696.41 738.579C1696.25 739.95 1695.85 741.206 1695.19 742.348C1694.55 743.482 1693.72 744.456 1692.7 745.27C1691.69 746.075 1690.55 746.67 1689.29 747.055C1688.05 747.432 1686.74 747.543 1685.37 747.389L1678.79 746.65ZM1683.14 743.177L1685.8 743.476C1686.62 743.567 1687.4 743.497 1688.15 743.266C1688.92 743.036 1689.61 742.678 1690.23 742.193C1690.85 741.707 1691.35 741.118 1691.75 740.425C1692.15 739.733 1692.4 738.972 1692.49 738.14C1692.59 737.308 1692.51 736.515 1692.27 735.76C1692.04 734.997 1691.68 734.311 1691.18 733.7C1690.7 733.08 1690.11 732.574 1689.41 732.18C1688.73 731.788 1687.98 731.545 1687.16 731.453L1684.49 731.153L1683.14 743.177ZM1697.33 743.478L1698.34 734.489L1702.25 734.929L1701.36 742.841C1701.31 743.342 1701.37 743.809 1701.56 744.242C1701.77 744.666 1702.06 745.019 1702.44 745.301C1702.82 745.583 1703.25 745.751 1703.73 745.806C1704.22 745.861 1704.68 745.793 1705.12 745.602C1705.55 745.412 1705.91 745.131 1706.19 744.761C1706.47 744.381 1706.64 743.94 1706.69 743.439L1707.58 735.528L1711.5 735.967L1709.92 750.148L1706 749.708L1706.11 748.629C1705.59 749.029 1704.99 749.321 1704.32 749.504C1703.66 749.688 1702.97 749.741 1702.26 749.661C1701.24 749.546 1700.34 749.191 1699.55 748.596C1698.77 748 1698.17 747.258 1697.76 746.37C1697.36 745.473 1697.21 744.509 1697.33 743.478ZM1725.95 751.949L1721.44 751.442L1719.02 745.929L1717.06 747.791L1716.71 750.91L1712.79 750.471L1715.18 729.203L1719.1 729.642L1717.74 741.708L1722.47 737.2L1727.57 737.773L1722.05 743.054L1725.95 751.949ZM1733.31 753.148C1732 753.002 1730.85 752.533 1729.85 751.74C1728.85 750.949 1728.1 749.95 1727.59 748.744C1727.08 747.539 1726.9 746.251 1727.06 744.88C1727.17 743.85 1727.47 742.906 1727.94 742.05C1728.41 741.184 1729 740.446 1729.72 739.838C1730.45 739.221 1731.27 738.768 1732.17 738.477C1733.07 738.186 1734.01 738.095 1734.99 738.204C1736.11 738.331 1737.11 738.687 1737.98 739.273C1738.86 739.86 1739.58 740.606 1740.13 741.51C1740.69 742.415 1741.04 743.407 1741.2 744.487C1741.37 745.569 1741.29 746.666 1740.97 747.779L1731.13 746.673C1731.21 747.103 1731.36 747.502 1731.57 747.871C1731.8 748.232 1732.09 748.533 1732.45 748.774C1732.81 749.016 1733.25 749.169 1733.75 749.235C1734.24 749.3 1734.7 749.237 1735.15 749.048C1735.59 748.858 1735.98 748.581 1736.32 748.217L1740.21 749.588C1739.49 750.78 1738.52 751.714 1737.28 752.389C1736.05 753.055 1734.72 753.308 1733.31 753.148ZM1731.32 743.765L1737.34 744.442C1737.27 743.955 1737.11 743.507 1736.86 743.096C1736.61 742.685 1736.29 742.347 1735.9 742.083C1735.52 741.82 1735.09 741.661 1734.6 741.607C1734.13 741.554 1733.67 741.613 1733.23 741.784C1732.8 741.955 1732.42 742.214 1732.08 742.559C1731.76 742.896 1731.5 743.298 1731.32 743.765Z" fill="#7B584F"/>
<path d="M1723.54 540.148L2218.16 603.853" stroke="#AC907B" stroke-width="3.42426"/>
<path d="M1606.72 867.03L1596.76 763.05L2103.78 827.329L2113.33 926.94L1606.72 867.03Z" fill="#E68470"/>
<path d="M1833.52 316.891L1591.6 432.587V686.896L1833.52 568.964V316.891Z" fill="white"/>
<path d="M1095.06 325.078L1589.6 434.9V678.89L1095.06 569.068V325.078Z" fill="#A2D0F9" stroke="#A2D0F9" stroke-width="7.98994"/>
<path d="M1357.51 221.623L1106.93 317.964L1598.71 428.96L1817.51 319.559L1357.51 221.623Z" fill="#BFE1FF" stroke="#BFE1FF" stroke-width="7.98994"/>
<path d="M1088.18 497.445V391.603L1595.16 505.45V606.846L1088.18 497.445Z" fill="#FF822A"/>
<path d="M1833.52 424.572V318.669L1595.16 436.492V537.47L1833.52 424.572Z" fill="#79C1FF"/>
<path d="M1833.52 572.642V469.873L1595.16 584.61V686.006L1833.52 572.642Z" fill="#79C1FF"/>
<path d="M1833.52 491.22V389.824L1595.16 506.34V607.736L1833.52 491.22Z" fill="#E27427"/>
<path d="M1692.99 385.377L1202.91 278.645L1286.52 247.515L1767.71 348.021V401.387L1692.99 435.186V385.377Z" fill="#CB8B56"/>
<path d="M1692.99 385.377L1202.91 278.645L1286.52 247.515L1767.71 348.021M1692.99 385.377L1767.71 348.021M1692.99 385.377V435.186L1767.71 401.387V348.021" stroke="#CB8B56" stroke-width="7.98994"/>
<path d="M1097.96 482.48V425.401L1319.43 474.32V530.355L1097.96 482.48Z" fill="#FDEFB2"/>
<path d="M1123.51 438.645L1127.35 439.484L1123.1 459L1119.25 458.161L1121.11 449.629L1113.7 448.012L1111.83 456.543L1107.99 455.704L1112.24 436.188L1116.09 437.027L1114.53 444.164L1121.95 445.782L1123.51 438.645ZM1139.45 447.963L1143.29 448.802L1140.25 462.742L1136.39 461.9L1136.53 460.411C1136.05 460.871 1135.49 461.206 1134.85 461.417C1134.21 461.628 1133.51 461.65 1132.74 461.484C1131.7 461.257 1130.77 460.85 1129.96 460.263C1129.14 459.676 1128.47 458.964 1127.93 458.126C1127.39 457.288 1127.02 456.376 1126.83 455.389C1126.65 454.396 1126.67 453.378 1126.9 452.337C1127.11 451.343 1127.5 450.453 1128.05 449.668C1128.6 448.883 1129.28 448.232 1130.08 447.716C1130.89 447.2 1131.76 446.85 1132.69 446.665C1133.64 446.481 1134.61 446.498 1135.6 446.715C1136.46 446.902 1137.18 447.25 1137.78 447.761C1138.39 448.273 1138.89 448.864 1139.28 449.533L1139.45 447.963ZM1133.45 457.769C1134.08 457.906 1134.69 457.868 1135.27 457.655C1135.86 457.441 1136.35 457.092 1136.77 456.609C1137.19 456.116 1137.47 455.535 1137.62 454.866C1137.77 454.188 1137.75 453.542 1137.57 452.929C1137.4 452.316 1137.09 451.791 1136.65 451.354C1136.21 450.917 1135.67 450.63 1135.04 450.492C1134.4 450.352 1133.78 450.388 1133.19 450.6C1132.6 450.811 1132.09 451.163 1131.66 451.653C1131.23 452.135 1130.95 452.71 1130.8 453.379C1130.66 454.048 1130.68 454.695 1130.86 455.32C1131.06 455.937 1131.38 456.465 1131.83 456.904C1132.28 457.342 1132.82 457.631 1133.45 457.769ZM1152 460.689L1155.04 463.311C1154.21 464.045 1153.26 464.571 1152.17 464.89C1151.09 465.209 1149.98 465.244 1148.84 464.994C1147.55 464.715 1146.45 464.129 1145.54 463.238C1144.63 462.349 1143.98 461.283 1143.59 460.039C1143.21 458.788 1143.17 457.489 1143.47 456.142C1143.69 455.119 1144.08 454.206 1144.63 453.402C1145.19 452.589 1145.86 451.917 1146.64 451.386C1147.42 450.847 1148.28 450.48 1149.21 450.283C1150.14 450.087 1151.08 450.093 1152.04 450.302C1153.18 450.551 1154.18 451.046 1155.03 451.787C1155.88 452.527 1156.53 453.413 1156.98 454.446L1153.11 455.559C1152.89 455.19 1152.61 454.885 1152.28 454.646C1151.95 454.4 1151.59 454.234 1151.2 454.149C1150.61 454.019 1150.04 454.065 1149.49 454.287C1148.96 454.511 1148.49 454.862 1148.09 455.341C1147.71 455.811 1147.45 456.358 1147.31 456.981C1147.18 457.594 1147.19 458.196 1147.36 458.787C1147.52 459.377 1147.8 459.886 1148.19 460.312C1148.6 460.741 1149.09 461.019 1149.68 461.147C1150.08 461.234 1150.47 461.234 1150.87 461.145C1151.27 461.057 1151.65 460.905 1152 460.689ZM1169.41 469.103L1164.98 468.136L1163.13 462.404L1160.99 464.054L1160.32 467.121L1156.48 466.281L1161.04 445.372L1164.89 446.211L1162.3 458.074L1167.46 454.075L1172.48 455.17L1166.45 459.856L1169.41 469.103ZM1171.78 469.619L1176.04 450.103L1182.5 451.514C1183.85 451.808 1185.05 452.339 1186.11 453.105C1187.18 453.865 1188.07 454.792 1188.76 455.888C1189.47 456.977 1189.95 458.166 1190.19 459.456C1190.45 460.739 1190.43 462.054 1190.13 463.401C1189.84 464.749 1189.31 465.957 1188.54 467.025C1187.78 468.087 1186.85 468.97 1185.76 469.675C1184.67 470.372 1183.48 470.848 1182.19 471.102C1180.91 471.348 1179.59 471.324 1178.25 471.03L1171.78 469.619ZM1176.46 466.611L1179.09 467.183C1179.88 467.357 1180.67 467.368 1181.44 467.216C1182.23 467.065 1182.95 466.78 1183.62 466.361C1184.28 465.941 1184.85 465.407 1185.31 464.758C1185.78 464.112 1186.11 463.38 1186.29 462.562C1186.46 461.744 1186.47 460.947 1186.31 460.172C1186.16 459.39 1185.87 458.669 1185.44 458.011C1185.02 457.345 1184.48 456.78 1183.84 456.318C1183.2 455.857 1182.47 455.538 1181.66 455.362L1179.04 454.79L1176.46 466.611ZM1190.55 468.369L1192.48 459.531L1196.32 460.371L1194.63 468.149C1194.52 468.642 1194.54 469.113 1194.68 469.563C1194.84 470.006 1195.09 470.388 1195.44 470.707C1195.79 471.027 1196.2 471.238 1196.68 471.341C1197.16 471.447 1197.63 471.427 1198.08 471.282C1198.53 471.137 1198.91 470.894 1199.23 470.555C1199.55 470.206 1199.76 469.785 1199.87 469.292L1201.56 461.514L1205.41 462.353L1202.39 476.296L1198.54 475.457L1198.75 474.394C1198.19 474.739 1197.57 474.968 1196.88 475.081C1196.2 475.196 1195.52 475.178 1194.82 475.026C1193.82 474.807 1192.95 474.361 1192.24 473.688C1191.52 473.015 1191 472.216 1190.68 471.29C1190.37 470.356 1190.33 469.382 1190.55 468.369ZM1218.15 479.735L1213.72 478.768L1211.87 473.035L1209.73 474.685L1209.06 477.752L1205.21 476.913L1209.77 456.003L1213.62 456.842L1211.03 468.705L1216.2 464.706L1221.22 465.801L1215.19 470.487L1218.15 479.735ZM1225.34 481.684C1224.06 481.404 1222.96 480.819 1222.05 479.928C1221.14 479.039 1220.49 477.968 1220.1 476.715C1219.72 475.464 1219.68 474.165 1219.98 472.817C1220.2 471.804 1220.58 470.896 1221.14 470.092C1221.7 469.279 1222.36 468.607 1223.14 468.075C1223.93 467.537 1224.79 467.169 1225.72 466.973C1226.65 466.776 1227.59 466.782 1228.55 466.991C1229.65 467.233 1230.61 467.689 1231.42 468.362C1232.23 469.037 1232.87 469.852 1233.32 470.808C1233.79 471.765 1234.04 472.789 1234.08 473.88C1234.14 474.972 1233.95 476.056 1233.52 477.13L1223.85 475.02C1223.88 475.455 1223.98 475.867 1224.16 476.257C1224.35 476.639 1224.61 476.968 1224.94 477.244C1225.28 477.522 1225.69 477.72 1226.18 477.837C1226.66 477.951 1227.13 477.937 1227.59 477.794C1228.05 477.651 1228.47 477.415 1228.84 477.088L1232.58 478.852C1231.74 479.964 1230.67 480.792 1229.38 481.337C1228.08 481.872 1226.74 481.988 1225.34 481.684ZM1224.33 472.146L1230.25 473.438C1230.23 472.947 1230.12 472.484 1229.91 472.05C1229.71 471.615 1229.42 471.246 1229.06 470.943C1228.71 470.642 1228.29 470.44 1227.82 470.337C1227.35 470.235 1226.89 470.247 1226.44 470.372C1225.99 470.498 1225.58 470.716 1225.21 471.025C1224.86 471.326 1224.56 471.7 1224.33 472.146Z" fill="#3E9448"/>
<path d="M1467.97 433.407L1570.25 455.643" stroke="#3E9448" stroke-width="3.42426"/>
<path d="M1479.53 452.085L1570.25 471.653" stroke="#3E9448" stroke-width="3.42426"/>
<path d="M1241.16 259.967L1725.01 366.699" stroke="#946834" stroke-width="3.42426"/>
<path d="M1204.47 578.094L1102.45 554.66" stroke="#3E9448" stroke-width="3.42426"/>
<path d="M1193.12 559.282L1102.64 538.652" stroke="#3E9448" stroke-width="3.42426"/>
<path d="M1790.39 532.289L1762.37 546.52V557.193M1790.39 532.289L1818.4 518.058V528.731M1790.39 532.289V577.205M1790.39 577.205L1818.4 563.419V528.731M1790.39 577.205L1762.37 590.991V557.193M1762.37 557.193L1818.4 528.731" stroke="#3E9448" stroke-width="2.28284"/>
<path d="M1605.83 671.04V634.573L1657.42 609.669V646.136L1605.83 671.04Z" fill="#E6E0C3" stroke="#E6E0C3" stroke-width="2.28284"/>
<path d="M1607.61 637.241V669.261" stroke="#3E9448" stroke-width="1.14142"/>
<path d="M1611.17 633.684V665.703" stroke="#3E9448" stroke-width="1.14142"/>
<path d="M1612.94 633.684V665.703" stroke="#3E9448" stroke-width="1.14142"/>
<path d="M1616.5 631.905V663.925" stroke="#3E9448" stroke-width="1.14142"/>
<path d="M1620.06 628.348V660.367" stroke="#3E9448" stroke-width="1.14142"/>
<path d="M1627.18 626.568V658.588" stroke="#3E9448" stroke-width="1.14142"/>
<path d="M1625.4 626.568V658.588" stroke="#3E9448" stroke-width="1.14142"/>
<path d="M1632.51 623.011V655.03" stroke="#3E9448" stroke-width="1.14142"/>
<path d="M1637.85 621.231V653.251" stroke="#3E9448" stroke-width="1.14142"/>
<path d="M1641.41 619.453V651.473" stroke="#3E9448" stroke-width="1.14142"/>
<path d="M1643.19 617.674V649.694" stroke="#3E9448" stroke-width="1.14142"/>
<path d="M1646.74 615.896V647.915" stroke="#3E9448" stroke-width="1.14142"/>
<path d="M1650.3 614.117V646.137" stroke="#3E9448" stroke-width="1.14142"/>
<path d="M1653.86 614.117V646.137" stroke="#3E9448" stroke-width="1.14142"/>
<path d="M1655.64 612.338V644.358" stroke="#3E9448" stroke-width="1.14142"/>
<path d="M1372.8 592.119V443.346L1515.11 474.238V623.012L1372.8 592.119Z" fill="#FDEFB2" stroke="#3E9448" stroke-width="4.56568"/>
<path d="M1467.08 555.414C1467.08 579.975 1446.37 599.886 1420.83 599.886C1395.28 599.886 1374.58 579.975 1374.58 555.414C1374.58 530.853 1388.17 514.5 1413.71 514.5C1439.25 514.5 1467.08 530.853 1467.08 555.414Z" fill="#FC6A00"/>
<path d="M1513.33 514.499C1513.33 539.06 1492.62 558.971 1467.08 558.971C1441.53 558.971 1420.83 539.06 1420.83 514.499C1420.83 489.938 1434.42 473.585 1459.96 473.585C1485.51 473.585 1513.33 489.938 1513.33 514.499Z" fill="#FF822A"/>
<path d="M1406.6 506.495L1410.15 523.394L1413.71 524.284L1410.15 506.495L1404.82 508.274" stroke="#854110" stroke-width="4.56568"/>
<path d="M1474.19 470.028L1470.63 486.928L1467.08 487.817L1470.63 470.028L1475.97 471.807" stroke="#854110" stroke-width="4.56568"/>
<path d="M1408.37 523.395C1409.01 524.028 1410.26 524.414 1410.37 524.871C1410.29 525.271 1410.2 525.416 1410.1 525.586L1410.1 525.594C1410 525.769 1409.88 525.969 1409.78 526.186C1409.39 526.949 1408.97 527.39 1408.47 527.945C1407.83 528.652 1407.29 529.283 1406.64 529.66C1405.78 530.15 1404.9 530.741 1404.16 530.812C1403.85 530.841 1402.04 531.112 1398.89 531.26C1397.37 531.331 1395.99 531.364 1394.6 531.141C1391.84 530.694 1390.14 530.419 1389.47 530.292C1388.71 530.148 1387.19 529.779 1385.31 528.83C1383.63 527.981 1382.53 527.354 1381.59 526.431C1379.85 524.716 1378.36 523.092 1377.59 522.169C1376.42 520.764 1375.16 519.561 1374.9 518.754C1374.84 518.58 1374.84 518.397 1375.09 518.263C1376.26 517.63 1376.92 517.211 1378.53 516.719C1381.39 515.843 1382.29 515.71 1383.09 515.41C1383.79 515.151 1384.59 514.939 1385.27 514.891C1387.32 514.747 1390.25 514.736 1391.43 514.849C1392.18 514.92 1394.32 515.157 1395.9 515.513C1396.47 515.642 1397.84 515.852 1399.51 516.554C1400.77 517.086 1402.31 517.787 1403.92 519.156C1405.54 520.523 1406.6 521.616 1408.37 523.395Z" fill="#3E9448" stroke="#3E9448" stroke-width="4.56568" stroke-linecap="round"/>
<path d="M1501.37 481.668C1502.19 482.021 1503.49 481.915 1503.77 482.296C1503.84 482.7 1503.81 482.866 1503.79 483.061L1503.78 483.071C1503.75 483.27 1503.72 483.498 1503.71 483.738C1503.63 484.591 1503.4 485.158 1503.14 485.859C1502.81 486.751 1502.55 487.537 1502.08 488.132C1501.47 488.904 1500.87 489.778 1500.2 490.122C1499.94 490.261 1498.35 491.187 1495.48 492.495C1494.09 493.125 1492.83 493.669 1491.46 493.975C1488.73 494.586 1487.05 494.962 1486.38 495.094C1485.62 495.243 1484.07 495.464 1481.97 495.282C1480.1 495.118 1478.84 494.944 1477.63 494.436C1475.37 493.491 1473.39 492.537 1472.33 491.965C1470.72 491.096 1469.11 490.446 1468.56 489.795C1468.44 489.655 1468.38 489.484 1468.56 489.268C1469.41 488.247 1469.87 487.61 1471.18 486.557C1473.51 484.68 1474.29 484.225 1474.93 483.646C1475.48 483.148 1476.14 482.653 1476.76 482.355C1478.61 481.459 1481.32 480.362 1482.46 480.029C1483.18 479.817 1485.25 479.242 1486.86 478.984C1487.44 478.891 1488.79 478.578 1490.6 478.61C1491.97 478.634 1493.66 478.714 1495.66 479.386C1497.66 480.057 1499.05 480.678 1501.37 481.668Z" fill="#3E9448" stroke="#3E9448" stroke-width="4.56568" stroke-linecap="round"/>
<path d="M1455.98 602.071C1455.6 605.01 1455.96 605.172 1455.98 605.223C1456.4 606.112 1457.58 607.082 1458.18 607.001C1459.15 606.873 1458.86 607.101 1459.96 607.001C1461.07 606.902 1463.31 607.536 1465.3 607.891C1466.36 608.08 1467.46 608.24 1469.75 608.817C1472.03 609.394 1475.2 609.566 1477.75 610.209C1480.3 610.851 1482.61 611.179 1483.98 611.449C1485.34 611.718 1484.94 611.437 1488.42 612.338C1491.91 613.239 1499.27 613.962 1502.59 614.966C1506.24 616.07 1507.17 616.545 1508.22 616.912C1508.83 617.124 1509.22 617.326 1509.76 617.395C1510.1 617.437 1510.29 617.885 1510.33 617.395C1510.53 615.06 1510.8 613.871 1510.66 613.227C1510.52 612.584 1510.39 611.791 1510.33 609.435C1510.29 607.912 1510.26 605.229 1510.21 603.669C1510.17 602.11 1510.11 601.686 1510.09 600.034C1510.06 598.382 1510.03 595.585 1510.07 594.071C1510.14 591.785 1510.13 590.701 1510.24 589.305C1510.29 588.794 1510.23 586.703 1510.33 583.849C1510.37 582.632 1510.58 580.651 1510.37 578.002C1510.29 576.927 1510.34 576.475 1510.2 575.999C1510 575.328 1509.75 574.732 1509.37 574.302C1508.97 573.845 1508.21 572.908 1506.92 572.119C1506 571.564 1505 570.87 1503.99 570.565C1503.24 570.337 1501.75 569.861 1499.19 569.696C1497.67 569.597 1495.68 569.485 1494.58 569.641C1492.88 569.883 1491.4 569.725 1489 570.417C1487.73 570.78 1485.57 571.379 1484.33 571.856C1482.7 572.48 1481.53 572.884 1479.18 574.135C1477.51 575.018 1475 576.458 1473.57 577.324C1472.14 578.189 1471.8 578.472 1470.97 579.05C1470.15 579.627 1468.88 580.475 1467.18 581.858C1465.48 583.242 1463.38 585.067 1462.25 586.227C1460.79 587.716 1459.8 589.112 1458.8 591.309C1458.3 592.413 1457.91 593.543 1457.4 595.504C1456.9 597.466 1456.23 600.165 1455.98 602.071Z" fill="#FC6A00" stroke="#FC6A00" stroke-width="2.28284" stroke-linecap="round"/>
<path d="M620.295 304.916L389.952 485.923L450.566 757.043L680.376 573.652L620.295 304.916Z" fill="white"/>
<path d="M-165.033 489.655L388.379 488.865L446.533 748.983L-106.879 749.774L-165.033 489.655Z" fill="#FCD269" stroke="#FCD269" stroke-width="7.98994"/>
<path d="M90.1055 316.807L-154.08 479.242L396.674 480.359L603.864 311.576L90.1055 316.807Z" fill="#FFE183" stroke="#FFE183" stroke-width="7.98994"/>
<path d="M-131.288 675.057L-156.515 562.218L411.113 562.755L435.28 670.853L-131.288 675.057Z" fill="#FF822A"/>
<path d="M645.962 419.718L620.72 306.813L394.677 489.24L418.744 596.893L645.962 419.718Z" fill="#EDC562"/>
<path d="M681.253 576.575L656.759 467.013L429.98 646.149L454.147 754.248L681.253 576.575Z" fill="#EDC562"/>
<path d="M661.847 490.77L637.68 382.672L411.325 563.705L435.492 671.803L661.847 490.77Z" fill="#E27427"/>
<path d="M486.799 411.424L-61.1168 414.445L20.5973 361.329L557.547 353.791L570.266 410.685L498.67 464.525L486.799 411.424Z" fill="#E79131"/>
<path d="M486.799 411.424L-61.1168 414.445L20.5973 361.329L557.547 353.791M486.799 411.424L557.547 353.791M486.799 411.424L498.67 464.525L570.266 410.685L557.547 353.791" stroke="#E79131" stroke-width="7.98994"/>
<path d="M-124.424 656.772L-138.029 595.92L109.741 595.286L123.096 655.025L-124.424 656.772Z" fill="#F7E07B"/>
<path d="M-108.864 603.308L-104.926 603.288L-104.823 623.262L-108.761 623.283L-108.806 614.551L-116.396 614.59L-116.351 623.322L-120.289 623.342L-120.392 603.368L-116.454 603.347L-116.417 610.652L-108.826 610.613L-108.864 603.308ZM-91.2756 608.924L-87.3378 608.904L-87.264 623.172L-91.2161 623.192L-91.4093 621.709C-91.7774 622.263 -92.2507 622.712 -92.8291 623.058C-93.4075 623.403 -94.0867 623.578 -94.8667 623.582C-95.932 623.587 -96.927 623.393 -97.8517 622.998C-98.7764 622.603 -99.5925 622.056 -100.3 621.356C-101.008 620.655 -101.563 619.845 -101.968 618.924C-102.362 617.994 -102.563 616.997 -102.568 615.931C-102.573 614.914 -102.393 613.961 -102.026 613.075C-101.66 612.188 -101.141 611.406 -100.469 610.727C-99.7973 610.048 -99.0248 609.516 -98.1517 609.131C-97.2691 608.746 -96.3189 608.551 -95.3011 608.546C-94.4261 608.541 -93.6404 608.723 -92.9441 609.09C-92.2383 609.457 -91.6224 609.925 -91.0963 610.493L-91.2756 608.924ZM-94.9861 619.802C-94.3393 619.798 -93.7552 619.629 -93.2338 619.293C-92.7124 618.957 -92.3009 618.508 -91.9995 617.946C-91.698 617.373 -91.5491 616.745 -91.5526 616.06C-91.5562 615.365 -91.7116 614.738 -92.0189 614.179C-92.3262 613.619 -92.7423 613.174 -93.2671 612.844C-93.792 612.514 -94.3778 612.351 -95.0246 612.354C-95.6809 612.357 -96.2746 612.527 -96.8055 612.862C-97.3364 613.198 -97.7574 613.652 -98.0683 614.224C-98.3793 614.787 -98.533 615.411 -98.5295 616.096C-98.5259 616.781 -98.3657 617.408 -98.0489 617.977C-97.7226 618.536 -97.2923 618.981 -96.7579 619.311C-96.2235 619.641 -95.6329 619.805 -94.9861 619.802ZM-76.2527 618.606L-72.7045 620.5C-73.3562 621.397 -74.1752 622.119 -75.1616 622.667C-76.148 623.214 -77.2262 623.491 -78.3962 623.497C-79.7088 623.504 -80.909 623.172 -81.9968 622.502C-83.0751 621.833 -83.9406 620.933 -84.5933 619.805C-85.2364 618.667 -85.5616 617.408 -85.5687 616.029C-85.5741 614.983 -85.3937 614.007 -85.0274 613.101C-84.6612 612.186 -84.1564 611.385 -83.5132 610.696C-82.8605 609.999 -82.1023 609.452 -81.2388 609.058C-80.3752 608.664 -79.4536 608.464 -78.4739 608.459C-77.304 608.453 -76.223 608.718 -75.231 609.255C-74.2389 609.792 -73.4124 610.516 -72.7514 611.425L-76.2799 613.356C-76.5763 613.043 -76.9152 612.807 -77.2965 612.647C-77.6684 612.478 -78.054 612.395 -78.4535 612.397C-79.0623 612.4 -79.6083 612.569 -80.0917 612.904C-80.5656 613.24 -80.9438 613.684 -81.2263 614.237C-81.4993 614.781 -81.6342 615.371 -81.6309 616.009C-81.6276 616.636 -81.4819 617.221 -81.1938 617.761C-80.9056 618.302 -80.5229 618.737 -80.0456 619.068C-79.5588 619.398 -79.0157 619.562 -78.4165 619.559C-78.0075 619.557 -77.618 619.469 -77.2479 619.296C-76.8778 619.123 -76.5461 618.893 -76.2527 618.606ZM-57.4188 623.017L-61.9558 623.041L-65.0075 617.849L-66.7374 619.927L-66.7212 623.065L-70.659 623.086L-70.7697 601.684L-66.8318 601.664L-66.7691 613.806L-62.6003 608.776L-57.464 608.75L-62.3274 614.639L-57.4188 623.017ZM-54.9982 623.005L-55.1014 603.03L-48.4813 602.996C-47.1021 602.989 -45.8119 603.244 -44.6107 603.761C-43.4001 604.268 -42.3358 604.981 -41.4179 605.899C-40.4906 606.807 -39.767 607.864 -39.2471 609.069C-38.7177 610.265 -38.4495 611.552 -38.4424 612.932C-38.4352 614.311 -38.6901 615.606 -39.207 616.817C-39.7145 618.018 -40.4271 619.082 -41.345 620.009C-42.2534 620.927 -43.3102 621.651 -44.5155 622.18C-45.7113 622.7 -46.9988 622.963 -48.378 622.971L-54.9982 623.005ZM-51.0807 619.047L-48.3984 619.033C-47.5804 619.029 -46.8107 618.868 -46.0895 618.55C-45.3587 618.232 -44.7141 617.796 -44.1558 617.242C-43.5975 616.687 -43.1632 616.043 -42.8531 615.309C-42.5335 614.575 -42.3759 613.789 -42.3802 612.952C-42.3845 612.115 -42.5503 611.336 -42.8774 610.615C-43.1951 609.884 -43.6359 609.244 -44.2 608.695C-44.7546 608.137 -45.3989 607.703 -46.1329 607.393C-46.8574 607.083 -47.6334 606.93 -48.4609 606.934L-51.1432 606.948L-51.0807 619.047ZM-36.9533 617.689L-37.0001 608.644L-33.0622 608.623L-33.0211 616.585C-33.0185 617.089 -32.8972 617.545 -32.6573 617.953C-32.4079 618.351 -32.0781 618.668 -31.6679 618.903C-31.2577 619.139 -30.81 619.256 -30.3249 619.253C-29.8303 619.251 -29.3791 619.129 -28.9713 618.89C-28.5636 618.65 -28.2418 618.329 -28.0061 617.929C-27.7704 617.518 -27.6539 617.061 -27.6565 616.557L-27.6976 608.596L-23.7598 608.575L-23.6718 622.843L-27.6096 622.863L-27.6295 621.779C-28.1027 622.238 -28.662 622.598 -29.3075 622.858C-29.9435 623.118 -30.6181 623.25 -31.3315 623.253C-32.3588 623.259 -33.297 623.012 -34.1461 622.512C-34.9953 622.012 -35.6741 621.345 -36.1825 620.511C-36.691 619.667 -36.948 618.726 -36.9533 617.689ZM-7.53806 622.759L-12.0751 622.783L-15.1268 617.591L-16.8567 619.669L-16.8405 622.808L-20.7783 622.828L-20.889 601.427L-16.9511 601.406L-16.8884 613.548L-12.7196 608.518L-7.58328 608.492L-12.4467 614.381L-7.53806 622.759ZM-0.0918149 623.092C-1.40443 623.099 -2.60465 622.767 -3.69247 622.098C-4.77079 621.428 -5.63629 620.524 -6.28899 619.386C-6.93217 618.248 -7.25733 616.989 -7.26446 615.61C-7.26982 614.573 -7.08936 613.602 -6.72307 612.696C-6.35684 611.781 -5.85209 610.98 -5.20884 610.292C-4.55612 609.594 -3.79799 609.048 -2.93444 608.653C-2.07089 608.259 -1.14926 608.059 -0.169556 608.054C0.962337 608.048 1.99561 608.285 2.93026 608.766C3.87443 609.246 4.67208 609.903 5.3232 610.736C5.98383 611.57 6.4548 612.514 6.7361 613.568C7.02691 614.623 7.08014 615.721 6.89581 616.864L-3.00587 616.915C-2.88006 617.333 -2.68785 617.712 -2.42927 618.053C-2.16122 618.385 -1.83644 618.649 -1.45494 618.847C-1.06393 619.045 -0.616341 619.147 -0.112172 619.154C0.382486 619.161 0.838458 619.045 1.25574 618.805C1.67303 618.565 2.02807 618.244 2.32087 617.843L6.34911 618.75C5.77544 620.018 4.91523 621.059 3.7685 621.873C2.62171 622.678 1.33494 623.085 -0.0918149 623.092ZM-3.16359 614.005L2.90012 613.974C2.77401 613.499 2.56254 613.072 2.26571 612.693C1.96888 612.314 1.61064 612.016 1.19099 611.799C0.780859 611.583 0.333243 611.476 -0.151854 611.478C-0.627438 611.481 -1.07392 611.592 -1.49131 611.813C-1.89918 612.034 -2.24956 612.336 -2.54246 612.718C-2.82589 613.09 -3.03294 613.519 -3.16359 614.005Z" fill="#3E9448"/>
<path d="M258.344 516.265L372.691 515.591" stroke="#3E9448" stroke-width="3.42426"/>
<path d="M275.123 533.422L376.507 532.66" stroke="#3E9448" stroke-width="3.42426"/>
<path d="M-24.7949 385.418L516.483 383.881" stroke="#CA7C1F" stroke-width="3.42426"/>
<path d="M11.9102 733.321L-102.437 732.654" stroke="#3E9448" stroke-width="3.42426"/>
<path d="M625.646 544.835L599.169 566.684L601.713 578.063M625.646 544.835L652.124 522.985L654.668 534.364M625.646 544.835L636.352 592.72M636.352 592.72L662.936 571.345L654.668 534.364M636.352 592.72L609.769 614.096L601.713 578.063M601.713 578.063L654.668 534.364" stroke="#3E9448" stroke-width="2.28284"/>
<path d="M461.959 736.75L453.267 697.873L502.329 659.027L511.02 697.904L461.959 736.75Z" fill="#F7E07B" stroke="#F7E07B" stroke-width="2.28284"/>
<path d="M455.8 700.292L463.432 734.428" stroke="#3E9448" stroke-width="1.14142"/>
<path d="M458.744 695.651L466.376 729.788" stroke="#3E9448" stroke-width="1.14142"/>
<path d="M460.641 695.227L468.273 729.363" stroke="#3E9448" stroke-width="1.14142"/>
<path d="M464.009 692.483L471.641 726.62" stroke="#3E9448" stroke-width="1.14142"/>
<path d="M466.955 687.843L474.587 721.979" stroke="#3E9448" stroke-width="1.14142"/>
<path d="M474.117 684.251L481.749 718.387" stroke="#3E9448" stroke-width="1.14142"/>
<path d="M472.22 684.673L479.852 718.809" stroke="#3E9448" stroke-width="1.14142"/>
<path d="M478.958 679.186L486.59 713.322" stroke="#3E9448" stroke-width="1.14142"/>
<path d="M484.224 676.017L491.855 710.153" stroke="#3E9448" stroke-width="1.14142"/>
<path d="M487.593 673.272L495.225 707.409" stroke="#3E9448" stroke-width="1.14142"/>
<path d="M489.065 670.952L496.697 705.089" stroke="#3E9448" stroke-width="1.14142"/>
<path d="M492.434 668.207L500.066 702.343" stroke="#3E9448" stroke-width="1.14142"/>
<path d="M495.804 665.464L503.436 699.6" stroke="#3E9448" stroke-width="1.14142"/>
<path d="M499.596 664.615L507.227 698.752" stroke="#3E9448" stroke-width="1.14142"/>
<path d="M501.068 662.294L508.7 696.43" stroke="#3E9448" stroke-width="1.14142"/>
<path d="M194.712 708.151L159.252 549.543L318.333 548.559L353.793 707.167L194.712 708.151Z" fill="#F4D179" stroke="#3E9448" stroke-width="4.56568"/>
<path d="M286.476 646.55C292.33 672.735 275 698.897 247.767 704.985C220.535 711.073 193.714 694.782 187.86 668.597C182.006 642.412 192.598 621.739 219.83 615.651C247.062 609.563 280.622 620.365 286.476 646.55Z" fill="#FC6A00"/>
<path d="M326.032 591.906C331.887 618.091 314.556 644.253 287.324 650.342C260.092 656.43 233.27 640.138 227.416 613.954C221.562 587.769 232.155 567.095 259.387 561.007C286.619 554.919 320.178 565.722 326.032 591.906Z" fill="#FF822A"/>
<path d="M210.336 608.812L218.157 625.981L222.162 626.081L214.129 607.964L208.864 611.133" stroke="#854110" stroke-width="4.56568"/>
<path d="M273.711 553.824L273.946 572.689L270.365 574.485L269.918 554.672L276.031 555.297" stroke="#854110" stroke-width="4.56568"/>
<path d="M216.26 626.405C217.086 626.929 218.513 627.042 218.743 627.502C218.746 627.95 218.691 628.124 218.625 628.33L218.622 628.34C218.555 628.55 218.481 628.79 218.425 629.046C218.191 629.952 217.844 630.524 217.444 631.234C216.934 632.139 216.511 632.94 215.9 633.499C215.107 634.225 214.313 635.065 213.531 635.319C213.216 635.421 211.347 636.143 208.02 637.051C206.417 637.489 204.954 637.854 203.427 637.945C200.376 638.127 198.498 638.239 197.752 638.264C196.905 638.292 195.198 638.26 192.968 637.697C190.973 637.193 189.651 636.786 188.431 636.025C186.163 634.613 184.19 633.237 183.149 632.436C181.566 631.217 179.938 630.234 179.465 629.437C179.363 629.265 179.321 629.069 179.553 628.868C180.646 627.915 181.257 627.309 182.852 626.402C185.693 624.785 186.616 624.431 187.403 623.918C188.082 623.477 188.885 623.06 189.602 622.846C191.758 622.203 194.873 621.494 196.157 621.333C196.973 621.231 199.31 620.974 201.082 620.976C201.726 620.976 203.234 620.874 205.18 621.225C206.654 621.491 208.461 621.872 210.507 622.947C212.55 624.02 213.94 624.933 216.26 626.405Z" fill="#3E9448" stroke="#3E9448" stroke-width="4.56568" stroke-linecap="round"/>
<path d="M305.454 559.754C306.416 559.934 307.783 559.509 308.167 559.851C308.336 560.265 308.349 560.447 308.365 560.663L308.366 560.673C308.382 560.893 308.402 561.144 308.445 561.402C308.565 562.331 308.455 562.99 308.348 563.798C308.21 564.828 308.114 565.729 307.755 566.475C307.289 567.443 306.863 568.518 306.231 569.044C305.977 569.256 304.51 570.621 301.759 572.7C300.433 573.702 299.21 574.584 297.826 575.236C295.061 576.538 293.359 577.339 292.676 577.639C291.899 577.98 290.303 578.585 288.024 578.89C285.984 579.163 284.605 579.276 283.19 579.024C280.56 578.554 278.217 578.01 276.953 577.653C275.03 577.109 273.153 576.801 272.418 576.237C272.259 576.115 272.148 575.949 272.288 575.676C272.949 574.385 273.291 573.596 274.435 572.161C276.473 569.605 277.198 568.933 277.738 568.165C278.204 567.502 278.795 566.817 279.382 566.352C281.145 564.954 283.773 563.139 284.905 562.513C285.625 562.115 287.7 561.008 289.345 560.351C289.944 560.112 291.306 559.458 293.243 559.061C294.71 558.76 296.529 558.442 298.828 558.68C301.123 558.918 302.753 559.249 305.454 559.754Z" fill="#3E9448" stroke="#3E9448" stroke-width="4.56568" stroke-linecap="round"/>
<path d="M285.766 698.935C286.059 702.159 286.479 702.246 286.517 702.295C287.18 703.142 288.663 703.896 289.289 703.667C290.288 703.299 290.03 703.612 291.185 703.243C292.34 702.873 294.88 703.014 297.087 702.919C298.259 702.868 299.473 702.776 302.048 702.846C304.624 702.916 308.044 702.344 310.914 702.422C313.784 702.5 316.331 702.298 317.847 702.26C319.364 702.222 318.87 702.018 322.801 702.148C326.731 702.278 334.755 701.293 338.53 701.573C342.683 701.88 343.792 702.165 344.999 702.305C345.7 702.386 346.165 702.508 346.757 702.453C347.121 702.419 347.432 702.85 347.359 702.318C347.012 699.783 347.025 698.448 346.718 697.796C346.412 697.145 346.094 696.328 345.462 693.833C345.053 692.219 344.383 689.365 343.966 687.713C343.548 686.06 343.387 685.622 342.963 683.867C342.539 682.113 341.838 679.139 341.527 677.514C341.058 675.06 340.782 673.908 340.573 672.392C340.497 671.837 339.938 669.621 339.364 666.555C339.12 665.247 338.871 663.085 338.015 660.312C337.668 659.186 337.62 658.69 337.355 658.216C336.982 657.548 336.572 656.973 336.068 656.605C335.532 656.213 334.497 655.396 332.929 654.863C331.826 654.488 330.587 653.988 329.44 653.904C328.581 653.841 326.882 653.688 324.118 654.12C322.467 654.379 320.321 654.733 319.191 655.16C317.434 655.824 315.818 656.008 313.419 657.319C312.161 658.007 309.996 659.162 308.783 659.967C307.195 661.021 306.047 661.729 303.837 663.623C302.275 664.961 299.939 667.096 298.619 668.36C297.3 669.624 297.006 670.006 296.265 670.818C295.524 671.63 294.371 672.836 292.891 674.716C291.411 676.596 289.606 679.042 288.67 680.55C287.47 682.485 286.745 684.21 286.208 686.789C285.938 688.086 285.786 689.384 285.717 691.595C285.648 693.807 285.576 696.844 285.766 698.935Z" fill="#FC6A00" stroke="#FC6A00" stroke-width="2.28284" stroke-linecap="round"/>
<path d="M482.73 936.774L740.462 1060.03V1330.95L482.73 1205.32V936.774Z" fill="#EAD6AD"/>
<path d="M1269.44 945.499L742.585 1062.5V1322.43L1269.44 1205.43V945.499Z" fill="#F4E4C3" stroke="#F4E4C3" stroke-width="7.98994"/>
<path d="M989.845 835.283L1256.8 937.918L732.883 1056.16L499.787 939.617L989.845 835.283Z" fill="#FFF6E2" stroke="#FFF6E2" stroke-width="7.98994"/>
<path d="M632.442 1009.73L1154.54 896.029L1065.47 862.865L552.849 969.937V1041.95L632.442 1081.75V1009.73Z" fill="#CCA990"/>
<path d="M632.442 1009.73L1154.54 896.029L1065.47 862.865L552.849 969.937M632.442 1009.73L552.849 969.937M632.442 1009.73V1081.75L552.849 1041.95V969.937" stroke="#CCA990" stroke-width="7.98994"/>
<path d="M1238.31 1057.71L1234.46 1058.52L1238.57 1078.07L1242.42 1077.26L1240.62 1068.71L1248.05 1067.15L1249.85 1075.69L1253.7 1074.88L1249.59 1055.33L1245.74 1056.15L1247.24 1063.29L1239.81 1064.86L1238.31 1057.71ZM1222.3 1066.91L1218.45 1067.72L1221.39 1081.68L1225.25 1080.87L1225.13 1079.38C1225.61 1079.84 1226.16 1080.18 1226.8 1080.4C1227.44 1080.61 1228.14 1080.64 1228.9 1080.48C1229.95 1080.26 1230.88 1079.86 1231.7 1079.28C1232.52 1078.7 1233.2 1077.99 1233.75 1077.16C1234.29 1076.32 1234.66 1075.41 1234.86 1074.43C1235.05 1073.44 1235.04 1072.42 1234.82 1071.38C1234.61 1070.38 1234.23 1069.49 1233.69 1068.7C1233.14 1067.91 1232.47 1067.25 1231.67 1066.73C1230.87 1066.21 1230 1065.85 1229.07 1065.66C1228.12 1065.47 1227.15 1065.48 1226.16 1065.69C1225.3 1065.87 1224.57 1066.21 1223.97 1066.72C1223.35 1067.23 1222.85 1067.81 1222.46 1068.48L1222.3 1066.91ZM1228.22 1076.76C1227.59 1076.89 1226.98 1076.85 1226.4 1076.63C1225.82 1076.41 1225.33 1076.06 1224.91 1075.57C1224.5 1075.08 1224.22 1074.5 1224.08 1073.83C1223.93 1073.15 1223.95 1072.5 1224.14 1071.89C1224.32 1071.28 1224.63 1070.75 1225.08 1070.32C1225.52 1069.89 1226.06 1069.6 1226.69 1069.47C1227.33 1069.34 1227.95 1069.38 1228.54 1069.59C1229.13 1069.81 1229.63 1070.16 1230.06 1070.66C1230.48 1071.14 1230.76 1071.72 1230.91 1072.39C1231.05 1073.06 1231.02 1073.71 1230.83 1074.33C1230.63 1074.94 1230.3 1075.47 1229.85 1075.91C1229.4 1076.34 1228.86 1076.63 1228.22 1076.76ZM1209.66 1079.54L1206.59 1082.14C1207.42 1082.88 1208.37 1083.42 1209.45 1083.74C1210.53 1084.07 1211.64 1084.11 1212.79 1083.87C1214.07 1083.6 1215.17 1083.02 1216.1 1082.14C1217.01 1081.26 1217.67 1080.2 1218.07 1078.95C1218.45 1077.71 1218.51 1076.41 1218.22 1075.06C1218.01 1074.03 1217.62 1073.12 1217.08 1072.31C1216.52 1071.49 1215.86 1070.82 1215.09 1070.28C1214.3 1069.73 1213.45 1069.36 1212.52 1069.16C1211.59 1068.95 1210.65 1068.95 1209.69 1069.16C1208.54 1069.4 1207.54 1069.88 1206.69 1070.62C1205.83 1071.35 1205.18 1072.23 1204.72 1073.26L1208.58 1074.4C1208.8 1074.04 1209.08 1073.73 1209.42 1073.5C1209.75 1073.25 1210.11 1073.09 1210.5 1073.01C1211.1 1072.88 1211.67 1072.93 1212.21 1073.16C1212.74 1073.39 1213.21 1073.74 1213.6 1074.22C1213.98 1074.7 1214.24 1075.25 1214.37 1075.87C1214.5 1076.48 1214.48 1077.09 1214.31 1077.67C1214.14 1078.26 1213.86 1078.77 1213.46 1079.19C1213.06 1079.62 1212.56 1079.89 1211.98 1080.02C1211.58 1080.1 1211.18 1080.1 1210.78 1080.01C1210.38 1079.92 1210.01 1079.76 1209.66 1079.54ZM1192.18 1087.83L1196.62 1086.89L1198.51 1081.18L1200.64 1082.84L1201.28 1085.91L1205.14 1085.1L1200.73 1064.16L1196.88 1064.97L1199.38 1076.85L1194.24 1072.81L1189.21 1073.87L1195.21 1078.6L1192.18 1087.83ZM1189.81 1088.33L1185.7 1068.78L1179.22 1070.14C1177.87 1070.43 1176.66 1070.95 1175.6 1071.71C1174.52 1072.46 1173.63 1073.38 1172.93 1074.47C1172.21 1075.55 1171.73 1076.74 1171.47 1078.03C1171.21 1079.31 1171.22 1080.62 1171.5 1081.97C1171.79 1083.32 1172.31 1084.54 1173.07 1085.61C1173.82 1086.68 1174.74 1087.57 1175.83 1088.28C1176.92 1088.99 1178.1 1089.47 1179.39 1089.73C1180.67 1089.99 1181.98 1089.97 1183.33 1089.69L1189.81 1088.33ZM1185.15 1085.28L1182.52 1085.84C1181.72 1086.01 1180.94 1086.01 1180.16 1085.85C1179.38 1085.7 1178.66 1085.41 1178 1084.98C1177.33 1084.56 1176.77 1084.02 1176.32 1083.37C1175.85 1082.72 1175.53 1081.98 1175.36 1081.16C1175.18 1080.34 1175.18 1079.55 1175.35 1078.77C1175.51 1077.99 1175.8 1077.27 1176.24 1076.62C1176.66 1075.96 1177.2 1075.39 1177.85 1074.94C1178.49 1074.48 1179.22 1074.17 1180.03 1074L1182.66 1073.44L1185.15 1085.28ZM1171.05 1086.94L1169.19 1078.09L1165.33 1078.9L1166.97 1086.69C1167.08 1087.18 1167.06 1087.65 1166.91 1088.1C1166.75 1088.54 1166.49 1088.92 1166.14 1089.24C1165.79 1089.56 1165.38 1089.77 1164.9 1089.87C1164.42 1089.97 1163.95 1089.94 1163.5 1089.8C1163.05 1089.65 1162.67 1089.4 1162.36 1089.06C1162.04 1088.71 1161.83 1088.29 1161.72 1087.79L1160.09 1080L1156.23 1080.81L1159.16 1094.78L1163.01 1093.97L1162.8 1092.9C1163.36 1093.25 1163.98 1093.49 1164.67 1093.6C1165.34 1093.72 1166.03 1093.71 1166.73 1093.56C1167.74 1093.35 1168.6 1092.91 1169.32 1092.24C1170.05 1091.58 1170.57 1090.78 1170.89 1089.86C1171.21 1088.93 1171.26 1087.95 1171.05 1086.94ZM1143.37 1098.1L1147.81 1097.17L1149.7 1091.45L1151.82 1093.11L1152.47 1096.19L1156.32 1095.37L1151.92 1074.43L1148.06 1075.24L1150.56 1087.12L1145.43 1083.09L1140.4 1084.14L1146.4 1088.88L1143.37 1098.1ZM1136.16 1100C1137.44 1099.73 1138.55 1099.15 1139.47 1098.27C1140.38 1097.38 1141.04 1096.32 1141.44 1095.07C1141.82 1093.82 1141.88 1092.52 1141.59 1091.17C1141.38 1090.16 1141 1089.24 1140.45 1088.44C1139.9 1087.62 1139.23 1086.94 1138.46 1086.4C1137.68 1085.86 1136.82 1085.49 1135.89 1085.28C1134.96 1085.08 1134.02 1085.08 1133.06 1085.28C1131.95 1085.51 1130.99 1085.96 1130.18 1086.63C1129.36 1087.3 1128.72 1088.11 1128.26 1089.06C1127.79 1090.02 1127.53 1091.04 1127.48 1092.13C1127.41 1093.22 1127.59 1094.31 1128.01 1095.38L1137.7 1093.34C1137.67 1093.78 1137.56 1094.19 1137.38 1094.58C1137.19 1094.96 1136.93 1095.29 1136.6 1095.56C1136.26 1095.84 1135.84 1096.03 1135.35 1096.14C1134.87 1096.25 1134.4 1096.24 1133.94 1096.09C1133.48 1095.94 1133.06 1095.71 1132.69 1095.38L1128.95 1097.11C1129.78 1098.23 1130.84 1099.07 1132.13 1099.62C1133.42 1100.17 1134.76 1100.29 1136.16 1100ZM1137.24 1090.47L1131.31 1091.71C1131.33 1091.22 1131.45 1090.76 1131.66 1090.33C1131.87 1089.9 1132.16 1089.53 1132.52 1089.23C1132.88 1088.93 1133.29 1088.73 1133.77 1088.63C1134.23 1088.53 1134.69 1088.55 1135.15 1088.68C1135.59 1088.81 1136 1089.03 1136.37 1089.34C1136.72 1089.64 1137.01 1090.02 1137.24 1090.47Z" fill="#4F697B"/>
<path d="M872.17 1060.9L763.203 1084.59" stroke="#7B584F" stroke-width="3.42426"/>
<path d="M1115.69 874.236L590.75 993.627" stroke="#AC907B" stroke-width="3.42426"/>
<path d="M590.75 993.627L587.889 1067.26" stroke="#AC907B" stroke-width="3.42426"/>
<path d="M859.853 1080.8L763.203 1101.65" stroke="#7B584F" stroke-width="3.42426"/>
<path d="M1274.88 1213.46V1100.7L736.672 1221.98V1330L1274.88 1213.46Z" fill="#8699C9"/>
<path d="M482.73 1209.23V1099.75L736.672 1221.98V1330L482.73 1209.23Z" fill="#7185B8"/>
<path d="M798.201 818.306L1083.38 885.348L1142.7 1156.75L857.001 1087.33L798.201 818.306Z" fill="white"/>
<path d="M1588.22 654.79L1086.05 887.355L1142.96 1147.75L1645.13 915.183L1588.22 654.79Z" fill="#FCD269" stroke="#FCD269" stroke-width="7.98994"/>
<path d="M1284 605.597L1573.9 649.963L1074.94 883.137L815.909 817.42L1284 605.597Z" fill="#FFE183" stroke="#FFE183" stroke-width="7.98994"/>
<path d="M1635.77 837.138L1611.08 724.18L1096.58 963.941L1120.23 1072.15L1635.77 837.138Z" fill="#FF822A"/>
<path d="M823.32 933.229L798.616 820.206L1080.49 890.347L1104.05 998.114L823.32 933.229Z" fill="#EDC562"/>
<path d="M857.859 1091.25L833.887 981.575L1115.05 1048.42L1138.7 1156.64L857.859 1091.25Z" fill="#EDC562"/>
<path d="M838.866 1004.36L815.214 896.145L1096.79 964.891L1120.44 1073.1L838.866 1004.36Z" fill="#E27427"/>
<path d="M964.155 858.619L1462.29 630.393L1365.8 616.672L875.705 836.179L888.154 893.133L975.773 911.776L964.155 858.619Z" fill="#E79131"/>
<path d="M964.155 858.619L1462.29 630.393L1365.8 616.672L875.705 836.179M964.155 858.619L875.705 836.179M964.155 858.619L975.773 911.776L888.154 893.133L875.705 836.179" stroke="#E79131" stroke-width="7.98994"/>
<path d="M1621.84 823.451L1608.53 762.535L1383.58 866.404L1396.65 926.205L1621.84 823.451Z" fill="#F7E07B"/>
<path d="M1490.45 846.271L1494.03 844.624L1502.38 862.77L1498.8 864.416L1495.15 856.484L1488.26 859.657L1491.91 867.589L1488.33 869.236L1479.98 851.09L1483.56 849.444L1486.61 856.08L1493.51 852.907L1490.45 846.271ZM1508.79 844.114L1512.37 842.468L1518.33 855.429L1514.74 857.082L1513.95 855.811C1513.85 856.467 1513.6 857.072 1513.22 857.626C1512.83 858.18 1512.29 858.619 1511.58 858.946C1510.61 859.391 1509.63 859.625 1508.62 859.648C1507.62 859.671 1506.65 859.509 1505.71 859.164C1504.78 858.819 1503.94 858.311 1503.19 857.64C1502.44 856.956 1501.85 856.13 1501.4 855.162C1500.98 854.238 1500.75 853.296 1500.72 852.338C1500.68 851.379 1500.83 850.452 1501.16 849.556C1501.5 848.66 1501.98 847.856 1502.62 847.145C1503.26 846.429 1504.04 845.859 1504.97 845.434C1505.76 845.068 1506.55 844.908 1507.34 844.955C1508.13 844.998 1508.89 845.169 1509.6 845.469L1508.79 844.114ZM1509.91 855.553C1510.5 855.282 1510.96 854.886 1511.29 854.365C1511.63 853.844 1511.82 853.265 1511.86 852.628C1511.9 851.982 1511.77 851.348 1511.49 850.726C1511.2 850.096 1510.8 849.589 1510.29 849.206C1509.78 848.824 1509.21 848.591 1508.6 848.507C1507.98 848.423 1507.38 848.516 1506.79 848.787C1506.2 849.061 1505.73 849.461 1505.38 849.986C1505.04 850.511 1504.84 851.099 1504.8 851.748C1504.75 852.389 1504.86 853.021 1505.15 853.643C1505.44 854.265 1505.84 854.77 1506.37 855.157C1506.89 855.532 1507.47 855.759 1508.09 855.839C1508.72 855.918 1509.32 855.823 1509.91 855.553ZM1526.47 846.721L1530.49 846.978C1530.26 848.065 1529.82 849.061 1529.14 849.967C1528.47 850.873 1527.61 851.571 1526.54 852.06C1525.35 852.609 1524.12 852.803 1522.85 852.643C1521.59 852.479 1520.43 852.018 1519.37 851.26C1518.32 850.489 1517.5 849.478 1516.92 848.225C1516.49 847.274 1516.25 846.311 1516.21 845.335C1516.16 844.35 1516.29 843.412 1516.59 842.519C1516.9 841.614 1517.36 840.804 1517.99 840.087C1518.61 839.371 1519.37 838.808 1520.26 838.399C1521.32 837.91 1522.41 837.705 1523.54 837.784C1524.66 837.863 1525.71 838.18 1526.69 838.735L1524.28 841.951C1523.88 841.789 1523.47 841.714 1523.06 841.726C1522.65 841.726 1522.26 841.809 1521.9 841.976C1521.35 842.231 1520.92 842.611 1520.62 843.116C1520.33 843.617 1520.17 844.178 1520.14 844.798C1520.11 845.406 1520.24 846 1520.5 846.578C1520.76 847.149 1521.14 847.621 1521.62 847.994C1522.11 848.367 1522.64 848.605 1523.21 848.709C1523.79 848.809 1524.35 848.733 1524.9 848.483C1525.27 848.312 1525.59 848.071 1525.85 847.76C1526.12 847.45 1526.32 847.103 1526.47 846.721ZM1545.45 842.953L1541.32 844.849L1536.4 841.383L1535.68 843.99L1536.99 846.841L1533.42 848.488L1524.47 829.046L1528.05 827.4L1533.12 838.43L1534.84 832.127L1539.51 829.979L1537.51 837.352L1545.45 842.953ZM1547.64 841.941L1539.29 823.795L1545.31 821.027C1546.56 820.451 1547.84 820.15 1549.15 820.124C1550.46 820.085 1551.72 820.294 1552.94 820.751C1554.16 821.195 1555.26 821.858 1556.23 822.741C1557.2 823.611 1557.98 824.672 1558.56 825.925C1559.13 827.178 1559.44 828.462 1559.47 829.779C1559.5 831.082 1559.29 832.346 1558.84 833.57C1558.39 834.781 1557.73 835.876 1556.85 836.857C1555.97 837.824 1554.91 838.596 1553.66 839.173L1547.64 841.941ZM1549.58 836.717L1552.01 835.596C1552.76 835.254 1553.39 834.789 1553.92 834.202C1554.45 833.61 1554.86 832.947 1555.14 832.211C1555.41 831.475 1555.54 830.709 1555.52 829.913C1555.51 829.112 1555.33 828.332 1554.98 827.571C1554.63 826.811 1554.16 826.17 1553.56 825.648C1552.97 825.114 1552.3 824.714 1551.56 824.447C1550.83 824.168 1550.06 824.039 1549.26 824.06C1548.48 824.077 1547.71 824.259 1546.95 824.605L1544.52 825.726L1549.58 836.717ZM1561.88 829.642L1558.1 821.424L1561.67 819.778L1565 827.011C1565.21 827.469 1565.51 827.834 1565.9 828.106C1566.29 828.365 1566.72 828.518 1567.19 828.563C1567.66 828.608 1568.12 828.529 1568.56 828.326C1569.01 828.119 1569.37 827.822 1569.64 827.435C1569.91 827.048 1570.08 826.624 1570.12 826.161C1570.17 825.69 1570.09 825.226 1569.88 824.768L1566.55 817.536L1570.13 815.889L1576.1 828.845L1572.53 830.491L1572.06 829.512C1571.82 830.125 1571.46 830.684 1570.98 831.188C1570.51 831.687 1569.95 832.086 1569.3 832.385C1568.36 832.814 1567.41 832.977 1566.43 832.873C1565.45 832.769 1564.55 832.442 1563.75 831.892C1562.93 831.334 1562.31 830.584 1561.88 829.642ZM1590.76 822.1L1586.64 823.997L1581.71 820.53L1581 823.137L1582.31 825.989L1578.73 827.635L1569.78 808.193L1573.36 806.547L1578.44 817.577L1580.15 811.274L1584.82 809.127L1582.83 816.5L1590.76 822.1ZM1597.68 819.325C1596.48 819.873 1595.25 820.068 1593.99 819.908C1592.73 819.743 1591.57 819.278 1590.5 818.512C1589.45 817.741 1588.63 816.729 1588.05 815.476C1587.62 814.535 1587.38 813.576 1587.34 812.6C1587.3 811.615 1587.43 810.677 1587.73 809.784C1588.03 808.879 1588.5 808.068 1589.12 807.352C1589.74 806.636 1590.5 806.073 1591.39 805.664C1592.42 805.19 1593.46 804.979 1594.51 805.03C1595.57 805.077 1596.56 805.346 1597.5 805.836C1598.45 806.322 1599.27 806.987 1599.96 807.831C1600.66 808.67 1601.16 809.649 1601.47 810.765L1592.47 814.904C1592.76 815.233 1593.09 815.499 1593.47 815.703C1593.85 815.894 1594.25 816.001 1594.68 816.023C1595.12 816.041 1595.57 815.949 1596.03 815.747C1596.48 815.549 1596.85 815.255 1597.13 814.864C1597.41 814.473 1597.6 814.034 1597.7 813.548L1601.75 812.708C1601.75 814.1 1601.4 815.404 1600.69 816.62C1599.98 817.827 1598.97 818.728 1597.68 819.325ZM1591.12 812.32L1596.63 809.785C1596.32 809.405 1595.95 809.103 1595.53 808.881C1595.1 808.659 1594.65 808.535 1594.18 808.512C1593.71 808.484 1593.26 808.571 1592.82 808.774C1592.39 808.973 1592.03 809.259 1591.74 809.633C1591.46 810.003 1591.27 810.422 1591.16 810.891C1591.05 811.347 1591.04 811.824 1591.12 812.32Z" fill="#3E9448"/>
<path d="M1215.51 857.387L1111.54 904.977" stroke="#3E9448" stroke-width="3.42426"/>
<path d="M1207.53 880.017L1115.27 922.062" stroke="#3E9448" stroke-width="3.42426"/>
<path d="M1417.11 619.381L925.625 846.154" stroke="#CA7C1F" stroke-width="3.42426"/>
<path d="M1530.48 950.334L1633.89 901.528" stroke="#3E9448" stroke-width="3.42426"/>
<path d="M1538.2 927.61L1629.95 884.486" stroke="#3E9448" stroke-width="3.42426"/>
<path d="M894.483 1038.12L927.703 1046.78L930.193 1058.17M894.483 1038.12L861.262 1029.47L863.752 1040.86M894.483 1038.12L904.96 1086.06M904.96 1086.06L871.843 1077.88L863.752 1040.86M904.96 1086.06L938.077 1094.24L930.193 1058.17M930.193 1058.17L863.752 1040.86" stroke="#3E9448" stroke-width="2.28284"/>
<path d="M1123.81 1143.16L1115.31 1104.24L1054.44 1089.69L1062.95 1128.61L1123.81 1143.16Z" fill="#F7E07B" stroke="#F7E07B" stroke-width="2.28284"/>
<path d="M1114.03 1107.5L1121.5 1141.67" stroke="#3E9448" stroke-width="1.14142"/>
<path d="M1109.41 1104.53L1116.87 1138.7" stroke="#3E9448" stroke-width="1.14142"/>
<path d="M1107.51 1104.95L1114.98 1139.12" stroke="#3E9448" stroke-width="1.14142"/>
<path d="M1103.29 1103.88L1110.76 1138.05" stroke="#3E9448" stroke-width="1.14142"/>
<path d="M1098.67 1100.91L1106.14 1135.08" stroke="#3E9448" stroke-width="1.14142"/>
<path d="M1090.66 1100.67L1098.13 1134.85" stroke="#3E9448" stroke-width="1.14142"/>
<path d="M1092.56 1100.26L1100.03 1134.43" stroke="#3E9448" stroke-width="1.14142"/>
<path d="M1084.13 1098.12L1091.6 1132.29" stroke="#3E9448" stroke-width="1.14142"/>
<path d="M1078.02 1097.47L1085.49 1131.64" stroke="#3E9448" stroke-width="1.14142"/>
<path d="M1073.81 1096.4L1081.28 1130.57" stroke="#3E9448" stroke-width="1.14142"/>
<path d="M1071.5 1094.92L1078.97 1129.09" stroke="#3E9448" stroke-width="1.14142"/>
<path d="M1067.29 1093.85L1074.76 1128.02" stroke="#3E9448" stroke-width="1.14142"/>
<path d="M1063.07 1092.78L1070.54 1126.95" stroke="#3E9448" stroke-width="1.14142"/>
<path d="M1059.28 1093.61L1066.75 1127.78" stroke="#3E9448" stroke-width="1.14142"/>
<path d="M1056.96 1092.12L1064.43 1126.3" stroke="#3E9448" stroke-width="1.14142"/>
<path d="M1354.1 1004.57L1319.4 845.791L1174.73 911.956L1209.43 1070.73L1354.1 1004.57Z" fill="#F4D179" stroke="#3E9448" stroke-width="4.56568"/>
<path d="M1244.92 987.387C1250.65 1013.6 1277.4 1030.02 1304.66 1024.06C1331.92 1018.1 1349.37 992.023 1343.64 965.81C1337.91 939.598 1319.59 925.316 1292.33 931.274C1265.07 937.233 1239.19 961.175 1244.92 987.387Z" fill="#FC6A00"/>
<path d="M1186.02 954.51C1191.75 980.723 1218.49 997.142 1245.75 991.183C1273.01 985.225 1290.47 959.146 1284.74 932.933C1279.01 906.721 1260.69 892.439 1233.43 898.397C1206.17 904.356 1180.29 928.298 1186.02 954.51Z" fill="#FF822A"/>
<path d="M1298.06 921.072L1298.21 939.937L1294.62 941.717L1294.26 921.902L1300.37 922.556" stroke="#854110" stroke-width="4.56568"/>
<path d="M1217.41 897.921L1225.15 915.127L1229.15 915.246L1221.21 897.091L1215.93 900.234" stroke="#854110" stroke-width="4.56568"/>
<path d="M1300.1 939.522C1299.58 940.345 1298.33 941.049 1298.31 941.563C1298.5 941.97 1298.62 942.105 1298.77 942.264L1298.78 942.271C1298.93 942.434 1299.09 942.62 1299.25 942.829C1299.85 943.552 1300.4 943.924 1301.07 944.4C1301.91 945.006 1302.63 945.553 1303.42 945.803C1304.45 946.127 1305.52 946.553 1306.34 946.454C1306.66 946.414 1308.66 946.281 1312.06 945.702C1313.7 945.424 1315.18 945.138 1316.61 944.577C1319.45 943.455 1321.2 942.765 1321.89 942.473C1322.67 942.142 1324.2 941.394 1325.98 939.943C1327.58 938.645 1328.61 937.718 1329.39 936.515C1330.86 934.278 1332.06 932.198 1332.67 931.033C1333.59 929.261 1334.65 927.683 1334.75 926.76C1334.77 926.562 1334.72 926.367 1334.43 926.281C1333.04 925.878 1332.23 925.586 1330.4 925.436C1327.14 925.168 1326.15 925.235 1325.22 925.102C1324.42 924.988 1323.52 924.949 1322.78 925.057C1320.55 925.383 1317.43 926.052 1316.2 926.448C1315.41 926.7 1313.18 927.451 1311.58 928.2C1310.99 928.472 1309.58 929.015 1307.97 930.153C1306.74 931.016 1305.26 932.123 1303.86 933.96C1302.46 935.795 1301.59 937.208 1300.1 939.522Z" fill="#3E9448" stroke="#3E9448" stroke-width="4.56568" stroke-linecap="round"/>
<path d="M1191.13 916.68C1190.33 917.249 1188.91 917.44 1188.71 917.911C1188.73 918.358 1188.79 918.529 1188.87 918.731L1188.87 918.741C1188.95 918.947 1189.04 919.183 1189.11 919.436C1189.39 920.328 1189.77 920.879 1190.21 921.567C1190.77 922.443 1191.23 923.219 1191.87 923.744C1192.7 924.426 1193.54 925.221 1194.34 925.432C1194.66 925.517 1196.56 926.136 1199.93 926.861C1201.56 927.211 1203.04 927.496 1204.57 927.503C1207.63 927.518 1209.51 927.528 1210.25 927.512C1211.1 927.494 1212.8 927.369 1215 926.685C1216.96 926.073 1218.26 925.594 1219.44 924.769C1221.63 923.234 1223.52 921.753 1224.52 920.896C1226.03 919.593 1227.6 918.523 1228.03 917.701C1228.12 917.524 1228.15 917.326 1227.91 917.137C1226.77 916.246 1226.13 915.674 1224.48 914.855C1221.56 913.396 1220.62 913.093 1219.8 912.624C1219.1 912.219 1218.28 911.847 1217.55 911.673C1215.36 911.148 1212.21 910.61 1210.92 910.52C1210.1 910.462 1207.75 910.333 1205.99 910.431C1205.34 910.467 1203.83 910.447 1201.91 910.904C1200.45 911.25 1198.67 911.728 1196.68 912.913C1194.7 914.096 1193.36 915.083 1191.13 916.68Z" fill="#3E9448" stroke="#3E9448" stroke-width="4.56568" stroke-linecap="round"/>
<path d="M1267.65 1034.59C1268.74 1037.64 1268.4 1037.9 1268.38 1037.96C1268.14 1039 1267.11 1040.31 1266.45 1040.37C1265.39 1040.46 1265.75 1040.63 1264.55 1040.78C1263.35 1040.93 1261.1 1042.13 1259.06 1042.98C1257.98 1043.42 1256.84 1043.85 1254.53 1045C1252.23 1046.15 1248.88 1047.07 1246.31 1048.36C1243.74 1049.64 1241.35 1050.53 1239.96 1051.13C1238.57 1051.74 1238.93 1051.34 1235.42 1053.12C1231.91 1054.89 1224.22 1057.38 1220.91 1059.23C1217.28 1061.26 1216.39 1061.98 1215.36 1062.62C1214.75 1062.99 1214.38 1063.29 1213.82 1063.49C1213.48 1063.61 1213.38 1064.14 1213.22 1063.62C1212.47 1061.18 1211.89 1059.97 1211.9 1059.25C1211.9 1058.53 1211.84 1057.66 1211.37 1055.13C1211.06 1053.49 1210.46 1050.62 1210.14 1048.95C1209.82 1047.27 1209.79 1046.81 1209.43 1045.04C1209.08 1043.27 1208.46 1040.28 1208.05 1038.67C1207.45 1036.25 1207.21 1035.09 1206.76 1033.63C1206.59 1033.09 1206.17 1030.85 1205.4 1027.82C1205.07 1026.53 1204.38 1024.47 1203.99 1021.59C1203.83 1020.43 1203.66 1019.96 1203.7 1019.41C1203.76 1018.65 1203.89 1017.96 1204.19 1017.41C1204.51 1016.83 1205.11 1015.65 1206.3 1014.51C1207.15 1013.7 1208.06 1012.73 1209.06 1012.17C1209.81 1011.75 1211.29 1010.89 1213.98 1010.12C1215.59 1009.66 1217.68 1009.08 1218.89 1008.99C1220.76 1008.85 1222.3 1008.33 1225.03 1008.51C1226.46 1008.6 1228.91 1008.74 1230.35 1008.96C1232.23 1009.24 1233.57 1009.4 1236.38 1010.19C1238.36 1010.74 1241.38 1011.69 1243.1 1012.28C1244.83 1012.87 1245.26 1013.1 1246.28 1013.52C1247.29 1013.95 1248.84 1014.55 1250.98 1015.63C1253.11 1016.71 1255.78 1018.17 1257.27 1019.15C1259.17 1020.39 1260.55 1021.65 1262.13 1023.76C1262.92 1024.83 1263.6 1025.94 1264.6 1027.92C1265.59 1029.89 1266.94 1032.62 1267.65 1034.59Z" fill="#FC6A00" stroke="#FC6A00" stroke-width="2.28284" stroke-linecap="round"/>
<path d="M527 420.688L803.554 552.944V843.652L527 708.84V420.688Z" fill="#EAD6AD"/>
<path d="M1371.16 430.05L805.832 555.591V834.503L1371.16 708.962V430.05Z" fill="#F4E4C3" stroke="#F4E4C3" stroke-width="7.98994"/>
<path d="M1071.15 311.785L1357.6 421.915L795.421 548.797L545.302 423.738L1071.15 311.785Z" fill="#FFF6E2" stroke="#FFF6E2" stroke-width="7.98994"/>
<path d="M687.645 498.977L1247.87 376.968L1152.3 341.382L602.239 456.274V533.546L687.645 576.249V498.977Z" fill="#CCA990"/>
<path d="M687.645 498.977L1247.87 376.968L1152.3 341.382L602.239 456.274M687.645 498.977L602.239 456.274M687.645 498.977V576.249L602.239 533.546V456.274" stroke="#CCA990" stroke-width="7.98994"/>
<path d="M1242.49 590.644L1246.34 589.801L1250.62 609.313L1246.77 610.156L1244.9 601.626L1237.49 603.251L1239.36 611.781L1235.51 612.624L1231.23 593.112L1235.08 592.269L1236.64 599.405L1244.06 597.78L1242.49 590.644ZM1260.87 592.46L1264.71 591.617L1267.77 605.554L1263.91 606.4L1263.41 604.99C1263.17 605.608 1262.8 606.147 1262.3 606.606C1261.81 607.064 1261.18 607.377 1260.42 607.544C1259.38 607.772 1258.37 607.79 1257.38 607.597C1256.39 607.404 1255.48 607.04 1254.64 606.503C1253.8 605.966 1253.09 605.29 1252.5 604.474C1251.92 603.647 1251.52 602.713 1251.29 601.672C1251.07 600.678 1251.05 599.709 1251.22 598.766C1251.4 597.822 1251.74 596.948 1252.25 596.144C1252.77 595.34 1253.41 594.658 1254.19 594.099C1254.97 593.538 1255.86 593.149 1256.85 592.931C1257.71 592.744 1258.51 592.757 1259.27 592.97C1260.04 593.182 1260.74 593.511 1261.37 593.956L1260.87 592.46ZM1259.51 603.872C1260.15 603.734 1260.68 603.446 1261.12 603.009C1261.56 602.571 1261.87 602.046 1262.05 601.433C1262.22 600.81 1262.24 600.164 1262.09 599.495C1261.94 598.817 1261.66 598.237 1261.24 597.754C1260.82 597.27 1260.32 596.922 1259.74 596.709C1259.16 596.496 1258.55 596.459 1257.92 596.597C1257.28 596.738 1256.73 597.027 1256.28 597.467C1255.83 597.906 1255.52 598.438 1255.33 599.063C1255.15 599.678 1255.13 600.32 1255.27 600.989C1255.42 601.658 1255.71 602.238 1256.14 602.728C1256.57 603.207 1257.09 603.552 1257.68 603.763C1258.27 603.974 1258.88 604.011 1259.51 603.872ZM1277.58 598.787L1281.45 599.897C1281 600.911 1280.35 601.789 1279.5 602.53C1278.65 603.272 1277.65 603.768 1276.51 604.018C1275.23 604.299 1273.98 604.226 1272.78 603.798C1271.59 603.369 1270.55 602.67 1269.68 601.703C1268.81 600.725 1268.23 599.562 1267.93 598.214C1267.71 597.192 1267.68 596.2 1267.85 595.238C1268.02 594.267 1268.34 593.377 1268.83 592.57C1269.32 591.751 1269.95 591.059 1270.71 590.492C1271.47 589.926 1272.33 589.538 1273.29 589.329C1274.43 589.078 1275.55 589.112 1276.63 589.43C1277.71 589.747 1278.67 590.282 1279.51 591.034L1276.46 593.659C1276.1 593.415 1275.72 593.255 1275.32 593.179C1274.92 593.091 1274.52 593.09 1274.13 593.175C1273.54 593.305 1273.04 593.585 1272.64 594.014C1272.24 594.441 1271.97 594.955 1271.81 595.555C1271.65 596.143 1271.64 596.749 1271.78 597.371C1271.92 597.985 1272.18 598.526 1272.57 598.994C1272.97 599.463 1273.43 599.808 1273.97 600.032C1274.52 600.253 1275.08 600.3 1275.67 600.171C1276.07 600.084 1276.43 599.917 1276.75 599.67C1277.08 599.423 1277.36 599.129 1277.58 598.787ZM1296.92 599.164L1292.49 600.136L1288.42 595.696L1287.16 598.09L1287.84 601.156L1283.99 601.999L1279.41 581.093L1283.25 580.25L1285.85 592.111L1288.88 586.321L1293.9 585.221L1290.37 591.997L1296.92 599.164ZM1299.29 598.646L1295.01 579.134L1301.48 577.717C1302.83 577.422 1304.14 577.402 1305.42 577.656C1306.71 577.899 1307.9 578.374 1308.99 579.079C1310.09 579.774 1311.02 580.656 1311.78 581.726C1312.55 582.785 1313.08 583.988 1313.37 585.335C1313.67 586.682 1313.69 588.002 1313.44 589.294C1313.19 590.575 1312.72 591.764 1312.01 592.863C1311.32 593.95 1310.43 594.879 1309.37 595.649C1308.31 596.407 1307.1 596.934 1305.75 597.229L1299.29 598.646ZM1302.29 593.957L1304.91 593.382C1305.71 593.207 1306.43 592.889 1307.07 592.428C1307.72 591.964 1308.26 591.403 1308.69 590.744C1309.12 590.085 1309.41 589.364 1309.56 588.581C1309.71 587.797 1309.7 586.996 1309.53 586.178C1309.35 585.36 1309.02 584.633 1308.55 583.996C1308.09 583.348 1307.52 582.815 1306.86 582.396C1306.2 581.966 1305.48 581.676 1304.69 581.526C1303.92 581.374 1303.13 581.387 1302.32 581.564L1299.7 582.138L1302.29 593.957ZM1315.82 589.676L1313.89 580.84L1317.73 579.997L1319.44 587.774C1319.55 588.267 1319.76 588.687 1320.08 589.036C1320.41 589.373 1320.79 589.614 1321.25 589.759C1321.7 589.904 1322.16 589.924 1322.63 589.82C1323.11 589.714 1323.53 589.501 1323.88 589.182C1324.23 588.862 1324.48 588.481 1324.62 588.04C1324.77 587.59 1324.79 587.118 1324.68 586.626L1322.97 578.849L1326.82 578.006L1329.89 591.94L1326.04 592.783L1325.8 591.727C1325.43 592.275 1324.96 592.743 1324.38 593.132C1323.81 593.52 1323.18 593.79 1322.48 593.942C1321.48 594.162 1320.51 594.117 1319.58 593.805C1318.64 593.494 1317.84 592.984 1317.17 592.274C1316.49 591.555 1316.04 590.689 1315.82 589.676ZM1345.65 588.486L1341.22 589.457L1337.15 585.018L1335.89 587.411L1336.56 590.477L1332.71 591.32L1328.13 570.415L1331.98 569.572L1334.58 581.432L1337.6 575.642L1342.62 574.543L1339.1 581.319L1345.65 588.486ZM1353 587.255C1351.72 587.536 1350.47 587.462 1349.27 587.035C1348.08 586.605 1347.04 585.902 1346.16 584.926C1345.3 583.947 1344.72 582.784 1344.42 581.437C1344.2 580.424 1344.17 579.437 1344.34 578.475C1344.51 577.503 1344.83 576.614 1345.32 575.807C1345.81 574.988 1346.44 574.295 1347.2 573.729C1347.96 573.163 1348.82 572.775 1349.78 572.565C1350.89 572.323 1351.95 572.339 1352.96 572.613C1353.98 572.885 1354.9 573.361 1355.71 574.04C1356.53 574.717 1357.19 575.542 1357.69 576.514C1358.19 577.485 1358.47 578.548 1358.53 579.703L1348.86 581.823C1349.07 582.205 1349.34 582.536 1349.66 582.816C1349.99 583.084 1350.36 583.275 1350.78 583.389C1351.2 583.5 1351.66 583.507 1352.16 583.408C1352.64 583.311 1353.06 583.102 1353.42 582.78C1353.78 582.458 1354.06 582.071 1354.26 581.617L1358.39 581.662C1358.09 583.022 1357.47 584.22 1356.52 585.256C1355.57 586.283 1354.39 586.949 1353 587.255ZM1348.1 579.01L1354.02 577.712C1353.8 577.274 1353.5 576.901 1353.13 576.592C1352.76 576.284 1352.35 576.067 1351.89 575.943C1351.45 575.817 1350.99 575.806 1350.51 575.91C1350.05 576.012 1349.64 576.214 1349.27 576.518C1348.92 576.819 1348.64 577.187 1348.43 577.622C1348.23 578.045 1348.12 578.508 1348.1 579.01Z" fill="#4F697B"/>
<path d="M944.881 553.881L827.956 579.299" stroke="#7B584F" stroke-width="3.42426"/>
<path d="M1206.18 353.583L642.909 481.692" stroke="#AC907B" stroke-width="3.42426"/>
<path d="M642.909 481.691L639.838 560.704" stroke="#AC907B" stroke-width="3.42426"/>
<path d="M931.664 575.232L827.956 597.601" stroke="#7B584F" stroke-width="3.42426"/>
<path d="M1377 717.576V596.584L799.487 726.727V842.635L1377 717.576Z" fill="#8699C9"/>
<path d="M527 713.046V595.568L799.487 726.728V842.637L527 713.046Z" fill="#7185B8"/>
</svg>
