<svg width="729" height="1739" viewBox="0 0 729 1739" fill="none" xmlns="http://www.w3.org/2000/svg">
<path d="M174.836 31.1475L374.313 62.4424C379.023 63.1814 382.557 67.1434 382.754 71.9075L437.672 1397.02C437.856 1401.46 435.091 1405.48 430.884 1406.91L89.4531 1522.38C82.9698 1524.57 76.2494 1519.75 76.2494 1512.9V936.891C76.2494 933.232 74.2514 929.866 71.04 928.113L6.70938 893.004C3.49792 891.251 1.49994 887.885 1.49994 884.226V781.871C1.49994 777.786 3.98413 774.112 7.77472 772.59L198.794 695.912C202.427 694.454 204.875 691.011 205.058 687.101L223.692 290.177C223.865 286.492 221.995 283.011 218.827 281.121L168.162 250.889C165.138 249.085 163.286 245.823 163.286 242.302V41.0266C163.286 34.8858 168.77 30.1957 174.836 31.1475Z" fill="#3F5EC5" stroke="#A7AEE4" stroke-width="3"/>
<path d="M107.993 1494.09V1410.87L469.452 1599.72L459.054 1692.79L107.993 1494.09Z" fill="#96A8E9"/>
<path d="M212.457 1373.45L544.221 1543.05L464.864 1596.68L107.5 1410.66L212.457 1373.45Z" fill="#3A135E"/>
<path d="M15.3244 783.36L243.157 701.77L549.834 769.609L330.194 869.993L15.3244 783.36Z" fill="#869EEA"/>
<path d="M516.749 1047.24L195.508 908.443L209.876 1377.87L516.749 1536.47V1047.24Z" fill="#96A7E9"/>
<path d="M343.253 1256.92L333.765 998.513L221.263 952.739L230.751 1206.71L343.253 1256.92Z" fill="#576DB5"/>
<path d="M13.7874 782.442L331.729 869.992V994.669L13.7874 892.452V782.442Z" fill="#3648A4"/>
<path d="M188.886 233.312L485.836 244.313V27.0439L188.886 42.1703V233.312Z" fill="#96A7E9"/>
<path d="M389.583 241.104L665.541 245.229L541.129 768.234L242.644 703.219L389.583 241.104Z" fill="url(#paint0_linear_1295_2)"/>
<path d="M166.871 772.509H204.824C204.824 787.275 185.847 785.798 184.492 785.798C176.359 785.798 166.871 784.321 166.871 772.509Z" fill="#4D0606"/>
<ellipse cx="18.9762" cy="8.85951" rx="18.9762" ry="8.85951" transform="matrix(-1 0 0 1 204.824 763.649)" fill="#8C3333"/>
<path d="M193.98 775.461C191.269 776.78 183.136 778.626 172.293 775.461" stroke="#FBC2A3" stroke-width="0.2"/>
<path d="M114.649 777.092H152.602C152.602 791.858 133.625 790.381 132.27 790.381C124.137 790.381 114.649 788.904 114.649 777.092Z" fill="#4D0606"/>
<ellipse cx="18.9762" cy="8.85951" rx="18.9762" ry="8.85951" transform="matrix(-1 0 0 1 152.602 768.233)" fill="#3583AE"/>
<path d="M141.756 780.044C139.045 781.363 130.912 783.21 120.069 780.044" stroke="#FBC2A3" stroke-width="0.2"/>
<path d="M147.416 748.673H185.368C185.368 763.439 166.392 761.963 165.036 761.963C156.904 761.963 147.416 760.486 147.416 748.673Z" fill="#4D0606"/>
<ellipse cx="18.9762" cy="8.85951" rx="18.9762" ry="8.85951" transform="matrix(-1 0 0 1 185.368 739.816)" fill="#FF4B4B"/>
<path d="M174.526 751.628C171.815 752.947 163.683 754.793 152.839 751.628" stroke="#FBC2A3" stroke-width="0.2"/>
<path d="M625.889 669.958L543.238 661.31L542.504 665.414L626.095 674.626L625.889 669.958Z" fill="#93A2A7"/>
<path d="M625.889 684.724L543.238 676.076L542.504 680.18L626.095 689.393L625.889 684.724Z" fill="#93A2A7"/>
<path d="M625.889 699.49L543.238 690.842L542.504 694.945L626.095 704.158L625.889 699.49Z" fill="#93A2A7"/>
<path d="M441.336 81.5903L462.798 89.3229L430.604 111.232L441.336 148.606H401.094L394.387 170.515L325.976 121.542L295.124 162.782L234.761 139.585L221.347 162.782H194.519L234.761 111.232L288.417 133.141L325.976 98.3442L394.387 121.542L441.336 81.5903Z" fill="#3648A4"/>
<ellipse cx="12.199" cy="13.2893" rx="12.199" ry="13.2893" transform="matrix(-1 0 0 1 434.068 1292.35)" fill="#547B9B"/>
<ellipse cx="12.199" cy="13.2893" rx="12.199" ry="13.2893" transform="matrix(-1 0 0 1 434.068 1348.46)" fill="#547B9B"/>
<path d="M574.368 694.766L676.455 336.539C678.211 330.38 673.803 324.181 667.409 323.815L422.745 309.833C418.273 309.578 414.176 312.327 412.719 316.563L301.679 639.176C299.703 644.917 303.257 651.079 309.215 652.244L562.832 701.839C567.931 702.836 572.945 699.762 574.368 694.766Z" fill="#34032A"/>
<path d="M556.021 650.451L650.164 352.67C652.202 346.224 647.389 339.656 640.629 339.656H446.146C441.992 339.656 438.271 342.224 436.797 346.107L336.082 611.463C333.835 617.383 337.587 623.875 343.839 624.884L544.894 657.309C549.79 658.099 554.525 655.18 556.021 650.451Z" fill="url(#paint1_linear_1295_2)"/>
<path d="M401.741 617.579C376.814 619.91 336.496 612.724 374.633 565.329C369.108 577.404 366.793 604.759 401.741 617.579Z" fill="#FFFBEB"/>
<path d="M652.952 1625.67L728.007 58.1738C728.245 53.2059 724.795 48.8182 719.912 47.8764L483.533 2.29353C477.365 1.10396 471.64 5.83026 471.64 12.1126V264.496C471.64 268.197 473.684 271.596 476.955 273.33L551.718 312.978C555.093 314.768 557.154 318.324 557.028 322.142L542.587 759.825C542.452 763.917 539.835 767.514 535.983 768.902L311.109 849.959C307.143 851.388 304.5 855.151 304.5 859.366V1011.41C304.5 1015.79 307.352 1019.66 311.536 1020.96L399.539 1048.27C403.665 1049.55 406.502 1053.33 406.574 1057.65L417.602 1722.92C417.721 1730.12 425.172 1734.84 431.727 1731.87L647.09 1634.3C650.508 1632.76 652.772 1629.42 652.952 1625.67Z" fill="url(#paint2_linear_1295_2)"/>
<defs>
<linearGradient id="paint0_linear_1295_2" x1="464.937" y1="221.852" x2="464.937" y2="785.907" gradientUnits="userSpaceOnUse">
<stop stop-color="#132E88"/>
<stop offset="1" stop-color="#3E1356"/>
</linearGradient>
<linearGradient id="paint1_linear_1295_2" x1="524.884" y1="326.668" x2="524.884" y2="619.032" gradientUnits="userSpaceOnUse">
<stop stop-color="#111A7E"/>
<stop offset="1" stop-color="#3F73DC"/>
</linearGradient>
<linearGradient id="paint2_linear_1295_2" x1="568.618" y1="-69.6912" x2="568.618" y2="1729.26" gradientUnits="userSpaceOnUse">
<stop stop-color="#4770F7"/>
<stop offset="0.990385" stop-color="#3648A4"/>
</linearGradient>
</defs>
</svg>
