<svg width="728" height="1739" viewBox="0 0 728 1739" fill="none" xmlns="http://www.w3.org/2000/svg">
<path d="M173.836 31.1475L373.313 62.4424C378.023 63.1814 381.557 67.1434 381.754 71.9075L436.672 1397.02C436.856 1401.46 434.091 1405.48 429.884 1406.91L88.4531 1522.38C81.9698 1524.57 75.2494 1519.75 75.2494 1512.9V936.891C75.2494 933.232 73.2514 929.866 70.04 928.113L5.70938 893.004C2.49792 891.251 0.499939 887.885 0.499939 884.226V781.871C0.499939 777.786 2.98413 774.112 6.77472 772.59L197.794 695.912C201.427 694.454 203.875 691.011 204.058 687.101L222.692 290.177C222.865 286.492 220.995 283.011 217.827 281.121L167.162 250.889C164.138 249.085 162.286 245.823 162.286 242.302V41.0266C162.286 34.8858 167.77 30.1957 173.836 31.1475Z" fill="#286994" stroke="#54629B"/>
<path d="M106.993 1494.09V1410.87L468.452 1599.72L458.054 1692.79L106.993 1494.09Z" fill="#6081CE"/>
<path d="M211.95 1379.25L543.715 1548.84L464.358 1602.47L106.994 1416.45L211.95 1379.25Z" fill="#3A135E"/>
<path d="M14.3244 783.36L242.157 701.77L548.834 769.609L329.194 869.993L14.3244 783.36Z" fill="#A1C3D6"/>
<path d="M515.749 1047.24L194.508 908.443L208.876 1377.87L515.749 1536.47V1047.24Z" fill="#66C3C2"/>
<path d="M342.253 1256.92L332.765 998.513L220.263 952.739L229.751 1206.71L342.253 1256.92Z" fill="#54629B"/>
<path d="M12.7879 782.442L330.729 869.992V994.669L12.7879 892.452V782.442Z" fill="#28409D"/>
<path d="M187.887 233.312L484.836 244.313V27.0439L187.887 42.1703V233.312Z" fill="#90E9E8"/>
<path d="M388.583 241.104L664.541 245.229L540.129 768.234L241.644 703.219L388.583 241.104Z" fill="url(#paint0_linear_1295_2)"/>
<path d="M165.871 772.509H203.824C203.824 787.275 184.847 785.798 183.492 785.798C175.359 785.798 165.871 784.321 165.871 772.509Z" fill="#4D0606"/>
<ellipse cx="18.9762" cy="8.85951" rx="18.9762" ry="8.85951" transform="matrix(-1 0 0 1 203.824 763.649)" fill="#8C3333"/>
<path d="M192.98 775.461C190.269 776.78 182.136 778.626 171.293 775.461" stroke="#FBC2A3" stroke-width="0.2"/>
<path d="M113.649 777.092H151.602C151.602 791.858 132.625 790.381 131.27 790.381C123.137 790.381 113.649 788.904 113.649 777.092Z" fill="#4D0606"/>
<ellipse cx="18.9762" cy="8.85951" rx="18.9762" ry="8.85951" transform="matrix(-1 0 0 1 151.602 768.233)" fill="#5A47C4"/>
<path d="M140.756 780.044C138.045 781.363 129.912 783.21 119.069 780.044" stroke="#FBC2A3" stroke-width="0.2"/>
<path d="M146.416 748.673H184.368C184.368 763.439 165.392 761.963 164.036 761.963C155.904 761.963 146.416 760.486 146.416 748.673Z" fill="#4D0606"/>
<ellipse cx="18.9762" cy="8.85951" rx="18.9762" ry="8.85951" transform="matrix(-1 0 0 1 184.368 739.816)" fill="#FF4B4B"/>
<path d="M173.526 751.628C170.815 752.947 162.683 754.793 151.839 751.628" stroke="#FBC2A3" stroke-width="0.2"/>
<path d="M624.889 669.958L542.237 661.31L541.504 665.414L625.094 674.626L624.889 669.958Z" fill="#93A2A7"/>
<path d="M624.889 684.724L542.237 676.076L541.504 680.18L625.094 689.393L624.889 684.724Z" fill="#93A2A7"/>
<path d="M624.889 699.49L542.237 690.842L541.504 694.945L625.094 704.158L624.889 699.49Z" fill="#93A2A7"/>
<path d="M440.336 81.5903L461.798 89.3229L429.605 111.232L440.336 148.606H400.094L393.387 170.515L324.976 121.542L294.124 162.782L233.761 139.585L220.347 162.782H193.52L233.761 111.232L287.417 133.141L324.976 98.3442L393.387 121.542L440.336 81.5903Z" fill="#28409D"/>
<ellipse cx="12.199" cy="13.2893" rx="12.199" ry="13.2893" transform="matrix(-1 0 0 1 433.068 1292.35)" fill="#54629B"/>
<ellipse cx="12.199" cy="13.2893" rx="12.199" ry="13.2893" transform="matrix(-1 0 0 1 433.068 1348.46)" fill="#54629B"/>
<path d="M573.368 694.766L675.455 336.539C677.211 330.38 672.803 324.181 666.409 323.815L421.745 309.833C417.273 309.578 413.176 312.327 411.719 316.563L300.679 639.176C298.703 644.917 302.257 651.079 308.215 652.244L561.832 701.839C566.931 702.836 571.945 699.762 573.368 694.766Z" fill="#34032A"/>
<path d="M555.021 650.451L649.164 352.67C651.202 346.224 646.389 339.656 639.629 339.656H445.146C440.992 339.656 437.271 342.224 435.797 346.107L335.082 611.463C332.835 617.383 336.587 623.875 342.839 624.884L543.894 657.309C548.79 658.099 553.525 655.18 555.021 650.451Z" fill="url(#paint1_linear_1295_2)"/>
<path d="M400.74 617.579C375.814 619.91 335.495 612.724 373.633 565.329C368.107 577.404 365.792 604.759 400.74 617.579Z" fill="#CAAEBA"/>
<path d="M652.046 1625.67L727.102 58.1738C727.34 53.2059 723.89 48.8182 719.007 47.8764L482.628 2.29353C476.459 1.10396 470.734 5.83026 470.734 12.1126V264.496C470.734 268.197 472.779 271.596 476.049 273.33L550.813 312.978C554.188 314.768 556.248 318.324 556.122 322.142L541.681 759.825C541.546 763.917 538.93 767.514 535.078 768.902L310.204 849.959C306.238 851.388 303.595 855.151 303.595 859.366V1011.41C303.595 1015.79 306.447 1019.66 310.631 1020.96L398.633 1048.27C402.759 1049.55 405.597 1053.33 405.668 1057.65L416.697 1722.92C416.816 1730.12 424.267 1734.84 430.822 1731.87L646.184 1634.3C649.603 1632.76 651.867 1629.42 652.046 1625.67Z" fill="url(#paint2_linear_1295_2)"/>
<defs>
<linearGradient id="paint0_linear_1295_2" x1="463.937" y1="221.852" x2="463.937" y2="785.907" gradientUnits="userSpaceOnUse">
<stop stop-color="#312772"/>
<stop offset="1" stop-color="#561336"/>
</linearGradient>
<linearGradient id="paint1_linear_1295_2" x1="523.884" y1="326.668" x2="523.884" y2="619.032" gradientUnits="userSpaceOnUse">
<stop stop-color="#111A7E"/>
<stop offset="1" stop-color="#3F73DC"/>
</linearGradient>
<linearGradient id="paint2_linear_1295_2" x1="567.712" y1="-69.6912" x2="567.712" y2="1729.26" gradientUnits="userSpaceOnUse">
<stop stop-color="#F0EFB5"/>
<stop offset="1" stop-color="#2E85A0"/>
</linearGradient>
</defs>
</svg>
