<svg width="668" height="2267" viewBox="0 0 668 2267" fill="none" xmlns="http://www.w3.org/2000/svg">
<path d="M193.099 40.4085L418.27 81.624C422.888 82.4693 426.296 86.4136 426.463 91.1055L488.024 1824.17C488.174 1828.4 485.641 1832.27 481.7 1833.82L97.704 1985.34C91.1417 1987.93 84.0336 1983.09 84.0336 1976.04V1219.29C84.0336 1215.87 82.2879 1212.69 79.4047 1210.86L5.12912 1163.56C2.24597 1161.73 0.500183 1158.54 0.500183 1155.13V1016.97C0.500183 1013.09 2.7449 1009.56 6.25891 1007.91L222.136 906.806C225.519 905.221 227.737 901.884 227.887 898.152L248.897 376.013C249.034 372.601 247.421 369.355 244.618 367.404L185.585 326.306C182.9 324.437 181.299 321.371 181.299 318.099V50.2451C181.299 44.0012 186.957 39.2843 193.099 40.4085Z" fill="#862E2E" stroke="#B83F4D"/>
<path d="M119.506 1948.03V1839.53L523.441 2085.76L511.821 2207.1L119.506 1948.03Z" fill="#D27072"/>
<path d="M236.796 1798.29L607.547 2019.42L518.865 2089.34L119.506 1846.81L236.796 1798.29Z" fill="#5E1338"/>
<path d="M15.9458 1021.36L272.547 936.78L613.267 1003.43L367.816 1134.32L15.9458 1021.36Z" fill="#D6AEA1"/>
<path d="M576.297 1365.42L217.307 1184.45L233.363 1796.5L576.297 2003.28V1365.42Z" fill="#F98C8D"/>
<path d="M382.411 1638.8L371.808 1301.89L246.085 1242.2L256.688 1573.34L382.411 1638.8Z" fill="#B83F4D"/>
<path d="M14.231 1020.17L369.534 1134.32V1296.88L14.231 1163.6V1020.17Z" fill="#CC605D"/>
<path d="M209.905 304.198L541.75 318.541V35.2603L209.905 54.9823V304.198Z" fill="#FFA5A6"/>
<path d="M434.186 314.358L742.573 319.737L603.542 1001.64L269.471 938.627L434.186 314.358Z" fill="url(#paint0_linear_1301_2)"/>
<path d="M204.116 1011.41H246.528C246.528 1030.66 225.322 1028.74 223.807 1028.74C214.719 1028.74 204.116 1026.81 204.116 1011.41Z" fill="#4D0606"/>
<ellipse cx="21.2062" cy="11.5512" rx="21.2062" ry="11.5512" transform="matrix(-1 0 0 1 246.528 999.862)" fill="#8C3333"/>
<path d="M234.41 1015.26C231.38 1016.98 222.292 1019.39 210.174 1015.26" stroke="#FBC2A3" stroke-width="0.2"/>
<path d="M145.758 1017.39H188.17C188.17 1036.64 166.964 1034.72 165.449 1034.72C156.361 1034.72 145.758 1032.79 145.758 1017.39Z" fill="#4D0606"/>
<ellipse cx="21.2062" cy="11.5512" rx="21.2062" ry="11.5512" transform="matrix(-1 0 0 1 188.17 1005.84)" fill="#5A47C4"/>
<path d="M176.05 1021.24C173.021 1022.96 163.932 1025.37 151.815 1021.24" stroke="#FBC2A3" stroke-width="0.2"/>
<path d="M182.374 980.336H224.787C224.787 999.588 203.58 997.663 202.066 997.663C192.977 997.663 182.374 995.738 182.374 980.336Z" fill="#4D0606"/>
<ellipse cx="21.2062" cy="11.5512" rx="21.2062" ry="11.5512" transform="matrix(-1 0 0 1 224.787 968.785)" fill="#FF4B4B"/>
<path d="M212.67 984.189C209.641 985.909 200.553 988.316 188.435 984.189" stroke="#FBC2A3" stroke-width="0.2"/>
<path d="M698.26 873.507L605.896 862.231L605.077 867.582L698.49 879.594L698.26 873.507Z" fill="#93A2A7"/>
<path d="M698.26 892.759L605.896 881.483L605.077 886.834L698.49 898.846L698.26 892.759Z" fill="#93A2A7"/>
<path d="M698.26 912.011L605.896 900.735L605.077 906.086L698.49 918.098L698.26 912.011Z" fill="#93A2A7"/>
<path d="M492.019 106.379L516.003 116.461L480.026 145.027L492.019 193.756H447.048L439.553 222.321L363.102 158.469L328.625 212.239L261.169 181.994L246.178 212.239H216.198L261.169 145.027L321.13 173.592L363.102 128.224L439.553 158.469L492.019 106.379Z" fill="#EC7072"/>
<ellipse cx="13.6326" cy="17.3269" rx="13.6326" ry="17.3269" transform="matrix(-1 0 0 1 483.9 1685)" fill="#B83F4D"/>
<ellipse cx="13.6326" cy="17.3269" rx="13.6326" ry="17.3269" transform="matrix(-1 0 0 1 483.9 1758.16)" fill="#B83F4D"/>
<path d="M640.235 907.693L755.77 434.687C757.244 428.653 752.918 422.749 746.721 422.336L471.013 403.954C466.239 403.635 461.908 406.744 460.682 411.368L347.798 837.027C346.36 842.452 349.667 847.999 355.124 849.313L628.18 915.042C633.537 916.332 638.928 913.045 640.235 907.693Z" fill="#34032A"/>
<path d="M619.716 849.79L726.567 455.466C728.29 449.108 723.502 442.85 716.915 442.85H497.365C492.836 442.85 488.872 445.895 487.704 450.272L393.472 803.38C391.983 808.959 395.517 814.637 401.181 815.765L608.111 856.982C613.269 858.009 618.341 854.866 619.716 849.79Z" fill="url(#paint1_linear_1301_2)"/>
<path d="M468.967 803.678C442.291 812.259 396.271 812.143 425.591 743.039C422.709 759.703 427.348 795.16 468.967 803.678Z" fill="#CAAEBA"/>
<path d="M862.354 2089.96L912.466 122.752C912.581 118.235 909.652 114.202 905.322 112.913L538.843 3.82583C532.432 1.91732 525.99 6.72057 525.99 13.4102V347.128C525.99 350.592 527.783 353.809 530.729 355.632L616.745 408.852C619.777 410.727 621.581 414.075 621.48 417.638L605.207 993.077C605.096 996.998 602.703 1000.49 599.087 1002.01L345.333 1108.73C341.623 1110.29 339.21 1113.92 339.21 1117.95V1321.29C339.21 1325.5 341.847 1329.26 345.805 1330.69L446.648 1367.2C450.557 1368.61 453.183 1372.3 453.242 1376.46L465.672 2251.31C465.774 2258.43 473.069 2263.17 479.611 2260.36L856.297 2098.9C859.888 2097.36 862.254 2093.87 862.354 2089.96Z" fill="url(#paint2_linear_1301_2)"/>
<defs>
<linearGradient id="paint0_linear_1301_2" x1="518.396" y1="289.258" x2="518.396" y2="1024.69" gradientUnits="userSpaceOnUse">
<stop stop-color="#312772"/>
<stop offset="1" stop-color="#561336"/>
</linearGradient>
<linearGradient id="paint1_linear_1301_2" x1="585.386" y1="425.917" x2="585.386" y2="807.107" gradientUnits="userSpaceOnUse">
<stop stop-color="#53117E"/>
<stop offset="1" stop-color="#B78FFC"/>
</linearGradient>
<linearGradient id="paint2_linear_1301_2" x1="634.364" y1="-90.865" x2="634.364" y2="2254.65" gradientUnits="userSpaceOnUse">
<stop stop-color="#FF9476"/>
<stop offset="1" stop-color="#AF3547"/>
</linearGradient>
</defs>
</svg>
