<svg width="713" height="1864" viewBox="0 0 713 1864" fill="none" xmlns="http://www.w3.org/2000/svg">
<path d="M170.53 33.4697L365.299 66.9511C369.958 67.7519 373.419 71.7051 373.598 76.4285L427.4 1498.89C427.563 1503.21 424.934 1507.15 420.881 1508.65L87.1299 1632.33C80.5984 1634.75 73.6552 1629.91 73.6552 1622.95V1003.99C73.6552 1000.47 71.8067 997.212 68.7875 995.407L5.36749 957.481C2.3483 955.676 0.499847 952.417 0.499847 948.899V837.72C0.499847 833.754 2.84344 830.163 6.47366 828.567L193.724 746.206C197.212 744.672 199.525 741.288 199.689 737.481L217.985 310.44C218.136 306.915 216.419 303.572 213.467 301.642L163.364 268.884C160.539 267.037 158.836 263.889 158.836 260.514V43.3252C158.836 37.1252 164.42 32.4193 170.53 33.4697Z" fill="#1D5254" stroke="#60A188"/>
<path d="M104.722 1602.19V1512.96L458.472 1715.47L448.295 1815.27L104.722 1602.19Z" fill="#3F7E76"/>
<path d="M207.44 1479.04L532.129 1660.91L454.465 1718.42L104.722 1518.94L207.44 1479.04Z" fill="#07513E"/>
<path d="M14.0296 840.042L237.003 752.548L537.14 825.296L322.184 932.943L14.0296 840.042Z" fill="#A1C9D6"/>
<path d="M504.761 1123.01L190.371 974.173L204.433 1477.57L504.761 1647.64V1123.01Z" fill="#66D6D4"/>
<path d="M334.964 1347.86L325.678 1070.76L215.575 1021.68L224.861 1294.03L334.964 1347.86Z" fill="#60A188"/>
<path d="M12.5259 839.059L323.687 932.943V1066.64L12.5259 957.028V839.059Z" fill="#276674"/>
<path d="M183.891 250.194L474.508 261.991V29.0015L183.891 45.2223V250.194Z" fill="#7ECAAD"/>
<path d="M380.305 258.551L650.378 262.975L528.62 823.821L236.5 754.102L380.305 258.551Z" fill="url(#paint0_linear_1302_35)"/>
<path d="M162.343 828.405H199.486C199.486 844.24 180.914 842.656 179.588 842.656C171.629 842.656 162.343 841.073 162.343 828.405Z" fill="#4D0606"/>
<ellipse cx="18.5716" cy="9.50054" rx="18.5716" ry="9.50054" transform="matrix(-1 0 0 1 199.486 818.905)" fill="#8C3333"/>
<path d="M188.874 831.57C186.221 832.985 178.262 834.965 167.649 831.57" stroke="#FBC2A3" stroke-width="0.2"/>
<path d="M111.236 833.321H148.379C148.379 849.156 129.807 847.572 128.481 847.572C120.522 847.572 111.236 845.989 111.236 833.321Z" fill="#4D0606"/>
<ellipse cx="18.5716" cy="9.50054" rx="18.5716" ry="9.50054" transform="matrix(-1 0 0 1 148.379 823.82)" fill="#5A47C4"/>
<path d="M137.765 836.485C135.112 837.9 127.153 839.88 116.541 836.485" stroke="#FBC2A3" stroke-width="0.2"/>
<path d="M143.304 802.844H180.447C180.447 818.678 161.875 817.095 160.549 817.095C152.589 817.095 143.304 815.512 143.304 802.844Z" fill="#4D0606"/>
<ellipse cx="18.5716" cy="9.50054" rx="18.5716" ry="9.50054" transform="matrix(-1 0 0 1 180.447 793.345)" fill="#FF4B4B"/>
<path d="M169.835 806.013C167.182 807.427 159.223 809.407 148.61 806.013" stroke="#FBC2A3" stroke-width="0.2"/>
<path d="M611.574 718.434L530.685 709.159L529.967 713.56L611.775 723.44L611.574 718.434Z" fill="#93A798"/>
<path d="M611.574 734.269L530.685 724.995L529.967 729.395L611.775 739.275L611.574 734.269Z" fill="#93A798"/>
<path d="M611.574 750.102L530.685 740.828L529.967 745.228L611.775 755.108L611.574 750.102Z" fill="#93A798"/>
<path d="M430.955 87.4951L451.959 95.7872L420.453 119.281L430.955 159.36H391.571L385.007 182.854L318.055 130.337L287.861 174.562L228.786 149.686L215.658 174.562H189.402L228.786 119.281L281.297 142.775L318.055 105.461L385.007 130.337L430.955 87.4951Z" fill="#216063"/>
<ellipse cx="11.9389" cy="14.2508" rx="11.9389" ry="14.2508" transform="matrix(-1 0 0 1 423.842 1385.86)" fill="#60A188"/>
<ellipse cx="11.9389" cy="14.2508" rx="11.9389" ry="14.2508" transform="matrix(-1 0 0 1 423.842 1446.03)" fill="#60A188"/>
<path d="M561.094 745.247L661.355 359.75C662.938 353.665 658.578 347.646 652.302 347.253L413.177 332.28C408.585 331.992 404.39 334.874 403.011 339.263L293.905 686.601C292.14 692.221 295.591 698.141 301.351 699.376L549.321 752.508C554.557 753.629 559.747 750.429 561.094 745.247Z" fill="#34032A"/>
<path d="M543.14 697.703L635.671 377.004C637.516 370.61 632.718 364.231 626.063 364.231H436.029C431.767 364.231 427.974 366.932 426.58 370.958L327.524 656.923C325.51 662.737 329.174 668.973 335.233 670.043L531.792 704.778C536.827 705.668 541.722 702.616 543.14 697.703Z" fill="url(#paint1_linear_1302_35)"/>
<path d="M392.205 662.264C367.81 664.764 328.351 657.059 365.676 606.234C360.268 619.183 358.002 648.517 392.205 662.264Z" fill="#CAAEBA"/>
<path d="M638.123 1743.95L711.642 61.5685C711.855 56.6825 708.503 52.359 703.719 51.3479L472.774 2.5498C466.556 1.23606 460.706 5.97901 460.706 12.3338V284.33C460.706 287.892 462.602 291.186 465.682 292.976L539.324 335.767C542.498 337.611 544.406 341.046 544.295 344.714L530.119 815.489C529.999 819.483 527.513 823.022 523.797 824.489L303.458 911.514C299.64 913.022 297.131 916.71 297.131 920.815V1085.33C297.131 1089.61 299.858 1093.42 303.912 1094.79L390.237 1124.14C394.239 1125.51 396.953 1129.24 397.017 1133.46L407.828 1848.06C407.939 1855.41 415.685 1860.14 422.273 1856.87L632.579 1752.47C635.84 1750.86 637.964 1747.59 638.123 1743.95Z" fill="url(#paint2_linear_1302_35)"/>
<defs>
<linearGradient id="paint0_linear_1302_35" x1="454.053" y1="237.906" x2="454.053" y2="842.773" gradientUnits="userSpaceOnUse">
<stop stop-color="#243474"/>
<stop offset="1" stop-color="#133A56"/>
</linearGradient>
<linearGradient id="paint1_linear_1302_35" x1="512.722" y1="350.304" x2="512.722" y2="663.822" gradientUnits="userSpaceOnUse">
<stop stop-color="#22685D"/>
<stop offset="1" stop-color="#4BD1D3"/>
</linearGradient>
<linearGradient id="paint2_linear_1302_35" x1="555.616" y1="-74.7337" x2="555.616" y2="1854.38" gradientUnits="userSpaceOnUse">
<stop stop-color="#73DBD9"/>
<stop offset="1" stop-color="#1C585B"/>
</linearGradient>
</defs>
</svg>
