<svg width="714" height="1864" viewBox="0 0 714 1864" fill="none" xmlns="http://www.w3.org/2000/svg">
<path d="M171.53 33.4697L366.299 66.9511C370.958 67.7519 374.419 71.7051 374.598 76.4285L428.4 1498.89C428.563 1503.21 425.934 1507.15 421.881 1508.65L88.1299 1632.33C81.5984 1634.75 74.6552 1629.91 74.6552 1622.95V1003.99C74.6552 1000.47 72.8067 997.212 69.7875 995.407L6.36749 957.481C3.3483 955.676 1.49985 952.417 1.49985 948.899V837.72C1.49985 833.754 3.84344 830.163 7.47366 828.567L194.724 746.206C198.212 744.672 200.525 741.288 200.689 737.481L218.985 310.44C219.136 306.915 217.419 303.572 214.467 301.642L164.364 268.884C161.539 267.037 159.836 263.889 159.836 260.514V43.3252C159.836 37.1252 165.42 32.4193 171.53 33.4697Z" fill="#1D4554" stroke="#85BC93" stroke-width="3"/>
<path d="M105.722 1602.19V1512.96L459.472 1715.47L449.295 1815.27L105.722 1602.19Z" fill="#7ECACA"/>
<path d="M208.032 1472.9L532.721 1654.77L455.056 1712.28L105.314 1512.8L208.032 1472.9Z" fill="#074651"/>
<path d="M15.0296 840.042L238.003 752.548L538.14 825.296L323.184 932.943L15.0296 840.042Z" fill="#7ECACA"/>
<path d="M505.761 1123.01L191.371 974.173L205.433 1477.57L505.761 1647.64V1123.01Z" fill="#7ECACA"/>
<path d="M335.964 1347.86L326.678 1070.76L216.575 1021.68L225.861 1294.03L335.964 1347.86Z" fill="#60A19B"/>
<path d="M13.5259 839.059L324.687 932.943V1066.64L13.5259 957.028V839.059Z" fill="#276674"/>
<path d="M184.891 250.194L475.508 261.991V29.0015L184.891 45.2223V250.194Z" fill="#7ECACA"/>
<path d="M381.305 258.551L651.378 262.975L529.62 823.821L237.5 754.102L381.305 258.551Z" fill="url(#paint0_linear_1302_35)"/>
<path d="M163.343 828.405H200.486C200.486 844.24 181.914 842.656 180.588 842.656C172.629 842.656 163.343 841.073 163.343 828.405Z" fill="#4D0606"/>
<ellipse cx="18.5716" cy="9.50054" rx="18.5716" ry="9.50054" transform="matrix(-1 0 0 1 200.486 818.905)" fill="#8C3333"/>
<path d="M189.874 831.57C187.221 832.985 179.262 834.965 168.649 831.57" stroke="#FBC2A3" stroke-width="0.2"/>
<path d="M112.236 833.321H149.379C149.379 849.156 130.807 847.572 129.481 847.572C121.522 847.572 112.236 845.989 112.236 833.321Z" fill="#4D0606"/>
<ellipse cx="18.5716" cy="9.50054" rx="18.5716" ry="9.50054" transform="matrix(-1 0 0 1 149.379 823.82)" fill="#3583AE"/>
<path d="M138.765 836.485C136.112 837.9 128.153 839.88 117.541 836.485" stroke="#FBC2A3" stroke-width="0.2"/>
<path d="M144.304 802.844H181.447C181.447 818.678 162.875 817.095 161.549 817.095C153.589 817.095 144.304 815.512 144.304 802.844Z" fill="#4D0606"/>
<ellipse cx="18.5716" cy="9.50054" rx="18.5716" ry="9.50054" transform="matrix(-1 0 0 1 181.447 793.345)" fill="#FF4B4B"/>
<path d="M170.835 806.013C168.182 807.427 160.223 809.407 149.61 806.013" stroke="#FBC2A3" stroke-width="0.2"/>
<path d="M612.574 718.434L531.685 709.159L530.967 713.56L612.775 723.44L612.574 718.434Z" fill="#93A798"/>
<path d="M612.574 734.269L531.685 724.995L530.967 729.395L612.775 739.275L612.574 734.269Z" fill="#93A798"/>
<path d="M612.574 750.102L531.685 740.828L530.967 745.228L612.775 755.108L612.574 750.102Z" fill="#93A798"/>
<path d="M431.955 87.4951L452.959 95.7872L421.453 119.281L431.955 159.36H392.571L386.007 182.854L319.055 130.337L288.861 174.562L229.786 149.686L216.658 174.562H190.402L229.786 119.281L282.297 142.775L319.055 105.461L386.007 130.337L431.955 87.4951Z" fill="#276674"/>
<ellipse cx="11.9389" cy="14.2508" rx="11.9389" ry="14.2508" transform="matrix(-1 0 0 1 424.842 1385.86)" fill="#60A19B"/>
<ellipse cx="11.9389" cy="14.2508" rx="11.9389" ry="14.2508" transform="matrix(-1 0 0 1 424.842 1446.03)" fill="#60A19B"/>
<path d="M562.094 745.247L662.355 359.75C663.938 353.665 659.578 347.646 653.302 347.253L414.177 332.28C409.585 331.992 405.39 334.874 404.011 339.263L294.905 686.601C293.14 692.221 296.591 698.141 302.351 699.376L550.321 752.508C555.557 753.629 560.747 750.429 562.094 745.247Z" fill="#34032A"/>
<path d="M544.14 697.703L636.671 377.004C638.516 370.61 633.718 364.231 627.063 364.231H437.029C432.767 364.231 428.974 366.932 427.58 370.958L328.524 656.923C326.51 662.737 330.174 668.973 336.233 670.043L532.792 704.778C537.827 705.668 542.722 702.616 544.14 697.703Z" fill="url(#paint1_linear_1302_35)"/>
<path d="M393.205 662.264C368.81 664.764 329.351 657.059 366.676 606.234C361.268 619.183 359.002 648.517 393.205 662.264Z" fill="#FFFBEB"/>
<path d="M639.123 1743.95L712.642 61.5685C712.855 56.6825 709.503 52.359 704.719 51.3479L473.774 2.5498C467.556 1.23606 461.706 5.97901 461.706 12.3338V284.33C461.706 287.892 463.602 291.186 466.682 292.976L540.324 335.767C543.498 337.611 545.406 341.046 545.295 344.714L531.119 815.489C530.999 819.483 528.513 823.022 524.797 824.489L304.458 911.514C300.64 913.022 298.131 916.71 298.131 920.815V1085.33C298.131 1089.61 300.858 1093.42 304.912 1094.79L391.237 1124.14C395.239 1125.51 397.953 1129.24 398.017 1133.46L408.828 1848.06C408.939 1855.41 416.685 1860.14 423.273 1856.87L633.579 1752.47C636.84 1750.86 638.964 1747.59 639.123 1743.95Z" fill="url(#paint2_linear_1302_35)"/>
<defs>
<linearGradient id="paint0_linear_1302_35" x1="455.053" y1="237.906" x2="455.053" y2="842.773" gradientUnits="userSpaceOnUse">
<stop stop-color="#003237"/>
<stop offset="1" stop-color="#133A56"/>
</linearGradient>
<linearGradient id="paint1_linear_1302_35" x1="513.722" y1="350.304" x2="513.722" y2="663.822" gradientUnits="userSpaceOnUse">
<stop stop-color="#22685D"/>
<stop offset="1" stop-color="#4BD1D3"/>
</linearGradient>
<linearGradient id="paint2_linear_1302_35" x1="556.616" y1="-74.7337" x2="556.616" y2="1854.38" gradientUnits="userSpaceOnUse">
<stop stop-color="#3FBFC5"/>
<stop offset="1" stop-color="#135659"/>
</linearGradient>
</defs>
</svg>
