<svg width="668" height="2267" viewBox="0 0 668 2267" fill="none" xmlns="http://www.w3.org/2000/svg">
<path d="M194.099 40.4085L419.27 81.624C423.888 82.4693 427.296 86.4136 427.463 91.1055L489.024 1824.17C489.174 1828.4 486.641 1832.27 482.7 1833.82L98.704 1985.34C92.1417 1987.93 85.0336 1983.09 85.0336 1976.04V1219.29C85.0336 1215.87 83.2879 1212.69 80.4047 1210.86L6.12912 1163.56C3.24597 1161.73 1.50018 1158.54 1.50018 1155.13V1016.97C1.50018 1013.09 3.7449 1009.56 7.25891 1007.91L223.136 906.806C226.519 905.221 228.737 901.884 228.887 898.152L249.897 376.013C250.034 372.601 248.421 369.355 245.618 367.404L186.585 326.306C183.9 324.437 182.299 321.371 182.299 318.099V50.2451C182.299 44.0012 187.957 39.2843 194.099 40.4085Z" fill="#862E2E" stroke="#B83F4D" stroke-width="3"/>
<path d="M120.506 1948.03V1839.53L524.441 2085.76L512.821 2207.1L120.506 1948.03Z" fill="#F9988B"/>
<path d="M237.791 1791L608.542 2012.13L519.859 2082.05L120.5 1839.51L237.791 1791Z" fill="#731315"/>
<path d="M16.9458 1021.36L273.547 936.78L614.267 1003.43L368.816 1134.32L16.9458 1021.36Z" fill="#F9988B"/>
<path d="M577.297 1365.42L218.307 1184.45L234.363 1796.5L577.297 2003.28V1365.42Z" fill="#F9988B"/>
<path d="M383.411 1638.8L372.808 1301.89L247.085 1242.2L257.688 1573.34L383.411 1638.8Z" fill="#B83F4D"/>
<path d="M15.231 1020.17L370.534 1134.32V1296.88L15.231 1163.6V1020.17Z" fill="#BF3C3D"/>
<path d="M210.905 304.198L542.75 318.541V35.2603L210.905 54.9823V304.198Z" fill="#F9988B"/>
<path d="M435.186 314.358L743.573 319.737L604.542 1001.64L270.471 938.627L435.186 314.358Z" fill="url(#paint0_linear_1301_2)"/>
<path d="M205.116 1011.41H247.528C247.528 1030.66 226.322 1028.74 224.807 1028.74C215.719 1028.74 205.116 1026.81 205.116 1011.41Z" fill="#4D0606"/>
<ellipse cx="21.2062" cy="11.5512" rx="21.2062" ry="11.5512" transform="matrix(-1 0 0 1 247.528 999.862)" fill="#8C3333"/>
<path d="M235.41 1015.26C232.38 1016.98 223.292 1019.39 211.174 1015.26" stroke="#FBC2A3" stroke-width="0.2"/>
<path d="M146.758 1017.39H189.17C189.17 1036.64 167.964 1034.72 166.449 1034.72C157.361 1034.72 146.758 1032.79 146.758 1017.39Z" fill="#4D0606"/>
<ellipse cx="21.2062" cy="11.5512" rx="21.2062" ry="11.5512" transform="matrix(-1 0 0 1 189.17 1005.84)" fill="#3583AE"/>
<path d="M177.05 1021.24C174.021 1022.96 164.932 1025.37 152.815 1021.24" stroke="#FBC2A3" stroke-width="0.2"/>
<path d="M183.374 980.336H225.787C225.787 999.588 204.58 997.663 203.066 997.663C193.977 997.663 183.374 995.738 183.374 980.336Z" fill="#4D0606"/>
<ellipse cx="21.2062" cy="11.5512" rx="21.2062" ry="11.5512" transform="matrix(-1 0 0 1 225.787 968.785)" fill="#FF4B4B"/>
<path d="M213.67 984.189C210.641 985.909 201.553 988.316 189.435 984.189" stroke="#FBC2A3" stroke-width="0.2"/>
<path d="M699.26 873.507L606.896 862.231L606.077 867.582L699.49 879.594L699.26 873.507Z" fill="#93A2A7"/>
<path d="M699.26 892.759L606.896 881.483L606.077 886.834L699.49 898.846L699.26 892.759Z" fill="#93A2A7"/>
<path d="M699.26 912.011L606.896 900.735L606.077 906.086L699.49 918.098L699.26 912.011Z" fill="#93A2A7"/>
<path d="M493.019 106.379L517.003 116.461L481.026 145.027L493.019 193.756H448.048L440.553 222.321L364.102 158.469L329.625 212.239L262.169 181.994L247.178 212.239H217.198L262.169 145.027L322.13 173.592L364.102 128.224L440.553 158.469L493.019 106.379Z" fill="#BF3C3D"/>
<ellipse cx="13.6326" cy="17.3269" rx="13.6326" ry="17.3269" transform="matrix(-1 0 0 1 484.9 1685)" fill="#B83F4D"/>
<ellipse cx="13.6326" cy="17.3269" rx="13.6326" ry="17.3269" transform="matrix(-1 0 0 1 484.9 1758.16)" fill="#B83F4D"/>
<path d="M641.235 907.693L756.77 434.687C758.244 428.653 753.918 422.749 747.721 422.336L472.013 403.954C467.239 403.635 462.908 406.744 461.682 411.368L348.798 837.027C347.36 842.452 350.667 847.999 356.124 849.313L629.18 915.042C634.537 916.332 639.928 913.045 641.235 907.693Z" fill="#34032A"/>
<path d="M620.716 849.79L727.567 455.466C729.29 449.108 724.502 442.85 717.915 442.85H498.365C493.836 442.85 489.872 445.895 488.704 450.272L394.472 803.38C392.983 808.959 396.517 814.637 402.181 815.765L609.111 856.982C614.269 858.009 619.341 854.866 620.716 849.79Z" fill="url(#paint1_linear_1301_2)"/>
<path d="M469.967 803.678C443.291 812.259 397.271 812.143 426.591 743.039C423.709 759.703 428.348 795.16 469.967 803.678Z" fill="#FFFBEB"/>
<path d="M863.354 2089.96L913.466 122.752C913.581 118.235 910.652 114.202 906.322 112.913L539.843 3.82583C533.432 1.91732 526.99 6.72057 526.99 13.4102V347.128C526.99 350.592 528.783 353.809 531.729 355.632L617.745 408.852C620.777 410.727 622.581 414.075 622.48 417.638L606.207 993.077C606.096 996.998 603.703 1000.49 600.087 1002.01L346.333 1108.73C342.623 1110.29 340.21 1113.92 340.21 1117.95V1321.29C340.21 1325.5 342.847 1329.26 346.805 1330.69L447.648 1367.2C451.557 1368.61 454.183 1372.3 454.242 1376.46L466.672 2251.31C466.774 2258.43 474.069 2263.17 480.611 2260.36L857.297 2098.9C860.888 2097.36 863.254 2093.87 863.354 2089.96Z" fill="url(#paint2_linear_1301_2)"/>
<defs>
<linearGradient id="paint0_linear_1301_2" x1="519.396" y1="289.258" x2="519.396" y2="1024.69" gradientUnits="userSpaceOnUse">
<stop stop-color="#480C0D"/>
<stop offset="1" stop-color="#561336"/>
</linearGradient>
<linearGradient id="paint1_linear_1301_2" x1="586.386" y1="425.917" x2="586.386" y2="807.107" gradientUnits="userSpaceOnUse">
<stop stop-color="#7E1156"/>
<stop offset="1" stop-color="#F88FFC"/>
</linearGradient>
<linearGradient id="paint2_linear_1301_2" x1="635.364" y1="-90.865" x2="635.364" y2="2254.65" gradientUnits="userSpaceOnUse">
<stop stop-color="#DA4B41"/>
<stop offset="1" stop-color="#AF3547"/>
</linearGradient>
</defs>
</svg>
