<svg width="1059" height="501" viewBox="0 0 1059 501" fill="none" xmlns="http://www.w3.org/2000/svg">
<path d="M697.833 194H236.833L207.333 179.5C204.533 298.3 129.5 331.333 92.333 333C62.6663 330.5 2.83287 313.6 0.832875 266C-1.16713 218.4 6.33288 192.167 10.3329 185C30.7329 172.6 41.4996 183.5 44.333 190.5C34.9997 219.333 26.933 278.7 69.333 285.5C111.733 292.3 138 254.667 145.833 235C154.833 233 166.833 145.5 167.833 124.5C168.828 103.606 193.087 70.3369 210.568 46.3631L210.833 46C224.833 26.8 289.333 2 319.833 -8H473.833C504.333 8 614.333 1.5 697.833 8C782.295 14.5749 829.333 67.5 826.833 59.5C824.833 53.1 850 40.1667 862.833 34.5C875.633 -5.9 903.166 -23.3333 915.333 -27L932.833 43.5C964.033 55.9 981.166 88.0001 985.833 102.5C1027.83 100.5 1051.33 109.667 1057.83 114.5C1045.03 152.9 993.5 168.5 969.333 171.5C970.133 178.7 954 189.5 945.833 194C914.166 192.167 850.833 194 840.833 190.5C833.133 187.805 825.5 189.834 822.833 188.5L802.333 194C793.166 198.334 778.533 213.8 793.333 241C808.133 268.2 819.166 312 822.833 330.5C827.833 359.5 829.833 412.5 837.833 430.5C839.033 446.5 847 471.5 850.833 482C848.666 489.334 840.033 503.1 822.833 499.5C801.333 495 789.833 465.5 793.333 441.5C796.133 422.3 779.166 380.834 770.333 362.5L740.833 313C716.833 273.5 686.833 234.5 697.833 194Z" fill="#1A1818" stroke="#1A1818"/>
<path d="M883.715 86.7583C882.551 92.8019 883.781 106.418 898.014 112.535" stroke="#F5E4CF" stroke-width="5" stroke-linecap="round"/>
<path d="M931.5 141.211C933.585 147.294 941.776 158.997 957.856 157.146" stroke="#F5E4CF" stroke-width="5" stroke-linecap="round"/>
<path d="M901.161 143.176C899.938 143.329 898.869 142.351 898.913 141.119L899.348 129.095C899.41 127.391 901.439 126.541 902.697 127.692L914.2 138.22C915.458 139.371 914.791 141.467 913.099 141.679L901.161 143.176Z" fill="#A56162"/>
<path d="M809.943 48L824.87 59.4741C824.87 59.4741 814 94 818.61 118.409C823.22 142.819 834.5 169 834.5 169C800.603 157.317 789.078 79.8147 809.943 48Z" fill="#E64A4B"/>
</svg>
