<svg width="2081" height="529" viewBox="0 0 2081 529" fill="none" xmlns="http://www.w3.org/2000/svg">
<path d="M697.833 221.631H236.833L207.333 207.13C204.533 325.93 129.5 358.964 92.333 360.63C62.6663 358.13 2.83287 341.23 0.832875 293.63C-1.16713 246.03 6.33288 219.797 10.3329 212.63C30.7329 200.23 41.4996 211.13 44.333 218.13C34.9997 246.964 26.933 306.33 69.333 313.13C111.733 319.93 138 282.297 145.833 262.63C154.833 260.63 166.833 173.13 167.833 152.13C168.828 131.236 193.087 97.9673 210.568 73.9935L210.833 73.6304C224.833 54.4304 289.333 29.6304 319.833 19.6304H473.833C504.333 35.6304 614.333 29.1304 697.833 35.6304C782.295 42.2052 829.333 95.1304 826.833 87.1304C824.833 80.7304 850 67.797 862.833 62.1304C875.633 21.7304 903.166 4.29704 915.333 0.630371L932.833 71.1304C964.033 83.5304 981.166 115.631 985.833 130.131C1027.83 128.131 1051.33 137.297 1057.83 142.131C1045.03 180.531 993.5 196.131 969.333 199.131C970.133 206.331 954 217.131 945.833 221.631C914.166 219.797 850.833 221.631 840.833 218.131C833.133 215.435 825.5 217.464 822.833 216.131L802.333 221.631C793.166 225.964 778.533 241.431 793.333 268.631C808.133 295.831 819.166 339.631 822.833 358.131C827.833 387.131 829.833 440.131 837.833 458.131C839.033 474.131 847 499.131 850.833 509.631C848.666 516.964 840.033 530.731 822.833 527.131C801.333 522.631 789.833 493.131 793.333 469.131C796.133 449.931 779.166 408.464 770.333 390.131L740.833 340.631C716.833 301.131 686.833 262.131 697.833 221.631Z" fill="#1A1818" stroke="#1A1818"/>
<path d="M883.715 114.389C882.551 120.432 883.781 134.049 898.014 140.166" stroke="#F5E4CF" stroke-width="5" stroke-linecap="round"/>
<path d="M931.5 168.841C933.585 174.924 941.776 186.628 957.856 184.776" stroke="#F5E4CF" stroke-width="5" stroke-linecap="round"/>
<path d="M901.161 170.806C899.938 170.96 898.869 169.981 898.913 168.75L899.348 156.726C899.41 155.022 901.439 154.171 902.697 155.323L914.2 165.85C915.458 167.001 914.791 169.098 913.099 169.31L901.161 170.806Z" fill="#CC6263"/>
<path d="M809.943 75.6304L824.87 87.1045C824.87 87.1045 814 121.63 818.61 146.04C823.22 170.449 834.5 196.63 834.5 196.63C800.603 184.948 789.078 107.445 809.943 75.6304Z" fill="#E64A4B"/>
<path d="M2078.17 184.13L2076.83 181.63L2061.5 182.13L2064.54 184.877L2073.06 184.324L2068.17 188.13L2071.5 190.63L2078.17 184.13Z" fill="#FFBC35"/>
</svg>
