<svg width="149" height="291" viewBox="0 0 149 291" fill="none" xmlns="http://www.w3.org/2000/svg">
<path d="M53.3755 187.97V199.797H95.0296V187.97L89.8871 182.827H58.0037L53.3755 187.97Z" fill="#2B8F94"/>
<path d="M53.3755 187.97V199.797H57.3497V188.148L61.8773 182.827L58.0037 182.827L53.3755 187.97Z" fill="#3FBFC5"/>
<path d="M0.396643 215.916C2.45364 192.055 21.138 172.034 30.2231 165.006L42.5651 188.147C38.4511 189.69 28.5775 196.375 21.9952 210.774C13.7673 228.773 18.3954 252.428 28.1661 267.856C35.9827 280.198 46.1648 288.083 50.2788 290.482C44.7935 290.482 31.2515 287.603 20.9666 276.084C8.11037 261.685 -2.1746 245.743 0.396643 215.916Z" fill="#3FBFC5"/>
<path d="M0.396643 215.916C2.45364 192.055 21.138 172.034 30.2231 165.006L33.2025 176.828C27.9203 179.595 16.0423 189.667 10.816 205.251C4.52343 224.014 7.46556 247.041 16.6013 262.853C23.1411 274.172 30.9387 282.472 50.2788 290.482C44.7935 290.482 31.2515 287.603 20.9666 276.084C8.11037 261.685 -2.1746 245.743 0.396643 215.916Z" fill="#74DBE0"/>
<path d="M148.511 216.431C146.454 192.569 127.77 172.548 118.685 165.52L106.343 188.661C110.457 190.204 120.33 196.889 126.913 211.288C135.14 229.287 130.512 252.942 120.742 268.37C112.925 280.712 102.743 288.597 98.6289 290.997C104.114 290.997 117.656 288.117 127.941 276.598C140.797 262.199 151.082 246.257 148.511 216.431Z" fill="#3FBFC5"/>
<path d="M148.483 216.42C146.426 192.559 127.741 172.537 118.656 165.509L115.677 177.331C120.959 180.098 132.837 190.171 138.063 205.755C144.356 224.518 141.414 247.544 132.278 263.356C125.738 274.675 117.941 282.976 98.6006 290.986C104.086 290.986 117.628 288.106 127.913 276.587C140.769 262.188 151.054 246.246 148.483 216.42Z" fill="#2B8F94"/>
<path d="M42.0626 122.658C47.4108 127.183 55.4331 132.429 59.0328 133.972L61.6041 127.286C58.5186 125.744 52.3476 122.144 48.7479 119.058C45.1481 115.973 41.7198 112.202 38.9771 109.288L32.8062 113.916C33.6632 114.944 36.7144 118.133 42.0626 122.658Z" fill="#333638"/>
<path fill-rule="evenodd" clip-rule="evenodd" d="M29.7215 89.2334C37.1058 89.2334 43.092 95.2196 43.092 102.604C43.092 109.988 37.1058 115.974 29.7215 115.974C22.3372 115.974 16.3511 109.988 16.3511 102.604C16.3511 95.2196 22.3372 89.2334 29.7215 89.2334ZM29.7215 94.3759C25.1773 94.3759 21.4936 98.0597 21.4936 102.604C21.4936 107.148 25.1773 110.832 29.7215 110.832C34.2657 110.832 37.9495 107.148 37.9495 102.604C37.9495 98.0597 34.2657 94.3759 29.7215 94.3759Z" fill="#40464A"/>
<path fill-rule="evenodd" clip-rule="evenodd" d="M22.4261 73.9517C29.8104 73.9517 35.7966 79.9378 35.7966 87.3221C35.7966 94.7064 29.8104 100.693 22.4261 100.693C15.0418 100.693 9.05566 94.7064 9.05566 87.3221C9.05566 79.9378 15.0418 73.9517 22.4261 73.9517ZM22.4261 79.0941C17.8819 79.0941 14.1981 82.7779 14.1981 87.3221C14.1981 91.8663 17.8819 95.5501 22.4261 95.5501C26.9703 95.5501 30.6541 91.8663 30.6541 87.3221C30.6541 82.7779 26.9703 79.0941 22.4261 79.0941Z" fill="#333638"/>
<path fill-rule="evenodd" clip-rule="evenodd" d="M20.9173 57.3491C28.3016 57.3491 34.2878 63.3353 34.2878 70.7196C34.2878 78.1039 28.3016 84.09 20.9173 84.09C13.533 84.09 7.54688 78.1039 7.54688 70.7196C7.54688 63.3353 13.533 57.3491 20.9173 57.3491ZM20.9173 62.4916C16.3731 62.4916 12.6894 66.1754 12.6894 70.7196C12.6894 75.2638 16.3731 78.9476 20.9173 78.9476C25.4615 78.9476 29.1453 75.2638 29.1453 70.7196C29.1453 66.1754 25.4615 62.4916 20.9173 62.4916Z" fill="#40464A"/>
<path fill-rule="evenodd" clip-rule="evenodd" d="M20.9173 39.7422C28.3016 39.7422 34.2878 45.7283 34.2878 53.1126C34.2878 60.4969 28.3016 66.4831 20.9173 66.4831C13.533 66.4831 7.54688 60.4969 7.54688 53.1126C7.54688 45.7283 13.533 39.7422 20.9173 39.7422ZM20.9173 44.8847C16.3731 44.8847 12.6894 48.5685 12.6894 53.1126C12.6894 57.6568 16.3731 61.3406 20.9173 61.3406C25.4615 61.3406 29.1453 57.6568 29.1453 53.1126C29.1453 48.5685 25.4615 44.8847 20.9173 44.8847Z" fill="#333638"/>
<path fill-rule="evenodd" clip-rule="evenodd" d="M27.4559 24.146C34.8402 24.146 40.8264 30.1322 40.8264 37.5165C40.8264 44.9008 34.8402 50.8869 27.4559 50.8869C20.0716 50.8869 14.0854 44.9008 14.0854 37.5165C14.0854 30.1322 20.0716 24.146 27.4559 24.146ZM27.4559 29.2885C22.9117 29.2885 19.2279 32.9723 19.2279 37.5165C19.2279 42.0606 22.9117 45.7444 27.4559 45.7444C32.0001 45.7444 35.6839 42.0606 35.6839 37.5165C35.6839 32.9723 32.0001 29.2885 27.4559 29.2885Z" fill="#40464A"/>
<path fill-rule="evenodd" clip-rule="evenodd" d="M37.5184 11.0684C44.9027 11.0684 50.8889 17.0545 50.8889 24.4388C50.8889 31.8231 44.9027 37.8093 37.5184 37.8093C30.1341 37.8093 24.1479 31.8231 24.1479 24.4388C24.1479 17.0545 30.1341 11.0684 37.5184 11.0684ZM37.5184 16.2108C32.9742 16.2108 29.2904 19.8946 29.2904 24.4388C29.2904 28.983 32.9742 32.6668 37.5184 32.6668C42.0626 32.6668 45.7464 28.983 45.7464 24.4388C45.7464 19.8946 42.0626 16.2108 37.5184 16.2108Z" fill="#333638"/>
<path fill-rule="evenodd" clip-rule="evenodd" d="M50.597 0C57.9813 0 63.9675 5.98616 63.9675 13.3705C63.9675 20.7548 57.9813 26.7409 50.597 26.7409C43.2127 26.7409 37.2266 20.7548 37.2266 13.3705C37.2266 5.98616 43.2127 0 50.597 0ZM50.597 5.14248C46.0528 5.14248 42.369 8.82627 42.369 13.3705C42.369 17.9146 46.0528 21.5984 50.597 21.5984C55.1412 21.5984 58.825 17.9146 58.825 13.3705C58.825 8.82627 55.1412 5.14248 50.597 5.14248Z" fill="#40464A"/>
<rect x="64.689" y="151.971" width="17.4844" height="30.8549" fill="#333638"/>
<path d="M89.3736 102.603H57.4902V142.714C57.4902 144.086 57.6959 147.24 58.5187 148.885C59.3415 150.531 62.2899 151.628 63.6612 151.971H83.2027C84.9168 151.799 88.448 150.942 88.8594 148.885C89.2708 146.828 89.3736 143.914 89.3736 142.714V102.603Z" fill="#2B8F94"/>
<rect x="57.3496" y="103.631" width="11.0675" height="44.7731" fill="#3FBFC5"/>
<rect x="59.3613" y="103.631" width="3.01841" height="44.7731" fill="#74DBE0"/>
<rect x="85.521" y="103.631" width="4.02455" height="44.7731" fill="#3FBFC5"/>
<rect x="62.6323" y="60.436" width="21.5984" height="23.6554" fill="#2B8F94"/>
<rect x="67.9551" y="9.86523" width="10.9603" height="41.6493" fill="#2B8F94"/>
<rect x="67.9551" y="9.86523" width="3.83612" height="41.6493" fill="#3FBFC5"/>
<rect x="62.3804" y="60.3677" width="7.54602" height="23.6442" fill="#3FBFC5"/>
<rect x="63.8896" y="60.3677" width="2.51534" height="23.6442" fill="#74DBE0"/>
<rect x="82" y="60.3677" width="2.51534" height="24.1473" fill="#3FBFC5"/>
<rect x="54.4038" y="51.1787" width="39.0829" height="9.25647" fill="#E64A4B"/>
<rect x="58.8584" y="51.314" width="8.55216" height="9.05523" fill="#FF7D7E"/>
<path d="M92.9727 84.0903H54.404C52.347 85.3245 50.4615 87.1758 50.29 88.2043V97.975C50.29 101.266 53.3755 103.289 54.404 103.632C66.2317 103.632 90.5043 103.529 92.9727 103.118C95.4411 102.706 96.401 99.8606 96.5724 98.4893V88.7186C96.5724 86.2502 94.1726 84.6046 92.9727 84.0903Z" fill="#E64A4B"/>
<rect x="57.3496" y="84.0137" width="10.0614" height="19.6197" fill="#FF7D7E"/>
<rect x="50.29" y="91.291" width="46.2824" height="7.19948" fill="#333638"/>
<mask id="mask0_586_38" style="mask-type:alpha" maskUnits="userSpaceOnUse" x="29" y="136" width="91" height="64">
<path fill-rule="evenodd" clip-rule="evenodd" d="M109.943 136.545C114.572 141.859 122.697 156.292 118.171 171.514C113.646 186.735 100.516 196.712 94.5159 199.797H53.376C47.205 196.026 34.1431 185.398 31.2633 173.057C27.6636 157.629 31.2633 145.287 40.0055 136.545H109.943ZM48.2335 148.887C45.148 152.487 42.0625 157.629 43.6053 169.971C44.8395 179.845 53.7188 188.484 58.0042 191.569H90.9161C95.0301 188.998 103.669 181.079 105.315 169.971C106.961 158.863 102.915 151.287 100.687 148.887H48.2335Z" fill="#E64A4B"/>
</mask>
<g mask="url(#mask0_586_38)">
<path fill-rule="evenodd" clip-rule="evenodd" d="M109.943 136.545C114.572 141.859 122.697 156.292 118.171 171.514C113.646 186.735 100.516 196.712 94.5159 199.797H53.376C47.205 196.026 34.1431 185.398 31.2633 173.057C27.6636 157.629 31.2633 145.287 40.0055 136.545H109.943ZM48.2335 148.887C45.148 152.487 42.0625 157.629 43.6053 169.971C44.8395 179.845 53.7188 188.484 58.0042 191.569H90.9161C95.0301 188.998 103.669 181.079 105.315 169.971C106.961 158.863 102.915 151.287 100.687 148.887H48.2335Z" fill="#E64A4B"/>
<rect x="38.0312" y="122.749" width="105.644" height="29.178" transform="rotate(33.0104 38.0312 122.749)" fill="#FF7D7E"/>
<rect x="85.5981" y="116.208" width="55.3233" height="11.2204" transform="rotate(33.0104 85.5981 116.208)" fill="#FF7D7E"/>
</g>
</svg>
