<svg width="594" height="251" viewBox="0 0 594 251" fill="none" xmlns="http://www.w3.org/2000/svg">
<path d="M46.204 250.474H545.976L578.617 222.331H14.6338L46.204 250.474Z" fill="#094965"/>
<rect y="102.441" width="593.251" height="14.0714" fill="#146374"/>
<rect x="14.6338" y="116.512" width="563.983" height="105.817" fill="#146374"/>
<rect width="563.983" height="9.00572" transform="matrix(1 0 0 -1 14.6338 125.519)" fill="#094965"/>
<path d="M33.7714 0H558.917L593.251 102.44H0L33.7714 0Z" fill="#2B8194"/>
<path d="M396.531 14.0723H487.151L498.127 70.9208H393.998L396.531 14.0723Z" fill="#146374"/>
<path d="M399.909 16.3232H484.338L493.062 65.8547H397.939L399.909 16.3232Z" fill="#333638"/>
<path d="M404.412 19.9829H480.117L486.589 57.6943H403.271L404.412 19.9829Z" fill="#40464A"/>
<ellipse cx="443.812" cy="34.3346" rx="12.6643" ry="5.62857" fill="#333638"/>
</svg>
