<svg width="3392" height="1080" viewBox="0 0 3392 1080" fill="none" xmlns="http://www.w3.org/2000/svg">
<rect x="246" y="-39" width="3077" height="1158" fill="#2F3438"/>
<g filter="url(#filter0_d_623_35)">
<rect x="189" y="-178.691" width="60" height="1517.69" fill="#40464A"/>
<rect x="189" y="-178.691" width="60" height="1517.69" fill="url(#paint0_linear_623_35)" fill-opacity="0.2"/>
<path d="M198 1266.99C198 1262.4 202.029 1258.68 207 1258.68H231C235.971 1258.68 240 1262.4 240 1266.99V1289.15C240 1293.74 235.971 1297.46 231 1297.46H207C202.029 1297.46 198 1293.74 198 1289.15V1266.99Z" fill="#282F33"/>
<path d="M198 1186.68C198 1182.09 202.029 1178.37 207 1178.37H231C235.971 1178.37 240 1182.09 240 1186.68V1208.83C240 1213.42 235.971 1217.14 231 1217.14H207C202.029 1217.14 198 1213.42 198 1208.83V1186.68Z" fill="#282F33"/>
<path d="M198 1106.36C198 1101.77 202.029 1098.05 207 1098.05H231C235.971 1098.05 240 1101.77 240 1106.36V1128.52C240 1133.11 235.971 1136.83 231 1136.83H207C202.029 1136.83 198 1133.11 198 1128.52V1106.36Z" fill="#282F33"/>
<path d="M198 1026.05C198 1021.46 202.029 1017.74 207 1017.74H231C235.971 1017.74 240 1021.46 240 1026.05V1048.2C240 1052.79 235.971 1056.51 231 1056.51H207C202.029 1056.51 198 1052.79 198 1048.2V1026.05Z" fill="#282F33"/>
<path d="M198 945.73C198 941.141 202.029 937.421 207 937.421H231C235.971 937.421 240 941.141 240 945.73V967.886C240 972.474 235.971 976.194 231 976.194H207C202.029 976.194 198 972.474 198 967.886V945.73Z" fill="#282F33"/>
<path d="M198 865.414C198 860.825 202.029 857.105 207 857.105H231C235.971 857.105 240 860.825 240 865.414V887.57C240 892.159 235.971 895.878 231 895.878H207C202.029 895.878 198 892.159 198 887.57V865.414Z" fill="#282F33"/>
<path d="M198 785.098C198 780.509 202.029 776.789 207 776.789H231C235.971 776.789 240 780.509 240 785.098V807.254C240 811.843 235.971 815.563 231 815.563H207C202.029 815.563 198 811.843 198 807.254V785.098Z" fill="#282F33"/>
<path d="M198 704.782C198 700.194 202.029 696.474 207 696.474H231C235.971 696.474 240 700.194 240 704.782V726.938C240 731.527 235.971 735.247 231 735.247H207C202.029 735.247 198 731.527 198 726.938V704.782Z" fill="#282F33"/>
<path d="M198 624.466C198 619.878 202.029 616.158 207 616.158H231C235.971 616.158 240 619.878 240 624.466V646.622C240 651.211 235.971 654.931 231 654.931H207C202.029 654.931 198 651.211 198 646.622V624.466Z" fill="#282F33"/>
<path d="M198 544.151C198 539.562 202.029 535.842 207 535.842H231C235.971 535.842 240 539.562 240 544.151V566.307C240 570.895 235.971 574.615 231 574.615H207C202.029 574.615 198 570.895 198 566.307V544.151Z" fill="#282F33"/>
<path d="M198 463.835C198 459.246 202.029 455.526 207 455.526H231C235.971 455.526 240 459.246 240 463.835V485.991C240 490.58 235.971 494.299 231 494.299H207C202.029 494.299 198 490.58 198 485.991V463.835Z" fill="#282F33"/>
<path d="M198 383.519C198 378.93 202.029 375.211 207 375.211H231C235.971 375.211 240 378.93 240 383.519V405.675C240 410.264 235.971 413.984 231 413.984H207C202.029 413.984 198 410.264 198 405.675V383.519Z" fill="#282F33"/>
<path d="M198 303.203C198 298.615 202.029 294.895 207 294.895H231C235.971 294.895 240 298.615 240 303.203V325.359C240 329.948 235.971 333.668 231 333.668H207C202.029 333.668 198 329.948 198 325.359V303.203Z" fill="#282F33"/>
<path d="M198 222.887C198 218.299 202.029 214.579 207 214.579H231C235.971 214.579 240 218.299 240 222.887V245.044C240 249.632 235.971 253.352 231 253.352H207C202.029 253.352 198 249.632 198 245.044V222.887Z" fill="#282F33"/>
<path d="M198 142.572C198 137.983 202.029 134.263 207 134.263H231C235.971 134.263 240 137.983 240 142.572V164.728C240 169.316 235.971 173.036 231 173.036H207C202.029 173.036 198 169.316 198 164.728V142.572Z" fill="#282F33"/>
<path d="M198 62.2559C198 57.6672 202.029 53.9474 207 53.9474H231C235.971 53.9474 240 57.6672 240 62.2559V84.412C240 89.0007 235.971 92.7205 231 92.7205H207C202.029 92.7205 198 89.0007 198 84.412V62.2559Z" fill="#282F33"/>
<path d="M198 -18.0599C198 -22.6486 202.029 -26.3684 207 -26.3684H231C235.971 -26.3684 240 -22.6486 240 -18.0599V4.09619C240 8.68486 235.971 12.4047 231 12.4047H207C202.029 12.4047 198 8.68486 198 4.09619V-18.0599Z" fill="#282F33"/>
<path d="M198 -98.3757C198 -102.964 202.029 -106.684 207 -106.684H231C235.971 -106.684 240 -102.964 240 -98.3757V-76.2196C240 -71.6309 235.971 -67.9111 231 -67.9111H207C202.029 -67.9111 198 -71.6309 198 -76.2196V-98.3757Z" fill="#282F33"/>
<path d="M198 -178.691C198 -183.28 202.029 -187 207 -187H231C235.971 -187 240 -183.28 240 -178.691V-156.535C240 -151.947 235.971 -148.227 231 -148.227H207C202.029 -148.227 198 -151.947 198 -156.535V-178.691Z" fill="#282F33"/>
</g>
<g filter="url(#filter1_f_623_35)">
<path d="M241 967.49L3314 872V1049.77H241V967.49Z" fill="#212529"/>
</g>
<rect x="1" y="845" width="3097" height="138" fill="#40464A"/>
<path d="M261.5 750H3321L3097.5 849.5H5.5L261.5 750Z" fill="#51595D"/>
<path d="M3098 848.5L3319 750.5V868.5L3098 983.5V848.5Z" fill="#32383C"/>
<g filter="url(#filter2_f_623_35)">
<path d="M246 326.49L3319 231V408.768H246V326.49Z" fill="#212529"/>
</g>
<rect x="6" y="204" width="3097" height="138" fill="#40464A"/>
<path d="M266.5 109H3326L3102.5 208.5H10.5L266.5 109Z" fill="#51595D"/>
<path d="M3103 207.5L3324 109.5V227.5L3103 342.5V207.5Z" fill="#32383C"/>
<g filter="url(#filter3_d_623_35)">
<rect x="1" y="-139.691" width="60" height="1517.69" fill="#40464A"/>
<rect x="1" y="-139.691" width="60" height="1517.69" fill="url(#paint1_linear_623_35)" fill-opacity="0.2"/>
<path d="M10 1305.99C10 1301.4 14.0294 1297.68 19 1297.68H43C47.9706 1297.68 52 1301.4 52 1305.99V1328.15C52 1332.74 47.9706 1336.46 43 1336.46H19C14.0294 1336.46 10 1332.74 10 1328.15V1305.99Z" fill="#282F33"/>
<path d="M10 1225.68C10 1221.09 14.0294 1217.37 19 1217.37H43C47.9706 1217.37 52 1221.09 52 1225.68V1247.83C52 1252.42 47.9706 1256.14 43 1256.14H19C14.0294 1256.14 10 1252.42 10 1247.83V1225.68Z" fill="#282F33"/>
<path d="M10 1145.36C10 1140.77 14.0294 1137.05 19 1137.05H43C47.9706 1137.05 52 1140.77 52 1145.36V1167.52C52 1172.11 47.9706 1175.83 43 1175.83H19C14.0294 1175.83 10 1172.11 10 1167.52V1145.36Z" fill="#282F33"/>
<path d="M10 1065.05C10 1060.46 14.0294 1056.74 19 1056.74H43C47.9706 1056.74 52 1060.46 52 1065.05V1087.2C52 1091.79 47.9706 1095.51 43 1095.51H19C14.0294 1095.51 10 1091.79 10 1087.2V1065.05Z" fill="#282F33"/>
<path d="M10 984.73C10 980.141 14.0294 976.421 19 976.421H43C47.9706 976.421 52 980.141 52 984.73V1006.89C52 1011.47 47.9706 1015.19 43 1015.19H19C14.0294 1015.19 10 1011.47 10 1006.89V984.73Z" fill="#282F33"/>
<path d="M10 904.414C10 899.825 14.0294 896.105 19 896.105H43C47.9706 896.105 52 899.825 52 904.414V926.57C52 931.159 47.9706 934.878 43 934.878H19C14.0294 934.878 10 931.159 10 926.57V904.414Z" fill="#282F33"/>
<path d="M10 824.098C10 819.509 14.0294 815.789 19 815.789H43C47.9706 815.789 52 819.509 52 824.098V846.254C52 850.843 47.9706 854.563 43 854.563H19C14.0294 854.563 10 850.843 10 846.254V824.098Z" fill="#282F33"/>
<path d="M10 743.782C10 739.194 14.0294 735.474 19 735.474H43C47.9706 735.474 52 739.194 52 743.782V765.938C52 770.527 47.9706 774.247 43 774.247H19C14.0294 774.247 10 770.527 10 765.938V743.782Z" fill="#282F33"/>
<path d="M10 663.466C10 658.878 14.0294 655.158 19 655.158H43C47.9706 655.158 52 658.878 52 663.466V685.622C52 690.211 47.9706 693.931 43 693.931H19C14.0294 693.931 10 690.211 10 685.622V663.466Z" fill="#282F33"/>
<path d="M10 583.151C10 578.562 14.0294 574.842 19 574.842H43C47.9706 574.842 52 578.562 52 583.151V605.307C52 609.895 47.9706 613.615 43 613.615H19C14.0294 613.615 10 609.895 10 605.307V583.151Z" fill="#282F33"/>
<path d="M10 502.835C10 498.246 14.0294 494.526 19 494.526H43C47.9706 494.526 52 498.246 52 502.835V524.991C52 529.58 47.9706 533.299 43 533.299H19C14.0294 533.299 10 529.58 10 524.991V502.835Z" fill="#282F33"/>
<path d="M10 422.519C10 417.93 14.0294 414.211 19 414.211H43C47.9706 414.211 52 417.93 52 422.519V444.675C52 449.264 47.9706 452.984 43 452.984H19C14.0294 452.984 10 449.264 10 444.675V422.519Z" fill="#282F33"/>
<path d="M10 342.203C10 337.615 14.0294 333.895 19 333.895H43C47.9706 333.895 52 337.615 52 342.203V364.359C52 368.948 47.9706 372.668 43 372.668H19C14.0294 372.668 10 368.948 10 364.359V342.203Z" fill="#282F33"/>
<path d="M10 261.887C10 257.299 14.0294 253.579 19 253.579H43C47.9706 253.579 52 257.299 52 261.887V284.044C52 288.632 47.9706 292.352 43 292.352H19C14.0294 292.352 10 288.632 10 284.044V261.887Z" fill="#282F33"/>
<path d="M10 181.572C10 176.983 14.0294 173.263 19 173.263H43C47.9706 173.263 52 176.983 52 181.572V203.728C52 208.316 47.9706 212.036 43 212.036H19C14.0294 212.036 10 208.316 10 203.728V181.572Z" fill="#282F33"/>
<path d="M10 101.256C10 96.6672 14.0294 92.9474 19 92.9474H43C47.9706 92.9474 52 96.6672 52 101.256V123.412C52 128.001 47.9706 131.721 43 131.721H19C14.0294 131.721 10 128.001 10 123.412V101.256Z" fill="#282F33"/>
<path d="M10 20.9401C10 16.3514 14.0294 12.6316 19 12.6316H43C47.9706 12.6316 52 16.3514 52 20.9401V43.0962C52 47.6849 47.9706 51.4047 43 51.4047H19C14.0294 51.4047 10 47.6849 10 43.0962V20.9401Z" fill="#282F33"/>
<path d="M10 -59.3757C10 -63.9644 14.0294 -67.6842 19 -67.6842H43C47.9706 -67.6842 52 -63.9644 52 -59.3757V-37.2196C52 -32.6309 47.9706 -28.9111 43 -28.9111H19C14.0294 -28.9111 10 -32.6309 10 -37.2196V-59.3757Z" fill="#282F33"/>
<path d="M10 -139.691C10 -144.28 14.0294 -148 19 -148H43C47.9706 -148 52 -144.28 52 -139.691V-117.535C52 -112.947 47.9706 -109.227 43 -109.227H19C14.0294 -109.227 10 -112.947 10 -117.535V-139.691Z" fill="#282F33"/>
</g>
<g filter="url(#filter4_d_623_35)">
<rect x="3278" y="-170.691" width="60" height="1517.69" fill="#40464A"/>
<rect x="3278" y="-170.691" width="60" height="1517.69" fill="url(#paint2_linear_623_35)" fill-opacity="0.2"/>
<path d="M3287 1274.99C3287 1270.4 3291.03 1266.68 3296 1266.68H3320C3324.97 1266.68 3329 1270.4 3329 1274.99V1297.15C3329 1301.74 3324.97 1305.46 3320 1305.46H3296C3291.03 1305.46 3287 1301.74 3287 1297.15V1274.99Z" fill="#282F33"/>
<path d="M3287 1194.68C3287 1190.09 3291.03 1186.37 3296 1186.37H3320C3324.97 1186.37 3329 1190.09 3329 1194.68V1216.83C3329 1221.42 3324.97 1225.14 3320 1225.14H3296C3291.03 1225.14 3287 1221.42 3287 1216.83V1194.68Z" fill="#282F33"/>
<path d="M3287 1114.36C3287 1109.77 3291.03 1106.05 3296 1106.05H3320C3324.97 1106.05 3329 1109.77 3329 1114.36V1136.52C3329 1141.11 3324.97 1144.83 3320 1144.83H3296C3291.03 1144.83 3287 1141.11 3287 1136.52V1114.36Z" fill="#282F33"/>
<path d="M3287 1034.05C3287 1029.46 3291.03 1025.74 3296 1025.74H3320C3324.97 1025.74 3329 1029.46 3329 1034.05V1056.2C3329 1060.79 3324.97 1064.51 3320 1064.51H3296C3291.03 1064.51 3287 1060.79 3287 1056.2V1034.05Z" fill="#282F33"/>
<path d="M3287 953.73C3287 949.141 3291.03 945.421 3296 945.421H3320C3324.97 945.421 3329 949.141 3329 953.73V975.886C3329 980.474 3324.97 984.194 3320 984.194H3296C3291.03 984.194 3287 980.474 3287 975.886V953.73Z" fill="#282F33"/>
<path d="M3287 873.414C3287 868.825 3291.03 865.105 3296 865.105H3320C3324.97 865.105 3329 868.825 3329 873.414V895.57C3329 900.159 3324.97 903.878 3320 903.878H3296C3291.03 903.878 3287 900.159 3287 895.57V873.414Z" fill="#282F33"/>
<path d="M3287 793.098C3287 788.509 3291.03 784.789 3296 784.789H3320C3324.97 784.789 3329 788.509 3329 793.098V815.254C3329 819.843 3324.97 823.563 3320 823.563H3296C3291.03 823.563 3287 819.843 3287 815.254V793.098Z" fill="#282F33"/>
<path d="M3287 712.782C3287 708.194 3291.03 704.474 3296 704.474H3320C3324.97 704.474 3329 708.194 3329 712.782V734.938C3329 739.527 3324.97 743.247 3320 743.247H3296C3291.03 743.247 3287 739.527 3287 734.938V712.782Z" fill="#282F33"/>
<path d="M3287 632.466C3287 627.878 3291.03 624.158 3296 624.158H3320C3324.97 624.158 3329 627.878 3329 632.466V654.622C3329 659.211 3324.97 662.931 3320 662.931H3296C3291.03 662.931 3287 659.211 3287 654.622V632.466Z" fill="#282F33"/>
<path d="M3287 552.151C3287 547.562 3291.03 543.842 3296 543.842H3320C3324.97 543.842 3329 547.562 3329 552.151V574.307C3329 578.895 3324.97 582.615 3320 582.615H3296C3291.03 582.615 3287 578.895 3287 574.307V552.151Z" fill="#282F33"/>
<path d="M3287 471.835C3287 467.246 3291.03 463.526 3296 463.526H3320C3324.97 463.526 3329 467.246 3329 471.835V493.991C3329 498.58 3324.97 502.299 3320 502.299H3296C3291.03 502.299 3287 498.58 3287 493.991V471.835Z" fill="#282F33"/>
<path d="M3287 391.519C3287 386.93 3291.03 383.211 3296 383.211H3320C3324.97 383.211 3329 386.93 3329 391.519V413.675C3329 418.264 3324.97 421.984 3320 421.984H3296C3291.03 421.984 3287 418.264 3287 413.675V391.519Z" fill="#282F33"/>
<path d="M3287 311.203C3287 306.615 3291.03 302.895 3296 302.895H3320C3324.97 302.895 3329 306.615 3329 311.203V333.359C3329 337.948 3324.97 341.668 3320 341.668H3296C3291.03 341.668 3287 337.948 3287 333.359V311.203Z" fill="#282F33"/>
<path d="M3287 230.887C3287 226.299 3291.03 222.579 3296 222.579H3320C3324.97 222.579 3329 226.299 3329 230.887V253.044C3329 257.632 3324.97 261.352 3320 261.352H3296C3291.03 261.352 3287 257.632 3287 253.044V230.887Z" fill="#282F33"/>
<path d="M3287 150.572C3287 145.983 3291.03 142.263 3296 142.263H3320C3324.97 142.263 3329 145.983 3329 150.572V172.728C3329 177.316 3324.97 181.036 3320 181.036H3296C3291.03 181.036 3287 177.316 3287 172.728V150.572Z" fill="#282F33"/>
<path d="M3287 70.2559C3287 65.6672 3291.03 61.9474 3296 61.9474H3320C3324.97 61.9474 3329 65.6672 3329 70.2559V92.412C3329 97.0007 3324.97 100.721 3320 100.721H3296C3291.03 100.721 3287 97.0007 3287 92.412V70.2559Z" fill="#282F33"/>
<path d="M3287 -10.0599C3287 -14.6486 3291.03 -18.3684 3296 -18.3684H3320C3324.97 -18.3684 3329 -14.6486 3329 -10.0599V12.0962C3329 16.6849 3324.97 20.4047 3320 20.4047H3296C3291.03 20.4047 3287 16.6849 3287 12.0962V-10.0599Z" fill="#282F33"/>
<path d="M3287 -90.3757C3287 -94.9644 3291.03 -98.6842 3296 -98.6842H3320C3324.97 -98.6842 3329 -94.9644 3329 -90.3757V-68.2196C3329 -63.6309 3324.97 -59.9111 3320 -59.9111H3296C3291.03 -59.9111 3287 -63.6309 3287 -68.2196V-90.3757Z" fill="#282F33"/>
<path d="M3287 -170.691C3287 -175.28 3291.03 -179 3296 -179H3320C3324.97 -179 3329 -175.28 3329 -170.691V-148.535C3329 -143.947 3324.97 -140.227 3320 -140.227H3296C3291.03 -140.227 3287 -143.947 3287 -148.535V-170.691Z" fill="#282F33"/>
</g>
<g filter="url(#filter5_d_623_35)">
<rect x="3090" y="-131.691" width="60" height="1517.69" fill="#40464A"/>
<rect x="3090" y="-131.691" width="60" height="1517.69" fill="url(#paint3_linear_623_35)" fill-opacity="0.2"/>
<path d="M3099 1313.99C3099 1309.4 3103.03 1305.68 3108 1305.68H3132C3136.97 1305.68 3141 1309.4 3141 1313.99V1336.15C3141 1340.74 3136.97 1344.46 3132 1344.46H3108C3103.03 1344.46 3099 1340.74 3099 1336.15V1313.99Z" fill="#282F33"/>
<path d="M3099 1233.68C3099 1229.09 3103.03 1225.37 3108 1225.37H3132C3136.97 1225.37 3141 1229.09 3141 1233.68V1255.83C3141 1260.42 3136.97 1264.14 3132 1264.14H3108C3103.03 1264.14 3099 1260.42 3099 1255.83V1233.68Z" fill="#282F33"/>
<path d="M3099 1153.36C3099 1148.77 3103.03 1145.05 3108 1145.05H3132C3136.97 1145.05 3141 1148.77 3141 1153.36V1175.52C3141 1180.11 3136.97 1183.83 3132 1183.83H3108C3103.03 1183.83 3099 1180.11 3099 1175.52V1153.36Z" fill="#282F33"/>
<path d="M3099 1073.05C3099 1068.46 3103.03 1064.74 3108 1064.74H3132C3136.97 1064.74 3141 1068.46 3141 1073.05V1095.2C3141 1099.79 3136.97 1103.51 3132 1103.51H3108C3103.03 1103.51 3099 1099.79 3099 1095.2V1073.05Z" fill="#282F33"/>
<path d="M3099 992.73C3099 988.141 3103.03 984.421 3108 984.421H3132C3136.97 984.421 3141 988.141 3141 992.73V1014.89C3141 1019.47 3136.97 1023.19 3132 1023.19H3108C3103.03 1023.19 3099 1019.47 3099 1014.89V992.73Z" fill="#282F33"/>
<path d="M3099 912.414C3099 907.825 3103.03 904.105 3108 904.105H3132C3136.97 904.105 3141 907.825 3141 912.414V934.57C3141 939.159 3136.97 942.878 3132 942.878H3108C3103.03 942.878 3099 939.159 3099 934.57V912.414Z" fill="#282F33"/>
<path d="M3099 832.098C3099 827.509 3103.03 823.789 3108 823.789H3132C3136.97 823.789 3141 827.509 3141 832.098V854.254C3141 858.843 3136.97 862.563 3132 862.563H3108C3103.03 862.563 3099 858.843 3099 854.254V832.098Z" fill="#282F33"/>
<path d="M3099 751.782C3099 747.194 3103.03 743.474 3108 743.474H3132C3136.97 743.474 3141 747.194 3141 751.782V773.938C3141 778.527 3136.97 782.247 3132 782.247H3108C3103.03 782.247 3099 778.527 3099 773.938V751.782Z" fill="#282F33"/>
<path d="M3099 671.466C3099 666.878 3103.03 663.158 3108 663.158H3132C3136.97 663.158 3141 666.878 3141 671.466V693.622C3141 698.211 3136.97 701.931 3132 701.931H3108C3103.03 701.931 3099 698.211 3099 693.622V671.466Z" fill="#282F33"/>
<path d="M3099 591.151C3099 586.562 3103.03 582.842 3108 582.842H3132C3136.97 582.842 3141 586.562 3141 591.151V613.307C3141 617.895 3136.97 621.615 3132 621.615H3108C3103.03 621.615 3099 617.895 3099 613.307V591.151Z" fill="#282F33"/>
<path d="M3099 510.835C3099 506.246 3103.03 502.526 3108 502.526H3132C3136.97 502.526 3141 506.246 3141 510.835V532.991C3141 537.58 3136.97 541.299 3132 541.299H3108C3103.03 541.299 3099 537.58 3099 532.991V510.835Z" fill="#282F33"/>
<path d="M3099 430.519C3099 425.93 3103.03 422.211 3108 422.211H3132C3136.97 422.211 3141 425.93 3141 430.519V452.675C3141 457.264 3136.97 460.984 3132 460.984H3108C3103.03 460.984 3099 457.264 3099 452.675V430.519Z" fill="#282F33"/>
<path d="M3099 350.203C3099 345.615 3103.03 341.895 3108 341.895H3132C3136.97 341.895 3141 345.615 3141 350.203V372.359C3141 376.948 3136.97 380.668 3132 380.668H3108C3103.03 380.668 3099 376.948 3099 372.359V350.203Z" fill="#282F33"/>
<path d="M3099 269.887C3099 265.299 3103.03 261.579 3108 261.579H3132C3136.97 261.579 3141 265.299 3141 269.887V292.044C3141 296.632 3136.97 300.352 3132 300.352H3108C3103.03 300.352 3099 296.632 3099 292.044V269.887Z" fill="#282F33"/>
<path d="M3099 189.572C3099 184.983 3103.03 181.263 3108 181.263H3132C3136.97 181.263 3141 184.983 3141 189.572V211.728C3141 216.316 3136.97 220.036 3132 220.036H3108C3103.03 220.036 3099 216.316 3099 211.728V189.572Z" fill="#282F33"/>
<path d="M3099 109.256C3099 104.667 3103.03 100.947 3108 100.947H3132C3136.97 100.947 3141 104.667 3141 109.256V131.412C3141 136.001 3136.97 139.721 3132 139.721H3108C3103.03 139.721 3099 136.001 3099 131.412V109.256Z" fill="#282F33"/>
<path d="M3099 28.9401C3099 24.3514 3103.03 20.6316 3108 20.6316H3132C3136.97 20.6316 3141 24.3514 3141 28.9401V51.0962C3141 55.6849 3136.97 59.4047 3132 59.4047H3108C3103.03 59.4047 3099 55.6849 3099 51.0962V28.9401Z" fill="#282F33"/>
<path d="M3099 -51.3757C3099 -55.9644 3103.03 -59.6842 3108 -59.6842H3132C3136.97 -59.6842 3141 -55.9644 3141 -51.3757V-29.2196C3141 -24.6309 3136.97 -20.9111 3132 -20.9111H3108C3103.03 -20.9111 3099 -24.6309 3099 -29.2196V-51.3757Z" fill="#282F33"/>
<path d="M3099 -131.691C3099 -136.28 3103.03 -140 3108 -140H3132C3136.97 -140 3141 -136.28 3141 -131.691V-109.535C3141 -104.947 3136.97 -101.227 3132 -101.227H3108C3103.03 -101.227 3099 -104.947 3099 -109.535V-131.691Z" fill="#282F33"/>
</g>
<defs>
<filter id="filter0_d_623_35" x="188" y="-187" width="68" height="1534" filterUnits="userSpaceOnUse" color-interpolation-filters="sRGB">
<feFlood flood-opacity="0" result="BackgroundImageFix"/>
<feColorMatrix in="SourceAlpha" type="matrix" values="0 0 0 0 0 0 0 0 0 0 0 0 0 0 0 0 0 0 127 0" result="hardAlpha"/>
<feOffset dx="3" dy="4"/>
<feGaussianBlur stdDeviation="2"/>
<feComposite in2="hardAlpha" operator="out"/>
<feColorMatrix type="matrix" values="0 0 0 0 0 0 0 0 0 0 0 0 0 0 0 0 0 0 0.25 0"/>
<feBlend mode="normal" in2="BackgroundImageFix" result="effect1_dropShadow_623_35"/>
<feBlend mode="normal" in="SourceGraphic" in2="effect1_dropShadow_623_35" result="shape"/>
</filter>
<filter id="filter1_f_623_35" x="168.7" y="799.7" width="3217.6" height="322.368" filterUnits="userSpaceOnUse" color-interpolation-filters="sRGB">
<feFlood flood-opacity="0" result="BackgroundImageFix"/>
<feBlend mode="normal" in="SourceGraphic" in2="BackgroundImageFix" result="shape"/>
<feGaussianBlur stdDeviation="36.15" result="effect1_foregroundBlur_623_35"/>
</filter>
<filter id="filter2_f_623_35" x="173.7" y="158.7" width="3217.6" height="322.368" filterUnits="userSpaceOnUse" color-interpolation-filters="sRGB">
<feFlood flood-opacity="0" result="BackgroundImageFix"/>
<feBlend mode="normal" in="SourceGraphic" in2="BackgroundImageFix" result="shape"/>
<feGaussianBlur stdDeviation="36.15" result="effect1_foregroundBlur_623_35"/>
</filter>
<filter id="filter3_d_623_35" x="0" y="-148" width="68" height="1534" filterUnits="userSpaceOnUse" color-interpolation-filters="sRGB">
<feFlood flood-opacity="0" result="BackgroundImageFix"/>
<feColorMatrix in="SourceAlpha" type="matrix" values="0 0 0 0 0 0 0 0 0 0 0 0 0 0 0 0 0 0 127 0" result="hardAlpha"/>
<feOffset dx="3" dy="4"/>
<feGaussianBlur stdDeviation="2"/>
<feComposite in2="hardAlpha" operator="out"/>
<feColorMatrix type="matrix" values="0 0 0 0 0 0 0 0 0 0 0 0 0 0 0 0 0 0 0.25 0"/>
<feBlend mode="normal" in2="BackgroundImageFix" result="effect1_dropShadow_623_35"/>
<feBlend mode="normal" in="SourceGraphic" in2="effect1_dropShadow_623_35" result="shape"/>
</filter>
<filter id="filter4_d_623_35" x="3277" y="-179" width="68" height="1534" filterUnits="userSpaceOnUse" color-interpolation-filters="sRGB">
<feFlood flood-opacity="0" result="BackgroundImageFix"/>
<feColorMatrix in="SourceAlpha" type="matrix" values="0 0 0 0 0 0 0 0 0 0 0 0 0 0 0 0 0 0 127 0" result="hardAlpha"/>
<feOffset dx="3" dy="4"/>
<feGaussianBlur stdDeviation="2"/>
<feComposite in2="hardAlpha" operator="out"/>
<feColorMatrix type="matrix" values="0 0 0 0 0 0 0 0 0 0 0 0 0 0 0 0 0 0 0.25 0"/>
<feBlend mode="normal" in2="BackgroundImageFix" result="effect1_dropShadow_623_35"/>
<feBlend mode="normal" in="SourceGraphic" in2="effect1_dropShadow_623_35" result="shape"/>
</filter>
<filter id="filter5_d_623_35" x="3089" y="-140" width="68" height="1534" filterUnits="userSpaceOnUse" color-interpolation-filters="sRGB">
<feFlood flood-opacity="0" result="BackgroundImageFix"/>
<feColorMatrix in="SourceAlpha" type="matrix" values="0 0 0 0 0 0 0 0 0 0 0 0 0 0 0 0 0 0 127 0" result="hardAlpha"/>
<feOffset dx="3" dy="4"/>
<feGaussianBlur stdDeviation="2"/>
<feComposite in2="hardAlpha" operator="out"/>
<feColorMatrix type="matrix" values="0 0 0 0 0 0 0 0 0 0 0 0 0 0 0 0 0 0 0.25 0"/>
<feBlend mode="normal" in2="BackgroundImageFix" result="effect1_dropShadow_623_35"/>
<feBlend mode="normal" in="SourceGraphic" in2="effect1_dropShadow_623_35" result="shape"/>
</filter>
<linearGradient id="paint0_linear_623_35" x1="249" y1="368.287" x2="223.43" y2="1339.12" gradientUnits="userSpaceOnUse">
<stop stop-opacity="0"/>
<stop offset="1"/>
</linearGradient>
<linearGradient id="paint1_linear_623_35" x1="61" y1="407.287" x2="35.4296" y2="1378.12" gradientUnits="userSpaceOnUse">
<stop stop-opacity="0"/>
<stop offset="1"/>
</linearGradient>
<linearGradient id="paint2_linear_623_35" x1="3338" y1="376.287" x2="3312.43" y2="1347.12" gradientUnits="userSpaceOnUse">
<stop stop-opacity="0"/>
<stop offset="1"/>
</linearGradient>
<linearGradient id="paint3_linear_623_35" x1="3150" y1="415.287" x2="3124.43" y2="1386.12" gradientUnits="userSpaceOnUse">
<stop stop-opacity="0"/>
<stop offset="1"/>
</linearGradient>
</defs>
</svg>
