<svg width="655" height="1310" viewBox="0 0 655 1310" fill="none" xmlns="http://www.w3.org/2000/svg">
<rect x="3.10156" width="651" height="287.206" rx="101" fill="#33363C"/>
<rect x="9.71094" width="644.391" height="271.087" rx="101" fill="#444B50"/>
<rect x="26.2837" y="10.4614" width="610.473" height="250.116" rx="101" fill="#FFCD5B"/>
<rect x="26.2837" y="10.4614" width="610.473" height="250.116" rx="101" fill="#FFCD5B"/>
<path d="M147.306 34.9482V233.832C87.1214 223.665 50.5811 177.28 50.5811 129.625C50.5811 89.6471 88.5543 34.9483 147.306 34.9482Z" fill="#FFA172"/>
<path d="M518.441 35.583V234.467C578.625 224.3 615.165 177.915 615.165 130.259C615.165 90.2819 577.192 35.5831 518.441 35.583Z" fill="#FFA172"/>
<path d="M160.202 35.583H199.608" stroke="#FFFBEB" stroke-width="4"/>
<path d="M160.202 49.562H199.608" stroke="#FFFBEB" stroke-width="4"/>
<path d="M160.202 66.083H199.608" stroke="#FFFBEB" stroke-width="4"/>
<path d="M160.202 80.0625H199.608" stroke="#FFFBEB" stroke-width="4"/>
<path d="M160.202 94.042H199.608" stroke="#FFFBEB" stroke-width="4"/>
<path d="M160.202 110.562H199.608" stroke="#FFFBEB" stroke-width="4"/>
<path d="M462.556 158.853H501.962" stroke="#FFFBEB" stroke-width="4"/>
<path d="M462.556 172.833H501.962" stroke="#FFFBEB" stroke-width="4"/>
<path d="M462.556 189.353H501.962" stroke="#FFFBEB" stroke-width="4"/>
<path d="M462.556 203.333H501.962" stroke="#FFFBEB" stroke-width="4"/>
<path d="M462.556 217.311H501.962" stroke="#FFFBEB" stroke-width="4"/>
<path d="M462.556 233.832H501.962" stroke="#FFFBEB" stroke-width="4"/>
<path opacity="0.38" d="M535.757 10.4614C591.537 10.4615 636.757 55.6808 636.757 111.461V133.437H26.2832V111.461C26.2833 55.6809 71.5027 10.4617 127.283 10.4614H535.757Z" fill="#FBE1A8"/>
<path d="M273.648 175.535V89.5977H303.14V100.975H286.734V123.826H301.968V135.252H286.734V175.535H273.648ZM310.265 175.535L322.521 89.5977H339.806L352.843 175.535H340.636L338.585 160.203H324.718L322.863 175.535H310.265ZM325.988 149.705H337.218L331.456 106.541H331.261L325.988 149.705ZM393.171 189.793L380.281 175.779L388.581 171.287L399.616 184.178L393.171 189.793ZM382.722 176.512C378.262 176.512 374.616 175.568 371.784 173.68C368.985 171.792 366.918 168.992 365.583 165.281C364.249 161.57 363.581 156.98 363.581 151.512V112.205C363.581 107.257 364.232 103.025 365.534 99.5098C366.837 95.9941 368.904 93.2923 371.736 91.4043C374.568 89.5163 378.279 88.5723 382.868 88.5723C386.319 88.5723 389.232 89.1094 391.609 90.1836C393.985 91.2578 395.906 92.8203 397.37 94.8711C398.835 96.8893 399.893 99.3633 400.544 102.293C401.228 105.19 401.57 108.494 401.57 112.205V151.512C401.57 156.98 400.919 161.57 399.616 165.281C398.347 168.992 396.329 171.792 393.562 173.68C390.795 175.568 387.182 176.512 382.722 176.512ZM382.722 165.184C384.35 165.184 385.57 164.695 386.384 163.719C387.198 162.742 387.735 161.261 387.995 159.275C388.288 157.257 388.435 154.718 388.435 151.658V111.619C388.435 107.876 388.077 104.995 387.361 102.977C386.677 100.926 385.18 99.9004 382.868 99.9004C380.492 99.9004 378.881 100.893 378.034 102.879C377.188 104.832 376.765 107.729 376.765 111.57V151.658C376.765 154.783 376.895 157.355 377.156 159.373C377.448 161.359 378.018 162.824 378.865 163.768C379.743 164.712 381.029 165.184 382.722 165.184Z" fill="#33363C"/>
<g filter="url(#filter0_d_1469_34)">
</svg>
