<svg width="455" height="226" viewBox="0 0 455 226" fill="none" xmlns="http://www.w3.org/2000/svg">
<rect width="454.306" height="226" rx="101" fill="#3C3933"/>
<rect x="4.6123" width="449.694" height="213.316" rx="101" fill="#504844"/>
<rect x="16.1782" y="8.23145" width="426.024" height="196.815" rx="98.4073" fill="#FFCD5B"/>
<rect x="16.1782" y="8.23145" width="426.024" height="196.815" rx="98.4073" fill="#FFCD5B"/>
<path d="M100.634 27.5V184C58.6343 176 33.1343 139.5 33.1343 102C33.1343 70.5421 59.6343 27.5 100.634 27.5Z" fill="#EA924E"/>
<path d="M359.634 28V184.5C401.634 176.5 427.134 140 427.134 102.5C427.134 71.0421 400.634 28 359.634 28Z" fill="#EA924E"/>
<path d="M109.634 28H137.134" stroke="#FFFBEB" stroke-width="4"/>
<path d="M109.634 39H137.134" stroke="#FFFBEB" stroke-width="4"/>
<path d="M109.634 52H137.134" stroke="#FFFBEB" stroke-width="4"/>
<path d="M109.634 63H137.134" stroke="#FFFBEB" stroke-width="4"/>
<path d="M109.634 74H137.134" stroke="#FFFBEB" stroke-width="4"/>
<path d="M109.634 87H137.134" stroke="#FFFBEB" stroke-width="4"/>
<path d="M320.634 125H348.134" stroke="#FFFBEB" stroke-width="4"/>
<path d="M320.634 136H348.134" stroke="#FFFBEB" stroke-width="4"/>
<path d="M320.634 149H348.134" stroke="#FFFBEB" stroke-width="4"/>
<path d="M320.634 160H348.134" stroke="#FFFBEB" stroke-width="4"/>
<path d="M320.634 171H348.134" stroke="#FFFBEB" stroke-width="4"/>
<path d="M320.634 184H348.134" stroke="#FFFBEB" stroke-width="4"/>
<path opacity="0.38" d="M343.795 8.23145C397.597 8.23151 441.313 51.4071 442.188 105H16.1929C17.0679 51.407 60.7839 8.23145 114.585 8.23145H343.795Z" fill="#FFE9B7"/>
<path d="M184.464 129V68.8438H205.109V76.8076H193.625V92.8037H204.289V100.802H193.625V129H184.464ZM210.097 129L218.676 68.8438H230.775L239.901 129H231.356L229.921 118.268H220.214L218.915 129H210.097ZM221.102 110.919H228.964L224.93 80.7041H224.794L221.102 110.919ZM268.131 138.98L259.107 129.171L264.918 126.026L272.643 135.05L268.131 138.98ZM260.816 129.684C257.695 129.684 255.143 129.023 253.16 127.701C251.201 126.38 249.754 124.42 248.819 121.822C247.885 119.225 247.418 116.012 247.418 112.184V84.6689C247.418 81.2054 247.874 78.2432 248.785 75.7822C249.697 73.3213 251.144 71.43 253.126 70.1084C255.108 68.7868 257.706 68.126 260.919 68.126C263.334 68.126 265.374 68.502 267.037 69.2539C268.701 70.0059 270.045 71.0996 271.07 72.5352C272.096 73.9479 272.836 75.6797 273.292 77.7305C273.771 79.7585 274.01 82.0713 274.01 84.6689V112.184C274.01 116.012 273.554 119.225 272.643 121.822C271.754 124.42 270.341 126.38 268.404 127.701C266.467 129.023 263.938 129.684 260.816 129.684ZM260.816 121.754C261.956 121.754 262.81 121.412 263.38 120.729C263.95 120.045 264.326 119.008 264.508 117.618C264.713 116.205 264.815 114.428 264.815 112.286V84.2588C264.815 81.6383 264.565 79.6217 264.063 78.209C263.585 76.7734 262.537 76.0557 260.919 76.0557C259.256 76.0557 258.128 76.7507 257.535 78.1406C256.943 79.5078 256.646 81.5358 256.646 84.2246V112.286C256.646 114.474 256.738 116.274 256.92 117.687C257.125 119.076 257.524 120.102 258.116 120.763C258.731 121.424 259.632 121.754 260.816 121.754Z" fill="#3C3933"/>
</svg>
