<svg width="901" height="142" viewBox="0 0 901 142" fill="none" xmlns="http://www.w3.org/2000/svg">
<rect y="40" width="900.596" height="101.816" fill="#40464A"/>
<rect y="72.5391" width="900.596" height="48.2837" fill="#333638"/>
<rect x="5.24817" y="43.149" width="890.099" height="95.5177" fill="#E0A836"/>
<rect x="5.24817" y="46.2979" width="886.95" height="89.2199" fill="#FFBC35"/>
<rect x="101.816" y="50.4966" width="787.234" height="80.8227" fill="#BF3C3D"/>
<rect x="101.816" y="85.1348" width="755.745" height="37.7872" fill="#E64A4B"/>
<rect x="259.262" y="46.2979" width="3.14894" height="89.2199" fill="#FFBC35"/>
<rect x="416.709" y="46.2979" width="3.14894" height="89.2199" fill="#FFBC35"/>
<rect x="574.156" y="46.2979" width="3.14894" height="89.2199" fill="#FFBC35"/>
<rect x="731.603" y="46.2979" width="3.14894" height="89.2199" fill="#FFBC35"/>
<path d="M137.305 106.142L141.876 75.2043H147.026L151.965 106.142H148.133L147.307 100.394H141.964L141.208 106.142H137.305ZM142.385 97.1067H146.833L144.548 81.093H144.495L142.385 97.1067ZM156.93 106.142V75.2043H162.976C164.547 75.2043 165.777 75.4387 166.668 75.9075C167.57 76.3762 168.209 77.1262 168.584 78.1575C168.959 79.177 169.152 80.5188 169.164 82.1829V82.9739C169.164 84.6379 168.982 86.0032 168.619 87.0696C168.256 88.136 167.605 88.8918 166.668 89.3372C167.441 89.6301 168.045 90.134 168.478 90.8489C168.924 91.5637 169.24 92.425 169.428 93.4329C169.615 94.4407 169.709 95.5364 169.709 96.72V97.4231C169.685 99.4622 169.463 101.126 169.041 102.415C168.631 103.693 167.963 104.636 167.037 105.245C166.111 105.843 164.869 106.142 163.31 106.142H156.93ZM161.008 102.907H163.012C163.68 102.907 164.195 102.749 164.558 102.433C164.933 102.116 165.197 101.577 165.349 100.816C165.514 100.054 165.596 98.9993 165.596 97.6516V95.9817C165.596 94.2473 165.443 92.9934 165.139 92.22C164.846 91.4465 164.219 91.0598 163.258 91.0598H161.008V102.907ZM161.008 87.9485H162.941C163.398 87.9485 163.767 87.8958 164.049 87.7903C164.342 87.6731 164.564 87.4563 164.717 87.1399C164.881 86.8235 164.986 86.3665 165.033 85.7688C165.092 85.1594 165.121 84.3567 165.121 83.3606V82.0774C165.121 81.0579 165.039 80.2903 164.875 79.7747C164.711 79.259 164.453 78.9133 164.101 78.7375C163.75 78.5618 163.287 78.4739 162.713 78.4739H161.008V87.9485ZM181.458 106.493C179.888 106.493 178.628 106.154 177.679 105.474C176.73 104.794 176.044 103.781 175.622 102.433C175.2 101.073 174.989 99.3801 174.989 97.3528V83.5012C174.989 81.72 175.189 80.1848 175.587 78.8958C175.997 77.595 176.677 76.593 177.626 75.8899C178.575 75.175 179.876 74.8176 181.528 74.8176C182.771 74.8176 183.796 75.0227 184.605 75.4329C185.425 75.8313 186.069 76.4114 186.538 77.1731C187.007 77.9231 187.335 78.8313 187.522 79.8977C187.722 80.9641 187.821 82.1653 187.821 83.5012V97.3528C187.821 99.3801 187.616 101.073 187.206 102.433C186.808 103.781 186.14 104.794 185.202 105.474C184.276 106.154 183.028 106.493 181.458 106.493ZM181.458 102.96C182.091 102.96 182.571 102.779 182.899 102.415C183.228 102.052 183.45 101.46 183.567 100.64C183.685 99.8196 183.743 98.7356 183.743 97.3879V83.2903C183.743 81.6497 183.603 80.4192 183.321 79.5989C183.04 78.7668 182.442 78.3508 181.528 78.3508C180.579 78.3508 179.935 78.7551 179.595 79.5637C179.255 80.3723 179.085 81.6086 179.085 83.2727V97.3879C179.085 98.7473 179.144 99.8372 179.261 100.657C179.378 101.466 179.606 102.052 179.946 102.415C180.298 102.779 180.802 102.96 181.458 102.96ZM200.362 106.511C198.803 106.511 197.549 106.212 196.6 105.615C195.662 105.005 194.983 104.085 194.561 102.855C194.139 101.624 193.928 100.072 193.928 98.1965V75.2043H198.024V98.1086C198.024 99.1165 198.059 99.9895 198.129 100.728C198.211 101.466 198.416 102.034 198.744 102.433C199.073 102.831 199.612 103.031 200.362 103.031C201.112 103.031 201.645 102.837 201.961 102.45C202.289 102.052 202.489 101.484 202.559 100.745C202.629 100.007 202.664 99.134 202.664 98.1262V75.2043H206.742V98.1965C206.742 100.072 206.537 101.624 206.127 102.855C205.717 104.085 205.043 105.005 204.106 105.615C203.18 106.212 201.932 106.511 200.362 106.511ZM214.642 106.142V78.6672H211.126V75.2043H222.007V78.6672H218.703V106.142H214.642Z" fill="#FFF9EC"/>
<path d="M292.119 106.142V78.6672H288.604V75.2043H299.485V78.6672H296.18V106.142H292.119ZM304.115 106.142V75.2043H311.146C312.775 75.2043 313.982 75.509 314.767 76.1184C315.564 76.7161 316.085 77.6125 316.332 78.8079C316.578 79.9915 316.701 81.4622 316.701 83.22C316.701 85.095 316.507 86.5774 316.121 87.6672C315.746 88.7454 314.996 89.4543 313.871 89.7942C314.421 89.8879 314.878 90.1223 315.242 90.4973C315.617 90.8606 315.91 91.4231 316.121 92.1848C316.343 92.9348 316.501 93.9309 316.595 95.1731C316.689 96.4036 316.736 97.9387 316.736 99.7786C316.736 99.9426 316.736 100.247 316.736 100.693C316.736 101.138 316.736 101.642 316.736 102.204C316.748 102.767 316.759 103.329 316.771 103.892C316.794 104.443 316.818 104.923 316.841 105.333C316.876 105.743 316.917 106.013 316.964 106.142H312.886C312.851 106.06 312.816 105.802 312.781 105.368C312.757 104.923 312.734 104.349 312.71 103.646C312.687 102.943 312.669 102.152 312.658 101.273C312.658 100.382 312.658 99.4446 312.658 98.4602C312.658 97.4641 312.658 96.4563 312.658 95.4368C312.658 94.3704 312.599 93.5618 312.482 93.011C312.365 92.4485 312.125 92.0618 311.761 91.8508C311.398 91.6282 310.841 91.4934 310.091 91.4465L308.193 91.3411V106.142H304.115ZM308.21 88.2649H310.337C310.97 88.2649 311.451 88.136 311.779 87.8782C312.119 87.6086 312.347 87.0989 312.464 86.3489C312.593 85.5989 312.658 84.4915 312.658 83.0266V82.8333C312.658 81.6028 312.599 80.6711 312.482 80.0383C312.365 79.4055 312.13 78.9778 311.779 78.7551C311.439 78.5208 310.917 78.4036 310.214 78.4036H308.21V88.2649ZM321.102 106.142L325.673 75.2043H330.823L335.762 106.142H331.93L331.104 100.394H325.76L325.005 106.142H321.102ZM326.182 97.1067H330.63L328.344 81.093H328.292L326.182 97.1067ZM346.721 106.511C345.221 106.511 344.002 106.154 343.064 105.439C342.127 104.724 341.441 103.675 341.008 102.292C340.574 100.909 340.357 99.2336 340.357 97.2649V84.134C340.357 82.7395 340.457 81.4797 340.656 80.3547C340.855 79.218 341.195 78.2395 341.676 77.4192C342.168 76.5989 342.83 75.9719 343.662 75.5383C344.506 75.093 345.566 74.8704 346.844 74.8704C348.027 74.8704 349.012 75.0754 349.797 75.4856C350.594 75.884 351.221 76.4641 351.678 77.2258C352.146 77.9875 352.475 78.8958 352.662 79.9504C352.861 81.0051 352.961 82.177 352.961 83.4661V87.2454H348.988V83.5891C348.988 81.8313 348.853 80.5247 348.584 79.6692C348.314 78.8137 347.734 78.386 346.844 78.386C345.894 78.386 345.256 78.8313 344.928 79.7219C344.611 80.6125 344.453 81.8958 344.453 83.5715V97.4055C344.453 98.7297 344.517 99.8079 344.646 100.64C344.775 101.46 345.004 102.064 345.332 102.45C345.66 102.825 346.129 103.013 346.738 103.013C347.641 103.013 348.238 102.573 348.531 101.695C348.836 100.804 348.988 99.3625 348.988 97.3704V93.5208H353.014V97.3176C353.014 99.345 352.814 101.044 352.416 102.415C352.017 103.775 351.355 104.8 350.43 105.491C349.516 106.171 348.279 106.511 346.721 106.511ZM359.05 106.142V75.2043H363.128V89.7415L368.314 75.2043H372.462L366.96 90.4797L372.866 106.142H368.595L363.163 91.4817V106.142H359.05ZM382.629 106.493C381.364 106.493 380.321 106.277 379.5 105.843C378.692 105.409 378.059 104.788 377.602 103.98C377.145 103.171 376.828 102.204 376.653 101.079C376.477 99.9543 376.389 98.6946 376.389 97.3V94.3997H380.309V97.5286C380.309 99.4856 380.455 100.886 380.748 101.73C381.053 102.573 381.68 102.995 382.629 102.995C383.274 102.995 383.754 102.843 384.071 102.538C384.387 102.234 384.592 101.747 384.686 101.079C384.78 100.411 384.826 99.5266 384.826 98.425C384.826 97.136 384.58 96.0051 384.088 95.0325C383.608 94.0481 382.899 93.0696 381.961 92.0969L379.817 89.9524C379.219 89.3196 378.645 88.6458 378.094 87.9309C377.555 87.2043 377.116 86.3899 376.776 85.4875C376.436 84.5852 376.266 83.5598 376.266 82.4114C376.266 80.8293 376.448 79.47 376.811 78.3333C377.174 77.1965 377.801 76.3293 378.692 75.7317C379.594 75.1223 380.854 74.8176 382.471 74.8176C383.725 74.8176 384.739 75.0286 385.512 75.4504C386.285 75.8606 386.877 76.4524 387.287 77.2258C387.698 77.9993 387.979 78.925 388.131 80.0032C388.283 81.0813 388.36 82.2883 388.36 83.6243V85.4875H384.528V83.3606C384.528 82.2356 384.475 81.304 384.369 80.5657C384.276 79.8157 384.082 79.2532 383.789 78.8782C383.496 78.5032 383.057 78.3157 382.471 78.3157C381.92 78.3157 381.475 78.4446 381.135 78.7024C380.795 78.9602 380.549 79.3586 380.397 79.8977C380.244 80.425 380.168 81.1106 380.168 81.9543C380.168 82.7043 380.256 83.3313 380.432 83.8352C380.619 84.3391 380.901 84.8196 381.276 85.2766C381.662 85.7219 382.131 86.2375 382.682 86.8235L384.967 89.2668C386.127 90.4973 387.053 91.8274 387.744 93.2571C388.448 94.6868 388.799 96.3157 388.799 98.1438C388.799 99.9133 388.617 101.419 388.254 102.661C387.891 103.904 387.264 104.853 386.373 105.509C385.483 106.165 384.235 106.493 382.629 106.493Z" fill="#FFF9EC"/>
<path d="M442.599 106.167C441.334 106.167 440.291 105.95 439.47 105.517C438.662 105.083 438.029 104.462 437.572 103.654C437.115 102.845 436.799 101.878 436.623 100.753C436.447 99.6282 436.359 98.3684 436.359 96.9739V94.0735H440.279V97.2024C440.279 99.1594 440.426 100.56 440.719 101.404C441.023 102.247 441.65 102.669 442.599 102.669C443.244 102.669 443.724 102.517 444.041 102.212C444.357 101.907 444.562 101.421 444.656 100.753C444.75 100.085 444.797 99.2004 444.797 98.0989C444.797 96.8098 444.551 95.679 444.058 94.7063C443.578 93.7219 442.869 92.7434 441.931 91.7708L439.787 89.6262C439.189 88.9934 438.615 88.3196 438.064 87.6047C437.525 86.8782 437.086 86.0637 436.746 85.1614C436.406 84.259 436.236 83.2336 436.236 82.0852C436.236 80.5032 436.418 79.1438 436.781 78.0071C437.144 76.8704 437.771 76.0032 438.662 75.4055C439.564 74.7961 440.824 74.4915 442.441 74.4915C443.695 74.4915 444.709 74.7024 445.482 75.1243C446.256 75.5344 446.847 76.1262 447.258 76.8997C447.668 77.6731 447.949 78.5989 448.101 79.677C448.254 80.7551 448.33 81.9622 448.33 83.2981V85.1614H444.498V83.0344C444.498 81.9094 444.445 80.9778 444.34 80.2395C444.246 79.4895 444.053 78.927 443.76 78.552C443.467 78.177 443.027 77.9895 442.441 77.9895C441.89 77.9895 441.445 78.1184 441.105 78.3762C440.765 78.634 440.519 79.0325 440.367 79.5715C440.215 80.0989 440.138 80.7844 440.138 81.6282C440.138 82.3782 440.226 83.0051 440.402 83.509C440.59 84.0129 440.871 84.4934 441.246 84.9504C441.633 85.3958 442.101 85.9114 442.652 86.4973L444.937 88.9407C446.097 90.1711 447.023 91.5012 447.715 92.9309C448.418 94.3606 448.769 95.9895 448.769 97.8176C448.769 99.5872 448.588 101.093 448.224 102.335C447.861 103.577 447.234 104.527 446.344 105.183C445.453 105.839 444.205 106.167 442.599 106.167ZM458.244 106.185C456.744 106.185 455.525 105.827 454.588 105.113C453.65 104.398 452.965 103.349 452.531 101.966C452.097 100.583 451.881 98.9075 451.881 96.9387V83.8079C451.881 82.4133 451.98 81.1536 452.179 80.0286C452.379 78.8918 452.719 77.9133 453.199 77.093C453.691 76.2727 454.353 75.6458 455.185 75.2122C456.029 74.7668 457.09 74.5442 458.367 74.5442C459.551 74.5442 460.535 74.7493 461.32 75.1594C462.117 75.5579 462.744 76.1379 463.201 76.8997C463.67 77.6614 463.998 78.5696 464.185 79.6243C464.385 80.679 464.484 81.8508 464.484 83.1399V86.9192H460.512V83.2629C460.512 81.5051 460.377 80.1985 460.107 79.343C459.838 78.4875 459.258 78.0598 458.367 78.0598C457.418 78.0598 456.779 78.5051 456.451 79.3958C456.135 80.2864 455.976 81.5696 455.976 83.2454V97.0793C455.976 98.4036 456.041 99.4817 456.17 100.314C456.299 101.134 456.527 101.738 456.855 102.124C457.183 102.499 457.652 102.687 458.262 102.687C459.164 102.687 459.762 102.247 460.054 101.368C460.359 100.478 460.512 99.0364 460.512 97.0442V93.1946H464.537V96.9915C464.537 99.0188 464.338 100.718 463.939 102.089C463.541 103.448 462.879 104.474 461.953 105.165C461.039 105.845 459.803 106.185 458.244 106.185ZM468.773 105.816V74.8782H472.851V87.8157H477.51V74.8782H481.588V105.816H477.51V91.2258H472.851V105.816H468.773ZM486.492 105.816V74.8782H496.213V78.3411H490.57V88.2551H495.914V91.6829H490.57V102.353H496.336V105.816H486.492ZM500.097 105.816V74.8782H506.39C507.984 74.8782 509.238 75.2063 510.152 75.8625C511.078 76.5188 511.734 77.4622 512.121 78.6926C512.519 79.9114 512.719 81.3762 512.719 83.0872L512.736 96.8333C512.736 98.8958 512.519 100.589 512.086 101.913C511.664 103.238 510.978 104.222 510.029 104.866C509.08 105.499 507.82 105.816 506.25 105.816H500.097ZM504.176 102.581H505.898C506.519 102.581 507.029 102.452 507.428 102.195C507.838 101.925 508.142 101.445 508.342 100.753C508.553 100.062 508.658 99.0657 508.658 97.7649L508.64 83.0872C508.64 81.2942 508.424 80.011 507.99 79.2375C507.568 78.4641 506.853 78.0774 505.845 78.0774H504.176V102.581ZM523.476 106.185C521.918 106.185 520.664 105.886 519.715 105.288C518.777 104.679 518.097 103.759 517.676 102.529C517.254 101.298 517.043 99.7454 517.043 97.8704V74.8782H521.138V97.7825C521.138 98.7903 521.174 99.6633 521.244 100.402C521.326 101.14 521.531 101.708 521.859 102.107C522.187 102.505 522.726 102.704 523.476 102.704C524.226 102.704 524.76 102.511 525.076 102.124C525.404 101.726 525.603 101.157 525.674 100.419C525.744 99.6809 525.779 98.8079 525.779 97.8V74.8782H529.857V97.8704C529.857 99.7454 529.652 101.298 529.242 102.529C528.832 103.759 528.158 104.679 527.22 105.288C526.295 105.886 525.047 106.185 523.476 106.185ZM534.515 105.816V74.8782H538.594V102.388H544.412V105.816H534.515ZM547.172 105.816V74.8782H556.892V78.3411H551.25V88.2551H556.594V91.6829H551.25V102.353H557.015V105.816H547.172Z" fill="#FFF9EC"/>
<path d="M631.563 106.142V75.2043H641.424V78.6848H635.641V87.8079H641.037V91.3235H635.641V106.142H631.563ZM644.542 106.142L649.113 75.2043H654.263L659.202 106.142H655.37L654.544 100.394H649.2L648.445 106.142H644.542ZM649.622 97.1067H654.07L651.784 81.093H651.732L649.622 97.1067ZM673.799 111.046L669.44 106.282L672.112 104.929L675.821 109.236L673.799 111.046ZM670.266 106.493C668.696 106.493 667.436 106.154 666.487 105.474C665.538 104.794 664.852 103.781 664.43 102.433C664.008 101.073 663.797 99.3801 663.797 97.3528V83.5012C663.797 81.72 663.997 80.1848 664.395 78.8958C664.805 77.595 665.485 76.593 666.434 75.8899C667.383 75.175 668.684 74.8176 670.336 74.8176C671.579 74.8176 672.604 75.0227 673.413 75.4329C674.233 75.8313 674.877 76.4114 675.346 77.1731C675.815 77.9231 676.143 78.8313 676.331 79.8977C676.53 80.9641 676.629 82.1653 676.629 83.5012V97.3528C676.629 99.3801 676.424 101.073 676.014 102.433C675.616 103.781 674.948 104.794 674.01 105.474C673.084 106.154 671.836 106.493 670.266 106.493ZM670.266 102.96C670.899 102.96 671.379 102.779 671.708 102.415C672.036 102.052 672.258 101.46 672.375 100.64C672.493 99.8196 672.551 98.7356 672.551 97.3879V83.2903C672.551 81.6497 672.411 80.4192 672.129 79.5989C671.848 78.7668 671.25 78.3508 670.336 78.3508C669.387 78.3508 668.743 78.7551 668.403 79.5637C668.063 80.3723 667.893 81.6086 667.893 83.2727V97.3879C667.893 98.7473 667.952 99.8372 668.069 100.657C668.186 101.466 668.415 102.052 668.754 102.415C669.106 102.779 669.61 102.96 670.266 102.96Z" fill="#FFF9EC"/>
<path d="M756.188 106.493C754.922 106.493 753.879 106.277 753.059 105.843C752.251 105.409 751.618 104.788 751.161 103.98C750.704 103.171 750.387 102.204 750.211 101.079C750.036 99.9543 749.948 98.6946 749.948 97.3V94.3997H753.868V97.5286C753.868 99.4856 754.014 100.886 754.307 101.73C754.612 102.573 755.239 102.995 756.188 102.995C756.833 102.995 757.313 102.843 757.629 102.538C757.946 102.234 758.151 101.747 758.245 101.079C758.338 100.411 758.385 99.5266 758.385 98.425C758.385 97.136 758.139 96.0051 757.647 95.0325C757.167 94.0481 756.458 93.0696 755.52 92.0969L753.376 89.9524C752.778 89.3196 752.204 88.6458 751.653 87.9309C751.114 87.2043 750.674 86.3899 750.335 85.4875C749.995 84.5852 749.825 83.5598 749.825 82.4114C749.825 80.8293 750.006 79.47 750.37 78.3333C750.733 77.1965 751.36 76.3293 752.251 75.7317C753.153 75.1223 754.413 74.8176 756.03 74.8176C757.284 74.8176 758.297 75.0286 759.071 75.4504C759.844 75.8606 760.436 76.4524 760.846 77.2258C761.256 77.9993 761.538 78.925 761.69 80.0032C761.842 81.0813 761.918 82.2883 761.918 83.6243V85.4875H758.086V83.3606C758.086 82.2356 758.034 81.304 757.928 80.5657C757.835 79.8157 757.641 79.2532 757.348 78.8782C757.055 78.5032 756.616 78.3157 756.03 78.3157C755.479 78.3157 755.034 78.4446 754.694 78.7024C754.354 78.9602 754.108 79.3586 753.956 79.8977C753.803 80.425 753.727 81.1106 753.727 81.9543C753.727 82.7043 753.815 83.3313 753.991 83.8352C754.178 84.3391 754.46 84.8196 754.835 85.2766C755.221 85.7219 755.69 86.2375 756.241 86.8235L758.526 89.2668C759.686 90.4973 760.612 91.8274 761.303 93.2571C762.006 94.6868 762.358 96.3157 762.358 98.1438C762.358 99.9133 762.176 101.419 761.813 102.661C761.45 103.904 760.823 104.853 759.932 105.509C759.042 106.165 757.793 106.493 756.188 106.493ZM765.838 106.142V75.2043H772.43C773.661 75.2043 774.668 75.4036 775.454 75.802C776.239 76.1887 776.848 76.7629 777.282 77.5247C777.715 78.2864 778.014 79.2122 778.178 80.302C778.354 81.3918 778.442 82.6282 778.442 84.011V84.5559C778.442 86.595 778.272 88.3176 777.932 89.7239C777.604 91.1184 777.012 92.179 776.157 92.9055C775.301 93.6204 774.083 93.9778 772.501 93.9778H769.917V106.142H765.838ZM769.917 90.5852H771.885C772.588 90.5852 773.116 90.3977 773.467 90.0227C773.831 89.636 774.071 89.0032 774.188 88.1243C774.317 87.2336 774.381 86.0383 774.381 84.5383V83.9407C774.381 82.0774 774.229 80.6887 773.924 79.7747C773.631 78.8606 772.975 78.4036 771.956 78.4036H769.917V90.5852ZM788.004 106.493C786.434 106.493 785.174 106.154 784.225 105.474C783.276 104.794 782.59 103.781 782.168 102.433C781.747 101.073 781.536 99.3801 781.536 97.3528V83.5012C781.536 81.72 781.735 80.1848 782.133 78.8958C782.543 77.595 783.223 76.593 784.172 75.8899C785.122 75.175 786.422 74.8176 788.075 74.8176C789.317 74.8176 790.342 75.0227 791.151 75.4329C791.971 75.8313 792.616 76.4114 793.085 77.1731C793.553 77.9231 793.881 78.8313 794.069 79.8977C794.268 80.9641 794.368 82.1653 794.368 83.5012V97.3528C794.368 99.3801 794.163 101.073 793.752 102.433C793.354 103.781 792.686 104.794 791.749 105.474C790.823 106.154 789.575 106.493 788.004 106.493ZM788.004 102.96C788.637 102.96 789.118 102.779 789.446 102.415C789.774 102.052 789.997 101.46 790.114 100.64C790.231 99.8196 790.29 98.7356 790.29 97.3879V83.2903C790.29 81.6497 790.149 80.4192 789.868 79.5989C789.586 78.7668 788.989 78.3508 788.075 78.3508C787.126 78.3508 786.481 78.7551 786.141 79.5637C785.801 80.3723 785.631 81.6086 785.631 83.2727V97.3879C785.631 98.7473 785.69 99.8372 785.807 100.657C785.924 101.466 786.153 102.052 786.493 102.415C786.844 102.779 787.348 102.96 788.004 102.96ZM798.92 106.142V75.2043H802.067L808.975 95.2258L808.624 86.4895V75.2043H812.262V106.142H809.309L802.454 85.7512L802.682 93.679V106.142H798.92ZM822.422 106.493C821.157 106.493 820.114 106.277 819.293 105.843C818.485 105.409 817.852 104.788 817.395 103.98C816.938 103.171 816.622 102.204 816.446 101.079C816.27 99.9543 816.182 98.6946 816.182 97.3V94.3997H820.102V97.5286C820.102 99.4856 820.249 100.886 820.542 101.73C820.846 102.573 821.473 102.995 822.422 102.995C823.067 102.995 823.547 102.843 823.864 102.538C824.18 102.234 824.385 101.747 824.479 101.079C824.573 100.411 824.62 99.5266 824.62 98.425C824.62 97.136 824.374 96.0051 823.881 95.0325C823.401 94.0481 822.692 93.0696 821.754 92.0969L819.61 89.9524C819.012 89.3196 818.438 88.6458 817.887 87.9309C817.348 87.2043 816.909 86.3899 816.569 85.4875C816.229 84.5852 816.059 83.5598 816.059 82.4114C816.059 80.8293 816.241 79.47 816.604 78.3333C816.967 77.1965 817.594 76.3293 818.485 75.7317C819.387 75.1223 820.647 74.8176 822.264 74.8176C823.518 74.8176 824.532 75.0286 825.305 75.4504C826.079 75.8606 826.67 76.4524 827.081 77.2258C827.491 77.9993 827.772 78.925 827.924 80.0032C828.077 81.0813 828.153 82.2883 828.153 83.6243V85.4875H824.321V83.3606C824.321 82.2356 824.268 81.304 824.163 80.5657C824.069 79.8157 823.876 79.2532 823.583 78.8782C823.29 78.5032 822.85 78.3157 822.264 78.3157C821.713 78.3157 821.268 78.4446 820.928 78.7024C820.588 78.9602 820.342 79.3586 820.19 79.8977C820.038 80.425 819.961 81.1106 819.961 81.9543C819.961 82.7043 820.049 83.3313 820.225 83.8352C820.413 84.3391 820.694 84.8196 821.069 85.2766C821.456 85.7219 821.924 86.2375 822.475 86.8235L824.76 89.2668C825.92 90.4973 826.846 91.8274 827.538 93.2571C828.241 94.6868 828.592 96.3157 828.592 98.1438C828.592 99.9133 828.411 101.419 828.047 102.661C827.684 103.904 827.057 104.853 826.167 105.509C825.276 106.165 824.028 106.493 822.422 106.493ZM838.172 106.493C836.602 106.493 835.342 106.154 834.393 105.474C833.444 104.794 832.758 103.781 832.336 102.433C831.915 101.073 831.704 99.3801 831.704 97.3528V83.5012C831.704 81.72 831.903 80.1848 832.301 78.8958C832.711 77.595 833.391 76.593 834.34 75.8899C835.29 75.175 836.59 74.8176 838.243 74.8176C839.485 74.8176 840.51 75.0227 841.319 75.4329C842.139 75.8313 842.784 76.4114 843.252 77.1731C843.721 77.9231 844.049 78.8313 844.237 79.8977C844.436 80.9641 844.536 82.1653 844.536 83.5012V97.3528C844.536 99.3801 844.331 101.073 843.92 102.433C843.522 103.781 842.854 104.794 841.917 105.474C840.991 106.154 839.743 106.493 838.172 106.493ZM838.172 102.96C838.805 102.96 839.286 102.779 839.614 102.415C839.942 102.052 840.165 101.46 840.282 100.64C840.399 99.8196 840.458 98.7356 840.458 97.3879V83.2903C840.458 81.6497 840.317 80.4192 840.036 79.5989C839.754 78.7668 839.157 78.3508 838.243 78.3508C837.293 78.3508 836.649 78.7551 836.309 79.5637C835.969 80.3723 835.799 81.6086 835.799 83.2727V97.3879C835.799 98.7473 835.858 99.8372 835.975 100.657C836.092 101.466 836.321 102.052 836.661 102.415C837.012 102.779 837.516 102.96 838.172 102.96ZM849.088 106.142V75.2043H856.12C857.749 75.2043 858.956 75.509 859.741 76.1184C860.538 76.7161 861.059 77.6125 861.305 78.8079C861.551 79.9915 861.674 81.4622 861.674 83.22C861.674 85.095 861.481 86.5774 861.094 87.6672C860.719 88.7454 859.969 89.4543 858.844 89.7942C859.395 89.8879 859.852 90.1223 860.215 90.4973C860.59 90.8606 860.883 91.4231 861.094 92.1848C861.317 92.9348 861.475 93.9309 861.569 95.1731C861.663 96.4036 861.71 97.9387 861.71 99.7786C861.71 99.9426 861.71 100.247 861.71 100.693C861.71 101.138 861.71 101.642 861.71 102.204C861.721 102.767 861.733 103.329 861.745 103.892C861.768 104.443 861.792 104.923 861.815 105.333C861.85 105.743 861.891 106.013 861.938 106.142H857.86C857.825 106.06 857.79 105.802 857.754 105.368C857.731 104.923 857.708 104.349 857.684 103.646C857.661 102.943 857.643 102.152 857.631 101.273C857.631 100.382 857.631 99.4446 857.631 98.4602C857.631 97.4641 857.631 96.4563 857.631 95.4368C857.631 94.3704 857.573 93.5618 857.456 93.011C857.338 92.4485 857.098 92.0618 856.735 91.8508C856.372 91.6282 855.815 91.4934 855.065 91.4465L853.167 91.3411V106.142H849.088ZM853.184 88.2649H855.311C855.944 88.2649 856.424 88.136 856.752 87.8782C857.092 87.6086 857.321 87.0989 857.438 86.3489C857.567 85.5989 857.631 84.4915 857.631 83.0266V82.8333C857.631 81.6028 857.573 80.6711 857.456 80.0383C857.338 79.4055 857.104 78.9778 856.752 78.7551C856.413 78.5208 855.891 78.4036 855.188 78.4036H853.184V88.2649ZM871.254 106.493C869.989 106.493 868.946 106.277 868.126 105.843C867.317 105.409 866.684 104.788 866.227 103.98C865.77 103.171 865.454 102.204 865.278 101.079C865.102 99.9543 865.014 98.6946 865.014 97.3V94.3997H868.934V97.5286C868.934 99.4856 869.081 100.886 869.374 101.73C869.678 102.573 870.305 102.995 871.254 102.995C871.899 102.995 872.379 102.843 872.696 102.538C873.012 102.234 873.217 101.747 873.311 101.079C873.405 100.411 873.452 99.5266 873.452 98.425C873.452 97.136 873.206 96.0051 872.713 95.0325C872.233 94.0481 871.524 93.0696 870.586 92.0969L868.442 89.9524C867.844 89.3196 867.27 88.6458 866.719 87.9309C866.18 87.2043 865.741 86.3899 865.401 85.4875C865.061 84.5852 864.891 83.5598 864.891 82.4114C864.891 80.8293 865.073 79.47 865.436 78.3333C865.799 77.1965 866.426 76.3293 867.317 75.7317C868.219 75.1223 869.479 74.8176 871.096 74.8176C872.35 74.8176 873.364 75.0286 874.137 75.4504C874.911 75.8606 875.502 76.4524 875.913 77.2258C876.323 77.9993 876.604 78.925 876.756 80.0032C876.909 81.0813 876.985 82.2883 876.985 83.6243V85.4875H873.153V83.3606C873.153 82.2356 873.1 81.304 872.995 80.5657C872.901 79.8157 872.708 79.2532 872.415 78.8782C872.122 78.5032 871.682 78.3157 871.096 78.3157C870.545 78.3157 870.1 78.4446 869.76 78.7024C869.42 78.9602 869.174 79.3586 869.022 79.8977C868.87 80.425 868.793 81.1106 868.793 81.9543C868.793 82.7043 868.881 83.3313 869.057 83.8352C869.245 84.3391 869.526 84.8196 869.901 85.2766C870.288 85.7219 870.756 86.2375 871.307 86.8235L873.592 89.2668C874.752 90.4973 875.678 91.8274 876.37 93.2571C877.073 94.6868 877.424 96.3157 877.424 98.1438C877.424 99.9133 877.243 101.419 876.879 102.661C876.516 103.904 875.889 104.853 874.999 105.509C874.108 106.165 872.86 106.493 871.254 106.493Z" fill="#FFF9EC"/>
<path d="M53.6479 60.9929H43.9695L22.0425 118.723H33.4594L39.4327 103.181L48.8084 78.4499L58.2597 103.181L64.0817 118.723H75.5744L53.6479 60.9929Z" fill="#BF3C3D"/>
<path d="M57.8465 60.9929H48.1681L26.2411 118.723H37.658L43.6313 103.181L53.007 78.4499L62.4583 103.181L68.2803 118.723H79.773L57.8465 60.9929Z" fill="#FFBC35"/>
<path d="M62.0451 60.9929H52.3667L30.4397 118.723H41.8566L47.83 103.181L57.2056 78.4499L66.6569 103.181L72.4789 118.723H83.9716L62.0451 60.9929Z" fill="#BF3C3D"/>
<rect x="829.674" width="12.5957" height="40" fill="#40464A"/>
<rect x="833.872" width="8.39716" height="40" fill="#333638"/>
<rect x="840.17" width="2.09929" height="40" fill="#40464A"/>
<rect x="668.028" width="12.5957" height="40" fill="#40464A"/>
<rect x="672.227" width="8.39716" height="40" fill="#333638"/>
<rect x="678.525" width="2.09929" height="40" fill="#40464A"/>
</svg>
