<svg width="386" height="285" viewBox="0 0 386 285" fill="none" xmlns="http://www.w3.org/2000/svg">
<path d="M190.955 48.231L213.107 256.547C270.241 290.03 330.042 275.913 351.778 263.539L364.107 156.993L376.436 50.4469C345.794 64.1101 265.799 82.7953 190.955 48.231Z" fill="#E13F26" stroke="#B49875"/>
<path opacity="0.5" d="M358.242 58.8014L375.425 50.2576V56.2885C368.376 61.1133 362.501 62.9895 360.445 63.3246C356.92 73.3761 351.592 86.5266 333.567 90.744C316.384 94.7646 291.27 80.6614 286.422 75.3864C251.173 77.3967 208.581 63.4921 192.132 55.2834L191.251 47.2422C211.695 64.1287 264.392 67.6802 288.185 67.3452C298.319 77.2292 321.583 86.894 333.567 83.2754C345.552 79.6569 355.01 68.5179 358.242 58.8014Z" fill="#543A1B"/>
<path d="M385.264 27.3286C380.329 9.23586 318.291 3.03744 287.889 0.692087C246.032 -2.53696 164.519 5.01423 178.618 34.3646C181.205 39.7485 185.491 44.3354 190.955 48.2312C215.28 65.5736 262.944 69.2237 287.889 68.5397C295.086 76.0783 309.175 84.6258 323.98 86.6361C338.784 88.6464 354.128 72.3928 357.946 60.4985C369.108 56.9805 390.199 45.4213 385.264 27.3286Z" fill="#E34D42"/>
<path d="M197.419 38.1956C170.982 23.7215 204.028 15.4122 223.856 13.0669L243.268 33.9823L342.379 52.2677C305.074 53.6079 223.856 52.6698 197.419 38.1956Z" fill="#F0C761"/>
<path d="M202.488 68.7114L218.205 74.6863L219.904 101.573L206.311 97.8391L202.488 68.7114Z" fill="#DCAC36"/>
<path d="M226.276 76.9268L236.047 79.5875L238.171 105.308L228.613 103.534L226.276 76.9268Z" fill="#DCAC36"/>
<path d="M270.455 118.107C265.653 110.555 261.375 114.961 259.835 118.107V254.992C263.714 263.803 268.531 258.663 270.455 254.992V118.107Z" fill="#F9C789"/>
<path d="M270.455 159.832C265.313 164.539 261.233 161.793 259.835 159.832V256.327C263.189 263.544 268.313 259.334 270.455 256.327V159.832Z" fill="#543A1B"/>
<path d="M309.961 114.969C305.159 107.417 300.88 111.823 299.341 114.969V251.854C303.22 260.665 308.037 255.525 309.961 251.854V114.969Z" fill="#F9C789"/>
<path d="M309.961 156.693C304.819 161.4 300.739 158.655 299.341 156.693V253.188C302.695 260.406 307.819 256.196 309.961 253.188V156.693Z" fill="#543A1B"/>
<path d="M348.897 110.373C344.878 102.44 340.173 106.459 338.324 109.459L324.516 245.749C327.489 254.855 332.804 250.152 335.09 246.662L348.897 110.373Z" fill="#F9C789"/>
<path d="M344.689 151.915C339.094 156.16 335.309 153.075 334.115 151.002L324.382 247.078C326.993 254.552 332.519 250.801 334.956 247.991L344.689 151.915Z" fill="#543A1B"/>
<path d="M324.848 123.258C322.257 114.864 316.894 118.271 314.537 121.023L277.005 254.847C278.354 264.277 284.441 260.266 287.316 257.082L324.848 123.258Z" fill="#F9C789"/>
<path d="M311.913 169.382C305.7 172.651 302.45 169.254 301.602 167.147L276.586 256.34C277.971 263.717 284.037 260.904 286.897 258.575L311.913 169.382Z" fill="#543A1B"/>
<path d="M290.253 122.626C287.485 114.25 282.214 117.616 279.925 120.346L245.457 253.479C247.011 262.881 252.99 258.917 255.786 255.759L290.253 122.626Z" fill="#F9C789"/>
<path d="M279.747 163.207C273.561 166.681 270.284 163.135 269.418 160.927L245.121 254.778C246.565 262.517 252.609 259.523 255.45 257.058L279.747 163.207Z" fill="#543A1B"/>
<path d="M14.5559 49.4482L37.662 263.022C97.2561 297.351 159.632 282.877 182.304 270.19L195.164 160.955L208.024 51.7201C176.062 65.7281 92.6224 84.885 14.5559 49.4482Z" fill="#E13F26" stroke="#B49875"/>
<path opacity="0.5" d="M189.046 60.2855L206.97 51.5261V57.7092C199.616 62.6557 193.489 64.5794 191.344 64.9229C187.667 75.2281 182.111 88.7105 163.309 93.0344C145.386 97.1565 119.191 82.6973 114.134 77.2891C77.3674 79.3502 32.941 65.0946 15.7833 56.6787L14.8641 48.4346C36.1887 65.7473 91.1549 69.3885 115.972 69.045C126.543 79.1784 150.809 89.0871 163.309 85.3773C175.81 81.6674 185.676 70.2472 189.046 60.2855Z" fill="#543A1B"/>
<path d="M217.232 28.0183C212.085 9.46898 147.376 3.1141 115.665 0.709555C72.0042 -2.60099 -13.0186 5.14078 1.68805 35.232C4.38579 40.7518 8.85678 45.4544 14.5564 49.4486C39.928 67.2287 89.6453 70.9708 115.665 70.2696C123.171 77.9985 137.867 86.7618 153.309 88.8228C168.751 90.8839 184.755 74.2199 188.738 62.0255C200.381 58.4186 222.38 46.5677 217.232 28.0183Z" fill="#E34D42"/>
<path d="M21.2982 39.1595C-6.27676 24.32 28.192 15.801 48.8732 13.3965L69.1217 34.8397L172.501 53.5867C133.59 54.9608 48.8732 53.9989 21.2982 39.1595Z" fill="#F0C761"/>
<path d="M26.5854 70.4458L42.9798 76.5715L44.7521 104.137L30.5733 100.309L26.5854 70.4458Z" fill="#DCAC36"/>
<path d="M51.3984 78.8682L61.5895 81.596L63.8049 107.965L53.8354 106.147L51.3984 78.8682Z" fill="#DCAC36"/>
<path d="M97.4796 121.089C92.4707 113.346 88.0077 117.863 86.4023 121.089V261.428C90.4479 270.461 95.4728 265.192 97.4796 261.428V121.089Z" fill="#F9C789"/>
<path d="M97.4796 163.866C92.1159 168.692 87.8599 165.877 86.4023 163.866V262.796C89.9004 270.196 95.2447 265.88 97.4796 262.796V163.866Z" fill="#543A1B"/>
<path d="M138.687 117.871C133.678 110.128 129.215 114.645 127.609 117.871V258.21C131.655 267.244 136.68 261.974 138.687 258.21V117.871Z" fill="#F9C789"/>
<path d="M138.687 160.648C133.323 165.474 129.067 162.659 127.609 160.648V259.579C131.107 266.979 136.452 262.662 138.687 259.579V160.648Z" fill="#543A1B"/>
<path d="M179.299 113.159C175.107 105.026 170.2 109.146 168.27 112.222L153.868 251.952C156.969 261.288 162.513 256.466 164.897 252.888L179.299 113.159Z" fill="#F9C789"/>
<path d="M174.91 155.75C169.074 160.101 165.126 156.939 163.881 154.813L153.728 253.314C156.452 260.977 162.216 257.131 164.757 254.25L174.91 155.75Z" fill="#543A1B"/>
<path d="M154.215 126.369C151.512 117.763 145.918 121.256 143.46 124.078L104.311 261.279C105.719 270.948 112.068 266.835 115.066 263.571L154.215 126.369Z" fill="#F9C789"/>
<path d="M140.722 173.657C134.242 177.008 130.852 173.526 129.967 171.366L103.875 262.81C105.319 270.373 111.647 267.489 114.63 265.101L140.722 173.657Z" fill="#543A1B"/>
<path d="M118.131 125.721C115.243 117.134 109.745 120.585 107.357 123.384L71.4053 259.877C73.0259 269.516 79.263 265.452 82.1789 262.214L118.131 125.721Z" fill="#F9C789"/>
<path d="M107.172 167.326C100.719 170.888 97.3009 167.252 96.3984 164.989L71.0547 261.208C72.5613 269.143 78.8649 266.073 81.8284 263.546L107.172 167.326Z" fill="#543A1B"/>
</svg>
