<svg width="580" height="359" viewBox="0 0 580 359" fill="none" xmlns="http://www.w3.org/2000/svg">
<path d="M561.911 55.415L529.84 300.558C461.665 338.681 395.945 314.647 370.01 300.558L355.298 179.248L340.586 57.938C377.15 73.4945 472.604 94.769 561.911 55.415Z" fill="#E7C8B0" stroke="#B49875"/>
<path d="M559.982 76.0327C472.075 119.063 378.946 93.9622 343.37 76.0327V89.1937C443.895 130.851 527.209 106.551 556.301 89.1937L559.982 76.0327Z" fill="#818BA6" stroke="#818CBF"/>
<path d="M530.539 288.325C524.23 293.475 433.274 320.942 368.08 283.748L369.132 291.759C430.645 318.081 473.757 314.075 530.539 295.192V288.325Z" fill="#818BA6" stroke="#818CBF"/>
<path d="M456.933 125.815L465.458 125.243L464.458 154.642H457.459L456.933 125.815Z" fill="#FFAD61"/>
<path d="M477.386 124.232L484.885 122.954L483.885 151.714L476.386 152.353L477.386 124.232Z" fill="#FFAD61"/>
<path d="M493.659 121.944L501.157 120.666L499.658 149.425L492.159 150.703L493.659 121.944Z" fill="#FFAD61"/>
<path d="M510.448 117.559L517.447 115.642L515.462 144.402L508.463 146.958L510.448 117.559Z" fill="#FFAD61"/>
<path d="M527.445 113.086L533.944 109.89L531.944 139.928L525.446 142.484L527.445 113.086Z" fill="#FFAD61"/>
<path d="M541.477 107.334L547.975 103.499L545.476 132.898L539.477 135.454L541.477 107.334Z" fill="#FFAD61"/>
<path d="M445.893 125.815H437.48L438.457 153.497H445.295L445.893 125.815Z" fill="#FFAD61"/>
<path d="M425.879 124.232L418.553 122.954L419.53 151.714L426.856 152.353L425.879 124.232Z" fill="#FFAD61"/>
<path d="M409.055 121.944L401.729 120.666L403.194 149.425L410.52 150.703L409.055 121.944Z" fill="#FFAD61"/>
<path d="M392.018 117.559L385.18 115.642L387.12 144.402L393.958 146.958L392.018 117.559Z" fill="#FFAD61"/>
<path d="M375.412 113.086L369.063 109.89L371.017 139.928L377.366 142.484L375.412 113.086Z" fill="#FFAD61"/>
<path d="M360.76 107.334L354.411 103.499L356.853 132.898L362.714 135.454L360.76 107.334Z" fill="#FFAD61"/>
<path d="M445.858 158.432H438.532V164.726H445.858L445.858 158.432Z" fill="#FFAD61"/>
<path d="M426.439 157.86L419.605 156.715V163.01L426.439 164.154V157.86Z" fill="#FFAD61"/>
<path d="M410.667 154.999L403.832 153.617V159.577L410.667 161.293V154.999Z" fill="#FFAD61"/>
<path d="M394.121 151.892L387.533 149.849V156.143L394.121 157.86L394.121 151.892Z" fill="#FFAD61"/>
<path d="M377.584 145.709L371.235 143.554V150.421L377.584 152.71L377.584 145.709Z" fill="#FFAD61"/>
<path d="M362.823 139.549L356.514 136.688L357.04 143.555L362.823 146.416V139.549Z" fill="#FFAD61"/>
<path d="M360.747 132.305L381.476 137.026L385.983 182.66L365.704 179.513L360.747 132.305Z" fill="#818BA6"/>
<path d="M457.459 158.432H464.785V164.727H457.459L457.459 158.432Z" fill="#FFAD61"/>
<path d="M476.386 157.288L483.221 156.143V162.437L476.386 163.582V157.288Z" fill="#FFAD61"/>
<path d="M492.65 154.999L499.485 153.617V159.577L492.65 161.293V154.999Z" fill="#FFAD61"/>
<path d="M508.984 151.32L515.572 149.277L514.767 155.571L507.932 157.86L508.984 151.32Z" fill="#FFAD61"/>
<path d="M525.807 145.684L532.157 143.529L531.065 150.421L524.756 152.71L525.807 145.684Z" fill="#FFAD61"/>
<path d="M539.477 139.549L544.735 136.688L543.158 144.127L538.426 146.416L539.477 139.549Z" fill="#FFAD61"/>
<path d="M459.562 267.596L467.593 267.128L466.651 291.186H460.057L459.562 267.596Z" fill="#FFAD61"/>
<path d="M478.832 266.301L485.896 265.255L484.954 288.79L477.89 289.313L478.832 266.301Z" fill="#FFAD61"/>
<path d="M494.162 264.428L501.227 263.382L499.814 286.917L492.75 287.963L494.162 264.428Z" fill="#FFAD61"/>
<path d="M509.98 260.84L516.574 259.271L514.704 282.806L508.11 284.898L509.98 260.84Z" fill="#FFAD61"/>
<path d="M525.994 257.179L532.117 254.564L530.233 279.145L524.11 281.237L525.994 257.179Z" fill="#FFAD61"/>
<path d="M449.325 267.153H441.686L442.573 292.053H448.782L449.325 267.153Z" fill="#FFAD61"/>
<path d="M430.874 265.203L424.222 264.053L425.109 289.922L431.761 290.497L430.874 265.203Z" fill="#FFAD61"/>
<path d="M415.597 263.144L408.944 261.994L410.275 287.863L416.927 289.013L415.597 263.144Z" fill="#FFAD61"/>
<path d="M400.126 259.2L393.918 257.476L395.679 283.345L401.888 285.644L400.126 259.2Z" fill="#FFAD61"/>
<path d="M385.048 255.176L379.282 252.302L381.056 279.32L386.822 281.62L385.048 255.176Z" fill="#FFAD61"/>
<path d="M371.743 250.002L365.977 246.553L368.195 272.997L373.517 275.297L371.743 250.002Z" fill="#FFAD61"/>
<path d="M448.611 255.708H441.686V260.65H448.611L448.611 255.708Z" fill="#FFAD61"/>
<path d="M431.323 254.318L424.862 253.419V258.361L431.323 259.259V254.318Z" fill="#FFAD61"/>
<path d="M416.602 252.216L410.141 251.131V255.81L416.602 257.157V252.216Z" fill="#FFAD61"/>
<path d="M400.595 248.158L394.368 246.553V251.495L400.596 252.842L400.595 248.158Z" fill="#FFAD61"/>
<path d="M384.842 242.191L378.841 240.5V245.89L384.842 247.687L384.842 242.191Z" fill="#FFAD61"/>
<path d="M370.889 236.21L364.926 233.964L365.423 239.355L370.889 241.601V236.21Z" fill="#FFAD61"/>
<path d="M460.614 255.612H467.539V260.553H460.614L460.614 255.612Z" fill="#FFAD61"/>
<path d="M478.504 254.714L484.965 253.815V258.757L478.504 259.655V254.714Z" fill="#FFAD61"/>
<path d="M494.262 253.36L500.723 252.275V256.954L494.262 258.301V253.36Z" fill="#FFAD61"/>
<path d="M511.029 250.446L517.256 248.842L516.495 253.783L510.035 255.58L511.029 250.446Z" fill="#FFAD61"/>
<path d="M527.167 245.604L533.168 243.913L532.136 249.323L526.173 251.12L527.167 245.604Z" fill="#FFAD61"/>
<path opacity="0.5" d="M362.297 67.4496L341.793 57.7219V64.5885C350.205 70.0818 357.215 72.218 359.668 72.5995C363.875 84.0439 370.231 108.425 391.74 113.227C412.244 117.805 436.429 91.4827 447.996 86.3327C490.056 88.6216 540.879 72.7903 560.507 63.444L561.559 54.2886C537.164 73.5151 474.283 77.5587 445.893 77.1772C433.8 88.4308 406.04 109.908 391.74 105.788C377.439 101.668 366.153 78.5124 362.297 67.4496Z" fill="#82624A"/>
<path d="M330.052 31.6155C335.941 11.0157 409.967 3.95833 446.245 1.28799C496.192 -2.3885 593.457 6.20905 576.632 39.6265C573.546 45.7565 568.431 50.9789 561.911 55.4147C532.886 75.1602 476.01 79.316 446.245 78.5373C437.657 87.1205 416.066 104.859 398.401 107.148C380.735 109.437 367.206 82.9243 362.649 69.3818C349.33 65.3763 324.164 52.2153 330.052 31.6155Z" fill="#FCEADC"/>
<path d="M561.911 55.4147C532.886 75.1602 476.01 79.316 446.245 78.5373C437.657 87.1205 416.066 104.859 398.401 107.148C380.735 109.437 367.206 82.9243 362.649 69.3818C349.33 65.3763 324.164 52.2153 330.052 31.6155C335.941 11.0157 409.967 3.95833 446.245 1.28799C496.192 -2.3885 593.457 6.20905 576.632 39.6265C573.546 45.7565 568.431 50.9789 561.911 55.4147" stroke="#EEDCCE"/>
<path d="M430.12 80.6102C414.347 80.6102 385.606 76.9861 373.864 73.1713C377.544 80.2287 383.117 95.8311 392.791 99.4933C402.465 103.156 423.285 88.8119 430.12 80.6102Z" fill="#8695C0"/>
<path d="M522.653 15.3774L381.224 60.0104C425.738 61.5363 522.653 60.4681 554.198 43.9883C585.744 27.5084 546.312 18.0478 522.653 15.3774Z" fill="#8695C0"/>
<path d="M430.12 80.6102C414.347 80.6102 385.606 76.9861 373.864 73.1713C377.544 80.2287 383.117 95.8311 392.791 99.4933C402.465 103.156 423.285 88.8119 430.12 80.6102Z" stroke="#818CBF"/>
<path d="M522.653 15.3774L381.224 60.0104C425.738 61.5363 522.653 60.4681 554.198 43.9883C585.744 27.5084 546.312 18.0478 522.653 15.3774Z" stroke="#818CBF"/>
<path d="M312.573 55.415L280.501 300.558C212.327 338.681 146.607 314.647 120.671 300.558L105.96 179.248L91.2478 57.938C127.811 73.4945 223.266 94.769 312.573 55.415Z" fill="#E7C8B0" stroke="#B49875"/>
<path d="M310.643 76.0327C222.736 119.063 129.607 93.9622 94.0312 76.0327V89.1937C194.556 130.851 277.871 106.551 306.963 89.1937L310.643 76.0327Z" fill="#818BA6" stroke="#818CBF"/>
<path d="M281.201 288.325C274.892 293.475 183.936 320.942 118.742 283.748L119.793 291.759C181.307 318.081 224.419 314.075 281.201 295.192V288.325Z" fill="#818BA6" stroke="#818CBF"/>
<path d="M207.595 125.815L216.119 125.243L215.119 154.642H208.121L207.595 125.815Z" fill="#FFAD61"/>
<path d="M228.048 124.232L235.546 122.954L234.547 151.714L227.048 152.353L228.048 124.232Z" fill="#FFAD61"/>
<path d="M244.32 121.944L251.819 120.666L250.319 149.425L242.821 150.703L244.32 121.944Z" fill="#FFAD61"/>
<path d="M261.11 117.559L268.109 115.642L266.123 144.402L259.125 146.958L261.11 117.559Z" fill="#FFAD61"/>
<path d="M278.107 113.086L284.605 109.89L282.606 139.928L276.107 142.484L278.107 113.086Z" fill="#FFAD61"/>
<path d="M292.138 107.334L298.637 103.499L296.137 132.898L290.139 135.454L292.138 107.334Z" fill="#FFAD61"/>
<path d="M196.554 125.815H188.142L189.119 153.497H195.956L196.554 125.815Z" fill="#FFAD61"/>
<path d="M176.541 124.232L169.215 122.954L170.191 151.714L177.518 152.353L176.541 124.232Z" fill="#FFAD61"/>
<path d="M159.717 121.944L152.391 120.666L153.856 149.425L161.182 150.703L159.717 121.944Z" fill="#FFAD61"/>
<path d="M142.68 117.559L135.842 115.642L137.782 144.402L144.619 146.958L142.68 117.559Z" fill="#FFAD61"/>
<path d="M126.074 113.086L119.725 109.89L121.678 139.928L128.028 142.484L126.074 113.086Z" fill="#FFAD61"/>
<path d="M111.422 107.334L105.072 103.499L107.514 132.898L113.375 135.454L111.422 107.334Z" fill="#FFAD61"/>
<path d="M196.52 158.432H189.193V164.726H196.52L196.52 158.432Z" fill="#FFAD61"/>
<path d="M177.101 157.86L170.266 156.715V163.01L177.101 164.154V157.86Z" fill="#FFAD61"/>
<path d="M161.328 154.999L154.494 153.617V159.577L161.328 161.293V154.999Z" fill="#FFAD61"/>
<path d="M144.782 151.892L138.195 149.849V156.143L144.783 157.86L144.782 151.892Z" fill="#FFAD61"/>
<path d="M128.246 145.709L121.897 143.554V150.421L128.246 152.71L128.246 145.709Z" fill="#FFAD61"/>
<path d="M113.484 139.549L107.175 136.688L107.701 143.555L113.484 146.416V139.549Z" fill="#FFAD61"/>
<path d="M111.408 132.305L132.138 137.026L136.644 182.66L116.365 179.513L111.408 132.305Z" fill="#818BA6"/>
<path d="M208.121 158.432H215.447V164.727H208.121L208.121 158.432Z" fill="#FFAD61"/>
<path d="M227.048 157.288L233.883 156.143V162.437L227.048 163.582V157.288Z" fill="#FFAD61"/>
<path d="M243.312 154.999L250.147 153.617V159.577L243.312 161.293V154.999Z" fill="#FFAD61"/>
<path d="M259.645 151.32L266.233 149.277L265.428 155.571L258.594 157.86L259.645 151.32Z" fill="#FFAD61"/>
<path d="M276.469 145.684L282.818 143.529L281.727 150.421L275.417 152.71L276.469 145.684Z" fill="#FFAD61"/>
<path d="M290.139 139.549L295.396 136.688L293.819 144.127L289.087 146.416L290.139 139.549Z" fill="#FFAD61"/>
<path d="M210.224 267.596L218.255 267.128L217.313 291.186H210.719L210.224 267.596Z" fill="#FFAD61"/>
<path d="M229.493 266.3L236.558 265.254L235.616 288.789L228.551 289.312L229.493 266.3Z" fill="#FFAD61"/>
<path d="M244.824 264.427L251.889 263.381L250.476 286.916L243.411 287.962L244.824 264.427Z" fill="#FFAD61"/>
<path d="M260.642 260.839L267.236 259.271L265.365 282.805L258.772 284.897L260.642 260.839Z" fill="#FFAD61"/>
<path d="M276.655 257.178L282.778 254.563L280.894 279.144L274.771 281.236L276.655 257.178Z" fill="#FFAD61"/>
<path d="M199.987 267.153H192.348L193.235 292.053H199.444L199.987 267.153Z" fill="#FFAD61"/>
<path d="M181.536 265.202L174.883 264.053L175.77 289.922L182.423 290.497L181.536 265.202Z" fill="#FFAD61"/>
<path d="M166.258 263.143L159.606 261.994L160.936 287.863L167.589 289.012L166.258 263.143Z" fill="#FFAD61"/>
<path d="M150.788 259.2L144.579 257.475L146.34 283.344L152.549 285.644L150.788 259.2Z" fill="#FFAD61"/>
<path d="M135.709 255.176L129.944 252.301L131.718 279.32L137.483 281.619L135.709 255.176Z" fill="#FFAD61"/>
<path d="M122.404 250.002L116.639 246.553L118.857 272.997L124.178 275.296L122.404 250.002Z" fill="#FFAD61"/>
<path d="M199.273 255.708H192.348V260.649H199.273L199.273 255.708Z" fill="#FFAD61"/>
<path d="M181.984 254.317L175.524 253.419V258.36L181.984 259.259V254.317Z" fill="#FFAD61"/>
<path d="M167.263 252.216L160.802 251.13V255.809L167.263 257.157V252.216Z" fill="#FFAD61"/>
<path d="M151.256 248.157L145.03 246.553V251.494L151.257 252.842L151.256 248.157Z" fill="#FFAD61"/>
<path d="M135.504 242.191L129.502 240.499V245.89L135.504 247.686L135.504 242.191Z" fill="#FFAD61"/>
<path d="M121.551 236.21L115.587 233.964L116.084 239.354L121.551 241.601V236.21Z" fill="#FFAD61"/>
<path d="M211.275 255.612H218.2V260.553H211.275L211.275 255.612Z" fill="#FFAD61"/>
<path d="M229.166 254.714L235.626 253.815V258.757L229.166 259.655V254.714Z" fill="#FFAD61"/>
<path d="M244.924 253.36L251.384 252.275V256.954L244.924 258.301V253.36Z" fill="#FFAD61"/>
<path d="M261.691 250.446L267.918 248.842L267.157 253.783L260.696 255.58L261.691 250.446Z" fill="#FFAD61"/>
<path d="M277.828 245.604L283.83 243.913L282.798 249.323L276.834 251.12L277.828 245.604Z" fill="#FFAD61"/>
<path opacity="0.5" d="M112.959 67.4496L92.4541 57.7219V64.5885C100.866 70.0818 107.876 72.218 110.33 72.5995C114.536 84.0439 120.893 108.425 142.401 113.227C162.905 117.805 187.09 91.4827 198.657 86.3327C240.717 88.6216 291.541 72.7903 311.169 63.444L312.22 54.2886C287.825 73.5151 224.945 77.5587 196.554 77.1772C184.462 88.4308 156.702 109.908 142.401 105.788C128.1 101.668 116.814 78.5124 112.959 67.4496Z" fill="#82624A"/>
<path d="M80.7141 31.6155C86.6025 11.0157 160.629 3.95833 196.906 1.28799C246.853 -2.3885 344.118 6.20905 327.294 39.6265C324.208 45.7565 319.093 50.9789 312.573 55.4147C283.548 75.1602 226.672 79.316 196.906 78.5373C188.319 87.1205 166.728 104.859 149.062 107.148C131.397 109.437 117.868 82.9243 113.311 69.3818C99.9918 65.3763 74.8256 52.2153 80.7141 31.6155Z" fill="#FCEADC"/>
<path d="M312.573 55.4147C283.548 75.1602 226.672 79.316 196.906 78.5373C188.319 87.1205 166.728 104.859 149.062 107.148C131.397 109.437 117.868 82.9243 113.311 69.3818C99.9918 65.3763 74.8256 52.2153 80.7141 31.6155C86.6025 11.0157 160.629 3.95833 196.906 1.28799C246.853 -2.3885 344.118 6.20905 327.294 39.6265C324.208 45.7565 319.093 50.9789 312.573 55.4147" stroke="#EEDCCE"/>
<path d="M180.781 80.6102C165.009 80.6102 136.267 76.9861 124.525 73.1713C128.206 80.2287 133.779 95.8311 143.453 99.4933C153.127 103.156 173.947 88.8119 180.781 80.6102Z" fill="#8695C0"/>
<path d="M273.315 15.3774L131.886 60.0104C176.4 61.5363 273.315 60.4681 304.86 43.9883C336.405 27.5084 296.974 18.0478 273.315 15.3774Z" fill="#8695C0"/>
<path d="M180.781 80.6102C165.009 80.6102 136.267 76.9861 124.525 73.1713C128.206 80.2287 133.779 95.8311 143.453 99.4933C153.127 103.156 173.947 88.8119 180.781 80.6102Z" stroke="#818CBF"/>
<path d="M273.315 15.3774L131.886 60.0104C176.4 61.5363 273.315 60.4681 304.86 43.9883C336.405 27.5084 296.974 18.0478 273.315 15.3774Z" stroke="#818CBF"/>
<path d="M500.386 92.8306L468.315 337.973C400.14 376.096 334.421 352.063 308.485 337.973L293.773 216.663L279.061 95.3535C315.625 110.91 411.079 132.185 500.386 92.8306Z" fill="#E7C8B0" stroke="#B49875"/>
<path d="M498.456 113.448C410.55 156.479 317.421 131.378 281.845 113.448V126.609C382.369 168.267 465.684 143.966 494.776 126.609L498.456 113.448Z" fill="#818BA6" stroke="#818CBF"/>
<path d="M469.014 325.741C462.705 330.891 371.749 358.357 306.555 321.163L307.607 329.174C369.12 355.496 412.233 351.491 469.014 332.607V325.741Z" fill="#818BA6" stroke="#818CBF"/>
<path d="M395.408 163.231L403.932 162.659L402.933 192.058H395.934L395.408 163.231Z" fill="#FFAD61"/>
<path d="M415.861 161.648L423.36 160.37L422.36 189.13L414.861 189.769L415.861 161.648Z" fill="#FFAD61"/>
<path d="M432.134 159.359L439.632 158.081L438.133 186.841L430.634 188.119L432.134 159.359Z" fill="#FFAD61"/>
<path d="M448.923 154.975L455.922 153.058L453.937 181.817L446.938 184.373L448.923 154.975Z" fill="#FFAD61"/>
<path d="M465.92 150.501L472.419 147.306L470.419 177.343L463.92 179.9L465.92 150.501Z" fill="#FFAD61"/>
<path d="M479.952 144.749L486.45 140.915L483.951 170.313L477.952 172.869L479.952 144.749Z" fill="#FFAD61"/>
<path d="M384.367 163.231H375.955L376.932 190.913H383.77L384.367 163.231Z" fill="#FFAD61"/>
<path d="M364.354 161.648L357.028 160.37L358.005 189.13L365.331 189.769L364.354 161.648Z" fill="#FFAD61"/>
<path d="M347.53 159.359L340.204 158.081L341.669 186.841L348.995 188.119L347.53 159.359Z" fill="#FFAD61"/>
<path d="M330.493 154.975L323.655 153.058L325.595 181.817L332.433 184.373L330.493 154.975Z" fill="#FFAD61"/>
<path d="M313.887 150.501L307.538 147.306L309.492 177.343L315.841 179.9L313.887 150.501Z" fill="#FFAD61"/>
<path d="M299.235 144.749L292.886 140.915L295.328 170.313L301.189 172.87L299.235 144.749Z" fill="#FFAD61"/>
<path d="M384.333 195.847H377.007V202.142H384.333L384.333 195.847Z" fill="#FFAD61"/>
<path d="M364.914 195.275L358.079 194.131V200.425L364.914 201.57V195.275Z" fill="#FFAD61"/>
<path d="M349.142 192.414L342.307 191.032V196.992L349.142 198.709V192.414Z" fill="#FFAD61"/>
<path d="M332.595 189.308L326.008 187.264V193.559L332.596 195.275L332.595 189.308Z" fill="#FFAD61"/>
<path d="M316.059 183.125L309.71 180.97V187.836L316.059 190.125L316.059 183.125Z" fill="#FFAD61"/>
<path d="M301.298 176.965L294.989 174.104L295.515 180.97L301.298 183.831V176.965Z" fill="#FFAD61"/>
<path d="M299.221 169.721L319.951 174.441L324.458 220.076L304.179 216.929L299.221 169.721Z" fill="#818BA6"/>
<path d="M395.934 195.848H403.26V202.142H395.934L395.934 195.848Z" fill="#FFAD61"/>
<path d="M414.861 194.703L421.696 193.559V199.853L414.861 200.997V194.703Z" fill="#FFAD61"/>
<path d="M431.125 192.414L437.96 191.032V196.992L431.125 198.709V192.414Z" fill="#FFAD61"/>
<path d="M447.459 188.736L454.046 186.692L453.242 192.987L446.407 195.276L447.459 188.736Z" fill="#FFAD61"/>
<path d="M464.282 183.099L470.632 180.944L469.54 187.836L463.231 190.125L464.282 183.099Z" fill="#FFAD61"/>
<path d="M477.952 176.965L483.21 174.104L481.632 181.542L476.901 183.831L477.952 176.965Z" fill="#FFAD61"/>
<path d="M398.037 305.012L406.068 304.544L405.126 328.602H398.532L398.037 305.012Z" fill="#FFAD61"/>
<path d="M417.307 303.716L424.371 302.67L423.429 326.205L416.365 326.728L417.307 303.716Z" fill="#FFAD61"/>
<path d="M432.638 301.843L439.702 300.797L438.289 324.332L431.225 325.378L432.638 301.843Z" fill="#FFAD61"/>
<path d="M448.456 298.256L455.049 296.687L453.179 320.222L446.585 322.314L448.456 298.256Z" fill="#FFAD61"/>
<path d="M464.469 294.594L470.592 291.979L468.708 316.56L462.585 318.652L464.469 294.594Z" fill="#FFAD61"/>
<path d="M387.8 304.568H380.161L381.048 329.468H387.257L387.8 304.568Z" fill="#FFAD61"/>
<path d="M369.349 302.618L362.697 301.469L363.584 327.338L370.236 327.913L369.349 302.618Z" fill="#FFAD61"/>
<path d="M354.072 300.559L347.42 299.41L348.75 325.279L355.403 326.428L354.072 300.559Z" fill="#FFAD61"/>
<path d="M338.602 296.616L332.393 294.892L334.154 320.761L340.363 323.06L338.602 296.616Z" fill="#FFAD61"/>
<path d="M323.523 292.592L317.757 289.718L319.531 316.736L325.297 319.036L323.523 292.592Z" fill="#FFAD61"/>
<path d="M310.218 287.418L304.453 283.969L306.67 310.413L311.992 312.712L310.218 287.418Z" fill="#FFAD61"/>
<path d="M387.086 293.125H380.161V298.066H387.086L387.086 293.125Z" fill="#FFAD61"/>
<path d="M369.798 291.734L363.337 290.835V295.777L369.798 296.675V291.734Z" fill="#FFAD61"/>
<path d="M355.077 289.632L348.616 288.547V293.226L355.077 294.573V289.632Z" fill="#FFAD61"/>
<path d="M339.07 285.573L332.843 283.969V288.91L339.071 290.258L339.07 285.573Z" fill="#FFAD61"/>
<path d="M323.317 279.607L317.316 277.915V283.306L323.317 285.103L323.317 279.607Z" fill="#FFAD61"/>
<path d="M309.365 273.626L303.401 271.38L303.898 276.77L309.365 279.017V273.626Z" fill="#FFAD61"/>
<path d="M399.089 293.027H406.014V297.969H399.089L399.089 293.027Z" fill="#FFAD61"/>
<path d="M416.979 292.129L423.44 291.231V296.172L416.979 297.071V292.129Z" fill="#FFAD61"/>
<path d="M432.737 290.776L439.198 289.69V294.369L432.737 295.717V290.776Z" fill="#FFAD61"/>
<path d="M449.504 287.862L455.731 286.257L454.971 291.199L448.51 292.996L449.504 287.862Z" fill="#FFAD61"/>
<path d="M465.642 283.02L471.643 281.328L470.611 286.739L464.648 288.536L465.642 283.02Z" fill="#FFAD61"/>
<path d="M527.512 62.5762L514.154 65.5524H508.488V79.1581L502.821 88.9372L497.964 95.3149L468.415 327.887H491.487L521.035 101.693L527.512 95.3149L529.94 81.284L527.512 62.5762Z" fill="#544D4D" fill-opacity="0.22"/>
<path opacity="0.5" d="M300.772 104.865L280.268 95.1374V102.004C288.68 107.497 295.69 109.634 298.143 110.015C302.349 121.459 308.706 145.841 330.214 150.642C350.719 155.22 374.904 128.898 386.47 123.748C428.531 126.037 479.354 110.206 498.982 100.86L500.034 91.7041C475.639 110.931 412.758 114.974 384.367 114.593C372.275 125.846 344.515 147.324 330.214 143.204C315.914 139.084 304.628 115.928 300.772 104.865Z" fill="#82624A"/>
<path d="M268.528 69.031C274.416 48.4312 348.443 41.3739 384.72 38.7035C434.667 35.027 531.932 43.6246 515.107 77.042C512.021 83.172 506.906 88.3945 500.386 92.8302C471.361 112.576 414.486 116.732 384.72 115.953C376.132 124.536 354.541 142.275 336.876 144.564C319.21 146.852 305.681 120.34 301.124 106.797C287.805 102.792 262.639 89.6308 268.528 69.031Z" fill="#FCEADC"/>
<path d="M500.386 92.8302C471.361 112.576 414.486 116.732 384.72 115.953C376.132 124.536 354.541 142.275 336.876 144.564C319.21 146.852 305.681 120.34 301.124 106.797C287.805 102.792 262.639 89.6308 268.528 69.031C274.416 48.4312 348.443 41.3739 384.72 38.7035C434.667 35.027 531.932 43.6246 515.107 77.042C512.021 83.172 506.906 88.3945 500.386 92.8302" stroke="#EEDCCE"/>
<path d="M368.595 118.026C352.822 118.026 324.081 114.402 312.339 110.587C316.019 117.644 321.592 133.247 331.266 136.909C340.94 140.571 361.76 126.227 368.595 118.026Z" fill="#8695C0"/>
<path d="M461.128 52.793L319.699 97.4259C364.213 98.9518 461.128 97.8837 492.673 81.4038C524.219 64.924 484.787 55.4633 461.128 52.793Z" fill="#8695C0"/>
<path d="M368.595 118.026C352.822 118.026 324.081 114.402 312.339 110.587C316.019 117.644 321.592 133.247 331.266 136.909C340.94 140.571 361.76 126.227 368.595 118.026Z" stroke="#818CBF"/>
<path d="M461.128 52.793L319.699 97.4259C364.213 98.9518 461.128 97.8837 492.673 81.4038C524.219 64.924 484.787 55.4633 461.128 52.793Z" stroke="#818CBF"/>
<path d="M257.935 64.2769L244.577 67.2531H238.911V80.8588L233.244 90.6379L228.387 97.0156L198.838 329.588H221.91L251.459 103.393L257.935 97.0156L260.363 82.9847L257.935 64.2769Z" fill="#544D4D" fill-opacity="0.22"/>
<path d="M233.238 88.5786L201.167 333.721C132.992 371.844 67.2721 347.811 41.3365 333.721L26.6247 212.411L11.9128 91.1016C48.4765 106.658 143.931 127.933 233.238 88.5786Z" fill="#E7C8B0" stroke="#B49875"/>
<path d="M231.308 109.197C143.402 152.227 50.2725 127.126 14.6963 109.197V122.358C115.221 164.015 198.536 139.715 227.628 122.358L231.308 109.197Z" fill="#818BA6" stroke="#818CBF"/>
<path d="M201.866 321.489C195.557 326.639 104.601 354.106 39.407 316.912L40.4585 324.923C101.972 351.245 145.084 347.239 201.866 328.356V321.489Z" fill="#818BA6" stroke="#818CBF"/>
<path d="M128.26 158.979L136.784 158.407L135.784 187.806H128.786L128.26 158.979Z" fill="#FFAD61"/>
<path d="M148.713 157.396L156.211 156.118L155.212 184.878L147.713 185.517L148.713 157.396Z" fill="#FFAD61"/>
<path d="M164.985 155.108L172.484 153.83L170.984 182.589L163.486 183.867L164.985 155.108Z" fill="#FFAD61"/>
<path d="M181.775 150.723L188.774 148.806L186.789 177.565L179.79 180.122L181.775 150.723Z" fill="#FFAD61"/>
<path d="M198.772 146.249L205.27 143.054L203.271 173.091L196.772 175.648L198.772 146.249Z" fill="#FFAD61"/>
<path d="M212.803 140.498L219.302 136.663L216.803 166.062L210.804 168.618L212.803 140.498Z" fill="#FFAD61"/>
<path d="M117.219 158.979H108.807L109.784 186.661H116.621L117.219 158.979Z" fill="#FFAD61"/>
<path d="M97.2058 157.396L89.8797 156.118L90.8565 184.878L98.1826 185.517L97.2058 157.396Z" fill="#FFAD61"/>
<path d="M80.3817 155.108L73.0556 153.83L74.5208 182.589L81.8469 183.867L80.3817 155.108Z" fill="#FFAD61"/>
<path d="M63.3449 150.723L56.5072 148.806L58.4466 177.565L65.2844 180.122L63.3449 150.723Z" fill="#FFAD61"/>
<path d="M46.739 146.249L40.3897 143.054L42.3433 173.091L48.6926 175.648L46.739 146.249Z" fill="#FFAD61"/>
<path d="M32.0867 140.498L25.7374 136.663L28.1794 166.062L34.0403 168.618L32.0867 140.498Z" fill="#FFAD61"/>
<path d="M117.185 191.596H109.858V197.89H117.185L117.185 191.596Z" fill="#FFAD61"/>
<path d="M97.7661 191.023L90.9313 189.879V196.173L97.7661 197.318V191.023Z" fill="#FFAD61"/>
<path d="M81.9934 188.163L75.1586 186.78V192.74L81.9934 194.457V188.163Z" fill="#FFAD61"/>
<path d="M65.4471 185.056L58.8594 183.012V189.307L65.4476 191.023L65.4471 185.056Z" fill="#FFAD61"/>
<path d="M48.9109 178.873L42.5616 176.718V183.585L48.9109 185.874L48.9109 178.873Z" fill="#FFAD61"/>
<path d="M34.1494 172.713L27.8403 169.852L28.3661 176.718L34.1494 179.579V172.713Z" fill="#FFAD61"/>
<path d="M32.073 165.469L52.8028 170.19L57.3093 215.824L37.0301 212.677L32.073 165.469Z" fill="#818BA6"/>
<path d="M128.786 191.596H136.112V197.891H128.786L128.786 191.596Z" fill="#FFAD61"/>
<path d="M147.713 190.452L154.548 189.307V195.602L147.713 196.746V190.452Z" fill="#FFAD61"/>
<path d="M163.977 188.163L170.812 186.78V192.74L163.977 194.457V188.163Z" fill="#FFAD61"/>
<path d="M180.31 184.484L186.898 182.44L186.093 188.735L179.258 191.024L180.31 184.484Z" fill="#FFAD61"/>
<path d="M197.134 178.848L203.483 176.693L202.392 183.585L196.083 185.874L197.134 178.848Z" fill="#FFAD61"/>
<path d="M210.804 172.713L216.061 169.852L214.484 177.29L209.752 179.579L210.804 172.713Z" fill="#FFAD61"/>
<path d="M130.889 300.76L138.92 300.292L137.978 324.349H131.384L130.889 300.76Z" fill="#FFAD61"/>
<path d="M150.158 299.464L157.223 298.418L156.281 321.953L149.216 322.476L150.158 299.464Z" fill="#FFAD61"/>
<path d="M165.489 297.591L172.554 296.545L171.141 320.08L164.076 321.126L165.489 297.591Z" fill="#FFAD61"/>
<path d="M181.307 294.004L187.901 292.435L186.031 315.969L179.437 318.061L181.307 294.004Z" fill="#FFAD61"/>
<path d="M197.32 290.343L203.443 287.728L201.559 312.308L195.437 314.4L197.32 290.343Z" fill="#FFAD61"/>
<path d="M120.652 300.316H113.013L113.9 325.216H120.109L120.652 300.316Z" fill="#FFAD61"/>
<path d="M102.201 298.367L95.5482 297.217L96.4352 323.086L103.088 323.661L102.201 298.367Z" fill="#FFAD61"/>
<path d="M86.9234 296.307L80.271 295.158L81.6015 321.027L88.2539 322.176L86.9234 296.307Z" fill="#FFAD61"/>
<path d="M71.4531 292.364L65.2442 290.639L67.0053 316.508L73.2144 318.808L71.4531 292.364Z" fill="#FFAD61"/>
<path d="M56.3745 288.34L50.609 285.465L52.383 312.484L58.1484 314.783L56.3745 288.34Z" fill="#FFAD61"/>
<path d="M43.0695 283.166L37.3041 279.717L39.5215 306.161L44.8435 308.46L43.0695 283.166Z" fill="#FFAD61"/>
<path d="M119.938 288.872H113.013V293.813H119.938L119.938 288.872Z" fill="#FFAD61"/>
<path d="M102.649 287.481L96.1887 286.583V291.524L102.649 292.423V287.481Z" fill="#FFAD61"/>
<path d="M87.928 285.38L81.4675 284.294V288.973L87.928 290.321V285.38Z" fill="#FFAD61"/>
<path d="M71.9214 281.321L65.6946 279.717V284.658L71.9219 286.006L71.9214 281.321Z" fill="#FFAD61"/>
<path d="M56.1687 275.354L50.1671 273.663V279.053L56.1687 280.85L56.1687 275.354Z" fill="#FFAD61"/>
<path d="M42.2158 269.374L36.2523 267.128L36.7492 272.519L42.2158 274.765V269.374Z" fill="#FFAD61"/>
<path d="M131.94 288.776H138.865V293.718H131.94L131.94 288.776Z" fill="#FFAD61"/>
<path d="M149.831 287.878L156.291 286.979V291.921L149.831 292.819V287.878Z" fill="#FFAD61"/>
<path d="M165.589 286.524L172.049 285.439V290.118L165.589 291.466V286.524Z" fill="#FFAD61"/>
<path d="M182.356 283.611L188.583 282.006L187.822 286.948L181.361 288.745L182.356 283.611Z" fill="#FFAD61"/>
<path d="M198.493 278.769L204.495 277.077L203.463 282.487L197.499 284.284L198.493 278.769Z" fill="#FFAD61"/>
<path opacity="0.5" d="M33.6236 100.613L13.1191 90.8854V97.7521C21.5312 103.245 28.5413 105.382 30.9949 105.763C35.2009 117.207 41.5576 141.589 63.066 146.39C83.5705 150.968 107.755 124.646 119.322 119.496C161.383 121.785 212.206 105.954 231.834 96.6076L232.885 87.4521C208.49 106.679 145.61 110.722 117.219 110.341C105.127 121.594 77.3666 143.072 63.066 138.952C48.7654 134.832 37.4792 111.676 33.6236 100.613Z" fill="#82624A"/>
<path d="M1.3791 64.7796C7.26757 44.1797 81.2941 37.1224 117.571 34.4521C167.518 30.7756 264.783 39.3731 247.959 72.7906C244.873 78.9206 239.758 84.143 233.238 88.5787C204.213 108.324 147.337 112.48 117.571 111.701C108.984 120.285 87.3929 138.023 69.7274 140.312C52.062 142.601 38.5326 116.088 33.976 102.546C20.6568 98.5403 -4.50938 85.3794 1.3791 64.7796Z" fill="#FCEADC"/>
<path d="M233.238 88.5787C204.213 108.324 147.337 112.48 117.571 111.701C108.984 120.285 87.3929 138.023 69.7274 140.312C52.062 142.601 38.5326 116.088 33.976 102.546C20.6568 98.5403 -4.50938 85.3794 1.3791 64.7796C7.26757 44.1797 81.2941 37.1224 117.571 34.4521C167.518 30.7756 264.783 39.3731 247.959 72.7906C244.873 78.9206 239.758 84.143 233.238 88.5787" stroke="#EEDCCE"/>
<path d="M101.446 113.774C85.6737 113.774 56.9323 110.15 45.1904 106.335C48.8707 113.393 54.4437 128.995 64.1177 132.657C73.7916 136.32 94.6115 121.976 101.446 113.774Z" fill="#8695C0"/>
<path d="M193.98 48.5415L52.551 93.1744C97.0651 94.7003 193.98 93.6322 225.525 77.1523C257.07 60.6725 217.639 51.2118 193.98 48.5415Z" fill="#8695C0"/>
<path d="M101.446 113.774C85.6737 113.774 56.9323 110.15 45.1904 106.335C48.8707 113.393 54.4437 128.995 64.1177 132.657C73.7916 136.32 94.6115 121.976 101.446 113.774Z" stroke="#818CBF"/>
<path d="M193.98 48.5415L52.551 93.1744C97.0651 94.7003 193.98 93.6322 225.525 77.1523C257.07 60.6725 217.639 51.2118 193.98 48.5415Z" stroke="#818CBF"/>
</svg>
