<svg width="835" height="142" viewBox="0 0 835 142" fill="none" xmlns="http://www.w3.org/2000/svg">
<rect width="835" height="142" fill="#40464A"/>
<path d="M10 26H827V132H10V26Z" fill="#FBF6EA"/>
<path d="M17 32H92V125H17V32Z" fill="#3FBFC5"/>
<path d="M99 32H174V125H99V32Z" fill="#3FBFC5"/>
<path d="M181 32H256V125H181V32Z" fill="#3FBFC5"/>
<path d="M263 32H338V125H263V32Z" fill="#3FBFC5"/>
<path d="M345 32H420V125H345V32Z" fill="#3FBFC5"/>
<path d="M427 32H502V125H427V32Z" fill="#3FBFC5"/>
<path d="M509 32H584V125H509V32Z" fill="#3FBFC5"/>
<path d="M591 32H666V125H591V32Z" fill="#3FBFC5"/>
<path d="M673 32H820V125H673V32Z" fill="#3FBFC5"/>
<mask id="mask0_1348_16" style="mask-type:alpha" maskUnits="userSpaceOnUse" x="17" y="32" width="803" height="93">
<path d="M17 32H92V125H17V32Z" fill="#3F5EC5"/>
<path d="M99 32H174V125H99V32Z" fill="#3F5EC5"/>
<path d="M181 32H256V125H181V32Z" fill="#3F5EC5"/>
<path d="M263 32H338V125H263V32Z" fill="#3F5EC5"/>
<path d="M345 32H420V125H345V32Z" fill="#3F5EC5"/>
<path d="M427 32H502V125H427V32Z" fill="#3F5EC5"/>
<path d="M509 32H584V125H509V32Z" fill="#3F5EC5"/>
<path d="M591 32H666V125H591V32Z" fill="#3F5EC5"/>
<path d="M673 32H820V125H673V32Z" fill="#3F5EC5"/>
</mask>
<g mask="url(#mask0_1348_16)">
<path d="M17 32H92V125H17V32Z" fill="#3FBFC5"/>
<path d="M99 32H174V125H99V32Z" fill="#3FBFC5"/>
<path d="M181 32H256V125H181V32Z" fill="#3FBFC5"/>
<path d="M263 32H338V125H263V32Z" fill="#3FBFC5"/>
<path d="M345 32H420V125H345V32Z" fill="#3FBFC5"/>
<path d="M427 32H502V125H427V32Z" fill="#3FBFC5"/>
<path d="M509 32H584V125H509V32Z" fill="#3FBFC5"/>
<path d="M591 32H666V125H591V32Z" fill="#3FBFC5"/>
<path d="M673 32H820V125H673V32Z" fill="#3FBFC5"/>
<rect x="17" y="78" width="803" height="47" fill="#2B8F94"/>
</g>
<path d="M696 55.5L720.5 79.2366L696 103L702.542 110L735 79.2366L702.542 48L696 55.5Z" fill="#FBF6EA"/>
<path d="M732 55.5L756.5 79.2366L732 103L738.542 110L771 79.2366L738.542 48L732 55.5Z" fill="#FBF6EA"/>
<path d="M767 55.5L791.5 79.2366L767 103L773.542 110L806 79.2366L773.542 48L767 55.5Z" fill="#FBF6EA"/>
<path d="M55.9611 107.684C53.4546 107.684 51.3583 107.296 49.6721 106.521C48.0086 105.724 46.687 104.573 45.7072 103.069C44.7502 101.543 44.0666 99.6969 43.6564 97.5322C43.2463 95.3447 43.0412 92.861 43.0412 90.0811V84.7148H51.7228V90.7646C51.7228 94.0003 51.9963 96.3245 52.5432 97.7373C53.09 99.1501 54.1724 99.8564 55.7902 99.8564C56.884 99.8564 57.7043 99.6058 58.2512 99.1045C58.8208 98.5804 59.1968 97.7601 59.3791 96.6436C59.5842 95.5042 59.6867 94.0231 59.6867 92.2002C59.6867 89.9443 59.2082 87.8822 58.2512 86.0137C57.3169 84.1452 55.8928 82.2083 53.9787 80.2031L49.5353 75.623C48.3049 74.347 47.1883 72.9912 46.1857 71.5557C45.2059 70.1201 44.4198 68.5251 43.8273 66.7705C43.2577 64.9932 42.9728 63.0107 42.9728 60.8232C42.9728 57.6559 43.3602 54.9785 44.1349 52.791C44.9097 50.6035 46.2199 48.9515 48.0656 47.835C49.9113 46.6956 52.4406 46.126 55.6535 46.126C58.0689 46.126 60.0513 46.502 61.6008 47.2539C63.173 47.9831 64.3921 49.0654 65.258 50.501C66.1467 51.9137 66.7733 53.6455 67.1379 55.6963C67.5025 57.7243 67.6848 60.0485 67.6848 62.6689V66.3945H59.2424V62.0879C59.2424 60.265 59.1398 58.7497 58.9348 57.542C58.7525 56.3343 58.3993 55.4342 57.8752 54.8418C57.3511 54.2266 56.5877 53.9189 55.5851 53.9189C54.6281 53.9189 53.8534 54.1354 53.2609 54.5684C52.6685 54.9785 52.2355 55.6279 51.9621 56.5166C51.7114 57.3825 51.5861 58.5104 51.5861 59.9004C51.5861 61.1536 51.7456 62.236 52.0646 63.1475C52.3836 64.0589 52.8736 64.9362 53.5344 65.7793C54.1952 66.6224 55.0155 67.568 55.9953 68.6162L60.9514 73.9824C63.3211 76.5345 65.1668 79.1891 66.4885 81.9463C67.8101 84.7035 68.4709 87.7796 68.4709 91.1748C68.4709 94.7751 68.0835 97.8057 67.3088 100.267C66.534 102.705 65.2352 104.55 63.4123 105.804C61.5894 107.057 59.1057 107.684 55.9611 107.684ZM136.97 107.684C134.053 107.684 131.626 107.011 129.689 105.667C127.753 104.323 126.294 102.363 125.314 99.7881C124.357 97.1904 123.879 94.0573 123.879 90.3887V64.1729C123.879 61.4157 124.107 58.932 124.562 56.7217C125.018 54.5114 125.759 52.6201 126.784 51.0479C127.81 49.4756 129.177 48.2679 130.886 47.4248C132.595 46.5817 134.702 46.1602 137.209 46.1602C139.488 46.1602 141.424 46.5361 143.02 47.2881C144.637 48.0173 145.948 49.0768 146.95 50.4668C147.976 51.8568 148.716 53.543 149.172 55.5254C149.65 57.485 149.89 59.6953 149.89 62.1562V70.4277H141.037V62.7373C141.037 59.7751 140.786 57.599 140.285 56.209C139.784 54.7962 138.781 54.0898 137.277 54.0898C135.614 54.0898 134.497 54.8532 133.928 56.3799C133.381 57.8838 133.107 59.9915 133.107 62.7031V90.7988C133.107 92.8952 133.221 94.6156 133.449 95.96C133.7 97.2816 134.11 98.2614 134.68 98.8994C135.249 99.5146 136.047 99.8223 137.072 99.8223C138.622 99.8223 139.67 99.0931 140.217 97.6348C140.764 96.1764 141.037 93.8636 141.037 90.6963V82.083H150.026V90.5938C150.026 94.3991 149.582 97.5778 148.693 100.13C147.805 102.659 146.392 104.55 144.455 105.804C142.541 107.057 140.046 107.684 136.97 107.684ZM207.485 107V46.8438H216.645V71.1797H224.848V46.8438H234.009V107H224.848V79.041H216.645V107H207.485ZM292.732 107V46.8438H312.898V54.7393H301.892V72.2393H312.351V79.9639H301.892V99.1045H313.308V107H292.732ZM369.776 107V46.8438H383.277C386.33 46.8438 388.78 47.459 390.625 48.6895C392.471 49.8971 393.804 51.6517 394.624 53.9531C395.467 56.2546 395.889 59.0345 395.889 62.293L395.923 89.4316C395.923 93.3737 395.49 96.6549 394.624 99.2754C393.781 101.873 392.414 103.81 390.523 105.086C388.632 106.362 386.114 107 382.969 107H369.776ZM378.936 99.8906H381.944C383.015 99.8906 383.903 99.6742 384.61 99.2412C385.339 98.8083 385.874 98.0449 386.216 96.9512C386.581 95.8346 386.763 94.2624 386.763 92.2344L386.729 62.5322C386.729 59.4561 386.353 57.2458 385.601 55.9014C384.849 54.557 383.527 53.8848 381.636 53.8848H378.936V99.8906ZM466.78 107.684C463.659 107.684 461.118 107.103 459.158 105.94C457.199 104.756 455.763 102.978 454.852 100.608C453.94 98.2158 453.485 95.1966 453.485 91.5508V46.8438H462.645V91.3799C462.645 93.0661 462.713 94.5472 462.85 95.8232C463.009 97.0993 463.374 98.0905 463.944 98.7969C464.513 99.5033 465.447 99.8564 466.746 99.8564C468.045 99.8564 468.979 99.5146 469.549 98.8311C470.141 98.1247 470.506 97.1335 470.643 95.8574C470.779 94.5814 470.848 93.0889 470.848 91.3799V46.8438H480.008V91.5508C480.008 95.1966 479.552 98.2158 478.641 100.608C477.752 102.978 476.328 104.756 474.368 105.94C472.431 107.103 469.902 107.684 466.78 107.684ZM538.287 107V46.8438H547.447V99.207H559.034V107H538.287ZM613.69 107V46.8438H633.856V54.7393H622.85V72.2393H633.309V79.9639H622.85V99.1045H634.266V107H613.69Z" fill="#FBF6EA"/>
</svg>
