<svg width="724" height="190" viewBox="0 0 724 190" fill="none" xmlns="http://www.w3.org/2000/svg">
<rect width="724" height="190" fill="#40464A"/>
<path d="M188.334 127.2C185.184 127.2 181.984 126.8 178.734 126C175.484 125.25 172.734 124.225 170.484 122.925L173.184 110.7C176.084 112.25 178.784 113.275 181.284 113.775C183.834 114.225 186.184 114.45 188.334 114.45C190.334 114.45 191.834 114.125 192.834 113.475C193.884 112.825 194.409 111.95 194.409 110.85C194.409 109.85 193.834 109.075 192.684 108.525C191.534 107.925 190.034 107.375 188.184 106.875C186.384 106.375 184.459 105.8 182.409 105.15C180.359 104.45 178.409 103.55 176.559 102.45C174.759 101.3 173.284 99.8 172.134 97.95C170.984 96.05 170.409 93.675 170.409 90.825C170.409 87.225 171.284 84.125 173.034 81.525C174.784 78.875 177.284 76.85 180.534 75.45C183.784 74 187.609 73.275 192.009 73.275C194.959 73.275 197.834 73.675 200.634 74.475C203.484 75.225 205.759 76.25 207.459 77.55L204.909 88.575C202.359 87.525 200.059 86.775 198.009 86.325C196.009 85.825 194.109 85.575 192.309 85.575C190.209 85.575 188.609 85.875 187.509 86.475C186.409 87.075 185.859 87.875 185.859 88.875C185.859 89.825 186.434 90.6 187.584 91.2C188.734 91.8 190.209 92.375 192.009 92.925C193.809 93.475 195.734 94.1 197.784 94.8C199.834 95.5 201.759 96.425 203.559 97.575C205.359 98.725 206.834 100.225 207.984 102.075C209.134 103.925 209.709 106.25 209.709 109.05C209.709 114.85 207.809 119.325 204.009 122.475C200.259 125.625 195.034 127.2 188.334 127.2ZM239.52 127.2C234.12 127.2 229.395 126.125 225.345 123.975C221.345 121.775 218.22 118.7 215.97 114.75C213.77 110.8 212.67 106.2 212.67 100.95C212.67 95.55 213.82 90.775 216.12 86.625C218.47 82.475 221.67 79.225 225.72 76.875C229.82 74.475 234.52 73.275 239.82 73.275C245.72 73.275 250.345 74.425 253.695 76.725L251.67 88.65C250.22 87.95 248.695 87.45 247.095 87.15C245.545 86.8 244.07 86.625 242.67 86.625C238.57 86.625 235.345 87.85 232.995 90.3C230.645 92.75 229.47 96.15 229.47 100.5C229.47 104.6 230.595 107.825 232.845 110.175C235.145 112.475 238.32 113.625 242.37 113.625C243.97 113.625 245.42 113.475 246.72 113.175C248.07 112.875 249.72 112.325 251.67 111.525L253.77 123.375C249.42 125.925 244.67 127.2 239.52 127.2ZM259.156 126V74.4H276.031V93.825H292.006V74.4H308.956V126H292.006V105.675H276.031V126H259.156ZM317.237 126V74.4H353.462V85.8H335.462V94.95H351.887V104.4H335.462V114.225H353.462V126H317.237ZM360.23 126V74.4H378.155C385.655 74.4 391.755 75.475 396.455 77.625C401.205 79.775 404.68 82.75 406.88 86.55C409.13 90.35 410.255 94.775 410.255 99.825C410.255 108.075 407.53 114.5 402.08 119.1C396.68 123.7 388.455 126 377.405 126H360.23ZM376.805 112.875H381.605C385.605 112.875 388.58 111.675 390.53 109.275C392.48 106.825 393.455 103.625 393.455 99.675C393.455 96.025 392.505 93.1 390.605 90.9C388.755 88.65 385.755 87.525 381.605 87.525H376.805V112.875ZM440.484 127.2C435.484 127.2 431.084 126.3 427.284 124.5C423.484 122.7 420.534 120.125 418.434 116.775C416.334 113.375 415.284 109.325 415.284 104.625V74.4H431.934V103.875C431.934 107.225 432.734 109.7 434.334 111.3C435.984 112.85 438.134 113.625 440.784 113.625C443.584 113.625 445.709 112.825 447.159 111.225C448.659 109.625 449.409 107.425 449.409 104.625V74.4H466.284V104.625C466.284 109.075 465.184 113 462.984 116.4C460.784 119.8 457.734 122.45 453.834 124.35C449.984 126.25 445.534 127.2 440.484 127.2ZM473.463 126V74.4H489.663V114.15H507.963L507.213 126H473.463ZM513.673 126V74.4H549.898V85.8H531.898V94.95H548.323V104.4H531.898V114.225H549.898V126H513.673Z" fill="white"/>
</svg>
