<svg width="827" height="454" viewBox="0 0 827 454" fill="none" xmlns="http://www.w3.org/2000/svg">
<path d="M588.182 37.5869L258.909 46.1767L273.225 253.285L257 415.536L585.319 419.353C582.456 378.632 578.262 254.239 576.735 242.786C575.207 231.333 584.047 114.576 588.182 37.5869Z" fill="#F5E4CF"/>
<path d="M258.909 16.5897V47.1311L588.182 40.4501L592 8L579.592 16.5897L577.684 8L566.231 16.5897L557.641 10.8632L546.188 16.5897L539.507 10.8632L528.054 19.453L520.419 8L508.011 19.453L501.33 12.7721L491.786 16.5897L485.105 12.7721L471.743 16.5897L463.154 8L453.61 19.453L442.157 8L436.43 16.5897L429.749 12.7721L422.114 19.453L413.524 12.7721L405.889 22.3162L401.117 16.5897L392.527 22.3162L386.8 12.7721L378.211 22.3162L373.439 16.5897L368.667 22.3162L361.031 16.5897L352.441 22.3162L346.715 16.5897L339.08 22.3162L330.49 12.7721L321.9 22.3162L312.356 16.5897L308.538 19.453L300.903 16.5897L291.359 22.3162L283.724 16.5897L272.271 22.3162L258.909 16.5897Z" fill="#DF552E"/>
<path d="M264.635 44.2678L582.456 37.5869" stroke="#543A1B" stroke-width="0.4"/>
<path d="M264.635 40.45L582.456 33.769" stroke="#543A1B" stroke-width="0.4"/>
<path d="M266.544 28.9971V36.6324" stroke="#543A1B" stroke-width="0.6"/>
<path d="M279.906 28.043V35.6783" stroke="#543A1B" stroke-width="0.6"/>
<path d="M293.268 28.043V35.6783" stroke="#543A1B" stroke-width="0.6"/>
<path d="M308.538 28.043V35.6783" stroke="#543A1B" stroke-width="0.6"/>
<path d="M323.809 28.043V35.6783" stroke="#543A1B" stroke-width="0.6"/>
<path d="M337.171 26.1338V33.7691" stroke="#543A1B" stroke-width="0.6"/>
<path d="M350.533 26.1338V33.7691" stroke="#543A1B" stroke-width="0.6"/>
<path d="M363.895 26.1338V33.7691" stroke="#543A1B" stroke-width="0.6"/>
<path d="M377.256 26.1338V33.7691" stroke="#543A1B" stroke-width="0.6"/>
<path d="M392.527 26.1338V33.7691" stroke="#543A1B" stroke-width="0.6"/>
<path d="M405.889 26.1338V33.7691" stroke="#543A1B" stroke-width="0.6"/>
<path d="M419.25 26.1338V33.7691" stroke="#543A1B" stroke-width="0.6"/>
<path d="M432.612 24.2251V31.8604" stroke="#543A1B" stroke-width="0.6"/>
<path d="M447.883 24.2251V31.8604" stroke="#543A1B" stroke-width="0.6"/>
<path d="M463.154 24.2251V31.8604" stroke="#543A1B" stroke-width="0.6"/>
<path d="M476.516 24.2251V31.8604" stroke="#543A1B" stroke-width="0.6"/>
<path d="M491.786 24.2251V31.8604" stroke="#543A1B" stroke-width="0.6"/>
<path d="M507.057 24.2251V31.8604" stroke="#543A1B" stroke-width="0.6"/>
<path d="M520.418 24.2251V31.8604" stroke="#543A1B" stroke-width="0.6"/>
<path d="M535.689 24.2251V31.8604" stroke="#543A1B" stroke-width="0.6"/>
<path d="M549.051 24.2251V31.8604" stroke="#543A1B" stroke-width="0.6"/>
<path d="M562.413 24.2251V31.8604" stroke="#543A1B" stroke-width="0.6"/>
<path d="M575.775 24.2251V31.8604" stroke="#543A1B" stroke-width="0.6"/>
<path d="M257 442.259V411.718L586.274 418.399L590.091 450.849L577.684 442.259L575.775 450.849L564.322 442.259L555.732 447.986L544.279 442.259L537.598 447.986L526.145 439.396L518.51 450.849L506.103 439.396L499.422 446.077L489.878 442.259L483.197 446.077L469.835 442.259L461.245 450.849L451.701 439.396L440.248 450.849L434.521 442.259L427.84 446.077L420.205 439.396L411.615 446.077L403.98 436.533L399.208 442.259L390.618 436.533L384.892 446.077L376.302 436.533L371.53 442.259L366.758 436.533L359.123 442.259L350.533 436.533L344.806 442.259L337.171 436.533L328.581 446.077L319.991 436.533L310.447 442.259L306.63 439.396L298.994 442.259L289.45 436.533L281.815 442.259L270.362 436.533L257 442.259Z" fill="#DF552E"/>
<path d="M262.727 414.581L580.547 421.262" stroke="#543A1B" stroke-width="0.4"/>
<path d="M262.727 418.399L580.547 425.08" stroke="#543A1B" stroke-width="0.4"/>
<path d="M264.635 429.852V422.217" stroke="#543A1B" stroke-width="0.6"/>
<path d="M277.997 430.807V423.171" stroke="#543A1B" stroke-width="0.6"/>
<path d="M291.359 430.807V423.171" stroke="#543A1B" stroke-width="0.6"/>
<path d="M306.629 430.807V423.171" stroke="#543A1B" stroke-width="0.6"/>
<path d="M321.9 430.807V423.171" stroke="#543A1B" stroke-width="0.6"/>
<path d="M335.262 432.715V425.08" stroke="#543A1B" stroke-width="0.6"/>
<path d="M348.624 432.715V425.08" stroke="#543A1B" stroke-width="0.6"/>
<path d="M361.986 432.715V425.08" stroke="#543A1B" stroke-width="0.6"/>
<path d="M375.348 432.715V425.08" stroke="#543A1B" stroke-width="0.6"/>
<path d="M390.618 432.715V425.08" stroke="#543A1B" stroke-width="0.6"/>
<path d="M403.98 432.715V425.08" stroke="#543A1B" stroke-width="0.6"/>
<path d="M417.342 432.715V425.08" stroke="#543A1B" stroke-width="0.6"/>
<path d="M430.704 434.624V426.989" stroke="#543A1B" stroke-width="0.6"/>
<path d="M445.974 434.624V426.989" stroke="#543A1B" stroke-width="0.6"/>
<path d="M461.245 434.624V426.989" stroke="#543A1B" stroke-width="0.6"/>
<path d="M474.607 434.624V426.989" stroke="#543A1B" stroke-width="0.6"/>
<path d="M489.877 434.624V426.989" stroke="#543A1B" stroke-width="0.6"/>
<path d="M505.148 434.624V426.989" stroke="#543A1B" stroke-width="0.6"/>
<path d="M518.51 434.624V426.989" stroke="#543A1B" stroke-width="0.6"/>
<path d="M533.781 434.624V426.989" stroke="#543A1B" stroke-width="0.6"/>
<path d="M547.143 434.624V426.989" stroke="#543A1B" stroke-width="0.6"/>
<path d="M560.504 434.624V426.989" stroke="#543A1B" stroke-width="0.6"/>
<path d="M573.866 434.624V426.989" stroke="#543A1B" stroke-width="0.6"/>
<path d="M584.365 95.8065C507.248 79.0088 343.534 179.159 271.316 231.334L272.271 254.239L257 413.627L587.228 419.353L576.729 245.65L584.365 95.8065Z" fill="#FFAD61"/>
<path d="M347.128 332.376C347.716 331.696 349.472 330.404 351.798 330.67C351.491 329.574 352.355 327.008 358.274 325.515C360.029 323.201 364.143 318.853 366.56 319.979C367.838 317.374 370.84 312.168 372.629 312.184C372.797 310.356 373.723 306.485 376.083 305.623C375.528 303.594 375.007 299.322 377.367 298.46C376.922 295.462 376.671 289.231 379.227 288.298C381.784 287.364 382.659 285.743 382.777 285.049C384.206 283.876 387.496 282.712 389.221 287.436C390.947 292.161 390.434 298.893 389.962 301.669C390.659 303.832 391.478 308.869 389.175 311.718C388.785 314.818 387.273 321.127 384.281 322.431C383.158 324.794 380.124 329.807 376.978 330.956C376.474 332.627 374.142 336.008 368.848 336.157C369.267 337.305 368.908 339.984 364.116 341.511C360.847 342.984 353.895 345.411 352.246 343.336C350.596 341.261 350.3 339.027 350.358 338.169C348.68 337.387 345.684 335.135 347.128 332.376Z" fill="#FFD7B1"/>
<path d="M506.128 299.376C506.716 298.696 508.472 297.404 510.798 297.67C510.491 296.574 511.355 294.008 517.274 292.515C519.029 290.201 523.143 285.853 525.56 286.979C526.838 284.374 529.84 279.168 531.629 279.184C531.797 277.356 532.723 273.485 535.083 272.623C534.528 270.594 534.007 266.322 536.367 265.46C535.922 262.462 535.671 256.231 538.227 255.298C540.784 254.364 541.659 252.743 541.777 252.049C543.206 250.876 546.496 249.712 548.221 254.436C549.947 259.161 549.434 265.893 548.962 268.669C549.659 270.832 550.478 275.869 548.175 278.718C547.785 281.818 546.273 288.127 543.281 289.431C542.158 291.794 539.124 296.807 535.978 297.956C535.474 299.627 533.142 303.008 527.848 303.157C528.267 304.305 527.908 306.984 523.116 308.511C519.847 309.984 512.895 312.411 511.246 310.336C509.596 308.261 509.3 306.027 509.358 305.169C507.68 304.387 504.684 302.135 506.128 299.376Z" fill="#FFD7B1"/>
<path d="M270.362 210.336C325.718 174.386 433.567 103.441 508.966 85.3075C556.945 73.7684 576.411 78.9446 585.319 80.5353" stroke="#FFAD61" stroke-width="2"/>
<path d="M411.043 306.493C411.828 306.056 413.922 305.445 416.015 306.493C416.103 305.358 417.795 303.245 423.866 303.873C426.309 302.301 431.665 299.629 433.549 301.515C435.643 299.507 440.249 295.647 441.924 296.276C442.709 294.617 444.907 291.298 447.419 291.298C447.594 289.202 448.571 285.011 451.083 285.011C451.694 282.042 453.595 276.103 456.317 276.103C459.039 276.103 460.417 274.881 460.766 274.269C462.511 273.658 466 273.693 466 278.723C466 283.753 463.209 289.901 461.813 292.346C461.726 294.617 460.766 299.629 457.626 301.515C456.196 304.293 452.61 309.701 449.353 309.899C447.487 311.733 442.918 315.401 439.568 315.401C438.522 316.798 435.172 319.173 430.147 317.496C430.147 318.719 428.891 321.112 423.866 320.902C420.29 321.164 412.927 321.059 412.09 318.544C411.253 316.029 411.741 313.829 412.09 313.043C410.781 311.733 408.74 308.589 411.043 306.493Z" fill="#FFD7B1"/>
<path d="M472.511 221.293C473.408 221.357 475.495 221.989 476.675 224.011C477.369 223.109 479.941 222.264 484.681 226.11C487.586 226.129 493.531 226.819 494.078 229.429C496.929 228.892 502.896 228.178 503.955 229.62C505.519 228.66 509.174 227.083 511.278 228.456C512.569 226.797 515.679 223.821 517.783 225.194C519.917 223.042 524.756 219.109 527.035 220.597C529.314 222.085 531.136 221.815 531.763 221.494C533.558 221.935 536.46 223.872 533.71 228.084C530.961 232.296 525.262 235.918 522.757 237.202C521.443 239.056 517.899 242.728 514.238 242.591C511.522 244.136 505.564 246.703 502.728 245.088C500.163 245.604 494.332 246.177 491.527 244.346C489.887 244.944 485.784 245.101 482.493 240.951C481.824 241.974 479.465 243.291 475.372 240.369C472.234 238.633 466.126 234.52 466.8 231.956C467.474 229.393 469.086 227.817 469.807 227.35C469.428 225.538 469.437 221.789 472.511 221.293Z" fill="#FFD7B1"/>
<path d="M478.024 329.676C479.012 330.286 481.022 332.263 481.161 335.286C482.497 334.668 485.949 335.244 489.07 342.49C492.384 344.254 498.778 348.61 497.838 351.926C501.425 353.021 508.685 355.782 509.033 358.068C511.4 357.907 516.53 358.293 518.115 361.128C520.59 360.002 525.935 358.46 527.52 361.294C531.255 360.11 539.154 358.509 540.871 361.579C542.588 364.65 544.836 365.434 545.746 365.442C547.536 367.024 549.698 370.983 544.024 374.156C538.349 377.329 529.652 378.059 526.013 378.027C523.397 379.361 517.137 381.44 513.028 379.088C508.992 379.227 500.63 378.594 498.351 375.044C495.105 374.096 488.084 371.255 485.971 367.476C483.734 367.177 478.942 364.896 477.663 358.17C476.284 358.941 472.792 359.034 469.859 353.233C467.307 349.363 462.78 340.991 465.089 338.46C467.398 335.928 470.189 335.091 471.296 334.989C471.948 332.686 474.207 328.4 478.024 329.676Z" fill="#FFD7B1"/>
<path d="M355.216 363.453C356.377 363.447 359.129 364.059 360.848 366.549C361.653 365.318 364.886 363.978 371.372 368.471C375.117 368.212 382.848 368.521 383.807 371.831C387.429 370.86 395.05 369.356 396.555 371.112C398.478 369.721 403.034 367.332 405.88 368.896C407.383 366.631 411.1 362.492 413.945 364.057C416.486 361.074 422.338 355.532 425.421 357.227C428.504 358.922 430.826 358.396 431.602 357.921C433.959 358.315 437.889 360.528 434.757 366.225C431.624 371.922 424.634 377.147 421.53 379.047C420.017 381.564 415.809 386.644 411.077 386.825C407.728 389.081 400.299 392.972 396.487 391.169C393.231 392.084 385.772 393.392 381.977 391.306C379.922 392.237 374.648 392.841 370.001 387.813C369.24 389.198 366.327 391.126 360.766 387.759C356.552 385.828 348.279 381.124 348.896 377.754C349.514 374.384 351.438 372.196 352.323 371.523C351.656 369.224 351.302 364.392 355.216 363.453Z" fill="#FFD7B1"/>
<path d="M311.494 146.922H329.906L345.371 156.496L365.255 180.063" stroke="#DF552E" stroke-width="2"/>
<path d="M315.912 141.767H332.81L347.005 152.405L365.255 178.59" stroke="#DF552E" stroke-width="2"/>
<path d="M344.266 195.896C339.847 194.423 332.605 183.008 329.537 177.485C330.421 183.966 334.324 190.741 336.165 193.319C334.692 194.202 330.396 187.55 328.432 184.113C329.537 192.582 339.479 201.42 339.479 205.838C339.479 209.373 335.306 205.347 333.219 202.893C332.851 213.939 349.421 231.614 350.894 240.452C352.072 247.522 365.623 253.708 372.251 255.917C364.003 250.32 353.594 230.755 349.421 221.672C349.544 213.694 348.685 197.369 344.266 195.896Z" fill="#DF552E" stroke="#DF552E"/>
<path d="M317.753 162.756L327.696 157.601L349.421 162.756L369.674 182.272" stroke="#DF552E" stroke-width="2"/>
<path d="M318.858 158.233L328.166 152.078L348.505 158.233L367.464 181.536" stroke="#DF552E" stroke-width="2"/>
<path d="M322.541 173.067L334.693 161.652L352.736 163.861L368.938 183.746" stroke="#DF552E" stroke-width="2"/>
<path d="M326.959 121.882C320.945 122.742 309.8 121.293 313.335 108.626C316.87 95.9592 354.944 106.417 371.147 114.886C394.345 127.012 443.614 166.291 447.738 181.904" stroke="#DF552E"/>
<path d="M325.854 119.304C320.331 115.99 309.255 110.809 308.548 101.262C307.811 91.3197 352.308 99.0495 368.51 107.519C391.708 119.645 436.617 147.88 440.741 163.492" stroke="#DF552E"/>
<path d="M336.533 110.468L325.118 93.8975L352.736 110.468C389.264 129.616 425.645 175.153 439.269 195.528C444.793 209.03 447.812 240.01 415.703 255.918C375.566 275.802 364.519 245.239 352.736 236.033C340.952 226.828 336.533 176.749 345.739 185.954C353.104 193.319 357.891 212.59 359.364 221.304L388.454 229.773C393.486 220.568 399.206 200.242 381.826 192.582C360.1 183.009 349.79 157.969 345.739 149.868C342.499 143.387 338.252 133.666 336.533 129.616C328.874 128.143 326.96 124.829 326.96 123.356C326.223 115.991 316.281 106.049 313.703 101.998C311.641 98.7581 314.563 97.7025 316.281 97.5797L336.533 110.468Z" fill="url(#paint0_linear_961_6)"/>
<circle cx="343.162" cy="112.309" r="2.20937" fill="#491507"/>
<path d="M342.057 111.94C342.057 111.695 342.278 111.277 343.161 111.572" stroke="#F3C9BE"/>
<path d="M391.39 152.814C380.785 146.333 369.419 134.402 365.246 128.879C361.122 125.639 356.777 120.532 356.041 117.096C360.214 120.778 379.386 137.79 405.015 160.178C437.051 188.164 425.636 198.474 425.636 193.687C425.636 188.9 404.647 160.915 391.39 152.814Z" fill="#FFB773"/>
<path d="M441.837 203.261C434.178 211.51 419.252 207.925 412.747 205.102C420.112 213.94 440.732 216.149 442.574 213.94C444.046 212.172 442.451 205.962 441.837 203.261Z" fill="#B6310C"/>
<path d="M441.837 222.041C433.286 229.022 417.402 222.479 411.697 218.704C417.261 228.548 437.537 233.517 439.628 231.615C441.301 230.093 441.99 224.8 441.837 222.041Z" fill="#B6310C"/>
<path d="M434.104 240.452C425.553 247.433 412.192 235.758 406.487 231.983C412.052 241.827 423.912 251.192 426.003 249.29C427.677 247.768 434.257 243.212 434.104 240.452Z" fill="#B6310C"/>
<path d="M512 229.5L587.228 40.4502L577.684 239.923L590.091 451.804L512 229.5Z" fill="#543A1B" fill-opacity="0.3"/>
<path d="M822.992 29.1333L502.856 37.5914L516.775 241.525L501 401.288L820.208 405.047C817.424 364.95 813.346 242.464 811.862 231.187C810.377 219.91 818.971 104.943 822.992 29.1333Z" fill="#F5E4CF"/>
<path d="M502.856 8.45806V38.5312L822.992 31.9527L826.704 0L814.641 8.45806L812.785 0L801.65 8.45806L793.298 2.81935L782.163 8.45806L775.668 2.81935L764.532 11.2774L757.109 0L745.046 11.2774L738.55 4.69892L729.271 8.45806L722.775 4.69892L709.784 8.45806L701.433 0L692.154 11.2774L681.019 0L675.451 8.45806L668.956 4.69892L661.532 11.2774L653.181 4.69892L645.757 14.0968L641.118 8.45806L632.766 14.0968L627.199 4.69892L618.847 14.0968L614.208 8.45806L609.568 14.0968L602.145 8.45806L593.793 14.0968L588.226 8.45806L580.802 14.0968L572.451 4.69892L564.099 14.0968L554.82 8.45806L551.108 11.2774L543.685 8.45806L534.406 14.0968L526.982 8.45806L515.847 14.0968L502.856 8.45806Z" fill="#DF552E"/>
<path d="M508.423 35.7118L817.424 29.1333" stroke="#543A1B" stroke-width="0.4"/>
<path d="M508.423 31.9525L817.424 25.374" stroke="#543A1B" stroke-width="0.4"/>
<path d="M510.279 20.6753V28.1936" stroke="#543A1B" stroke-width="0.6"/>
<path d="M523.27 19.7358V27.2541" stroke="#543A1B" stroke-width="0.6"/>
<path d="M536.261 19.7358V27.2541" stroke="#543A1B" stroke-width="0.6"/>
<path d="M551.108 19.7358V27.2541" stroke="#543A1B" stroke-width="0.6"/>
<path d="M565.955 19.7358V27.2541" stroke="#543A1B" stroke-width="0.6"/>
<path d="M578.946 17.8555V25.3737" stroke="#543A1B" stroke-width="0.6"/>
<path d="M591.938 17.8555V25.3737" stroke="#543A1B" stroke-width="0.6"/>
<path d="M604.928 17.8555V25.3737" stroke="#543A1B" stroke-width="0.6"/>
<path d="M617.919 17.8555V25.3737" stroke="#543A1B" stroke-width="0.6"/>
<path d="M632.766 17.8555V25.3737" stroke="#543A1B" stroke-width="0.6"/>
<path d="M645.757 17.8555V25.3737" stroke="#543A1B" stroke-width="0.6"/>
<path d="M658.748 17.8555V25.3737" stroke="#543A1B" stroke-width="0.6"/>
<path d="M671.739 15.9766V23.4948" stroke="#543A1B" stroke-width="0.6"/>
<path d="M686.586 15.9766V23.4948" stroke="#543A1B" stroke-width="0.6"/>
<path d="M701.433 15.9766V23.4948" stroke="#543A1B" stroke-width="0.6"/>
<path d="M714.424 15.9766V23.4948" stroke="#543A1B" stroke-width="0.6"/>
<path d="M729.271 15.9766V23.4948" stroke="#543A1B" stroke-width="0.6"/>
<path d="M744.117 15.9766V23.4948" stroke="#543A1B" stroke-width="0.6"/>
<path d="M757.108 15.9766V23.4948" stroke="#543A1B" stroke-width="0.6"/>
<path d="M771.956 15.9766V23.4948" stroke="#543A1B" stroke-width="0.6"/>
<path d="M784.946 15.9766V23.4948" stroke="#543A1B" stroke-width="0.6"/>
<path d="M797.938 15.9766V23.4948" stroke="#543A1B" stroke-width="0.6"/>
<path d="M810.929 15.9766V23.4948" stroke="#543A1B" stroke-width="0.6"/>
<path d="M501 427.602V397.528L821.136 404.107L824.848 436.06L812.785 427.602L810.929 436.06L799.794 427.602L791.442 433.24L780.307 427.602L773.812 433.24L762.676 424.782L755.253 436.06L743.19 424.782L736.694 431.361L727.415 427.602L720.92 431.361L707.929 427.602L699.577 436.06L690.298 424.782L679.163 436.06L673.595 427.602L667.1 431.361L659.676 424.782L651.325 431.361L643.901 421.963L639.262 427.602L630.91 421.963L625.343 431.361L616.991 421.963L612.352 427.602L607.712 421.963L600.289 427.602L591.937 421.963L586.37 427.602L578.946 421.963L570.595 431.361L562.243 421.963L552.964 427.602L549.252 424.782L541.829 427.602L532.55 421.963L525.126 427.602L513.991 421.963L501 427.602Z" fill="#DF552E"/>
<path d="M506.567 400.348L815.568 406.926" stroke="#543A1B" stroke-width="0.4"/>
<path d="M506.567 404.107L815.568 410.686" stroke="#543A1B" stroke-width="0.4"/>
<path d="M508.423 415.385V407.866" stroke="#543A1B" stroke-width="0.6"/>
<path d="M521.415 416.324V408.806" stroke="#543A1B" stroke-width="0.6"/>
<path d="M534.405 416.324V408.806" stroke="#543A1B" stroke-width="0.6"/>
<path d="M549.252 416.324V408.806" stroke="#543A1B" stroke-width="0.6"/>
<path d="M564.099 416.324V408.806" stroke="#543A1B" stroke-width="0.6"/>
<path d="M577.09 418.204V410.686" stroke="#543A1B" stroke-width="0.6"/>
<path d="M590.082 418.204V410.686" stroke="#543A1B" stroke-width="0.6"/>
<path d="M603.072 418.204V410.686" stroke="#543A1B" stroke-width="0.6"/>
<path d="M616.063 418.204V410.686" stroke="#543A1B" stroke-width="0.6"/>
<path d="M630.91 418.204V410.686" stroke="#543A1B" stroke-width="0.6"/>
<path d="M643.901 418.204V410.686" stroke="#543A1B" stroke-width="0.6"/>
<path d="M656.892 418.204V410.686" stroke="#543A1B" stroke-width="0.6"/>
<path d="M669.883 420.083V412.565" stroke="#543A1B" stroke-width="0.6"/>
<path d="M684.73 420.083V412.565" stroke="#543A1B" stroke-width="0.6"/>
<path d="M699.577 420.083V412.565" stroke="#543A1B" stroke-width="0.6"/>
<path d="M712.568 420.083V412.565" stroke="#543A1B" stroke-width="0.6"/>
<path d="M727.415 420.083V412.565" stroke="#543A1B" stroke-width="0.6"/>
<path d="M742.262 420.083V412.565" stroke="#543A1B" stroke-width="0.6"/>
<path d="M755.253 420.083V412.565" stroke="#543A1B" stroke-width="0.6"/>
<path d="M770.1 420.083V412.565" stroke="#543A1B" stroke-width="0.6"/>
<path d="M783.091 420.083V412.565" stroke="#543A1B" stroke-width="0.6"/>
<path d="M796.082 420.083V412.565" stroke="#543A1B" stroke-width="0.6"/>
<path d="M809.073 420.083V412.565" stroke="#543A1B" stroke-width="0.6"/>
<path d="M819.28 86.4603C744.303 69.9201 585.132 168.535 514.919 219.91L515.847 242.465L501 399.409L822.064 405.047L811.857 234.006L819.28 86.4603Z" fill="#FFAD61"/>
<path d="M588.627 319.403C589.198 318.734 590.906 317.461 593.168 317.723C592.869 316.644 593.709 314.118 599.464 312.648C601.17 310.369 605.17 306.088 607.52 307.196C608.762 304.631 611.681 299.505 613.42 299.521C613.583 297.721 614.484 293.909 616.778 293.06C616.239 291.063 615.733 286.856 618.027 286.007C617.594 283.055 617.35 276.92 619.836 276.001C622.321 275.081 623.172 273.485 623.287 272.802C624.676 271.647 627.874 270.5 629.552 275.153C631.23 279.805 630.732 286.434 630.273 289.167C630.95 291.297 631.746 296.257 629.507 299.062C629.128 302.115 627.657 308.327 624.749 309.611C623.657 311.937 620.707 316.873 617.648 318.005C617.158 319.651 614.892 322.979 609.744 323.126C610.151 324.257 609.802 326.894 605.144 328.398C601.965 329.849 595.206 332.239 593.603 330.196C591.999 328.152 591.711 325.952 591.768 325.107C590.136 324.338 587.223 322.12 588.627 319.403Z" fill="#FFD7B1"/>
<path d="M743.215 286.909C743.786 286.24 745.494 284.967 747.756 285.229C747.457 284.15 748.297 281.623 754.051 280.154C755.758 277.875 759.758 273.594 762.108 274.702C763.35 272.137 766.268 267.011 768.008 267.027C768.171 265.227 769.072 261.415 771.366 260.566C770.826 258.569 770.32 254.362 772.615 253.513C772.182 250.561 771.938 244.426 774.423 243.506C776.909 242.587 777.76 240.991 777.875 240.307C779.264 239.153 782.462 238.006 784.14 242.658C785.818 247.311 785.319 253.94 784.86 256.673C785.538 258.802 786.334 263.763 784.095 266.568C783.716 269.62 782.245 275.833 779.337 277.117C778.245 279.443 775.295 284.379 772.236 285.511C771.746 287.157 769.48 290.485 764.332 290.632C764.739 291.763 764.39 294.4 759.732 295.904C756.553 297.354 749.794 299.745 748.191 297.702C746.587 295.658 746.299 293.458 746.355 292.613C744.724 291.844 741.811 289.626 743.215 286.909Z" fill="#FFD7B1"/>
<path d="M513.991 199.234C567.811 163.835 672.667 93.9781 745.974 76.1222C792.621 64.7599 811.548 69.8569 820.208 71.4232" stroke="#FFAD61" stroke-width="2"/>
<path d="M650.768 293.917C651.531 293.487 653.567 292.885 655.602 293.917C655.687 292.799 657.333 290.719 663.236 291.338C665.61 289.79 670.818 287.159 672.65 289.016C674.685 287.038 679.163 283.238 680.792 283.857C681.555 282.223 683.692 278.955 686.135 278.955C686.304 276.892 687.254 272.764 689.697 272.764C690.291 269.841 692.14 263.993 694.786 263.993C697.432 263.993 698.772 262.79 699.111 262.188C700.807 261.586 704.2 261.62 704.2 266.573C704.2 271.526 701.486 277.58 700.129 279.987C700.044 282.223 699.111 287.159 696.058 289.016C694.668 291.751 691.182 297.076 688.015 297.271C686.201 299.077 681.759 302.688 678.502 302.688C677.484 304.064 674.227 306.403 669.342 304.752C669.342 305.956 668.121 308.312 663.236 308.105C659.758 308.363 652.6 308.26 651.786 305.784C650.972 303.307 651.447 301.14 651.786 300.367C650.514 299.077 648.529 295.981 650.768 293.917Z" fill="#FFD7B1"/>
<path d="M710.531 210.024C711.402 210.086 713.432 210.709 714.579 212.7C715.253 211.811 717.754 210.98 722.363 214.766C725.187 214.785 730.968 215.465 731.499 218.035C734.271 217.506 740.072 216.802 741.102 218.222C742.623 217.277 746.176 215.724 748.221 217.077C749.477 215.443 752.501 212.512 754.546 213.865C756.621 211.745 761.325 207.873 763.541 209.338C765.757 210.803 767.529 210.537 768.138 210.221C769.883 210.656 772.705 212.563 770.032 216.71C767.358 220.858 761.818 224.424 759.382 225.689C758.104 227.514 754.659 231.13 751.1 230.995C748.459 232.516 742.666 235.044 739.909 233.454C737.415 233.962 731.746 234.526 729.019 232.723C727.424 233.311 723.435 233.467 720.235 229.38C719.586 230.388 717.291 231.684 713.312 228.807C710.261 227.097 704.323 223.048 704.978 220.523C705.633 217.999 707.2 216.447 707.902 215.987C707.533 214.203 707.542 210.512 710.531 210.024Z" fill="#FFD7B1"/>
<path d="M715.891 316.745C716.851 317.346 718.806 319.291 718.941 322.268C720.239 321.66 723.595 322.227 726.63 329.362C729.852 331.099 736.068 335.389 735.155 338.653C738.642 339.731 745.701 342.45 746.039 344.701C748.34 344.543 753.328 344.923 754.869 347.714C757.275 346.606 762.472 345.087 764.013 347.878C767.644 346.712 775.324 345.136 776.993 348.159C778.663 351.182 780.849 351.954 781.733 351.962C783.474 353.52 785.576 357.418 780.059 360.543C774.542 363.667 766.086 364.386 762.548 364.354C760.004 365.668 753.918 367.715 749.923 365.399C745.999 365.536 737.869 364.912 735.653 361.417C732.498 360.484 725.672 357.686 723.617 353.965C721.443 353.67 716.783 351.425 715.54 344.802C714.199 345.561 710.804 345.652 707.952 339.94C705.471 336.13 701.07 327.886 703.315 325.394C705.559 322.901 708.273 322.077 709.349 321.976C709.983 319.709 712.179 315.488 715.891 316.745Z" fill="#FFD7B1"/>
<path d="M596.49 350.004C597.619 349.998 600.295 350.6 601.966 353.053C602.749 351.84 605.892 350.521 612.198 354.945C615.839 354.69 623.355 354.994 624.288 358.253C627.81 357.297 635.219 355.817 636.683 357.545C638.552 356.176 642.982 353.823 645.748 355.364C647.21 353.133 650.823 349.058 653.59 350.598C656.06 347.661 661.75 342.205 664.747 343.874C667.744 345.543 670.002 345.024 670.757 344.556C673.048 344.945 676.869 347.123 673.824 352.733C670.778 358.343 663.982 363.488 660.964 365.359C659.493 367.838 655.402 372.84 650.801 373.018C647.545 375.239 640.322 379.071 636.616 377.295C633.45 378.196 626.198 379.484 622.509 377.43C620.51 378.347 615.383 378.942 610.865 373.99C610.125 375.354 607.293 377.252 601.887 373.937C597.79 372.036 589.745 367.404 590.346 364.086C590.947 360.767 592.817 358.613 593.677 357.95C593.029 355.687 592.685 350.929 596.49 350.004Z" fill="#FFD7B1"/>
<path d="M553.982 136.792H571.882L586.919 146.22L606.251 169.425" stroke="#DF552E" stroke-width="2"/>
<path d="M558.277 131.716H574.706L588.507 142.191L606.25 167.975" stroke="#DF552E" stroke-width="2"/>
<path d="M585.844 185.016C581.548 183.566 574.507 172.325 571.524 166.887C572.383 173.268 576.178 179.94 577.968 182.478C576.536 183.348 572.359 176.797 570.45 173.413C571.524 181.753 581.19 190.455 581.19 194.806C581.19 198.286 577.133 194.322 575.104 191.905C574.746 202.782 590.856 220.186 592.288 228.888C593.434 235.85 606.609 241.941 613.053 244.117C605.033 238.606 594.914 219.34 590.856 210.397C590.976 202.541 590.14 186.466 585.844 185.016Z" fill="#DF552E" stroke="#DF552E"/>
<path d="M560.067 152.384L569.734 147.308L590.856 152.384L610.547 171.601" stroke="#DF552E" stroke-width="2"/>
<path d="M561.142 147.93L570.191 141.869L589.965 147.93L608.399 170.876" stroke="#DF552E" stroke-width="2"/>
<path d="M564.722 162.536L576.536 151.296L594.079 153.472L609.831 173.051" stroke="#DF552E" stroke-width="2"/>
<path d="M569.018 112.137C563.17 112.983 552.335 111.557 555.772 99.0839C559.208 86.611 596.227 96.9085 611.979 105.248C634.534 117.188 682.435 155.864 686.445 171.238" stroke="#DF552E"/>
<path d="M567.943 109.598C562.573 106.335 551.805 101.233 551.117 91.8319C550.401 82.0425 593.663 89.6537 609.415 97.993C631.97 109.933 675.633 137.735 679.642 153.109" stroke="#DF552E"/>
<path d="M578.326 100.897L567.228 84.5806L594.079 100.897C629.593 119.751 664.964 164.59 678.211 184.653C683.581 197.948 686.517 228.453 655.298 244.117C616.275 263.696 605.535 233.602 594.079 224.537C582.622 215.473 578.326 166.162 587.276 175.226C594.437 182.478 599.091 201.453 600.523 210.034L628.805 218.374C633.698 209.309 639.259 189.294 622.361 181.753C601.239 172.326 591.214 147.67 587.276 139.693C584.126 133.312 579.997 123.739 578.326 119.751C570.879 118.301 569.018 115.038 569.018 113.587C568.302 106.336 558.636 96.5458 556.129 92.5574C554.125 89.3667 556.965 88.3273 558.636 88.2064L578.326 100.897Z" fill="url(#paint1_linear_961_6)"/>
<ellipse cx="584.77" cy="102.71" rx="2.14806" ry="2.1755" fill="#491507"/>
<path d="M583.696 102.347C583.696 102.105 583.911 101.694 584.77 101.984" stroke="#F3C9BE"/>
<path d="M631.661 142.594C621.35 136.212 610.3 124.465 606.242 119.026C602.233 115.835 598.008 110.807 597.292 107.423C601.349 111.049 619.99 127.8 644.907 149.846C676.054 177.402 664.956 187.554 664.956 182.841C664.956 178.127 644.549 150.571 631.661 142.594Z" fill="#FFB773"/>
<path d="M680.708 192.268C673.261 200.39 658.75 196.861 652.425 194.081C659.585 202.783 679.634 204.958 681.424 202.783C682.856 201.043 681.305 194.927 680.708 192.268Z" fill="#B6310C"/>
<path d="M680.708 210.76C672.394 217.634 656.951 211.191 651.404 207.474C656.814 217.167 676.527 222.06 678.56 220.187C680.187 218.689 680.856 213.477 680.708 210.76Z" fill="#B6310C"/>
<path d="M673.19 228.889C664.876 235.763 651.886 224.266 646.339 220.549C651.749 230.242 663.28 239.463 665.313 237.591C666.94 236.092 673.338 231.606 673.19 228.889Z" fill="#B6310C"/>
<path d="M748.924 218.104L822.064 31.9526L812.785 228.368L824.848 437L748.924 218.104Z" fill="#543A1B" fill-opacity="0.3"/>
<path d="M331.182 39.5869L1.90883 48.1767L16.2251 255.285L0 417.536L328.319 421.353C325.456 380.632 321.262 256.239 319.735 244.786C318.207 233.333 327.047 116.576 331.182 39.5869Z" fill="#F5E4CF"/>
<path d="M1.90869 18.5897V49.1311L331.182 42.4501L335 10L322.592 18.5897L320.684 10L309.231 18.5897L300.641 12.8632L289.188 18.5897L282.507 12.8632L271.054 21.453L263.419 10L251.011 21.453L244.33 14.7721L234.786 18.5897L228.105 14.7721L214.743 18.5897L206.154 10L196.61 21.453L185.157 10L179.43 18.5897L172.749 14.7721L165.114 21.453L156.524 14.7721L148.889 24.3162L144.117 18.5897L135.527 24.3162L129.8 14.7721L121.211 24.3162L116.439 18.5897L111.667 24.3162L104.031 18.5897L95.4415 24.3162L89.715 18.5897L82.0796 24.3162L73.4899 14.7721L64.9002 24.3162L55.356 18.5897L51.5383 21.453L43.903 18.5897L34.3588 24.3162L26.7235 18.5897L15.2705 24.3162L1.90869 18.5897Z" fill="#DF552E"/>
<path d="M7.63525 46.2678L325.456 39.5869" stroke="#543A1B" stroke-width="0.4"/>
<path d="M7.63525 42.45L325.456 35.769" stroke="#543A1B" stroke-width="0.4"/>
<path d="M9.54395 30.9971V38.6324" stroke="#543A1B" stroke-width="0.6"/>
<path d="M22.9058 30.043V37.6783" stroke="#543A1B" stroke-width="0.6"/>
<path d="M36.2676 30.043V37.6783" stroke="#543A1B" stroke-width="0.6"/>
<path d="M51.5381 30.043V37.6783" stroke="#543A1B" stroke-width="0.6"/>
<path d="M66.8091 30.043V37.6783" stroke="#543A1B" stroke-width="0.6"/>
<path d="M80.1709 28.1338V35.7691" stroke="#543A1B" stroke-width="0.6"/>
<path d="M93.5327 28.1338V35.7691" stroke="#543A1B" stroke-width="0.6"/>
<path d="M106.895 28.1338V35.7691" stroke="#543A1B" stroke-width="0.6"/>
<path d="M120.256 28.1338V35.7691" stroke="#543A1B" stroke-width="0.6"/>
<path d="M135.527 28.1338V35.7691" stroke="#543A1B" stroke-width="0.6"/>
<path d="M148.889 28.1338V35.7691" stroke="#543A1B" stroke-width="0.6"/>
<path d="M162.25 28.1338V35.7691" stroke="#543A1B" stroke-width="0.6"/>
<path d="M175.612 26.2251V33.8604" stroke="#543A1B" stroke-width="0.6"/>
<path d="M190.883 26.2251V33.8604" stroke="#543A1B" stroke-width="0.6"/>
<path d="M206.154 26.2251V33.8604" stroke="#543A1B" stroke-width="0.6"/>
<path d="M219.516 26.2251V33.8604" stroke="#543A1B" stroke-width="0.6"/>
<path d="M234.786 26.2251V33.8604" stroke="#543A1B" stroke-width="0.6"/>
<path d="M250.057 26.2251V33.8604" stroke="#543A1B" stroke-width="0.6"/>
<path d="M263.418 26.2251V33.8604" stroke="#543A1B" stroke-width="0.6"/>
<path d="M278.689 26.2251V33.8604" stroke="#543A1B" stroke-width="0.6"/>
<path d="M292.051 26.2251V33.8604" stroke="#543A1B" stroke-width="0.6"/>
<path d="M305.413 26.2251V33.8604" stroke="#543A1B" stroke-width="0.6"/>
<path d="M318.775 26.2251V33.8604" stroke="#543A1B" stroke-width="0.6"/>
<path d="M0 444.259V413.718L329.274 420.399L333.091 452.849L320.684 444.259L318.775 452.849L307.322 444.259L298.732 449.986L287.279 444.259L280.598 449.986L269.145 441.396L261.51 452.849L249.103 441.396L242.422 448.077L232.878 444.259L226.197 448.077L212.835 444.259L204.245 452.849L194.701 441.396L183.248 452.849L177.521 444.259L170.84 448.077L163.205 441.396L154.615 448.077L146.98 438.533L142.208 444.259L133.618 438.533L127.892 448.077L119.302 438.533L114.53 444.259L109.758 438.533L102.123 444.259L93.5328 438.533L87.8063 444.259L80.171 438.533L71.5812 448.077L62.9915 438.533L53.4473 444.259L49.6296 441.396L41.9943 444.259L32.4501 438.533L24.8148 444.259L13.3618 438.533L0 444.259Z" fill="#DF552E"/>
<path d="M5.72656 416.581L323.547 423.262" stroke="#543A1B" stroke-width="0.4"/>
<path d="M5.72656 420.399L323.547 427.08" stroke="#543A1B" stroke-width="0.4"/>
<path d="M7.63525 431.852V424.217" stroke="#543A1B" stroke-width="0.6"/>
<path d="M20.9971 432.807V425.171" stroke="#543A1B" stroke-width="0.6"/>
<path d="M34.3589 432.807V425.171" stroke="#543A1B" stroke-width="0.6"/>
<path d="M49.6294 432.807V425.171" stroke="#543A1B" stroke-width="0.6"/>
<path d="M64.8999 432.807V425.171" stroke="#543A1B" stroke-width="0.6"/>
<path d="M78.2622 434.715V427.08" stroke="#543A1B" stroke-width="0.6"/>
<path d="M91.624 434.715V427.08" stroke="#543A1B" stroke-width="0.6"/>
<path d="M104.986 434.715V427.08" stroke="#543A1B" stroke-width="0.6"/>
<path d="M118.348 434.715V427.08" stroke="#543A1B" stroke-width="0.6"/>
<path d="M133.618 434.715V427.08" stroke="#543A1B" stroke-width="0.6"/>
<path d="M146.98 434.715V427.08" stroke="#543A1B" stroke-width="0.6"/>
<path d="M160.342 434.715V427.08" stroke="#543A1B" stroke-width="0.6"/>
<path d="M173.704 436.624V428.989" stroke="#543A1B" stroke-width="0.6"/>
<path d="M188.974 436.624V428.989" stroke="#543A1B" stroke-width="0.6"/>
<path d="M204.245 436.624V428.989" stroke="#543A1B" stroke-width="0.6"/>
<path d="M217.607 436.624V428.989" stroke="#543A1B" stroke-width="0.6"/>
<path d="M232.877 436.624V428.989" stroke="#543A1B" stroke-width="0.6"/>
<path d="M248.148 436.624V428.989" stroke="#543A1B" stroke-width="0.6"/>
<path d="M261.51 436.624V428.989" stroke="#543A1B" stroke-width="0.6"/>
<path d="M276.781 436.624V428.989" stroke="#543A1B" stroke-width="0.6"/>
<path d="M290.143 436.624V428.989" stroke="#543A1B" stroke-width="0.6"/>
<path d="M303.504 436.624V428.989" stroke="#543A1B" stroke-width="0.6"/>
<path d="M316.866 436.624V428.989" stroke="#543A1B" stroke-width="0.6"/>
<path d="M327.365 97.8065C250.248 81.0088 86.5337 181.159 14.3162 233.334L15.2707 256.239L0 415.627L330.228 421.353L319.729 247.65L327.365 97.8065Z" fill="#FFAD61"/>
<path d="M90.1279 334.376C90.7156 333.696 92.4724 332.404 94.7984 332.67C94.4908 331.574 95.3554 329.008 101.274 327.515C103.029 325.201 107.143 320.853 109.56 321.979C110.838 319.374 113.84 314.168 115.629 314.184C115.797 312.356 116.723 308.485 119.083 307.623C118.528 305.594 118.007 301.322 120.367 300.46C119.922 297.462 119.671 291.231 122.227 290.298C124.784 289.364 125.659 287.743 125.777 287.049C127.206 285.876 130.496 284.712 132.221 289.436C133.947 294.161 133.434 300.893 132.962 303.669C133.659 305.832 134.478 310.869 132.175 313.718C131.785 316.818 130.273 323.127 127.281 324.431C126.158 326.794 123.124 331.807 119.978 332.956C119.474 334.627 117.142 338.008 111.848 338.157C112.267 339.305 111.908 341.984 107.116 343.511C103.847 344.984 96.8953 347.411 95.2458 345.336C93.5963 343.261 93.3002 341.027 93.3583 340.169C91.6798 339.387 88.6838 337.135 90.1279 334.376Z" fill="#FFD7B1"/>
<path d="M249.128 301.376C249.716 300.696 251.472 299.404 253.798 299.67C253.491 298.574 254.355 296.008 260.274 294.515C262.029 292.201 266.143 287.853 268.56 288.979C269.838 286.374 272.84 281.168 274.629 281.184C274.797 279.356 275.723 275.485 278.083 274.623C277.528 272.594 277.007 268.322 279.367 267.46C278.922 264.462 278.671 258.231 281.227 257.298C283.784 256.364 284.659 254.743 284.777 254.049C286.206 252.876 289.496 251.712 291.221 256.436C292.947 261.161 292.434 267.893 291.962 270.669C292.659 272.832 293.478 277.869 291.175 280.718C290.785 283.818 289.273 290.127 286.281 291.431C285.158 293.794 282.124 298.807 278.978 299.956C278.474 301.627 276.142 305.008 270.848 305.157C271.267 306.305 270.908 308.984 266.116 310.511C262.847 311.984 255.895 314.411 254.246 312.336C252.596 310.261 252.3 308.027 252.358 307.169C250.68 306.387 247.684 304.135 249.128 301.376Z" fill="#FFD7B1"/>
<path d="M13.3618 212.336C68.7179 176.386 176.567 105.441 251.966 87.3075C299.945 75.7684 319.411 80.9446 328.319 82.5353" stroke="#FFAD61" stroke-width="2"/>
<path d="M154.043 308.493C154.828 308.056 156.922 307.445 159.015 308.493C159.103 307.358 160.795 305.245 166.866 305.873C169.309 304.301 174.665 301.629 176.549 303.515C178.643 301.507 183.249 297.647 184.924 298.276C185.709 296.617 187.907 293.298 190.419 293.298C190.594 291.202 191.571 287.011 194.083 287.011C194.694 284.042 196.595 278.103 199.317 278.103C202.039 278.103 203.417 276.881 203.766 276.269C205.511 275.658 209 275.693 209 280.723C209 285.753 206.209 291.901 204.813 294.346C204.726 296.617 203.766 301.629 200.626 303.515C199.196 306.293 195.61 311.701 192.353 311.899C190.487 313.733 185.918 317.401 182.568 317.401C181.522 318.798 178.172 321.173 173.147 319.496C173.147 320.719 171.891 323.112 166.866 322.902C163.29 323.164 155.927 323.059 155.09 320.544C154.253 318.029 154.741 315.829 155.09 315.043C153.781 313.733 151.74 310.589 154.043 308.493Z" fill="#FFD7B1"/>
<path d="M215.511 223.293C216.408 223.357 218.495 223.989 219.675 226.011C220.369 225.109 222.941 224.264 227.681 228.11C230.586 228.129 236.531 228.819 237.078 231.429C239.929 230.892 245.896 230.178 246.955 231.62C248.519 230.66 252.174 229.083 254.278 230.456C255.569 228.797 258.679 225.821 260.783 227.194C262.917 225.042 267.756 221.109 270.035 222.597C272.314 224.085 274.136 223.815 274.763 223.494C276.558 223.935 279.46 225.872 276.71 230.084C273.961 234.296 268.262 237.918 265.757 239.202C264.443 241.056 260.899 244.728 257.238 244.591C254.522 246.136 248.564 248.703 245.728 247.088C243.163 247.604 237.332 248.177 234.527 246.346C232.887 246.944 228.784 247.101 225.493 242.951C224.824 243.974 222.465 245.291 218.372 242.369C215.234 240.633 209.126 236.52 209.8 233.956C210.474 231.393 212.086 229.817 212.807 229.35C212.428 227.538 212.437 223.789 215.511 223.293Z" fill="#FFD7B1"/>
<path d="M221.024 331.676C222.012 332.286 224.022 334.263 224.161 337.286C225.497 336.668 228.949 337.244 232.07 344.49C235.384 346.254 241.778 350.61 240.838 353.926C244.425 355.021 251.685 357.782 252.033 360.068C254.4 359.907 259.53 360.293 261.115 363.128C263.59 362.002 268.935 360.46 270.52 363.294C274.255 362.11 282.154 360.509 283.871 363.579C285.588 366.65 287.836 367.434 288.746 367.442C290.536 369.024 292.698 372.983 287.024 376.156C281.349 379.329 272.652 380.059 269.013 380.027C266.397 381.361 260.137 383.44 256.028 381.088C251.992 381.227 243.63 380.594 241.351 377.044C238.105 376.096 231.084 373.255 228.971 369.476C226.734 369.177 221.942 366.896 220.663 360.17C219.284 360.941 215.792 361.034 212.859 355.233C210.307 351.363 205.78 342.991 208.089 340.46C210.398 337.928 213.189 337.091 214.296 336.989C214.948 334.686 217.207 330.4 221.024 331.676Z" fill="#FFD7B1"/>
<path d="M98.2158 365.453C99.377 365.447 102.129 366.059 103.848 368.549C104.653 367.318 107.886 365.978 114.372 370.471C118.117 370.212 125.848 370.521 126.807 373.831C130.429 372.86 138.05 371.356 139.555 373.112C141.478 371.721 146.034 369.332 148.88 370.896C150.383 368.631 154.1 364.492 156.945 366.057C159.486 363.074 165.338 357.532 168.421 359.227C171.504 360.922 173.826 360.396 174.602 359.921C176.959 360.315 180.889 362.528 177.757 368.225C174.624 373.922 167.634 379.147 164.53 381.047C163.017 383.564 158.809 388.644 154.077 388.825C150.728 391.081 143.299 394.972 139.487 393.169C136.231 394.084 128.772 395.392 124.977 393.306C122.922 394.237 117.648 394.841 113.001 389.813C112.24 391.198 109.327 393.126 103.766 389.759C99.5524 387.828 91.2786 383.124 91.8963 379.754C92.5141 376.384 94.4379 374.196 95.3226 373.523C94.6563 371.224 94.3021 366.392 98.2158 365.453Z" fill="#FFD7B1"/>
<path d="M54.4941 148.922H72.9055L88.3711 158.496L108.255 182.063" stroke="#DF552E" stroke-width="2"/>
<path d="M58.9121 143.767H75.8102L90.0047 154.405L108.255 180.59" stroke="#DF552E" stroke-width="2"/>
<path d="M87.2659 197.896C82.8472 196.423 75.6054 185.008 72.5368 179.485C73.4206 185.966 77.3238 192.741 79.1649 195.319C77.692 196.202 73.396 189.55 71.4321 186.113C72.5368 194.582 82.479 203.42 82.479 207.838C82.479 211.373 78.3057 207.347 76.2191 204.893C75.8509 215.939 92.4211 233.614 93.894 242.452C95.0723 249.522 108.623 255.708 115.251 257.917C107.003 252.32 96.5944 232.755 92.4211 223.672C92.5438 215.694 91.6847 199.369 87.2659 197.896Z" fill="#DF552E" stroke="#DF552E"/>
<path d="M60.7534 164.756L70.6956 159.601L92.421 164.756L112.674 184.272" stroke="#DF552E" stroke-width="2"/>
<path d="M61.8584 160.233L71.1659 154.078L91.5046 160.233L110.464 183.536" stroke="#DF552E" stroke-width="2"/>
<path d="M65.541 175.067L77.6925 163.652L95.7357 165.861L111.938 185.746" stroke="#DF552E" stroke-width="2"/>
<path d="M69.9592 123.882C63.9448 124.742 52.7998 123.293 56.3348 110.626C59.8698 97.9592 97.9445 108.417 114.147 116.886C137.345 129.012 186.614 168.291 190.738 183.904" stroke="#DF552E"/>
<path d="M68.8539 121.304C63.3306 117.99 52.2549 112.809 51.5476 103.262C50.8111 93.3197 95.3078 101.049 111.51 109.519C134.708 121.645 179.617 149.88 183.741 165.492" stroke="#DF552E"/>
<path d="M79.5335 112.468L68.1184 95.8975L95.7356 112.468C132.264 131.616 168.645 177.153 182.269 197.528C187.793 211.03 190.812 242.01 158.703 257.918C118.566 277.802 107.519 247.239 95.7356 238.033C83.9523 228.828 79.5335 178.749 88.7393 187.954C96.1039 195.319 100.891 214.59 102.364 223.304L131.454 231.773C136.486 222.568 142.206 202.242 124.826 194.582C103.1 185.009 92.7898 159.969 88.7393 151.868C85.4988 145.387 81.2519 135.666 79.5335 131.616C71.8743 130.143 69.9596 126.829 69.9596 125.356C69.2232 117.991 59.281 108.049 56.7034 103.998C54.6413 100.758 57.5626 99.7025 59.281 99.5797L79.5335 112.468Z" fill="url(#paint2_linear_961_6)"/>
<circle cx="86.1615" cy="114.309" r="2.20937" fill="#491507"/>
<path d="M85.0566 113.94C85.0566 113.695 85.2776 113.277 86.1613 113.572" stroke="#F3C9BE"/>
<path d="M134.39 154.814C123.785 148.333 112.419 136.402 108.246 130.879C104.122 127.639 99.777 122.532 99.0405 119.096C103.214 122.778 122.386 139.79 148.015 162.178C180.051 190.164 168.636 200.474 168.636 195.687C168.636 190.9 147.647 162.915 134.39 154.814Z" fill="#FFB773"/>
<path d="M184.837 205.261C177.178 213.51 162.252 209.925 155.747 207.102C163.112 215.94 183.732 218.149 185.574 215.94C187.046 214.172 185.451 207.962 184.837 205.261Z" fill="#B6310C"/>
<path d="M184.837 224.041C176.286 231.022 160.402 224.479 154.697 220.704C160.261 230.548 180.537 235.517 182.628 233.615C184.301 232.093 184.99 226.8 184.837 224.041Z" fill="#B6310C"/>
<path d="M177.104 242.452C168.553 249.433 155.192 237.758 149.487 233.983C155.052 243.827 166.912 253.192 169.003 251.29C170.677 249.768 177.257 245.212 177.104 242.452Z" fill="#B6310C"/>
<path d="M255 231.5L330.228 42.4502L320.684 241.923L333.091 453.804L255 231.5Z" fill="#543A1B" fill-opacity="0.3"/>
<defs>
<linearGradient id="paint0_linear_961_6" x1="377.873" y1="93.8975" x2="377.873" y2="262.511" gradientUnits="userSpaceOnUse">
<stop stop-color="#FF825F"/>
<stop offset="1" stop-color="#B82C05"/>
</linearGradient>
<linearGradient id="paint1_linear_961_6" x1="618.519" y1="84.5806" x2="618.519" y2="250.609" gradientUnits="userSpaceOnUse">
<stop stop-color="#FF825F"/>
<stop offset="1" stop-color="#B82C05"/>
</linearGradient>
<linearGradient id="paint2_linear_961_6" x1="120.873" y1="95.8975" x2="120.873" y2="264.511" gradientUnits="userSpaceOnUse">
<stop stop-color="#FF825F"/>
<stop offset="1" stop-color="#B82C05"/>
</linearGradient>
</defs>
</svg>
