<svg width="860" height="408" viewBox="0 0 860 408" fill="none" xmlns="http://www.w3.org/2000/svg">
<rect width="860" height="408" fill="#333638"/>
<rect x="14" y="11" width="834" height="385" fill="#404649"/>
<rect x="26" y="23" width="809" height="362" fill="#BF3C3D"/>
<rect x="26" y="40" width="809" height="325" fill="#E64A4B"/>
<path d="M455.015 93H450.29V81.905H440.63V93H435.94V68.01H440.63V78.09H450.29V68.01H455.015V93ZM469.466 73.68C471.753 73.68 473.503 74.2167 474.716 75.29C475.93 76.34 476.536 77.9967 476.536 80.26V93H473.281L472.371 90.375H472.231C471.718 91.0517 471.193 91.6233 470.656 92.09C470.12 92.5333 469.501 92.8483 468.801 93.035C468.101 93.245 467.261 93.35 466.281 93.35C465.231 93.35 464.286 93.14 463.446 92.72C462.606 92.3 461.941 91.6583 461.451 90.795C460.961 89.9083 460.716 88.8 460.716 87.47C460.716 85.51 461.393 84.04 462.746 83.06C464.1 82.0567 466.13 81.5083 468.836 81.415L471.881 81.31V80.365C471.881 79.1517 471.625 78.2883 471.111 77.775C470.598 77.2617 469.898 77.005 469.011 77.005C468.171 77.005 467.32 77.145 466.456 77.425C465.616 77.705 464.788 78.0317 463.971 78.405L462.536 75.325C463.493 74.835 464.555 74.4383 465.721 74.135C466.888 73.8317 468.136 73.68 469.466 73.68ZM469.921 84.11C468.265 84.18 467.11 84.5183 466.456 85.125C465.803 85.7083 465.476 86.5017 465.476 87.505C465.476 88.3917 465.698 89.0333 466.141 89.43C466.608 89.8267 467.215 90.025 467.961 90.025C469.058 90.025 469.991 89.6633 470.761 88.94C471.531 88.1933 471.916 87.0967 471.916 85.65V84.04L469.921 84.11ZM490.416 93.35C488.666 93.35 487.149 93.0117 485.866 92.335C484.606 91.635 483.626 90.5733 482.926 89.15C482.249 87.7033 481.911 85.86 481.911 83.62C481.911 81.2867 482.284 79.3967 483.031 77.95C483.801 76.48 484.851 75.4067 486.181 74.73C487.534 74.03 489.063 73.68 490.766 73.68C491.839 73.68 492.843 73.7967 493.776 74.03C494.733 74.2633 495.526 74.5433 496.156 74.87L494.756 78.265C494.126 78.0083 493.496 77.7867 492.866 77.6C492.236 77.4133 491.606 77.32 490.976 77.32C490.019 77.32 489.226 77.5533 488.596 78.02C487.966 78.4867 487.476 79.1867 487.126 80.12C486.799 81.03 486.636 82.185 486.636 83.585C486.636 84.9383 486.799 86.07 487.126 86.98C487.476 87.89 487.966 88.5783 488.596 89.045C489.226 89.4883 489.996 89.71 490.906 89.71C491.816 89.71 492.656 89.5817 493.426 89.325C494.219 89.0683 494.966 88.7183 495.666 88.275V92.09C494.943 92.5333 494.173 92.8483 493.356 93.035C492.539 93.245 491.559 93.35 490.416 93.35ZM505.693 79.035C505.693 79.6417 505.669 80.2833 505.623 80.96C505.576 81.6133 505.518 82.255 505.448 82.885H505.588C505.704 82.605 505.879 82.3017 506.113 81.975C506.346 81.625 506.591 81.2867 506.848 80.96C507.128 80.61 507.396 80.295 507.653 80.015L512.588 74.03H517.838L510.943 82.22L518.258 93H512.903L507.758 84.88L505.693 86.7V93H501.073V66.4H505.693V79.035ZM529.752 73.68C531.385 73.68 532.785 74.03 533.952 74.73C535.142 75.4067 536.063 76.3867 536.717 77.67C537.37 78.93 537.697 80.47 537.697 82.29V84.53H526.077C526.123 86.2567 526.543 87.5983 527.337 88.555C528.153 89.4883 529.297 89.955 530.767 89.955C531.933 89.955 532.972 89.8383 533.882 89.605C534.792 89.3483 535.737 88.9867 536.717 88.52V92.055C535.83 92.4983 534.908 92.825 533.952 93.035C532.995 93.245 531.817 93.35 530.417 93.35C528.643 93.35 527.068 93 525.692 92.3C524.338 91.5767 523.277 90.4917 522.507 89.045C521.737 87.5983 521.352 85.8017 521.352 83.655C521.352 81.485 521.702 79.665 522.402 78.195C523.102 76.7017 524.082 75.5817 525.342 74.835C526.625 74.065 528.095 73.68 529.752 73.68ZM529.822 76.935C528.772 76.935 527.92 77.32 527.267 78.09C526.637 78.8367 526.263 79.9567 526.147 81.45H533.287C533.287 80.5633 533.158 79.7817 532.902 79.105C532.645 78.4283 532.26 77.9033 531.747 77.53C531.257 77.1333 530.615 76.935 529.822 76.935ZM552.772 73.68C553.098 73.68 553.437 73.6917 553.787 73.715C554.137 73.7383 554.428 73.785 554.662 73.855L554.242 77.95C554.008 77.9033 553.728 77.8683 553.402 77.845C553.098 77.7983 552.772 77.775 552.422 77.775C551.838 77.775 551.267 77.8917 550.707 78.125C550.147 78.335 549.645 78.6617 549.202 79.105C548.758 79.525 548.397 80.0733 548.117 80.75C547.86 81.4267 547.732 82.2317 547.732 83.165V93H543.077V74.03H546.647L547.277 77.32H547.522C547.872 76.6433 548.303 76.0367 548.817 75.5C549.353 74.94 549.948 74.4967 550.602 74.17C551.278 73.8433 552.002 73.68 552.772 73.68ZM579.585 71.44C578.605 71.44 577.719 71.65 576.925 72.07C576.132 72.49 575.455 73.0967 574.895 73.89C574.359 74.6833 573.95 75.64 573.67 76.76C573.39 77.88 573.25 79.14 573.25 80.54C573.25 82.43 573.484 84.0517 573.95 85.405C574.417 86.735 575.129 87.7617 576.085 88.485C577.042 89.2083 578.244 89.57 579.69 89.57C580.694 89.57 581.674 89.465 582.63 89.255C583.587 89.0217 584.555 88.7183 585.535 88.345V92.16C584.579 92.58 583.587 92.8833 582.56 93.07C581.557 93.2567 580.425 93.35 579.165 93.35C576.715 93.35 574.697 92.825 573.11 91.775C571.524 90.7017 570.334 89.2083 569.54 87.295C568.77 85.3583 568.385 83.095 568.385 80.505C568.385 78.615 568.63 76.8883 569.12 75.325C569.61 73.7617 570.334 72.4083 571.29 71.265C572.247 70.1217 573.425 69.235 574.825 68.605C576.225 67.975 577.824 67.66 579.62 67.66C580.81 67.66 582.012 67.8117 583.225 68.115C584.462 68.395 585.547 68.7917 586.48 69.305L584.905 72.98C584.089 72.5833 583.237 72.2333 582.35 71.93C581.487 71.6033 580.565 71.44 579.585 71.44ZM596.092 72.735C596.092 73.4817 596.057 74.2167 595.987 74.94C595.94 75.64 595.893 76.165 595.847 76.515H596.127C596.5 75.8617 596.943 75.3367 597.457 74.94C597.993 74.52 598.588 74.205 599.242 73.995C599.918 73.785 600.618 73.68 601.342 73.68C602.672 73.68 603.815 73.925 604.772 74.415C605.728 74.905 606.475 75.6633 607.012 76.69C607.548 77.6933 607.817 79.0117 607.817 80.645V93H603.162V81.52C603.162 80.0733 602.917 79 602.427 78.3C601.937 77.6 601.167 77.25 600.117 77.25C599.113 77.25 598.308 77.5067 597.702 78.02C597.095 78.51 596.675 79.245 596.442 80.225C596.208 81.1817 596.092 82.36 596.092 83.76V93H591.437V66.4H596.092V72.735ZM621.62 73.68C623.253 73.68 624.653 74.03 625.82 74.73C627.01 75.4067 627.932 76.3867 628.585 77.67C629.238 78.93 629.565 80.47 629.565 82.29V84.53H617.945C617.992 86.2567 618.412 87.5983 619.205 88.555C620.022 89.4883 621.165 89.955 622.635 89.955C623.802 89.955 624.84 89.8383 625.75 89.605C626.66 89.3483 627.605 88.9867 628.585 88.52V92.055C627.698 92.4983 626.777 92.825 625.82 93.035C624.863 93.245 623.685 93.35 622.285 93.35C620.512 93.35 618.937 93 617.56 92.3C616.207 91.5767 615.145 90.4917 614.375 89.045C613.605 87.5983 613.22 85.8017 613.22 83.655C613.22 81.485 613.57 79.665 614.27 78.195C614.97 76.7017 615.95 75.5817 617.21 74.835C618.493 74.065 619.963 73.68 621.62 73.68ZM621.69 76.935C620.64 76.935 619.788 77.32 619.135 78.09C618.505 78.8367 618.132 79.9567 618.015 81.45H625.155C625.155 80.5633 625.027 79.7817 624.77 79.105C624.513 78.4283 624.128 77.9033 623.615 77.53C623.125 77.1333 622.483 76.935 621.69 76.935ZM642.505 93.35C640.755 93.35 639.238 93.0117 637.955 92.335C636.695 91.635 635.715 90.5733 635.015 89.15C634.338 87.7033 634 85.86 634 83.62C634 81.2867 634.373 79.3967 635.12 77.95C635.89 76.48 636.94 75.4067 638.27 74.73C639.623 74.03 641.151 73.68 642.855 73.68C643.928 73.68 644.931 73.7967 645.865 74.03C646.821 74.2633 647.615 74.5433 648.245 74.87L646.845 78.265C646.215 78.0083 645.585 77.7867 644.955 77.6C644.325 77.4133 643.695 77.32 643.065 77.32C642.108 77.32 641.315 77.5533 640.685 78.02C640.055 78.4867 639.565 79.1867 639.215 80.12C638.888 81.03 638.725 82.185 638.725 83.585C638.725 84.9383 638.888 86.07 639.215 86.98C639.565 87.89 640.055 88.5783 640.685 89.045C641.315 89.4883 642.085 89.71 642.995 89.71C643.905 89.71 644.745 89.5817 645.515 89.325C646.308 89.0683 647.055 88.7183 647.755 88.275V92.09C647.031 92.5333 646.261 92.8483 645.445 93.035C644.628 93.245 643.648 93.35 642.505 93.35ZM657.781 79.035C657.781 79.6417 657.758 80.2833 657.711 80.96C657.665 81.6133 657.606 82.255 657.536 82.885H657.676C657.793 82.605 657.968 82.3017 658.201 81.975C658.435 81.625 658.68 81.2867 658.936 80.96C659.216 80.61 659.485 80.295 659.741 80.015L664.676 74.03H669.926L663.031 82.22L670.346 93H664.991L659.846 84.88L657.781 86.7V93H653.161V66.4H657.781V79.035ZM672.88 85.475V81.765H681.42V85.475H672.88ZM695.377 93H684.982V90.445L687.852 89.325V71.72L684.982 70.565V68.01H695.377V70.565L692.542 71.72V89.325L695.377 90.445V93ZM710.471 73.68C712.454 73.68 714.018 74.2283 715.161 75.325C716.304 76.4217 716.876 78.195 716.876 80.645V93H712.221V81.52C712.221 80.0967 711.976 79.035 711.486 78.335C710.996 77.6117 710.226 77.25 709.176 77.25C707.613 77.25 706.551 77.81 705.991 78.93C705.431 80.0267 705.151 81.625 705.151 83.725V93H700.496V74.03H704.066L704.731 76.515H704.906C705.326 75.8617 705.816 75.325 706.376 74.905C706.936 74.485 707.566 74.1817 708.266 73.995C708.966 73.785 709.701 73.68 710.471 73.68ZM457.15 140.47C457.15 142.407 456.928 144.168 456.485 145.755C456.042 147.318 455.353 148.672 454.42 149.815C453.51 150.958 452.355 151.833 450.955 152.44C449.555 153.047 447.91 153.35 446.02 153.35C444.107 153.35 442.45 153.047 441.05 152.44C439.65 151.81 438.495 150.935 437.585 149.815C436.675 148.672 435.987 147.307 435.52 145.72C435.077 144.133 434.855 142.372 434.855 140.435C434.855 137.845 435.252 135.593 436.045 133.68C436.862 131.767 438.098 130.285 439.755 129.235C441.412 128.162 443.512 127.625 446.055 127.625C448.575 127.625 450.652 128.162 452.285 129.235C453.918 130.285 455.132 131.778 455.925 133.715C456.742 135.628 457.15 137.88 457.15 140.47ZM439.825 140.47C439.825 142.36 440.035 143.982 440.455 145.335C440.875 146.688 441.54 147.727 442.45 148.45C443.383 149.173 444.573 149.535 446.02 149.535C447.467 149.535 448.645 149.173 449.555 148.45C450.465 147.727 451.13 146.688 451.55 145.335C451.97 143.982 452.18 142.36 452.18 140.47C452.18 137.647 451.69 135.43 450.71 133.82C449.753 132.21 448.19 131.405 446.02 131.405C444.573 131.405 443.383 131.767 442.45 132.49C441.54 133.213 440.875 134.252 440.455 135.605C440.035 136.958 439.825 138.58 439.825 140.47ZM472.765 133.68C474.818 133.68 476.463 134.508 477.7 136.165C478.96 137.798 479.59 140.237 479.59 143.48C479.59 145.627 479.298 147.435 478.715 148.905C478.132 150.375 477.315 151.483 476.265 152.23C475.215 152.977 474.002 153.35 472.625 153.35C471.762 153.35 471.003 153.233 470.35 153C469.72 152.743 469.183 152.428 468.74 152.055C468.297 151.658 467.923 151.238 467.62 150.795H467.375C467.445 151.215 467.503 151.693 467.55 152.23C467.597 152.743 467.62 153.233 467.62 153.7V161.4H462.965V134.03H466.745L467.375 136.55H467.62C467.947 136.013 468.332 135.535 468.775 135.115C469.242 134.672 469.802 134.322 470.455 134.065C471.108 133.808 471.878 133.68 472.765 133.68ZM471.295 137.25C470.408 137.25 469.685 137.46 469.125 137.88C468.588 138.277 468.203 138.895 467.97 139.735C467.737 140.575 467.62 141.625 467.62 142.885V143.445C467.62 144.798 467.725 145.942 467.935 146.875C468.168 147.808 468.553 148.52 469.09 149.01C469.65 149.5 470.408 149.745 471.365 149.745C472.158 149.745 472.812 149.488 473.325 148.975C473.838 148.462 474.223 147.738 474.48 146.805C474.737 145.848 474.865 144.717 474.865 143.41C474.865 141.45 474.562 139.933 473.955 138.86C473.372 137.787 472.485 137.25 471.295 137.25ZM492.533 133.68C494.166 133.68 495.566 134.03 496.733 134.73C497.923 135.407 498.844 136.387 499.498 137.67C500.151 138.93 500.478 140.47 500.478 142.29V144.53H488.858C488.904 146.257 489.324 147.598 490.118 148.555C490.934 149.488 492.078 149.955 493.548 149.955C494.714 149.955 495.753 149.838 496.663 149.605C497.573 149.348 498.518 148.987 499.498 148.52V152.055C498.611 152.498 497.689 152.825 496.733 153.035C495.776 153.245 494.598 153.35 493.198 153.35C491.424 153.35 489.849 153 488.473 152.3C487.119 151.577 486.058 150.492 485.288 149.045C484.518 147.598 484.133 145.802 484.133 143.655C484.133 141.485 484.483 139.665 485.183 138.195C485.883 136.702 486.863 135.582 488.123 134.835C489.406 134.065 490.876 133.68 492.533 133.68ZM492.603 136.935C491.553 136.935 490.701 137.32 490.048 138.09C489.418 138.837 489.044 139.957 488.928 141.45H496.068C496.068 140.563 495.939 139.782 495.683 139.105C495.426 138.428 495.041 137.903 494.528 137.53C494.038 137.133 493.396 136.935 492.603 136.935ZM515.833 133.68C517.816 133.68 519.379 134.228 520.523 135.325C521.666 136.422 522.238 138.195 522.238 140.645V153H517.583V141.52C517.583 140.097 517.338 139.035 516.848 138.335C516.358 137.612 515.588 137.25 514.538 137.25C512.974 137.25 511.913 137.81 511.353 138.93C510.793 140.027 510.513 141.625 510.513 143.725V153H505.858V134.03H509.428L510.093 136.515H510.268C510.688 135.862 511.178 135.325 511.738 134.905C512.298 134.485 512.928 134.182 513.628 133.995C514.328 133.785 515.063 133.68 515.833 133.68ZM533.241 134.03V153H528.621V134.03H533.241ZM530.966 126.715C531.642 126.715 532.226 126.89 532.716 127.24C533.206 127.567 533.451 128.162 533.451 129.025C533.451 129.865 533.206 130.472 532.716 130.845C532.226 131.195 531.642 131.37 530.966 131.37C530.242 131.37 529.636 131.195 529.146 130.845C528.656 130.472 528.411 129.865 528.411 129.025C528.411 128.162 528.656 127.567 529.146 127.24C529.636 126.89 530.242 126.715 530.966 126.715ZM549.668 133.68C551.651 133.68 553.215 134.228 554.358 135.325C555.501 136.422 556.073 138.195 556.073 140.645V153H551.418V141.52C551.418 140.097 551.173 139.035 550.683 138.335C550.193 137.612 549.423 137.25 548.373 137.25C546.81 137.25 545.748 137.81 545.188 138.93C544.628 140.027 544.348 141.625 544.348 143.725V153H539.693V134.03H543.263L543.928 136.515H544.103C544.523 135.862 545.013 135.325 545.573 134.905C546.133 134.485 546.763 134.182 547.463 133.995C548.163 133.785 548.898 133.68 549.668 133.68ZM568.406 133.68C569.573 133.68 570.588 133.913 571.451 134.38C572.314 134.847 573.038 135.547 573.621 136.48H573.761L574.181 134.03H578.101V153.14C578.101 154.937 577.774 156.442 577.121 157.655C576.468 158.892 575.488 159.825 574.181 160.455C572.898 161.085 571.264 161.4 569.281 161.4C567.951 161.4 566.738 161.307 565.641 161.12C564.568 160.957 563.541 160.665 562.561 160.245V156.605C563.238 156.908 563.926 157.165 564.626 157.375C565.349 157.608 566.096 157.783 566.866 157.9C567.636 158.017 568.453 158.075 569.316 158.075C570.669 158.075 571.696 157.667 572.396 156.85C573.119 156.033 573.481 154.867 573.481 153.35V152.86C573.481 152.51 573.493 152.102 573.516 151.635C573.563 151.168 573.598 150.795 573.621 150.515H573.481C572.921 151.495 572.221 152.218 571.381 152.685C570.541 153.128 569.526 153.35 568.336 153.35C566.213 153.35 564.533 152.487 563.296 150.76C562.083 149.033 561.476 146.63 561.476 143.55C561.476 141.473 561.756 139.7 562.316 138.23C562.876 136.76 563.669 135.64 564.696 134.87C565.746 134.077 566.983 133.68 568.406 133.68ZM569.806 137.285C569.013 137.285 568.348 137.53 567.811 138.02C567.298 138.487 566.901 139.187 566.621 140.12C566.341 141.053 566.201 142.22 566.201 143.62C566.201 145.673 566.504 147.225 567.111 148.275C567.718 149.325 568.628 149.85 569.841 149.85C570.541 149.85 571.136 149.757 571.626 149.57C572.116 149.36 572.513 149.033 572.816 148.59C573.119 148.123 573.353 147.54 573.516 146.84C573.679 146.117 573.761 145.253 573.761 144.25V143.585C573.761 142.068 573.621 140.855 573.341 139.945C573.084 139.012 572.664 138.335 572.081 137.915C571.498 137.495 570.739 137.285 569.806 137.285ZM605.014 131.44C604.034 131.44 603.147 131.65 602.354 132.07C601.56 132.49 600.884 133.097 600.324 133.89C599.787 134.683 599.379 135.64 599.099 136.76C598.819 137.88 598.679 139.14 598.679 140.54C598.679 142.43 598.912 144.052 599.379 145.405C599.845 146.735 600.557 147.762 601.514 148.485C602.47 149.208 603.672 149.57 605.119 149.57C606.122 149.57 607.102 149.465 608.059 149.255C609.015 149.022 609.984 148.718 610.964 148.345V152.16C610.007 152.58 609.015 152.883 607.989 153.07C606.985 153.257 605.854 153.35 604.594 153.35C602.144 153.35 600.125 152.825 598.539 151.775C596.952 150.702 595.762 149.208 594.969 147.295C594.199 145.358 593.814 143.095 593.814 140.505C593.814 138.615 594.059 136.888 594.549 135.325C595.039 133.762 595.762 132.408 596.719 131.265C597.675 130.122 598.854 129.235 600.254 128.605C601.654 127.975 603.252 127.66 605.049 127.66C606.239 127.66 607.44 127.812 608.654 128.115C609.89 128.395 610.975 128.792 611.909 129.305L610.334 132.98C609.517 132.583 608.665 132.233 607.779 131.93C606.915 131.603 605.994 131.44 605.014 131.44ZM624.32 133.68C625.953 133.68 627.353 134.03 628.52 134.73C629.71 135.407 630.632 136.387 631.285 137.67C631.938 138.93 632.265 140.47 632.265 142.29V144.53H620.645C620.692 146.257 621.112 147.598 621.905 148.555C622.722 149.488 623.865 149.955 625.335 149.955C626.502 149.955 627.54 149.838 628.45 149.605C629.36 149.348 630.305 148.987 631.285 148.52V152.055C630.398 152.498 629.477 152.825 628.52 153.035C627.563 153.245 626.385 153.35 624.985 153.35C623.212 153.35 621.637 153 620.26 152.3C618.907 151.577 617.845 150.492 617.075 149.045C616.305 147.598 615.92 145.802 615.92 143.655C615.92 141.485 616.27 139.665 616.97 138.195C617.67 136.702 618.65 135.582 619.91 134.835C621.193 134.065 622.663 133.68 624.32 133.68ZM624.39 136.935C623.34 136.935 622.488 137.32 621.835 138.09C621.205 138.837 620.832 139.957 620.715 141.45H627.855C627.855 140.563 627.727 139.782 627.47 139.105C627.213 138.428 626.828 137.903 626.315 137.53C625.825 137.133 625.183 136.935 624.39 136.935ZM647.34 133.68C647.667 133.68 648.005 133.692 648.355 133.715C648.705 133.738 648.997 133.785 649.23 133.855L648.81 137.95C648.577 137.903 648.297 137.868 647.97 137.845C647.667 137.798 647.34 137.775 646.99 137.775C646.407 137.775 645.835 137.892 645.275 138.125C644.715 138.335 644.213 138.662 643.77 139.105C643.327 139.525 642.965 140.073 642.685 140.75C642.428 141.427 642.3 142.232 642.3 143.165V153H637.645V134.03H641.215L641.845 137.32H642.09C642.44 136.643 642.872 136.037 643.385 135.5C643.922 134.94 644.517 134.497 645.17 134.17C645.847 133.843 646.57 133.68 647.34 133.68ZM660.479 133.68C662.113 133.68 663.513 134.03 664.679 134.73C665.869 135.407 666.791 136.387 667.444 137.67C668.098 138.93 668.424 140.47 668.424 142.29V144.53H656.804C656.851 146.257 657.271 147.598 658.064 148.555C658.881 149.488 660.024 149.955 661.494 149.955C662.661 149.955 663.699 149.838 664.609 149.605C665.519 149.348 666.464 148.987 667.444 148.52V152.055C666.558 152.498 665.636 152.825 664.679 153.035C663.723 153.245 662.544 153.35 661.144 153.35C659.371 153.35 657.796 153 656.419 152.3C655.066 151.577 654.004 150.492 653.234 149.045C652.464 147.598 652.079 145.802 652.079 143.655C652.079 141.485 652.429 139.665 653.129 138.195C653.829 136.702 654.809 135.582 656.069 134.835C657.353 134.065 658.823 133.68 660.479 133.68ZM660.549 136.935C659.499 136.935 658.648 137.32 657.994 138.09C657.364 138.837 656.991 139.957 656.874 141.45H664.014C664.014 140.563 663.886 139.782 663.629 139.105C663.373 138.428 662.988 137.903 662.474 137.53C661.984 137.133 661.343 136.935 660.549 136.935ZM694.629 133.68C696.683 133.68 698.223 134.228 699.249 135.325C700.276 136.422 700.789 138.195 700.789 140.645V153H696.204V141.485C696.204 140.085 695.971 139.035 695.504 138.335C695.038 137.612 694.314 137.25 693.334 137.25C691.981 137.25 691.024 137.752 690.464 138.755C689.904 139.758 689.624 141.217 689.624 143.13V153H685.004V141.485C685.004 140.552 684.899 139.77 684.689 139.14C684.479 138.51 684.164 138.043 683.744 137.74C683.324 137.413 682.788 137.25 682.134 137.25C681.201 137.25 680.466 137.507 679.929 138.02C679.393 138.51 679.008 139.233 678.774 140.19C678.564 141.147 678.459 142.325 678.459 143.725V153H673.804V134.03H677.374L678.039 136.515H678.249C678.599 135.862 679.031 135.325 679.544 134.905C680.081 134.485 680.688 134.182 681.364 133.995C682.064 133.785 682.788 133.68 683.534 133.68C684.864 133.68 685.973 133.925 686.859 134.415C687.769 134.882 688.469 135.617 688.959 136.62H689.204C689.788 135.593 690.558 134.847 691.514 134.38C692.494 133.913 693.533 133.68 694.629 133.68ZM723.472 143.48C723.472 145.067 723.274 146.467 722.877 147.68C722.481 148.893 721.897 149.932 721.127 150.795C720.381 151.635 719.471 152.277 718.397 152.72C717.324 153.14 716.122 153.35 714.792 153.35C713.556 153.35 712.401 153.14 711.327 152.72C710.277 152.277 709.367 151.635 708.597 150.795C707.851 149.932 707.267 148.893 706.847 147.68C706.427 146.467 706.217 145.067 706.217 143.48C706.217 141.38 706.556 139.607 707.232 138.16C707.932 136.69 708.936 135.582 710.242 134.835C711.549 134.065 713.101 133.68 714.897 133.68C716.577 133.68 718.059 134.065 719.342 134.835C720.626 135.582 721.629 136.69 722.352 138.16C723.099 139.607 723.472 141.38 723.472 143.48ZM710.942 143.48C710.942 144.81 711.082 145.953 711.362 146.91C711.642 147.843 712.062 148.555 712.622 149.045C713.206 149.535 713.952 149.78 714.862 149.78C715.772 149.78 716.507 149.535 717.067 149.045C717.651 148.555 718.071 147.843 718.327 146.91C718.607 145.953 718.747 144.81 718.747 143.48C718.747 142.127 718.607 140.995 718.327 140.085C718.047 139.152 717.616 138.452 717.032 137.985C716.472 137.495 715.737 137.25 714.827 137.25C713.451 137.25 712.459 137.787 711.852 138.86C711.246 139.933 710.942 141.473 710.942 143.48ZM738.908 133.68C740.892 133.68 742.455 134.228 743.598 135.325C744.742 136.422 745.313 138.195 745.313 140.645V153H740.658V141.52C740.658 140.097 740.413 139.035 739.923 138.335C739.433 137.612 738.663 137.25 737.613 137.25C736.05 137.25 734.988 137.81 734.428 138.93C733.868 140.027 733.588 141.625 733.588 143.725V153H728.933V134.03H732.503L733.168 136.515H733.343C733.763 135.862 734.253 135.325 734.813 134.905C735.373 134.485 736.003 134.182 736.703 133.995C737.403 133.785 738.138 133.68 738.908 133.68ZM749.142 134.03H754.112L757.507 144.74C757.67 145.183 757.798 145.627 757.892 146.07C758.008 146.513 758.102 146.957 758.172 147.4C758.265 147.843 758.335 148.287 758.382 148.73H758.487C758.58 148.147 758.697 147.505 758.837 146.805C759 146.105 759.187 145.417 759.397 144.74L762.722 134.03H767.622L760.097 155.485C759.653 156.745 759.093 157.818 758.417 158.705C757.763 159.592 756.958 160.257 756.002 160.7C755.068 161.167 753.948 161.4 752.642 161.4C752.105 161.4 751.627 161.365 751.207 161.295C750.81 161.248 750.46 161.19 750.157 161.12V157.62C750.39 157.667 750.682 157.713 751.032 157.76C751.382 157.807 751.743 157.83 752.117 157.83C752.793 157.83 753.365 157.678 753.832 157.375C754.322 157.095 754.73 156.698 755.057 156.185C755.383 155.695 755.628 155.123 755.792 154.47L756.282 152.93L749.142 134.03ZM455.015 213H450.29V201.905H440.63V213H435.94V188.01H440.63V198.09H450.29V188.01H455.015V213ZM469.466 193.68C471.753 193.68 473.503 194.217 474.716 195.29C475.93 196.34 476.536 197.997 476.536 200.26V213H473.281L472.371 210.375H472.231C471.718 211.052 471.193 211.623 470.656 212.09C470.12 212.533 469.501 212.848 468.801 213.035C468.101 213.245 467.261 213.35 466.281 213.35C465.231 213.35 464.286 213.14 463.446 212.72C462.606 212.3 461.941 211.658 461.451 210.795C460.961 209.908 460.716 208.8 460.716 207.47C460.716 205.51 461.393 204.04 462.746 203.06C464.1 202.057 466.13 201.508 468.836 201.415L471.881 201.31V200.365C471.881 199.152 471.625 198.288 471.111 197.775C470.598 197.262 469.898 197.005 469.011 197.005C468.171 197.005 467.32 197.145 466.456 197.425C465.616 197.705 464.788 198.032 463.971 198.405L462.536 195.325C463.493 194.835 464.555 194.438 465.721 194.135C466.888 193.832 468.136 193.68 469.466 193.68ZM469.921 204.11C468.265 204.18 467.11 204.518 466.456 205.125C465.803 205.708 465.476 206.502 465.476 207.505C465.476 208.392 465.698 209.033 466.141 209.43C466.608 209.827 467.215 210.025 467.961 210.025C469.058 210.025 469.991 209.663 470.761 208.94C471.531 208.193 471.916 207.097 471.916 205.65V204.04L469.921 204.11ZM490.416 213.35C488.666 213.35 487.149 213.012 485.866 212.335C484.606 211.635 483.626 210.573 482.926 209.15C482.249 207.703 481.911 205.86 481.911 203.62C481.911 201.287 482.284 199.397 483.031 197.95C483.801 196.48 484.851 195.407 486.181 194.73C487.534 194.03 489.063 193.68 490.766 193.68C491.839 193.68 492.843 193.797 493.776 194.03C494.733 194.263 495.526 194.543 496.156 194.87L494.756 198.265C494.126 198.008 493.496 197.787 492.866 197.6C492.236 197.413 491.606 197.32 490.976 197.32C490.019 197.32 489.226 197.553 488.596 198.02C487.966 198.487 487.476 199.187 487.126 200.12C486.799 201.03 486.636 202.185 486.636 203.585C486.636 204.938 486.799 206.07 487.126 206.98C487.476 207.89 487.966 208.578 488.596 209.045C489.226 209.488 489.996 209.71 490.906 209.71C491.816 209.71 492.656 209.582 493.426 209.325C494.219 209.068 494.966 208.718 495.666 208.275V212.09C494.943 212.533 494.173 212.848 493.356 213.035C492.539 213.245 491.559 213.35 490.416 213.35ZM505.693 199.035C505.693 199.642 505.669 200.283 505.623 200.96C505.576 201.613 505.518 202.255 505.448 202.885H505.588C505.704 202.605 505.879 202.302 506.113 201.975C506.346 201.625 506.591 201.287 506.848 200.96C507.128 200.61 507.396 200.295 507.653 200.015L512.588 194.03H517.838L510.943 202.22L518.258 213H512.903L507.758 204.88L505.693 206.7V213H501.073V186.4H505.693V199.035ZM526.952 194.03V213H522.332V194.03H526.952ZM524.677 186.715C525.353 186.715 525.937 186.89 526.427 187.24C526.917 187.567 527.162 188.162 527.162 189.025C527.162 189.865 526.917 190.472 526.427 190.845C525.937 191.195 525.353 191.37 524.677 191.37C523.953 191.37 523.347 191.195 522.857 190.845C522.367 190.472 522.122 189.865 522.122 189.025C522.122 188.162 522.367 187.567 522.857 187.24C523.347 186.89 523.953 186.715 524.677 186.715ZM543.379 193.68C545.362 193.68 546.925 194.228 548.069 195.325C549.212 196.422 549.784 198.195 549.784 200.645V213H545.129V201.52C545.129 200.097 544.884 199.035 544.394 198.335C543.904 197.612 543.134 197.25 542.084 197.25C540.52 197.25 539.459 197.81 538.899 198.93C538.339 200.027 538.059 201.625 538.059 203.725V213H533.404V194.03H536.974L537.639 196.515H537.814C538.234 195.862 538.724 195.325 539.284 194.905C539.844 194.485 540.474 194.182 541.174 193.995C541.874 193.785 542.609 193.68 543.379 193.68ZM562.117 193.68C563.284 193.68 564.299 193.913 565.162 194.38C566.025 194.847 566.749 195.547 567.332 196.48H567.472L567.892 194.03H571.812V213.14C571.812 214.937 571.485 216.442 570.832 217.655C570.179 218.892 569.199 219.825 567.892 220.455C566.609 221.085 564.975 221.4 562.992 221.4C561.662 221.4 560.449 221.307 559.352 221.12C558.279 220.957 557.252 220.665 556.272 220.245V216.605C556.949 216.908 557.637 217.165 558.337 217.375C559.06 217.608 559.807 217.783 560.577 217.9C561.347 218.017 562.164 218.075 563.027 218.075C564.38 218.075 565.407 217.667 566.107 216.85C566.83 216.033 567.192 214.867 567.192 213.35V212.86C567.192 212.51 567.204 212.102 567.227 211.635C567.274 211.168 567.309 210.795 567.332 210.515H567.192C566.632 211.495 565.932 212.218 565.092 212.685C564.252 213.128 563.237 213.35 562.047 213.35C559.924 213.35 558.244 212.487 557.007 210.76C555.794 209.033 555.187 206.63 555.187 203.55C555.187 201.473 555.467 199.7 556.027 198.23C556.587 196.76 557.38 195.64 558.407 194.87C559.457 194.077 560.694 193.68 562.117 193.68ZM563.517 197.285C562.724 197.285 562.059 197.53 561.522 198.02C561.009 198.487 560.612 199.187 560.332 200.12C560.052 201.053 559.912 202.22 559.912 203.62C559.912 205.673 560.215 207.225 560.822 208.275C561.429 209.325 562.339 209.85 563.552 209.85C564.252 209.85 564.847 209.757 565.337 209.57C565.827 209.36 566.224 209.033 566.527 208.59C566.83 208.123 567.064 207.54 567.227 206.84C567.39 206.117 567.472 205.253 567.472 204.25V203.585C567.472 202.068 567.332 200.855 567.052 199.945C566.795 199.012 566.375 198.335 565.792 197.915C565.209 197.495 564.45 197.285 563.517 197.285ZM602.715 206.175C602.715 207.645 602.376 208.917 601.7 209.99C601.046 211.063 600.066 211.892 598.76 212.475C597.476 213.058 595.89 213.35 594 213.35C593.066 213.35 592.203 213.292 591.41 213.175C590.616 213.082 589.87 212.93 589.17 212.72C588.493 212.51 587.84 212.253 587.21 211.95V207.75C588.26 208.217 589.391 208.648 590.605 209.045C591.841 209.418 593.043 209.605 594.21 209.605C595.096 209.605 595.82 209.477 596.38 209.22C596.94 208.94 597.348 208.567 597.605 208.1C597.885 207.61 598.025 207.05 598.025 206.42C598.025 205.72 597.85 205.125 597.5 204.635C597.173 204.145 596.66 203.69 595.96 203.27C595.26 202.85 594.35 202.418 593.23 201.975C592.436 201.625 591.678 201.252 590.955 200.855C590.255 200.435 589.636 199.933 589.1 199.35C588.586 198.767 588.178 198.078 587.875 197.285C587.595 196.492 587.455 195.558 587.455 194.485C587.455 193.062 587.793 191.837 588.47 190.81C589.146 189.783 590.091 189.002 591.305 188.465C592.518 187.928 593.93 187.66 595.54 187.66C596.893 187.66 598.13 187.8 599.25 188.08C600.393 188.36 601.466 188.757 602.47 189.27L601 192.875C600.043 192.432 599.098 192.082 598.165 191.825C597.255 191.568 596.333 191.44 595.4 191.44C594.676 191.44 594.07 191.568 593.58 191.825C593.09 192.058 592.716 192.397 592.46 192.84C592.226 193.283 592.11 193.797 592.11 194.38C592.11 195.057 592.273 195.628 592.6 196.095C592.926 196.562 593.44 197.005 594.14 197.425C594.84 197.822 595.75 198.288 596.87 198.825C598.106 199.385 599.156 199.98 600.02 200.61C600.906 201.24 601.571 201.998 602.015 202.885C602.481 203.772 602.715 204.868 602.715 206.175ZM615.364 209.815C615.878 209.815 616.368 209.768 616.834 209.675C617.324 209.558 617.779 209.43 618.199 209.29V212.58C617.709 212.79 617.114 212.965 616.414 213.105C615.714 213.268 614.933 213.35 614.069 213.35C612.996 213.35 612.039 213.175 611.199 212.825C610.359 212.452 609.694 211.822 609.204 210.935C608.738 210.048 608.504 208.812 608.504 207.225V197.355H606.124V195.43L608.784 193.89L610.184 189.865H613.124V194.03H618.024V197.355H613.124V207.19C613.124 208.077 613.323 208.742 613.719 209.185C614.139 209.605 614.688 209.815 615.364 209.815ZM630.645 193.68C632.932 193.68 634.682 194.217 635.895 195.29C637.109 196.34 637.715 197.997 637.715 200.26V213H634.46L633.55 210.375H633.41C632.897 211.052 632.372 211.623 631.835 212.09C631.299 212.533 630.68 212.848 629.98 213.035C629.28 213.245 628.44 213.35 627.46 213.35C626.41 213.35 625.465 213.14 624.625 212.72C623.785 212.3 623.12 211.658 622.63 210.795C622.14 209.908 621.895 208.8 621.895 207.47C621.895 205.51 622.572 204.04 623.925 203.06C625.279 202.057 627.309 201.508 630.015 201.415L633.06 201.31V200.365C633.06 199.152 632.804 198.288 632.29 197.775C631.777 197.262 631.077 197.005 630.19 197.005C629.35 197.005 628.499 197.145 627.635 197.425C626.795 197.705 625.967 198.032 625.15 198.405L623.715 195.325C624.672 194.835 625.734 194.438 626.9 194.135C628.067 193.832 629.315 193.68 630.645 193.68ZM631.1 204.11C629.444 204.18 628.289 204.518 627.635 205.125C626.982 205.708 626.655 206.502 626.655 207.505C626.655 208.392 626.877 209.033 627.32 209.43C627.787 209.827 628.394 210.025 629.14 210.025C630.237 210.025 631.17 209.663 631.94 208.94C632.71 208.193 633.095 207.097 633.095 205.65V204.04L631.1 204.11ZM653.73 193.68C654.057 193.68 654.395 193.692 654.745 193.715C655.095 193.738 655.387 193.785 655.62 193.855L655.2 197.95C654.967 197.903 654.687 197.868 654.36 197.845C654.057 197.798 653.73 197.775 653.38 197.775C652.797 197.775 652.225 197.892 651.665 198.125C651.105 198.335 650.604 198.662 650.16 199.105C649.717 199.525 649.355 200.073 649.075 200.75C648.819 201.427 648.69 202.232 648.69 203.165V213H644.035V194.03H647.605L648.235 197.32H648.48C648.83 196.643 649.262 196.037 649.775 195.5C650.312 194.94 650.907 194.497 651.56 194.17C652.237 193.843 652.96 193.68 653.73 193.68ZM667.484 209.815C667.997 209.815 668.487 209.768 668.954 209.675C669.444 209.558 669.899 209.43 670.319 209.29V212.58C669.829 212.79 669.234 212.965 668.534 213.105C667.834 213.268 667.052 213.35 666.189 213.35C665.116 213.35 664.159 213.175 663.319 212.825C662.479 212.452 661.814 211.822 661.324 210.935C660.857 210.048 660.624 208.812 660.624 207.225V197.355H658.244V195.43L660.904 193.89L662.304 189.865H665.244V194.03H670.144V197.355H665.244V207.19C665.244 208.077 665.442 208.742 665.839 209.185C666.259 209.605 666.807 209.815 667.484 209.815ZM687.665 207.505C687.665 208.765 687.385 209.838 686.825 210.725C686.265 211.588 685.437 212.242 684.34 212.685C683.244 213.128 681.867 213.35 680.21 213.35C678.95 213.35 677.854 213.257 676.92 213.07C675.987 212.883 675.089 212.592 674.225 212.195V208.45C675.159 208.893 676.162 209.267 677.235 209.57C678.332 209.873 679.324 210.025 680.21 210.025C681.26 210.025 682.019 209.838 682.485 209.465C682.952 209.092 683.185 208.59 683.185 207.96C683.185 207.587 683.08 207.248 682.87 206.945C682.684 206.642 682.287 206.327 681.68 206C681.097 205.65 680.245 205.218 679.125 204.705C678.029 204.215 677.119 203.725 676.395 203.235C675.672 202.745 675.124 202.162 674.75 201.485C674.377 200.785 674.19 199.91 674.19 198.86C674.19 197.157 674.832 195.873 676.115 195.01C677.422 194.123 679.125 193.68 681.225 193.68C682.369 193.68 683.43 193.797 684.41 194.03C685.414 194.24 686.417 194.59 687.42 195.08L686.055 198.335C685.495 198.078 684.924 197.857 684.34 197.67C683.78 197.46 683.232 197.297 682.695 197.18C682.182 197.063 681.669 197.005 681.155 197.005C680.339 197.005 679.72 197.157 679.3 197.46C678.88 197.74 678.67 198.148 678.67 198.685C678.67 199.058 678.775 199.397 678.985 199.7C679.195 199.98 679.592 200.272 680.175 200.575C680.759 200.878 681.587 201.263 682.66 201.73C683.734 202.15 684.644 202.605 685.39 203.095C686.137 203.562 686.697 204.145 687.07 204.845C687.467 205.545 687.665 206.432 687.665 207.505ZM696.967 205.195H693.187L692.452 188.01H697.737L696.967 205.195ZM692.347 210.76C692.347 209.78 692.604 209.092 693.117 208.695C693.654 208.275 694.296 208.065 695.042 208.065C695.789 208.065 696.419 208.263 696.932 208.66C697.469 209.057 697.737 209.757 697.737 210.76C697.737 211.717 697.469 212.405 696.932 212.825C696.419 213.245 695.789 213.455 695.042 213.455C694.296 213.455 693.654 213.245 693.117 212.825C692.604 212.405 692.347 211.717 692.347 210.76ZM435.94 273V248.01H440.63V269.22H450.255V273H435.94ZM471.48 254.03V273H467.91L467.315 270.55H467.07C466.697 271.203 466.219 271.74 465.635 272.16C465.052 272.557 464.41 272.848 463.71 273.035C463.01 273.245 462.287 273.35 461.54 273.35C460.234 273.35 459.102 273.105 458.145 272.615C457.189 272.125 456.442 271.378 455.905 270.375C455.392 269.348 455.135 268.03 455.135 266.42V254.03H459.79V265.545C459.79 266.945 460.024 268.007 460.49 268.73C460.98 269.43 461.75 269.78 462.8 269.78C463.85 269.78 464.667 269.535 465.25 269.045C465.857 268.532 466.277 267.797 466.51 266.84C466.744 265.883 466.86 264.705 466.86 263.305V254.03H471.48ZM487.943 253.68C489.927 253.68 491.49 254.228 492.633 255.325C493.777 256.422 494.348 258.195 494.348 260.645V273H489.693V261.52C489.693 260.097 489.448 259.035 488.958 258.335C488.468 257.612 487.698 257.25 486.648 257.25C485.085 257.25 484.023 257.81 483.463 258.93C482.903 260.027 482.623 261.625 482.623 263.725V273H477.968V254.03H481.538L482.203 256.515H482.378C482.798 255.862 483.288 255.325 483.848 254.905C484.408 254.485 485.038 254.182 485.738 253.995C486.438 253.785 487.173 253.68 487.943 253.68ZM508.257 273.35C506.507 273.35 504.99 273.012 503.707 272.335C502.447 271.635 501.467 270.573 500.767 269.15C500.09 267.703 499.752 265.86 499.752 263.62C499.752 261.287 500.125 259.397 500.872 257.95C501.642 256.48 502.692 255.407 504.022 254.73C505.375 254.03 506.903 253.68 508.607 253.68C509.68 253.68 510.683 253.797 511.617 254.03C512.573 254.263 513.367 254.543 513.997 254.87L512.597 258.265C511.967 258.008 511.337 257.787 510.707 257.6C510.077 257.413 509.447 257.32 508.817 257.32C507.86 257.32 507.067 257.553 506.437 258.02C505.807 258.487 505.317 259.187 504.967 260.12C504.64 261.03 504.477 262.185 504.477 263.585C504.477 264.938 504.64 266.07 504.967 266.98C505.317 267.89 505.807 268.578 506.437 269.045C507.067 269.488 507.837 269.71 508.747 269.71C509.657 269.71 510.497 269.582 511.267 269.325C512.06 269.068 512.807 268.718 513.507 268.275V272.09C512.783 272.533 512.013 272.848 511.197 273.035C510.38 273.245 509.4 273.35 508.257 273.35ZM523.568 252.735C523.568 253.482 523.533 254.217 523.463 254.94C523.416 255.64 523.37 256.165 523.323 256.515H523.603C523.976 255.862 524.42 255.337 524.933 254.94C525.47 254.52 526.065 254.205 526.718 253.995C527.395 253.785 528.095 253.68 528.818 253.68C530.148 253.68 531.291 253.925 532.248 254.415C533.205 254.905 533.951 255.663 534.488 256.69C535.025 257.693 535.293 259.012 535.293 260.645V273H530.638V261.52C530.638 260.073 530.393 259 529.903 258.3C529.413 257.6 528.643 257.25 527.593 257.25C526.59 257.25 525.785 257.507 525.178 258.02C524.571 258.51 524.151 259.245 523.918 260.225C523.685 261.182 523.568 262.36 523.568 263.76V273H518.913V246.4H523.568V252.735ZM562.296 248.01L553.546 273H549.311L558.061 248.01H562.296ZM585.639 273H580.914V251.79H574.404V248.01H592.114V251.79H585.639V273ZM601.762 253.68C603.395 253.68 604.795 254.03 605.962 254.73C607.152 255.407 608.073 256.387 608.727 257.67C609.38 258.93 609.707 260.47 609.707 262.29V264.53H598.087C598.133 266.257 598.553 267.598 599.347 268.555C600.163 269.488 601.307 269.955 602.777 269.955C603.943 269.955 604.982 269.838 605.892 269.605C606.802 269.348 607.747 268.987 608.727 268.52V272.055C607.84 272.498 606.918 272.825 605.962 273.035C605.005 273.245 603.827 273.35 602.427 273.35C600.653 273.35 599.078 273 597.702 272.3C596.348 271.577 595.287 270.492 594.517 269.045C593.747 267.598 593.362 265.802 593.362 263.655C593.362 261.485 593.712 259.665 594.412 258.195C595.112 256.702 596.092 255.582 597.352 254.835C598.635 254.065 600.105 253.68 601.762 253.68ZM601.832 256.935C600.782 256.935 599.93 257.32 599.277 258.09C598.647 258.837 598.273 259.957 598.157 261.45H605.297C605.297 260.563 605.168 259.782 604.912 259.105C604.655 258.428 604.27 257.903 603.757 257.53C603.267 257.133 602.625 256.935 601.832 256.935ZM622.681 253.68C624.968 253.68 626.718 254.217 627.931 255.29C629.145 256.34 629.751 257.997 629.751 260.26V273H626.496L625.586 270.375H625.446C624.933 271.052 624.408 271.623 623.871 272.09C623.335 272.533 622.716 272.848 622.016 273.035C621.316 273.245 620.476 273.35 619.496 273.35C618.446 273.35 617.501 273.14 616.661 272.72C615.821 272.3 615.156 271.658 614.666 270.795C614.176 269.908 613.931 268.8 613.931 267.47C613.931 265.51 614.608 264.04 615.961 263.06C617.315 262.057 619.345 261.508 622.051 261.415L625.096 261.31V260.365C625.096 259.152 624.84 258.288 624.326 257.775C623.813 257.262 623.113 257.005 622.226 257.005C621.386 257.005 620.535 257.145 619.671 257.425C618.831 257.705 618.003 258.032 617.186 258.405L615.751 255.325C616.708 254.835 617.77 254.438 618.936 254.135C620.103 253.832 621.351 253.68 622.681 253.68ZM623.136 264.11C621.48 264.18 620.325 264.518 619.671 265.125C619.018 265.708 618.691 266.502 618.691 267.505C618.691 268.392 618.913 269.033 619.356 269.43C619.823 269.827 620.43 270.025 621.176 270.025C622.273 270.025 623.206 269.663 623.976 268.94C624.746 268.193 625.131 267.097 625.131 265.65V264.04L623.136 264.11ZM656.896 253.68C658.95 253.68 660.49 254.228 661.516 255.325C662.543 256.422 663.056 258.195 663.056 260.645V273H658.471V261.485C658.471 260.085 658.238 259.035 657.771 258.335C657.305 257.612 656.581 257.25 655.601 257.25C654.248 257.25 653.291 257.752 652.731 258.755C652.171 259.758 651.891 261.217 651.891 263.13V273H647.271V261.485C647.271 260.552 647.166 259.77 646.956 259.14C646.746 258.51 646.431 258.043 646.011 257.74C645.591 257.413 645.055 257.25 644.401 257.25C643.468 257.25 642.733 257.507 642.196 258.02C641.66 258.51 641.275 259.233 641.041 260.19C640.831 261.147 640.726 262.325 640.726 263.725V273H636.071V254.03H639.641L640.306 256.515H640.516C640.866 255.862 641.298 255.325 641.811 254.905C642.348 254.485 642.955 254.182 643.631 253.995C644.331 253.785 645.055 253.68 645.801 253.68C647.131 253.68 648.24 253.925 649.126 254.415C650.036 254.882 650.736 255.617 651.226 256.62H651.471C652.055 255.593 652.825 254.847 653.781 254.38C654.761 253.913 655.8 253.68 656.896 253.68ZM689.944 273L683.854 252.525H683.714C683.738 252.992 683.773 253.657 683.819 254.52C683.866 255.36 683.901 256.282 683.924 257.285C683.971 258.265 683.994 259.187 683.994 260.05V273H679.794V248.01H686.234L692.184 267.645H692.289L698.344 248.01H704.819V273H700.409V259.84C700.409 259.047 700.421 258.183 700.444 257.25C700.468 256.293 700.503 255.395 700.549 254.555C700.596 253.692 700.631 253.027 700.654 252.56H700.514L694.249 273H689.944ZM716.328 254.03V273H711.708V254.03H716.328ZM714.053 246.715C714.729 246.715 715.313 246.89 715.803 247.24C716.293 247.567 716.538 248.162 716.538 249.025C716.538 249.865 716.293 250.472 715.803 250.845C715.313 251.195 714.729 251.37 714.053 251.37C713.329 251.37 712.723 251.195 712.233 250.845C711.743 250.472 711.498 249.865 711.498 249.025C711.498 248.162 711.743 247.567 712.233 247.24C712.723 246.89 713.329 246.715 714.053 246.715ZM726.7 263.305L720.855 254.03H726.14L729.78 260.47L733.42 254.03H738.67L732.755 263.305L738.95 273H733.7L729.78 266.105L725.825 273H720.575L726.7 263.305ZM749.989 253.68C751.623 253.68 753.023 254.03 754.189 254.73C755.379 255.407 756.301 256.387 756.954 257.67C757.608 258.93 757.934 260.47 757.934 262.29V264.53H746.314C746.361 266.257 746.781 267.598 747.574 268.555C748.391 269.488 749.534 269.955 751.004 269.955C752.171 269.955 753.209 269.838 754.119 269.605C755.029 269.348 755.974 268.987 756.954 268.52V272.055C756.068 272.498 755.146 272.825 754.189 273.035C753.233 273.245 752.054 273.35 750.654 273.35C748.881 273.35 747.306 273 745.929 272.3C744.576 271.577 743.514 270.492 742.744 269.045C741.974 267.598 741.589 265.802 741.589 263.655C741.589 261.485 741.939 259.665 742.639 258.195C743.339 256.702 744.319 255.582 745.579 254.835C746.863 254.065 748.333 253.68 749.989 253.68ZM750.059 256.935C749.009 256.935 748.158 257.32 747.504 258.09C746.874 258.837 746.501 259.957 746.384 261.45H753.524C753.524 260.563 753.396 259.782 753.139 259.105C752.883 258.428 752.498 257.903 751.984 257.53C751.494 257.133 750.853 256.935 750.059 256.935ZM773.009 253.68C773.336 253.68 773.674 253.692 774.024 253.715C774.374 253.738 774.666 253.785 774.899 253.855L774.479 257.95C774.246 257.903 773.966 257.868 773.639 257.845C773.336 257.798 773.009 257.775 772.659 257.775C772.076 257.775 771.504 257.892 770.944 258.125C770.384 258.335 769.882 258.662 769.439 259.105C768.996 259.525 768.634 260.073 768.354 260.75C768.097 261.427 767.969 262.232 767.969 263.165V273H763.314V254.03H766.884L767.514 257.32H767.759C768.109 256.643 768.541 256.037 769.054 255.5C769.591 254.94 770.186 254.497 770.839 254.17C771.516 253.843 772.239 253.68 773.009 253.68ZM450.045 326.175C450.045 327.645 449.707 328.917 449.03 329.99C448.377 331.063 447.397 331.892 446.09 332.475C444.807 333.058 443.22 333.35 441.33 333.35C440.397 333.35 439.533 333.292 438.74 333.175C437.947 333.082 437.2 332.93 436.5 332.72C435.823 332.51 435.17 332.253 434.54 331.95V327.75C435.59 328.217 436.722 328.648 437.935 329.045C439.172 329.418 440.373 329.605 441.54 329.605C442.427 329.605 443.15 329.477 443.71 329.22C444.27 328.94 444.678 328.567 444.935 328.1C445.215 327.61 445.355 327.05 445.355 326.42C445.355 325.72 445.18 325.125 444.83 324.635C444.503 324.145 443.99 323.69 443.29 323.27C442.59 322.85 441.68 322.418 440.56 321.975C439.767 321.625 439.008 321.252 438.285 320.855C437.585 320.435 436.967 319.933 436.43 319.35C435.917 318.767 435.508 318.078 435.205 317.285C434.925 316.492 434.785 315.558 434.785 314.485C434.785 313.062 435.123 311.837 435.8 310.81C436.477 309.783 437.422 309.002 438.635 308.465C439.848 307.928 441.26 307.66 442.87 307.66C444.223 307.66 445.46 307.8 446.58 308.08C447.723 308.36 448.797 308.757 449.8 309.27L448.33 312.875C447.373 312.432 446.428 312.082 445.495 311.825C444.585 311.568 443.663 311.44 442.73 311.44C442.007 311.44 441.4 311.568 440.91 311.825C440.42 312.058 440.047 312.397 439.79 312.84C439.557 313.283 439.44 313.797 439.44 314.38C439.44 315.057 439.603 315.628 439.93 316.095C440.257 316.562 440.77 317.005 441.47 317.425C442.17 317.822 443.08 318.288 444.2 318.825C445.437 319.385 446.487 319.98 447.35 320.61C448.237 321.24 448.902 321.998 449.345 322.885C449.812 323.772 450.045 324.868 450.045 326.175ZM465.074 313.68C467.128 313.68 468.773 314.508 470.009 316.165C471.269 317.798 471.899 320.237 471.899 323.48C471.899 325.627 471.608 327.435 471.024 328.905C470.441 330.375 469.624 331.483 468.574 332.23C467.524 332.977 466.311 333.35 464.934 333.35C464.071 333.35 463.313 333.233 462.659 333C462.029 332.743 461.493 332.428 461.049 332.055C460.606 331.658 460.233 331.238 459.929 330.795H459.684C459.754 331.215 459.813 331.693 459.859 332.23C459.906 332.743 459.929 333.233 459.929 333.7V341.4H455.274V314.03H459.054L459.684 316.55H459.929C460.256 316.013 460.641 315.535 461.084 315.115C461.551 314.672 462.111 314.322 462.764 314.065C463.418 313.808 464.188 313.68 465.074 313.68ZM463.604 317.25C462.718 317.25 461.994 317.46 461.434 317.88C460.898 318.277 460.513 318.895 460.279 319.735C460.046 320.575 459.929 321.625 459.929 322.885V323.445C459.929 324.798 460.034 325.942 460.244 326.875C460.478 327.808 460.863 328.52 461.399 329.01C461.959 329.5 462.718 329.745 463.674 329.745C464.468 329.745 465.121 329.488 465.634 328.975C466.148 328.462 466.533 327.738 466.789 326.805C467.046 325.848 467.174 324.717 467.174 323.41C467.174 321.45 466.871 319.933 466.264 318.86C465.681 317.787 464.794 317.25 463.604 317.25ZM493.697 323.48C493.697 325.067 493.499 326.467 493.102 327.68C492.706 328.893 492.122 329.932 491.352 330.795C490.606 331.635 489.696 332.277 488.622 332.72C487.549 333.14 486.347 333.35 485.017 333.35C483.781 333.35 482.626 333.14 481.552 332.72C480.502 332.277 479.592 331.635 478.822 330.795C478.076 329.932 477.492 328.893 477.072 327.68C476.652 326.467 476.442 325.067 476.442 323.48C476.442 321.38 476.781 319.607 477.457 318.16C478.157 316.69 479.161 315.582 480.467 314.835C481.774 314.065 483.326 313.68 485.122 313.68C486.802 313.68 488.284 314.065 489.567 314.835C490.851 315.582 491.854 316.69 492.577 318.16C493.324 319.607 493.697 321.38 493.697 323.48ZM481.167 323.48C481.167 324.81 481.307 325.953 481.587 326.91C481.867 327.843 482.287 328.555 482.847 329.045C483.431 329.535 484.177 329.78 485.087 329.78C485.997 329.78 486.732 329.535 487.292 329.045C487.876 328.555 488.296 327.843 488.552 326.91C488.832 325.953 488.972 324.81 488.972 323.48C488.972 322.127 488.832 320.995 488.552 320.085C488.272 319.152 487.841 318.452 487.257 317.985C486.697 317.495 485.962 317.25 485.052 317.25C483.676 317.25 482.684 317.787 482.077 318.86C481.471 319.933 481.167 321.473 481.167 323.48ZM509.133 313.68C511.117 313.68 512.68 314.228 513.823 315.325C514.967 316.422 515.538 318.195 515.538 320.645V333H510.883V321.52C510.883 320.097 510.638 319.035 510.148 318.335C509.658 317.612 508.888 317.25 507.838 317.25C506.275 317.25 505.213 317.81 504.653 318.93C504.093 320.027 503.813 321.625 503.813 323.725V333H499.158V314.03H502.728L503.393 316.515H503.568C503.988 315.862 504.478 315.325 505.038 314.905C505.598 314.485 506.228 314.182 506.928 313.995C507.628 313.785 508.363 313.68 509.133 313.68ZM534.382 327.505C534.382 328.765 534.102 329.838 533.542 330.725C532.982 331.588 532.153 332.242 531.057 332.685C529.96 333.128 528.583 333.35 526.927 333.35C525.667 333.35 524.57 333.257 523.637 333.07C522.703 332.883 521.805 332.592 520.942 332.195V328.45C521.875 328.893 522.878 329.267 523.952 329.57C525.048 329.873 526.04 330.025 526.927 330.025C527.977 330.025 528.735 329.838 529.202 329.465C529.668 329.092 529.902 328.59 529.902 327.96C529.902 327.587 529.797 327.248 529.587 326.945C529.4 326.642 529.003 326.327 528.397 326C527.813 325.65 526.962 325.218 525.842 324.705C524.745 324.215 523.835 323.725 523.112 323.235C522.388 322.745 521.84 322.162 521.467 321.485C521.093 320.785 520.907 319.91 520.907 318.86C520.907 317.157 521.548 315.873 522.832 315.01C524.138 314.123 525.842 313.68 527.942 313.68C529.085 313.68 530.147 313.797 531.127 314.03C532.13 314.24 533.133 314.59 534.137 315.08L532.772 318.335C532.212 318.078 531.64 317.857 531.057 317.67C530.497 317.46 529.948 317.297 529.412 317.18C528.898 317.063 528.385 317.005 527.872 317.005C527.055 317.005 526.437 317.157 526.017 317.46C525.597 317.74 525.387 318.148 525.387 318.685C525.387 319.058 525.492 319.397 525.702 319.7C525.912 319.98 526.308 320.272 526.892 320.575C527.475 320.878 528.303 321.263 529.377 321.73C530.45 322.15 531.36 322.605 532.107 323.095C532.853 323.562 533.413 324.145 533.787 324.845C534.183 325.545 534.382 326.432 534.382 327.505ZM555.969 323.48C555.969 325.067 555.77 326.467 555.374 327.68C554.977 328.893 554.394 329.932 553.624 330.795C552.877 331.635 551.967 332.277 550.894 332.72C549.82 333.14 548.619 333.35 547.289 333.35C546.052 333.35 544.897 333.14 543.824 332.72C542.774 332.277 541.864 331.635 541.094 330.795C540.347 329.932 539.764 328.893 539.344 327.68C538.924 326.467 538.714 325.067 538.714 323.48C538.714 321.38 539.052 319.607 539.729 318.16C540.429 316.69 541.432 315.582 542.739 314.835C544.045 314.065 545.597 313.68 547.394 313.68C549.074 313.68 550.555 314.065 551.839 314.835C553.122 315.582 554.125 316.69 554.849 318.16C555.595 319.607 555.969 321.38 555.969 323.48ZM543.439 323.48C543.439 324.81 543.579 325.953 543.859 326.91C544.139 327.843 544.559 328.555 545.119 329.045C545.702 329.535 546.449 329.78 547.359 329.78C548.269 329.78 549.004 329.535 549.564 329.045C550.147 328.555 550.567 327.843 550.824 326.91C551.104 325.953 551.244 324.81 551.244 323.48C551.244 322.127 551.104 320.995 550.824 320.085C550.544 319.152 550.112 318.452 549.529 317.985C548.969 317.495 548.234 317.25 547.324 317.25C545.947 317.25 544.955 317.787 544.349 318.86C543.742 319.933 543.439 321.473 543.439 323.48ZM571.125 313.68C571.451 313.68 571.79 313.692 572.14 313.715C572.49 313.738 572.781 313.785 573.015 313.855L572.595 317.95C572.361 317.903 572.081 317.868 571.755 317.845C571.451 317.798 571.125 317.775 570.775 317.775C570.191 317.775 569.62 317.892 569.06 318.125C568.5 318.335 567.998 318.662 567.555 319.105C567.111 319.525 566.75 320.073 566.47 320.75C566.213 321.427 566.085 322.232 566.085 323.165V333H561.43V314.03H565L565.63 317.32H565.875C566.225 316.643 566.656 316.037 567.17 315.5C567.706 314.94 568.301 314.497 568.955 314.17C569.631 313.843 570.355 313.68 571.125 313.68ZM592.444 333H587.824V308.01H601.299V311.755H592.444V319.105H600.704V322.85H592.444V333ZM614.035 313.68C616.322 313.68 618.072 314.217 619.285 315.29C620.499 316.34 621.105 317.997 621.105 320.26V333H617.85L616.94 330.375H616.8C616.287 331.052 615.762 331.623 615.225 332.09C614.689 332.533 614.07 332.848 613.37 333.035C612.67 333.245 611.83 333.35 610.85 333.35C609.8 333.35 608.855 333.14 608.015 332.72C607.175 332.3 606.51 331.658 606.02 330.795C605.53 329.908 605.285 328.8 605.285 327.47C605.285 325.51 605.962 324.04 607.315 323.06C608.669 322.057 610.699 321.508 613.405 321.415L616.45 321.31V320.365C616.45 319.152 616.194 318.288 615.68 317.775C615.167 317.262 614.467 317.005 613.58 317.005C612.74 317.005 611.889 317.145 611.025 317.425C610.185 317.705 609.357 318.032 608.54 318.405L607.105 315.325C608.062 314.835 609.124 314.438 610.29 314.135C611.457 313.832 612.705 313.68 614.035 313.68ZM614.49 324.11C612.834 324.18 611.679 324.518 611.025 325.125C610.372 325.708 610.045 326.502 610.045 327.505C610.045 328.392 610.267 329.033 610.71 329.43C611.177 329.827 611.784 330.025 612.53 330.025C613.627 330.025 614.56 329.663 615.33 328.94C616.1 328.193 616.485 327.097 616.485 325.65V324.04L614.49 324.11ZM632.08 314.03V333H627.46V314.03H632.08ZM629.805 306.715C630.482 306.715 631.065 306.89 631.555 307.24C632.045 307.567 632.29 308.162 632.29 309.025C632.29 309.865 632.045 310.472 631.555 310.845C631.065 311.195 630.482 311.37 629.805 311.37C629.082 311.37 628.475 311.195 627.985 310.845C627.495 310.472 627.25 309.865 627.25 309.025C627.25 308.162 627.495 307.567 627.985 307.24C628.475 306.89 629.082 306.715 629.805 306.715ZM648.227 313.68C648.554 313.68 648.892 313.692 649.242 313.715C649.592 313.738 649.884 313.785 650.117 313.855L649.697 317.95C649.464 317.903 649.184 317.868 648.857 317.845C648.554 317.798 648.227 317.775 647.877 317.775C647.294 317.775 646.722 317.892 646.162 318.125C645.602 318.335 645.101 318.662 644.657 319.105C644.214 319.525 643.852 320.073 643.572 320.75C643.316 321.427 643.187 322.232 643.187 323.165V333H638.532V314.03H642.102L642.732 317.32H642.977C643.327 316.643 643.759 316.037 644.272 315.5C644.809 314.94 645.404 314.497 646.057 314.17C646.734 313.843 647.457 313.68 648.227 313.68Z" fill="#FEF8EB"/>
<path d="M123.007 78.685C123.007 80.1783 122.89 81.6483 122.657 83.095C122.447 84.5183 122.085 85.8483 121.572 87.085C121.058 88.3217 120.358 89.4183 119.472 90.375C118.608 91.3083 117.5 92.0433 116.147 92.58C114.817 93.0933 113.218 93.35 111.352 93.35C110.885 93.35 110.348 93.3267 109.742 93.28C109.135 93.2333 108.622 93.1633 108.202 93.07V89.43C108.622 89.5467 109.077 89.64 109.567 89.71C110.08 89.78 110.57 89.815 111.037 89.815C112.507 89.815 113.72 89.605 114.677 89.185C115.633 88.7417 116.392 88.135 116.952 87.365C117.535 86.5717 117.943 85.65 118.177 84.6C118.433 83.5267 118.585 82.3833 118.632 81.17H118.422C118.118 81.7067 117.745 82.1967 117.302 82.64C116.858 83.0833 116.31 83.4333 115.657 83.69C115.003 83.9467 114.175 84.075 113.172 84.075C111.842 84.075 110.687 83.7717 109.707 83.165C108.75 82.5583 108.003 81.6833 107.467 80.54C106.93 79.3733 106.662 77.9617 106.662 76.305C106.662 74.5083 106.977 72.9683 107.607 71.685C108.26 70.3783 109.17 69.3867 110.337 68.71C111.503 68.01 112.903 67.66 114.537 67.66C115.727 67.66 116.835 67.8933 117.862 68.36C118.888 68.8033 119.787 69.48 120.557 70.39C121.327 71.2767 121.922 72.42 122.342 73.82C122.785 75.1967 123.007 76.8183 123.007 78.685ZM114.607 71.265C113.603 71.265 112.775 71.6733 112.122 72.49C111.492 73.3067 111.177 74.555 111.177 76.235C111.177 77.5883 111.445 78.6617 111.982 79.455C112.542 80.225 113.37 80.61 114.467 80.61C115.26 80.61 115.937 80.4233 116.497 80.05C117.08 79.6533 117.523 79.1633 117.827 78.58C118.153 77.9967 118.317 77.3783 118.317 76.725C118.317 76.0483 118.235 75.3833 118.072 74.73C117.932 74.0767 117.71 73.4933 117.407 72.98C117.103 72.4667 116.707 72.0583 116.217 71.755C115.75 71.4283 115.213 71.265 114.607 71.265ZM127.627 90.76C127.627 89.78 127.884 89.0917 128.397 88.695C128.934 88.275 129.575 88.065 130.322 88.065C131.069 88.065 131.699 88.2633 132.212 88.66C132.749 89.0567 133.017 89.7567 133.017 90.76C133.017 91.7167 132.749 92.405 132.212 92.825C131.699 93.245 131.069 93.455 130.322 93.455C129.575 93.455 128.934 93.245 128.397 92.825C127.884 92.405 127.627 91.7167 127.627 90.76ZM127.627 76.34C127.627 75.3367 127.884 74.6367 128.397 74.24C128.934 73.82 129.575 73.61 130.322 73.61C131.069 73.61 131.699 73.8083 132.212 74.205C132.749 74.6017 133.017 75.3133 133.017 76.34C133.017 77.2967 132.749 77.985 132.212 78.405C131.699 78.825 131.069 79.035 130.322 79.035C129.575 79.035 128.934 78.825 128.397 78.405C127.884 77.985 127.627 77.2967 127.627 76.34ZM153.936 80.47C153.936 82.5 153.796 84.3083 153.516 85.895C153.236 87.4817 152.757 88.835 152.081 89.955C151.427 91.0517 150.576 91.8917 149.526 92.475C148.499 93.0583 147.239 93.35 145.746 93.35C143.902 93.35 142.374 92.8367 141.161 91.81C139.971 90.7833 139.084 89.3133 138.501 87.4C137.941 85.4633 137.661 83.1533 137.661 80.47C137.661 77.7867 137.917 75.4883 138.431 73.575C138.967 71.6617 139.831 70.1917 141.021 69.165C142.211 68.1383 143.797 67.625 145.781 67.625C147.647 67.625 149.176 68.1383 150.366 69.165C151.579 70.1683 152.477 71.6383 153.061 73.575C153.644 75.4883 153.936 77.7867 153.936 80.47ZM142.316 80.505C142.316 82.535 142.421 84.2383 142.631 85.615C142.841 86.9683 143.202 87.995 143.716 88.695C144.229 89.3717 144.917 89.71 145.781 89.71C146.644 89.71 147.321 89.3717 147.811 88.695C148.324 88.0183 148.697 86.9917 148.931 85.615C149.164 84.2383 149.281 82.535 149.281 80.505C149.281 78.4517 149.164 76.7483 148.931 75.395C148.697 74.0183 148.324 72.9917 147.811 72.315C147.321 71.615 146.644 71.265 145.781 71.265C144.917 71.265 144.229 71.615 143.716 72.315C143.202 72.9917 142.841 74.0067 142.631 75.36C142.421 76.7133 142.316 78.4283 142.316 80.505ZM174.271 80.47C174.271 82.5 174.131 84.3083 173.851 85.895C173.571 87.4817 173.093 88.835 172.416 89.955C171.763 91.0517 170.911 91.8917 169.861 92.475C168.835 93.0583 167.575 93.35 166.081 93.35C164.238 93.35 162.71 92.8367 161.496 91.81C160.306 90.7833 159.42 89.3133 158.836 87.4C158.276 85.4633 157.996 83.1533 157.996 80.47C157.996 77.7867 158.253 75.4883 158.766 73.575C159.303 71.6617 160.166 70.1917 161.356 69.165C162.546 68.1383 164.133 67.625 166.116 67.625C167.983 67.625 169.511 68.1383 170.701 69.165C171.915 70.1683 172.813 71.6383 173.396 73.575C173.98 75.4883 174.271 77.7867 174.271 80.47ZM162.651 80.505C162.651 82.535 162.756 84.2383 162.966 85.615C163.176 86.9683 163.538 87.995 164.051 88.695C164.565 89.3717 165.253 89.71 166.116 89.71C166.98 89.71 167.656 89.3717 168.146 88.695C168.66 88.0183 169.033 86.9917 169.266 85.615C169.5 84.2383 169.616 82.535 169.616 80.505C169.616 78.4517 169.5 76.7483 169.266 75.395C169.033 74.0183 168.66 72.9917 168.146 72.315C167.656 71.615 166.98 71.265 166.116 71.265C165.253 71.265 164.565 71.615 164.051 72.315C163.538 72.9917 163.176 74.0067 162.966 75.36C162.756 76.7133 162.651 78.4283 162.651 80.505ZM178.017 85.475V81.765H186.557V85.475H178.017ZM202.333 93H197.678V77.425C197.678 76.9117 197.678 76.3867 197.678 75.85C197.702 75.3133 197.713 74.7767 197.713 74.24C197.737 73.68 197.76 73.1667 197.783 72.7C197.55 72.9333 197.282 73.2133 196.978 73.54C196.698 73.8667 196.383 74.1817 196.033 74.485L193.443 76.725L191.063 73.995L198.343 68.01H202.333V93ZM222.669 93H218.014V77.425C218.014 76.9117 218.014 76.3867 218.014 75.85C218.037 75.3133 218.049 74.7767 218.049 74.24C218.072 73.68 218.095 73.1667 218.119 72.7C217.885 72.9333 217.617 73.2133 217.314 73.54C217.034 73.8667 216.719 74.1817 216.369 74.485L213.779 76.725L211.399 73.995L218.679 68.01H222.669V93ZM231.559 90.76C231.559 89.78 231.816 89.0917 232.329 88.695C232.866 88.275 233.508 88.065 234.254 88.065C235.001 88.065 235.631 88.2633 236.144 88.66C236.681 89.0567 236.949 89.7567 236.949 90.76C236.949 91.7167 236.681 92.405 236.144 92.825C235.631 93.245 235.001 93.455 234.254 93.455C233.508 93.455 232.866 93.245 232.329 92.825C231.816 92.405 231.559 91.7167 231.559 90.76ZM231.559 76.34C231.559 75.3367 231.816 74.6367 232.329 74.24C232.866 73.82 233.508 73.61 234.254 73.61C235.001 73.61 235.631 73.8083 236.144 74.205C236.681 74.6017 236.949 75.3133 236.949 76.34C236.949 77.2967 236.681 77.985 236.144 78.405C235.631 78.825 235.001 79.035 234.254 79.035C233.508 79.035 232.866 78.825 232.329 78.405C231.816 77.985 231.559 77.2967 231.559 76.34ZM257.868 80.47C257.868 82.5 257.728 84.3083 257.448 85.895C257.168 87.4817 256.69 88.835 256.013 89.955C255.36 91.0517 254.508 91.8917 253.458 92.475C252.431 93.0583 251.171 93.35 249.678 93.35C247.835 93.35 246.306 92.8367 245.093 91.81C243.903 90.7833 243.016 89.3133 242.433 87.4C241.873 85.4633 241.593 83.1533 241.593 80.47C241.593 77.7867 241.85 75.4883 242.363 73.575C242.9 71.6617 243.763 70.1917 244.953 69.165C246.143 68.1383 247.73 67.625 249.713 67.625C251.58 67.625 253.108 68.1383 254.298 69.165C255.511 70.1683 256.41 71.6383 256.993 73.575C257.576 75.4883 257.868 77.7867 257.868 80.47ZM246.248 80.505C246.248 82.535 246.353 84.2383 246.563 85.615C246.773 86.9683 247.135 87.995 247.648 88.695C248.161 89.3717 248.85 89.71 249.713 89.71C250.576 89.71 251.253 89.3717 251.743 88.695C252.256 88.0183 252.63 86.9917 252.863 85.615C253.096 84.2383 253.213 82.535 253.213 80.505C253.213 78.4517 253.096 76.7483 252.863 75.395C252.63 74.0183 252.256 72.9917 251.743 72.315C251.253 71.615 250.576 71.265 249.713 71.265C248.85 71.265 248.161 71.615 247.648 72.315C247.135 72.9917 246.773 74.0067 246.563 75.36C246.353 76.7133 246.248 78.4283 246.248 80.505ZM278.203 80.47C278.203 82.5 278.063 84.3083 277.783 85.895C277.503 87.4817 277.025 88.835 276.348 89.955C275.695 91.0517 274.843 91.8917 273.793 92.475C272.767 93.0583 271.507 93.35 270.013 93.35C268.17 93.35 266.642 92.8367 265.428 91.81C264.238 90.7833 263.352 89.3133 262.768 87.4C262.208 85.4633 261.928 83.1533 261.928 80.47C261.928 77.7867 262.185 75.4883 262.698 73.575C263.235 71.6617 264.098 70.1917 265.288 69.165C266.478 68.1383 268.065 67.625 270.048 67.625C271.915 67.625 273.443 68.1383 274.633 69.165C275.847 70.1683 276.745 71.6383 277.328 73.575C277.912 75.4883 278.203 77.7867 278.203 80.47ZM266.583 80.505C266.583 82.535 266.688 84.2383 266.898 85.615C267.108 86.9683 267.47 87.995 267.983 88.695C268.497 89.3717 269.185 89.71 270.048 89.71C270.912 89.71 271.588 89.3717 272.078 88.695C272.592 88.0183 272.965 86.9917 273.198 85.615C273.432 84.2383 273.548 82.535 273.548 80.505C273.548 78.4517 273.432 76.7483 273.198 75.395C272.965 74.0183 272.592 72.9917 272.078 72.315C271.588 71.615 270.912 71.265 270.048 71.265C269.185 71.265 268.497 71.615 267.983 72.315C267.47 72.9917 267.108 74.0067 266.898 75.36C266.688 76.7133 266.583 78.4283 266.583 80.505ZM308.309 93L306.384 86.385H297.844L295.919 93H290.879L299.279 67.905H304.914L313.349 93H308.309ZM303.269 76.095C303.176 75.7217 303.047 75.2783 302.884 74.765C302.744 74.2283 302.604 73.68 302.464 73.12C302.347 72.56 302.231 72.035 302.114 71.545C302.021 72.105 301.904 72.665 301.764 73.225C301.624 73.7617 301.484 74.275 301.344 74.765C301.227 75.255 301.111 75.6983 300.994 76.095L299.034 82.535H305.264L303.269 76.095ZM327.825 93L321.735 72.525H321.595C321.618 72.9917 321.653 73.6567 321.7 74.52C321.747 75.36 321.782 76.2817 321.805 77.285C321.852 78.265 321.875 79.1867 321.875 80.05V93H317.675V68.01H324.115L330.065 87.645H330.17L336.225 68.01H342.7V93H338.29V79.84C338.29 79.0467 338.302 78.1833 338.325 77.25C338.348 76.2933 338.383 75.395 338.43 74.555C338.477 73.6917 338.512 73.0267 338.535 72.56H338.395L332.13 93H327.825ZM108.569 153H103.914V137.425C103.914 136.912 103.914 136.387 103.914 135.85C103.937 135.313 103.949 134.777 103.949 134.24C103.972 133.68 103.995 133.167 104.019 132.7C103.785 132.933 103.517 133.213 103.214 133.54C102.934 133.867 102.619 134.182 102.269 134.485L99.6788 136.725L97.2988 133.995L104.579 128.01H108.569V153ZM133.139 140.47C133.139 142.5 132.999 144.308 132.719 145.895C132.439 147.482 131.961 148.835 131.284 149.955C130.631 151.052 129.779 151.892 128.729 152.475C127.703 153.058 126.443 153.35 124.949 153.35C123.106 153.35 121.578 152.837 120.364 151.81C119.174 150.783 118.288 149.313 117.704 147.4C117.144 145.463 116.864 143.153 116.864 140.47C116.864 137.787 117.121 135.488 117.634 133.575C118.171 131.662 119.034 130.192 120.224 129.165C121.414 128.138 123.001 127.625 124.984 127.625C126.851 127.625 128.379 128.138 129.569 129.165C130.783 130.168 131.681 131.638 132.264 133.575C132.848 135.488 133.139 137.787 133.139 140.47ZM121.519 140.505C121.519 142.535 121.624 144.238 121.834 145.615C122.044 146.968 122.406 147.995 122.919 148.695C123.433 149.372 124.121 149.71 124.984 149.71C125.848 149.71 126.524 149.372 127.014 148.695C127.528 148.018 127.901 146.992 128.134 145.615C128.368 144.238 128.484 142.535 128.484 140.505C128.484 138.452 128.368 136.748 128.134 135.395C127.901 134.018 127.528 132.992 127.014 132.315C126.524 131.615 125.848 131.265 124.984 131.265C124.121 131.265 123.433 131.615 122.919 132.315C122.406 132.992 122.044 134.007 121.834 135.36C121.624 136.713 121.519 138.428 121.519 140.505ZM137.795 150.76C137.795 149.78 138.052 149.092 138.565 148.695C139.102 148.275 139.743 148.065 140.49 148.065C141.237 148.065 141.867 148.263 142.38 148.66C142.917 149.057 143.185 149.757 143.185 150.76C143.185 151.717 142.917 152.405 142.38 152.825C141.867 153.245 141.237 153.455 140.49 153.455C139.743 153.455 139.102 153.245 138.565 152.825C138.052 152.405 137.795 151.717 137.795 150.76ZM137.795 136.34C137.795 135.337 138.052 134.637 138.565 134.24C139.102 133.82 139.743 133.61 140.49 133.61C141.237 133.61 141.867 133.808 142.38 134.205C142.917 134.602 143.185 135.313 143.185 136.34C143.185 137.297 142.917 137.985 142.38 138.405C141.867 138.825 141.237 139.035 140.49 139.035C139.743 139.035 139.102 138.825 138.565 138.405C138.052 137.985 137.795 137.297 137.795 136.34ZM163.263 133.715C163.263 134.835 163.042 135.815 162.598 136.655C162.155 137.495 161.548 138.183 160.778 138.72C160.032 139.233 159.168 139.607 158.188 139.84V139.945C160.078 140.178 161.502 140.797 162.458 141.8C163.438 142.803 163.928 144.133 163.928 145.79C163.928 147.237 163.602 148.532 162.948 149.675C162.295 150.818 161.268 151.717 159.868 152.37C158.492 153.023 156.707 153.35 154.513 153.35C153.183 153.35 151.982 153.233 150.908 153C149.835 152.79 148.797 152.452 147.793 151.985V148.1C148.82 148.637 149.882 149.045 150.978 149.325C152.075 149.605 153.102 149.745 154.058 149.745C155.878 149.745 157.162 149.383 157.908 148.66C158.655 147.913 159.028 146.887 159.028 145.58C159.028 144.74 158.83 144.052 158.433 143.515C158.06 142.978 157.453 142.582 156.613 142.325C155.797 142.045 154.677 141.905 153.253 141.905H151.433V138.37H153.288C154.595 138.37 155.633 138.207 156.403 137.88C157.197 137.553 157.768 137.098 158.118 136.515C158.468 135.932 158.643 135.255 158.643 134.485C158.643 133.482 158.34 132.7 157.733 132.14C157.15 131.58 156.298 131.3 155.178 131.3C154.432 131.3 153.732 131.393 153.078 131.58C152.425 131.767 151.842 132.012 151.328 132.315C150.815 132.595 150.36 132.898 149.963 133.225L147.863 130.18C148.47 129.713 149.147 129.293 149.893 128.92C150.663 128.523 151.515 128.22 152.448 128.01C153.382 127.777 154.432 127.66 155.598 127.66C158.048 127.66 159.938 128.208 161.268 129.305C162.598 130.378 163.263 131.848 163.263 133.715ZM184.439 140.47C184.439 142.5 184.299 144.308 184.019 145.895C183.739 147.482 183.261 148.835 182.584 149.955C181.931 151.052 181.079 151.892 180.029 152.475C179.002 153.058 177.742 153.35 176.249 153.35C174.406 153.35 172.877 152.837 171.664 151.81C170.474 150.783 169.587 149.313 169.004 147.4C168.444 145.463 168.164 143.153 168.164 140.47C168.164 137.787 168.421 135.488 168.934 133.575C169.471 131.662 170.334 130.192 171.524 129.165C172.714 128.138 174.301 127.625 176.284 127.625C178.151 127.625 179.679 128.138 180.869 129.165C182.082 130.168 182.981 131.638 183.564 133.575C184.147 135.488 184.439 137.787 184.439 140.47ZM172.819 140.505C172.819 142.535 172.924 144.238 173.134 145.615C173.344 146.968 173.706 147.995 174.219 148.695C174.732 149.372 175.421 149.71 176.284 149.71C177.147 149.71 177.824 149.372 178.314 148.695C178.827 148.018 179.201 146.992 179.434 145.615C179.667 144.238 179.784 142.535 179.784 140.505C179.784 138.452 179.667 136.748 179.434 135.395C179.201 134.018 178.827 132.992 178.314 132.315C177.824 131.615 177.147 131.265 176.284 131.265C175.421 131.265 174.732 131.615 174.219 132.315C173.706 132.992 173.344 134.007 173.134 135.36C172.924 136.713 172.819 138.428 172.819 140.505ZM188.185 145.475V141.765H196.725V145.475H188.185ZM212.501 153H207.846V137.425C207.846 136.912 207.846 136.387 207.846 135.85C207.869 135.313 207.881 134.777 207.881 134.24C207.904 133.68 207.928 133.167 207.951 132.7C207.718 132.933 207.449 133.213 207.146 133.54C206.866 133.867 206.551 134.182 206.201 134.485L203.611 136.725L201.231 133.995L208.511 128.01H212.501V153ZM232.837 153H228.182V137.425C228.182 136.912 228.182 136.387 228.182 135.85C228.205 135.313 228.217 134.777 228.217 134.24C228.24 133.68 228.263 133.167 228.287 132.7C228.053 132.933 227.785 133.213 227.482 133.54C227.202 133.867 226.887 134.182 226.537 134.485L223.947 136.725L221.567 133.995L228.847 128.01H232.837V153ZM241.727 150.76C241.727 149.78 241.984 149.092 242.497 148.695C243.034 148.275 243.675 148.065 244.422 148.065C245.169 148.065 245.799 148.263 246.312 148.66C246.849 149.057 247.117 149.757 247.117 150.76C247.117 151.717 246.849 152.405 246.312 152.825C245.799 153.245 245.169 153.455 244.422 153.455C243.675 153.455 243.034 153.245 242.497 152.825C241.984 152.405 241.727 151.717 241.727 150.76ZM241.727 136.34C241.727 135.337 241.984 134.637 242.497 134.24C243.034 133.82 243.675 133.61 244.422 133.61C245.169 133.61 245.799 133.808 246.312 134.205C246.849 134.602 247.117 135.313 247.117 136.34C247.117 137.297 246.849 137.985 246.312 138.405C245.799 138.825 245.169 139.035 244.422 139.035C243.675 139.035 243.034 138.825 242.497 138.405C241.984 137.985 241.727 137.297 241.727 136.34ZM267.196 133.715C267.196 134.835 266.974 135.815 266.531 136.655C266.087 137.495 265.481 138.183 264.711 138.72C263.964 139.233 263.101 139.607 262.121 139.84V139.945C264.011 140.178 265.434 140.797 266.391 141.8C267.371 142.803 267.861 144.133 267.861 145.79C267.861 147.237 267.534 148.532 266.881 149.675C266.227 150.818 265.201 151.717 263.801 152.37C262.424 153.023 260.639 153.35 258.446 153.35C257.116 153.35 255.914 153.233 254.841 153C253.767 152.79 252.729 152.452 251.726 151.985V148.1C252.752 148.637 253.814 149.045 254.911 149.325C256.007 149.605 257.034 149.745 257.991 149.745C259.811 149.745 261.094 149.383 261.841 148.66C262.587 147.913 262.961 146.887 262.961 145.58C262.961 144.74 262.762 144.052 262.366 143.515C261.992 142.978 261.386 142.582 260.546 142.325C259.729 142.045 258.609 141.905 257.186 141.905H255.366V138.37H257.221C258.527 138.37 259.566 138.207 260.336 137.88C261.129 137.553 261.701 137.098 262.051 136.515C262.401 135.932 262.576 135.255 262.576 134.485C262.576 133.482 262.272 132.7 261.666 132.14C261.082 131.58 260.231 131.3 259.111 131.3C258.364 131.3 257.664 131.393 257.011 131.58C256.357 131.767 255.774 132.012 255.261 132.315C254.747 132.595 254.292 132.898 253.896 133.225L251.796 130.18C252.402 129.713 253.079 129.293 253.826 128.92C254.596 128.523 255.447 128.22 256.381 128.01C257.314 127.777 258.364 127.66 259.531 127.66C261.981 127.66 263.871 128.208 265.201 129.305C266.531 130.378 267.196 131.848 267.196 133.715ZM288.371 140.47C288.371 142.5 288.231 144.308 287.951 145.895C287.671 147.482 287.193 148.835 286.516 149.955C285.863 151.052 285.011 151.892 283.961 152.475C282.935 153.058 281.675 153.35 280.181 153.35C278.338 153.35 276.81 152.837 275.596 151.81C274.406 150.783 273.52 149.313 272.936 147.4C272.376 145.463 272.096 143.153 272.096 140.47C272.096 137.787 272.353 135.488 272.866 133.575C273.403 131.662 274.266 130.192 275.456 129.165C276.646 128.138 278.233 127.625 280.216 127.625C282.083 127.625 283.611 128.138 284.801 129.165C286.015 130.168 286.913 131.638 287.496 133.575C288.08 135.488 288.371 137.787 288.371 140.47ZM276.751 140.505C276.751 142.535 276.856 144.238 277.066 145.615C277.276 146.968 277.638 147.995 278.151 148.695C278.665 149.372 279.353 149.71 280.216 149.71C281.08 149.71 281.756 149.372 282.246 148.695C282.76 148.018 283.133 146.992 283.366 145.615C283.6 144.238 283.716 142.535 283.716 140.505C283.716 138.452 283.6 136.748 283.366 135.395C283.133 134.018 282.76 132.992 282.246 132.315C281.756 131.615 281.08 131.265 280.216 131.265C279.353 131.265 278.665 131.615 278.151 132.315C277.638 132.992 277.276 134.007 277.066 135.36C276.856 136.713 276.751 138.428 276.751 140.505ZM318.477 153L316.552 146.385H308.012L306.087 153H301.047L309.447 127.905H315.082L323.517 153H318.477ZM313.437 136.095C313.343 135.722 313.215 135.278 313.052 134.765C312.912 134.228 312.772 133.68 312.632 133.12C312.515 132.56 312.398 132.035 312.282 131.545C312.188 132.105 312.072 132.665 311.932 133.225C311.792 133.762 311.652 134.275 311.512 134.765C311.395 135.255 311.278 135.698 311.162 136.095L309.202 142.535H315.432L313.437 136.095ZM337.993 153L331.903 132.525H331.763C331.786 132.992 331.821 133.657 331.868 134.52C331.914 135.36 331.949 136.282 331.973 137.285C332.019 138.265 332.043 139.187 332.043 140.05V153H327.843V128.01H334.283L340.233 147.645H340.338L346.393 128.01H352.868V153H348.458V139.84C348.458 139.047 348.469 138.183 348.493 137.25C348.516 136.293 348.551 135.395 348.598 134.555C348.644 133.692 348.679 133.027 348.703 132.56H348.563L342.298 153H337.993ZM160.535 213H155.88V197.425C155.88 196.912 155.88 196.387 155.88 195.85C155.903 195.313 155.915 194.777 155.915 194.24C155.938 193.68 155.962 193.167 155.985 192.7C155.752 192.933 155.483 193.213 155.18 193.54C154.9 193.867 154.585 194.182 154.235 194.485L151.645 196.725L149.265 193.995L156.545 188.01H160.535V213ZM180.87 213H176.215V197.425C176.215 196.912 176.215 196.387 176.215 195.85C176.239 195.313 176.25 194.777 176.25 194.24C176.274 193.68 176.297 193.167 176.32 192.7C176.087 192.933 175.819 193.213 175.515 193.54C175.235 193.867 174.92 194.182 174.57 194.485L171.98 196.725L169.6 193.995L176.88 188.01H180.87V213ZM189.761 210.76C189.761 209.78 190.018 209.092 190.531 208.695C191.068 208.275 191.709 208.065 192.456 208.065C193.203 208.065 193.833 208.263 194.346 208.66C194.883 209.057 195.151 209.757 195.151 210.76C195.151 211.717 194.883 212.405 194.346 212.825C193.833 213.245 193.203 213.455 192.456 213.455C191.709 213.455 191.068 213.245 190.531 212.825C190.018 212.405 189.761 211.717 189.761 210.76ZM189.761 196.34C189.761 195.337 190.018 194.637 190.531 194.24C191.068 193.82 191.709 193.61 192.456 193.61C193.203 193.61 193.833 193.808 194.346 194.205C194.883 194.602 195.151 195.313 195.151 196.34C195.151 197.297 194.883 197.985 194.346 198.405C193.833 198.825 193.203 199.035 192.456 199.035C191.709 199.035 191.068 198.825 190.531 198.405C190.018 197.985 189.761 197.297 189.761 196.34ZM215.23 193.715C215.23 194.835 215.008 195.815 214.565 196.655C214.121 197.495 213.515 198.183 212.745 198.72C211.998 199.233 211.135 199.607 210.155 199.84V199.945C212.045 200.178 213.468 200.797 214.425 201.8C215.405 202.803 215.895 204.133 215.895 205.79C215.895 207.237 215.568 208.532 214.915 209.675C214.261 210.818 213.235 211.717 211.835 212.37C210.458 213.023 208.673 213.35 206.48 213.35C205.15 213.35 203.948 213.233 202.875 213C201.801 212.79 200.763 212.452 199.76 211.985V208.1C200.786 208.637 201.848 209.045 202.945 209.325C204.041 209.605 205.068 209.745 206.025 209.745C207.845 209.745 209.128 209.383 209.875 208.66C210.621 207.913 210.995 206.887 210.995 205.58C210.995 204.74 210.796 204.052 210.4 203.515C210.026 202.978 209.42 202.582 208.58 202.325C207.763 202.045 206.643 201.905 205.22 201.905H203.4V198.37H205.255C206.561 198.37 207.6 198.207 208.37 197.88C209.163 197.553 209.735 197.098 210.085 196.515C210.435 195.932 210.61 195.255 210.61 194.485C210.61 193.482 210.306 192.7 209.7 192.14C209.116 191.58 208.265 191.3 207.145 191.3C206.398 191.3 205.698 191.393 205.045 191.58C204.391 191.767 203.808 192.012 203.295 192.315C202.781 192.595 202.326 192.898 201.93 193.225L199.83 190.18C200.436 189.713 201.113 189.293 201.86 188.92C202.63 188.523 203.481 188.22 204.415 188.01C205.348 187.777 206.398 187.66 207.565 187.66C210.015 187.66 211.905 188.208 213.235 189.305C214.565 190.378 215.23 191.848 215.23 193.715ZM236.405 200.47C236.405 202.5 236.265 204.308 235.985 205.895C235.705 207.482 235.227 208.835 234.55 209.955C233.897 211.052 233.045 211.892 231.995 212.475C230.968 213.058 229.708 213.35 228.215 213.35C226.372 213.35 224.843 212.837 223.63 211.81C222.44 210.783 221.553 209.313 220.97 207.4C220.41 205.463 220.13 203.153 220.13 200.47C220.13 197.787 220.387 195.488 220.9 193.575C221.437 191.662 222.3 190.192 223.49 189.165C224.68 188.138 226.267 187.625 228.25 187.625C230.117 187.625 231.645 188.138 232.835 189.165C234.048 190.168 234.947 191.638 235.53 193.575C236.113 195.488 236.405 197.787 236.405 200.47ZM224.785 200.505C224.785 202.535 224.89 204.238 225.1 205.615C225.31 206.968 225.672 207.995 226.185 208.695C226.698 209.372 227.387 209.71 228.25 209.71C229.113 209.71 229.79 209.372 230.28 208.695C230.793 208.018 231.167 206.992 231.4 205.615C231.633 204.238 231.75 202.535 231.75 200.505C231.75 198.452 231.633 196.748 231.4 195.395C231.167 194.018 230.793 192.992 230.28 192.315C229.79 191.615 229.113 191.265 228.25 191.265C227.387 191.265 226.698 191.615 226.185 192.315C225.672 192.992 225.31 194.007 225.1 195.36C224.89 196.713 224.785 198.428 224.785 200.505ZM266.511 213L264.586 206.385H256.046L254.121 213H249.081L257.481 187.905H263.116L271.551 213H266.511ZM261.471 196.095C261.377 195.722 261.249 195.278 261.086 194.765C260.946 194.228 260.806 193.68 260.666 193.12C260.549 192.56 260.432 192.035 260.316 191.545C260.222 192.105 260.106 192.665 259.966 193.225C259.826 193.762 259.686 194.275 259.546 194.765C259.429 195.255 259.312 195.698 259.196 196.095L257.236 202.535H263.466L261.471 196.095ZM286.027 213L279.937 192.525H279.797C279.82 192.992 279.855 193.657 279.902 194.52C279.948 195.36 279.983 196.282 280.007 197.285C280.053 198.265 280.077 199.187 280.077 200.05V213H275.877V188.01H282.317L288.267 207.645H288.372L294.427 188.01H300.902V213H296.492V199.84C296.492 199.047 296.503 198.183 296.527 197.25C296.55 196.293 296.585 195.395 296.632 194.555C296.678 193.692 296.713 193.027 296.737 192.56H296.597L290.332 213H286.027ZM109.56 273H104.905V257.425C104.905 256.912 104.905 256.387 104.905 255.85C104.928 255.313 104.94 254.777 104.94 254.24C104.963 253.68 104.987 253.167 105.01 252.7C104.777 252.933 104.508 253.213 104.205 253.54C103.925 253.867 103.61 254.182 103.26 254.485L100.67 256.725L98.29 253.995L105.57 248.01H109.56V273ZM129.896 273H125.241V257.425C125.241 256.912 125.241 256.387 125.241 255.85C125.264 255.313 125.276 254.777 125.276 254.24C125.299 253.68 125.322 253.167 125.346 252.7C125.112 252.933 124.844 253.213 124.541 253.54C124.261 253.867 123.946 254.182 123.596 254.485L121.006 256.725L118.626 253.995L125.906 248.01H129.896V273ZM138.786 270.76C138.786 269.78 139.043 269.092 139.556 268.695C140.093 268.275 140.734 268.065 141.481 268.065C142.228 268.065 142.858 268.263 143.371 268.66C143.908 269.057 144.176 269.757 144.176 270.76C144.176 271.717 143.908 272.405 143.371 272.825C142.858 273.245 142.228 273.455 141.481 273.455C140.734 273.455 140.093 273.245 139.556 272.825C139.043 272.405 138.786 271.717 138.786 270.76ZM138.786 256.34C138.786 255.337 139.043 254.637 139.556 254.24C140.093 253.82 140.734 253.61 141.481 253.61C142.228 253.61 142.858 253.808 143.371 254.205C143.908 254.602 144.176 255.313 144.176 256.34C144.176 257.297 143.908 257.985 143.371 258.405C142.858 258.825 142.228 259.035 141.481 259.035C140.734 259.035 140.093 258.825 139.556 258.405C139.043 257.985 138.786 257.297 138.786 256.34ZM164.255 253.715C164.255 254.835 164.033 255.815 163.59 256.655C163.146 257.495 162.54 258.183 161.77 258.72C161.023 259.233 160.16 259.607 159.18 259.84V259.945C161.07 260.178 162.493 260.797 163.45 261.8C164.43 262.803 164.92 264.133 164.92 265.79C164.92 267.237 164.593 268.532 163.94 269.675C163.286 270.818 162.26 271.717 160.86 272.37C159.483 273.023 157.698 273.35 155.505 273.35C154.175 273.35 152.973 273.233 151.9 273C150.826 272.79 149.788 272.452 148.785 271.985V268.1C149.811 268.637 150.873 269.045 151.97 269.325C153.066 269.605 154.093 269.745 155.05 269.745C156.87 269.745 158.153 269.383 158.9 268.66C159.646 267.913 160.02 266.887 160.02 265.58C160.02 264.74 159.821 264.052 159.425 263.515C159.051 262.978 158.445 262.582 157.605 262.325C156.788 262.045 155.668 261.905 154.245 261.905H152.425V258.37H154.28C155.586 258.37 156.625 258.207 157.395 257.88C158.188 257.553 158.76 257.098 159.11 256.515C159.46 255.932 159.635 255.255 159.635 254.485C159.635 253.482 159.331 252.7 158.725 252.14C158.141 251.58 157.29 251.3 156.17 251.3C155.423 251.3 154.723 251.393 154.07 251.58C153.416 251.767 152.833 252.012 152.32 252.315C151.806 252.595 151.351 252.898 150.955 253.225L148.855 250.18C149.461 249.713 150.138 249.293 150.885 248.92C151.655 248.523 152.506 248.22 153.44 248.01C154.373 247.777 155.423 247.66 156.59 247.66C159.04 247.66 160.93 248.208 162.26 249.305C163.59 250.378 164.255 251.848 164.255 253.715ZM185.43 260.47C185.43 262.5 185.29 264.308 185.01 265.895C184.73 267.482 184.252 268.835 183.575 269.955C182.922 271.052 182.07 271.892 181.02 272.475C179.994 273.058 178.734 273.35 177.24 273.35C175.397 273.35 173.869 272.837 172.655 271.81C171.465 270.783 170.579 269.313 169.995 267.4C169.435 265.463 169.155 263.153 169.155 260.47C169.155 257.787 169.412 255.488 169.925 253.575C170.462 251.662 171.325 250.192 172.515 249.165C173.705 248.138 175.292 247.625 177.275 247.625C179.142 247.625 180.67 248.138 181.86 249.165C183.074 250.168 183.972 251.638 184.555 253.575C185.139 255.488 185.43 257.787 185.43 260.47ZM173.81 260.505C173.81 262.535 173.915 264.238 174.125 265.615C174.335 266.968 174.697 267.995 175.21 268.695C175.724 269.372 176.412 269.71 177.275 269.71C178.139 269.71 178.815 269.372 179.305 268.695C179.819 268.018 180.192 266.992 180.425 265.615C180.659 264.238 180.775 262.535 180.775 260.505C180.775 258.452 180.659 256.748 180.425 255.395C180.192 254.018 179.819 252.992 179.305 252.315C178.815 251.615 178.139 251.265 177.275 251.265C176.412 251.265 175.724 251.615 175.21 252.315C174.697 252.992 174.335 254.007 174.125 255.36C173.915 256.713 173.81 258.428 173.81 260.505ZM189.176 265.475V261.765H197.716V265.475H189.176ZM213.492 273H208.837V257.425C208.837 256.912 208.837 256.387 208.837 255.85C208.861 255.313 208.872 254.777 208.872 254.24C208.896 253.68 208.919 253.167 208.942 252.7C208.709 252.933 208.441 253.213 208.137 253.54C207.857 253.867 207.542 254.182 207.192 254.485L204.602 256.725L202.222 253.995L209.502 248.01H213.492V273ZM238.063 273H221.788V269.745L227.703 263.305C228.893 262.022 229.849 260.925 230.573 260.015C231.296 259.082 231.821 258.218 232.148 257.425C232.498 256.632 232.673 255.768 232.673 254.835C232.673 253.692 232.381 252.84 231.798 252.28C231.238 251.697 230.491 251.405 229.558 251.405C228.624 251.405 227.738 251.627 226.898 252.07C226.081 252.49 225.218 253.097 224.308 253.89L221.753 250.985C222.429 250.378 223.141 249.83 223.888 249.34C224.634 248.827 225.498 248.418 226.478 248.115C227.481 247.812 228.636 247.66 229.943 247.66C231.459 247.66 232.766 247.952 233.863 248.535C234.983 249.095 235.846 249.877 236.453 250.88C237.059 251.883 237.363 253.05 237.363 254.38C237.363 255.407 237.211 256.352 236.908 257.215C236.628 258.078 236.208 258.93 235.648 259.77C235.088 260.61 234.423 261.473 233.653 262.36C232.883 263.247 232.019 264.215 231.063 265.265L227.668 268.975V269.185H238.063V273ZM242.718 270.76C242.718 269.78 242.975 269.092 243.488 268.695C244.025 268.275 244.667 268.065 245.413 268.065C246.16 268.065 246.79 268.263 247.303 268.66C247.84 269.057 248.108 269.757 248.108 270.76C248.108 271.717 247.84 272.405 247.303 272.825C246.79 273.245 246.16 273.455 245.413 273.455C244.667 273.455 244.025 273.245 243.488 272.825C242.975 272.405 242.718 271.717 242.718 270.76ZM242.718 256.34C242.718 255.337 242.975 254.637 243.488 254.24C244.025 253.82 244.667 253.61 245.413 253.61C246.16 253.61 246.79 253.808 247.303 254.205C247.84 254.602 248.108 255.313 248.108 256.34C248.108 257.297 247.84 257.985 247.303 258.405C246.79 258.825 246.16 259.035 245.413 259.035C244.667 259.035 244.025 258.825 243.488 258.405C242.975 257.985 242.718 257.297 242.718 256.34ZM268.187 253.715C268.187 254.835 267.965 255.815 267.522 256.655C267.079 257.495 266.472 258.183 265.702 258.72C264.955 259.233 264.092 259.607 263.112 259.84V259.945C265.002 260.178 266.425 260.797 267.382 261.8C268.362 262.803 268.852 264.133 268.852 265.79C268.852 267.237 268.525 268.532 267.872 269.675C267.219 270.818 266.192 271.717 264.792 272.37C263.415 273.023 261.63 273.35 259.437 273.35C258.107 273.35 256.905 273.233 255.832 273C254.759 272.79 253.72 272.452 252.717 271.985V268.1C253.744 268.637 254.805 269.045 255.902 269.325C256.999 269.605 258.025 269.745 258.982 269.745C260.802 269.745 262.085 269.383 262.832 268.66C263.579 267.913 263.952 266.887 263.952 265.58C263.952 264.74 263.754 264.052 263.357 263.515C262.984 262.978 262.377 262.582 261.537 262.325C260.72 262.045 259.6 261.905 258.177 261.905H256.357V258.37H258.212C259.519 258.37 260.557 258.207 261.327 257.88C262.12 257.553 262.692 257.098 263.042 256.515C263.392 255.932 263.567 255.255 263.567 254.485C263.567 253.482 263.264 252.7 262.657 252.14C262.074 251.58 261.222 251.3 260.102 251.3C259.355 251.3 258.655 251.393 258.002 251.58C257.349 251.767 256.765 252.012 256.252 252.315C255.739 252.595 255.284 252.898 254.887 253.225L252.787 250.18C253.394 249.713 254.07 249.293 254.817 248.92C255.587 248.523 256.439 248.22 257.372 248.01C258.305 247.777 259.355 247.66 260.522 247.66C262.972 247.66 264.862 248.208 266.192 249.305C267.522 250.378 268.187 251.848 268.187 253.715ZM289.362 260.47C289.362 262.5 289.222 264.308 288.942 265.895C288.662 267.482 288.184 268.835 287.507 269.955C286.854 271.052 286.002 271.892 284.952 272.475C283.926 273.058 282.666 273.35 281.172 273.35C279.329 273.35 277.801 272.837 276.587 271.81C275.397 270.783 274.511 269.313 273.927 267.4C273.367 265.463 273.087 263.153 273.087 260.47C273.087 257.787 273.344 255.488 273.857 253.575C274.394 251.662 275.257 250.192 276.447 249.165C277.637 248.138 279.224 247.625 281.207 247.625C283.074 247.625 284.602 248.138 285.792 249.165C287.006 250.168 287.904 251.638 288.487 253.575C289.071 255.488 289.362 257.787 289.362 260.47ZM277.742 260.505C277.742 262.535 277.847 264.238 278.057 265.615C278.267 266.968 278.629 267.995 279.142 268.695C279.656 269.372 280.344 269.71 281.207 269.71C282.071 269.71 282.747 269.372 283.237 268.695C283.751 268.018 284.124 266.992 284.357 265.615C284.591 264.238 284.707 262.535 284.707 260.505C284.707 258.452 284.591 256.748 284.357 255.395C284.124 254.018 283.751 252.992 283.237 252.315C282.747 251.615 282.071 251.265 281.207 251.265C280.344 251.265 279.656 251.615 279.142 252.315C278.629 252.992 278.267 254.007 278.057 255.36C277.847 256.713 277.742 258.428 277.742 260.505ZM312.188 248.01C315.221 248.01 317.45 248.687 318.873 250.04C320.296 251.393 321.008 253.26 321.008 255.64C321.008 256.713 320.856 257.74 320.553 258.72C320.25 259.677 319.736 260.54 319.013 261.31C318.313 262.08 317.38 262.687 316.213 263.13C315.046 263.573 313.611 263.795 311.908 263.795H309.668V273H304.978V248.01H312.188ZM312.013 251.72H309.668V260.085H311.418C312.445 260.085 313.32 259.945 314.043 259.665C314.766 259.362 315.315 258.895 315.688 258.265C316.085 257.635 316.283 256.818 316.283 255.815C316.283 254.438 315.933 253.412 315.233 252.735C314.533 252.058 313.46 251.72 312.013 251.72ZM337.001 273L330.911 252.525H330.771C330.795 252.992 330.83 253.657 330.876 254.52C330.923 255.36 330.958 256.282 330.981 257.285C331.028 258.265 331.051 259.187 331.051 260.05V273H326.851V248.01H333.291L339.241 267.645H339.346L345.401 248.01H351.876V273H347.467V259.84C347.467 259.047 347.478 258.183 347.501 257.25C347.525 256.293 347.56 255.395 347.607 254.555C347.653 253.692 347.688 253.027 347.711 252.56H347.572L341.306 273H337.001ZM129.896 333H125.241V317.425C125.241 316.912 125.241 316.387 125.241 315.85C125.264 315.313 125.276 314.777 125.276 314.24C125.299 313.68 125.322 313.167 125.346 312.7C125.112 312.933 124.844 313.213 124.541 313.54C124.261 313.867 123.946 314.182 123.596 314.485L121.006 316.725L118.626 313.995L125.906 308.01H129.896V333ZM138.786 330.76C138.786 329.78 139.043 329.092 139.556 328.695C140.093 328.275 140.734 328.065 141.481 328.065C142.228 328.065 142.858 328.263 143.371 328.66C143.908 329.057 144.176 329.757 144.176 330.76C144.176 331.717 143.908 332.405 143.371 332.825C142.858 333.245 142.228 333.455 141.481 333.455C140.734 333.455 140.093 333.245 139.556 332.825C139.043 332.405 138.786 331.717 138.786 330.76ZM138.786 316.34C138.786 315.337 139.043 314.637 139.556 314.24C140.093 313.82 140.734 313.61 141.481 313.61C142.228 313.61 142.858 313.808 143.371 314.205C143.908 314.602 144.176 315.313 144.176 316.34C144.176 317.297 143.908 317.985 143.371 318.405C142.858 318.825 142.228 319.035 141.481 319.035C140.734 319.035 140.093 318.825 139.556 318.405C139.043 317.985 138.786 317.297 138.786 316.34ZM165.095 320.47C165.095 322.5 164.955 324.308 164.675 325.895C164.395 327.482 163.916 328.835 163.24 329.955C162.586 331.052 161.735 331.892 160.685 332.475C159.658 333.058 158.398 333.35 156.905 333.35C155.061 333.35 153.533 332.837 152.32 331.81C151.13 330.783 150.243 329.313 149.66 327.4C149.1 325.463 148.82 323.153 148.82 320.47C148.82 317.787 149.076 315.488 149.59 313.575C150.126 311.662 150.99 310.192 152.18 309.165C153.37 308.138 154.956 307.625 156.94 307.625C158.806 307.625 160.335 308.138 161.525 309.165C162.738 310.168 163.636 311.638 164.22 313.575C164.803 315.488 165.095 317.787 165.095 320.47ZM153.475 320.505C153.475 322.535 153.58 324.238 153.79 325.615C154 326.968 154.361 327.995 154.875 328.695C155.388 329.372 156.076 329.71 156.94 329.71C157.803 329.71 158.48 329.372 158.97 328.695C159.483 328.018 159.856 326.992 160.09 325.615C160.323 324.238 160.44 322.535 160.44 320.505C160.44 318.452 160.323 316.748 160.09 315.395C159.856 314.018 159.483 312.992 158.97 312.315C158.48 311.615 157.803 311.265 156.94 311.265C156.076 311.265 155.388 311.615 154.875 312.315C154.361 312.992 154 314.007 153.79 315.36C153.58 316.713 153.475 318.428 153.475 320.505ZM185.43 320.47C185.43 322.5 185.29 324.308 185.01 325.895C184.73 327.482 184.252 328.835 183.575 329.955C182.922 331.052 182.07 331.892 181.02 332.475C179.994 333.058 178.734 333.35 177.24 333.35C175.397 333.35 173.869 332.837 172.655 331.81C171.465 330.783 170.579 329.313 169.995 327.4C169.435 325.463 169.155 323.153 169.155 320.47C169.155 317.787 169.412 315.488 169.925 313.575C170.462 311.662 171.325 310.192 172.515 309.165C173.705 308.138 175.292 307.625 177.275 307.625C179.142 307.625 180.67 308.138 181.86 309.165C183.074 310.168 183.972 311.638 184.555 313.575C185.139 315.488 185.43 317.787 185.43 320.47ZM173.81 320.505C173.81 322.535 173.915 324.238 174.125 325.615C174.335 326.968 174.697 327.995 175.21 328.695C175.724 329.372 176.412 329.71 177.275 329.71C178.139 329.71 178.815 329.372 179.305 328.695C179.819 328.018 180.192 326.992 180.425 325.615C180.659 324.238 180.775 322.535 180.775 320.505C180.775 318.452 180.659 316.748 180.425 315.395C180.192 314.018 179.819 312.992 179.305 312.315C178.815 311.615 178.139 311.265 177.275 311.265C176.412 311.265 175.724 311.615 175.21 312.315C174.697 312.992 174.335 314.007 174.125 315.36C173.915 316.713 173.81 318.428 173.81 320.505ZM189.176 325.475V321.765H197.716V325.475H189.176ZM217.727 333H201.452V329.745L207.367 323.305C208.557 322.022 209.514 320.925 210.237 320.015C210.961 319.082 211.486 318.218 211.812 317.425C212.162 316.632 212.337 315.768 212.337 314.835C212.337 313.692 212.046 312.84 211.462 312.28C210.902 311.697 210.156 311.405 209.222 311.405C208.289 311.405 207.402 311.627 206.562 312.07C205.746 312.49 204.882 313.097 203.972 313.89L201.417 310.985C202.094 310.378 202.806 309.83 203.552 309.34C204.299 308.827 205.162 308.418 206.142 308.115C207.146 307.812 208.301 307.66 209.607 307.66C211.124 307.66 212.431 307.952 213.527 308.535C214.647 309.095 215.511 309.877 216.117 310.88C216.724 311.883 217.027 313.05 217.027 314.38C217.027 315.407 216.876 316.352 216.572 317.215C216.292 318.078 215.872 318.93 215.312 319.77C214.752 320.61 214.087 321.473 213.317 322.36C212.547 323.247 211.684 324.215 210.727 325.265L207.332 328.975V329.185H217.727V333ZM222.383 330.76C222.383 329.78 222.639 329.092 223.153 328.695C223.689 328.275 224.331 328.065 225.078 328.065C225.824 328.065 226.454 328.263 226.968 328.66C227.504 329.057 227.773 329.757 227.773 330.76C227.773 331.717 227.504 332.405 226.968 332.825C226.454 333.245 225.824 333.455 225.078 333.455C224.331 333.455 223.689 333.245 223.153 332.825C222.639 332.405 222.383 331.717 222.383 330.76ZM222.383 316.34C222.383 315.337 222.639 314.637 223.153 314.24C223.689 313.82 224.331 313.61 225.078 313.61C225.824 313.61 226.454 313.808 226.968 314.205C227.504 314.602 227.773 315.313 227.773 316.34C227.773 317.297 227.504 317.985 226.968 318.405C226.454 318.825 225.824 319.035 225.078 319.035C224.331 319.035 223.689 318.825 223.153 318.405C222.639 317.985 222.383 317.297 222.383 316.34ZM248.691 320.47C248.691 322.5 248.551 324.308 248.271 325.895C247.991 327.482 247.513 328.835 246.836 329.955C246.183 331.052 245.331 331.892 244.281 332.475C243.255 333.058 241.995 333.35 240.501 333.35C238.658 333.35 237.13 332.837 235.916 331.81C234.726 330.783 233.84 329.313 233.256 327.4C232.696 325.463 232.416 323.153 232.416 320.47C232.416 317.787 232.673 315.488 233.186 313.575C233.723 311.662 234.586 310.192 235.776 309.165C236.966 308.138 238.553 307.625 240.536 307.625C242.403 307.625 243.931 308.138 245.121 309.165C246.335 310.168 247.233 311.638 247.816 313.575C248.4 315.488 248.691 317.787 248.691 320.47ZM237.071 320.505C237.071 322.535 237.176 324.238 237.386 325.615C237.596 326.968 237.958 327.995 238.471 328.695C238.985 329.372 239.673 329.71 240.536 329.71C241.4 329.71 242.076 329.372 242.566 328.695C243.08 328.018 243.453 326.992 243.686 325.615C243.92 324.238 244.036 322.535 244.036 320.505C244.036 318.452 243.92 316.748 243.686 315.395C243.453 314.018 243.08 312.992 242.566 312.315C242.076 311.615 241.4 311.265 240.536 311.265C239.673 311.265 238.985 311.615 238.471 312.315C237.958 312.992 237.596 314.007 237.386 315.36C237.176 316.713 237.071 318.428 237.071 320.505ZM269.027 320.47C269.027 322.5 268.887 324.308 268.607 325.895C268.327 327.482 267.849 328.835 267.172 329.955C266.519 331.052 265.667 331.892 264.617 332.475C263.59 333.058 262.33 333.35 260.837 333.35C258.994 333.35 257.465 332.837 256.252 331.81C255.062 330.783 254.175 329.313 253.592 327.4C253.032 325.463 252.752 323.153 252.752 320.47C252.752 317.787 253.009 315.488 253.522 313.575C254.059 311.662 254.922 310.192 256.112 309.165C257.302 308.138 258.889 307.625 260.872 307.625C262.739 307.625 264.267 308.138 265.457 309.165C266.67 310.168 267.569 311.638 268.152 313.575C268.735 315.488 269.027 317.787 269.027 320.47ZM257.407 320.505C257.407 322.535 257.512 324.238 257.722 325.615C257.932 326.968 258.294 327.995 258.807 328.695C259.32 329.372 260.009 329.71 260.872 329.71C261.735 329.71 262.412 329.372 262.902 328.695C263.415 328.018 263.789 326.992 264.022 325.615C264.255 324.238 264.372 322.535 264.372 320.505C264.372 318.452 264.255 316.748 264.022 315.395C263.789 314.018 263.415 312.992 262.902 312.315C262.412 311.615 261.735 311.265 260.872 311.265C260.009 311.265 259.32 311.615 258.807 312.315C258.294 312.992 257.932 314.007 257.722 315.36C257.512 316.713 257.407 318.428 257.407 320.505ZM291.852 308.01C294.886 308.01 297.114 308.687 298.537 310.04C299.961 311.393 300.672 313.26 300.672 315.64C300.672 316.713 300.521 317.74 300.217 318.72C299.914 319.677 299.401 320.54 298.677 321.31C297.977 322.08 297.044 322.687 295.877 323.13C294.711 323.573 293.276 323.795 291.572 323.795H289.332V333H284.642V308.01H291.852ZM291.677 311.72H289.332V320.085H291.082C292.109 320.085 292.984 319.945 293.707 319.665C294.431 319.362 294.979 318.895 295.352 318.265C295.749 317.635 295.947 316.818 295.947 315.815C295.947 314.438 295.597 313.412 294.897 312.735C294.197 312.058 293.124 311.72 291.677 311.72ZM316.666 333L310.576 312.525H310.436C310.459 312.992 310.494 313.657 310.541 314.52C310.588 315.36 310.623 316.282 310.646 317.285C310.693 318.265 310.716 319.187 310.716 320.05V333H306.516V308.01H312.956L318.906 327.645H319.011L325.066 308.01H331.541V333H327.131V319.84C327.131 319.047 327.143 318.183 327.166 317.25C327.189 316.293 327.224 315.395 327.271 314.555C327.318 313.692 327.353 313.027 327.376 312.56H327.236L320.971 333H316.666Z" fill="#FEF8EB"/>
<rect x="356" y="79" width="67" height="4" fill="#FEF8EB"/>
<rect x="365" y="139" width="58" height="4" fill="#FEF8EB"/>
<rect x="313" y="200" width="110" height="4" fill="#FEF8EB"/>
<rect x="364" y="260" width="59" height="4" fill="#FEF8EB"/>
<rect x="343" y="320" width="80" height="4" fill="#FEF8EB"/>
</svg>
