<svg width="860" height="408" viewBox="0 0 860 408" fill="none" xmlns="http://www.w3.org/2000/svg">
<rect width="860" height="408" fill="#333638"/>
<rect x="14" y="11" width="834" height="385" fill="#404649"/>
<rect x="26" y="23" width="809" height="362" fill="#2D7034"/>
<rect x="26" y="40" width="809" height="325" fill="#397B41"/>
<path d="M455.295 80.26C455.295 83.06 454.793 85.405 453.79 87.295C452.81 89.185 451.387 90.6083 449.52 91.565C447.653 92.5217 445.413 93 442.8 93H435.94V68.01H443.5C445.927 68.01 448.027 68.4767 449.8 69.41C451.573 70.3433 452.927 71.72 453.86 73.54C454.817 75.3367 455.295 77.5767 455.295 80.26ZM450.395 80.4C450.395 78.4167 450.127 76.7833 449.59 75.5C449.077 74.2167 448.295 73.2717 447.245 72.665C446.218 72.035 444.947 71.72 443.43 71.72H440.63V89.255H442.905C445.425 89.255 447.303 88.52 448.54 87.05C449.777 85.5567 450.395 83.34 450.395 80.4ZM465.774 74.03V93H461.154V74.03H465.774ZM463.499 66.715C464.176 66.715 464.759 66.89 465.249 67.24C465.739 67.5667 465.984 68.1617 465.984 69.025C465.984 69.865 465.739 70.4717 465.249 70.845C464.759 71.195 464.176 71.37 463.499 71.37C462.776 71.37 462.169 71.195 461.679 70.845C461.189 70.4717 460.944 69.865 460.944 69.025C460.944 68.1617 461.189 67.5667 461.679 67.24C462.169 66.89 462.776 66.715 463.499 66.715ZM482.201 73.68C484.185 73.68 485.748 74.2283 486.891 75.325C488.035 76.4217 488.606 78.195 488.606 80.645V93H483.951V81.52C483.951 80.0967 483.706 79.035 483.216 78.335C482.726 77.6117 481.956 77.25 480.906 77.25C479.343 77.25 478.281 77.81 477.721 78.93C477.161 80.0267 476.881 81.625 476.881 83.725V93H472.226V74.03H475.796L476.461 76.515H476.636C477.056 75.8617 477.546 75.325 478.106 74.905C478.666 74.485 479.296 74.1817 479.996 73.995C480.696 73.785 481.431 73.68 482.201 73.68ZM504.929 73.68C506.913 73.68 508.476 74.2283 509.619 75.325C510.763 76.4217 511.334 78.195 511.334 80.645V93H506.679V81.52C506.679 80.0967 506.434 79.035 505.944 78.335C505.454 77.6117 504.684 77.25 503.634 77.25C502.071 77.25 501.009 77.81 500.449 78.93C499.889 80.0267 499.609 81.625 499.609 83.725V93H494.954V74.03H498.524L499.189 76.515H499.364C499.784 75.8617 500.274 75.325 500.834 74.905C501.394 74.485 502.024 74.1817 502.724 73.995C503.424 73.785 504.159 73.68 504.929 73.68ZM525.137 73.68C526.771 73.68 528.171 74.03 529.337 74.73C530.527 75.4067 531.449 76.3867 532.102 77.67C532.756 78.93 533.082 80.47 533.082 82.29V84.53H521.462C521.509 86.2567 521.929 87.5983 522.722 88.555C523.539 89.4883 524.682 89.955 526.152 89.955C527.319 89.955 528.357 89.8383 529.267 89.605C530.177 89.3483 531.122 88.9867 532.102 88.52V92.055C531.216 92.4983 530.294 92.825 529.337 93.035C528.381 93.245 527.202 93.35 525.802 93.35C524.029 93.35 522.454 93 521.077 92.3C519.724 91.5767 518.662 90.4917 517.892 89.045C517.122 87.5983 516.737 85.8017 516.737 83.655C516.737 81.485 517.087 79.665 517.787 78.195C518.487 76.7017 519.467 75.5817 520.727 74.835C522.011 74.065 523.481 73.68 525.137 73.68ZM525.207 76.935C524.157 76.935 523.306 77.32 522.652 78.09C522.022 78.8367 521.649 79.9567 521.532 81.45H528.672C528.672 80.5633 528.544 79.7817 528.287 79.105C528.031 78.4283 527.646 77.9033 527.132 77.53C526.642 77.1333 526.001 76.935 525.207 76.935ZM548.157 73.68C548.484 73.68 548.822 73.6917 549.172 73.715C549.522 73.7383 549.814 73.785 550.047 73.855L549.627 77.95C549.394 77.9033 549.114 77.8683 548.787 77.845C548.484 77.7983 548.157 77.775 547.807 77.775C547.224 77.775 546.652 77.8917 546.092 78.125C545.532 78.335 545.031 78.6617 544.587 79.105C544.144 79.525 543.782 80.0733 543.502 80.75C543.246 81.4267 543.117 82.2317 543.117 83.165V93H538.462V74.03H542.032L542.662 77.32H542.907C543.257 76.6433 543.689 76.0367 544.202 75.5C544.739 74.94 545.334 74.4967 545.987 74.17C546.664 73.8433 547.387 73.68 548.157 73.68ZM443.15 128.01C446.183 128.01 448.412 128.687 449.835 130.04C451.258 131.393 451.97 133.26 451.97 135.64C451.97 136.713 451.818 137.74 451.515 138.72C451.212 139.677 450.698 140.54 449.975 141.31C449.275 142.08 448.342 142.687 447.175 143.13C446.008 143.573 444.573 143.795 442.87 143.795H440.63V153H435.94V128.01H443.15ZM442.975 131.72H440.63V140.085H442.38C443.407 140.085 444.282 139.945 445.005 139.665C445.728 139.362 446.277 138.895 446.65 138.265C447.047 137.635 447.245 136.818 447.245 135.815C447.245 134.438 446.895 133.412 446.195 132.735C445.495 132.058 444.422 131.72 442.975 131.72ZM473.704 143.48C473.704 145.067 473.505 146.467 473.109 147.68C472.712 148.893 472.129 149.932 471.359 150.795C470.612 151.635 469.702 152.277 468.629 152.72C467.555 153.14 466.354 153.35 465.024 153.35C463.787 153.35 462.632 153.14 461.559 152.72C460.509 152.277 459.599 151.635 458.829 150.795C458.082 149.932 457.499 148.893 457.079 147.68C456.659 146.467 456.449 145.067 456.449 143.48C456.449 141.38 456.787 139.607 457.464 138.16C458.164 136.69 459.167 135.582 460.474 134.835C461.78 134.065 463.332 133.68 465.129 133.68C466.809 133.68 468.29 134.065 469.574 134.835C470.857 135.582 471.86 136.69 472.584 138.16C473.33 139.607 473.704 141.38 473.704 143.48ZM461.174 143.48C461.174 144.81 461.314 145.953 461.594 146.91C461.874 147.843 462.294 148.555 462.854 149.045C463.437 149.535 464.184 149.78 465.094 149.78C466.004 149.78 466.739 149.535 467.299 149.045C467.882 148.555 468.302 147.843 468.559 146.91C468.839 145.953 468.979 144.81 468.979 143.48C468.979 142.127 468.839 140.995 468.559 140.085C468.279 139.152 467.847 138.452 467.264 137.985C466.704 137.495 465.969 137.25 465.059 137.25C463.682 137.25 462.69 137.787 462.084 138.86C461.477 139.933 461.174 141.473 461.174 143.48ZM483.785 139.035C483.785 139.642 483.761 140.283 483.715 140.96C483.668 141.613 483.61 142.255 483.54 142.885H483.68C483.796 142.605 483.971 142.302 484.205 141.975C484.438 141.625 484.683 141.287 484.94 140.96C485.22 140.61 485.488 140.295 485.745 140.015L490.68 134.03H495.93L489.035 142.22L496.35 153H490.995L485.85 144.88L483.785 146.7V153H479.165V126.4H483.785V139.035ZM507.844 133.68C509.477 133.68 510.877 134.03 512.044 134.73C513.234 135.407 514.156 136.387 514.809 137.67C515.462 138.93 515.789 140.47 515.789 142.29V144.53H504.169C504.216 146.257 504.636 147.598 505.429 148.555C506.246 149.488 507.389 149.955 508.859 149.955C510.026 149.955 511.064 149.838 511.974 149.605C512.884 149.348 513.829 148.987 514.809 148.52V152.055C513.922 152.498 513.001 152.825 512.044 153.035C511.087 153.245 509.909 153.35 508.509 153.35C506.736 153.35 505.161 153 503.784 152.3C502.431 151.577 501.369 150.492 500.599 149.045C499.829 147.598 499.444 145.802 499.444 143.655C499.444 141.485 499.794 139.665 500.494 138.195C501.194 136.702 502.174 135.582 503.434 134.835C504.717 134.065 506.187 133.68 507.844 133.68ZM507.914 136.935C506.864 136.935 506.012 137.32 505.359 138.09C504.729 138.837 504.356 139.957 504.239 141.45H511.379C511.379 140.563 511.251 139.782 510.994 139.105C510.737 138.428 510.352 137.903 509.839 137.53C509.349 137.133 508.707 136.935 507.914 136.935ZM530.864 133.68C531.19 133.68 531.529 133.692 531.879 133.715C532.229 133.738 532.52 133.785 532.754 133.855L532.334 137.95C532.1 137.903 531.82 137.868 531.494 137.845C531.19 137.798 530.864 137.775 530.514 137.775C529.93 137.775 529.359 137.892 528.799 138.125C528.239 138.335 527.737 138.662 527.294 139.105C526.85 139.525 526.489 140.073 526.209 140.75C525.952 141.427 525.824 142.232 525.824 143.165V153H521.169V134.03H524.739L525.369 137.32H525.614C525.964 136.643 526.395 136.037 526.909 135.5C527.445 134.94 528.04 134.497 528.694 134.17C529.37 133.843 530.094 133.68 530.864 133.68ZM556.453 153H551.728V131.79H545.218V128.01H562.928V131.79H556.453V153ZM581.43 143.48C581.43 145.067 581.231 146.467 580.835 147.68C580.438 148.893 579.855 149.932 579.085 150.795C578.338 151.635 577.428 152.277 576.355 152.72C575.281 153.14 574.08 153.35 572.75 153.35C571.513 153.35 570.358 153.14 569.285 152.72C568.235 152.277 567.325 151.635 566.555 150.795C565.808 149.932 565.225 148.893 564.805 147.68C564.385 146.467 564.175 145.067 564.175 143.48C564.175 141.38 564.513 139.607 565.19 138.16C565.89 136.69 566.893 135.582 568.2 134.835C569.506 134.065 571.058 133.68 572.855 133.68C574.535 133.68 576.016 134.065 577.3 134.835C578.583 135.582 579.586 136.69 580.31 138.16C581.056 139.607 581.43 141.38 581.43 143.48ZM568.9 143.48C568.9 144.81 569.04 145.953 569.32 146.91C569.6 147.843 570.02 148.555 570.58 149.045C571.163 149.535 571.91 149.78 572.82 149.78C573.73 149.78 574.465 149.535 575.025 149.045C575.608 148.555 576.028 147.843 576.285 146.91C576.565 145.953 576.705 144.81 576.705 143.48C576.705 142.127 576.565 140.995 576.285 140.085C576.005 139.152 575.573 138.452 574.99 137.985C574.43 137.495 573.695 137.25 572.785 137.25C571.408 137.25 570.416 137.787 569.81 138.86C569.203 139.933 568.9 141.473 568.9 143.48ZM603.131 134.03V153H599.561L598.966 150.55H598.721C598.348 151.203 597.869 151.74 597.286 152.16C596.703 152.557 596.061 152.848 595.361 153.035C594.661 153.245 593.938 153.35 593.191 153.35C591.884 153.35 590.753 153.105 589.796 152.615C588.839 152.125 588.093 151.378 587.556 150.375C587.043 149.348 586.786 148.03 586.786 146.42V134.03H591.441V145.545C591.441 146.945 591.674 148.007 592.141 148.73C592.631 149.43 593.401 149.78 594.451 149.78C595.501 149.78 596.318 149.535 596.901 149.045C597.508 148.532 597.928 147.797 598.161 146.84C598.394 145.883 598.511 144.705 598.511 143.305V134.03H603.131ZM619.314 133.68C619.641 133.68 619.979 133.692 620.329 133.715C620.679 133.738 620.971 133.785 621.204 133.855L620.784 137.95C620.551 137.903 620.271 137.868 619.944 137.845C619.641 137.798 619.314 137.775 618.964 137.775C618.381 137.775 617.809 137.892 617.249 138.125C616.689 138.335 616.187 138.662 615.744 139.105C615.301 139.525 614.939 140.073 614.659 140.75C614.402 141.427 614.274 142.232 614.274 143.165V153H609.619V134.03H613.189L613.819 137.32H614.064C614.414 136.643 614.846 136.037 615.359 135.5C615.896 134.94 616.491 134.497 617.144 134.17C617.821 133.843 618.544 133.68 619.314 133.68ZM635.623 133.68C637.606 133.68 639.17 134.228 640.313 135.325C641.456 136.422 642.028 138.195 642.028 140.645V153H637.373V141.52C637.373 140.097 637.128 139.035 636.638 138.335C636.148 137.612 635.378 137.25 634.328 137.25C632.765 137.25 631.703 137.81 631.143 138.93C630.583 140.027 630.303 141.625 630.303 143.725V153H625.648V134.03H629.218L629.883 136.515H630.058C630.478 135.862 630.968 135.325 631.528 134.905C632.088 134.485 632.718 134.182 633.418 133.995C634.118 133.785 634.853 133.68 635.623 133.68ZM655.971 133.68C658.258 133.68 660.008 134.217 661.221 135.29C662.434 136.34 663.041 137.997 663.041 140.26V153H659.786L658.876 150.375H658.736C658.223 151.052 657.698 151.623 657.161 152.09C656.624 152.533 656.006 152.848 655.306 153.035C654.606 153.245 653.766 153.35 652.786 153.35C651.736 153.35 650.791 153.14 649.951 152.72C649.111 152.3 648.446 151.658 647.956 150.795C647.466 149.908 647.221 148.8 647.221 147.47C647.221 145.51 647.898 144.04 649.251 143.06C650.604 142.057 652.634 141.508 655.341 141.415L658.386 141.31V140.365C658.386 139.152 658.129 138.288 657.616 137.775C657.103 137.262 656.403 137.005 655.516 137.005C654.676 137.005 653.824 137.145 652.961 137.425C652.121 137.705 651.293 138.032 650.476 138.405L649.041 135.325C649.998 134.835 651.059 134.438 652.226 134.135C653.393 133.832 654.641 133.68 655.971 133.68ZM656.426 144.11C654.769 144.18 653.614 144.518 652.961 145.125C652.308 145.708 651.981 146.502 651.981 147.505C651.981 148.392 652.203 149.033 652.646 149.43C653.113 149.827 653.719 150.025 654.466 150.025C655.563 150.025 656.496 149.663 657.266 148.94C658.036 148.193 658.421 147.097 658.421 145.65V144.04L656.426 144.11ZM690.186 133.68C692.239 133.68 693.779 134.228 694.806 135.325C695.833 136.422 696.346 138.195 696.346 140.645V153H691.761V141.485C691.761 140.085 691.528 139.035 691.061 138.335C690.594 137.612 689.871 137.25 688.891 137.25C687.538 137.25 686.581 137.752 686.021 138.755C685.461 139.758 685.181 141.217 685.181 143.13V153H680.561V141.485C680.561 140.552 680.456 139.77 680.246 139.14C680.036 138.51 679.721 138.043 679.301 137.74C678.881 137.413 678.344 137.25 677.691 137.25C676.758 137.25 676.023 137.507 675.486 138.02C674.949 138.51 674.564 139.233 674.331 140.19C674.121 141.147 674.016 142.325 674.016 143.725V153H669.361V134.03H672.931L673.596 136.515H673.806C674.156 135.862 674.588 135.325 675.101 134.905C675.638 134.485 676.244 134.182 676.921 133.995C677.621 133.785 678.344 133.68 679.091 133.68C680.421 133.68 681.529 133.925 682.416 134.415C683.326 134.882 684.026 135.617 684.516 136.62H684.761C685.344 135.593 686.114 134.847 687.071 134.38C688.051 133.913 689.089 133.68 690.186 133.68ZM710.174 133.68C711.807 133.68 713.207 134.03 714.374 134.73C715.564 135.407 716.486 136.387 717.139 137.67C717.792 138.93 718.119 140.47 718.119 142.29V144.53H706.499C706.546 146.257 706.966 147.598 707.759 148.555C708.576 149.488 709.719 149.955 711.189 149.955C712.356 149.955 713.394 149.838 714.304 149.605C715.214 149.348 716.159 148.987 717.139 148.52V152.055C716.252 152.498 715.331 152.825 714.374 153.035C713.417 153.245 712.239 153.35 710.839 153.35C709.066 153.35 707.491 153 706.114 152.3C704.761 151.577 703.699 150.492 702.929 149.045C702.159 147.598 701.774 145.802 701.774 143.655C701.774 141.485 702.124 139.665 702.824 138.195C703.524 136.702 704.504 135.582 705.764 134.835C707.047 134.065 708.517 133.68 710.174 133.68ZM710.244 136.935C709.194 136.935 708.342 137.32 707.689 138.09C707.059 138.837 706.686 139.957 706.569 141.45H713.709C713.709 140.563 713.581 139.782 713.324 139.105C713.067 138.428 712.682 137.903 712.169 137.53C711.679 137.133 711.037 136.935 710.244 136.935ZM733.474 133.68C735.457 133.68 737.021 134.228 738.164 135.325C739.307 136.422 739.879 138.195 739.879 140.645V153H735.224V141.52C735.224 140.097 734.979 139.035 734.489 138.335C733.999 137.612 733.229 137.25 732.179 137.25C730.616 137.25 729.554 137.81 728.994 138.93C728.434 140.027 728.154 141.625 728.154 143.725V153H723.499V134.03H727.069L727.734 136.515H727.909C728.329 135.862 728.819 135.325 729.379 134.905C729.939 134.485 730.569 134.182 731.269 133.995C731.969 133.785 732.704 133.68 733.474 133.68ZM753.647 149.815C754.16 149.815 754.65 149.768 755.117 149.675C755.607 149.558 756.062 149.43 756.482 149.29V152.58C755.992 152.79 755.397 152.965 754.697 153.105C753.997 153.268 753.215 153.35 752.352 153.35C751.279 153.35 750.322 153.175 749.482 152.825C748.642 152.452 747.977 151.822 747.487 150.935C747.02 150.048 746.787 148.812 746.787 147.225V137.355H744.407V135.43L747.067 133.89L748.467 129.865H751.407V134.03H756.307V137.355H751.407V147.19C751.407 148.077 751.605 148.742 752.002 149.185C752.422 149.605 752.97 149.815 753.647 149.815ZM445.425 199.28H454.56V211.985C453.323 212.428 452.005 212.767 450.605 213C449.228 213.233 447.712 213.35 446.055 213.35C443.698 213.35 441.68 212.848 440 211.845C438.343 210.842 437.072 209.383 436.185 207.47C435.298 205.557 434.855 203.223 434.855 200.47C434.855 197.857 435.333 195.593 436.29 193.68C437.247 191.767 438.635 190.285 440.455 189.235C442.275 188.185 444.503 187.66 447.14 187.66C448.47 187.66 449.742 187.8 450.955 188.08C452.192 188.337 453.312 188.698 454.315 189.165L452.74 192.84C451.923 192.443 451.037 192.117 450.08 191.86C449.147 191.58 448.143 191.44 447.07 191.44C445.483 191.44 444.142 191.813 443.045 192.56C441.972 193.307 441.143 194.368 440.56 195.745C440 197.098 439.72 198.697 439.72 200.54C439.72 202.313 439.965 203.888 440.455 205.265C440.945 206.618 441.68 207.68 442.66 208.45C443.663 209.197 444.958 209.57 446.545 209.57C447.035 209.57 447.49 209.547 447.91 209.5C448.33 209.453 448.715 209.395 449.065 209.325C449.438 209.255 449.765 209.185 450.045 209.115V203.095H445.425V199.28ZM468.509 193.68C470.796 193.68 472.546 194.217 473.759 195.29C474.972 196.34 475.579 197.997 475.579 200.26V213H472.324L471.414 210.375H471.274C470.761 211.052 470.236 211.623 469.699 212.09C469.162 212.533 468.544 212.848 467.844 213.035C467.144 213.245 466.304 213.35 465.324 213.35C464.274 213.35 463.329 213.14 462.489 212.72C461.649 212.3 460.984 211.658 460.494 210.795C460.004 209.908 459.759 208.8 459.759 207.47C459.759 205.51 460.436 204.04 461.789 203.06C463.142 202.057 465.172 201.508 467.879 201.415L470.924 201.31V200.365C470.924 199.152 470.667 198.288 470.154 197.775C469.641 197.262 468.941 197.005 468.054 197.005C467.214 197.005 466.362 197.145 465.499 197.425C464.659 197.705 463.831 198.032 463.014 198.405L461.579 195.325C462.536 194.835 463.597 194.438 464.764 194.135C465.931 193.832 467.179 193.68 468.509 193.68ZM468.964 204.11C467.307 204.18 466.152 204.518 465.499 205.125C464.846 205.708 464.519 206.502 464.519 207.505C464.519 208.392 464.741 209.033 465.184 209.43C465.651 209.827 466.257 210.025 467.004 210.025C468.101 210.025 469.034 209.663 469.804 208.94C470.574 208.193 470.959 207.097 470.959 205.65V204.04L468.964 204.11ZM502.724 193.68C504.777 193.68 506.317 194.228 507.344 195.325C508.371 196.422 508.884 198.195 508.884 200.645V213H504.299V201.485C504.299 200.085 504.066 199.035 503.599 198.335C503.132 197.612 502.409 197.25 501.429 197.25C500.076 197.25 499.119 197.752 498.559 198.755C497.999 199.758 497.719 201.217 497.719 203.13V213H493.099V201.485C493.099 200.552 492.994 199.77 492.784 199.14C492.574 198.51 492.259 198.043 491.839 197.74C491.419 197.413 490.882 197.25 490.229 197.25C489.296 197.25 488.561 197.507 488.024 198.02C487.487 198.51 487.102 199.233 486.869 200.19C486.659 201.147 486.554 202.325 486.554 203.725V213H481.899V194.03H485.469L486.134 196.515H486.344C486.694 195.862 487.126 195.325 487.639 194.905C488.176 194.485 488.782 194.182 489.459 193.995C490.159 193.785 490.882 193.68 491.629 193.68C492.959 193.68 494.067 193.925 494.954 194.415C495.864 194.882 496.564 195.617 497.054 196.62H497.299C497.882 195.593 498.652 194.847 499.609 194.38C500.589 193.913 501.627 193.68 502.724 193.68ZM522.712 193.68C524.345 193.68 525.745 194.03 526.912 194.73C528.102 195.407 529.024 196.387 529.677 197.67C530.33 198.93 530.657 200.47 530.657 202.29V204.53H519.037C519.084 206.257 519.504 207.598 520.297 208.555C521.114 209.488 522.257 209.955 523.727 209.955C524.894 209.955 525.932 209.838 526.842 209.605C527.752 209.348 528.697 208.987 529.677 208.52V212.055C528.79 212.498 527.869 212.825 526.912 213.035C525.955 213.245 524.777 213.35 523.377 213.35C521.604 213.35 520.029 213 518.652 212.3C517.299 211.577 516.237 210.492 515.467 209.045C514.697 207.598 514.312 205.802 514.312 203.655C514.312 201.485 514.662 199.665 515.362 198.195C516.062 196.702 517.042 195.582 518.302 194.835C519.585 194.065 521.055 193.68 522.712 193.68ZM522.782 196.935C521.732 196.935 520.88 197.32 520.227 198.09C519.597 198.837 519.224 199.957 519.107 201.45H526.247C526.247 200.563 526.119 199.782 525.862 199.105C525.605 198.428 525.22 197.903 524.707 197.53C524.217 197.133 523.575 196.935 522.782 196.935ZM566.912 213H560.997L550.462 193.4H550.322C550.345 193.913 550.369 194.462 550.392 195.045C550.415 195.605 550.439 196.188 550.462 196.795C550.509 197.378 550.544 197.973 550.567 198.58C550.59 199.187 550.602 199.793 550.602 200.4V213H546.402V188.01H552.282L562.782 207.47H562.922C562.899 207.003 562.875 206.502 562.852 205.965C562.829 205.405 562.805 204.833 562.782 204.25C562.759 203.667 562.735 203.072 562.712 202.465C562.689 201.858 562.677 201.275 562.677 200.715V188.01H566.912V213ZM578.424 194.03V213H573.804V194.03H578.424ZM576.149 186.715C576.825 186.715 577.409 186.89 577.899 187.24C578.389 187.567 578.634 188.162 578.634 189.025C578.634 189.865 578.389 190.472 577.899 190.845C577.409 191.195 576.825 191.37 576.149 191.37C575.425 191.37 574.819 191.195 574.329 190.845C573.839 190.472 573.594 189.865 573.594 189.025C573.594 188.162 573.839 187.567 574.329 187.24C574.819 186.89 575.425 186.715 576.149 186.715ZM590.861 193.68C592.027 193.68 593.042 193.913 593.906 194.38C594.769 194.847 595.492 195.547 596.076 196.48H596.216L596.636 194.03H600.556V213.14C600.556 214.937 600.229 216.442 599.576 217.655C598.922 218.892 597.942 219.825 596.636 220.455C595.352 221.085 593.719 221.4 591.736 221.4C590.406 221.4 589.192 221.307 588.096 221.12C587.022 220.957 585.996 220.665 585.016 220.245V216.605C585.692 216.908 586.381 217.165 587.081 217.375C587.804 217.608 588.551 217.783 589.321 217.9C590.091 218.017 590.907 218.075 591.771 218.075C593.124 218.075 594.151 217.667 594.851 216.85C595.574 216.033 595.936 214.867 595.936 213.35V212.86C595.936 212.51 595.947 212.102 595.971 211.635C596.017 211.168 596.052 210.795 596.076 210.515H595.936C595.376 211.495 594.676 212.218 593.836 212.685C592.996 213.128 591.981 213.35 590.791 213.35C588.667 213.35 586.987 212.487 585.751 210.76C584.537 209.033 583.931 206.63 583.931 203.55C583.931 201.473 584.211 199.7 584.771 198.23C585.331 196.76 586.124 195.64 587.151 194.87C588.201 194.077 589.437 193.68 590.861 193.68ZM592.261 197.285C591.467 197.285 590.802 197.53 590.266 198.02C589.752 198.487 589.356 199.187 589.076 200.12C588.796 201.053 588.656 202.22 588.656 203.62C588.656 205.673 588.959 207.225 589.566 208.275C590.172 209.325 591.082 209.85 592.296 209.85C592.996 209.85 593.591 209.757 594.081 209.57C594.571 209.36 594.967 209.033 595.271 208.59C595.574 208.123 595.807 207.54 595.971 206.84C596.134 206.117 596.216 205.253 596.216 204.25V203.585C596.216 202.068 596.076 200.855 595.796 199.945C595.539 199.012 595.119 198.335 594.536 197.915C593.952 197.495 593.194 197.285 592.261 197.285ZM611.644 192.735C611.644 193.482 611.609 194.217 611.539 194.94C611.492 195.64 611.445 196.165 611.399 196.515H611.679C612.052 195.862 612.495 195.337 613.009 194.94C613.545 194.52 614.14 194.205 614.794 193.995C615.47 193.785 616.17 193.68 616.894 193.68C618.224 193.68 619.367 193.925 620.324 194.415C621.28 194.905 622.027 195.663 622.564 196.69C623.1 197.693 623.369 199.012 623.369 200.645V213H618.714V201.52C618.714 200.073 618.469 199 617.979 198.3C617.489 197.6 616.719 197.25 615.669 197.25C614.665 197.25 613.86 197.507 613.254 198.02C612.647 198.51 612.227 199.245 611.994 200.225C611.76 201.182 611.644 202.36 611.644 203.76V213H606.989V186.4H611.644V192.735ZM637.137 209.815C637.65 209.815 638.14 209.768 638.607 209.675C639.097 209.558 639.552 209.43 639.972 209.29V212.58C639.482 212.79 638.887 212.965 638.187 213.105C637.487 213.268 636.705 213.35 635.842 213.35C634.768 213.35 633.812 213.175 632.972 212.825C632.132 212.452 631.467 211.822 630.977 210.935C630.51 210.048 630.277 208.812 630.277 207.225V197.355H627.897V195.43L630.557 193.89L631.957 189.865H634.897V194.03H639.797V197.355H634.897V207.19C634.897 208.077 635.095 208.742 635.492 209.185C635.912 209.605 636.46 209.815 637.137 209.815ZM450.045 266.175C450.045 267.645 449.707 268.917 449.03 269.99C448.377 271.063 447.397 271.892 446.09 272.475C444.807 273.058 443.22 273.35 441.33 273.35C440.397 273.35 439.533 273.292 438.74 273.175C437.947 273.082 437.2 272.93 436.5 272.72C435.823 272.51 435.17 272.253 434.54 271.95V267.75C435.59 268.217 436.722 268.648 437.935 269.045C439.172 269.418 440.373 269.605 441.54 269.605C442.427 269.605 443.15 269.477 443.71 269.22C444.27 268.94 444.678 268.567 444.935 268.1C445.215 267.61 445.355 267.05 445.355 266.42C445.355 265.72 445.18 265.125 444.83 264.635C444.503 264.145 443.99 263.69 443.29 263.27C442.59 262.85 441.68 262.418 440.56 261.975C439.767 261.625 439.008 261.252 438.285 260.855C437.585 260.435 436.967 259.933 436.43 259.35C435.917 258.767 435.508 258.078 435.205 257.285C434.925 256.492 434.785 255.558 434.785 254.485C434.785 253.062 435.123 251.837 435.8 250.81C436.477 249.783 437.422 249.002 438.635 248.465C439.848 247.928 441.26 247.66 442.87 247.66C444.223 247.66 445.46 247.8 446.58 248.08C447.723 248.36 448.797 248.757 449.8 249.27L448.33 252.875C447.373 252.432 446.428 252.082 445.495 251.825C444.585 251.568 443.663 251.44 442.73 251.44C442.007 251.44 441.4 251.568 440.91 251.825C440.42 252.058 440.047 252.397 439.79 252.84C439.557 253.283 439.44 253.797 439.44 254.38C439.44 255.057 439.603 255.628 439.93 256.095C440.257 256.562 440.77 257.005 441.47 257.425C442.17 257.822 443.08 258.288 444.2 258.825C445.437 259.385 446.487 259.98 447.35 260.61C448.237 261.24 448.902 261.998 449.345 262.885C449.812 263.772 450.045 264.868 450.045 266.175ZM462.694 269.815C463.208 269.815 463.698 269.768 464.164 269.675C464.654 269.558 465.109 269.43 465.529 269.29V272.58C465.039 272.79 464.444 272.965 463.744 273.105C463.044 273.268 462.263 273.35 461.399 273.35C460.326 273.35 459.369 273.175 458.529 272.825C457.689 272.452 457.024 271.822 456.534 270.935C456.068 270.048 455.834 268.812 455.834 267.225V257.355H453.454V255.43L456.114 253.89L457.514 249.865H460.454V254.03H465.354V257.355H460.454V267.19C460.454 268.077 460.653 268.742 461.049 269.185C461.469 269.605 462.018 269.815 462.694 269.815ZM477.976 253.68C480.262 253.68 482.012 254.217 483.226 255.29C484.439 256.34 485.046 257.997 485.046 260.26V273H481.791L480.881 270.375H480.741C480.227 271.052 479.702 271.623 479.166 272.09C478.629 272.533 478.011 272.848 477.311 273.035C476.611 273.245 475.771 273.35 474.791 273.35C473.741 273.35 472.796 273.14 471.956 272.72C471.116 272.3 470.451 271.658 469.961 270.795C469.471 269.908 469.226 268.8 469.226 267.47C469.226 265.51 469.902 264.04 471.256 263.06C472.609 262.057 474.639 261.508 477.346 261.415L480.391 261.31V260.365C480.391 259.152 480.134 258.288 479.621 257.775C479.107 257.262 478.407 257.005 477.521 257.005C476.681 257.005 475.829 257.145 474.966 257.425C474.126 257.705 473.297 258.032 472.481 258.405L471.046 255.325C472.002 254.835 473.064 254.438 474.231 254.135C475.397 253.832 476.646 253.68 477.976 253.68ZM478.431 264.11C476.774 264.18 475.619 264.518 474.966 265.125C474.312 265.708 473.986 266.502 473.986 267.505C473.986 268.392 474.207 269.033 474.651 269.43C475.117 269.827 475.724 270.025 476.471 270.025C477.567 270.025 478.501 269.663 479.271 268.94C480.041 268.193 480.426 267.097 480.426 265.65V264.04L478.431 264.11ZM501.061 253.68C501.387 253.68 501.726 253.692 502.076 253.715C502.426 253.738 502.717 253.785 502.951 253.855L502.531 257.95C502.297 257.903 502.017 257.868 501.691 257.845C501.387 257.798 501.061 257.775 500.711 257.775C500.127 257.775 499.556 257.892 498.996 258.125C498.436 258.335 497.934 258.662 497.491 259.105C497.047 259.525 496.686 260.073 496.406 260.75C496.149 261.427 496.021 262.232 496.021 263.165V273H491.366V254.03H494.936L495.566 257.32H495.811C496.161 256.643 496.592 256.037 497.106 255.5C497.642 254.94 498.237 254.497 498.891 254.17C499.567 253.843 500.291 253.68 501.061 253.68ZM513.072 253.68C514.238 253.68 515.253 253.913 516.117 254.38C516.98 254.847 517.703 255.547 518.287 256.48H518.427L518.847 254.03H522.767V273.14C522.767 274.937 522.44 276.442 521.787 277.655C521.133 278.892 520.153 279.825 518.847 280.455C517.563 281.085 515.93 281.4 513.947 281.4C512.617 281.4 511.403 281.307 510.307 281.12C509.233 280.957 508.207 280.665 507.227 280.245V276.605C507.903 276.908 508.592 277.165 509.292 277.375C510.015 277.608 510.762 277.783 511.532 277.9C512.302 278.017 513.118 278.075 513.982 278.075C515.335 278.075 516.362 277.667 517.062 276.85C517.785 276.033 518.147 274.867 518.147 273.35V272.86C518.147 272.51 518.158 272.102 518.182 271.635C518.228 271.168 518.263 270.795 518.287 270.515H518.147C517.587 271.495 516.887 272.218 516.047 272.685C515.207 273.128 514.192 273.35 513.002 273.35C510.878 273.35 509.198 272.487 507.962 270.76C506.748 269.033 506.142 266.63 506.142 263.55C506.142 261.473 506.422 259.7 506.982 258.23C507.542 256.76 508.335 255.64 509.362 254.87C510.412 254.077 511.648 253.68 513.072 253.68ZM514.472 257.285C513.678 257.285 513.013 257.53 512.477 258.02C511.963 258.487 511.567 259.187 511.287 260.12C511.007 261.053 510.867 262.22 510.867 263.62C510.867 265.673 511.17 267.225 511.777 268.275C512.383 269.325 513.293 269.85 514.507 269.85C515.207 269.85 515.802 269.757 516.292 269.57C516.782 269.36 517.178 269.033 517.482 268.59C517.785 268.123 518.018 267.54 518.182 266.84C518.345 266.117 518.427 265.253 518.427 264.25V263.585C518.427 262.068 518.287 260.855 518.007 259.945C517.75 259.012 517.33 258.335 516.747 257.915C516.163 257.495 515.405 257.285 514.472 257.285ZM536.795 253.68C539.081 253.68 540.831 254.217 542.045 255.29C543.258 256.34 543.865 257.997 543.865 260.26V273H540.61L539.7 270.375H539.56C539.046 271.052 538.521 271.623 537.985 272.09C537.448 272.533 536.83 272.848 536.13 273.035C535.43 273.245 534.59 273.35 533.61 273.35C532.56 273.35 531.615 273.14 530.775 272.72C529.935 272.3 529.27 271.658 528.78 270.795C528.29 269.908 528.045 268.8 528.045 267.47C528.045 265.51 528.721 264.04 530.075 263.06C531.428 262.057 533.458 261.508 536.165 261.415L539.21 261.31V260.365C539.21 259.152 538.953 258.288 538.44 257.775C537.926 257.262 537.226 257.005 536.34 257.005C535.5 257.005 534.648 257.145 533.785 257.425C532.945 257.705 532.116 258.032 531.3 258.405L529.865 255.325C530.821 254.835 531.883 254.438 533.05 254.135C534.216 253.832 535.465 253.68 536.795 253.68ZM537.25 264.11C535.593 264.18 534.438 264.518 533.785 265.125C533.131 265.708 532.805 266.502 532.805 267.505C532.805 268.392 533.026 269.033 533.47 269.43C533.936 269.827 534.543 270.025 535.29 270.025C536.386 270.025 537.32 269.663 538.09 268.94C538.86 268.193 539.245 267.097 539.245 265.65V264.04L537.25 264.11ZM562.68 273H548.68V270.305L557.15 257.39H549.17V254.03H562.365V257.005L554.14 269.605H562.68V273ZM572.304 254.03V273H567.684V254.03H572.304ZM570.029 246.715C570.706 246.715 571.289 246.89 571.779 247.24C572.269 247.567 572.514 248.162 572.514 249.025C572.514 249.865 572.269 250.472 571.779 250.845C571.289 251.195 570.706 251.37 570.029 251.37C569.306 251.37 568.699 251.195 568.209 250.845C567.719 250.472 567.474 249.865 567.474 249.025C567.474 248.162 567.719 247.567 568.209 247.24C568.699 246.89 569.306 246.715 570.029 246.715ZM588.731 253.68C590.714 253.68 592.278 254.228 593.421 255.325C594.564 256.422 595.136 258.195 595.136 260.645V273H590.481V261.52C590.481 260.097 590.236 259.035 589.746 258.335C589.256 257.612 588.486 257.25 587.436 257.25C585.873 257.25 584.811 257.81 584.251 258.93C583.691 260.027 583.411 261.625 583.411 263.725V273H578.756V254.03H582.326L582.991 256.515H583.166C583.586 255.862 584.076 255.325 584.636 254.905C585.196 254.485 585.826 254.182 586.526 253.995C587.226 253.785 587.961 253.68 588.731 253.68ZM607.469 253.68C608.636 253.68 609.651 253.913 610.514 254.38C611.378 254.847 612.101 255.547 612.684 256.48H612.824L613.244 254.03H617.164V273.14C617.164 274.937 616.838 276.442 616.184 277.655C615.531 278.892 614.551 279.825 613.244 280.455C611.961 281.085 610.328 281.4 608.344 281.4C607.014 281.4 605.801 281.307 604.704 281.12C603.631 280.957 602.604 280.665 601.624 280.245V276.605C602.301 276.908 602.989 277.165 603.689 277.375C604.413 277.608 605.159 277.783 605.929 277.9C606.699 278.017 607.516 278.075 608.379 278.075C609.733 278.075 610.759 277.667 611.459 276.85C612.183 276.033 612.544 274.867 612.544 273.35V272.86C612.544 272.51 612.556 272.102 612.579 271.635C612.626 271.168 612.661 270.795 612.684 270.515H612.544C611.984 271.495 611.284 272.218 610.444 272.685C609.604 273.128 608.589 273.35 607.399 273.35C605.276 273.35 603.596 272.487 602.359 270.76C601.146 269.033 600.539 266.63 600.539 263.55C600.539 261.473 600.819 259.7 601.379 258.23C601.939 256.76 602.733 255.64 603.759 254.87C604.809 254.077 606.046 253.68 607.469 253.68ZM608.869 257.285C608.076 257.285 607.411 257.53 606.874 258.02C606.361 258.487 605.964 259.187 605.684 260.12C605.404 261.053 605.264 262.22 605.264 263.62C605.264 265.673 605.568 267.225 606.174 268.275C606.781 269.325 607.691 269.85 608.904 269.85C609.604 269.85 610.199 269.757 610.689 269.57C611.179 269.36 611.576 269.033 611.879 268.59C612.183 268.123 612.416 267.54 612.579 266.84C612.743 266.117 612.824 265.253 612.824 264.25V263.585C612.824 262.068 612.684 260.855 612.404 259.945C612.148 259.012 611.728 258.335 611.144 257.915C610.561 257.495 609.803 257.285 608.869 257.285ZM446.09 333L440 312.525H439.86C439.883 312.992 439.918 313.657 439.965 314.52C440.012 315.36 440.047 316.282 440.07 317.285C440.117 318.265 440.14 319.187 440.14 320.05V333H435.94V308.01H442.38L448.33 327.645H448.435L454.49 308.01H460.965V333H456.555V319.84C456.555 319.047 456.567 318.183 456.59 317.25C456.613 316.293 456.648 315.395 456.695 314.555C456.742 313.692 456.777 313.027 456.8 312.56H456.66L450.395 333H446.09ZM472.473 314.03V333H467.853V314.03H472.473ZM470.198 306.715C470.875 306.715 471.458 306.89 471.948 307.24C472.438 307.567 472.683 308.162 472.683 309.025C472.683 309.865 472.438 310.472 471.948 310.845C471.458 311.195 470.875 311.37 470.198 311.37C469.475 311.37 468.868 311.195 468.378 310.845C467.888 310.472 467.643 309.865 467.643 309.025C467.643 308.162 467.888 307.567 468.378 307.24C468.868 306.89 469.475 306.715 470.198 306.715ZM484.805 333.35C482.775 333.35 481.13 332.533 479.87 330.9C478.61 329.243 477.98 326.793 477.98 323.55C477.98 320.307 478.622 317.857 479.905 316.2C481.189 314.52 482.869 313.68 484.945 313.68C485.809 313.68 486.555 313.808 487.185 314.065C487.839 314.298 488.399 314.625 488.865 315.045C489.332 315.465 489.74 315.932 490.09 316.445H490.23C490.184 316.118 490.125 315.617 490.055 314.94C489.985 314.263 489.95 313.633 489.95 313.05V306.4H494.605V333H491.035L490.16 330.515H489.95C489.647 331.028 489.262 331.507 488.795 331.95C488.329 332.37 487.769 332.708 487.115 332.965C486.462 333.222 485.692 333.35 484.805 333.35ZM486.345 329.78C487.769 329.78 488.772 329.313 489.355 328.38C489.939 327.447 490.23 326.035 490.23 324.145V323.585C490.23 321.532 489.95 319.968 489.39 318.895C488.83 317.822 487.804 317.285 486.31 317.285C485.144 317.285 484.245 317.845 483.615 318.965C483.009 320.062 482.705 321.613 482.705 323.62C482.705 325.627 483.02 327.155 483.65 328.205C484.28 329.255 485.179 329.78 486.345 329.78ZM511.013 313.68C512.997 313.68 514.56 314.228 515.703 315.325C516.847 316.422 517.418 318.195 517.418 320.645V333H512.763V321.52C512.763 320.097 512.518 319.035 512.028 318.335C511.538 317.612 510.768 317.25 509.718 317.25C508.155 317.25 507.093 317.81 506.533 318.93C505.973 320.027 505.693 321.625 505.693 323.725V333H501.038V314.03H504.608L505.273 316.515H505.448C505.868 315.862 506.358 315.325 506.918 314.905C507.478 314.485 508.108 314.182 508.808 313.995C509.508 313.785 510.243 313.68 511.013 313.68ZM528.421 314.03V333H523.801V314.03H528.421ZM526.146 306.715C526.823 306.715 527.406 306.89 527.896 307.24C528.386 307.567 528.631 308.162 528.631 309.025C528.631 309.865 528.386 310.472 527.896 310.845C527.406 311.195 526.823 311.37 526.146 311.37C525.423 311.37 524.816 311.195 524.326 310.845C523.836 310.472 523.591 309.865 523.591 309.025C523.591 308.162 523.836 307.567 524.326 307.24C524.816 306.89 525.423 306.715 526.146 306.715ZM540.859 313.68C542.025 313.68 543.04 313.913 543.904 314.38C544.767 314.847 545.49 315.547 546.074 316.48H546.214L546.634 314.03H550.554V333.14C550.554 334.937 550.227 336.442 549.574 337.655C548.92 338.892 547.94 339.825 546.634 340.455C545.35 341.085 543.717 341.4 541.734 341.4C540.404 341.4 539.19 341.307 538.094 341.12C537.02 340.957 535.994 340.665 535.014 340.245V336.605C535.69 336.908 536.379 337.165 537.079 337.375C537.802 337.608 538.549 337.783 539.319 337.9C540.089 338.017 540.905 338.075 541.769 338.075C543.122 338.075 544.149 337.667 544.849 336.85C545.572 336.033 545.934 334.867 545.934 333.35V332.86C545.934 332.51 545.945 332.102 545.969 331.635C546.015 331.168 546.05 330.795 546.074 330.515H545.934C545.374 331.495 544.674 332.218 543.834 332.685C542.994 333.128 541.979 333.35 540.789 333.35C538.665 333.35 536.985 332.487 535.749 330.76C534.535 329.033 533.929 326.63 533.929 323.55C533.929 321.473 534.209 319.7 534.769 318.23C535.329 316.76 536.122 315.64 537.149 314.87C538.199 314.077 539.435 313.68 540.859 313.68ZM542.259 317.285C541.465 317.285 540.8 317.53 540.264 318.02C539.75 318.487 539.354 319.187 539.074 320.12C538.794 321.053 538.654 322.22 538.654 323.62C538.654 325.673 538.957 327.225 539.564 328.275C540.17 329.325 541.08 329.85 542.294 329.85C542.994 329.85 543.589 329.757 544.079 329.57C544.569 329.36 544.965 329.033 545.269 328.59C545.572 328.123 545.805 327.54 545.969 326.84C546.132 326.117 546.214 325.253 546.214 324.25V323.585C546.214 322.068 546.074 320.855 545.794 319.945C545.537 319.012 545.117 318.335 544.534 317.915C543.95 317.495 543.192 317.285 542.259 317.285ZM561.641 312.735C561.641 313.482 561.606 314.217 561.536 314.94C561.49 315.64 561.443 316.165 561.396 316.515H561.676C562.05 315.862 562.493 315.337 563.006 314.94C563.543 314.52 564.138 314.205 564.791 313.995C565.468 313.785 566.168 313.68 566.891 313.68C568.221 313.68 569.365 313.925 570.321 314.415C571.278 314.905 572.025 315.663 572.561 316.69C573.098 317.693 573.366 319.012 573.366 320.645V333H568.711V321.52C568.711 320.073 568.466 319 567.976 318.3C567.486 317.6 566.716 317.25 565.666 317.25C564.663 317.25 563.858 317.507 563.251 318.02C562.645 318.51 562.225 319.245 561.991 320.225C561.758 321.182 561.641 322.36 561.641 323.76V333H556.986V306.4H561.641V312.735ZM587.135 329.815C587.648 329.815 588.138 329.768 588.605 329.675C589.095 329.558 589.55 329.43 589.97 329.29V332.58C589.48 332.79 588.885 332.965 588.185 333.105C587.485 333.268 586.703 333.35 585.84 333.35C584.766 333.35 583.81 333.175 582.97 332.825C582.13 332.452 581.465 331.822 580.975 330.935C580.508 330.048 580.275 328.812 580.275 327.225V317.355H577.895V315.43L580.555 313.89L581.955 309.865H584.895V314.03H589.795V317.355H584.895V327.19C584.895 328.077 585.093 328.742 585.49 329.185C585.91 329.605 586.458 329.815 587.135 329.815ZM612.536 308.01C614.636 308.01 616.374 308.22 617.751 308.64C619.127 309.037 620.142 309.69 620.796 310.6C621.472 311.51 621.811 312.735 621.811 314.275C621.811 315.232 621.647 316.095 621.321 316.865C620.994 317.635 620.527 318.265 619.921 318.755C619.337 319.245 618.661 319.572 617.891 319.735V319.91C618.684 320.073 619.431 320.377 620.131 320.82C620.831 321.24 621.391 321.858 621.811 322.675C622.231 323.468 622.441 324.518 622.441 325.825C622.441 327.342 622.091 328.637 621.391 329.71C620.714 330.783 619.734 331.6 618.451 332.16C617.167 332.72 615.639 333 613.866 333H605.186V308.01H612.536ZM612.956 318.195C614.472 318.195 615.522 317.915 616.106 317.355C616.689 316.795 616.981 315.967 616.981 314.87C616.981 313.75 616.631 312.945 615.931 312.455C615.254 311.965 614.169 311.72 612.676 311.72H609.876V318.195H612.956ZM609.876 321.8V329.255H613.306C614.892 329.255 615.989 328.905 616.596 328.205C617.226 327.505 617.541 326.572 617.541 325.405C617.541 324.658 617.401 324.017 617.121 323.48C616.864 322.943 616.421 322.535 615.791 322.255C615.161 321.952 614.286 321.8 613.166 321.8H609.876ZM637.736 313.68C638.062 313.68 638.401 313.692 638.751 313.715C639.101 313.738 639.392 313.785 639.626 313.855L639.206 317.95C638.972 317.903 638.692 317.868 638.366 317.845C638.062 317.798 637.736 317.775 637.386 317.775C636.802 317.775 636.231 317.892 635.671 318.125C635.111 318.335 634.609 318.662 634.166 319.105C633.722 319.525 633.361 320.073 633.081 320.75C632.824 321.427 632.696 322.232 632.696 323.165V333H628.041V314.03H631.611L632.241 317.32H632.486C632.836 316.643 633.267 316.037 633.781 315.5C634.317 314.94 634.912 314.497 635.566 314.17C636.242 313.843 636.966 313.68 637.736 313.68ZM650.875 313.68C652.508 313.68 653.908 314.03 655.075 314.73C656.265 315.407 657.187 316.387 657.84 317.67C658.493 318.93 658.82 320.47 658.82 322.29V324.53H647.2C647.247 326.257 647.667 327.598 648.46 328.555C649.277 329.488 650.42 329.955 651.89 329.955C653.057 329.955 654.095 329.838 655.005 329.605C655.915 329.348 656.86 328.987 657.84 328.52V332.055C656.953 332.498 656.032 332.825 655.075 333.035C654.118 333.245 652.94 333.35 651.54 333.35C649.767 333.35 648.192 333 646.815 332.3C645.462 331.577 644.4 330.492 643.63 329.045C642.86 327.598 642.475 325.802 642.475 323.655C642.475 321.485 642.825 319.665 643.525 318.195C644.225 316.702 645.205 315.582 646.465 314.835C647.748 314.065 649.218 313.68 650.875 313.68ZM650.945 316.935C649.895 316.935 649.043 317.32 648.39 318.09C647.76 318.837 647.387 319.957 647.27 321.45H654.41C654.41 320.563 654.282 319.782 654.025 319.105C653.768 318.428 653.383 317.903 652.87 317.53C652.38 317.133 651.738 316.935 650.945 316.935ZM671.795 313.68C674.082 313.68 675.832 314.217 677.045 315.29C678.258 316.34 678.865 317.997 678.865 320.26V333H675.61L674.7 330.375H674.56C674.047 331.052 673.522 331.623 672.985 332.09C672.448 332.533 671.83 332.848 671.13 333.035C670.43 333.245 669.59 333.35 668.61 333.35C667.56 333.35 666.615 333.14 665.775 332.72C664.935 332.3 664.27 331.658 663.78 330.795C663.29 329.908 663.045 328.8 663.045 327.47C663.045 325.51 663.722 324.04 665.075 323.06C666.428 322.057 668.458 321.508 671.165 321.415L674.21 321.31V320.365C674.21 319.152 673.953 318.288 673.44 317.775C672.927 317.262 672.227 317.005 671.34 317.005C670.5 317.005 669.648 317.145 668.785 317.425C667.945 317.705 667.117 318.032 666.3 318.405L664.865 315.325C665.822 314.835 666.883 314.438 668.05 314.135C669.217 313.832 670.465 313.68 671.795 313.68ZM672.25 324.11C670.593 324.18 669.438 324.518 668.785 325.125C668.132 325.708 667.805 326.502 667.805 327.505C667.805 328.392 668.027 329.033 668.47 329.43C668.937 329.827 669.543 330.025 670.29 330.025C671.387 330.025 672.32 329.663 673.09 328.94C673.86 328.193 674.245 327.097 674.245 325.65V324.04L672.25 324.11ZM689.805 319.035C689.805 319.642 689.782 320.283 689.735 320.96C689.688 321.613 689.63 322.255 689.56 322.885H689.7C689.817 322.605 689.992 322.302 690.225 321.975C690.458 321.625 690.703 321.287 690.96 320.96C691.24 320.61 691.508 320.295 691.765 320.015L696.7 314.03H701.95L695.055 322.22L702.37 333H697.015L691.87 324.88L689.805 326.7V333H685.185V306.4H689.805V319.035ZM716.104 317.355H711.904V333H707.249V317.355H704.519V315.255L707.284 313.995V312.7C707.284 311.067 707.517 309.783 707.984 308.85C708.451 307.917 709.139 307.252 710.049 306.855C710.959 306.435 712.067 306.225 713.374 306.225C714.237 306.225 715.019 306.307 715.719 306.47C716.442 306.61 717.084 306.773 717.644 306.96L716.524 310.25C716.174 310.133 715.777 310.028 715.334 309.935C714.914 309.818 714.471 309.76 714.004 309.76C713.281 309.76 712.744 310.028 712.394 310.565C712.067 311.102 711.904 311.848 711.904 312.805V314.03H716.104V317.355ZM727.914 313.68C730.2 313.68 731.95 314.217 733.164 315.29C734.377 316.34 734.984 317.997 734.984 320.26V333H731.729L730.819 330.375H730.679C730.165 331.052 729.64 331.623 729.104 332.09C728.567 332.533 727.949 332.848 727.249 333.035C726.549 333.245 725.709 333.35 724.729 333.35C723.679 333.35 722.734 333.14 721.894 332.72C721.054 332.3 720.389 331.658 719.899 330.795C719.409 329.908 719.164 328.8 719.164 327.47C719.164 325.51 719.84 324.04 721.194 323.06C722.547 322.057 724.577 321.508 727.284 321.415L730.329 321.31V320.365C730.329 319.152 730.072 318.288 729.559 317.775C729.045 317.262 728.345 317.005 727.459 317.005C726.619 317.005 725.767 317.145 724.904 317.425C724.064 317.705 723.235 318.032 722.419 318.405L720.984 315.325C721.94 314.835 723.002 314.438 724.169 314.135C725.335 313.832 726.584 313.68 727.914 313.68ZM728.369 324.11C726.712 324.18 725.557 324.518 724.904 325.125C724.25 325.708 723.924 326.502 723.924 327.505C723.924 328.392 724.145 329.033 724.589 329.43C725.055 329.827 725.662 330.025 726.409 330.025C727.505 330.025 728.439 329.663 729.209 328.94C729.979 328.193 730.364 327.097 730.364 325.65V324.04L728.369 324.11ZM753.799 327.505C753.799 328.765 753.519 329.838 752.959 330.725C752.399 331.588 751.57 332.242 750.474 332.685C749.377 333.128 748 333.35 746.344 333.35C745.084 333.35 743.987 333.257 743.054 333.07C742.12 332.883 741.222 332.592 740.359 332.195V328.45C741.292 328.893 742.295 329.267 743.369 329.57C744.465 329.873 745.457 330.025 746.344 330.025C747.394 330.025 748.152 329.838 748.619 329.465C749.085 329.092 749.319 328.59 749.319 327.96C749.319 327.587 749.214 327.248 749.004 326.945C748.817 326.642 748.42 326.327 747.814 326C747.23 325.65 746.379 325.218 745.259 324.705C744.162 324.215 743.252 323.725 742.529 323.235C741.805 322.745 741.257 322.162 740.884 321.485C740.51 320.785 740.324 319.91 740.324 318.86C740.324 317.157 740.965 315.873 742.249 315.01C743.555 314.123 745.259 313.68 747.359 313.68C748.502 313.68 749.564 313.797 750.544 314.03C751.547 314.24 752.55 314.59 753.554 315.08L752.189 318.335C751.629 318.078 751.057 317.857 750.474 317.67C749.914 317.46 749.365 317.297 748.829 317.18C748.315 317.063 747.802 317.005 747.289 317.005C746.472 317.005 745.854 317.157 745.434 317.46C745.014 317.74 744.804 318.148 744.804 318.685C744.804 319.058 744.909 319.397 745.119 319.7C745.329 319.98 745.725 320.272 746.309 320.575C746.892 320.878 747.72 321.263 748.794 321.73C749.867 322.15 750.777 322.605 751.524 323.095C752.27 323.562 752.83 324.145 753.204 324.845C753.6 325.545 753.799 326.432 753.799 327.505ZM766.496 329.815C767.009 329.815 767.499 329.768 767.966 329.675C768.456 329.558 768.911 329.43 769.331 329.29V332.58C768.841 332.79 768.246 332.965 767.546 333.105C766.846 333.268 766.064 333.35 765.201 333.35C764.128 333.35 763.171 333.175 762.331 332.825C761.491 332.452 760.826 331.822 760.336 330.935C759.869 330.048 759.636 328.812 759.636 327.225V317.355H757.256V315.43L759.916 313.89L761.316 309.865H764.256V314.03H769.156V317.355H764.256V327.19C764.256 328.077 764.454 328.742 764.851 329.185C765.271 329.605 765.819 329.815 766.496 329.815Z" fill="#FEF8EB"/>
<path d="M117.891 82.36C117.891 80.9133 117.984 79.49 118.171 78.09C118.381 76.69 118.719 75.3717 119.186 74.135C119.676 72.875 120.352 71.7667 121.216 70.81C122.102 69.83 123.222 69.0717 124.576 68.535C125.929 67.975 127.562 67.695 129.476 67.695C129.942 67.695 130.479 67.7183 131.086 67.765C131.692 67.8117 132.194 67.8817 132.591 67.975V71.615C132.171 71.475 131.704 71.3817 131.191 71.335C130.677 71.265 130.129 71.23 129.546 71.23C128.169 71.23 127.014 71.4517 126.081 71.895C125.171 72.315 124.436 72.9217 123.876 73.715C123.339 74.5083 122.942 75.43 122.686 76.48C122.429 77.5067 122.277 78.65 122.231 79.91H122.406C122.732 79.35 123.117 78.8483 123.561 78.405C124.027 77.9617 124.587 77.6117 125.241 77.355C125.917 77.0983 126.687 76.97 127.551 76.97C128.927 76.97 130.117 77.285 131.121 77.915C132.124 78.5217 132.894 79.4083 133.431 80.575C133.967 81.7183 134.236 83.1183 134.236 84.775C134.236 86.5483 133.909 88.0767 133.256 89.36C132.626 90.6433 131.727 91.635 130.561 92.335C129.394 93.0117 127.994 93.35 126.361 93.35C125.171 93.35 124.062 93.1283 123.036 92.685C122.009 92.2417 121.111 91.5767 120.341 90.69C119.571 89.78 118.964 88.6367 118.521 87.26C118.101 85.86 117.891 84.2267 117.891 82.36ZM126.256 89.745C127.282 89.745 128.111 89.3483 128.741 88.555C129.371 87.7383 129.686 86.49 129.686 84.81C129.686 83.4567 129.406 82.395 128.846 81.625C128.286 80.8317 127.457 80.435 126.361 80.435C125.567 80.435 124.891 80.6333 124.331 81.03C123.771 81.4033 123.327 81.8933 123.001 82.5C122.697 83.0833 122.546 83.69 122.546 84.32C122.546 84.9733 122.616 85.615 122.756 86.245C122.919 86.875 123.152 87.4583 123.456 87.995C123.782 88.5317 124.179 88.9633 124.646 89.29C125.112 89.5933 125.649 89.745 126.256 89.745ZM138.786 90.76C138.786 89.78 139.043 89.0917 139.556 88.695C140.093 88.275 140.734 88.065 141.481 88.065C142.228 88.065 142.858 88.2633 143.371 88.66C143.908 89.0567 144.176 89.7567 144.176 90.76C144.176 91.7167 143.908 92.405 143.371 92.825C142.858 93.245 142.228 93.455 141.481 93.455C140.734 93.455 140.093 93.245 139.556 92.825C139.043 92.405 138.786 91.7167 138.786 90.76ZM138.786 76.34C138.786 75.3367 139.043 74.6367 139.556 74.24C140.093 73.82 140.734 73.61 141.481 73.61C142.228 73.61 142.858 73.8083 143.371 74.205C143.908 74.6017 144.176 75.3133 144.176 76.34C144.176 77.2967 143.908 77.985 143.371 78.405C142.858 78.825 142.228 79.035 141.481 79.035C140.734 79.035 140.093 78.825 139.556 78.405C139.043 77.985 138.786 77.2967 138.786 76.34ZM165.095 80.47C165.095 82.5 164.955 84.3083 164.675 85.895C164.395 87.4817 163.916 88.835 163.24 89.955C162.586 91.0517 161.735 91.8917 160.685 92.475C159.658 93.0583 158.398 93.35 156.905 93.35C155.061 93.35 153.533 92.8367 152.32 91.81C151.13 90.7833 150.243 89.3133 149.66 87.4C149.1 85.4633 148.82 83.1533 148.82 80.47C148.82 77.7867 149.076 75.4883 149.59 73.575C150.126 71.6617 150.99 70.1917 152.18 69.165C153.37 68.1383 154.956 67.625 156.94 67.625C158.806 67.625 160.335 68.1383 161.525 69.165C162.738 70.1683 163.636 71.6383 164.22 73.575C164.803 75.4883 165.095 77.7867 165.095 80.47ZM153.475 80.505C153.475 82.535 153.58 84.2383 153.79 85.615C154 86.9683 154.361 87.995 154.875 88.695C155.388 89.3717 156.076 89.71 156.94 89.71C157.803 89.71 158.48 89.3717 158.97 88.695C159.483 88.0183 159.856 86.9917 160.09 85.615C160.323 84.2383 160.44 82.535 160.44 80.505C160.44 78.4517 160.323 76.7483 160.09 75.395C159.856 74.0183 159.483 72.9917 158.97 72.315C158.48 71.615 157.803 71.265 156.94 71.265C156.076 71.265 155.388 71.615 154.875 72.315C154.361 72.9917 154 74.0067 153.79 75.36C153.58 76.7133 153.475 78.4283 153.475 80.505ZM185.43 80.47C185.43 82.5 185.29 84.3083 185.01 85.895C184.73 87.4817 184.252 88.835 183.575 89.955C182.922 91.0517 182.07 91.8917 181.02 92.475C179.994 93.0583 178.734 93.35 177.24 93.35C175.397 93.35 173.869 92.8367 172.655 91.81C171.465 90.7833 170.579 89.3133 169.995 87.4C169.435 85.4633 169.155 83.1533 169.155 80.47C169.155 77.7867 169.412 75.4883 169.925 73.575C170.462 71.6617 171.325 70.1917 172.515 69.165C173.705 68.1383 175.292 67.625 177.275 67.625C179.142 67.625 180.67 68.1383 181.86 69.165C183.074 70.1683 183.972 71.6383 184.555 73.575C185.139 75.4883 185.43 77.7867 185.43 80.47ZM173.81 80.505C173.81 82.535 173.915 84.2383 174.125 85.615C174.335 86.9683 174.697 87.995 175.21 88.695C175.724 89.3717 176.412 89.71 177.275 89.71C178.139 89.71 178.815 89.3717 179.305 88.695C179.819 88.0183 180.192 86.9917 180.425 85.615C180.659 84.2383 180.775 82.535 180.775 80.505C180.775 78.4517 180.659 76.7483 180.425 75.395C180.192 74.0183 179.819 72.9917 179.305 72.315C178.815 71.615 178.139 71.265 177.275 71.265C176.412 71.265 175.724 71.615 175.21 72.315C174.697 72.9917 174.335 74.0067 174.125 75.36C173.915 76.7133 173.81 78.4283 173.81 80.505ZM189.176 85.475V81.765H197.716V85.475H189.176ZM203.972 93L212.862 71.825H201.312V68.01H217.832V70.985L208.907 93H203.972ZM222.383 90.76C222.383 89.78 222.639 89.0917 223.153 88.695C223.689 88.275 224.331 88.065 225.078 88.065C225.824 88.065 226.454 88.2633 226.968 88.66C227.504 89.0567 227.773 89.7567 227.773 90.76C227.773 91.7167 227.504 92.405 226.968 92.825C226.454 93.245 225.824 93.455 225.078 93.455C224.331 93.455 223.689 93.245 223.153 92.825C222.639 92.405 222.383 91.7167 222.383 90.76ZM222.383 76.34C222.383 75.3367 222.639 74.6367 223.153 74.24C223.689 73.82 224.331 73.61 225.078 73.61C225.824 73.61 226.454 73.8083 226.968 74.205C227.504 74.6017 227.773 75.3133 227.773 76.34C227.773 77.2967 227.504 77.985 226.968 78.405C226.454 78.825 225.824 79.035 225.078 79.035C224.331 79.035 223.689 78.825 223.153 78.405C222.639 77.985 222.383 77.2967 222.383 76.34ZM248.691 80.47C248.691 82.5 248.551 84.3083 248.271 85.895C247.991 87.4817 247.513 88.835 246.836 89.955C246.183 91.0517 245.331 91.8917 244.281 92.475C243.255 93.0583 241.995 93.35 240.501 93.35C238.658 93.35 237.13 92.8367 235.916 91.81C234.726 90.7833 233.84 89.3133 233.256 87.4C232.696 85.4633 232.416 83.1533 232.416 80.47C232.416 77.7867 232.673 75.4883 233.186 73.575C233.723 71.6617 234.586 70.1917 235.776 69.165C236.966 68.1383 238.553 67.625 240.536 67.625C242.403 67.625 243.931 68.1383 245.121 69.165C246.335 70.1683 247.233 71.6383 247.816 73.575C248.4 75.4883 248.691 77.7867 248.691 80.47ZM237.071 80.505C237.071 82.535 237.176 84.2383 237.386 85.615C237.596 86.9683 237.958 87.995 238.471 88.695C238.985 89.3717 239.673 89.71 240.536 89.71C241.4 89.71 242.076 89.3717 242.566 88.695C243.08 88.0183 243.453 86.9917 243.686 85.615C243.92 84.2383 244.036 82.535 244.036 80.505C244.036 78.4517 243.92 76.7483 243.686 75.395C243.453 74.0183 243.08 72.9917 242.566 72.315C242.076 71.615 241.4 71.265 240.536 71.265C239.673 71.265 238.985 71.615 238.471 72.315C237.958 72.9917 237.596 74.0067 237.386 75.36C237.176 76.7133 237.071 78.4283 237.071 80.505ZM269.027 80.47C269.027 82.5 268.887 84.3083 268.607 85.895C268.327 87.4817 267.849 88.835 267.172 89.955C266.519 91.0517 265.667 91.8917 264.617 92.475C263.59 93.0583 262.33 93.35 260.837 93.35C258.994 93.35 257.465 92.8367 256.252 91.81C255.062 90.7833 254.175 89.3133 253.592 87.4C253.032 85.4633 252.752 83.1533 252.752 80.47C252.752 77.7867 253.009 75.4883 253.522 73.575C254.059 71.6617 254.922 70.1917 256.112 69.165C257.302 68.1383 258.889 67.625 260.872 67.625C262.739 67.625 264.267 68.1383 265.457 69.165C266.67 70.1683 267.569 71.6383 268.152 73.575C268.735 75.4883 269.027 77.7867 269.027 80.47ZM257.407 80.505C257.407 82.535 257.512 84.2383 257.722 85.615C257.932 86.9683 258.294 87.995 258.807 88.695C259.32 89.3717 260.009 89.71 260.872 89.71C261.735 89.71 262.412 89.3717 262.902 88.695C263.415 88.0183 263.789 86.9917 264.022 85.615C264.255 84.2383 264.372 82.535 264.372 80.505C264.372 78.4517 264.255 76.7483 264.022 75.395C263.789 74.0183 263.415 72.9917 262.902 72.315C262.412 71.615 261.735 71.265 260.872 71.265C260.009 71.265 259.32 71.615 258.807 72.315C258.294 72.9917 257.932 74.0067 257.722 75.36C257.512 76.7133 257.407 78.4283 257.407 80.505ZM291.852 68.01C294.886 68.01 297.114 68.6867 298.537 70.04C299.961 71.3933 300.672 73.26 300.672 75.64C300.672 76.7133 300.521 77.74 300.217 78.72C299.914 79.6767 299.401 80.54 298.677 81.31C297.977 82.08 297.044 82.6867 295.877 83.13C294.711 83.5733 293.276 83.795 291.572 83.795H289.332V93H284.642V68.01H291.852ZM291.677 71.72H289.332V80.085H291.082C292.109 80.085 292.984 79.945 293.707 79.665C294.431 79.3617 294.979 78.895 295.352 78.265C295.749 77.635 295.947 76.8183 295.947 75.815C295.947 74.4383 295.597 73.4117 294.897 72.735C294.197 72.0583 293.124 71.72 291.677 71.72ZM316.666 93L310.576 72.525H310.436C310.459 72.9917 310.494 73.6567 310.541 74.52C310.588 75.36 310.623 76.2817 310.646 77.285C310.693 78.265 310.716 79.1867 310.716 80.05V93H306.516V68.01H312.956L318.906 87.645H319.011L325.066 68.01H331.541V93H327.131V79.84C327.131 79.0467 327.143 78.1833 327.166 77.25C327.189 76.2933 327.224 75.395 327.271 74.555C327.318 73.6917 327.353 73.0267 327.376 72.56H327.236L320.971 93H316.666ZM120.376 153L129.266 131.825H117.716V128.01H134.236V130.985L125.311 153H120.376ZM138.786 150.76C138.786 149.78 139.043 149.092 139.556 148.695C140.093 148.275 140.734 148.065 141.481 148.065C142.228 148.065 142.858 148.263 143.371 148.66C143.908 149.057 144.176 149.757 144.176 150.76C144.176 151.717 143.908 152.405 143.371 152.825C142.858 153.245 142.228 153.455 141.481 153.455C140.734 153.455 140.093 153.245 139.556 152.825C139.043 152.405 138.786 151.717 138.786 150.76ZM138.786 136.34C138.786 135.337 139.043 134.637 139.556 134.24C140.093 133.82 140.734 133.61 141.481 133.61C142.228 133.61 142.858 133.808 143.371 134.205C143.908 134.602 144.176 135.313 144.176 136.34C144.176 137.297 143.908 137.985 143.371 138.405C142.858 138.825 142.228 139.035 141.481 139.035C140.734 139.035 140.093 138.825 139.556 138.405C139.043 137.985 138.786 137.297 138.786 136.34ZM165.095 140.47C165.095 142.5 164.955 144.308 164.675 145.895C164.395 147.482 163.916 148.835 163.24 149.955C162.586 151.052 161.735 151.892 160.685 152.475C159.658 153.058 158.398 153.35 156.905 153.35C155.061 153.35 153.533 152.837 152.32 151.81C151.13 150.783 150.243 149.313 149.66 147.4C149.1 145.463 148.82 143.153 148.82 140.47C148.82 137.787 149.076 135.488 149.59 133.575C150.126 131.662 150.99 130.192 152.18 129.165C153.37 128.138 154.956 127.625 156.94 127.625C158.806 127.625 160.335 128.138 161.525 129.165C162.738 130.168 163.636 131.638 164.22 133.575C164.803 135.488 165.095 137.787 165.095 140.47ZM153.475 140.505C153.475 142.535 153.58 144.238 153.79 145.615C154 146.968 154.361 147.995 154.875 148.695C155.388 149.372 156.076 149.71 156.94 149.71C157.803 149.71 158.48 149.372 158.97 148.695C159.483 148.018 159.856 146.992 160.09 145.615C160.323 144.238 160.44 142.535 160.44 140.505C160.44 138.452 160.323 136.748 160.09 135.395C159.856 134.018 159.483 132.992 158.97 132.315C158.48 131.615 157.803 131.265 156.94 131.265C156.076 131.265 155.388 131.615 154.875 132.315C154.361 132.992 154 134.007 153.79 135.36C153.58 136.713 153.475 138.428 153.475 140.505ZM185.43 140.47C185.43 142.5 185.29 144.308 185.01 145.895C184.73 147.482 184.252 148.835 183.575 149.955C182.922 151.052 182.07 151.892 181.02 152.475C179.994 153.058 178.734 153.35 177.24 153.35C175.397 153.35 173.869 152.837 172.655 151.81C171.465 150.783 170.579 149.313 169.995 147.4C169.435 145.463 169.155 143.153 169.155 140.47C169.155 137.787 169.412 135.488 169.925 133.575C170.462 131.662 171.325 130.192 172.515 129.165C173.705 128.138 175.292 127.625 177.275 127.625C179.142 127.625 180.67 128.138 181.86 129.165C183.074 130.168 183.972 131.638 184.555 133.575C185.139 135.488 185.43 137.787 185.43 140.47ZM173.81 140.505C173.81 142.535 173.915 144.238 174.125 145.615C174.335 146.968 174.697 147.995 175.21 148.695C175.724 149.372 176.412 149.71 177.275 149.71C178.139 149.71 178.815 149.372 179.305 148.695C179.819 148.018 180.192 146.992 180.425 145.615C180.659 144.238 180.775 142.535 180.775 140.505C180.775 138.452 180.659 136.748 180.425 135.395C180.192 134.018 179.819 132.992 179.305 132.315C178.815 131.615 178.139 131.265 177.275 131.265C176.412 131.265 175.724 131.615 175.21 132.315C174.697 132.992 174.335 134.007 174.125 135.36C173.915 136.713 173.81 138.428 173.81 140.505ZM189.176 145.475V141.765H197.716V145.475H189.176ZM217.762 138.685C217.762 140.178 217.646 141.648 217.412 143.095C217.202 144.518 216.841 145.848 216.327 147.085C215.814 148.322 215.114 149.418 214.227 150.375C213.364 151.308 212.256 152.043 210.902 152.58C209.572 153.093 207.974 153.35 206.107 153.35C205.641 153.35 205.104 153.327 204.497 153.28C203.891 153.233 203.377 153.163 202.957 153.07V149.43C203.377 149.547 203.832 149.64 204.322 149.71C204.836 149.78 205.326 149.815 205.792 149.815C207.262 149.815 208.476 149.605 209.432 149.185C210.389 148.742 211.147 148.135 211.707 147.365C212.291 146.572 212.699 145.65 212.932 144.6C213.189 143.527 213.341 142.383 213.387 141.17H213.177C212.874 141.707 212.501 142.197 212.057 142.64C211.614 143.083 211.066 143.433 210.412 143.69C209.759 143.947 208.931 144.075 207.927 144.075C206.597 144.075 205.442 143.772 204.462 143.165C203.506 142.558 202.759 141.683 202.222 140.54C201.686 139.373 201.417 137.962 201.417 136.305C201.417 134.508 201.732 132.968 202.362 131.685C203.016 130.378 203.926 129.387 205.092 128.71C206.259 128.01 207.659 127.66 209.292 127.66C210.482 127.66 211.591 127.893 212.617 128.36C213.644 128.803 214.542 129.48 215.312 130.39C216.082 131.277 216.677 132.42 217.097 133.82C217.541 135.197 217.762 136.818 217.762 138.685ZM209.362 131.265C208.359 131.265 207.531 131.673 206.877 132.49C206.247 133.307 205.932 134.555 205.932 136.235C205.932 137.588 206.201 138.662 206.737 139.455C207.297 140.225 208.126 140.61 209.222 140.61C210.016 140.61 210.692 140.423 211.252 140.05C211.836 139.653 212.279 139.163 212.582 138.58C212.909 137.997 213.072 137.378 213.072 136.725C213.072 136.048 212.991 135.383 212.827 134.73C212.687 134.077 212.466 133.493 212.162 132.98C211.859 132.467 211.462 132.058 210.972 131.755C210.506 131.428 209.969 131.265 209.362 131.265ZM222.383 150.76C222.383 149.78 222.639 149.092 223.153 148.695C223.689 148.275 224.331 148.065 225.078 148.065C225.824 148.065 226.454 148.263 226.968 148.66C227.504 149.057 227.773 149.757 227.773 150.76C227.773 151.717 227.504 152.405 226.968 152.825C226.454 153.245 225.824 153.455 225.078 153.455C224.331 153.455 223.689 153.245 223.153 152.825C222.639 152.405 222.383 151.717 222.383 150.76ZM222.383 136.34C222.383 135.337 222.639 134.637 223.153 134.24C223.689 133.82 224.331 133.61 225.078 133.61C225.824 133.61 226.454 133.808 226.968 134.205C227.504 134.602 227.773 135.313 227.773 136.34C227.773 137.297 227.504 137.985 226.968 138.405C226.454 138.825 225.824 139.035 225.078 139.035C224.331 139.035 223.689 138.825 223.153 138.405C222.639 137.985 222.383 137.297 222.383 136.34ZM248.691 140.47C248.691 142.5 248.551 144.308 248.271 145.895C247.991 147.482 247.513 148.835 246.836 149.955C246.183 151.052 245.331 151.892 244.281 152.475C243.255 153.058 241.995 153.35 240.501 153.35C238.658 153.35 237.13 152.837 235.916 151.81C234.726 150.783 233.84 149.313 233.256 147.4C232.696 145.463 232.416 143.153 232.416 140.47C232.416 137.787 232.673 135.488 233.186 133.575C233.723 131.662 234.586 130.192 235.776 129.165C236.966 128.138 238.553 127.625 240.536 127.625C242.403 127.625 243.931 128.138 245.121 129.165C246.335 130.168 247.233 131.638 247.816 133.575C248.4 135.488 248.691 137.787 248.691 140.47ZM237.071 140.505C237.071 142.535 237.176 144.238 237.386 145.615C237.596 146.968 237.958 147.995 238.471 148.695C238.985 149.372 239.673 149.71 240.536 149.71C241.4 149.71 242.076 149.372 242.566 148.695C243.08 148.018 243.453 146.992 243.686 145.615C243.92 144.238 244.036 142.535 244.036 140.505C244.036 138.452 243.92 136.748 243.686 135.395C243.453 134.018 243.08 132.992 242.566 132.315C242.076 131.615 241.4 131.265 240.536 131.265C239.673 131.265 238.985 131.615 238.471 132.315C237.958 132.992 237.596 134.007 237.386 135.36C237.176 136.713 237.071 138.428 237.071 140.505ZM269.027 140.47C269.027 142.5 268.887 144.308 268.607 145.895C268.327 147.482 267.849 148.835 267.172 149.955C266.519 151.052 265.667 151.892 264.617 152.475C263.59 153.058 262.33 153.35 260.837 153.35C258.994 153.35 257.465 152.837 256.252 151.81C255.062 150.783 254.175 149.313 253.592 147.4C253.032 145.463 252.752 143.153 252.752 140.47C252.752 137.787 253.009 135.488 253.522 133.575C254.059 131.662 254.922 130.192 256.112 129.165C257.302 128.138 258.889 127.625 260.872 127.625C262.739 127.625 264.267 128.138 265.457 129.165C266.67 130.168 267.569 131.638 268.152 133.575C268.735 135.488 269.027 137.787 269.027 140.47ZM257.407 140.505C257.407 142.535 257.512 144.238 257.722 145.615C257.932 146.968 258.294 147.995 258.807 148.695C259.32 149.372 260.009 149.71 260.872 149.71C261.735 149.71 262.412 149.372 262.902 148.695C263.415 148.018 263.789 146.992 264.022 145.615C264.255 144.238 264.372 142.535 264.372 140.505C264.372 138.452 264.255 136.748 264.022 135.395C263.789 134.018 263.415 132.992 262.902 132.315C262.412 131.615 261.735 131.265 260.872 131.265C260.009 131.265 259.32 131.615 258.807 132.315C258.294 132.992 257.932 134.007 257.722 135.36C257.512 136.713 257.407 138.428 257.407 140.505ZM291.852 128.01C294.886 128.01 297.114 128.687 298.537 130.04C299.961 131.393 300.672 133.26 300.672 135.64C300.672 136.713 300.521 137.74 300.217 138.72C299.914 139.677 299.401 140.54 298.677 141.31C297.977 142.08 297.044 142.687 295.877 143.13C294.711 143.573 293.276 143.795 291.572 143.795H289.332V153H284.642V128.01H291.852ZM291.677 131.72H289.332V140.085H291.082C292.109 140.085 292.984 139.945 293.707 139.665C294.431 139.362 294.979 138.895 295.352 138.265C295.749 137.635 295.947 136.818 295.947 135.815C295.947 134.438 295.597 133.412 294.897 132.735C294.197 132.058 293.124 131.72 291.677 131.72ZM316.666 153L310.576 132.525H310.436C310.459 132.992 310.494 133.657 310.541 134.52C310.588 135.36 310.623 136.282 310.646 137.285C310.693 138.265 310.716 139.187 310.716 140.05V153H306.516V128.01H312.956L318.906 147.645H319.011L325.066 128.01H331.541V153H327.131V139.84C327.131 139.047 327.143 138.183 327.166 137.25C327.189 136.293 327.224 135.395 327.271 134.555C327.318 133.692 327.353 133.027 327.376 132.56H327.236L320.971 153H316.666ZM120.376 213L129.266 191.825H117.716V188.01H134.236V190.985L125.311 213H120.376ZM138.786 210.76C138.786 209.78 139.043 209.092 139.556 208.695C140.093 208.275 140.734 208.065 141.481 208.065C142.228 208.065 142.858 208.263 143.371 208.66C143.908 209.057 144.176 209.757 144.176 210.76C144.176 211.717 143.908 212.405 143.371 212.825C142.858 213.245 142.228 213.455 141.481 213.455C140.734 213.455 140.093 213.245 139.556 212.825C139.043 212.405 138.786 211.717 138.786 210.76ZM138.786 196.34C138.786 195.337 139.043 194.637 139.556 194.24C140.093 193.82 140.734 193.61 141.481 193.61C142.228 193.61 142.858 193.808 143.371 194.205C143.908 194.602 144.176 195.313 144.176 196.34C144.176 197.297 143.908 197.985 143.371 198.405C142.858 198.825 142.228 199.035 141.481 199.035C140.734 199.035 140.093 198.825 139.556 198.405C139.043 197.985 138.786 197.297 138.786 196.34ZM165.095 200.47C165.095 202.5 164.955 204.308 164.675 205.895C164.395 207.482 163.916 208.835 163.24 209.955C162.586 211.052 161.735 211.892 160.685 212.475C159.658 213.058 158.398 213.35 156.905 213.35C155.061 213.35 153.533 212.837 152.32 211.81C151.13 210.783 150.243 209.313 149.66 207.4C149.1 205.463 148.82 203.153 148.82 200.47C148.82 197.787 149.076 195.488 149.59 193.575C150.126 191.662 150.99 190.192 152.18 189.165C153.37 188.138 154.956 187.625 156.94 187.625C158.806 187.625 160.335 188.138 161.525 189.165C162.738 190.168 163.636 191.638 164.22 193.575C164.803 195.488 165.095 197.787 165.095 200.47ZM153.475 200.505C153.475 202.535 153.58 204.238 153.79 205.615C154 206.968 154.361 207.995 154.875 208.695C155.388 209.372 156.076 209.71 156.94 209.71C157.803 209.71 158.48 209.372 158.97 208.695C159.483 208.018 159.856 206.992 160.09 205.615C160.323 204.238 160.44 202.535 160.44 200.505C160.44 198.452 160.323 196.748 160.09 195.395C159.856 194.018 159.483 192.992 158.97 192.315C158.48 191.615 157.803 191.265 156.94 191.265C156.076 191.265 155.388 191.615 154.875 192.315C154.361 192.992 154 194.007 153.79 195.36C153.58 196.713 153.475 198.428 153.475 200.505ZM185.43 200.47C185.43 202.5 185.29 204.308 185.01 205.895C184.73 207.482 184.252 208.835 183.575 209.955C182.922 211.052 182.07 211.892 181.02 212.475C179.994 213.058 178.734 213.35 177.24 213.35C175.397 213.35 173.869 212.837 172.655 211.81C171.465 210.783 170.579 209.313 169.995 207.4C169.435 205.463 169.155 203.153 169.155 200.47C169.155 197.787 169.412 195.488 169.925 193.575C170.462 191.662 171.325 190.192 172.515 189.165C173.705 188.138 175.292 187.625 177.275 187.625C179.142 187.625 180.67 188.138 181.86 189.165C183.074 190.168 183.972 191.638 184.555 193.575C185.139 195.488 185.43 197.787 185.43 200.47ZM173.81 200.505C173.81 202.535 173.915 204.238 174.125 205.615C174.335 206.968 174.697 207.995 175.21 208.695C175.724 209.372 176.412 209.71 177.275 209.71C178.139 209.71 178.815 209.372 179.305 208.695C179.819 208.018 180.192 206.992 180.425 205.615C180.659 204.238 180.775 202.535 180.775 200.505C180.775 198.452 180.659 196.748 180.425 195.395C180.192 194.018 179.819 192.992 179.305 192.315C178.815 191.615 178.139 191.265 177.275 191.265C176.412 191.265 175.724 191.615 175.21 192.315C174.697 192.992 174.335 194.007 174.125 195.36C173.915 196.713 173.81 198.428 173.81 200.505ZM189.176 205.475V201.765H197.716V205.475H189.176ZM217.762 198.685C217.762 200.178 217.646 201.648 217.412 203.095C217.202 204.518 216.841 205.848 216.327 207.085C215.814 208.322 215.114 209.418 214.227 210.375C213.364 211.308 212.256 212.043 210.902 212.58C209.572 213.093 207.974 213.35 206.107 213.35C205.641 213.35 205.104 213.327 204.497 213.28C203.891 213.233 203.377 213.163 202.957 213.07V209.43C203.377 209.547 203.832 209.64 204.322 209.71C204.836 209.78 205.326 209.815 205.792 209.815C207.262 209.815 208.476 209.605 209.432 209.185C210.389 208.742 211.147 208.135 211.707 207.365C212.291 206.572 212.699 205.65 212.932 204.6C213.189 203.527 213.341 202.383 213.387 201.17H213.177C212.874 201.707 212.501 202.197 212.057 202.64C211.614 203.083 211.066 203.433 210.412 203.69C209.759 203.947 208.931 204.075 207.927 204.075C206.597 204.075 205.442 203.772 204.462 203.165C203.506 202.558 202.759 201.683 202.222 200.54C201.686 199.373 201.417 197.962 201.417 196.305C201.417 194.508 201.732 192.968 202.362 191.685C203.016 190.378 203.926 189.387 205.092 188.71C206.259 188.01 207.659 187.66 209.292 187.66C210.482 187.66 211.591 187.893 212.617 188.36C213.644 188.803 214.542 189.48 215.312 190.39C216.082 191.277 216.677 192.42 217.097 193.82C217.541 195.197 217.762 196.818 217.762 198.685ZM209.362 191.265C208.359 191.265 207.531 191.673 206.877 192.49C206.247 193.307 205.932 194.555 205.932 196.235C205.932 197.588 206.201 198.662 206.737 199.455C207.297 200.225 208.126 200.61 209.222 200.61C210.016 200.61 210.692 200.423 211.252 200.05C211.836 199.653 212.279 199.163 212.582 198.58C212.909 197.997 213.072 197.378 213.072 196.725C213.072 196.048 212.991 195.383 212.827 194.73C212.687 194.077 212.466 193.493 212.162 192.98C211.859 192.467 211.462 192.058 210.972 191.755C210.506 191.428 209.969 191.265 209.362 191.265ZM222.383 210.76C222.383 209.78 222.639 209.092 223.153 208.695C223.689 208.275 224.331 208.065 225.078 208.065C225.824 208.065 226.454 208.263 226.968 208.66C227.504 209.057 227.773 209.757 227.773 210.76C227.773 211.717 227.504 212.405 226.968 212.825C226.454 213.245 225.824 213.455 225.078 213.455C224.331 213.455 223.689 213.245 223.153 212.825C222.639 212.405 222.383 211.717 222.383 210.76ZM222.383 196.34C222.383 195.337 222.639 194.637 223.153 194.24C223.689 193.82 224.331 193.61 225.078 193.61C225.824 193.61 226.454 193.808 226.968 194.205C227.504 194.602 227.773 195.313 227.773 196.34C227.773 197.297 227.504 197.985 226.968 198.405C226.454 198.825 225.824 199.035 225.078 199.035C224.331 199.035 223.689 198.825 223.153 198.405C222.639 197.985 222.383 197.297 222.383 196.34ZM248.691 200.47C248.691 202.5 248.551 204.308 248.271 205.895C247.991 207.482 247.513 208.835 246.836 209.955C246.183 211.052 245.331 211.892 244.281 212.475C243.255 213.058 241.995 213.35 240.501 213.35C238.658 213.35 237.13 212.837 235.916 211.81C234.726 210.783 233.84 209.313 233.256 207.4C232.696 205.463 232.416 203.153 232.416 200.47C232.416 197.787 232.673 195.488 233.186 193.575C233.723 191.662 234.586 190.192 235.776 189.165C236.966 188.138 238.553 187.625 240.536 187.625C242.403 187.625 243.931 188.138 245.121 189.165C246.335 190.168 247.233 191.638 247.816 193.575C248.4 195.488 248.691 197.787 248.691 200.47ZM237.071 200.505C237.071 202.535 237.176 204.238 237.386 205.615C237.596 206.968 237.958 207.995 238.471 208.695C238.985 209.372 239.673 209.71 240.536 209.71C241.4 209.71 242.076 209.372 242.566 208.695C243.08 208.018 243.453 206.992 243.686 205.615C243.92 204.238 244.036 202.535 244.036 200.505C244.036 198.452 243.92 196.748 243.686 195.395C243.453 194.018 243.08 192.992 242.566 192.315C242.076 191.615 241.4 191.265 240.536 191.265C239.673 191.265 238.985 191.615 238.471 192.315C237.958 192.992 237.596 194.007 237.386 195.36C237.176 196.713 237.071 198.428 237.071 200.505ZM269.027 200.47C269.027 202.5 268.887 204.308 268.607 205.895C268.327 207.482 267.849 208.835 267.172 209.955C266.519 211.052 265.667 211.892 264.617 212.475C263.59 213.058 262.33 213.35 260.837 213.35C258.994 213.35 257.465 212.837 256.252 211.81C255.062 210.783 254.175 209.313 253.592 207.4C253.032 205.463 252.752 203.153 252.752 200.47C252.752 197.787 253.009 195.488 253.522 193.575C254.059 191.662 254.922 190.192 256.112 189.165C257.302 188.138 258.889 187.625 260.872 187.625C262.739 187.625 264.267 188.138 265.457 189.165C266.67 190.168 267.569 191.638 268.152 193.575C268.735 195.488 269.027 197.787 269.027 200.47ZM257.407 200.505C257.407 202.535 257.512 204.238 257.722 205.615C257.932 206.968 258.294 207.995 258.807 208.695C259.32 209.372 260.009 209.71 260.872 209.71C261.735 209.71 262.412 209.372 262.902 208.695C263.415 208.018 263.789 206.992 264.022 205.615C264.255 204.238 264.372 202.535 264.372 200.505C264.372 198.452 264.255 196.748 264.022 195.395C263.789 194.018 263.415 192.992 262.902 192.315C262.412 191.615 261.735 191.265 260.872 191.265C260.009 191.265 259.32 191.615 258.807 192.315C258.294 192.992 257.932 194.007 257.722 195.36C257.512 196.713 257.407 198.428 257.407 200.505ZM291.852 188.01C294.886 188.01 297.114 188.687 298.537 190.04C299.961 191.393 300.672 193.26 300.672 195.64C300.672 196.713 300.521 197.74 300.217 198.72C299.914 199.677 299.401 200.54 298.677 201.31C297.977 202.08 297.044 202.687 295.877 203.13C294.711 203.573 293.276 203.795 291.572 203.795H289.332V213H284.642V188.01H291.852ZM291.677 191.72H289.332V200.085H291.082C292.109 200.085 292.984 199.945 293.707 199.665C294.431 199.362 294.979 198.895 295.352 198.265C295.749 197.635 295.947 196.818 295.947 195.815C295.947 194.438 295.597 193.412 294.897 192.735C294.197 192.058 293.124 191.72 291.677 191.72ZM316.666 213L310.576 192.525H310.436C310.459 192.992 310.494 193.657 310.541 194.52C310.588 195.36 310.623 196.282 310.646 197.285C310.693 198.265 310.716 199.187 310.716 200.05V213H306.516V188.01H312.956L318.906 207.645H319.011L325.066 188.01H331.541V213H327.131V199.84C327.131 199.047 327.143 198.183 327.166 197.25C327.189 196.293 327.224 195.395 327.271 194.555C327.318 193.692 327.353 193.027 327.376 192.56H327.236L320.971 213H316.666ZM108.569 273H103.914V257.425C103.914 256.912 103.914 256.387 103.914 255.85C103.937 255.313 103.949 254.777 103.949 254.24C103.972 253.68 103.995 253.167 104.019 252.7C103.785 252.933 103.517 253.213 103.214 253.54C102.934 253.867 102.619 254.182 102.269 254.485L99.6788 256.725L97.2988 253.995L104.579 248.01H108.569V273ZM128.904 273H124.249V257.425C124.249 256.912 124.249 256.387 124.249 255.85C124.273 255.313 124.284 254.777 124.284 254.24C124.308 253.68 124.331 253.167 124.354 252.7C124.121 252.933 123.853 253.213 123.549 253.54C123.269 253.867 122.954 254.182 122.604 254.485L120.014 256.725L117.634 253.995L124.914 248.01H128.904V273ZM137.795 270.76C137.795 269.78 138.052 269.092 138.565 268.695C139.102 268.275 139.743 268.065 140.49 268.065C141.237 268.065 141.867 268.263 142.38 268.66C142.917 269.057 143.185 269.757 143.185 270.76C143.185 271.717 142.917 272.405 142.38 272.825C141.867 273.245 141.237 273.455 140.49 273.455C139.743 273.455 139.102 273.245 138.565 272.825C138.052 272.405 137.795 271.717 137.795 270.76ZM137.795 256.34C137.795 255.337 138.052 254.637 138.565 254.24C139.102 253.82 139.743 253.61 140.49 253.61C141.237 253.61 141.867 253.808 142.38 254.205C142.917 254.602 143.185 255.313 143.185 256.34C143.185 257.297 142.917 257.985 142.38 258.405C141.867 258.825 141.237 259.035 140.49 259.035C139.743 259.035 139.102 258.825 138.565 258.405C138.052 257.985 137.795 257.297 137.795 256.34ZM164.103 260.47C164.103 262.5 163.963 264.308 163.683 265.895C163.403 267.482 162.925 268.835 162.248 269.955C161.595 271.052 160.743 271.892 159.693 272.475C158.667 273.058 157.407 273.35 155.913 273.35C154.07 273.35 152.542 272.837 151.328 271.81C150.138 270.783 149.252 269.313 148.668 267.4C148.108 265.463 147.828 263.153 147.828 260.47C147.828 257.787 148.085 255.488 148.598 253.575C149.135 251.662 149.998 250.192 151.188 249.165C152.378 248.138 153.965 247.625 155.948 247.625C157.815 247.625 159.343 248.138 160.533 249.165C161.747 250.168 162.645 251.638 163.228 253.575C163.812 255.488 164.103 257.787 164.103 260.47ZM152.483 260.505C152.483 262.535 152.588 264.238 152.798 265.615C153.008 266.968 153.37 267.995 153.883 268.695C154.397 269.372 155.085 269.71 155.948 269.71C156.812 269.71 157.488 269.372 157.978 268.695C158.492 268.018 158.865 266.992 159.098 265.615C159.332 264.238 159.448 262.535 159.448 260.505C159.448 258.452 159.332 256.748 159.098 255.395C158.865 254.018 158.492 252.992 157.978 252.315C157.488 251.615 156.812 251.265 155.948 251.265C155.085 251.265 154.397 251.615 153.883 252.315C153.37 252.992 153.008 254.007 152.798 255.36C152.588 256.713 152.483 258.428 152.483 260.505ZM184.439 260.47C184.439 262.5 184.299 264.308 184.019 265.895C183.739 267.482 183.261 268.835 182.584 269.955C181.931 271.052 181.079 271.892 180.029 272.475C179.002 273.058 177.742 273.35 176.249 273.35C174.406 273.35 172.877 272.837 171.664 271.81C170.474 270.783 169.587 269.313 169.004 267.4C168.444 265.463 168.164 263.153 168.164 260.47C168.164 257.787 168.421 255.488 168.934 253.575C169.471 251.662 170.334 250.192 171.524 249.165C172.714 248.138 174.301 247.625 176.284 247.625C178.151 247.625 179.679 248.138 180.869 249.165C182.082 250.168 182.981 251.638 183.564 253.575C184.147 255.488 184.439 257.787 184.439 260.47ZM172.819 260.505C172.819 262.535 172.924 264.238 173.134 265.615C173.344 266.968 173.706 267.995 174.219 268.695C174.732 269.372 175.421 269.71 176.284 269.71C177.147 269.71 177.824 269.372 178.314 268.695C178.827 268.018 179.201 266.992 179.434 265.615C179.667 264.238 179.784 262.535 179.784 260.505C179.784 258.452 179.667 256.748 179.434 255.395C179.201 254.018 178.827 252.992 178.314 252.315C177.824 251.615 177.147 251.265 176.284 251.265C175.421 251.265 174.732 251.615 174.219 252.315C173.706 252.992 173.344 254.007 173.134 255.36C172.924 256.713 172.819 258.428 172.819 260.505ZM188.185 265.475V261.765H196.725V265.475H188.185ZM212.501 273H207.846V257.425C207.846 256.912 207.846 256.387 207.846 255.85C207.869 255.313 207.881 254.777 207.881 254.24C207.904 253.68 207.928 253.167 207.951 252.7C207.718 252.933 207.449 253.213 207.146 253.54C206.866 253.867 206.551 254.182 206.201 254.485L203.611 256.725L201.231 253.995L208.511 248.01H212.501V273ZM237.072 273H220.797V269.745L226.712 263.305C227.902 262.022 228.858 260.925 229.582 260.015C230.305 259.082 230.83 258.218 231.157 257.425C231.507 256.632 231.682 255.768 231.682 254.835C231.682 253.692 231.39 252.84 230.807 252.28C230.247 251.697 229.5 251.405 228.567 251.405C227.633 251.405 226.747 251.627 225.907 252.07C225.09 252.49 224.227 253.097 223.317 253.89L220.762 250.985C221.438 250.378 222.15 249.83 222.897 249.34C223.643 248.827 224.507 248.418 225.487 248.115C226.49 247.812 227.645 247.66 228.952 247.66C230.468 247.66 231.775 247.952 232.872 248.535C233.992 249.095 234.855 249.877 235.462 250.88C236.068 251.883 236.372 253.05 236.372 254.38C236.372 255.407 236.22 256.352 235.917 257.215C235.637 258.078 235.217 258.93 234.657 259.77C234.097 260.61 233.432 261.473 232.662 262.36C231.892 263.247 231.028 264.215 230.072 265.265L226.677 268.975V269.185H237.072V273ZM241.727 270.76C241.727 269.78 241.984 269.092 242.497 268.695C243.034 268.275 243.675 268.065 244.422 268.065C245.169 268.065 245.799 268.263 246.312 268.66C246.849 269.057 247.117 269.757 247.117 270.76C247.117 271.717 246.849 272.405 246.312 272.825C245.799 273.245 245.169 273.455 244.422 273.455C243.675 273.455 243.034 273.245 242.497 272.825C241.984 272.405 241.727 271.717 241.727 270.76ZM241.727 256.34C241.727 255.337 241.984 254.637 242.497 254.24C243.034 253.82 243.675 253.61 244.422 253.61C245.169 253.61 245.799 253.808 246.312 254.205C246.849 254.602 247.117 255.313 247.117 256.34C247.117 257.297 246.849 257.985 246.312 258.405C245.799 258.825 245.169 259.035 244.422 259.035C243.675 259.035 243.034 258.825 242.497 258.405C241.984 257.985 241.727 257.297 241.727 256.34ZM268.036 260.47C268.036 262.5 267.896 264.308 267.616 265.895C267.336 267.482 266.857 268.835 266.181 269.955C265.527 271.052 264.676 271.892 263.626 272.475C262.599 273.058 261.339 273.35 259.846 273.35C258.002 273.35 256.474 272.837 255.261 271.81C254.071 270.783 253.184 269.313 252.601 267.4C252.041 265.463 251.761 263.153 251.761 260.47C251.761 257.787 252.017 255.488 252.531 253.575C253.067 251.662 253.931 250.192 255.121 249.165C256.311 248.138 257.897 247.625 259.881 247.625C261.747 247.625 263.276 248.138 264.466 249.165C265.679 250.168 266.577 251.638 267.161 253.575C267.744 255.488 268.036 257.787 268.036 260.47ZM256.416 260.505C256.416 262.535 256.521 264.238 256.731 265.615C256.941 266.968 257.302 267.995 257.816 268.695C258.329 269.372 259.017 269.71 259.881 269.71C260.744 269.71 261.421 269.372 261.911 268.695C262.424 268.018 262.797 266.992 263.031 265.615C263.264 264.238 263.381 262.535 263.381 260.505C263.381 258.452 263.264 256.748 263.031 255.395C262.797 254.018 262.424 252.992 261.911 252.315C261.421 251.615 260.744 251.265 259.881 251.265C259.017 251.265 258.329 251.615 257.816 252.315C257.302 252.992 256.941 254.007 256.731 255.36C256.521 256.713 256.416 258.428 256.416 260.505ZM288.371 260.47C288.371 262.5 288.231 264.308 287.951 265.895C287.671 267.482 287.193 268.835 286.516 269.955C285.863 271.052 285.011 271.892 283.961 272.475C282.935 273.058 281.675 273.35 280.181 273.35C278.338 273.35 276.81 272.837 275.596 271.81C274.406 270.783 273.52 269.313 272.936 267.4C272.376 265.463 272.096 263.153 272.096 260.47C272.096 257.787 272.353 255.488 272.866 253.575C273.403 251.662 274.266 250.192 275.456 249.165C276.646 248.138 278.233 247.625 280.216 247.625C282.083 247.625 283.611 248.138 284.801 249.165C286.015 250.168 286.913 251.638 287.496 253.575C288.08 255.488 288.371 257.787 288.371 260.47ZM276.751 260.505C276.751 262.535 276.856 264.238 277.066 265.615C277.276 266.968 277.638 267.995 278.151 268.695C278.665 269.372 279.353 269.71 280.216 269.71C281.08 269.71 281.756 269.372 282.246 268.695C282.76 268.018 283.133 266.992 283.366 265.615C283.6 264.238 283.716 262.535 283.716 260.505C283.716 258.452 283.6 256.748 283.366 255.395C283.133 254.018 282.76 252.992 282.246 252.315C281.756 251.615 281.08 251.265 280.216 251.265C279.353 251.265 278.665 251.615 278.151 252.315C277.638 252.992 277.276 254.007 277.066 255.36C276.856 256.713 276.751 258.428 276.751 260.505ZM318.477 273L316.552 266.385H308.012L306.087 273H301.047L309.447 247.905H315.082L323.517 273H318.477ZM313.437 256.095C313.343 255.722 313.215 255.278 313.052 254.765C312.912 254.228 312.772 253.68 312.632 253.12C312.515 252.56 312.398 252.035 312.282 251.545C312.188 252.105 312.072 252.665 311.932 253.225C311.792 253.762 311.652 254.275 311.512 254.765C311.395 255.255 311.278 255.698 311.162 256.095L309.202 262.535H315.432L313.437 256.095ZM337.993 273L331.903 252.525H331.763C331.786 252.992 331.821 253.657 331.868 254.52C331.914 255.36 331.949 256.282 331.973 257.285C332.019 258.265 332.043 259.187 332.043 260.05V273H327.843V248.01H334.283L340.233 267.645H340.338L346.393 248.01H352.868V273H348.458V259.84C348.458 259.047 348.469 258.183 348.493 257.25C348.516 256.293 348.551 255.395 348.598 254.555C348.644 253.692 348.679 253.027 348.703 252.56H348.563L342.298 273H337.993ZM113.764 333H109.109V317.425C109.109 316.912 109.109 316.387 109.109 315.85C109.132 315.313 109.144 314.777 109.144 314.24C109.167 313.68 109.191 313.167 109.214 312.7C108.981 312.933 108.712 313.213 108.409 313.54C108.129 313.867 107.814 314.182 107.464 314.485L104.874 316.725L102.494 313.995L109.774 308.01H113.764V333ZM138.335 333H122.06V329.745L127.975 323.305C129.165 322.022 130.121 320.925 130.845 320.015C131.568 319.082 132.093 318.218 132.42 317.425C132.77 316.632 132.945 315.768 132.945 314.835C132.945 313.692 132.653 312.84 132.07 312.28C131.51 311.697 130.763 311.405 129.83 311.405C128.896 311.405 128.01 311.627 127.17 312.07C126.353 312.49 125.49 313.097 124.58 313.89L122.025 310.985C122.701 310.378 123.413 309.83 124.16 309.34C124.906 308.827 125.77 308.418 126.75 308.115C127.753 307.812 128.908 307.66 130.215 307.66C131.731 307.66 133.038 307.952 134.135 308.535C135.255 309.095 136.118 309.877 136.725 310.88C137.331 311.883 137.635 313.05 137.635 314.38C137.635 315.407 137.483 316.352 137.18 317.215C136.9 318.078 136.48 318.93 135.92 319.77C135.36 320.61 134.695 321.473 133.925 322.36C133.155 323.247 132.291 324.215 131.335 325.265L127.94 328.975V329.185H138.335V333ZM142.99 330.76C142.99 329.78 143.247 329.092 143.76 328.695C144.297 328.275 144.939 328.065 145.685 328.065C146.432 328.065 147.062 328.263 147.575 328.66C148.112 329.057 148.38 329.757 148.38 330.76C148.38 331.717 148.112 332.405 147.575 332.825C147.062 333.245 146.432 333.455 145.685 333.455C144.939 333.455 144.297 333.245 143.76 332.825C143.247 332.405 142.99 331.717 142.99 330.76ZM142.99 316.34C142.99 315.337 143.247 314.637 143.76 314.24C144.297 313.82 144.939 313.61 145.685 313.61C146.432 313.61 147.062 313.808 147.575 314.205C148.112 314.602 148.38 315.313 148.38 316.34C148.38 317.297 148.112 317.985 147.575 318.405C147.062 318.825 146.432 319.035 145.685 319.035C144.939 319.035 144.297 318.825 143.76 318.405C143.247 317.985 142.99 317.297 142.99 316.34ZM169.299 320.47C169.299 322.5 169.159 324.308 168.879 325.895C168.599 327.482 168.12 328.835 167.444 329.955C166.79 331.052 165.939 331.892 164.889 332.475C163.862 333.058 162.602 333.35 161.109 333.35C159.265 333.35 157.737 332.837 156.524 331.81C155.334 330.783 154.447 329.313 153.864 327.4C153.304 325.463 153.024 323.153 153.024 320.47C153.024 317.787 153.28 315.488 153.794 313.575C154.33 311.662 155.194 310.192 156.384 309.165C157.574 308.138 159.16 307.625 161.144 307.625C163.01 307.625 164.539 308.138 165.729 309.165C166.942 310.168 167.84 311.638 168.424 313.575C169.007 315.488 169.299 317.787 169.299 320.47ZM157.679 320.505C157.679 322.535 157.784 324.238 157.994 325.615C158.204 326.968 158.565 327.995 159.079 328.695C159.592 329.372 160.28 329.71 161.144 329.71C162.007 329.71 162.684 329.372 163.174 328.695C163.687 328.018 164.06 326.992 164.294 325.615C164.527 324.238 164.644 322.535 164.644 320.505C164.644 318.452 164.527 316.748 164.294 315.395C164.06 314.018 163.687 312.992 163.174 312.315C162.684 311.615 162.007 311.265 161.144 311.265C160.28 311.265 159.592 311.615 159.079 312.315C158.565 312.992 158.204 314.007 157.994 315.36C157.784 316.713 157.679 318.428 157.679 320.505ZM189.634 320.47C189.634 322.5 189.494 324.308 189.214 325.895C188.934 327.482 188.456 328.835 187.779 329.955C187.126 331.052 186.274 331.892 185.224 332.475C184.198 333.058 182.938 333.35 181.444 333.35C179.601 333.35 178.073 332.837 176.859 331.81C175.669 330.783 174.783 329.313 174.199 327.4C173.639 325.463 173.359 323.153 173.359 320.47C173.359 317.787 173.616 315.488 174.129 313.575C174.666 311.662 175.529 310.192 176.719 309.165C177.909 308.138 179.496 307.625 181.479 307.625C183.346 307.625 184.874 308.138 186.064 309.165C187.278 310.168 188.176 311.638 188.759 313.575C189.343 315.488 189.634 317.787 189.634 320.47ZM178.014 320.505C178.014 322.535 178.119 324.238 178.329 325.615C178.539 326.968 178.901 327.995 179.414 328.695C179.928 329.372 180.616 329.71 181.479 329.71C182.343 329.71 183.019 329.372 183.509 328.695C184.023 328.018 184.396 326.992 184.629 325.615C184.863 324.238 184.979 322.535 184.979 320.505C184.979 318.452 184.863 316.748 184.629 315.395C184.396 314.018 184.023 312.992 183.509 312.315C183.019 311.615 182.343 311.265 181.479 311.265C180.616 311.265 179.928 311.615 179.414 312.315C178.901 312.992 178.539 314.007 178.329 315.36C178.119 316.713 178.014 318.428 178.014 320.505ZM203.325 325.475V321.765H211.865V325.475H203.325ZM227.641 333H222.986V317.425C222.986 316.912 222.986 316.387 222.986 315.85C223.01 315.313 223.021 314.777 223.021 314.24C223.045 313.68 223.068 313.167 223.091 312.7C222.858 312.933 222.59 313.213 222.286 313.54C222.006 313.867 221.691 314.182 221.341 314.485L218.751 316.725L216.371 313.995L223.651 308.01H227.641V333ZM236.532 330.76C236.532 329.78 236.789 329.092 237.302 328.695C237.839 328.275 238.48 328.065 239.227 328.065C239.974 328.065 240.604 328.263 241.117 328.66C241.654 329.057 241.922 329.757 241.922 330.76C241.922 331.717 241.654 332.405 241.117 332.825C240.604 333.245 239.974 333.455 239.227 333.455C238.48 333.455 237.839 333.245 237.302 332.825C236.789 332.405 236.532 331.717 236.532 330.76ZM236.532 316.34C236.532 315.337 236.789 314.637 237.302 314.24C237.839 313.82 238.48 313.61 239.227 313.61C239.974 313.61 240.604 313.808 241.117 314.205C241.654 314.602 241.922 315.313 241.922 316.34C241.922 317.297 241.654 317.985 241.117 318.405C240.604 318.825 239.974 319.035 239.227 319.035C238.48 319.035 237.839 318.825 237.302 318.405C236.789 317.985 236.532 317.297 236.532 316.34ZM262 313.715C262 314.835 261.779 315.815 261.335 316.655C260.892 317.495 260.285 318.183 259.515 318.72C258.769 319.233 257.905 319.607 256.925 319.84V319.945C258.815 320.178 260.239 320.797 261.195 321.8C262.175 322.803 262.665 324.133 262.665 325.79C262.665 327.237 262.339 328.532 261.685 329.675C261.032 330.818 260.005 331.717 258.605 332.37C257.229 333.023 255.444 333.35 253.25 333.35C251.92 333.35 250.719 333.233 249.645 333C248.572 332.79 247.534 332.452 246.53 331.985V328.1C247.557 328.637 248.619 329.045 249.715 329.325C250.812 329.605 251.839 329.745 252.795 329.745C254.615 329.745 255.899 329.383 256.645 328.66C257.392 327.913 257.765 326.887 257.765 325.58C257.765 324.74 257.567 324.052 257.17 323.515C256.797 322.978 256.19 322.582 255.35 322.325C254.534 322.045 253.414 321.905 251.99 321.905H250.17V318.37H252.025C253.332 318.37 254.37 318.207 255.14 317.88C255.934 317.553 256.505 317.098 256.855 316.515C257.205 315.932 257.38 315.255 257.38 314.485C257.38 313.482 257.077 312.7 256.47 312.14C255.887 311.58 255.035 311.3 253.915 311.3C253.169 311.3 252.469 311.393 251.815 311.58C251.162 311.767 250.579 312.012 250.065 312.315C249.552 312.595 249.097 312.898 248.7 313.225L246.6 310.18C247.207 309.713 247.884 309.293 248.63 308.92C249.4 308.523 250.252 308.22 251.185 308.01C252.119 307.777 253.169 307.66 254.335 307.66C256.785 307.66 258.675 308.208 260.005 309.305C261.335 310.378 262 311.848 262 313.715ZM283.176 320.47C283.176 322.5 283.036 324.308 282.756 325.895C282.476 327.482 281.998 328.835 281.321 329.955C280.668 331.052 279.816 331.892 278.766 332.475C277.739 333.058 276.479 333.35 274.986 333.35C273.143 333.35 271.614 332.837 270.401 331.81C269.211 330.783 268.324 329.313 267.741 327.4C267.181 325.463 266.901 323.153 266.901 320.47C266.901 317.787 267.158 315.488 267.671 313.575C268.208 311.662 269.071 310.192 270.261 309.165C271.451 308.138 273.038 307.625 275.021 307.625C276.888 307.625 278.416 308.138 279.606 309.165C280.819 310.168 281.718 311.638 282.301 313.575C282.884 315.488 283.176 317.787 283.176 320.47ZM271.556 320.505C271.556 322.535 271.661 324.238 271.871 325.615C272.081 326.968 272.443 327.995 272.956 328.695C273.469 329.372 274.158 329.71 275.021 329.71C275.884 329.71 276.561 329.372 277.051 328.695C277.564 328.018 277.938 326.992 278.171 325.615C278.404 324.238 278.521 322.535 278.521 320.505C278.521 318.452 278.404 316.748 278.171 315.395C277.938 314.018 277.564 312.992 277.051 312.315C276.561 311.615 275.884 311.265 275.021 311.265C274.158 311.265 273.469 311.615 272.956 312.315C272.443 312.992 272.081 314.007 271.871 315.36C271.661 316.713 271.556 318.428 271.556 320.505ZM313.281 333L311.356 326.385H302.816L300.891 333H295.851L304.251 307.905H309.886L318.321 333H313.281ZM308.241 316.095C308.148 315.722 308.02 315.278 307.856 314.765C307.716 314.228 307.576 313.68 307.436 313.12C307.32 312.56 307.203 312.035 307.086 311.545C306.993 312.105 306.876 312.665 306.736 313.225C306.596 313.762 306.456 314.275 306.316 314.765C306.2 315.255 306.083 315.698 305.966 316.095L304.006 322.535H310.236L308.241 316.095ZM332.797 333L326.707 312.525H326.567C326.591 312.992 326.626 313.657 326.672 314.52C326.719 315.36 326.754 316.282 326.777 317.285C326.824 318.265 326.847 319.187 326.847 320.05V333H322.647V308.01H329.087L335.037 327.645H335.142L341.197 308.01H347.672V333H343.262V319.84C343.262 319.047 343.274 318.183 343.297 317.25C343.321 316.293 343.356 315.395 343.402 314.555C343.449 313.692 343.484 313.027 343.507 312.56H343.367L337.102 333H332.797Z" fill="#FEF8EB"/>
<rect x="342" y="79" width="81" height="4" fill="#FEF8EB"/>
<rect x="342" y="139" width="81" height="4" fill="#FEF8EB"/>
<rect x="343" y="200" width="80" height="4" fill="#FEF8EB"/>
<rect x="364" y="260" width="59" height="4" fill="#FEF8EB"/>
<rect x="359" y="320" width="64" height="4" fill="#FEF8EB"/>
</svg>
