<svg width="440" height="91" viewBox="0 0 440 91" fill="none" xmlns="http://www.w3.org/2000/svg">
<path d="M5.84648 81L5.84648 77.4453C5.84648 75.2578 6.07435 73.1159 6.53008 71.0195C7.00859 68.9232 7.72636 66.7926 8.6834 64.6279C9.64043 62.4632 10.8367 60.1846 12.2723 57.792L18.2195 47.9141C18.6297 47.2305 18.9943 46.5241 19.3133 45.7949C19.6551 45.043 19.9399 44.2227 20.1678 43.334C20.3956 42.4453 20.5665 41.4427 20.6805 40.3262C20.8172 39.1868 20.8855 37.888 20.8855 36.4297C20.8855 34.2194 20.7488 32.5104 20.4754 31.3027C20.2247 30.0951 19.8488 29.252 19.3475 28.7734C18.8689 28.2949 18.2879 28.0557 17.6043 28.0557C16.9207 28.0557 16.2941 28.2721 15.7244 28.7051C15.1775 29.1152 14.7446 29.9583 14.4256 31.2344C14.1066 32.4876 13.9471 34.4017 13.9471 36.9766V44.5986H5.19707V40.9072C5.19707 36.5778 5.4819 32.8636 6.05156 29.7646C6.64401 26.6657 7.8403 24.2959 9.64043 22.6553C11.4406 20.9919 14.1749 20.1602 17.8436 20.1602C20.6919 20.1602 22.9705 20.9121 24.6795 22.416C26.3885 23.9199 27.6303 25.9365 28.4051 28.4658C29.1798 30.9723 29.5672 33.7523 29.5672 36.8057C29.5672 38.6742 29.3963 40.4287 29.0545 42.0693C28.7355 43.71 28.2911 45.2594 27.7215 46.7178C27.1518 48.1533 26.5024 49.5091 25.7732 50.7852L20.2361 60.6289C19.507 61.9505 18.7778 63.2949 18.0486 64.6621C17.3422 66.0293 16.6814 67.4648 16.0662 68.9688C15.4738 70.4727 14.9725 72.0905 14.5623 73.8223H28.4393V81H5.84648ZM52.8408 81.7178C49.5596 81.7178 46.9163 81.0456 44.9111 79.7012C42.9287 78.3568 41.4818 76.4199 40.5703 73.8906C39.6816 71.3613 39.2373 68.3193 39.2373 64.7646V36.0195C39.2373 32.556 39.693 29.6507 40.6045 27.3037C41.5387 24.9339 43.0085 23.1452 45.0137 21.9375C47.0189 20.7298 49.6279 20.126 52.8408 20.126C56.0537 20.126 58.6514 20.7298 60.6338 21.9375C62.639 23.1452 64.1087 24.9339 65.043 27.3037C65.9772 29.6507 66.4443 32.556 66.4443 36.0195V64.7646C66.4443 67.4307 66.1937 69.8118 65.6924 71.9082C65.1911 74.0046 64.4049 75.7819 63.334 77.2402C62.263 78.6986 60.8616 79.8151 59.1299 80.5898C57.3981 81.3418 55.3018 81.7178 52.8408 81.7178ZM52.8066 73.8223C53.4674 73.8223 54.0713 73.7197 54.6182 73.5146C55.165 73.2868 55.6322 72.8652 56.0195 72.25C56.4297 71.6348 56.7373 70.7461 56.9424 69.584C57.1702 68.3991 57.2842 66.8496 57.2842 64.9355V35.6436C57.2842 33.4105 57.0791 31.7585 56.6689 30.6875C56.2588 29.5938 55.7119 28.876 55.0283 28.5342C54.3447 28.1924 53.6042 28.0215 52.8066 28.0215C52.0319 28.0215 51.3027 28.181 50.6191 28.5C49.9583 28.819 49.4115 29.514 48.9785 30.585C48.5684 31.6559 48.3633 33.3307 48.3633 35.6094V64.9355C48.3633 66.8724 48.4544 68.4333 48.6367 69.6182C48.8418 70.7803 49.138 71.6689 49.5254 72.2842C49.9128 72.8994 50.3799 73.3096 50.9268 73.5146C51.4736 73.7197 52.1003 73.8223 52.8066 73.8223ZM78.507 81V77.4453C78.507 75.2578 78.7349 73.1159 79.1906 71.0195C79.6691 68.9232 80.3869 66.7926 81.3439 64.6279C82.301 62.4632 83.4973 60.1846 84.9328 57.792L90.8801 47.9141C91.2902 47.2305 91.6548 46.5241 91.9738 45.7949C92.3156 45.043 92.6005 44.2227 92.8283 43.334C93.0562 42.4453 93.2271 41.4427 93.341 40.3262C93.4777 39.1868 93.5461 37.888 93.5461 36.4297C93.5461 34.2194 93.4094 32.5104 93.1359 31.3027C92.8853 30.0951 92.5093 29.252 92.008 28.7734C91.5295 28.2949 90.9484 28.0557 90.2648 28.0557C89.5812 28.0557 88.9546 28.2721 88.385 28.7051C87.8381 29.1152 87.4051 29.9583 87.0861 31.2344C86.7671 32.4876 86.6076 34.4017 86.6076 36.9766V44.5986H77.8576V40.9072C77.8576 36.5778 78.1424 32.8636 78.7121 29.7646C79.3046 26.6657 80.5008 24.2959 82.301 22.6553C84.1011 20.9919 86.8355 20.1602 90.5041 20.1602C93.3524 20.1602 95.6311 20.9121 97.34 22.416C99.049 23.9199 100.291 25.9365 101.066 28.4658C101.84 30.9723 102.228 33.7523 102.228 36.8057C102.228 38.6742 102.057 40.4287 101.715 42.0693C101.396 43.71 100.952 45.2594 100.382 46.7178C99.8124 48.1533 99.163 49.5091 98.4338 50.7852L92.8967 60.6289C92.1675 61.9505 91.4383 63.2949 90.7092 64.6621C90.0028 66.0293 89.342 67.4648 88.7268 68.9688C88.1343 70.4727 87.633 72.0905 87.2228 73.8223H101.1V81H78.507ZM124.476 81.6836C121.65 81.6836 119.36 81.1823 117.606 80.1797C115.851 79.1543 114.564 77.7188 113.744 75.873C112.946 74.0046 112.547 71.8057 112.547 69.2764V61.7227H121.126V68.3193C121.126 69.8916 121.32 71.2132 121.707 72.2842C122.095 73.3324 123.018 73.8564 124.476 73.8564C125.775 73.8564 126.663 73.3665 127.142 72.3867C127.643 71.4069 127.894 69.9258 127.894 67.9434V52.5625C127.894 50.6029 127.689 49.0306 127.279 47.8457C126.869 46.638 125.957 46.0342 124.544 46.0342C123.405 46.0342 122.528 46.5127 121.912 47.4697C121.297 48.4268 120.99 49.8965 120.99 51.8789L112.923 51.1953V20.8438H135.174V29.0469H121.366V41.249C121.799 40.3831 122.585 39.6995 123.724 39.1982C124.863 38.6742 126.094 38.4121 127.415 38.4121C129.831 38.4121 131.711 39.1185 133.055 40.5313C134.422 41.944 135.379 44.1087 135.926 47.0254C136.496 49.9421 136.781 53.6563 136.781 58.168V59.3984C136.781 63.181 136.655 66.4736 136.405 69.2764C136.154 72.0791 135.619 74.4033 134.798 76.249C134.001 78.0719 132.782 79.4391 131.141 80.3506C129.5 81.2393 127.279 81.6836 124.476 81.6836ZM174.578 81.6836C172.071 81.6836 169.975 81.2962 168.289 80.5215C166.625 79.724 165.304 78.5732 164.324 77.0693C163.367 75.5426 162.683 73.6969 162.273 71.5322C161.863 69.3447 161.658 66.861 161.658 64.0811V58.7148H170.34V64.7646C170.34 68.0003 170.613 70.3245 171.16 71.7373C171.707 73.1501 172.789 73.8564 174.407 73.8564C175.501 73.8564 176.321 73.6058 176.868 73.1045C177.438 72.5804 177.814 71.7601 177.996 70.6436C178.201 69.5042 178.304 68.0231 178.304 66.2002C178.304 63.9443 177.825 61.8822 176.868 60.0137C175.934 58.1452 174.51 56.2083 172.596 54.2031L168.152 49.623C166.922 48.347 165.805 46.9912 164.803 45.5557C163.823 44.1201 163.037 42.5251 162.444 40.7705C161.874 38.9932 161.59 37.0107 161.59 34.8232C161.59 31.6559 161.977 28.9785 162.752 26.791C163.526 24.6035 164.837 22.9515 166.682 21.835C168.528 20.6956 171.057 20.126 174.27 20.126C176.686 20.126 178.668 20.502 180.218 21.2539C181.79 21.9831 183.009 23.0654 183.875 24.501C184.763 25.9137 185.39 27.6455 185.755 29.6963C186.119 31.7243 186.302 34.0485 186.302 36.6689V40.3945H177.859V36.0879C177.859 34.265 177.757 32.7497 177.552 31.542C177.369 30.3343 177.016 29.4342 176.492 28.8418C175.968 28.2266 175.205 27.9189 174.202 27.9189C173.245 27.9189 172.47 28.1354 171.878 28.5684C171.285 28.9785 170.852 29.6279 170.579 30.5166C170.328 31.3825 170.203 32.5104 170.203 33.9004C170.203 35.1536 170.362 36.236 170.681 37.1475C171 38.0589 171.49 38.9362 172.151 39.7793C172.812 40.6224 173.632 41.568 174.612 42.6162L179.568 47.9824C181.938 50.5345 183.784 53.1891 185.105 55.9463C186.427 58.7035 187.088 61.7796 187.088 65.1748C187.088 68.7751 186.7 71.8057 185.926 74.2666C185.151 76.7048 183.852 78.5505 182.029 79.8037C180.206 81.057 177.722 81.6836 174.578 81.6836ZM196.348 81V20.8438H210.156C212.549 20.8438 214.531 21.2083 216.104 21.9375C217.699 22.6667 218.952 23.749 219.863 25.1846C220.775 26.6201 221.424 28.3975 221.812 30.5166C222.199 32.613 222.393 35.0397 222.393 37.7969V39.0615C222.393 42.9352 222.051 46.2393 221.367 48.9736C220.706 51.6852 219.51 53.7474 217.778 55.1602C216.047 56.5729 213.608 57.2793 210.464 57.2793H205.508V81H196.348ZM205.508 49.7256H208.652C209.997 49.7256 210.999 49.3838 211.66 48.7002C212.321 48.0166 212.754 46.8887 212.959 45.3164C213.187 43.7214 213.301 41.6022 213.301 38.959V37.7969C213.278 34.5384 212.993 32.0775 212.446 30.4141C211.899 28.7279 210.658 27.8848 208.721 27.8848H205.508V49.7256ZM244.06 81.6836C240.938 81.6836 238.386 81.0228 236.404 79.7012C234.444 78.3796 232.997 76.4199 232.063 73.8223C231.128 71.2246 230.661 68.0117 230.661 64.1836V36.6689C230.661 33.2054 231.117 30.2432 232.029 27.7822C232.94 25.3213 234.387 23.43 236.369 22.1084C238.352 20.7868 240.949 20.126 244.162 20.126C246.578 20.126 248.617 20.502 250.28 21.2539C251.944 22.0059 253.288 23.0996 254.314 24.5352C255.339 25.9479 256.08 27.6797 256.535 29.7305C257.014 31.7585 257.253 34.0713 257.253 36.6689V64.1836C257.253 68.0117 256.797 71.2246 255.886 73.8223C254.997 76.4199 253.585 78.3796 251.648 79.7012C249.711 81.0228 247.182 81.6836 244.06 81.6836ZM244.06 73.7539C245.199 73.7539 246.054 73.4121 246.623 72.7285C247.193 72.0449 247.569 71.0081 247.751 69.6182C247.956 68.2054 248.059 66.4281 248.059 64.2861V36.2588C248.059 33.6383 247.808 31.6217 247.307 30.209C246.828 28.7734 245.78 28.0557 244.162 28.0557C242.499 28.0557 241.371 28.7507 240.779 30.1406C240.186 31.5078 239.89 33.5358 239.89 36.2246V64.2861C239.89 66.4736 239.981 68.2738 240.163 69.6865C240.368 71.0765 240.767 72.1019 241.36 72.7627C241.975 73.4235 242.875 73.7539 244.06 73.7539ZM268.393 81V20.8438H275.571L288.32 56.9375L287.67 40.5313V20.8438H295.908V81H289.413L276.323 43.6416L276.835 59.4326V81H268.393ZM318.737 81.6836C316.23 81.6836 314.134 81.2962 312.448 80.5215C310.784 79.724 309.463 78.5732 308.483 77.0693C307.526 75.5426 306.842 73.6969 306.432 71.5322C306.022 69.3447 305.817 66.861 305.817 64.0811V58.7148H314.499V64.7646C314.499 68.0003 314.772 70.3245 315.319 71.7373C315.866 73.1501 316.948 73.8564 318.566 73.8564C319.66 73.8564 320.48 73.6058 321.027 73.1045C321.597 72.5804 321.973 71.7601 322.155 70.6436C322.36 69.5042 322.463 68.0231 322.463 66.2002C322.463 63.9443 321.984 61.8822 321.027 60.0137C320.093 58.1452 318.669 56.2083 316.755 54.2031L312.311 49.623C311.081 48.347 309.964 46.9912 308.962 45.5557C307.982 44.1201 307.196 42.5251 306.603 40.7705C306.033 38.9932 305.749 37.0107 305.749 34.8232C305.749 31.6559 306.136 28.9785 306.911 26.791C307.686 24.6035 308.996 22.9515 310.841 21.835C312.687 20.6956 315.216 20.126 318.429 20.126C320.845 20.126 322.827 20.502 324.377 21.2539C325.949 21.9831 327.168 23.0654 328.034 24.501C328.922 25.9137 329.549 27.6455 329.914 29.6963C330.278 31.7243 330.461 34.0485 330.461 36.6689V40.3945H322.018V36.0879C322.018 34.265 321.916 32.7497 321.711 31.542C321.528 30.3343 321.175 29.4342 320.651 28.8418C320.127 28.2266 319.364 27.9189 318.361 27.9189C317.404 27.9189 316.629 28.1354 316.037 28.5684C315.444 28.9785 315.011 29.6279 314.738 30.5166C314.487 31.3825 314.362 32.5104 314.362 33.9004C314.362 35.1536 314.521 36.236 314.84 37.1475C315.159 38.0589 315.649 38.9362 316.31 39.7793C316.971 40.6224 317.791 41.568 318.771 42.6162L323.727 47.9824C326.097 50.5345 327.943 53.1891 329.264 55.9463C330.586 58.7035 331.247 61.7796 331.247 65.1748C331.247 68.7751 330.859 71.8057 330.085 74.2666C329.31 76.7048 328.011 78.5505 326.188 79.8037C324.365 81.057 321.881 81.6836 318.737 81.6836ZM353.153 81.6836C350.031 81.6836 347.479 81.0228 345.497 79.7012C343.537 78.3796 342.09 76.4199 341.156 73.8223C340.222 71.2246 339.755 68.0117 339.755 64.1836V36.6689C339.755 33.2054 340.21 30.2432 341.122 27.7822C342.033 25.3213 343.48 23.43 345.463 22.1084C347.445 20.7868 350.043 20.126 353.256 20.126C355.671 20.126 357.71 20.502 359.374 21.2539C361.037 22.0059 362.382 23.0996 363.407 24.5352C364.432 25.9479 365.173 27.6797 365.629 29.7305C366.107 31.7585 366.346 34.0713 366.346 36.6689V64.1836C366.346 68.0117 365.891 71.2246 364.979 73.8223C364.091 76.4199 362.678 78.3796 360.741 79.7012C358.804 81.0228 356.275 81.6836 353.153 81.6836ZM353.153 73.7539C354.292 73.7539 355.147 73.4121 355.717 72.7285C356.286 72.0449 356.662 71.0081 356.845 69.6182C357.05 68.2054 357.152 66.4281 357.152 64.2861V36.2588C357.152 33.6383 356.902 31.6217 356.4 30.209C355.922 28.7734 354.874 28.0557 353.256 28.0557C351.592 28.0557 350.464 28.7507 349.872 30.1406C349.279 31.5078 348.983 33.5358 348.983 36.2246V64.2861C348.983 66.4736 349.074 68.2738 349.257 69.6865C349.462 71.0765 349.86 72.1019 350.453 72.7627C351.068 73.4235 351.968 73.7539 353.153 73.7539ZM377.486 81V20.8438H392.628C395.772 20.8438 398.119 21.459 399.669 22.6895C401.218 23.9199 402.232 25.7201 402.711 28.0898C403.212 30.4596 403.463 33.3535 403.463 36.7715C403.463 40.3034 403.098 43.0833 402.369 45.1113C401.663 47.1165 400.204 48.4609 397.994 49.1445C399.042 49.3268 399.92 49.7598 400.626 50.4434C401.332 51.1042 401.902 52.084 402.335 53.3828C402.768 54.6589 403.076 56.3109 403.258 58.3389C403.463 60.3441 403.565 62.805 403.565 65.7217C403.565 65.9495 403.565 66.5876 403.565 67.6357C403.565 68.6839 403.565 69.9258 403.565 71.3613C403.588 72.7741 403.611 74.1868 403.634 75.5996C403.657 77.0124 403.691 78.2201 403.736 79.2227C403.782 80.2253 403.839 80.8177 403.907 81H394.747C394.679 80.8861 394.622 80.305 394.576 79.2568C394.553 78.1859 394.519 76.8301 394.474 75.1895C394.451 73.5488 394.428 71.7829 394.405 69.8916C394.405 68.0003 394.405 66.1432 394.405 64.3203C394.405 62.4746 394.405 60.8454 394.405 59.4326C394.405 57.6325 394.269 56.2767 393.995 55.3652C393.744 54.431 393.266 53.7816 392.56 53.417C391.876 53.0524 390.885 52.8359 389.586 52.7676L386.646 52.5967V81H377.486ZM386.681 45.4873H390.338C391.454 45.4873 392.298 45.2367 392.867 44.7354C393.46 44.234 393.858 43.3112 394.063 41.9668C394.291 40.6224 394.405 38.6855 394.405 36.1563V35.7803C394.405 33.6611 394.303 32.0319 394.098 30.8926C393.893 29.7533 393.46 28.9671 392.799 28.5342C392.161 28.1012 391.158 27.8848 389.791 27.8848H386.681V45.4873ZM425.164 81.6836C422.658 81.6836 420.561 81.2962 418.875 80.5215C417.212 79.724 415.89 78.5732 414.91 77.0693C413.953 75.5426 413.27 73.6969 412.86 71.5322C412.449 69.3447 412.244 66.861 412.244 64.0811V58.7148H420.926V64.7646C420.926 68.0003 421.199 70.3245 421.746 71.7373C422.293 73.1501 423.376 73.8564 424.993 73.8564C426.087 73.8564 426.907 73.6058 427.454 73.1045C428.024 72.5804 428.4 71.7601 428.582 70.6436C428.787 69.5042 428.89 68.0231 428.89 66.2002C428.89 63.9443 428.411 61.8822 427.454 60.0137C426.52 58.1452 425.096 56.2083 423.182 54.2031L418.738 49.623C417.508 48.347 416.391 46.9912 415.389 45.5557C414.409 44.1201 413.623 42.5251 413.03 40.7705C412.461 38.9932 412.176 37.0107 412.176 34.8232C412.176 31.6559 412.563 28.9785 413.338 26.791C414.113 24.6035 415.423 22.9515 417.269 21.835C419.114 20.6956 421.644 20.126 424.857 20.126C427.272 20.126 429.254 20.502 430.804 21.2539C432.376 21.9831 433.595 23.0654 434.461 24.501C435.35 25.9137 435.976 27.6455 436.341 29.6963C436.706 31.7243 436.888 34.0485 436.888 36.6689V40.3945H428.445V36.0879C428.445 34.265 428.343 32.7497 428.138 31.542C427.956 30.3343 427.602 29.4342 427.078 28.8418C426.554 28.2266 425.791 27.9189 424.788 27.9189C423.831 27.9189 423.056 28.1354 422.464 28.5684C421.872 28.9785 421.439 29.6279 421.165 30.5166C420.915 31.3825 420.789 32.5104 420.789 33.9004C420.789 35.1536 420.949 36.236 421.268 37.1475C421.587 38.0589 422.077 38.9362 422.737 39.7793C423.398 40.6224 424.219 41.568 425.198 42.6162L430.154 47.9824C432.524 50.5345 434.37 53.1891 435.692 55.9463C437.013 58.7035 437.674 61.7796 437.674 65.1748C437.674 68.7751 437.287 71.8057 436.512 74.2666C435.737 76.7048 434.438 78.5505 432.615 79.8037C430.793 81.057 428.309 81.6836 425.164 81.6836Z" fill="#FFFBEE"/>
</svg>
