<svg width="417" height="1934" viewBox="0 0 417 1934" fill="none" xmlns="http://www.w3.org/2000/svg">
<path d="M17.8739 1399.73C-23.0107 1290.28 15.7058 1211.53 40.1746 1185.85L239.952 1244.3L365.393 1213.99L313.358 1443.9L223.691 1473.34L17.8739 1399.73Z" fill="#D0D5D6" fill-opacity="0.6"/>
<ellipse cx="46.4598" cy="43.2971" rx="46.4598" ry="43.2971" transform="matrix(-1 0 0 1 260.395 1334.79)" fill="url(#paint0_radial_891_6299)"/>
<ellipse cx="46.4598" cy="43.2971" rx="46.4598" ry="43.2971" transform="matrix(-1 0 0 1 328.226 1339.12)" fill="url(#paint1_radial_891_6299)"/>
<ellipse cx="46.4598" cy="43.2971" rx="46.4598" ry="43.2971" transform="matrix(-1 0 0 1 230.659 1393.67)" fill="url(#paint2_radial_891_6299)"/>
<ellipse cx="46.4598" cy="43.2971" rx="46.4598" ry="43.2971" transform="matrix(-1 0 0 1 288.27 1393.67)" fill="url(#paint3_radial_891_6299)"/>
<ellipse cx="46.4598" cy="43.2971" rx="46.4598" ry="43.2971" transform="matrix(-1 0 0 1 135.881 1315.74)" fill="url(#paint4_radial_891_6299)"/>
<ellipse cx="46.4598" cy="43.2971" rx="46.4598" ry="43.2971" transform="matrix(-1 0 0 1 176.767 1359.03)" fill="url(#paint5_radial_891_6299)"/>
<ellipse cx="46.4598" cy="43.2971" rx="46.4598" ry="43.2971" transform="matrix(-1 0 0 1 176.767 1359.03)" fill="url(#paint6_radial_891_6299)"/>
<ellipse cx="46.4598" cy="43.2971" rx="46.4598" ry="43.2971" transform="matrix(-1 0 0 1 288.27 1278.5)" fill="url(#paint7_radial_891_6299)"/>
<ellipse cx="46.4598" cy="43.2971" rx="46.4598" ry="43.2971" transform="matrix(-1 0 0 1 218.581 1307.08)" fill="url(#paint8_radial_891_6299)"/>
<ellipse cx="46.4598" cy="43.2971" rx="46.4598" ry="43.2971" transform="matrix(-1 0 0 1 108.935 1376.35)" fill="url(#paint9_radial_891_6299)"/>
<path d="M19.7328 1399.73C-21.1518 1290.28 17.5647 1211.53 42.0335 1185.85L241.811 1244.3L367.252 1213.99L315.217 1443.9L225.55 1473.34L19.7328 1399.73Z" fill="#C5E5EC" fill-opacity="0.2"/>
<path d="M443.446 1159L237.165 1112.67L62.0115 1146.01C39.3391 1150.33 38.0073 1175.23 40.1754 1187.14L237.165 1246.03L335.66 1231.31C345.323 1397.57 265.66 1461.36 224.621 1472.47L18.8039 1399.73L6.7244 1427.88L18.8039 1542.61L43.8922 1574.65V1663.84L224.621 1757.8H261.789L443.446 1666.88V1159Z" fill="#F7E9BB"/>
<path d="M43.8926 1678.31C43.8926 1682.39 46.3731 1686.06 50.1592 1687.58L224.621 1757.8H261.789L436.652 1698.62C440.713 1697.24 443.446 1693.43 443.446 1689.14V1630.02L251.102 1682.89H217.187L43.8926 1615.96V1678.31ZM62.0117 1146.01C47.933 1148.69 42.0852 1159.31 40.1924 1169.83L245.062 1223.51L442.98 1185.41L443.446 1185.33V1159L237.165 1112.67L62.0117 1146.01Z" fill="#B03A3A"/>
<path d="M38.8394 1468.54L25.6493 1463.89C24.3482 1463.43 22.9842 1464.39 22.9842 1465.77V1489.45C22.9842 1490.19 23.394 1490.87 24.0491 1491.22L37.2392 1498.2C38.5712 1498.9 40.1743 1497.94 40.1743 1496.43V1470.42C40.1743 1469.58 39.6393 1468.82 38.8394 1468.54Z" fill="#575252"/>
<ellipse cx="28.799" cy="21.6439" rx="28.799" ry="21.6439" transform="matrix(-0.667676 -0.744452 -0.788916 0.614501 126.125 1509.72)" fill="#593636"/>
<ellipse cx="28.799" cy="21.6439" rx="28.799" ry="21.6439" transform="matrix(-0.667676 -0.744452 -0.788916 0.614501 120.549 1509.72)" fill="#B03A3A"/>
<path d="M94.125 1487.8L94.6131 1488.37C96.1822 1490.2 96.2249 1492.88 94.7145 1494.76L77.9145 1515.64C76.9654 1516.81 75.5331 1517.5 74.0192 1517.5H66.0314C64.9306 1517.5 63.8605 1517.14 62.9872 1516.47L60.9652 1514.92C58.5667 1513.07 58.338 1509.54 60.4793 1507.41L75.7266 1492.21C76.1802 1491.75 76.7166 1491.39 77.3064 1491.14L88.3809 1486.45C90.3847 1485.6 92.7075 1486.15 94.125 1487.8Z" fill="#D34141"/>
<path d="M154.93 1554.75C169.426 1555.44 169.333 1585.92 167.474 1601.08L192.098 1626.19L127.519 1605.84L108.935 1582.89C106.058 1546.69 122.408 1545.08 132.165 1548.69L154.93 1554.75Z" fill="#392828" stroke="black"/>
<path d="M32.2769 1469.44L29.4893 1468.14V1490.66L32.2769 1491.96V1469.44Z" fill="#0A0606"/>
<path d="M258.429 1196.45C309.35 1183.08 416.918 1158.69 441.945 1157.33C443.044 1157.27 443.915 1158.16 443.92 1159.26L446.228 1691.83C446.231 1692.7 445.675 1693.47 444.85 1693.74L251.723 1756.99C250.473 1757.4 249.174 1756.51 249.103 1755.2L242.79 1638.79C242.758 1638.2 242.471 1637.66 242.004 1637.31L220.764 1621.15C220.267 1620.77 219.975 1620.18 219.975 1619.56V1464.54C219.975 1464.34 219.946 1464.15 219.891 1463.97C190.105 1363.76 232.098 1245.07 257.212 1197.42C257.472 1196.92 257.89 1196.6 258.429 1196.45Z" fill="#594D4D" fill-opacity="0.2"/>
<ellipse cx="89.2724" cy="25.3678" rx="89.2724" ry="25.3678" transform="matrix(-0.967306 -0.253612 -0.289005 0.957328 209.083 1253.85)" fill="#D9D9D9" fill-opacity="0.8"/>
<path d="M25.4672 846.613C-15.4174 737.159 23.2991 658.416 47.7679 632.726L247.545 691.177L372.986 660.869L320.951 890.776L231.284 920.218L25.4672 846.613Z" fill="#D0D5D6" fill-opacity="0.6"/>
<ellipse cx="46.4598" cy="43.2971" rx="46.4598" ry="43.2971" transform="matrix(-1 0 0 1 267.986 781.667)" fill="url(#paint10_radial_891_6299)"/>
<ellipse cx="46.4598" cy="43.2971" rx="46.4598" ry="43.2971" transform="matrix(-1 0 0 1 335.817 785.998)" fill="url(#paint11_radial_891_6299)"/>
<ellipse cx="46.4598" cy="43.2971" rx="46.4598" ry="43.2971" transform="matrix(-1 0 0 1 238.252 840.552)" fill="url(#paint12_radial_891_6299)"/>
<ellipse cx="46.4598" cy="43.2971" rx="46.4598" ry="43.2971" transform="matrix(-1 0 0 1 295.862 840.552)" fill="url(#paint13_radial_891_6299)"/>
<ellipse cx="46.4598" cy="43.2971" rx="46.4598" ry="43.2971" transform="matrix(-1 0 0 1 143.475 762.618)" fill="url(#paint14_radial_891_6299)"/>
<ellipse cx="46.4598" cy="43.2971" rx="46.4598" ry="43.2971" transform="matrix(-1 0 0 1 184.359 805.914)" fill="url(#paint15_radial_891_6299)"/>
<ellipse cx="46.4598" cy="43.2971" rx="46.4598" ry="43.2971" transform="matrix(-1 0 0 1 184.359 805.914)" fill="url(#paint16_radial_891_6299)"/>
<ellipse cx="46.4598" cy="43.2971" rx="46.4598" ry="43.2971" transform="matrix(-1 0 0 1 295.862 725.382)" fill="url(#paint17_radial_891_6299)"/>
<ellipse cx="46.4598" cy="43.2971" rx="46.4598" ry="43.2971" transform="matrix(-1 0 0 1 226.173 753.958)" fill="url(#paint18_radial_891_6299)"/>
<ellipse cx="46.4598" cy="43.2971" rx="46.4598" ry="43.2971" transform="matrix(-1 0 0 1 116.527 823.233)" fill="url(#paint19_radial_891_6299)"/>
<path d="M27.3241 846.613C-13.5605 737.159 25.156 658.416 49.6248 632.726L249.402 691.177L374.843 660.869L322.808 890.776L233.141 920.218L27.3241 846.613Z" fill="#C5E5EC" fill-opacity="0.2"/>
<path d="M451.039 605.882L244.757 559.554L69.6038 592.893C46.9314 597.208 45.5996 622.112 47.7677 634.025L244.757 692.909L343.252 678.188C352.916 844.449 273.253 908.24 232.213 919.353L26.3962 846.614L14.3167 874.757L26.3962 989.494L51.4845 1021.53V1110.73L232.213 1204.68H269.381L451.039 1113.76V605.882Z" fill="#F7E9BB"/>
<path d="M258.694 1129.78H224.779L51.4839 1079.34V1140.1C51.4839 1144.46 54.3085 1148.32 58.4644 1149.64L232.212 1204.68H269.38L444.245 1145.5C448.306 1144.12 451.039 1140.31 451.039 1136.02V1076.9L258.694 1129.78ZM69.604 592.892C55.5247 595.572 49.6763 606.192 47.7837 616.709L252.655 670.394L450.573 632.292L451.039 632.212V605.881L244.757 559.554L69.604 592.892Z" fill="#2B8F94"/>
<path d="M46.4332 915.418L33.2431 910.766C31.9419 910.308 30.5779 911.273 30.5779 912.653V936.332C30.5779 937.073 30.9877 937.754 31.6428 938.1L44.833 945.077C46.1649 945.781 47.7681 944.816 47.7681 943.309V917.304C47.7681 916.456 47.2331 915.7 46.4332 915.418Z" fill="#575252"/>
<ellipse cx="28.799" cy="21.6439" rx="28.799" ry="21.6439" transform="matrix(-0.667676 -0.744452 -0.788916 0.614501 133.717 956.601)" fill="#593636"/>
<ellipse cx="28.799" cy="21.6439" rx="28.799" ry="21.6439" transform="matrix(-0.667676 -0.744452 -0.788916 0.614501 128.142 956.601)" fill="#2B8F94"/>
<path d="M101.717 934.679L102.205 935.248C103.775 937.076 103.817 939.762 102.307 941.639L85.5068 962.514C84.5576 963.694 83.1253 964.38 81.6115 964.38H73.6237C72.5228 964.38 71.4528 964.016 70.5795 963.346L68.5575 961.794C66.1589 959.953 65.9303 956.421 68.0715 954.287L83.3189 939.086C83.7725 938.634 84.3089 938.273 84.8987 938.023L95.9732 933.332C97.977 932.483 100.3 933.028 101.717 934.679Z" fill="#455F42"/>
<path d="M162.523 1001.63C177.018 1002.32 176.925 1032.8 175.067 1047.96L199.69 1073.07L135.111 1052.72L116.527 1029.77C113.65 993.568 130.001 991.959 139.757 995.567L162.523 1001.63Z" fill="#392828" stroke="black"/>
<path d="M39.8687 916.322L37.0811 915.023V937.537L39.8687 938.836V916.322Z" fill="#0A0606"/>
<path d="M266.021 643.335C316.942 629.96 424.51 605.575 449.537 604.211C450.636 604.151 451.507 605.041 451.511 606.142L453.819 1138.71C453.823 1139.58 453.267 1140.35 452.442 1140.62L259.315 1203.87C258.064 1204.28 256.766 1203.39 256.695 1202.08L250.382 1085.67C250.35 1085.09 250.063 1084.54 249.596 1084.19L228.356 1068.03C227.858 1067.65 227.567 1067.06 227.567 1066.44V911.419C227.567 911.225 227.538 911.032 227.483 910.847C197.697 810.638 239.689 691.953 264.803 644.299C265.063 643.805 265.482 643.477 266.021 643.335Z" fill="#594D4D" fill-opacity="0.2"/>
<ellipse cx="89.2724" cy="25.3678" rx="89.2724" ry="25.3678" transform="matrix(-0.967306 -0.253612 -0.289005 0.957328 216.674 700.728)" fill="#D9D9D9" fill-opacity="0.8"/>
<path d="M253.439 1575.48C212.555 1466.03 251.271 1387.28 275.74 1361.59L475.517 1420.04L600.958 1389.74L548.924 1619.64L459.256 1649.09L253.439 1575.48Z" fill="#D0D5D6" fill-opacity="0.6"/>
<ellipse cx="46.4598" cy="43.2971" rx="46.4598" ry="43.2971" transform="matrix(-1 0 0 1 495.96 1510.53)" fill="url(#paint20_radial_891_6299)"/>
<ellipse cx="46.4598" cy="43.2971" rx="46.4598" ry="43.2971" transform="matrix(-1 0 0 1 466.225 1569.42)" fill="url(#paint21_radial_891_6299)"/>
<ellipse cx="46.4598" cy="43.2971" rx="46.4598" ry="43.2971" transform="matrix(-1 0 0 1 371.448 1491.48)" fill="url(#paint22_radial_891_6299)"/>
<ellipse cx="46.4598" cy="43.2971" rx="46.4598" ry="43.2971" transform="matrix(-1 0 0 1 412.333 1534.78)" fill="url(#paint23_radial_891_6299)"/>
<ellipse cx="46.4598" cy="43.2971" rx="46.4598" ry="43.2971" transform="matrix(-1 0 0 1 412.333 1534.78)" fill="url(#paint24_radial_891_6299)"/>
<ellipse cx="46.4598" cy="43.2971" rx="46.4598" ry="43.2971" transform="matrix(-1 0 0 1 454.146 1482.82)" fill="url(#paint25_radial_891_6299)"/>
<ellipse cx="46.4598" cy="43.2971" rx="46.4598" ry="43.2971" transform="matrix(-1 0 0 1 344.501 1552.1)" fill="url(#paint26_radial_891_6299)"/>
<path d="M255.298 1575.48C214.414 1466.03 253.13 1387.28 277.599 1361.59L477.376 1420.04L602.817 1389.74L550.782 1619.64L461.115 1649.09L255.298 1575.48Z" fill="#C5E5EC" fill-opacity="0.2"/>
<path d="M679.013 1334.75L472.731 1288.42L297.578 1321.76C274.906 1326.08 273.574 1350.98 275.742 1362.89L472.731 1421.78L571.226 1407.06C580.89 1573.32 501.227 1637.11 460.187 1648.22L254.37 1575.48L242.291 1603.62L254.37 1718.36L279.459 1750.4V1839.59L460.187 1933.55H497.355L679.013 1842.62V1334.75Z" fill="#F7E9BB"/>
<path d="M279.459 1854.05C279.459 1858.13 281.939 1861.81 285.726 1863.33L460.188 1933.55H497.355L672.219 1874.36C676.28 1872.99 679.013 1869.18 679.013 1864.89V1805.77L486.669 1858.64H452.753L279.459 1791.71V1854.05ZM297.578 1321.76C283.499 1324.44 277.651 1335.06 275.759 1345.58L480.629 1399.26L678.548 1361.16L679.013 1361.08V1334.75L472.731 1288.42L297.578 1321.76Z" fill="#B03A3A"/>
<path d="M274.406 1644.29L261.216 1639.64C259.915 1639.18 258.551 1640.15 258.551 1641.53V1665.21C258.551 1665.95 258.961 1666.63 259.616 1666.98L272.806 1673.95C274.138 1674.66 275.741 1673.69 275.741 1672.18V1646.18C275.741 1645.33 275.206 1644.58 274.406 1644.29Z" fill="#575252"/>
<ellipse cx="28.799" cy="21.6439" rx="28.799" ry="21.6439" transform="matrix(-0.667676 -0.744452 -0.788916 0.614501 361.69 1685.48)" fill="#593636"/>
<ellipse cx="28.799" cy="21.6439" rx="28.799" ry="21.6439" transform="matrix(-0.667676 -0.744452 -0.788916 0.614501 356.116 1685.48)" fill="#B03A3A"/>
<path d="M329.69 1663.56L330.178 1664.13C331.747 1665.95 331.79 1668.64 330.279 1670.52L313.479 1691.39C312.53 1692.57 311.098 1693.26 309.584 1693.26H301.596C300.496 1693.26 299.425 1692.9 298.552 1692.22L296.53 1690.67C294.132 1688.83 293.903 1685.3 296.044 1683.17L311.292 1667.96C311.745 1667.51 312.282 1667.15 312.871 1666.9L323.946 1662.21C325.95 1661.36 328.272 1661.91 329.69 1663.56Z" fill="#D34141"/>
<path d="M390.496 1730.5C404.991 1731.2 404.898 1761.68 403.04 1776.83L427.664 1801.94L363.084 1781.6L344.501 1758.65C341.623 1722.44 357.974 1720.84 367.73 1724.44L390.496 1730.5Z" fill="#392828" stroke="black"/>
<path d="M267.842 1645.2L265.055 1643.9V1666.41L267.842 1667.71V1645.2Z" fill="#0A0606"/>
<ellipse cx="89.2724" cy="25.3678" rx="89.2724" ry="25.3678" transform="matrix(-0.967306 -0.253612 -0.289005 0.957328 444.648 1429.6)" fill="#D9D9D9"/>
<path d="M267.415 1023.12C226.531 913.664 265.247 834.922 289.716 809.232L489.493 867.683L614.935 837.375L562.9 1067.28L473.232 1096.72L267.415 1023.12Z" fill="#D0D5D6" fill-opacity="0.6"/>
<ellipse cx="46.4598" cy="43.2971" rx="46.4598" ry="43.2971" transform="matrix(-1 0 0 1 480.201 1017.06)" fill="url(#paint27_radial_891_6299)"/>
<ellipse cx="46.4598" cy="43.2971" rx="46.4598" ry="43.2971" transform="matrix(-1 0 0 1 385.423 939.123)" fill="url(#paint28_radial_891_6299)"/>
<ellipse cx="46.4598" cy="43.2971" rx="46.4598" ry="43.2971" transform="matrix(-1 0 0 1 426.307 982.419)" fill="url(#paint29_radial_891_6299)"/>
<ellipse cx="46.4598" cy="43.2971" rx="46.4598" ry="43.2971" transform="matrix(-1 0 0 1 426.307 982.419)" fill="url(#paint30_radial_891_6299)"/>
<ellipse cx="46.4598" cy="43.2971" rx="46.4598" ry="43.2971" transform="matrix(-1 0 0 1 468.122 930.462)" fill="url(#paint31_radial_891_6299)"/>
<ellipse cx="46.4598" cy="43.2971" rx="46.4598" ry="43.2971" transform="matrix(-1 0 0 1 358.476 999.738)" fill="url(#paint32_radial_891_6299)"/>
<path d="M269.273 1023.12C228.389 913.664 267.105 834.922 291.574 809.232L491.351 867.683L616.792 837.375L564.758 1067.28L475.09 1096.72L269.273 1023.12Z" fill="#C5E5EC" fill-opacity="0.2"/>
<path d="M692.987 782.386L486.705 736.058L311.552 769.397C288.88 773.712 287.548 798.616 289.716 810.529L486.705 869.413L585.2 854.692C594.864 1020.95 515.201 1084.74 474.161 1095.86L268.344 1023.12L256.265 1051.26L268.344 1166L293.433 1198.04V1287.23L474.161 1381.18H511.329L692.987 1290.26V782.386Z" fill="#F7E9BB"/>
<path d="M500.643 1306.28H466.727L293.432 1255.85V1316.61C293.432 1320.97 296.257 1324.82 300.413 1326.14L474.162 1381.18H511.329L686.193 1322C690.254 1320.63 692.987 1316.82 692.987 1312.53V1253.41L500.643 1306.28ZM311.552 769.397C297.472 772.077 291.624 782.697 289.732 793.215L494.603 846.9L692.522 808.798L692.987 808.718V782.386L486.706 736.058L311.552 769.397Z" fill="#2B8F94"/>
<path d="M288.381 1091.92L275.191 1087.27C273.89 1086.81 272.526 1087.78 272.526 1089.16V1112.84C272.526 1113.58 272.935 1114.26 273.591 1114.61L286.781 1121.58C288.113 1122.29 289.716 1121.32 289.716 1119.81V1093.81C289.716 1092.96 289.181 1092.21 288.381 1091.92Z" fill="#575252"/>
<ellipse cx="28.799" cy="21.6439" rx="28.799" ry="21.6439" transform="matrix(-0.667676 -0.744452 -0.788916 0.614501 375.666 1133.11)" fill="#593636"/>
<ellipse cx="28.799" cy="21.6439" rx="28.799" ry="21.6439" transform="matrix(-0.667676 -0.744452 -0.788916 0.614501 370.09 1133.11)" fill="#2B8F94"/>
<path d="M343.666 1111.19L344.154 1111.75C345.723 1113.58 345.766 1116.27 344.255 1118.15L327.455 1139.02C326.506 1140.2 325.074 1140.89 323.56 1140.89H315.572C314.472 1140.89 313.402 1140.52 312.528 1139.85L310.506 1138.3C308.108 1136.46 307.879 1132.93 310.02 1130.79L325.268 1115.59C325.721 1115.14 326.258 1114.78 326.847 1114.53L337.922 1109.84C339.926 1108.99 342.248 1109.53 343.666 1111.19Z" fill="#455F42"/>
<path d="M404.471 1178.14C418.967 1178.83 418.874 1209.31 417.015 1224.46L441.639 1249.58L377.06 1229.23L358.476 1206.28C355.599 1170.07 371.949 1168.47 381.706 1172.07L404.471 1178.14Z" fill="#392828" stroke="black"/>
<path d="M281.817 1092.83L279.03 1091.53V1114.04L281.817 1115.34V1092.83Z" fill="#0A0606"/>
<ellipse cx="89.2724" cy="25.3678" rx="89.2724" ry="25.3678" transform="matrix(-0.967306 -0.253612 -0.289005 0.957328 458.623 877.233)" fill="#D9D9D9"/>
<path d="M55.8383 287.059C14.9537 177.604 53.6702 98.8615 78.139 73.1719L277.916 131.623L403.357 101.315L351.322 331.222L261.655 360.664L55.8383 287.059Z" fill="#D0D5D6" fill-opacity="0.6"/>
<ellipse cx="46.4598" cy="43.2971" rx="46.4598" ry="43.2971" transform="matrix(-1 0 0 1 298.357 222.113)" fill="url(#paint33_radial_891_6299)"/>
<ellipse cx="46.4598" cy="43.2971" rx="46.4598" ry="43.2971" transform="matrix(-1 0 0 1 366.188 226.443)" fill="url(#paint34_radial_891_6299)"/>
<ellipse cx="46.4598" cy="43.2971" rx="46.4598" ry="43.2971" transform="matrix(-1 0 0 1 268.623 280.998)" fill="url(#paint35_radial_891_6299)"/>
<ellipse cx="46.4598" cy="43.2971" rx="46.4598" ry="43.2971" transform="matrix(-1 0 0 1 326.233 280.998)" fill="url(#paint36_radial_891_6299)"/>
<ellipse cx="46.4598" cy="43.2971" rx="46.4598" ry="43.2971" transform="matrix(-1 0 0 1 173.846 203.063)" fill="url(#paint37_radial_891_6299)"/>
<ellipse cx="46.4598" cy="43.2971" rx="46.4598" ry="43.2971" transform="matrix(-1 0 0 1 214.73 246.36)" fill="url(#paint38_radial_891_6299)"/>
<ellipse cx="46.4598" cy="43.2971" rx="46.4598" ry="43.2971" transform="matrix(-1 0 0 1 214.73 246.36)" fill="url(#paint39_radial_891_6299)"/>
<ellipse cx="46.4598" cy="43.2971" rx="46.4598" ry="43.2971" transform="matrix(-1 0 0 1 326.233 165.828)" fill="url(#paint40_radial_891_6299)"/>
<ellipse cx="46.4598" cy="43.2971" rx="46.4598" ry="43.2971" transform="matrix(-1 0 0 1 256.544 194.403)" fill="url(#paint41_radial_891_6299)"/>
<ellipse cx="46.4598" cy="43.2971" rx="46.4598" ry="43.2971" transform="matrix(-1 0 0 1 146.898 263.679)" fill="url(#paint42_radial_891_6299)"/>
<path d="M57.6952 287.059C16.8106 177.604 55.5271 98.8615 79.9959 73.1719L279.773 131.623L405.214 101.315L353.179 331.222L263.512 360.664L57.6952 287.059Z" fill="#C5E5EC" fill-opacity="0.2"/>
<path d="M481.41 46.3278L275.128 0L99.9749 33.3387C77.3025 37.6542 75.9707 62.5583 78.1388 74.4709L275.128 133.355L373.623 118.634C383.287 284.895 303.624 348.686 262.584 359.798L56.7673 287.059L44.6878 315.202L56.7673 429.94L81.8556 461.979V551.171L262.584 645.126H299.752L481.41 554.202V46.3278Z" fill="#F7E9BB"/>
<path d="M289.065 570.222H255.15L81.856 519.789V580.55C81.856 584.909 84.6797 588.766 88.8354 590.083L262.584 645.126H299.752L474.616 585.943C478.677 584.569 481.41 580.759 481.41 576.472V517.349L289.065 570.222ZM99.9751 33.3389C85.8957 36.0187 80.0473 46.6386 78.1548 57.1562L283.026 110.841L480.944 72.7393L481.41 72.6592V46.3281L275.128 0L99.9751 33.3389Z" fill="#B03A3A"/>
<path d="M76.8043 355.864L63.6141 351.213C62.313 350.754 60.949 351.719 60.949 353.099V376.778C60.949 377.519 61.3588 378.2 62.0139 378.546L75.204 385.523C76.536 386.227 78.1392 385.262 78.1392 383.755V357.75C78.1392 356.902 77.6042 356.146 76.8043 355.864Z" fill="#575252"/>
<ellipse cx="28.799" cy="21.6439" rx="28.799" ry="21.6439" transform="matrix(-0.667676 -0.744452 -0.788916 0.614501 164.088 397.047)" fill="#593636"/>
<ellipse cx="28.799" cy="21.6439" rx="28.799" ry="21.6439" transform="matrix(-0.667676 -0.744452 -0.788916 0.614501 158.513 397.047)" fill="#B03A3A"/>
<path d="M132.088 375.125L132.576 375.693C134.146 377.521 134.188 380.208 132.678 382.085L115.878 402.96C114.929 404.139 113.496 404.825 111.983 404.825H103.995C102.894 404.825 101.824 404.462 100.951 403.792L98.9286 402.24C96.53 400.399 96.3014 396.867 98.4426 394.733L113.69 379.532C114.144 379.08 114.68 378.719 115.27 378.469L126.344 373.778C128.348 372.929 130.671 373.474 132.088 375.125Z" fill="#D34141"/>
<path d="M192.894 442.075C207.389 442.768 207.296 473.249 205.438 488.403L230.062 513.515L165.482 493.165L146.899 470.218C144.021 434.014 160.372 432.405 170.128 436.013L192.894 442.075Z" fill="#392828" stroke="black"/>
<path d="M70.2397 356.768L67.4522 355.469V377.983L70.2397 379.282V356.768Z" fill="#0A0606"/>
<path d="M296.392 83.7808C347.313 70.406 454.881 46.0206 479.908 44.6564C481.007 44.5965 481.878 45.4868 481.882 46.588L484.19 579.158C484.194 580.026 483.638 580.797 482.813 581.067L289.686 644.315C288.435 644.724 287.137 643.836 287.066 642.523L280.753 526.117C280.721 525.532 280.434 524.989 279.967 524.634L258.727 508.475C258.23 508.097 257.938 507.508 257.938 506.884V351.865C257.938 351.671 257.909 351.478 257.854 351.292C228.068 251.084 270.06 132.399 295.174 84.7445C295.434 84.2512 295.853 83.9224 296.392 83.7808Z" fill="#594D4D" fill-opacity="0.2"/>
<ellipse cx="89.2724" cy="25.3678" rx="89.2724" ry="25.3678" transform="matrix(-0.967306 -0.253612 -0.289005 0.957328 247.045 141.174)" fill="#D9D9D9" fill-opacity="0.8"/>
<path d="M297.798 463.564C256.914 354.109 295.63 275.366 320.099 249.677L519.876 308.128L645.317 277.82L593.282 507.727L503.615 537.169L297.798 463.564Z" fill="#D0D5D6" fill-opacity="0.6"/>
<ellipse cx="46.4598" cy="43.2971" rx="46.4598" ry="43.2971" transform="matrix(-1 0 0 1 415.806 379.567)" fill="url(#paint43_radial_891_6299)"/>
<ellipse cx="46.4598" cy="43.2971" rx="46.4598" ry="43.2971" transform="matrix(-1 0 0 1 456.69 422.864)" fill="url(#paint44_radial_891_6299)"/>
<ellipse cx="46.4598" cy="43.2971" rx="46.4598" ry="43.2971" transform="matrix(-1 0 0 1 456.69 422.864)" fill="url(#paint45_radial_891_6299)"/>
<ellipse cx="46.4598" cy="43.2971" rx="46.4598" ry="43.2971" transform="matrix(-1 0 0 1 498.504 370.907)" fill="url(#paint46_radial_891_6299)"/>
<ellipse cx="46.4598" cy="43.2971" rx="46.4598" ry="43.2971" transform="matrix(-1 0 0 1 388.858 440.183)" fill="url(#paint47_radial_891_6299)"/>
<path d="M299.657 463.564C258.772 354.109 297.489 275.366 321.957 249.677L521.734 308.128L647.176 277.82L595.141 507.727L505.473 537.169L299.657 463.564Z" fill="#C5E5EC" fill-opacity="0.2"/>
<path d="M723.37 222.831L517.089 176.503L341.935 209.842C319.263 214.157 317.931 239.061 320.099 250.974L517.089 309.858L615.583 295.137C625.247 461.397 545.584 525.188 504.545 536.301L298.728 463.562L286.648 491.705L298.728 606.443L323.816 638.482V727.674L504.545 821.629H541.712L723.37 730.705V222.831Z" fill="#F7E9BB"/>
<path d="M531.026 746.726H497.11L323.815 696.292V757.053C323.815 761.412 326.64 765.269 330.796 766.586L504.544 821.629H541.712L716.575 762.446C720.636 761.072 723.37 757.261 723.37 752.974V693.853L531.026 746.726ZM341.935 209.842C327.855 212.522 322.008 223.142 320.115 233.659L524.986 287.344L722.905 249.242L723.37 249.162V222.83L517.088 176.503L341.935 209.842Z" fill="#B03A3A"/>
<path d="M318.764 532.368L305.574 527.717C304.272 527.258 302.909 528.223 302.909 529.603V553.282C302.909 554.023 303.318 554.704 303.973 555.05L317.164 562.027C318.495 562.731 320.099 561.766 320.099 560.259V534.254C320.099 533.406 319.564 532.65 318.764 532.368Z" fill="#575252"/>
<ellipse cx="28.799" cy="21.6439" rx="28.799" ry="21.6439" transform="matrix(-0.667676 -0.744452 -0.788916 0.614501 406.049 573.55)" fill="#593636"/>
<ellipse cx="28.799" cy="21.6439" rx="28.799" ry="21.6439" transform="matrix(-0.667676 -0.744452 -0.788916 0.614501 400.474 573.55)" fill="#B03A3A"/>
<path d="M374.049 551.629L374.537 552.198C376.106 554.026 376.149 556.713 374.638 558.589L357.838 579.465C356.889 580.644 355.457 581.33 353.943 581.33H345.955C344.854 581.33 343.784 580.966 342.911 580.296L340.889 578.744C338.49 576.904 338.262 573.372 340.403 571.237L355.65 556.036C356.104 555.584 356.64 555.223 357.23 554.973L368.305 550.282C370.309 549.433 372.631 549.978 374.049 551.629Z" fill="#D34141"/>
<path d="M434.855 618.58C449.35 619.273 449.257 649.754 447.399 664.908L472.022 690.02L407.443 669.67L388.859 646.723C385.982 610.519 402.333 608.91 412.089 612.518L434.855 618.58Z" fill="#392828" stroke="black"/>
<path d="M312.201 533.273L309.413 531.974V554.489L312.201 555.787V533.273Z" fill="#0A0606"/>
<ellipse cx="89.2724" cy="25.3678" rx="89.2724" ry="25.3678" transform="matrix(-0.967306 -0.253612 -0.289005 0.957328 489.006 317.678)" fill="#D9D9D9"/>
<defs>
<radialGradient id="paint0_radial_891_6299" cx="0" cy="0" r="1" gradientTransform="matrix(2.32299 25.5453 -27.4113 2.16486 60.3977 32.4728)" gradientUnits="userSpaceOnUse">
<stop stop-color="#83CFD3"/>
<stop offset="1" stop-color="#2B8F94"/>
</radialGradient>
<radialGradient id="paint1_radial_891_6299" cx="0" cy="0" r="1" gradientTransform="matrix(2.32299 25.5453 -27.4113 2.16486 60.3977 32.4728)" gradientUnits="userSpaceOnUse">
<stop stop-color="#D34F4F"/>
<stop offset="1" stop-color="#990000"/>
</radialGradient>
<radialGradient id="paint2_radial_891_6299" cx="0" cy="0" r="1" gradientTransform="matrix(2.32299 25.5453 -27.4113 2.16486 60.3977 32.4728)" gradientUnits="userSpaceOnUse">
<stop stop-color="#D34F4F"/>
<stop offset="1" stop-color="#990000"/>
</radialGradient>
<radialGradient id="paint3_radial_891_6299" cx="0" cy="0" r="1" gradientTransform="matrix(2.32299 25.5453 -27.4113 2.16486 60.3977 32.4728)" gradientUnits="userSpaceOnUse">
<stop stop-color="#83CFD3"/>
<stop offset="1" stop-color="#2B8F94"/>
</radialGradient>
<radialGradient id="paint4_radial_891_6299" cx="0" cy="0" r="1" gradientTransform="matrix(2.32299 25.5453 -27.4113 2.16486 60.3977 32.4728)" gradientUnits="userSpaceOnUse">
<stop stop-color="#83CFD3"/>
<stop offset="1" stop-color="#2B8F94"/>
</radialGradient>
<radialGradient id="paint5_radial_891_6299" cx="0" cy="0" r="1" gradientTransform="matrix(2.32299 25.5453 -27.4113 2.16486 60.3977 32.4728)" gradientUnits="userSpaceOnUse">
<stop stop-color="#6475E5"/>
<stop offset="1" stop-color="#2E42C6"/>
</radialGradient>
<radialGradient id="paint6_radial_891_6299" cx="0" cy="0" r="1" gradientTransform="matrix(2.32299 25.5453 -27.4113 2.16486 60.3977 32.4728)" gradientUnits="userSpaceOnUse">
<stop stop-color="#6475E5"/>
<stop offset="1" stop-color="#2E42C6"/>
</radialGradient>
<radialGradient id="paint7_radial_891_6299" cx="0" cy="0" r="1" gradientTransform="matrix(2.32299 25.5453 -27.4113 2.16486 60.3977 32.4728)" gradientUnits="userSpaceOnUse">
<stop stop-color="#6475E5"/>
<stop offset="1" stop-color="#2E42C6"/>
</radialGradient>
<radialGradient id="paint8_radial_891_6299" cx="0" cy="0" r="1" gradientTransform="matrix(2.32299 25.5453 -27.4113 2.16486 60.3977 32.4728)" gradientUnits="userSpaceOnUse">
<stop stop-color="#E4AC2A"/>
<stop offset="1" stop-color="#C0791B"/>
</radialGradient>
<radialGradient id="paint9_radial_891_6299" cx="0" cy="0" r="1" gradientTransform="matrix(2.32299 25.5453 -27.4113 2.16486 60.3977 32.4728)" gradientUnits="userSpaceOnUse">
<stop stop-color="#E4AC2A"/>
<stop offset="1" stop-color="#C0791B"/>
</radialGradient>
<radialGradient id="paint10_radial_891_6299" cx="0" cy="0" r="1" gradientTransform="matrix(2.32299 25.5453 -27.4113 2.16486 60.3977 32.4728)" gradientUnits="userSpaceOnUse">
<stop stop-color="#83CFD3"/>
<stop offset="1" stop-color="#2B8F94"/>
</radialGradient>
<radialGradient id="paint11_radial_891_6299" cx="0" cy="0" r="1" gradientTransform="matrix(2.32299 25.5453 -27.4113 2.16486 60.3977 32.4728)" gradientUnits="userSpaceOnUse">
<stop stop-color="#D34F4F"/>
<stop offset="1" stop-color="#990000"/>
</radialGradient>
<radialGradient id="paint12_radial_891_6299" cx="0" cy="0" r="1" gradientTransform="matrix(2.32299 25.5453 -27.4113 2.16486 60.3977 32.4728)" gradientUnits="userSpaceOnUse">
<stop stop-color="#D34F4F"/>
<stop offset="1" stop-color="#990000"/>
</radialGradient>
<radialGradient id="paint13_radial_891_6299" cx="0" cy="0" r="1" gradientTransform="matrix(2.32299 25.5453 -27.4113 2.16486 60.3977 32.4728)" gradientUnits="userSpaceOnUse">
<stop stop-color="#83CFD3"/>
<stop offset="1" stop-color="#2B8F94"/>
</radialGradient>
<radialGradient id="paint14_radial_891_6299" cx="0" cy="0" r="1" gradientTransform="matrix(2.32299 25.5453 -27.4113 2.16486 60.3977 32.4728)" gradientUnits="userSpaceOnUse">
<stop stop-color="#83CFD3"/>
<stop offset="1" stop-color="#2B8F94"/>
</radialGradient>
<radialGradient id="paint15_radial_891_6299" cx="0" cy="0" r="1" gradientTransform="matrix(2.32299 25.5453 -27.4113 2.16486 60.3977 32.4728)" gradientUnits="userSpaceOnUse">
<stop stop-color="#6475E5"/>
<stop offset="1" stop-color="#2E42C6"/>
</radialGradient>
<radialGradient id="paint16_radial_891_6299" cx="0" cy="0" r="1" gradientTransform="matrix(2.32299 25.5453 -27.4113 2.16486 60.3977 32.4728)" gradientUnits="userSpaceOnUse">
<stop stop-color="#6475E5"/>
<stop offset="1" stop-color="#2E42C6"/>
</radialGradient>
<radialGradient id="paint17_radial_891_6299" cx="0" cy="0" r="1" gradientTransform="matrix(2.32299 25.5453 -27.4113 2.16486 60.3977 32.4728)" gradientUnits="userSpaceOnUse">
<stop stop-color="#6475E5"/>
<stop offset="1" stop-color="#2E42C6"/>
</radialGradient>
<radialGradient id="paint18_radial_891_6299" cx="0" cy="0" r="1" gradientTransform="matrix(2.32299 25.5453 -27.4113 2.16486 60.3977 32.4728)" gradientUnits="userSpaceOnUse">
<stop stop-color="#E4AC2A"/>
<stop offset="1" stop-color="#C0791B"/>
</radialGradient>
<radialGradient id="paint19_radial_891_6299" cx="0" cy="0" r="1" gradientTransform="matrix(2.32299 25.5453 -27.4113 2.16486 60.3977 32.4728)" gradientUnits="userSpaceOnUse">
<stop stop-color="#E4AC2A"/>
<stop offset="1" stop-color="#C0791B"/>
</radialGradient>
<radialGradient id="paint20_radial_891_6299" cx="0" cy="0" r="1" gradientTransform="matrix(2.32299 25.5453 -27.4113 2.16486 60.3977 32.4728)" gradientUnits="userSpaceOnUse">
<stop stop-color="#83CFD3"/>
<stop offset="1" stop-color="#2B8F94"/>
</radialGradient>
<radialGradient id="paint21_radial_891_6299" cx="0" cy="0" r="1" gradientTransform="matrix(2.32299 25.5453 -27.4113 2.16486 60.3977 32.4728)" gradientUnits="userSpaceOnUse">
<stop stop-color="#D34F4F"/>
<stop offset="1" stop-color="#990000"/>
</radialGradient>
<radialGradient id="paint22_radial_891_6299" cx="0" cy="0" r="1" gradientTransform="matrix(2.32299 25.5453 -27.4113 2.16486 60.3977 32.4728)" gradientUnits="userSpaceOnUse">
<stop stop-color="#83CFD3"/>
<stop offset="1" stop-color="#2B8F94"/>
</radialGradient>
<radialGradient id="paint23_radial_891_6299" cx="0" cy="0" r="1" gradientTransform="matrix(2.32299 25.5453 -27.4113 2.16486 60.3977 32.4728)" gradientUnits="userSpaceOnUse">
<stop stop-color="#6475E5"/>
<stop offset="1" stop-color="#2E42C6"/>
</radialGradient>
<radialGradient id="paint24_radial_891_6299" cx="0" cy="0" r="1" gradientTransform="matrix(2.32299 25.5453 -27.4113 2.16486 60.3977 32.4728)" gradientUnits="userSpaceOnUse">
<stop stop-color="#6475E5"/>
<stop offset="1" stop-color="#2E42C6"/>
</radialGradient>
<radialGradient id="paint25_radial_891_6299" cx="0" cy="0" r="1" gradientTransform="matrix(2.32299 25.5453 -27.4113 2.16486 60.3977 32.4728)" gradientUnits="userSpaceOnUse">
<stop stop-color="#E4AC2A"/>
<stop offset="1" stop-color="#C0791B"/>
</radialGradient>
<radialGradient id="paint26_radial_891_6299" cx="0" cy="0" r="1" gradientTransform="matrix(2.32299 25.5453 -27.4113 2.16486 60.3977 32.4728)" gradientUnits="userSpaceOnUse">
<stop stop-color="#E4AC2A"/>
<stop offset="1" stop-color="#C0791B"/>
</radialGradient>
<radialGradient id="paint27_radial_891_6299" cx="0" cy="0" r="1" gradientTransform="matrix(2.32299 25.5453 -27.4113 2.16486 60.3977 32.4728)" gradientUnits="userSpaceOnUse">
<stop stop-color="#D34F4F"/>
<stop offset="1" stop-color="#990000"/>
</radialGradient>
<radialGradient id="paint28_radial_891_6299" cx="0" cy="0" r="1" gradientTransform="matrix(2.32299 25.5453 -27.4113 2.16486 60.3977 32.4728)" gradientUnits="userSpaceOnUse">
<stop stop-color="#7DCFD3"/>
<stop offset="1" stop-color="#2B8F94"/>
</radialGradient>
<radialGradient id="paint29_radial_891_6299" cx="0" cy="0" r="1" gradientTransform="matrix(2.32299 25.5453 -27.4113 2.16486 60.3977 32.4728)" gradientUnits="userSpaceOnUse">
<stop stop-color="#6475E5"/>
<stop offset="1" stop-color="#2E42C6"/>
</radialGradient>
<radialGradient id="paint30_radial_891_6299" cx="0" cy="0" r="1" gradientTransform="matrix(2.32299 25.5453 -27.4113 2.16486 60.3977 32.4728)" gradientUnits="userSpaceOnUse">
<stop stop-color="#6475E5"/>
<stop offset="1" stop-color="#2E42C6"/>
</radialGradient>
<radialGradient id="paint31_radial_891_6299" cx="0" cy="0" r="1" gradientTransform="matrix(2.32299 25.5453 -27.4113 2.16486 60.3977 32.4728)" gradientUnits="userSpaceOnUse">
<stop stop-color="#E4AC2A"/>
<stop offset="1" stop-color="#C0791B"/>
</radialGradient>
<radialGradient id="paint32_radial_891_6299" cx="0" cy="0" r="1" gradientTransform="matrix(2.32299 25.5453 -27.4113 2.16486 60.3977 32.4728)" gradientUnits="userSpaceOnUse">
<stop stop-color="#E4AC2A"/>
<stop offset="1" stop-color="#C0791B"/>
</radialGradient>
<radialGradient id="paint33_radial_891_6299" cx="0" cy="0" r="1" gradientTransform="matrix(2.32299 25.5453 -27.4113 2.16486 60.3977 32.4728)" gradientUnits="userSpaceOnUse">
<stop stop-color="#83CFD3"/>
<stop offset="1" stop-color="#2B8F94"/>
</radialGradient>
<radialGradient id="paint34_radial_891_6299" cx="0" cy="0" r="1" gradientTransform="matrix(2.32299 25.5453 -27.4113 2.16486 60.3977 32.4728)" gradientUnits="userSpaceOnUse">
<stop stop-color="#D34F4F"/>
<stop offset="1" stop-color="#990000"/>
</radialGradient>
<radialGradient id="paint35_radial_891_6299" cx="0" cy="0" r="1" gradientTransform="matrix(2.32299 25.5453 -27.4113 2.16486 60.3977 32.4728)" gradientUnits="userSpaceOnUse">
<stop stop-color="#D34F4F"/>
<stop offset="1" stop-color="#990000"/>
</radialGradient>
<radialGradient id="paint36_radial_891_6299" cx="0" cy="0" r="1" gradientTransform="matrix(2.32299 25.5453 -27.4113 2.16486 60.3977 32.4728)" gradientUnits="userSpaceOnUse">
<stop stop-color="#83CFD3"/>
<stop offset="1" stop-color="#2B8F94"/>
</radialGradient>
<radialGradient id="paint37_radial_891_6299" cx="0" cy="0" r="1" gradientTransform="matrix(2.32299 25.5453 -27.4113 2.16486 60.3977 32.4728)" gradientUnits="userSpaceOnUse">
<stop stop-color="#83CFD3"/>
<stop offset="1" stop-color="#2B8F94"/>
</radialGradient>
<radialGradient id="paint38_radial_891_6299" cx="0" cy="0" r="1" gradientTransform="matrix(2.32299 25.5453 -27.4113 2.16486 60.3977 32.4728)" gradientUnits="userSpaceOnUse">
<stop stop-color="#6475E5"/>
<stop offset="1" stop-color="#2E42C6"/>
</radialGradient>
<radialGradient id="paint39_radial_891_6299" cx="0" cy="0" r="1" gradientTransform="matrix(2.32299 25.5453 -27.4113 2.16486 60.3977 32.4728)" gradientUnits="userSpaceOnUse">
<stop stop-color="#6475E5"/>
<stop offset="1" stop-color="#2E42C6"/>
</radialGradient>
<radialGradient id="paint40_radial_891_6299" cx="0" cy="0" r="1" gradientTransform="matrix(2.32299 25.5453 -27.4113 2.16486 60.3977 32.4728)" gradientUnits="userSpaceOnUse">
<stop stop-color="#6475E5"/>
<stop offset="1" stop-color="#2E42C6"/>
</radialGradient>
<radialGradient id="paint41_radial_891_6299" cx="0" cy="0" r="1" gradientTransform="matrix(2.32299 25.5453 -27.4113 2.16486 60.3977 32.4728)" gradientUnits="userSpaceOnUse">
<stop stop-color="#E4AC2A"/>
<stop offset="1" stop-color="#C0791B"/>
</radialGradient>
<radialGradient id="paint42_radial_891_6299" cx="0" cy="0" r="1" gradientTransform="matrix(2.32299 25.5453 -27.4113 2.16486 60.3977 32.4728)" gradientUnits="userSpaceOnUse">
<stop stop-color="#E4AC2A"/>
<stop offset="1" stop-color="#C0791B"/>
</radialGradient>
<radialGradient id="paint43_radial_891_6299" cx="0" cy="0" r="1" gradientTransform="matrix(2.32299 25.5453 -27.4113 2.16486 60.3977 32.4728)" gradientUnits="userSpaceOnUse">
<stop stop-color="#7DCFD3"/>
<stop offset="1" stop-color="#2B8F94"/>
</radialGradient>
<radialGradient id="paint44_radial_891_6299" cx="0" cy="0" r="1" gradientTransform="matrix(2.32299 25.5453 -27.4113 2.16486 60.3977 32.4728)" gradientUnits="userSpaceOnUse">
<stop stop-color="#6475E5"/>
<stop offset="1" stop-color="#2E42C6"/>
</radialGradient>
<radialGradient id="paint45_radial_891_6299" cx="0" cy="0" r="1" gradientTransform="matrix(2.32299 25.5453 -27.4113 2.16486 60.3977 32.4728)" gradientUnits="userSpaceOnUse">
<stop stop-color="#6475E5"/>
<stop offset="1" stop-color="#2E42C6"/>
</radialGradient>
<radialGradient id="paint46_radial_891_6299" cx="0" cy="0" r="1" gradientTransform="matrix(2.32299 25.5453 -27.4113 2.16486 60.3977 32.4728)" gradientUnits="userSpaceOnUse">
<stop stop-color="#E4AC2A"/>
<stop offset="1" stop-color="#C0791B"/>
</radialGradient>
<radialGradient id="paint47_radial_891_6299" cx="0" cy="0" r="1" gradientTransform="matrix(2.32299 25.5453 -27.4113 2.16486 60.3977 32.4728)" gradientUnits="userSpaceOnUse">
<stop stop-color="#E4AC2A"/>
<stop offset="1" stop-color="#C0791B"/>
</radialGradient>
</defs>
</svg>
