<svg width="493" height="445" viewBox="0 0 493 445" fill="none" xmlns="http://www.w3.org/2000/svg">
<path d="M206.072 109.886C217.208 113.24 244.308 123.249 263.628 136.452C282.947 149.654 314.341 174.69 327.623 185.558C331.916 188.376 343.964 193.608 357.809 191.998C371.602 190.394 387.604 215.286 393.96 228.077C397.449 229.783 430.913 248.827 429.362 249.192C433.725 249.605 451.669 247.839 491.836 237.482C491.568 240.971 489.019 250.765 480.969 262.035C483.921 268.341 489.824 281.92 489.824 285.784V327.645C488.214 331.133 479.601 337.788 458.028 336.5C449.307 325.096 425.748 301.723 401.277 299.469C393.764 308.056 378.98 326.598 379.946 332.073C381.153 338.915 386.788 358.236 394.033 365.481C401.277 372.726 429.049 411.367 429.049 414.99C429.049 417.888 435.757 419.686 439.111 420.223C441.928 425.187 447.322 435.599 446.356 437.531C445.148 439.946 441.123 443.166 433.476 444.776C427.358 446.064 415.901 440.483 410.937 437.531C386.922 410.562 338.007 354.613 334.465 346.563C330.038 336.5 326.415 304.702 317.158 294.236C309.752 285.864 301.73 281.356 298.644 280.148C296.229 286.589 288.586 296.516 279.727 299.469C268.86 303.092 245.918 304.702 241.089 299.469C240.82 296.786 242.859 290.292 253.163 285.784C263.467 281.276 266.043 269.952 266.043 264.853C258.53 259.62 238.432 247.062 218.147 238.69C207.012 242.447 185.224 251.168 187.156 255.998C189.088 260.828 192.254 263.914 193.595 264.853L241.089 291.419C239.394 300.084 226.505 300.282 187.156 294.236C181.923 287.93 169.607 275.801 162.201 277.733C154.796 279.665 165.287 289.54 171.459 294.236C167.97 297.054 156.647 300.999 139.26 294.236C137.918 288.87 132.578 274.191 121.953 258.413C129.868 249.558 146.585 229.754 150.127 221.382C154.554 210.916 138.052 179.118 126.783 171.873C124.904 168.25 122.275 157.624 126.783 144.099C86.8025 145.307 5.47379 131.702 0 67.6221C3.21988 49.509 8.69366 12.1559 4.82981 7.64773C0.965963 3.1396 6.9764 0.670854 10.4646 0C15.2944 1.61005 24.632 7.16472 23.3441 16.503C21.7342 28.1759 14.8919 67.6221 23.3441 76.0748C31.7963 84.5276 53.5304 113.106 85.3267 114.313C117.123 115.521 160.592 115.924 171.459 109.886C180.152 105.056 198.157 107.873 206.072 109.886Z" fill="#1A1818"/>
<path d="M400.531 300.093C379.591 265.275 393.936 240.44 402.661 232.526L411.487 237.396C389.817 253.709 402.458 287.412 411.487 301.615C399.459 298.571 401.342 300.093 400.531 300.093Z" fill="#E64A4B"/>
<path d="M490.314 324.753C490.314 326.618 487.988 327.468 486.786 326.043L485.329 324.316C484.163 322.935 485.282 320.84 487.078 321.039L488.535 321.2C489.548 321.313 490.314 322.169 490.314 323.188L490.314 324.753Z" fill="#CC6263"/>
<path d="M471.742 299.033C474.91 298.353 481.57 299.071 482.87 307.383C479.979 307.533 473.707 306.073 471.742 299.033Z" fill="#FFBC35"/>
<path d="M481.496 306.375C480.298 307.972 478.28 308.932 477.256 308.163C476.231 307.395 476.589 305.189 477.787 303.592C478.985 301.996 480.786 301.325 481.81 302.093C482.835 302.862 482.694 304.779 481.496 306.375Z" fill="#1A1818"/>
<path d="M406.284 293.406L405.704 292.099L396.878 292.47L397.618 294.139L399.739 294.012L403.638 293.798L400.868 296.556L399.347 298.034L400.489 299.857L406.284 293.406Z" fill="#FFBC35"/>
</svg>
