<svg width="375" height="992" viewBox="0 0 375 992" fill="none" xmlns="http://www.w3.org/2000/svg">
<path d="M326.245 309.253L323.526 180.794" stroke="#A69988" stroke-width="6" stroke-linecap="round"/>
<path d="M331.002 309.253L328.284 180.794" stroke="#786954" stroke-width="6" stroke-linecap="round"/>
<path d="M27.1866 311.972L21.9683 181.774" stroke="#786954" stroke-width="6" stroke-linecap="round"/>
<path d="M36.242 0.300227C9.05496 0.979904 2.08196 9.81548 1.57706 18.6513C-5.02735 134.228 10.7242 174.917 19.0452 179.055C184.002 158.665 284.324 175.656 310.831 179.055C332.037 181.774 336.885 176.11 336.659 172.938C337.792 126.267 339.378 30.0698 336.659 18.6513C333.94 7.23271 314.23 1.65951 304.714 0.300227C224.286 0.0736688 57.9916 -0.243513 36.242 0.300227Z" fill="url(#paint0_linear_1224_860)"/>
<path d="M46.2177 407.807V720.26L13.5933 939.313" stroke="#A69988" stroke-width="6" stroke-linecap="round"/>
<path d="M49.8339 411.885V722.117L17.2095 939.613" stroke="#786954" stroke-width="6" stroke-linecap="round"/>
<path d="M140.013 418.68L139.742 753.53L139.551 988.548" stroke="#786954" stroke-width="6" stroke-linecap="round"/>
<path d="M279.347 413.924L287.041 692.211L310.829 889.997" stroke="#786954" stroke-width="6" stroke-linecap="round"/>
<path d="M323.743 407.807V703.086L372 943.012" stroke="#786954" stroke-width="6" stroke-linecap="round"/>
<path d="M179.682 278.287C265.642 278.366 335.314 291.514 335.301 307.655C335.301 307.881 335.284 308.106 335.257 308.331C337.995 313.387 339.6 319.326 340.536 324.908C341.86 332.802 341.929 340.47 341.694 345.048L341.588 347.125L339.606 347.754C225.788 383.869 87.7131 368.488 27.5088 356.674L25.1143 356.204L25.0869 353.765C24.9437 341.301 24.1098 332.39 23.7178 325.355C23.3818 319.327 23.3362 314.393 24.6846 310.113C24.238 309.21 24.0079 308.296 24.0088 307.371C24.0241 291.23 93.7212 278.209 179.682 278.287Z" fill="url(#paint1_linear_1224_860)"/>
<path d="M24.6855 384.317V354.791C132.536 378.58 242.426 375.182 341.877 347.995L340.055 379.26C244.901 407.806 54.5913 395.192 24.6855 384.317Z" fill="#786954"/>
<path d="M25.3657 404.707V380.919C120.303 405.087 309.932 396.931 340.736 373.442L341.415 401.989C246.26 430.535 55.2715 415.582 25.3657 404.707Z" fill="#786954"/>
<path d="M175.008 376.125C176.655 375.942 177.841 374.458 177.658 372.812C177.475 371.165 175.992 369.978 174.345 370.161L174.677 373.143L175.008 376.125ZM24.4683 363.627L24.137 366.609C39.4863 368.315 72.4952 371.206 103.95 373.417C119.681 374.522 135.047 375.459 147.639 375.992C160.132 376.52 170.147 376.665 175.008 376.125L174.677 373.143L174.345 370.161C170.031 370.641 160.505 370.53 147.893 369.997C135.379 369.468 120.074 368.535 104.371 367.432C72.9553 365.224 40.0357 362.339 24.7996 360.646L24.4683 363.627Z" fill="url(#paint2_linear_1224_860)"/>
<path d="M177.128 402.221C178.769 401.993 179.915 400.478 179.687 398.837C179.459 397.196 177.944 396.05 176.303 396.278L176.716 399.249L177.128 402.221ZM26.5073 387.417L26.0949 390.388C41.3897 392.511 74.431 396.108 105.918 398.857C121.666 400.232 137.055 401.397 149.663 402.06C162.147 402.717 172.222 402.902 177.128 402.221L176.716 399.249L176.303 396.278C172.076 396.865 162.613 396.733 149.978 396.069C137.467 395.411 122.154 394.252 106.44 392.88C75.0007 390.135 42.072 386.548 26.9198 384.445L26.5073 387.417Z" fill="url(#paint3_linear_1224_860)"/>
<path d="M188.514 683.615C242.037 681.583 279.004 684.833 302.412 691.497C326.222 698.276 333.696 707.766 333.696 716.679C333.696 717.213 333.38 718.494 331.177 720.521C329.029 722.496 325.658 724.632 321.06 726.825C311.902 731.193 298.912 735.301 284.017 738.835C254.263 745.894 217.951 750.422 191.886 750.422C149.544 750.422 111.99 748.409 85.1343 743.345C71.6604 740.804 61.2797 737.564 54.3921 733.674C47.4684 729.764 45.1548 725.88 45.1548 722.231C45.1549 718.255 47.639 713.694 54.312 708.854C60.9248 704.059 70.8852 699.593 83.8345 695.792C109.671 688.209 146.205 683.619 188.324 683.619H188.419L188.514 683.615Z" stroke="url(#paint4_linear_1224_860)" stroke-width="10"/>
<path d="M34.4405 312.652C31.0422 320.808 43.6842 340.79 173.095 339.159" stroke="#E96667" stroke-width="10" stroke-linecap="round"/>
<path d="M34.4405 312.652C31.0422 320.808 43.6842 340.79 173.095 339.159" stroke="#E96667" stroke-width="10" stroke-linecap="round"/>
<path d="M29.226 163.123C11.5542 155.647 11.5542 44.8597 11.5542 39.421C11.5542 33.9824 11.554 10.8751 38.7421 10.8755" stroke="#973636" stroke-width="10" stroke-linecap="round"/>
<path d="M25.8276 382.659C88.3579 392.628 238.566 405.088 339.158 375.183" stroke="#5A4E3D" stroke-width="3"/>
<path d="M24.4683 356.944C87.4054 367.063 238.591 379.711 339.838 349.354" stroke="#5A4E3D" stroke-width="3"/>
<path d="M322.166 309.933C322.166 321.945 253.434 331.682 175.356 331.682C97.2781 331.682 33.9834 321.945 33.9834 309.933C33.9834 297.921 102.715 284.785 180.793 284.785C258.871 284.785 322.166 297.921 322.166 309.933Z" fill="#A62E2F"/>
<defs>
<linearGradient id="paint0_linear_1224_860" x1="209.34" y1="29.2261" x2="-4.38625e-07" y2="76.8034" gradientUnits="userSpaceOnUse">
<stop stop-color="#BF3C3D"/>
<stop offset="1" stop-color="#591C1C"/>
</linearGradient>
<linearGradient id="paint1_linear_1224_860" x1="238.865" y1="324.344" x2="341.8" y2="324.276" gradientUnits="userSpaceOnUse">
<stop stop-color="#BF3C3D"/>
<stop offset="1" stop-color="#591C1C"/>
</linearGradient>
<linearGradient id="paint2_linear_1224_860" x1="24.4683" y1="368.547" x2="174.677" y2="368.547" gradientUnits="userSpaceOnUse">
<stop stop-color="#A69988"/>
<stop offset="1" stop-color="#92836E"/>
</linearGradient>
<linearGradient id="paint3_linear_1224_860" x1="26.5073" y1="393.534" x2="176.716" y2="393.534" gradientUnits="userSpaceOnUse">
<stop stop-color="#A69988"/>
<stop offset="1" stop-color="#92836E"/>
</linearGradient>
<linearGradient id="paint4_linear_1224_860" x1="140.692" y1="716.379" x2="136.614" y2="767.355" gradientUnits="userSpaceOnUse">
<stop stop-color="#786954"/>
<stop offset="1" stop-color="#DEC29B"/>
</linearGradient>
</defs>
</svg>
