<svg width="433" height="1146" viewBox="0 0 433 1146" fill="none" xmlns="http://www.w3.org/2000/svg">
<path d="M377.11 357.47L373.968 208.982" stroke="#A69988" stroke-width="6" stroke-linecap="round"/>
<path d="M382.61 357.47L379.468 208.982" stroke="#786954" stroke-width="6" stroke-linecap="round"/>
<path d="M31.4255 360.613L25.3936 210.116" stroke="#786954" stroke-width="6" stroke-linecap="round"/>
<path d="M41.8926 0.347037C10.4668 1.13268 2.40657 11.3459 1.82295 21.5593C-5.81118 155.156 12.3962 202.189 22.0146 206.972C212.69 183.403 328.654 203.044 359.294 206.972C383.806 210.115 389.411 203.568 389.149 199.901C390.458 145.953 392.291 34.7581 389.149 21.5593C386.006 8.36039 363.222 1.91825 352.223 0.347037C259.255 0.0851548 67.0334 -0.281481 41.8926 0.347037Z" fill="url(#paint0_linear_1383_2)"/>
<path d="M53.424 471.39V832.559L15.7129 1085.77" stroke="#A69988" stroke-width="6" stroke-linecap="round"/>
<path d="M57.6037 476.104V834.706L19.8926 1086.11" stroke="#786954" stroke-width="6" stroke-linecap="round"/>
<path d="M161.843 483.958L161.529 871.016L161.309 1142.68" stroke="#786954" stroke-width="6" stroke-linecap="round"/>
<path d="M322.901 478.461L331.795 800.138L359.292 1028.76" stroke="#786954" stroke-width="6" stroke-linecap="round"/>
<path d="M374.219 471.39V812.708L430 1090.04" stroke="#786954" stroke-width="6" stroke-linecap="round"/>
<path d="M207.697 321.678C307.06 321.769 387.596 336.968 387.579 355.625C387.579 356.136 387.514 356.642 387.395 357.147C390.356 362.808 392.123 369.402 393.17 375.644C394.694 384.727 394.774 393.556 394.504 398.823L394.397 400.9L392.415 401.529C260.963 443.24 101.454 425.477 31.8887 411.827L29.4941 411.357L29.4668 408.917C29.3011 394.496 28.3359 384.171 27.8838 376.057C27.5066 369.289 27.4555 363.797 28.8477 359.045C28.1248 357.814 27.7518 356.564 27.7529 355.296C27.77 336.639 108.334 321.587 207.697 321.678Z" fill="url(#paint1_linear_1383_2)"/>
<path d="M28.5342 444.238V410.108C153.2 437.606 280.224 433.677 395.18 402.251L393.075 438.391C283.084 471.388 63.1027 456.808 28.5342 444.238Z" fill="#786954"/>
<path d="M29.3208 467.807V440.31C139.06 468.246 358.255 458.818 393.861 431.667L394.647 464.665C284.656 497.662 63.8893 480.378 29.3208 467.807Z" fill="#786954"/>
<path d="M202.243 434.303C203.889 434.12 205.076 432.637 204.893 430.991C204.71 429.344 203.227 428.157 201.58 428.34L201.911 431.322L202.243 434.303ZM28.2832 420.323L27.9519 423.304C45.6856 425.275 83.8341 428.617 120.19 431.172C138.372 432.449 156.129 433.532 170.678 434.147C185.128 434.759 196.666 434.923 202.243 434.303L201.911 431.322L201.58 428.34C196.55 428.899 185.501 428.769 170.931 428.153C156.46 427.541 138.765 426.462 120.611 425.187C84.2942 422.635 46.235 419.299 28.6145 417.341L28.2832 420.323Z" fill="url(#paint2_linear_1383_2)"/>
<path d="M204.681 464.471C206.322 464.243 207.467 462.728 207.24 461.087C207.012 459.446 205.497 458.3 203.856 458.528L204.268 461.5L204.681 464.471ZM30.6401 447.822L30.2277 450.793C47.8961 453.246 86.0802 457.403 122.472 460.58C140.673 462.169 158.456 463.516 173.022 464.282C187.464 465.041 199.062 465.251 204.681 464.471L204.268 461.5L203.856 458.528C198.916 459.214 187.93 459.057 173.337 458.29C158.867 457.529 141.161 456.189 122.994 454.603C86.6499 451.43 48.5783 447.283 31.0526 444.85L30.6401 447.822Z" fill="url(#paint3_linear_1383_2)"/>
<path d="M217.876 789.422C279.772 787.072 322.6 790.825 349.776 798.562C377.355 806.414 386.503 817.547 386.503 828.42C386.503 829.352 385.959 831.026 383.34 833.434C380.776 835.792 376.802 838.302 371.454 840.852C360.795 845.935 345.718 850.698 328.479 854.789C294.036 862.961 252.001 868.204 221.803 868.204C172.848 868.204 129.38 865.878 98.2632 860.009C82.6588 857.066 70.5609 853.302 62.4888 848.744C54.3807 844.165 51.4156 839.467 51.4155 834.838C51.4155 829.881 54.5166 824.405 62.3218 818.745C70.067 813.127 81.6756 807.933 96.686 803.528C126.644 794.735 168.954 789.425 217.687 789.425H217.782L217.876 789.422Z" stroke="url(#paint4_linear_1383_2)" stroke-width="10"/>
<path d="M39.8102 361.398C35.8819 370.826 50.495 393.924 200.082 392.038" stroke="#E96667" stroke-width="10" stroke-linecap="round"/>
<path d="M39.8102 361.398C35.8819 370.826 50.495 393.924 200.082 392.038" stroke="#E96667" stroke-width="10" stroke-linecap="round"/>
<path d="M33.783 188.557C13.356 179.915 13.356 51.8541 13.356 45.5675C13.3559 39.2809 13.3557 12.5709 44.7828 12.5713" stroke="#973636" stroke-width="10" stroke-linecap="round"/>
<path d="M29.8545 442.321C102.134 453.844 275.762 468.248 392.038 433.679" stroke="#5A4E3D" stroke-width="3"/>
<path d="M28.2832 412.596C101.033 424.293 275.791 438.914 392.824 403.824" stroke="#5A4E3D" stroke-width="3"/>
<path d="M372.396 358.256C372.396 372.141 292.948 383.397 202.696 383.397C112.445 383.397 39.2817 372.141 39.2817 358.256C39.2817 344.371 118.73 329.187 208.982 329.187C299.233 329.187 372.396 344.371 372.396 358.256Z" fill="#A62E2F"/>
<defs>
<linearGradient id="paint0_linear_1383_2" x1="241.979" y1="33.7828" x2="-1.50314e-06" y2="88.7781" gradientUnits="userSpaceOnUse">
<stop stop-color="#BF3C3D"/>
<stop offset="1" stop-color="#591C1C"/>
</linearGradient>
<linearGradient id="paint1_linear_1383_2" x1="275.943" y1="374.681" x2="394.624" y2="374.603" gradientUnits="userSpaceOnUse">
<stop stop-color="#BF3C3D"/>
<stop offset="1" stop-color="#591C1C"/>
</linearGradient>
<linearGradient id="paint2_linear_1383_2" x1="28.2832" y1="426.009" x2="201.911" y2="426.009" gradientUnits="userSpaceOnUse">
<stop stop-color="#A69988"/>
<stop offset="1" stop-color="#92836E"/>
</linearGradient>
<linearGradient id="paint3_linear_1383_2" x1="30.6401" y1="454.893" x2="204.268" y2="454.893" gradientUnits="userSpaceOnUse">
<stop stop-color="#A69988"/>
<stop offset="1" stop-color="#92836E"/>
</linearGradient>
<linearGradient id="paint4_linear_1383_2" x1="162.628" y1="828.073" x2="157.915" y2="886.997" gradientUnits="userSpaceOnUse">
<stop stop-color="#786954"/>
<stop offset="1" stop-color="#DEC29B"/>
</linearGradient>
</defs>
</svg>
